<svg xmlns="http://www.w3.org/2000/svg" width="420" height="660" viewBox="0 0 420 660">
<defs>
  <linearGradient id="bg" x1="0" y1="0" x2="1" y2="1">
    <stop stop-color="#070a18"/>
    <stop offset=".45" stop-color="#161034"/>
    <stop offset="1" stop-color="#050711"/>
  </linearGradient>
  <radialGradient id="core" cx="50%" cy="48%" r="60%">
    <stop stop-color="#7c3aed" stop-opacity=".34"/>
    <stop offset=".42" stop-color="#1d4ed8" stop-opacity=".16"/>
    <stop offset="1" stop-color="#000" stop-opacity="0"/>
  </radialGradient>
  <filter id="glow" x="-30%" y="-30%" width="160%" height="160%">
    <feDropShadow dx="0" dy="0" stdDeviation="6" flood-color="#c084fc" flood-opacity=".55"/>
    <feDropShadow dx="0" dy="0" stdDeviation="3" flood-color="#f8d98a" flood-opacity=".38"/>
  </filter>
</defs>
<rect width="420" height="660" rx="34" fill="url(#bg)"/>
<rect x="18" y="18" width="384" height="624" rx="30" fill="url(#core)" stroke="#d7a85b" stroke-opacity=".86" stroke-width="2.5"/>
<rect x="34" y="34" width="352" height="592" rx="23" fill="none" stroke="#8b5cf6" stroke-opacity=".34" stroke-width="1.4"/>
<path d="M62 106 C134 58 286 58 358 106 M62 554 C134 602 286 602 358 554" fill="none" stroke="#d7a85b" stroke-opacity=".28" stroke-width="2"/>
<g opacity=".55">
<circle cx="86" cy="152" r="2" fill="#fff2b8"/><circle cx="334" cy="176" r="2" fill="#fff2b8"/><circle cx="116" cy="510" r="2" fill="#c4b5fd"/><circle cx="310" cy="508" r="2" fill="#fff2b8"/><circle cx="210" cy="94" r="2" fill="#fff2b8"/><circle cx="210" cy="566" r="2" fill="#fff2b8"/>
</g>
<g filter="url(#glow)">
  <circle cx="210" cy="330" r="104" fill="none" stroke="#d7a85b" stroke-opacity=".55" stroke-width="2"/>
  <circle cx="210" cy="330" r="72" fill="none" stroke="#c084fc" stroke-opacity=".62" stroke-width="2"/>
  <path d="M210 218 C250 282 250 378 210 442 C170 378 170 282 210 218Z" fill="none" stroke="#d7a85b" stroke-opacity=".72" stroke-width="3"/>
  <path d="M110 330 C166 286 254 286 310 330 C254 374 166 374 110 330Z" fill="none" stroke="#d7a85b" stroke-opacity=".72" stroke-width="3"/>
  <path d="M162 330 C190 306 230 306 258 330 C230 354 190 354 162 330Z" fill="#d7a85b" fill-opacity=".10" stroke="#f8d98a" stroke-opacity=".70" stroke-width="2"/>
  <text x="210" y="349" text-anchor="middle" font-size="78" fill="#fff0b8" font-family="Georgia,serif">☾</text>
</g>
<text x="210" y="586" text-anchor="middle" fill="#c9ad73" font-family="Arial, sans-serif" font-size="9" letter-spacing="5">FATECARD</text>
</svg>