<svg xmlns="http://www.w3.org/2000/svg" width="420" height="660" viewBox="0 0 420 660">
<defs>
  <linearGradient id="b" x1="0" y1="0" x2="1" y2="1"><stop stop-color="#100b24"/><stop offset=".55" stop-color="#21133a"/><stop offset="1" stop-color="#070913"/></linearGradient>
  <radialGradient id="g" cx="50%" cy="45%" r="55%"><stop stop-color="#d6a24f" stop-opacity=".28"/><stop offset=".55" stop-color="#8b5cf6" stop-opacity=".10"/><stop offset="1" stop-color="#000" stop-opacity="0"/></radialGradient>
  <filter id="glow"><feDropShadow dx="0" dy="0" stdDeviation="5" flood-color="#d6a24f" flood-opacity=".45"/></filter>
</defs>
<rect width="420" height="660" rx="34" fill="url(#b)"/>
<rect x="18" y="18" width="384" height="624" rx="30" fill="url(#g)" stroke="#d6a24f" stroke-opacity=".8" stroke-width="2.4"/>
<rect x="36" y="36" width="348" height="588" rx="22" fill="none" stroke="#6d4c9f" stroke-opacity=".48" stroke-width="1.5"/>
<path d="M72 92 C135 52 285 52 348 92 M72 568 C135 608 285 608 348 568" fill="none" stroke="#d6a24f" stroke-opacity=".28" stroke-width="2"/>
<g filter="url(#glow)">
<circle cx="210" cy="330" r="94" fill="none" stroke="#d6a24f" stroke-opacity=".52" stroke-width="2"/>
<circle cx="210" cy="330" r="58" fill="none" stroke="#8b5cf6" stroke-opacity=".55" stroke-width="2"/>
<path d="M210 222 C244 280 244 380 210 438 C176 380 176 280 210 222Z" fill="none" stroke="#d6a24f" stroke-opacity=".65" stroke-width="3"/>
<path d="M122 330 C172 292 248 292 298 330 C248 368 172 368 122 330Z" fill="none" stroke="#d6a24f" stroke-opacity=".65" stroke-width="3"/>
<circle cx="210" cy="330" r="18" fill="#d6a24f" opacity=".86"/>
</g>
<g opacity=".72">
<circle cx="88" cy="146" r="2" fill="#fff1b8"/><circle cx="344" cy="168" r="2" fill="#fff1b8"/><circle cx="308" cy="510" r="2" fill="#fff1b8"/><circle cx="114" cy="486" r="2" fill="#fff1b8"/>
</g>
<text x="210" y="586" text-anchor="middle" fill="#c8b07b" font-family="Georgia,serif" font-size="11" letter-spacing="4">FATECARD</text>
</svg>