<svg xmlns="http://www.w3.org/2000/svg" width="420" height="660" viewBox="0 0 420 660" role="img" aria-label="Temperance">
  <defs>
    <linearGradient id="bg" x1="0" y1="0" x2="1" y2="1">
      <stop offset="0%" stop-color="#050816"/>
      <stop offset="45%" stop-color="#17102d"/>
      <stop offset="100%" stop-color="#020617"/>
    </linearGradient>
    <radialGradient id="aura" cx="50%" cy="38%" r="68%">
      <stop offset="0%" stop-color="#facc15" stop-opacity=".18"/>
      <stop offset="52%" stop-color="#a78bfa" stop-opacity=".10"/>
      <stop offset="100%" stop-color="#020617" stop-opacity="0"/>
    </radialGradient>
    <filter id="glow" x="-30%" y="-30%" width="160%" height="160%">
      <feDropShadow dx="0" dy="0" stdDeviation="6" flood-color="#67e8f9" flood-opacity=".42"/>
    </filter>
  </defs>
  <rect width="420" height="660" rx="34" fill="url(#bg)"/>
  <rect x="20" y="20" width="380" height="620" rx="30" fill="url(#aura)" stroke="#facc15" stroke-opacity=".54" stroke-width="2"/>
  <rect x="35" y="35" width="350" height="590" rx="22" fill="none" stroke="#a78bfa" stroke-opacity=".18" stroke-width="1.5"/>
  <circle cx="245" cy="343" r="1.8" fill="#fde68a" opacity="0.60"/>
<circle cx="219" cy="280" r="1.4" fill="#fde68a" opacity="0.40"/>
<circle cx="324" cy="279" r="1.0" fill="#fde68a" opacity="0.34"/>
<circle cx="350" cy="90" r="1.0" fill="#fde68a" opacity="0.70"/>
<circle cx="381" cy="337" r="2.2" fill="#fde68a" opacity="0.67"/>
<circle cx="164" cy="244" r="2.2" fill="#fde68a" opacity="0.31"/>
<circle cx="329" cy="294" r="1.4" fill="#fde68a" opacity="0.40"/>
<circle cx="322" cy="131" r="1.4" fill="#fde68a" opacity="0.28"/>
<circle cx="344" cy="254" r="1.8" fill="#fde68a" opacity="0.75"/>
<circle cx="183" cy="123" r="1.0" fill="#fde68a" opacity="0.79"/>
<circle cx="109" cy="266" r="1.0" fill="#fde68a" opacity="0.33"/>
<circle cx="246" cy="323" r="1.0" fill="#fde68a" opacity="0.74"/>
<circle cx="68" cy="137" r="1.0" fill="#fde68a" opacity="0.39"/>
<circle cx="76" cy="72" r="2.2" fill="#fde68a" opacity="0.32"/>
<circle cx="331" cy="525" r="1.0" fill="#fde68a" opacity="0.44"/>
<circle cx="304" cy="439" r="2.2" fill="#fde68a" opacity="0.65"/>
<circle cx="214" cy="343" r="1.4" fill="#fde68a" opacity="0.65"/>
<circle cx="154" cy="226" r="1.8" fill="#fde68a" opacity="0.64"/>
<circle cx="326" cy="585" r="1.8" fill="#fde68a" opacity="0.83"/>
<circle cx="104" cy="258" r="1.0" fill="#fde68a" opacity="0.45"/>
<circle cx="112" cy="436" r="1.0" fill="#fde68a" opacity="0.70"/>
<circle cx="98" cy="192" r="1.4" fill="#fde68a" opacity="0.48"/>
<circle cx="282" cy="142" r="2.2" fill="#fde68a" opacity="0.49"/>
<circle cx="302" cy="184" r="1.4" fill="#fde68a" opacity="0.73"/>
<circle cx="293" cy="75" r="1.0" fill="#fde68a" opacity="0.36"/>
<circle cx="253" cy="443" r="1.0" fill="#fde68a" opacity="0.32"/>
<circle cx="84" cy="211" r="1.8" fill="#fde68a" opacity="0.80"/>
<circle cx="198" cy="548" r="1.0" fill="#fde68a" opacity="0.82"/>
<circle cx="134" cy="539" r="1.8" fill="#fde68a" opacity="0.54"/>
<circle cx="154" cy="530" r="1.8" fill="#fde68a" opacity="0.58"/>
<circle cx="163" cy="75" r="1.0" fill="#fde68a" opacity="0.78"/>
<circle cx="342" cy="468" r="1.0" fill="#fde68a" opacity="0.82"/>
<circle cx="98" cy="350" r="1.0" fill="#fde68a" opacity="0.76"/>
<circle cx="239" cy="550" r="2.2" fill="#fde68a" opacity="0.80"/>
  
    <path d="M55 118 C120 74 300 74 365 118" fill="none" stroke="#67e8f9" stroke-opacity=".28" stroke-width="2"/>
    <path d="M55 542 C120 586 300 586 365 542" fill="none" stroke="#67e8f9" stroke-opacity=".28" stroke-width="2"/>
    <path d="M74 88 L98 88 M322 88 L346 88 M74 572 L98 572 M322 572 L346 572" stroke="#f0abfc" stroke-opacity=".50" stroke-width="2" stroke-linecap="round"/>
    <circle cx="80" cy="100" r="10" fill="none" stroke="#f0abfc" stroke-opacity=".45"/>
    <circle cx="340" cy="100" r="10" fill="none" stroke="#f0abfc" stroke-opacity=".45"/>
    <circle cx="80" cy="560" r="10" fill="none" stroke="#f0abfc" stroke-opacity=".45"/>
    <circle cx="340" cy="560" r="10" fill="none" stroke="#f0abfc" stroke-opacity=".45"/>
    
  
        <g filter="url(#glow)">
          <circle cx="210" cy="288" r="118" fill="#67e8f9" opacity=".11"/>
          <circle cx="210" cy="288" r="91" fill="none" stroke="#67e8f9" stroke-width="3" stroke-opacity=".74"/>
          <circle cx="210" cy="288" r="58" fill="#f0abfc" opacity=".12" stroke="#f0abfc" stroke-width="2" stroke-opacity=".55"/>
          <text x="210" y="310" text-anchor="middle" font-size="96" font-family="Georgia, serif" fill="#67e8f9">♒</text>
        </g>
        <path d="M132 430 C164 404, 256 404, 288 430" fill="none" stroke="#67e8f9" stroke-width="6" stroke-linecap="round" stroke-opacity=".62"/>
        <path d="M156 452 C184 438, 236 438, 264 452" fill="none" stroke="#f0abfc" stroke-width="3" stroke-linecap="round" stroke-opacity=".56"/>
        <text x="62" y="86" font-size="24" font-family="Georgia, serif" fill="#fff7ed">14</text>
        <text x="358" y="86" text-anchor="end" font-size="24" font-family="Georgia, serif" fill="#fff7ed">14</text>
        
  <rect x="58" y="522" width="304" height="76" rx="18" fill="#020617" opacity=".62" stroke="#facc15" stroke-opacity=".24"/>
  <text x="210" y="558" text-anchor="middle" font-size="20" font-family="Georgia, serif" fill="#fff7ed">Temperance</text>
  <text x="210" y="586" text-anchor="middle" font-size="9" font-family="Arial, sans-serif" letter-spacing="3" fill="#c4b5fd">ORIGINAL SYMBOLIC DECK</text>
</svg>