<svg xmlns="http://www.w3.org/2000/svg" width="420" height="660" viewBox="0 0 420 660" role="img" aria-label="The Moon">
  <defs>
    <linearGradient id="bg" x1="0" y1="0" x2="1" y2="1">
      <stop offset="0%" stop-color="#050816"/>
      <stop offset="45%" stop-color="#17102d"/>
      <stop offset="100%" stop-color="#020617"/>
    </linearGradient>
    <radialGradient id="aura" cx="50%" cy="38%" r="68%">
      <stop offset="0%" stop-color="#facc15" stop-opacity=".18"/>
      <stop offset="52%" stop-color="#a78bfa" stop-opacity=".10"/>
      <stop offset="100%" stop-color="#020617" stop-opacity="0"/>
    </radialGradient>
    <filter id="glow" x="-30%" y="-30%" width="160%" height="160%">
      <feDropShadow dx="0" dy="0" stdDeviation="6" flood-color="#c084fc" flood-opacity=".42"/>
    </filter>
  </defs>
  <rect width="420" height="660" rx="34" fill="url(#bg)"/>
  <rect x="20" y="20" width="380" height="620" rx="30" fill="url(#aura)" stroke="#facc15" stroke-opacity=".54" stroke-width="2"/>
  <rect x="35" y="35" width="350" height="590" rx="22" fill="none" stroke="#a78bfa" stroke-opacity=".18" stroke-width="1.5"/>
  <circle cx="46" cy="88" r="1.4" fill="#fde68a" opacity="0.38"/>
<circle cx="115" cy="280" r="1.0" fill="#fde68a" opacity="0.82"/>
<circle cx="339" cy="381" r="1.0" fill="#fde68a" opacity="0.82"/>
<circle cx="164" cy="174" r="1.8" fill="#fde68a" opacity="0.69"/>
<circle cx="251" cy="232" r="1.0" fill="#fde68a" opacity="0.31"/>
<circle cx="342" cy="190" r="1.0" fill="#fde68a" opacity="0.53"/>
<circle cx="78" cy="515" r="1.0" fill="#fde68a" opacity="0.66"/>
<circle cx="199" cy="182" r="2.2" fill="#fde68a" opacity="0.31"/>
<circle cx="368" cy="262" r="1.8" fill="#fde68a" opacity="0.61"/>
<circle cx="236" cy="288" r="1.4" fill="#fde68a" opacity="0.61"/>
<circle cx="121" cy="188" r="2.2" fill="#fde68a" opacity="0.40"/>
<circle cx="138" cy="195" r="1.0" fill="#fde68a" opacity="0.58"/>
<circle cx="284" cy="188" r="1.4" fill="#fde68a" opacity="0.75"/>
<circle cx="103" cy="155" r="1.0" fill="#fde68a" opacity="0.46"/>
<circle cx="218" cy="520" r="1.4" fill="#fde68a" opacity="0.71"/>
<circle cx="227" cy="246" r="1.0" fill="#fde68a" opacity="0.58"/>
<circle cx="317" cy="172" r="1.0" fill="#fde68a" opacity="0.40"/>
<circle cx="212" cy="139" r="1.0" fill="#fde68a" opacity="0.49"/>
<circle cx="42" cy="518" r="1.0" fill="#fde68a" opacity="0.55"/>
<circle cx="160" cy="479" r="1.4" fill="#fde68a" opacity="0.82"/>
<circle cx="312" cy="141" r="1.4" fill="#fde68a" opacity="0.34"/>
<circle cx="47" cy="409" r="1.0" fill="#fde68a" opacity="0.67"/>
<circle cx="373" cy="119" r="1.8" fill="#fde68a" opacity="0.45"/>
<circle cx="314" cy="311" r="1.4" fill="#fde68a" opacity="0.32"/>
<circle cx="298" cy="512" r="1.8" fill="#fde68a" opacity="0.77"/>
<circle cx="319" cy="64" r="1.0" fill="#fde68a" opacity="0.76"/>
<circle cx="350" cy="326" r="1.0" fill="#fde68a" opacity="0.80"/>
<circle cx="343" cy="99" r="1.0" fill="#fde68a" opacity="0.74"/>
<circle cx="331" cy="436" r="1.0" fill="#fde68a" opacity="0.53"/>
<circle cx="324" cy="424" r="1.0" fill="#fde68a" opacity="0.36"/>
<circle cx="73" cy="168" r="1.0" fill="#fde68a" opacity="0.63"/>
<circle cx="305" cy="524" r="1.0" fill="#fde68a" opacity="0.30"/>
<circle cx="267" cy="323" r="1.0" fill="#fde68a" opacity="0.72"/>
<circle cx="69" cy="256" r="1.0" fill="#fde68a" opacity="0.31"/>
  
    <path d="M55 118 C120 74 300 74 365 118" fill="none" stroke="#c084fc" stroke-opacity=".28" stroke-width="2"/>
    <path d="M55 542 C120 586 300 586 365 542" fill="none" stroke="#c084fc" stroke-opacity=".28" stroke-width="2"/>
    <path d="M74 88 L98 88 M322 88 L346 88 M74 572 L98 572 M322 572 L346 572" stroke="#93c5fd" stroke-opacity=".50" stroke-width="2" stroke-linecap="round"/>
    <circle cx="80" cy="100" r="10" fill="none" stroke="#93c5fd" stroke-opacity=".45"/>
    <circle cx="340" cy="100" r="10" fill="none" stroke="#93c5fd" stroke-opacity=".45"/>
    <circle cx="80" cy="560" r="10" fill="none" stroke="#93c5fd" stroke-opacity=".45"/>
    <circle cx="340" cy="560" r="10" fill="none" stroke="#93c5fd" stroke-opacity=".45"/>
    
  
        <g filter="url(#glow)">
          <circle cx="210" cy="288" r="118" fill="#c084fc" opacity=".11"/>
          <circle cx="210" cy="288" r="91" fill="none" stroke="#c084fc" stroke-width="3" stroke-opacity=".74"/>
          <circle cx="210" cy="288" r="58" fill="#93c5fd" opacity=".12" stroke="#93c5fd" stroke-width="2" stroke-opacity=".55"/>
          <text x="210" y="310" text-anchor="middle" font-size="96" font-family="Georgia, serif" fill="#c084fc">☽</text>
        </g>
        <path d="M132 430 C164 404, 256 404, 288 430" fill="none" stroke="#c084fc" stroke-width="6" stroke-linecap="round" stroke-opacity=".62"/>
        <path d="M156 452 C184 438, 236 438, 264 452" fill="none" stroke="#93c5fd" stroke-width="3" stroke-linecap="round" stroke-opacity=".56"/>
        <text x="62" y="86" font-size="24" font-family="Georgia, serif" fill="#fff7ed">18</text>
        <text x="358" y="86" text-anchor="end" font-size="24" font-family="Georgia, serif" fill="#fff7ed">18</text>
        
  <rect x="58" y="522" width="304" height="76" rx="18" fill="#020617" opacity=".62" stroke="#facc15" stroke-opacity=".24"/>
  <text x="210" y="558" text-anchor="middle" font-size="20" font-family="Georgia, serif" fill="#fff7ed">The Moon</text>
  <text x="210" y="586" text-anchor="middle" font-size="9" font-family="Arial, sans-serif" letter-spacing="3" fill="#c4b5fd">ORIGINAL SYMBOLIC DECK</text>
</svg>