<svg xmlns="http://www.w3.org/2000/svg" width="420" height="660" viewBox="0 0 420 660" role="img" aria-label="The Lovers">
<defs>
<linearGradient id="bg" x1="0" y1="0" x2="1" y2="1"><stop stop-color="#080b18"/><stop offset=".52" stop-color="#211436"/><stop offset="1" stop-color="#050812"/></linearGradient>
<radialGradient id="a" cx="50%" cy="40%" r="64%"><stop stop-color="#fb7185" stop-opacity=".22"/><stop offset=".55" stop-color="#fcd34d" stop-opacity=".12"/><stop offset="1" stop-color="#000" stop-opacity="0"/></radialGradient>
<filter id="glow"><feDropShadow dx="0" dy="0" stdDeviation="5" flood-color="#fb7185" flood-opacity=".42"/></filter>
</defs>
<rect width="420" height="660" rx="34" fill="url(#bg)"/>
<rect x="18" y="18" width="384" height="624" rx="30" fill="url(#a)" stroke="#d6a24f" stroke-opacity=".82" stroke-width="2.4"/>
<rect x="36" y="36" width="348" height="588" rx="22" fill="none" stroke="#fcd34d" stroke-opacity=".28" stroke-width="1.5"/>
<circle cx="330" cy="501" r="1.5" fill="#fff1b8" opacity="0.45"/>
<circle cx="284" cy="393" r="1.2" fill="#fff1b8" opacity="0.50"/>
<circle cx="126" cy="372" r="1.5" fill="#fff1b8" opacity="0.32"/>
<circle cx="151" cy="296" r="1.2" fill="#fff1b8" opacity="0.29"/>
<circle cx="207" cy="102" r="2" fill="#fff1b8" opacity="0.72"/>
<circle cx="323" cy="587" r="1.5" fill="#fff1b8" opacity="0.28"/>
<circle cx="205" cy="164" r="2" fill="#fff1b8" opacity="0.47"/>
<circle cx="234" cy="341" r="2" fill="#fff1b8" opacity="0.69"/>
<circle cx="309" cy="335" r="1.5" fill="#fff1b8" opacity="0.34"/>
<circle cx="341" cy="539" r="1.2" fill="#fff1b8" opacity="0.38"/>
<circle cx="223" cy="282" r="1.2" fill="#fff1b8" opacity="0.71"/>
<circle cx="169" cy="229" r="1.5" fill="#fff1b8" opacity="0.52"/>
<circle cx="300" cy="572" r="1" fill="#fff1b8" opacity="0.78"/>
<circle cx="186" cy="154" r="1.2" fill="#fff1b8" opacity="0.47"/>
<circle cx="140" cy="174" r="1.2" fill="#fff1b8" opacity="0.32"/>
<circle cx="161" cy="562" r="2" fill="#fff1b8" opacity="0.74"/>
<circle cx="268" cy="523" r="1.5" fill="#fff1b8" opacity="0.45"/>
<circle cx="75" cy="232" r="1.5" fill="#fff1b8" opacity="0.73"/>
<circle cx="204" cy="79" r="2" fill="#fff1b8" opacity="0.30"/>
<circle cx="147" cy="111" r="1.2" fill="#fff1b8" opacity="0.38"/>
<circle cx="273" cy="119" r="1" fill="#fff1b8" opacity="0.65"/>
<circle cx="179" cy="432" r="1.5" fill="#fff1b8" opacity="0.28"/>
<circle cx="289" cy="91" r="2" fill="#fff1b8" opacity="0.33"/>
<circle cx="179" cy="530" r="2" fill="#fff1b8" opacity="0.36"/>
<circle cx="131" cy="259" r="1.5" fill="#fff1b8" opacity="0.77"/>
<circle cx="279" cy="395" r="2" fill="#fff1b8" opacity="0.34"/>
<circle cx="91" cy="463" r="2" fill="#fff1b8" opacity="0.54"/>
<circle cx="326" cy="159" r="2" fill="#fff1b8" opacity="0.27"/>
<circle cx="237" cy="172" r="1.5" fill="#fff1b8" opacity="0.68"/>
<circle cx="339" cy="107" r="1.5" fill="#fff1b8" opacity="0.28"/>
<circle cx="217" cy="477" r="1.2" fill="#fff1b8" opacity="0.30"/>
<circle cx="315" cy="531" r="1" fill="#fff1b8" opacity="0.40"/>
<circle cx="51" cy="376" r="2" fill="#fff1b8" opacity="0.40"/>
<circle cx="58" cy="142" r="2" fill="#fff1b8" opacity="0.50"/>
<circle cx="363" cy="146" r="2" fill="#fff1b8" opacity="0.44"/>
<circle cx="83" cy="405" r="1.5" fill="#fff1b8" opacity="0.33"/>
<circle cx="305" cy="155" r="1" fill="#fff1b8" opacity="0.68"/>
<circle cx="136" cy="460" r="1.5" fill="#fff1b8" opacity="0.60"/>
<path d="M70 104 C132 68 288 68 350 104 M70 556 C132 592 288 592 350 556" fill="none" stroke="#d6a24f" stroke-opacity=".28" stroke-width="2"/>
<text x="64" y="78" fill="#fff1b8" font-size="22" font-family="Georgia,serif">06</text>
<text x="356" y="78" text-anchor="end" fill="#fff1b8" font-size="22" font-family="Georgia,serif">06</text>
<g filter="url(#glow)">
        <circle cx="168" cy="262" r="44" fill="#fb7185" opacity=".18" stroke="#fb7185" stroke-width="3"/>
        <circle cx="252" cy="262" r="44" fill="#fcd34d" opacity=".18" stroke="#fcd34d" stroke-width="3"/>
        <path d="M132 386 C168 324 252 324 288 386" fill="none" stroke="#fb7185" stroke-width="6" stroke-linecap="round" opacity=".65"/>
        <text x="210" y="328" text-anchor="middle" font-size="74" fill="#fb7185" font-family="Georgia,serif">♡</text>
        </g>
<rect x="58" y="530" width="304" height="74" rx="17" fill="#050812" opacity=".74" stroke="#d6a24f" stroke-opacity=".30"/>
<text x="210" y="566" text-anchor="middle" fill="#fff7df" font-size="20" font-family="Georgia,serif">The Lovers</text>
<text x="210" y="592" text-anchor="middle" fill="#c9b27a" font-size="9" font-family="Arial" letter-spacing="3">FATECARD ORIGINAL</text>
</svg>