<svg xmlns="http://www.w3.org/2000/svg" width="420" height="660" viewBox="0 0 420 660" role="img" aria-label="Death">
  <defs>
    <linearGradient id="bg" x1="0" y1="0" x2="1" y2="1">
      <stop offset="0%" stop-color="#050816"/>
      <stop offset="45%" stop-color="#17102d"/>
      <stop offset="100%" stop-color="#020617"/>
    </linearGradient>
    <radialGradient id="aura" cx="50%" cy="38%" r="68%">
      <stop offset="0%" stop-color="#facc15" stop-opacity=".18"/>
      <stop offset="52%" stop-color="#a78bfa" stop-opacity=".10"/>
      <stop offset="100%" stop-color="#020617" stop-opacity="0"/>
    </radialGradient>
    <filter id="glow" x="-30%" y="-30%" width="160%" height="160%">
      <feDropShadow dx="0" dy="0" stdDeviation="6" flood-color="#f8fafc" flood-opacity=".42"/>
    </filter>
  </defs>
  <rect width="420" height="660" rx="34" fill="url(#bg)"/>
  <rect x="20" y="20" width="380" height="620" rx="30" fill="url(#aura)" stroke="#facc15" stroke-opacity=".54" stroke-width="2"/>
  <rect x="35" y="35" width="350" height="590" rx="22" fill="none" stroke="#a78bfa" stroke-opacity=".18" stroke-width="1.5"/>
  <circle cx="317" cy="185" r="1.0" fill="#fde68a" opacity="0.43"/>
<circle cx="211" cy="81" r="1.8" fill="#fde68a" opacity="0.68"/>
<circle cx="259" cy="83" r="2.2" fill="#fde68a" opacity="0.65"/>
<circle cx="255" cy="180" r="1.8" fill="#fde68a" opacity="0.84"/>
<circle cx="285" cy="138" r="1.4" fill="#fde68a" opacity="0.54"/>
<circle cx="108" cy="390" r="1.4" fill="#fde68a" opacity="0.76"/>
<circle cx="101" cy="202" r="1.8" fill="#fde68a" opacity="0.30"/>
<circle cx="46" cy="200" r="1.4" fill="#fde68a" opacity="0.32"/>
<circle cx="115" cy="112" r="2.2" fill="#fde68a" opacity="0.65"/>
<circle cx="93" cy="434" r="1.0" fill="#fde68a" opacity="0.68"/>
<circle cx="258" cy="136" r="1.4" fill="#fde68a" opacity="0.78"/>
<circle cx="363" cy="313" r="1.0" fill="#fde68a" opacity="0.82"/>
<circle cx="215" cy="221" r="1.8" fill="#fde68a" opacity="0.61"/>
<circle cx="349" cy="246" r="1.4" fill="#fde68a" opacity="0.83"/>
<circle cx="270" cy="509" r="1.0" fill="#fde68a" opacity="0.52"/>
<circle cx="380" cy="117" r="1.0" fill="#fde68a" opacity="0.66"/>
<circle cx="75" cy="183" r="1.8" fill="#fde68a" opacity="0.38"/>
<circle cx="139" cy="66" r="1.0" fill="#fde68a" opacity="0.53"/>
<circle cx="360" cy="304" r="2.2" fill="#fde68a" opacity="0.66"/>
<circle cx="328" cy="202" r="1.0" fill="#fde68a" opacity="0.31"/>
<circle cx="272" cy="400" r="1.0" fill="#fde68a" opacity="0.83"/>
<circle cx="353" cy="230" r="1.0" fill="#fde68a" opacity="0.66"/>
<circle cx="286" cy="505" r="1.8" fill="#fde68a" opacity="0.76"/>
<circle cx="153" cy="517" r="1.0" fill="#fde68a" opacity="0.48"/>
<circle cx="285" cy="227" r="2.2" fill="#fde68a" opacity="0.53"/>
<circle cx="68" cy="260" r="2.2" fill="#fde68a" opacity="0.76"/>
<circle cx="243" cy="93" r="1.0" fill="#fde68a" opacity="0.41"/>
<circle cx="162" cy="277" r="1.0" fill="#fde68a" opacity="0.39"/>
<circle cx="38" cy="165" r="1.8" fill="#fde68a" opacity="0.29"/>
<circle cx="93" cy="448" r="2.2" fill="#fde68a" opacity="0.50"/>
<circle cx="222" cy="350" r="1.0" fill="#fde68a" opacity="0.54"/>
<circle cx="327" cy="234" r="1.0" fill="#fde68a" opacity="0.72"/>
<circle cx="280" cy="105" r="1.0" fill="#fde68a" opacity="0.36"/>
<circle cx="172" cy="357" r="1.8" fill="#fde68a" opacity="0.69"/>
  
    <path d="M55 118 C120 74 300 74 365 118" fill="none" stroke="#f8fafc" stroke-opacity=".28" stroke-width="2"/>
    <path d="M55 542 C120 586 300 586 365 542" fill="none" stroke="#f8fafc" stroke-opacity=".28" stroke-width="2"/>
    <path d="M74 88 L98 88 M322 88 L346 88 M74 572 L98 572 M322 572 L346 572" stroke="#94a3b8" stroke-opacity=".50" stroke-width="2" stroke-linecap="round"/>
    <circle cx="80" cy="100" r="10" fill="none" stroke="#94a3b8" stroke-opacity=".45"/>
    <circle cx="340" cy="100" r="10" fill="none" stroke="#94a3b8" stroke-opacity=".45"/>
    <circle cx="80" cy="560" r="10" fill="none" stroke="#94a3b8" stroke-opacity=".45"/>
    <circle cx="340" cy="560" r="10" fill="none" stroke="#94a3b8" stroke-opacity=".45"/>
    
  
        <g filter="url(#glow)">
          <circle cx="210" cy="288" r="118" fill="#f8fafc" opacity=".11"/>
          <circle cx="210" cy="288" r="91" fill="none" stroke="#f8fafc" stroke-width="3" stroke-opacity=".74"/>
          <circle cx="210" cy="288" r="58" fill="#94a3b8" opacity=".12" stroke="#94a3b8" stroke-width="2" stroke-opacity=".55"/>
          <text x="210" y="310" text-anchor="middle" font-size="96" font-family="Georgia, serif" fill="#f8fafc">✦</text>
        </g>
        <path d="M132 430 C164 404, 256 404, 288 430" fill="none" stroke="#f8fafc" stroke-width="6" stroke-linecap="round" stroke-opacity=".62"/>
        <path d="M156 452 C184 438, 236 438, 264 452" fill="none" stroke="#94a3b8" stroke-width="3" stroke-linecap="round" stroke-opacity=".56"/>
        <text x="62" y="86" font-size="24" font-family="Georgia, serif" fill="#fff7ed">13</text>
        <text x="358" y="86" text-anchor="end" font-size="24" font-family="Georgia, serif" fill="#fff7ed">13</text>
        
  <rect x="58" y="522" width="304" height="76" rx="18" fill="#020617" opacity=".62" stroke="#facc15" stroke-opacity=".24"/>
  <text x="210" y="558" text-anchor="middle" font-size="20" font-family="Georgia, serif" fill="#fff7ed">Death</text>
  <text x="210" y="586" text-anchor="middle" font-size="9" font-family="Arial, sans-serif" letter-spacing="3" fill="#c4b5fd">ORIGINAL SYMBOLIC DECK</text>
</svg>