<svg xmlns="http://www.w3.org/2000/svg" width="420" height="660" viewBox="0 0 420 660" role="img" aria-label="The World">
  <defs>
    <linearGradient id="bg" x1="0" y1="0" x2="1" y2="1">
      <stop offset="0%" stop-color="#050816"/>
      <stop offset="45%" stop-color="#17102d"/>
      <stop offset="100%" stop-color="#020617"/>
    </linearGradient>
    <radialGradient id="aura" cx="50%" cy="38%" r="68%">
      <stop offset="0%" stop-color="#facc15" stop-opacity=".18"/>
      <stop offset="52%" stop-color="#a78bfa" stop-opacity=".10"/>
      <stop offset="100%" stop-color="#020617" stop-opacity="0"/>
    </radialGradient>
    <filter id="glow" x="-30%" y="-30%" width="160%" height="160%">
      <feDropShadow dx="0" dy="0" stdDeviation="6" flood-color="#34d399" flood-opacity=".42"/>
    </filter>
  </defs>
  <rect width="420" height="660" rx="34" fill="url(#bg)"/>
  <rect x="20" y="20" width="380" height="620" rx="30" fill="url(#aura)" stroke="#facc15" stroke-opacity=".54" stroke-width="2"/>
  <rect x="35" y="35" width="350" height="590" rx="22" fill="none" stroke="#a78bfa" stroke-opacity=".18" stroke-width="1.5"/>
  <circle cx="94" cy="222" r="1.0" fill="#fde68a" opacity="0.62"/>
<circle cx="127" cy="187" r="1.4" fill="#fde68a" opacity="0.72"/>
<circle cx="198" cy="171" r="1.8" fill="#fde68a" opacity="0.36"/>
<circle cx="283" cy="140" r="1.4" fill="#fde68a" opacity="0.64"/>
<circle cx="193" cy="349" r="1.8" fill="#fde68a" opacity="0.31"/>
<circle cx="80" cy="163" r="1.4" fill="#fde68a" opacity="0.36"/>
<circle cx="340" cy="257" r="1.0" fill="#fde68a" opacity="0.62"/>
<circle cx="96" cy="308" r="1.0" fill="#fde68a" opacity="0.33"/>
<circle cx="230" cy="146" r="1.4" fill="#fde68a" opacity="0.31"/>
<circle cx="370" cy="105" r="2.2" fill="#fde68a" opacity="0.33"/>
<circle cx="302" cy="209" r="1.0" fill="#fde68a" opacity="0.34"/>
<circle cx="88" cy="490" r="1.0" fill="#fde68a" opacity="0.69"/>
<circle cx="322" cy="544" r="1.0" fill="#fde68a" opacity="0.48"/>
<circle cx="278" cy="224" r="1.4" fill="#fde68a" opacity="0.58"/>
<circle cx="362" cy="265" r="1.0" fill="#fde68a" opacity="0.37"/>
<circle cx="354" cy="242" r="2.2" fill="#fde68a" opacity="0.78"/>
<circle cx="65" cy="572" r="1.0" fill="#fde68a" opacity="0.40"/>
<circle cx="228" cy="178" r="1.8" fill="#fde68a" opacity="0.48"/>
<circle cx="308" cy="371" r="2.2" fill="#fde68a" opacity="0.41"/>
<circle cx="285" cy="393" r="1.0" fill="#fde68a" opacity="0.55"/>
<circle cx="53" cy="495" r="2.2" fill="#fde68a" opacity="0.60"/>
<circle cx="84" cy="376" r="2.2" fill="#fde68a" opacity="0.75"/>
<circle cx="82" cy="386" r="1.8" fill="#fde68a" opacity="0.61"/>
<circle cx="297" cy="395" r="1.0" fill="#fde68a" opacity="0.65"/>
<circle cx="164" cy="348" r="1.0" fill="#fde68a" opacity="0.31"/>
<circle cx="166" cy="159" r="1.4" fill="#fde68a" opacity="0.30"/>
<circle cx="118" cy="501" r="1.4" fill="#fde68a" opacity="0.38"/>
<circle cx="375" cy="511" r="1.0" fill="#fde68a" opacity="0.75"/>
<circle cx="192" cy="211" r="1.8" fill="#fde68a" opacity="0.79"/>
<circle cx="292" cy="533" r="1.0" fill="#fde68a" opacity="0.76"/>
<circle cx="241" cy="86" r="1.8" fill="#fde68a" opacity="0.39"/>
<circle cx="80" cy="59" r="1.0" fill="#fde68a" opacity="0.57"/>
<circle cx="174" cy="509" r="2.2" fill="#fde68a" opacity="0.61"/>
<circle cx="142" cy="544" r="1.8" fill="#fde68a" opacity="0.36"/>
  
    <path d="M55 118 C120 74 300 74 365 118" fill="none" stroke="#34d399" stroke-opacity=".28" stroke-width="2"/>
    <path d="M55 542 C120 586 300 586 365 542" fill="none" stroke="#34d399" stroke-opacity=".28" stroke-width="2"/>
    <path d="M74 88 L98 88 M322 88 L346 88 M74 572 L98 572 M322 572 L346 572" stroke="#a78bfa" stroke-opacity=".50" stroke-width="2" stroke-linecap="round"/>
    <circle cx="80" cy="100" r="10" fill="none" stroke="#a78bfa" stroke-opacity=".45"/>
    <circle cx="340" cy="100" r="10" fill="none" stroke="#a78bfa" stroke-opacity=".45"/>
    <circle cx="80" cy="560" r="10" fill="none" stroke="#a78bfa" stroke-opacity=".45"/>
    <circle cx="340" cy="560" r="10" fill="none" stroke="#a78bfa" stroke-opacity=".45"/>
    
  
        <g filter="url(#glow)">
          <circle cx="210" cy="288" r="118" fill="#34d399" opacity=".11"/>
          <circle cx="210" cy="288" r="91" fill="none" stroke="#34d399" stroke-width="3" stroke-opacity=".74"/>
          <circle cx="210" cy="288" r="58" fill="#a78bfa" opacity=".12" stroke="#a78bfa" stroke-width="2" stroke-opacity=".55"/>
          <text x="210" y="310" text-anchor="middle" font-size="96" font-family="Georgia, serif" fill="#34d399">◉</text>
        </g>
        <path d="M132 430 C164 404, 256 404, 288 430" fill="none" stroke="#34d399" stroke-width="6" stroke-linecap="round" stroke-opacity=".62"/>
        <path d="M156 452 C184 438, 236 438, 264 452" fill="none" stroke="#a78bfa" stroke-width="3" stroke-linecap="round" stroke-opacity=".56"/>
        <text x="62" y="86" font-size="24" font-family="Georgia, serif" fill="#fff7ed">21</text>
        <text x="358" y="86" text-anchor="end" font-size="24" font-family="Georgia, serif" fill="#fff7ed">21</text>
        
  <rect x="58" y="522" width="304" height="76" rx="18" fill="#020617" opacity=".62" stroke="#facc15" stroke-opacity=".24"/>
  <text x="210" y="558" text-anchor="middle" font-size="20" font-family="Georgia, serif" fill="#fff7ed">The World</text>
  <text x="210" y="586" text-anchor="middle" font-size="9" font-family="Arial, sans-serif" letter-spacing="3" fill="#c4b5fd">ORIGINAL SYMBOLIC DECK</text>
</svg>