<svg xmlns="http://www.w3.org/2000/svg" width="420" height="660" viewBox="0 0 420 660" role="img" aria-label="The Fool">
<defs>
<linearGradient id="bg" x1="0" y1="0" x2="1" y2="1"><stop stop-color="#080b18"/><stop offset=".52" stop-color="#211436"/><stop offset="1" stop-color="#050812"/></linearGradient>
<radialGradient id="a" cx="50%" cy="40%" r="64%"><stop stop-color="#f6d77a" stop-opacity=".22"/><stop offset=".55" stop-color="#7dd3fc" stop-opacity=".12"/><stop offset="1" stop-color="#000" stop-opacity="0"/></radialGradient>
<filter id="glow"><feDropShadow dx="0" dy="0" stdDeviation="5" flood-color="#f6d77a" flood-opacity=".42"/></filter>
</defs>
<rect width="420" height="660" rx="34" fill="url(#bg)"/>
<rect x="18" y="18" width="384" height="624" rx="30" fill="url(#a)" stroke="#d6a24f" stroke-opacity=".82" stroke-width="2.4"/>
<rect x="36" y="36" width="348" height="588" rx="22" fill="none" stroke="#7dd3fc" stroke-opacity=".28" stroke-width="1.5"/>
<circle cx="184" cy="554" r="1" fill="#fff1b8" opacity="0.59"/>
<circle cx="175" cy="297" r="1.2" fill="#fff1b8" opacity="0.63"/>
<circle cx="71" cy="498" r="1.2" fill="#fff1b8" opacity="0.69"/>
<circle cx="163" cy="332" r="1.2" fill="#fff1b8" opacity="0.42"/>
<circle cx="129" cy="395" r="2" fill="#fff1b8" opacity="0.42"/>
<circle cx="238" cy="243" r="1.5" fill="#fff1b8" opacity="0.78"/>
<circle cx="87" cy="221" r="1.5" fill="#fff1b8" opacity="0.32"/>
<circle cx="296" cy="351" r="1.2" fill="#fff1b8" opacity="0.39"/>
<circle cx="45" cy="494" r="1.2" fill="#fff1b8" opacity="0.29"/>
<circle cx="105" cy="344" r="1.5" fill="#fff1b8" opacity="0.59"/>
<circle cx="235" cy="252" r="2" fill="#fff1b8" opacity="0.54"/>
<circle cx="268" cy="59" r="1.2" fill="#fff1b8" opacity="0.29"/>
<circle cx="171" cy="174" r="1" fill="#fff1b8" opacity="0.78"/>
<circle cx="363" cy="94" r="1.5" fill="#fff1b8" opacity="0.54"/>
<circle cx="374" cy="500" r="1.2" fill="#fff1b8" opacity="0.54"/>
<circle cx="123" cy="390" r="2" fill="#fff1b8" opacity="0.75"/>
<circle cx="119" cy="465" r="1" fill="#fff1b8" opacity="0.66"/>
<circle cx="216" cy="161" r="1" fill="#fff1b8" opacity="0.61"/>
<circle cx="218" cy="395" r="1.2" fill="#fff1b8" opacity="0.66"/>
<circle cx="116" cy="162" r="1" fill="#fff1b8" opacity="0.49"/>
<circle cx="352" cy="346" r="1.5" fill="#fff1b8" opacity="0.32"/>
<circle cx="252" cy="123" r="1" fill="#fff1b8" opacity="0.35"/>
<circle cx="373" cy="83" r="1.5" fill="#fff1b8" opacity="0.43"/>
<circle cx="78" cy="377" r="1.5" fill="#fff1b8" opacity="0.28"/>
<circle cx="166" cy="547" r="1.5" fill="#fff1b8" opacity="0.31"/>
<circle cx="231" cy="413" r="1" fill="#fff1b8" opacity="0.75"/>
<circle cx="172" cy="219" r="1.5" fill="#fff1b8" opacity="0.46"/>
<circle cx="72" cy="86" r="1.5" fill="#fff1b8" opacity="0.38"/>
<circle cx="363" cy="64" r="1.5" fill="#fff1b8" opacity="0.74"/>
<circle cx="72" cy="306" r="1.2" fill="#fff1b8" opacity="0.68"/>
<circle cx="80" cy="484" r="1.2" fill="#fff1b8" opacity="0.71"/>
<circle cx="334" cy="551" r="2" fill="#fff1b8" opacity="0.51"/>
<circle cx="311" cy="180" r="1.2" fill="#fff1b8" opacity="0.47"/>
<circle cx="248" cy="180" r="1.2" fill="#fff1b8" opacity="0.66"/>
<circle cx="351" cy="410" r="1" fill="#fff1b8" opacity="0.73"/>
<circle cx="209" cy="271" r="1" fill="#fff1b8" opacity="0.63"/>
<circle cx="342" cy="196" r="1.2" fill="#fff1b8" opacity="0.58"/>
<circle cx="161" cy="437" r="1.2" fill="#fff1b8" opacity="0.68"/>
<path d="M70 104 C132 68 288 68 350 104 M70 556 C132 592 288 592 350 556" fill="none" stroke="#d6a24f" stroke-opacity=".28" stroke-width="2"/>
<text x="64" y="78" fill="#fff1b8" font-size="22" font-family="Georgia,serif">00</text>
<text x="356" y="78" text-anchor="end" fill="#fff1b8" font-size="22" font-family="Georgia,serif">00</text>
<g filter="url(#glow)">
    <circle cx="210" cy="284" r="98" fill="#f6d77a" opacity=".13"/>
    <circle cx="210" cy="284" r="70" fill="none" stroke="#f6d77a" stroke-width="3" opacity=".72"/>
    <text x="210" y="306" text-anchor="middle" font-size="84" fill="#f6d77a" font-family="Georgia,serif">✦</text>
    <path d="M136 432 C170 398 250 398 284 432" fill="none" stroke="#7dd3fc" stroke-width="6" stroke-linecap="round" opacity=".68"/>
    </g>
<rect x="58" y="530" width="304" height="74" rx="17" fill="#050812" opacity=".74" stroke="#d6a24f" stroke-opacity=".30"/>
<text x="210" y="566" text-anchor="middle" fill="#fff7df" font-size="20" font-family="Georgia,serif">The Fool</text>
<text x="210" y="592" text-anchor="middle" fill="#c9b27a" font-size="9" font-family="Arial" letter-spacing="3">FATECARD ORIGINAL</text>
</svg>