<svg xmlns="http://www.w3.org/2000/svg" width="420" height="660" viewBox="0 0 420 660" role="img" aria-label="The Hermit">
<defs>
<linearGradient id="bg" x1="0" y1="0" x2="1" y2="1"><stop stop-color="#080b18"/><stop offset=".52" stop-color="#211436"/><stop offset="1" stop-color="#050812"/></linearGradient>
<radialGradient id="a" cx="50%" cy="40%" r="64%"><stop stop-color="#cbd5e1" stop-opacity=".22"/><stop offset=".55" stop-color="#facc15" stop-opacity=".12"/><stop offset="1" stop-color="#000" stop-opacity="0"/></radialGradient>
<filter id="glow"><feDropShadow dx="0" dy="0" stdDeviation="5" flood-color="#cbd5e1" flood-opacity=".42"/></filter>
</defs>
<rect width="420" height="660" rx="34" fill="url(#bg)"/>
<rect x="18" y="18" width="384" height="624" rx="30" fill="url(#a)" stroke="#d6a24f" stroke-opacity=".82" stroke-width="2.4"/>
<rect x="36" y="36" width="348" height="588" rx="22" fill="none" stroke="#facc15" stroke-opacity=".28" stroke-width="1.5"/>
<circle cx="196" cy="74" r="1.2" fill="#fff1b8" opacity="0.76"/>
<circle cx="197" cy="381" r="1.5" fill="#fff1b8" opacity="0.55"/>
<circle cx="43" cy="377" r="1" fill="#fff1b8" opacity="0.60"/>
<circle cx="45" cy="98" r="1.5" fill="#fff1b8" opacity="0.40"/>
<circle cx="267" cy="443" r="2" fill="#fff1b8" opacity="0.53"/>
<circle cx="351" cy="367" r="1" fill="#fff1b8" opacity="0.39"/>
<circle cx="94" cy="574" r="1" fill="#fff1b8" opacity="0.51"/>
<circle cx="54" cy="78" r="1.5" fill="#fff1b8" opacity="0.78"/>
<circle cx="65" cy="511" r="1.5" fill="#fff1b8" opacity="0.73"/>
<circle cx="42" cy="216" r="1.5" fill="#fff1b8" opacity="0.48"/>
<circle cx="258" cy="242" r="1.2" fill="#fff1b8" opacity="0.54"/>
<circle cx="357" cy="385" r="1.5" fill="#fff1b8" opacity="0.66"/>
<circle cx="209" cy="573" r="2" fill="#fff1b8" opacity="0.56"/>
<circle cx="134" cy="425" r="2" fill="#fff1b8" opacity="0.45"/>
<circle cx="107" cy="81" r="1" fill="#fff1b8" opacity="0.32"/>
<circle cx="317" cy="277" r="1.2" fill="#fff1b8" opacity="0.62"/>
<circle cx="265" cy="589" r="1" fill="#fff1b8" opacity="0.75"/>
<circle cx="303" cy="277" r="1.2" fill="#fff1b8" opacity="0.47"/>
<circle cx="199" cy="289" r="2" fill="#fff1b8" opacity="0.31"/>
<circle cx="207" cy="118" r="2" fill="#fff1b8" opacity="0.62"/>
<circle cx="159" cy="177" r="1.5" fill="#fff1b8" opacity="0.76"/>
<circle cx="56" cy="237" r="2" fill="#fff1b8" opacity="0.48"/>
<circle cx="139" cy="455" r="2" fill="#fff1b8" opacity="0.27"/>
<circle cx="237" cy="224" r="2" fill="#fff1b8" opacity="0.53"/>
<circle cx="147" cy="485" r="1.5" fill="#fff1b8" opacity="0.41"/>
<circle cx="247" cy="294" r="1" fill="#fff1b8" opacity="0.27"/>
<circle cx="179" cy="515" r="1.2" fill="#fff1b8" opacity="0.56"/>
<circle cx="235" cy="364" r="2" fill="#fff1b8" opacity="0.33"/>
<circle cx="344" cy="178" r="2" fill="#fff1b8" opacity="0.75"/>
<circle cx="247" cy="373" r="1.5" fill="#fff1b8" opacity="0.53"/>
<circle cx="291" cy="309" r="1" fill="#fff1b8" opacity="0.64"/>
<circle cx="371" cy="306" r="1.2" fill="#fff1b8" opacity="0.69"/>
<circle cx="364" cy="207" r="2" fill="#fff1b8" opacity="0.71"/>
<circle cx="190" cy="514" r="1.2" fill="#fff1b8" opacity="0.31"/>
<circle cx="64" cy="407" r="1.5" fill="#fff1b8" opacity="0.39"/>
<circle cx="233" cy="102" r="1.2" fill="#fff1b8" opacity="0.53"/>
<circle cx="243" cy="179" r="2" fill="#fff1b8" opacity="0.72"/>
<circle cx="84" cy="375" r="1.2" fill="#fff1b8" opacity="0.32"/>
<path d="M70 104 C132 68 288 68 350 104 M70 556 C132 592 288 592 350 556" fill="none" stroke="#d6a24f" stroke-opacity=".28" stroke-width="2"/>
<text x="64" y="78" fill="#fff1b8" font-size="22" font-family="Georgia,serif">09</text>
<text x="356" y="78" text-anchor="end" fill="#fff1b8" font-size="22" font-family="Georgia,serif">09</text>
<g filter="url(#glow)">
    <circle cx="210" cy="284" r="98" fill="#cbd5e1" opacity=".13"/>
    <circle cx="210" cy="284" r="70" fill="none" stroke="#cbd5e1" stroke-width="3" opacity=".72"/>
    <text x="210" y="306" text-anchor="middle" font-size="84" fill="#cbd5e1" font-family="Georgia,serif">✦</text>
    <path d="M136 432 C170 398 250 398 284 432" fill="none" stroke="#facc15" stroke-width="6" stroke-linecap="round" opacity=".68"/>
    </g>
<rect x="58" y="530" width="304" height="74" rx="17" fill="#050812" opacity=".74" stroke="#d6a24f" stroke-opacity=".30"/>
<text x="210" y="566" text-anchor="middle" fill="#fff7df" font-size="20" font-family="Georgia,serif">The Hermit</text>
<text x="210" y="592" text-anchor="middle" fill="#c9b27a" font-size="9" font-family="Arial" letter-spacing="3">FATECARD ORIGINAL</text>
</svg>