<svg xmlns="http://www.w3.org/2000/svg" width="420" height="660" viewBox="0 0 420 660" role="img" aria-label="Strength">
  <defs>
    <linearGradient id="bg" x1="0" y1="0" x2="1" y2="1">
      <stop offset="0%" stop-color="#050816"/>
      <stop offset="45%" stop-color="#17102d"/>
      <stop offset="100%" stop-color="#020617"/>
    </linearGradient>
    <radialGradient id="aura" cx="50%" cy="38%" r="68%">
      <stop offset="0%" stop-color="#facc15" stop-opacity=".18"/>
      <stop offset="52%" stop-color="#a78bfa" stop-opacity=".10"/>
      <stop offset="100%" stop-color="#020617" stop-opacity="0"/>
    </radialGradient>
    <filter id="glow" x="-30%" y="-30%" width="160%" height="160%">
      <feDropShadow dx="0" dy="0" stdDeviation="6" flood-color="#f59e0b" flood-opacity=".42"/>
    </filter>
  </defs>
  <rect width="420" height="660" rx="34" fill="url(#bg)"/>
  <rect x="20" y="20" width="380" height="620" rx="30" fill="url(#aura)" stroke="#facc15" stroke-opacity=".54" stroke-width="2"/>
  <rect x="35" y="35" width="350" height="590" rx="22" fill="none" stroke="#a78bfa" stroke-opacity=".18" stroke-width="1.5"/>
  <circle cx="223" cy="230" r="2.2" fill="#fde68a" opacity="0.66"/>
<circle cx="41" cy="142" r="1.8" fill="#fde68a" opacity="0.81"/>
<circle cx="254" cy="120" r="2.2" fill="#fde68a" opacity="0.41"/>
<circle cx="322" cy="61" r="1.0" fill="#fde68a" opacity="0.78"/>
<circle cx="348" cy="405" r="2.2" fill="#fde68a" opacity="0.76"/>
<circle cx="96" cy="484" r="1.0" fill="#fde68a" opacity="0.39"/>
<circle cx="79" cy="55" r="1.8" fill="#fde68a" opacity="0.82"/>
<circle cx="272" cy="325" r="1.8" fill="#fde68a" opacity="0.42"/>
<circle cx="273" cy="544" r="1.8" fill="#fde68a" opacity="0.74"/>
<circle cx="127" cy="538" r="1.4" fill="#fde68a" opacity="0.44"/>
<circle cx="241" cy="480" r="1.8" fill="#fde68a" opacity="0.46"/>
<circle cx="221" cy="109" r="1.4" fill="#fde68a" opacity="0.82"/>
<circle cx="294" cy="432" r="1.0" fill="#fde68a" opacity="0.55"/>
<circle cx="285" cy="588" r="1.0" fill="#fde68a" opacity="0.75"/>
<circle cx="39" cy="127" r="1.8" fill="#fde68a" opacity="0.31"/>
<circle cx="313" cy="391" r="1.0" fill="#fde68a" opacity="0.39"/>
<circle cx="108" cy="253" r="1.8" fill="#fde68a" opacity="0.68"/>
<circle cx="314" cy="362" r="1.0" fill="#fde68a" opacity="0.47"/>
<circle cx="138" cy="189" r="2.2" fill="#fde68a" opacity="0.43"/>
<circle cx="293" cy="540" r="2.2" fill="#fde68a" opacity="0.59"/>
<circle cx="133" cy="580" r="1.0" fill="#fde68a" opacity="0.56"/>
<circle cx="345" cy="227" r="1.4" fill="#fde68a" opacity="0.29"/>
<circle cx="263" cy="368" r="1.0" fill="#fde68a" opacity="0.43"/>
<circle cx="189" cy="169" r="1.0" fill="#fde68a" opacity="0.46"/>
<circle cx="259" cy="76" r="1.4" fill="#fde68a" opacity="0.58"/>
<circle cx="89" cy="474" r="1.8" fill="#fde68a" opacity="0.66"/>
<circle cx="185" cy="246" r="1.4" fill="#fde68a" opacity="0.61"/>
<circle cx="157" cy="305" r="1.4" fill="#fde68a" opacity="0.79"/>
<circle cx="275" cy="529" r="1.8" fill="#fde68a" opacity="0.47"/>
<circle cx="184" cy="241" r="1.0" fill="#fde68a" opacity="0.74"/>
<circle cx="277" cy="185" r="1.4" fill="#fde68a" opacity="0.83"/>
<circle cx="286" cy="285" r="2.2" fill="#fde68a" opacity="0.42"/>
<circle cx="355" cy="414" r="1.4" fill="#fde68a" opacity="0.67"/>
<circle cx="324" cy="420" r="1.0" fill="#fde68a" opacity="0.50"/>
  
    <path d="M55 118 C120 74 300 74 365 118" fill="none" stroke="#f59e0b" stroke-opacity=".28" stroke-width="2"/>
    <path d="M55 542 C120 586 300 586 365 542" fill="none" stroke="#f59e0b" stroke-opacity=".28" stroke-width="2"/>
    <path d="M74 88 L98 88 M322 88 L346 88 M74 572 L98 572 M322 572 L346 572" stroke="#fecaca" stroke-opacity=".50" stroke-width="2" stroke-linecap="round"/>
    <circle cx="80" cy="100" r="10" fill="none" stroke="#fecaca" stroke-opacity=".45"/>
    <circle cx="340" cy="100" r="10" fill="none" stroke="#fecaca" stroke-opacity=".45"/>
    <circle cx="80" cy="560" r="10" fill="none" stroke="#fecaca" stroke-opacity=".45"/>
    <circle cx="340" cy="560" r="10" fill="none" stroke="#fecaca" stroke-opacity=".45"/>
    
  
        <g filter="url(#glow)">
          <circle cx="210" cy="288" r="118" fill="#f59e0b" opacity=".11"/>
          <circle cx="210" cy="288" r="91" fill="none" stroke="#f59e0b" stroke-width="3" stroke-opacity=".74"/>
          <circle cx="210" cy="288" r="58" fill="#fecaca" opacity=".12" stroke="#fecaca" stroke-width="2" stroke-opacity=".55"/>
          <text x="210" y="310" text-anchor="middle" font-size="96" font-family="Georgia, serif" fill="#f59e0b">∞</text>
        </g>
        <path d="M132 430 C164 404, 256 404, 288 430" fill="none" stroke="#f59e0b" stroke-width="6" stroke-linecap="round" stroke-opacity=".62"/>
        <path d="M156 452 C184 438, 236 438, 264 452" fill="none" stroke="#fecaca" stroke-width="3" stroke-linecap="round" stroke-opacity=".56"/>
        <text x="62" y="86" font-size="24" font-family="Georgia, serif" fill="#fff7ed">08</text>
        <text x="358" y="86" text-anchor="end" font-size="24" font-family="Georgia, serif" fill="#fff7ed">08</text>
        
  <rect x="58" y="522" width="304" height="76" rx="18" fill="#020617" opacity=".62" stroke="#facc15" stroke-opacity=".24"/>
  <text x="210" y="558" text-anchor="middle" font-size="20" font-family="Georgia, serif" fill="#fff7ed">Strength</text>
  <text x="210" y="586" text-anchor="middle" font-size="9" font-family="Arial, sans-serif" letter-spacing="3" fill="#c4b5fd">ORIGINAL SYMBOLIC DECK</text>
</svg>