<svg xmlns="http://www.w3.org/2000/svg" width="420" height="660" viewBox="0 0 420 660" role="img" aria-label="The World">
<defs>
<linearGradient id="bg" x1="0" y1="0" x2="1" y2="1"><stop stop-color="#080b18"/><stop offset=".52" stop-color="#211436"/><stop offset="1" stop-color="#050812"/></linearGradient>
<radialGradient id="a" cx="50%" cy="40%" r="64%"><stop stop-color="#34d399" stop-opacity=".22"/><stop offset=".55" stop-color="#a78bfa" stop-opacity=".12"/><stop offset="1" stop-color="#000" stop-opacity="0"/></radialGradient>
<filter id="glow"><feDropShadow dx="0" dy="0" stdDeviation="5" flood-color="#34d399" flood-opacity=".42"/></filter>
</defs>
<rect width="420" height="660" rx="34" fill="url(#bg)"/>
<rect x="18" y="18" width="384" height="624" rx="30" fill="url(#a)" stroke="#d6a24f" stroke-opacity=".82" stroke-width="2.4"/>
<rect x="36" y="36" width="348" height="588" rx="22" fill="none" stroke="#a78bfa" stroke-opacity=".28" stroke-width="1.5"/>
<circle cx="212" cy="405" r="2" fill="#fff1b8" opacity="0.58"/>
<circle cx="89" cy="90" r="1" fill="#fff1b8" opacity="0.47"/>
<circle cx="321" cy="539" r="2" fill="#fff1b8" opacity="0.67"/>
<circle cx="43" cy="386" r="2" fill="#fff1b8" opacity="0.55"/>
<circle cx="362" cy="454" r="1" fill="#fff1b8" opacity="0.69"/>
<circle cx="213" cy="407" r="1" fill="#fff1b8" opacity="0.63"/>
<circle cx="134" cy="451" r="1.5" fill="#fff1b8" opacity="0.62"/>
<circle cx="204" cy="302" r="1" fill="#fff1b8" opacity="0.31"/>
<circle cx="162" cy="495" r="1" fill="#fff1b8" opacity="0.58"/>
<circle cx="156" cy="316" r="1" fill="#fff1b8" opacity="0.61"/>
<circle cx="207" cy="482" r="1.2" fill="#fff1b8" opacity="0.43"/>
<circle cx="317" cy="454" r="1.5" fill="#fff1b8" opacity="0.59"/>
<circle cx="322" cy="446" r="1" fill="#fff1b8" opacity="0.72"/>
<circle cx="344" cy="237" r="2" fill="#fff1b8" opacity="0.27"/>
<circle cx="175" cy="559" r="1" fill="#fff1b8" opacity="0.42"/>
<circle cx="119" cy="145" r="1.5" fill="#fff1b8" opacity="0.31"/>
<circle cx="101" cy="478" r="1.5" fill="#fff1b8" opacity="0.49"/>
<circle cx="259" cy="71" r="1.5" fill="#fff1b8" opacity="0.49"/>
<circle cx="338" cy="422" r="2" fill="#fff1b8" opacity="0.58"/>
<circle cx="284" cy="525" r="1.2" fill="#fff1b8" opacity="0.26"/>
<circle cx="218" cy="366" r="1" fill="#fff1b8" opacity="0.40"/>
<circle cx="160" cy="330" r="1" fill="#fff1b8" opacity="0.62"/>
<circle cx="190" cy="303" r="1.5" fill="#fff1b8" opacity="0.53"/>
<circle cx="193" cy="100" r="1" fill="#fff1b8" opacity="0.49"/>
<circle cx="280" cy="69" r="1.2" fill="#fff1b8" opacity="0.41"/>
<circle cx="330" cy="527" r="2" fill="#fff1b8" opacity="0.75"/>
<circle cx="231" cy="236" r="1" fill="#fff1b8" opacity="0.76"/>
<circle cx="193" cy="346" r="1" fill="#fff1b8" opacity="0.54"/>
<circle cx="214" cy="270" r="1.2" fill="#fff1b8" opacity="0.62"/>
<circle cx="56" cy="269" r="2" fill="#fff1b8" opacity="0.57"/>
<circle cx="101" cy="247" r="1.5" fill="#fff1b8" opacity="0.33"/>
<circle cx="364" cy="156" r="2" fill="#fff1b8" opacity="0.66"/>
<circle cx="299" cy="378" r="1" fill="#fff1b8" opacity="0.57"/>
<circle cx="167" cy="218" r="1.2" fill="#fff1b8" opacity="0.33"/>
<circle cx="204" cy="326" r="1.5" fill="#fff1b8" opacity="0.56"/>
<circle cx="356" cy="316" r="1.5" fill="#fff1b8" opacity="0.53"/>
<circle cx="273" cy="93" r="1" fill="#fff1b8" opacity="0.43"/>
<circle cx="369" cy="308" r="1.5" fill="#fff1b8" opacity="0.62"/>
<path d="M70 104 C132 68 288 68 350 104 M70 556 C132 592 288 592 350 556" fill="none" stroke="#d6a24f" stroke-opacity=".28" stroke-width="2"/>
<text x="64" y="78" fill="#fff1b8" font-size="22" font-family="Georgia,serif">21</text>
<text x="356" y="78" text-anchor="end" fill="#fff1b8" font-size="22" font-family="Georgia,serif">21</text>
<g filter="url(#glow)">
    <circle cx="210" cy="284" r="98" fill="#34d399" opacity=".13"/>
    <circle cx="210" cy="284" r="70" fill="none" stroke="#34d399" stroke-width="3" opacity=".72"/>
    <text x="210" y="306" text-anchor="middle" font-size="84" fill="#34d399" font-family="Georgia,serif">✦</text>
    <path d="M136 432 C170 398 250 398 284 432" fill="none" stroke="#a78bfa" stroke-width="6" stroke-linecap="round" opacity=".68"/>
    </g>
<rect x="58" y="530" width="304" height="74" rx="17" fill="#050812" opacity=".74" stroke="#d6a24f" stroke-opacity=".30"/>
<text x="210" y="566" text-anchor="middle" fill="#fff7df" font-size="20" font-family="Georgia,serif">The World</text>
<text x="210" y="592" text-anchor="middle" fill="#c9b27a" font-size="9" font-family="Arial" letter-spacing="3">FATECARD ORIGINAL</text>
</svg>