<svg xmlns="http://www.w3.org/2000/svg" width="420" height="660" viewBox="0 0 420 660" role="img" aria-label="Temperance">
<defs>
<linearGradient id="bg" x1="0" y1="0" x2="1" y2="1"><stop stop-color="#080b18"/><stop offset=".52" stop-color="#211436"/><stop offset="1" stop-color="#050812"/></linearGradient>
<radialGradient id="a" cx="50%" cy="40%" r="64%"><stop stop-color="#67e8f9" stop-opacity=".22"/><stop offset=".55" stop-color="#f0abfc" stop-opacity=".12"/><stop offset="1" stop-color="#000" stop-opacity="0"/></radialGradient>
<filter id="glow"><feDropShadow dx="0" dy="0" stdDeviation="5" flood-color="#67e8f9" flood-opacity=".42"/></filter>
</defs>
<rect width="420" height="660" rx="34" fill="url(#bg)"/>
<rect x="18" y="18" width="384" height="624" rx="30" fill="url(#a)" stroke="#d6a24f" stroke-opacity=".82" stroke-width="2.4"/>
<rect x="36" y="36" width="348" height="588" rx="22" fill="none" stroke="#f0abfc" stroke-opacity=".28" stroke-width="1.5"/>
<circle cx="166" cy="435" r="1.5" fill="#fff1b8" opacity="0.73"/>
<circle cx="96" cy="277" r="1.2" fill="#fff1b8" opacity="0.68"/>
<circle cx="271" cy="475" r="1.5" fill="#fff1b8" opacity="0.34"/>
<circle cx="360" cy="517" r="1.2" fill="#fff1b8" opacity="0.73"/>
<circle cx="268" cy="401" r="1.2" fill="#fff1b8" opacity="0.46"/>
<circle cx="286" cy="202" r="1" fill="#fff1b8" opacity="0.33"/>
<circle cx="249" cy="396" r="2" fill="#fff1b8" opacity="0.73"/>
<circle cx="218" cy="430" r="1.2" fill="#fff1b8" opacity="0.39"/>
<circle cx="308" cy="135" r="1.5" fill="#fff1b8" opacity="0.28"/>
<circle cx="251" cy="64" r="1.2" fill="#fff1b8" opacity="0.75"/>
<circle cx="138" cy="299" r="1" fill="#fff1b8" opacity="0.40"/>
<circle cx="234" cy="472" r="1" fill="#fff1b8" opacity="0.71"/>
<circle cx="61" cy="81" r="1" fill="#fff1b8" opacity="0.44"/>
<circle cx="143" cy="334" r="1" fill="#fff1b8" opacity="0.53"/>
<circle cx="269" cy="224" r="1.2" fill="#fff1b8" opacity="0.38"/>
<circle cx="289" cy="263" r="1.2" fill="#fff1b8" opacity="0.50"/>
<circle cx="330" cy="341" r="1.5" fill="#fff1b8" opacity="0.50"/>
<circle cx="311" cy="338" r="1" fill="#fff1b8" opacity="0.32"/>
<circle cx="85" cy="590" r="2" fill="#fff1b8" opacity="0.39"/>
<circle cx="176" cy="528" r="1.5" fill="#fff1b8" opacity="0.37"/>
<circle cx="92" cy="420" r="2" fill="#fff1b8" opacity="0.68"/>
<circle cx="46" cy="576" r="1" fill="#fff1b8" opacity="0.65"/>
<circle cx="174" cy="243" r="2" fill="#fff1b8" opacity="0.50"/>
<circle cx="66" cy="310" r="2" fill="#fff1b8" opacity="0.52"/>
<circle cx="324" cy="95" r="1.2" fill="#fff1b8" opacity="0.43"/>
<circle cx="242" cy="518" r="1" fill="#fff1b8" opacity="0.50"/>
<circle cx="317" cy="232" r="2" fill="#fff1b8" opacity="0.44"/>
<circle cx="198" cy="297" r="1" fill="#fff1b8" opacity="0.35"/>
<circle cx="100" cy="548" r="2" fill="#fff1b8" opacity="0.46"/>
<circle cx="71" cy="344" r="1" fill="#fff1b8" opacity="0.64"/>
<circle cx="49" cy="280" r="1.2" fill="#fff1b8" opacity="0.75"/>
<circle cx="88" cy="217" r="1" fill="#fff1b8" opacity="0.32"/>
<circle cx="76" cy="399" r="1.5" fill="#fff1b8" opacity="0.52"/>
<circle cx="361" cy="235" r="1.2" fill="#fff1b8" opacity="0.36"/>
<circle cx="59" cy="476" r="2" fill="#fff1b8" opacity="0.75"/>
<circle cx="172" cy="306" r="2" fill="#fff1b8" opacity="0.71"/>
<circle cx="137" cy="508" r="1.2" fill="#fff1b8" opacity="0.39"/>
<circle cx="131" cy="357" r="2" fill="#fff1b8" opacity="0.60"/>
<path d="M70 104 C132 68 288 68 350 104 M70 556 C132 592 288 592 350 556" fill="none" stroke="#d6a24f" stroke-opacity=".28" stroke-width="2"/>
<text x="64" y="78" fill="#fff1b8" font-size="22" font-family="Georgia,serif">14</text>
<text x="356" y="78" text-anchor="end" fill="#fff1b8" font-size="22" font-family="Georgia,serif">14</text>
<g filter="url(#glow)">
    <circle cx="210" cy="284" r="98" fill="#67e8f9" opacity=".13"/>
    <circle cx="210" cy="284" r="70" fill="none" stroke="#67e8f9" stroke-width="3" opacity=".72"/>
    <text x="210" y="306" text-anchor="middle" font-size="84" fill="#67e8f9" font-family="Georgia,serif">✦</text>
    <path d="M136 432 C170 398 250 398 284 432" fill="none" stroke="#f0abfc" stroke-width="6" stroke-linecap="round" opacity=".68"/>
    </g>
<rect x="58" y="530" width="304" height="74" rx="17" fill="#050812" opacity=".74" stroke="#d6a24f" stroke-opacity=".30"/>
<text x="210" y="566" text-anchor="middle" fill="#fff7df" font-size="20" font-family="Georgia,serif">Temperance</text>
<text x="210" y="592" text-anchor="middle" fill="#c9b27a" font-size="9" font-family="Arial" letter-spacing="3">FATECARD ORIGINAL</text>
</svg>