<svg xmlns="http://www.w3.org/2000/svg" width="420" height="660" viewBox="0 0 420 660" role="img" aria-label="The Hanged Man">
  <defs>
    <linearGradient id="bg" x1="0" y1="0" x2="1" y2="1">
      <stop offset="0%" stop-color="#050816"/>
      <stop offset="45%" stop-color="#17102d"/>
      <stop offset="100%" stop-color="#020617"/>
    </linearGradient>
    <radialGradient id="aura" cx="50%" cy="38%" r="68%">
      <stop offset="0%" stop-color="#facc15" stop-opacity=".18"/>
      <stop offset="52%" stop-color="#a78bfa" stop-opacity=".10"/>
      <stop offset="100%" stop-color="#020617" stop-opacity="0"/>
    </radialGradient>
    <filter id="glow" x="-30%" y="-30%" width="160%" height="160%">
      <feDropShadow dx="0" dy="0" stdDeviation="6" flood-color="#a78bfa" flood-opacity=".42"/>
    </filter>
  </defs>
  <rect width="420" height="660" rx="34" fill="url(#bg)"/>
  <rect x="20" y="20" width="380" height="620" rx="30" fill="url(#aura)" stroke="#facc15" stroke-opacity=".54" stroke-width="2"/>
  <rect x="35" y="35" width="350" height="590" rx="22" fill="none" stroke="#a78bfa" stroke-opacity=".18" stroke-width="1.5"/>
  <circle cx="372" cy="403" r="1.4" fill="#fde68a" opacity="0.73"/>
<circle cx="317" cy="533" r="1.0" fill="#fde68a" opacity="0.77"/>
<circle cx="270" cy="441" r="1.8" fill="#fde68a" opacity="0.40"/>
<circle cx="161" cy="434" r="1.4" fill="#fde68a" opacity="0.64"/>
<circle cx="267" cy="341" r="1.4" fill="#fde68a" opacity="0.77"/>
<circle cx="142" cy="370" r="2.2" fill="#fde68a" opacity="0.44"/>
<circle cx="113" cy="94" r="1.0" fill="#fde68a" opacity="0.33"/>
<circle cx="324" cy="108" r="1.0" fill="#fde68a" opacity="0.81"/>
<circle cx="364" cy="91" r="1.4" fill="#fde68a" opacity="0.57"/>
<circle cx="254" cy="508" r="1.0" fill="#fde68a" opacity="0.36"/>
<circle cx="210" cy="62" r="1.8" fill="#fde68a" opacity="0.82"/>
<circle cx="299" cy="543" r="1.8" fill="#fde68a" opacity="0.35"/>
<circle cx="171" cy="580" r="1.4" fill="#fde68a" opacity="0.67"/>
<circle cx="324" cy="132" r="2.2" fill="#fde68a" opacity="0.76"/>
<circle cx="192" cy="435" r="1.0" fill="#fde68a" opacity="0.44"/>
<circle cx="40" cy="179" r="2.2" fill="#fde68a" opacity="0.43"/>
<circle cx="145" cy="547" r="2.2" fill="#fde68a" opacity="0.40"/>
<circle cx="258" cy="474" r="1.8" fill="#fde68a" opacity="0.58"/>
<circle cx="295" cy="511" r="1.8" fill="#fde68a" opacity="0.33"/>
<circle cx="306" cy="420" r="1.4" fill="#fde68a" opacity="0.35"/>
<circle cx="337" cy="126" r="2.2" fill="#fde68a" opacity="0.53"/>
<circle cx="302" cy="422" r="1.0" fill="#fde68a" opacity="0.77"/>
<circle cx="69" cy="114" r="1.0" fill="#fde68a" opacity="0.42"/>
<circle cx="127" cy="315" r="1.4" fill="#fde68a" opacity="0.41"/>
<circle cx="190" cy="440" r="1.4" fill="#fde68a" opacity="0.65"/>
<circle cx="262" cy="583" r="1.4" fill="#fde68a" opacity="0.32"/>
<circle cx="207" cy="135" r="2.2" fill="#fde68a" opacity="0.56"/>
<circle cx="260" cy="562" r="1.8" fill="#fde68a" opacity="0.52"/>
<circle cx="310" cy="533" r="2.2" fill="#fde68a" opacity="0.36"/>
<circle cx="177" cy="409" r="1.0" fill="#fde68a" opacity="0.49"/>
<circle cx="259" cy="61" r="1.0" fill="#fde68a" opacity="0.51"/>
<circle cx="253" cy="460" r="1.0" fill="#fde68a" opacity="0.37"/>
<circle cx="329" cy="535" r="1.4" fill="#fde68a" opacity="0.41"/>
<circle cx="299" cy="549" r="2.2" fill="#fde68a" opacity="0.45"/>
  
    <path d="M55 118 C120 74 300 74 365 118" fill="none" stroke="#a78bfa" stroke-opacity=".28" stroke-width="2"/>
    <path d="M55 542 C120 586 300 586 365 542" fill="none" stroke="#a78bfa" stroke-opacity=".28" stroke-width="2"/>
    <path d="M74 88 L98 88 M322 88 L346 88 M74 572 L98 572 M322 572 L346 572" stroke="#93c5fd" stroke-opacity=".50" stroke-width="2" stroke-linecap="round"/>
    <circle cx="80" cy="100" r="10" fill="none" stroke="#93c5fd" stroke-opacity=".45"/>
    <circle cx="340" cy="100" r="10" fill="none" stroke="#93c5fd" stroke-opacity=".45"/>
    <circle cx="80" cy="560" r="10" fill="none" stroke="#93c5fd" stroke-opacity=".45"/>
    <circle cx="340" cy="560" r="10" fill="none" stroke="#93c5fd" stroke-opacity=".45"/>
    
  
        <g filter="url(#glow)">
          <circle cx="210" cy="288" r="118" fill="#a78bfa" opacity=".11"/>
          <circle cx="210" cy="288" r="91" fill="none" stroke="#a78bfa" stroke-width="3" stroke-opacity=".74"/>
          <circle cx="210" cy="288" r="58" fill="#93c5fd" opacity=".12" stroke="#93c5fd" stroke-width="2" stroke-opacity=".55"/>
          <text x="210" y="310" text-anchor="middle" font-size="96" font-family="Georgia, serif" fill="#a78bfa">▽</text>
        </g>
        <path d="M132 430 C164 404, 256 404, 288 430" fill="none" stroke="#a78bfa" stroke-width="6" stroke-linecap="round" stroke-opacity=".62"/>
        <path d="M156 452 C184 438, 236 438, 264 452" fill="none" stroke="#93c5fd" stroke-width="3" stroke-linecap="round" stroke-opacity=".56"/>
        <text x="62" y="86" font-size="24" font-family="Georgia, serif" fill="#fff7ed">12</text>
        <text x="358" y="86" text-anchor="end" font-size="24" font-family="Georgia, serif" fill="#fff7ed">12</text>
        
  <rect x="58" y="522" width="304" height="76" rx="18" fill="#020617" opacity=".62" stroke="#facc15" stroke-opacity=".24"/>
  <text x="210" y="558" text-anchor="middle" font-size="20" font-family="Georgia, serif" fill="#fff7ed">The Hanged Man</text>
  <text x="210" y="586" text-anchor="middle" font-size="9" font-family="Arial, sans-serif" letter-spacing="3" fill="#c4b5fd">ORIGINAL SYMBOLIC DECK</text>
</svg>