<svg xmlns="http://www.w3.org/2000/svg" width="420" height="660" viewBox="0 0 420 660" role="img" aria-label="The Lovers">
  <defs>
    <linearGradient id="bg" x1="0" y1="0" x2="1" y2="1">
      <stop offset="0%" stop-color="#050816"/>
      <stop offset="45%" stop-color="#17102d"/>
      <stop offset="100%" stop-color="#020617"/>
    </linearGradient>
    <radialGradient id="aura" cx="50%" cy="38%" r="68%">
      <stop offset="0%" stop-color="#facc15" stop-opacity=".18"/>
      <stop offset="52%" stop-color="#a78bfa" stop-opacity=".10"/>
      <stop offset="100%" stop-color="#020617" stop-opacity="0"/>
    </radialGradient>
    <filter id="glow" x="-30%" y="-30%" width="160%" height="160%">
      <feDropShadow dx="0" dy="0" stdDeviation="6" flood-color="#fb7185" flood-opacity=".42"/>
    </filter>
  </defs>
  <rect width="420" height="660" rx="34" fill="url(#bg)"/>
  <rect x="20" y="20" width="380" height="620" rx="30" fill="url(#aura)" stroke="#facc15" stroke-opacity=".54" stroke-width="2"/>
  <rect x="35" y="35" width="350" height="590" rx="22" fill="none" stroke="#a78bfa" stroke-opacity=".18" stroke-width="1.5"/>
  <circle cx="157" cy="324" r="1.8" fill="#fde68a" opacity="0.34"/>
<circle cx="219" cy="223" r="1.4" fill="#fde68a" opacity="0.79"/>
<circle cx="355" cy="340" r="2.2" fill="#fde68a" opacity="0.62"/>
<circle cx="294" cy="234" r="2.2" fill="#fde68a" opacity="0.41"/>
<circle cx="154" cy="88" r="1.0" fill="#fde68a" opacity="0.82"/>
<circle cx="193" cy="482" r="2.2" fill="#fde68a" opacity="0.45"/>
<circle cx="381" cy="486" r="1.4" fill="#fde68a" opacity="0.50"/>
<circle cx="249" cy="312" r="1.8" fill="#fde68a" opacity="0.79"/>
<circle cx="312" cy="339" r="1.0" fill="#fde68a" opacity="0.53"/>
<circle cx="369" cy="407" r="1.0" fill="#fde68a" opacity="0.78"/>
<circle cx="59" cy="314" r="1.0" fill="#fde68a" opacity="0.51"/>
<circle cx="370" cy="205" r="1.4" fill="#fde68a" opacity="0.30"/>
<circle cx="159" cy="569" r="1.4" fill="#fde68a" opacity="0.82"/>
<circle cx="362" cy="544" r="1.8" fill="#fde68a" opacity="0.46"/>
<circle cx="318" cy="530" r="1.8" fill="#fde68a" opacity="0.30"/>
<circle cx="370" cy="64" r="1.8" fill="#fde68a" opacity="0.75"/>
<circle cx="363" cy="405" r="1.8" fill="#fde68a" opacity="0.38"/>
<circle cx="270" cy="396" r="1.0" fill="#fde68a" opacity="0.48"/>
<circle cx="303" cy="401" r="2.2" fill="#fde68a" opacity="0.63"/>
<circle cx="63" cy="241" r="2.2" fill="#fde68a" opacity="0.29"/>
<circle cx="274" cy="288" r="1.4" fill="#fde68a" opacity="0.63"/>
<circle cx="43" cy="206" r="1.0" fill="#fde68a" opacity="0.38"/>
<circle cx="130" cy="92" r="1.8" fill="#fde68a" opacity="0.29"/>
<circle cx="124" cy="367" r="1.0" fill="#fde68a" opacity="0.37"/>
<circle cx="242" cy="463" r="1.0" fill="#fde68a" opacity="0.50"/>
<circle cx="83" cy="300" r="1.0" fill="#fde68a" opacity="0.46"/>
<circle cx="141" cy="454" r="1.0" fill="#fde68a" opacity="0.53"/>
<circle cx="159" cy="487" r="2.2" fill="#fde68a" opacity="0.29"/>
<circle cx="310" cy="388" r="1.4" fill="#fde68a" opacity="0.61"/>
<circle cx="242" cy="467" r="2.2" fill="#fde68a" opacity="0.59"/>
<circle cx="242" cy="267" r="1.0" fill="#fde68a" opacity="0.29"/>
<circle cx="284" cy="131" r="1.4" fill="#fde68a" opacity="0.43"/>
<circle cx="282" cy="239" r="1.4" fill="#fde68a" opacity="0.43"/>
<circle cx="359" cy="217" r="1.0" fill="#fde68a" opacity="0.38"/>
  
    <path d="M55 118 C120 74 300 74 365 118" fill="none" stroke="#fb7185" stroke-opacity=".28" stroke-width="2"/>
    <path d="M55 542 C120 586 300 586 365 542" fill="none" stroke="#fb7185" stroke-opacity=".28" stroke-width="2"/>
    <path d="M74 88 L98 88 M322 88 L346 88 M74 572 L98 572 M322 572 L346 572" stroke="#fcd34d" stroke-opacity=".50" stroke-width="2" stroke-linecap="round"/>
    <circle cx="80" cy="100" r="10" fill="none" stroke="#fcd34d" stroke-opacity=".45"/>
    <circle cx="340" cy="100" r="10" fill="none" stroke="#fcd34d" stroke-opacity=".45"/>
    <circle cx="80" cy="560" r="10" fill="none" stroke="#fcd34d" stroke-opacity=".45"/>
    <circle cx="340" cy="560" r="10" fill="none" stroke="#fcd34d" stroke-opacity=".45"/>
    
  
        <g filter="url(#glow)">
          <circle cx="210" cy="288" r="118" fill="#fb7185" opacity=".11"/>
          <circle cx="210" cy="288" r="91" fill="none" stroke="#fb7185" stroke-width="3" stroke-opacity=".74"/>
          <circle cx="210" cy="288" r="58" fill="#fcd34d" opacity=".12" stroke="#fcd34d" stroke-width="2" stroke-opacity=".55"/>
          <text x="210" y="310" text-anchor="middle" font-size="96" font-family="Georgia, serif" fill="#fb7185">♡</text>
        </g>
        <path d="M132 430 C164 404, 256 404, 288 430" fill="none" stroke="#fb7185" stroke-width="6" stroke-linecap="round" stroke-opacity=".62"/>
        <path d="M156 452 C184 438, 236 438, 264 452" fill="none" stroke="#fcd34d" stroke-width="3" stroke-linecap="round" stroke-opacity=".56"/>
        <text x="62" y="86" font-size="24" font-family="Georgia, serif" fill="#fff7ed">06</text>
        <text x="358" y="86" text-anchor="end" font-size="24" font-family="Georgia, serif" fill="#fff7ed">06</text>
        
  <rect x="58" y="522" width="304" height="76" rx="18" fill="#020617" opacity=".62" stroke="#facc15" stroke-opacity=".24"/>
  <text x="210" y="558" text-anchor="middle" font-size="20" font-family="Georgia, serif" fill="#fff7ed">The Lovers</text>
  <text x="210" y="586" text-anchor="middle" font-size="9" font-family="Arial, sans-serif" letter-spacing="3" fill="#c4b5fd">ORIGINAL SYMBOLIC DECK</text>
</svg>