<svg xmlns="http://www.w3.org/2000/svg" width="420" height="660" viewBox="0 0 420 660" role="img" aria-label="The Fool">
  <defs>
    <linearGradient id="bg" x1="0" y1="0" x2="1" y2="1">
      <stop offset="0%" stop-color="#050816"/>
      <stop offset="45%" stop-color="#17102d"/>
      <stop offset="100%" stop-color="#020617"/>
    </linearGradient>
    <radialGradient id="aura" cx="50%" cy="38%" r="68%">
      <stop offset="0%" stop-color="#facc15" stop-opacity=".18"/>
      <stop offset="52%" stop-color="#a78bfa" stop-opacity=".10"/>
      <stop offset="100%" stop-color="#020617" stop-opacity="0"/>
    </radialGradient>
    <filter id="glow" x="-30%" y="-30%" width="160%" height="160%">
      <feDropShadow dx="0" dy="0" stdDeviation="6" flood-color="#fce7a8" flood-opacity=".42"/>
    </filter>
  </defs>
  <rect width="420" height="660" rx="34" fill="url(#bg)"/>
  <rect x="20" y="20" width="380" height="620" rx="30" fill="url(#aura)" stroke="#facc15" stroke-opacity=".54" stroke-width="2"/>
  <rect x="35" y="35" width="350" height="590" rx="22" fill="none" stroke="#a78bfa" stroke-opacity=".18" stroke-width="1.5"/>
  <circle cx="138" cy="374" r="1.4" fill="#fde68a" opacity="0.47"/>
<circle cx="276" cy="443" r="1.4" fill="#fde68a" opacity="0.71"/>
<circle cx="226" cy="506" r="1.0" fill="#fde68a" opacity="0.79"/>
<circle cx="228" cy="471" r="1.0" fill="#fde68a" opacity="0.78"/>
<circle cx="138" cy="202" r="1.8" fill="#fde68a" opacity="0.74"/>
<circle cx="356" cy="94" r="2.2" fill="#fde68a" opacity="0.60"/>
<circle cx="277" cy="535" r="1.4" fill="#fde68a" opacity="0.73"/>
<circle cx="162" cy="526" r="1.8" fill="#fde68a" opacity="0.29"/>
<circle cx="89" cy="565" r="2.2" fill="#fde68a" opacity="0.33"/>
<circle cx="214" cy="258" r="1.0" fill="#fde68a" opacity="0.37"/>
<circle cx="207" cy="68" r="1.0" fill="#fde68a" opacity="0.38"/>
<circle cx="364" cy="515" r="2.2" fill="#fde68a" opacity="0.74"/>
<circle cx="305" cy="542" r="1.8" fill="#fde68a" opacity="0.62"/>
<circle cx="300" cy="148" r="1.0" fill="#fde68a" opacity="0.37"/>
<circle cx="371" cy="127" r="2.2" fill="#fde68a" opacity="0.60"/>
<circle cx="210" cy="499" r="1.8" fill="#fde68a" opacity="0.33"/>
<circle cx="121" cy="182" r="2.2" fill="#fde68a" opacity="0.53"/>
<circle cx="41" cy="363" r="1.4" fill="#fde68a" opacity="0.59"/>
<circle cx="329" cy="149" r="1.4" fill="#fde68a" opacity="0.36"/>
<circle cx="162" cy="472" r="1.4" fill="#fde68a" opacity="0.79"/>
<circle cx="137" cy="155" r="1.4" fill="#fde68a" opacity="0.44"/>
<circle cx="55" cy="173" r="1.4" fill="#fde68a" opacity="0.42"/>
<circle cx="282" cy="244" r="1.4" fill="#fde68a" opacity="0.75"/>
<circle cx="296" cy="210" r="1.0" fill="#fde68a" opacity="0.32"/>
<circle cx="198" cy="538" r="1.0" fill="#fde68a" opacity="0.52"/>
<circle cx="258" cy="71" r="1.4" fill="#fde68a" opacity="0.65"/>
<circle cx="171" cy="372" r="1.8" fill="#fde68a" opacity="0.71"/>
<circle cx="106" cy="586" r="1.0" fill="#fde68a" opacity="0.70"/>
<circle cx="382" cy="479" r="2.2" fill="#fde68a" opacity="0.54"/>
<circle cx="140" cy="437" r="1.0" fill="#fde68a" opacity="0.75"/>
<circle cx="280" cy="548" r="1.0" fill="#fde68a" opacity="0.38"/>
<circle cx="272" cy="207" r="2.2" fill="#fde68a" opacity="0.38"/>
<circle cx="202" cy="274" r="1.0" fill="#fde68a" opacity="0.71"/>
<circle cx="54" cy="256" r="1.4" fill="#fde68a" opacity="0.39"/>
  
    <path d="M55 118 C120 74 300 74 365 118" fill="none" stroke="#fce7a8" stroke-opacity=".28" stroke-width="2"/>
    <path d="M55 542 C120 586 300 586 365 542" fill="none" stroke="#fce7a8" stroke-opacity=".28" stroke-width="2"/>
    <path d="M74 88 L98 88 M322 88 L346 88 M74 572 L98 572 M322 572 L346 572" stroke="#7c3aed" stroke-opacity=".50" stroke-width="2" stroke-linecap="round"/>
    <circle cx="80" cy="100" r="10" fill="none" stroke="#7c3aed" stroke-opacity=".45"/>
    <circle cx="340" cy="100" r="10" fill="none" stroke="#7c3aed" stroke-opacity=".45"/>
    <circle cx="80" cy="560" r="10" fill="none" stroke="#7c3aed" stroke-opacity=".45"/>
    <circle cx="340" cy="560" r="10" fill="none" stroke="#7c3aed" stroke-opacity=".45"/>
    
  
        <g filter="url(#glow)">
          <circle cx="210" cy="288" r="118" fill="#fce7a8" opacity=".11"/>
          <circle cx="210" cy="288" r="91" fill="none" stroke="#fce7a8" stroke-width="3" stroke-opacity=".74"/>
          <circle cx="210" cy="288" r="58" fill="#7c3aed" opacity=".12" stroke="#7c3aed" stroke-width="2" stroke-opacity=".55"/>
          <text x="210" y="310" text-anchor="middle" font-size="96" font-family="Georgia, serif" fill="#fce7a8">✧</text>
        </g>
        <path d="M132 430 C164 404, 256 404, 288 430" fill="none" stroke="#fce7a8" stroke-width="6" stroke-linecap="round" stroke-opacity=".62"/>
        <path d="M156 452 C184 438, 236 438, 264 452" fill="none" stroke="#7c3aed" stroke-width="3" stroke-linecap="round" stroke-opacity=".56"/>
        <text x="62" y="86" font-size="24" font-family="Georgia, serif" fill="#fff7ed">00</text>
        <text x="358" y="86" text-anchor="end" font-size="24" font-family="Georgia, serif" fill="#fff7ed">00</text>
        
  <rect x="58" y="522" width="304" height="76" rx="18" fill="#020617" opacity=".62" stroke="#facc15" stroke-opacity=".24"/>
  <text x="210" y="558" text-anchor="middle" font-size="20" font-family="Georgia, serif" fill="#fff7ed">The Fool</text>
  <text x="210" y="586" text-anchor="middle" font-size="9" font-family="Arial, sans-serif" letter-spacing="3" fill="#c4b5fd">ORIGINAL SYMBOLIC DECK</text>
</svg>