<svg xmlns="http://www.w3.org/2000/svg" width="420" height="660" viewBox="0 0 420 660" role="img" aria-label="The Magician">
  <defs>
    <linearGradient id="bg" x1="0" y1="0" x2="1" y2="1">
      <stop offset="0%" stop-color="#050816"/>
      <stop offset="45%" stop-color="#17102d"/>
      <stop offset="100%" stop-color="#020617"/>
    </linearGradient>
    <radialGradient id="aura" cx="50%" cy="38%" r="68%">
      <stop offset="0%" stop-color="#facc15" stop-opacity=".18"/>
      <stop offset="52%" stop-color="#a78bfa" stop-opacity=".10"/>
      <stop offset="100%" stop-color="#020617" stop-opacity="0"/>
    </radialGradient>
    <filter id="glow" x="-30%" y="-30%" width="160%" height="160%">
      <feDropShadow dx="0" dy="0" stdDeviation="6" flood-color="#c4b5fd" flood-opacity=".42"/>
    </filter>
  </defs>
  <rect width="420" height="660" rx="34" fill="url(#bg)"/>
  <rect x="20" y="20" width="380" height="620" rx="30" fill="url(#aura)" stroke="#facc15" stroke-opacity=".54" stroke-width="2"/>
  <rect x="35" y="35" width="350" height="590" rx="22" fill="none" stroke="#a78bfa" stroke-opacity=".18" stroke-width="1.5"/>
  <circle cx="257" cy="231" r="1.8" fill="#fde68a" opacity="0.72"/>
<circle cx="64" cy="134" r="2.2" fill="#fde68a" opacity="0.68"/>
<circle cx="248" cy="299" r="1.0" fill="#fde68a" opacity="0.57"/>
<circle cx="52" cy="116" r="1.4" fill="#fde68a" opacity="0.81"/>
<circle cx="208" cy="445" r="1.4" fill="#fde68a" opacity="0.51"/>
<circle cx="121" cy="181" r="1.4" fill="#fde68a" opacity="0.46"/>
<circle cx="265" cy="406" r="1.4" fill="#fde68a" opacity="0.79"/>
<circle cx="209" cy="100" r="1.0" fill="#fde68a" opacity="0.46"/>
<circle cx="298" cy="482" r="1.8" fill="#fde68a" opacity="0.37"/>
<circle cx="331" cy="436" r="1.4" fill="#fde68a" opacity="0.60"/>
<circle cx="240" cy="224" r="1.0" fill="#fde68a" opacity="0.60"/>
<circle cx="97" cy="522" r="2.2" fill="#fde68a" opacity="0.66"/>
<circle cx="189" cy="528" r="2.2" fill="#fde68a" opacity="0.51"/>
<circle cx="113" cy="488" r="1.0" fill="#fde68a" opacity="0.55"/>
<circle cx="198" cy="509" r="1.0" fill="#fde68a" opacity="0.83"/>
<circle cx="180" cy="187" r="1.4" fill="#fde68a" opacity="0.69"/>
<circle cx="236" cy="171" r="2.2" fill="#fde68a" opacity="0.31"/>
<circle cx="206" cy="422" r="1.0" fill="#fde68a" opacity="0.56"/>
<circle cx="314" cy="87" r="1.8" fill="#fde68a" opacity="0.76"/>
<circle cx="82" cy="415" r="2.2" fill="#fde68a" opacity="0.43"/>
<circle cx="237" cy="576" r="1.0" fill="#fde68a" opacity="0.81"/>
<circle cx="269" cy="175" r="1.0" fill="#fde68a" opacity="0.79"/>
<circle cx="248" cy="509" r="1.0" fill="#fde68a" opacity="0.83"/>
<circle cx="205" cy="97" r="1.0" fill="#fde68a" opacity="0.40"/>
<circle cx="236" cy="466" r="2.2" fill="#fde68a" opacity="0.41"/>
<circle cx="171" cy="548" r="1.8" fill="#fde68a" opacity="0.76"/>
<circle cx="304" cy="499" r="1.4" fill="#fde68a" opacity="0.73"/>
<circle cx="134" cy="222" r="1.0" fill="#fde68a" opacity="0.70"/>
<circle cx="225" cy="252" r="1.4" fill="#fde68a" opacity="0.28"/>
<circle cx="200" cy="584" r="1.4" fill="#fde68a" opacity="0.82"/>
<circle cx="361" cy="455" r="1.0" fill="#fde68a" opacity="0.74"/>
<circle cx="96" cy="289" r="1.0" fill="#fde68a" opacity="0.76"/>
<circle cx="378" cy="331" r="1.0" fill="#fde68a" opacity="0.33"/>
<circle cx="333" cy="193" r="1.0" fill="#fde68a" opacity="0.41"/>
  
    <path d="M55 118 C120 74 300 74 365 118" fill="none" stroke="#c4b5fd" stroke-opacity=".28" stroke-width="2"/>
    <path d="M55 542 C120 586 300 586 365 542" fill="none" stroke="#c4b5fd" stroke-opacity=".28" stroke-width="2"/>
    <path d="M74 88 L98 88 M322 88 L346 88 M74 572 L98 572 M322 572 L346 572" stroke="#f59e0b" stroke-opacity=".50" stroke-width="2" stroke-linecap="round"/>
    <circle cx="80" cy="100" r="10" fill="none" stroke="#f59e0b" stroke-opacity=".45"/>
    <circle cx="340" cy="100" r="10" fill="none" stroke="#f59e0b" stroke-opacity=".45"/>
    <circle cx="80" cy="560" r="10" fill="none" stroke="#f59e0b" stroke-opacity=".45"/>
    <circle cx="340" cy="560" r="10" fill="none" stroke="#f59e0b" stroke-opacity=".45"/>
    
  
        <g filter="url(#glow)">
          <circle cx="210" cy="288" r="118" fill="#c4b5fd" opacity=".11"/>
          <circle cx="210" cy="288" r="91" fill="none" stroke="#c4b5fd" stroke-width="3" stroke-opacity=".74"/>
          <circle cx="210" cy="288" r="58" fill="#f59e0b" opacity=".12" stroke="#f59e0b" stroke-width="2" stroke-opacity=".55"/>
          <text x="210" y="310" text-anchor="middle" font-size="96" font-family="Georgia, serif" fill="#c4b5fd">☿</text>
        </g>
        <path d="M132 430 C164 404, 256 404, 288 430" fill="none" stroke="#c4b5fd" stroke-width="6" stroke-linecap="round" stroke-opacity=".62"/>
        <path d="M156 452 C184 438, 236 438, 264 452" fill="none" stroke="#f59e0b" stroke-width="3" stroke-linecap="round" stroke-opacity=".56"/>
        <text x="62" y="86" font-size="24" font-family="Georgia, serif" fill="#fff7ed">01</text>
        <text x="358" y="86" text-anchor="end" font-size="24" font-family="Georgia, serif" fill="#fff7ed">01</text>
        
  <rect x="58" y="522" width="304" height="76" rx="18" fill="#020617" opacity=".62" stroke="#facc15" stroke-opacity=".24"/>
  <text x="210" y="558" text-anchor="middle" font-size="20" font-family="Georgia, serif" fill="#fff7ed">The Magician</text>
  <text x="210" y="586" text-anchor="middle" font-size="9" font-family="Arial, sans-serif" letter-spacing="3" fill="#c4b5fd">ORIGINAL SYMBOLIC DECK</text>
</svg>