<svg xmlns="http://www.w3.org/2000/svg" width="420" height="660" viewBox="0 0 420 660" role="img" aria-label="The Hierophant">
  <defs>
    <linearGradient id="bg-major_05_hierophant" x1="0" y1="0" x2="1" y2="1">
      <stop offset="0%" stop-color="#0b1022"/>
      <stop offset="52%" stop-color="#211136"/>
      <stop offset="100%" stop-color="#050816"/>
    </linearGradient>
    <radialGradient id="glow-major_05_hierophant" cx="50%" cy="38%" r="62%">
      <stop offset="0%" stop-color="#facc15" stop-opacity=".22"/>
      <stop offset="55%" stop-color="#a78bfa" stop-opacity=".10"/>
      <stop offset="100%" stop-color="#000000" stop-opacity="0"/>
    </radialGradient>
    <filter id="soft-major_05_hierophant" x="-20%" y="-20%" width="140%" height="140%">
      <feGaussianBlur stdDeviation="4"/>
    </filter>
  </defs>
  <rect width="420" height="660" rx="34" fill="url(#bg-major_05_hierophant)"/>
  <rect x="18" y="18" width="384" height="624" rx="28" fill="none" stroke="#facc15" stroke-opacity=".62" stroke-width="3"/>
  <rect x="32" y="32" width="356" height="596" rx="22" fill="url(#glow-major_05_hierophant)"/>
  <path d="M64 120 C148 72, 272 72, 356 120 M64 540 C148 588, 272 588, 356 540" fill="none" stroke="#facc15" stroke-opacity=".24" stroke-width="2"/>
  <g opacity=".6">
    <circle cx="82" cy="152" r="2.5" fill="#fde68a"/><circle cx="340" cy="180" r="2" fill="#c4b5fd"/><circle cx="320" cy="498" r="2.5" fill="#fde68a"/><circle cx="94" cy="486" r="2" fill="#c4b5fd"/>
  </g>
  
        <circle cx="210" cy="262" r="98" fill="#facc15" opacity=".16"/>
        <circle cx="210" cy="262" r="74" fill="none" stroke="#facc15" stroke-width="3" opacity=".68"/>
        <path d="M112 448 C150 392, 270 392, 308 448" fill="none" stroke="#facc15" stroke-width="7" stroke-linecap="round" opacity=".75"/>
        <text x="210" y="292" text-anchor="middle" dominant-baseline="middle" font-size="86" font-family="Georgia, serif" fill="#facc15">⚜</text>
        <text x="64" y="82" font-size="26" font-family="Georgia, serif" fill="#f8fafc" opacity=".92">05</text>
        <text x="356" y="82" text-anchor="end" font-size="26" font-family="Georgia, serif" fill="#f8fafc" opacity=".92">05</text>
        
  <rect x="54" y="530" width="312" height="70" rx="18" fill="#020617" opacity=".48" stroke="#facc15" stroke-opacity=".20"/>
  <text x="210" y="568" text-anchor="middle" font-size="22" font-family="Georgia, serif" fill="#fff7ed">The Hierophant</text>
  <text x="210" y="594" text-anchor="middle" font-size="10" font-family="Arial, sans-serif" letter-spacing="3" fill="#c4b5fd">FATECARD ORIGINAL</text>
</svg>