<svg xmlns="http://www.w3.org/2000/svg" width="420" height="660" viewBox="0 0 420 660" role="img" aria-label="The High Priestess">
<defs>
<linearGradient id="bg" x1="0" y1="0" x2="1" y2="1"><stop stop-color="#080b18"/><stop offset=".52" stop-color="#211436"/><stop offset="1" stop-color="#050812"/></linearGradient>
<radialGradient id="a" cx="50%" cy="40%" r="64%"><stop stop-color="#93c5fd" stop-opacity=".22"/><stop offset=".55" stop-color="#f7d88b" stop-opacity=".12"/><stop offset="1" stop-color="#000" stop-opacity="0"/></radialGradient>
<filter id="glow"><feDropShadow dx="0" dy="0" stdDeviation="5" flood-color="#93c5fd" flood-opacity=".42"/></filter>
</defs>
<rect width="420" height="660" rx="34" fill="url(#bg)"/>
<rect x="18" y="18" width="384" height="624" rx="30" fill="url(#a)" stroke="#d6a24f" stroke-opacity=".82" stroke-width="2.4"/>
<rect x="36" y="36" width="348" height="588" rx="22" fill="none" stroke="#f7d88b" stroke-opacity=".28" stroke-width="1.5"/>
<circle cx="307" cy="548" r="2" fill="#fff1b8" opacity="0.27"/>
<circle cx="103" cy="449" r="1" fill="#fff1b8" opacity="0.64"/>
<circle cx="116" cy="322" r="1.2" fill="#fff1b8" opacity="0.38"/>
<circle cx="365" cy="202" r="1.2" fill="#fff1b8" opacity="0.45"/>
<circle cx="354" cy="511" r="1.5" fill="#fff1b8" opacity="0.35"/>
<circle cx="42" cy="287" r="2" fill="#fff1b8" opacity="0.72"/>
<circle cx="156" cy="404" r="1.2" fill="#fff1b8" opacity="0.62"/>
<circle cx="248" cy="249" r="2" fill="#fff1b8" opacity="0.55"/>
<circle cx="302" cy="414" r="1" fill="#fff1b8" opacity="0.58"/>
<circle cx="195" cy="150" r="2" fill="#fff1b8" opacity="0.59"/>
<circle cx="291" cy="447" r="1.5" fill="#fff1b8" opacity="0.61"/>
<circle cx="346" cy="528" r="1.2" fill="#fff1b8" opacity="0.44"/>
<circle cx="142" cy="460" r="1.5" fill="#fff1b8" opacity="0.77"/>
<circle cx="165" cy="306" r="1" fill="#fff1b8" opacity="0.46"/>
<circle cx="265" cy="214" r="1.2" fill="#fff1b8" opacity="0.54"/>
<circle cx="65" cy="452" r="1" fill="#fff1b8" opacity="0.27"/>
<circle cx="91" cy="225" r="2" fill="#fff1b8" opacity="0.67"/>
<circle cx="369" cy="87" r="1.2" fill="#fff1b8" opacity="0.30"/>
<circle cx="254" cy="187" r="1.2" fill="#fff1b8" opacity="0.54"/>
<circle cx="261" cy="316" r="1.2" fill="#fff1b8" opacity="0.37"/>
<circle cx="103" cy="149" r="1" fill="#fff1b8" opacity="0.51"/>
<circle cx="352" cy="270" r="1.5" fill="#fff1b8" opacity="0.38"/>
<circle cx="199" cy="93" r="1.5" fill="#fff1b8" opacity="0.48"/>
<circle cx="57" cy="232" r="1.5" fill="#fff1b8" opacity="0.32"/>
<circle cx="362" cy="388" r="1" fill="#fff1b8" opacity="0.49"/>
<circle cx="221" cy="561" r="1.2" fill="#fff1b8" opacity="0.36"/>
<circle cx="179" cy="479" r="1.2" fill="#fff1b8" opacity="0.47"/>
<circle cx="277" cy="550" r="1.5" fill="#fff1b8" opacity="0.46"/>
<circle cx="240" cy="543" r="1" fill="#fff1b8" opacity="0.73"/>
<circle cx="120" cy="100" r="2" fill="#fff1b8" opacity="0.56"/>
<circle cx="191" cy="507" r="1" fill="#fff1b8" opacity="0.61"/>
<circle cx="192" cy="573" r="1" fill="#fff1b8" opacity="0.52"/>
<circle cx="203" cy="111" r="1.2" fill="#fff1b8" opacity="0.66"/>
<circle cx="327" cy="448" r="2" fill="#fff1b8" opacity="0.52"/>
<circle cx="323" cy="312" r="2" fill="#fff1b8" opacity="0.36"/>
<circle cx="182" cy="165" r="1.5" fill="#fff1b8" opacity="0.73"/>
<circle cx="224" cy="221" r="1" fill="#fff1b8" opacity="0.76"/>
<circle cx="128" cy="102" r="2" fill="#fff1b8" opacity="0.41"/>
<path d="M70 104 C132 68 288 68 350 104 M70 556 C132 592 288 592 350 556" fill="none" stroke="#d6a24f" stroke-opacity=".28" stroke-width="2"/>
<text x="64" y="78" fill="#fff1b8" font-size="22" font-family="Georgia,serif">02</text>
<text x="356" y="78" text-anchor="end" fill="#fff1b8" font-size="22" font-family="Georgia,serif">02</text>
<g filter="url(#glow)">
        <ellipse cx="210" cy="418" rx="90" ry="22" fill="#f7d88b" opacity=".16"/>
        <path d="M154 420 C166 322 184 254 210 224 C236 254 254 322 266 420 Z" fill="#93c5fd" opacity=".20" stroke="#93c5fd" stroke-opacity=".72" stroke-width="3"/>
        <circle cx="210" cy="206" r="42" fill="#f7d88b" opacity=".24" stroke="#93c5fd" stroke-width="3"/>
        <path d="M178 268 C200 286 220 286 242 268" fill="none" stroke="#f7d88b" stroke-width="5" stroke-linecap="round" opacity=".70"/>
        <text x="210" y="212" text-anchor="middle" dominant-baseline="middle" font-size="46" fill="#93c5fd" font-family="Georgia,serif">☾</text>
        </g>
<rect x="58" y="530" width="304" height="74" rx="17" fill="#050812" opacity=".74" stroke="#d6a24f" stroke-opacity=".30"/>
<text x="210" y="566" text-anchor="middle" fill="#fff7df" font-size="20" font-family="Georgia,serif">The High Priestess</text>
<text x="210" y="592" text-anchor="middle" fill="#c9b27a" font-size="9" font-family="Arial" letter-spacing="3">FATECARD ORIGINAL</text>
</svg>