<svg xmlns="http://www.w3.org/2000/svg" width="420" height="660" viewBox="0 0 420 660" role="img" aria-label="Judgement">
<defs>
<linearGradient id="bg" x1="0" y1="0" x2="1" y2="1"><stop stop-color="#080b18"/><stop offset=".52" stop-color="#211436"/><stop offset="1" stop-color="#050812"/></linearGradient>
<radialGradient id="a" cx="50%" cy="40%" r="64%"><stop stop-color="#f9a8d4" stop-opacity=".22"/><stop offset=".55" stop-color="#fde68a" stop-opacity=".12"/><stop offset="1" stop-color="#000" stop-opacity="0"/></radialGradient>
<filter id="glow"><feDropShadow dx="0" dy="0" stdDeviation="5" flood-color="#f9a8d4" flood-opacity=".42"/></filter>
</defs>
<rect width="420" height="660" rx="34" fill="url(#bg)"/>
<rect x="18" y="18" width="384" height="624" rx="30" fill="url(#a)" stroke="#d6a24f" stroke-opacity=".82" stroke-width="2.4"/>
<rect x="36" y="36" width="348" height="588" rx="22" fill="none" stroke="#fde68a" stroke-opacity=".28" stroke-width="1.5"/>
<circle cx="95" cy="342" r="1" fill="#fff1b8" opacity="0.37"/>
<circle cx="106" cy="555" r="1.5" fill="#fff1b8" opacity="0.28"/>
<circle cx="139" cy="186" r="1" fill="#fff1b8" opacity="0.64"/>
<circle cx="139" cy="84" r="2" fill="#fff1b8" opacity="0.43"/>
<circle cx="223" cy="287" r="1.2" fill="#fff1b8" opacity="0.45"/>
<circle cx="212" cy="515" r="1.2" fill="#fff1b8" opacity="0.54"/>
<circle cx="283" cy="409" r="2" fill="#fff1b8" opacity="0.51"/>
<circle cx="73" cy="283" r="1" fill="#fff1b8" opacity="0.42"/>
<circle cx="168" cy="366" r="1.2" fill="#fff1b8" opacity="0.50"/>
<circle cx="299" cy="436" r="1.2" fill="#fff1b8" opacity="0.57"/>
<circle cx="210" cy="452" r="1" fill="#fff1b8" opacity="0.43"/>
<circle cx="239" cy="244" r="1.5" fill="#fff1b8" opacity="0.40"/>
<circle cx="196" cy="187" r="1.5" fill="#fff1b8" opacity="0.76"/>
<circle cx="254" cy="551" r="1.2" fill="#fff1b8" opacity="0.73"/>
<circle cx="272" cy="249" r="2" fill="#fff1b8" opacity="0.76"/>
<circle cx="121" cy="351" r="2" fill="#fff1b8" opacity="0.52"/>
<circle cx="311" cy="192" r="1.2" fill="#fff1b8" opacity="0.47"/>
<circle cx="310" cy="271" r="1.2" fill="#fff1b8" opacity="0.69"/>
<circle cx="262" cy="157" r="1.2" fill="#fff1b8" opacity="0.42"/>
<circle cx="166" cy="550" r="1.5" fill="#fff1b8" opacity="0.36"/>
<circle cx="152" cy="482" r="1" fill="#fff1b8" opacity="0.28"/>
<circle cx="106" cy="532" r="1.5" fill="#fff1b8" opacity="0.32"/>
<circle cx="131" cy="104" r="1" fill="#fff1b8" opacity="0.33"/>
<circle cx="321" cy="227" r="2" fill="#fff1b8" opacity="0.62"/>
<circle cx="69" cy="94" r="2" fill="#fff1b8" opacity="0.68"/>
<circle cx="337" cy="277" r="1.2" fill="#fff1b8" opacity="0.37"/>
<circle cx="363" cy="147" r="2" fill="#fff1b8" opacity="0.78"/>
<circle cx="237" cy="387" r="1.5" fill="#fff1b8" opacity="0.49"/>
<circle cx="293" cy="91" r="1" fill="#fff1b8" opacity="0.52"/>
<circle cx="148" cy="342" r="1.2" fill="#fff1b8" opacity="0.63"/>
<circle cx="193" cy="520" r="2" fill="#fff1b8" opacity="0.61"/>
<circle cx="151" cy="553" r="1" fill="#fff1b8" opacity="0.29"/>
<circle cx="106" cy="489" r="2" fill="#fff1b8" opacity="0.29"/>
<circle cx="298" cy="122" r="1.5" fill="#fff1b8" opacity="0.76"/>
<circle cx="153" cy="404" r="1" fill="#fff1b8" opacity="0.41"/>
<circle cx="238" cy="501" r="2" fill="#fff1b8" opacity="0.36"/>
<circle cx="264" cy="523" r="1" fill="#fff1b8" opacity="0.55"/>
<circle cx="102" cy="351" r="1" fill="#fff1b8" opacity="0.77"/>
<path d="M70 104 C132 68 288 68 350 104 M70 556 C132 592 288 592 350 556" fill="none" stroke="#d6a24f" stroke-opacity=".28" stroke-width="2"/>
<text x="64" y="78" fill="#fff1b8" font-size="22" font-family="Georgia,serif">20</text>
<text x="356" y="78" text-anchor="end" fill="#fff1b8" font-size="22" font-family="Georgia,serif">20</text>
<g filter="url(#glow)">
    <circle cx="210" cy="284" r="98" fill="#f9a8d4" opacity=".13"/>
    <circle cx="210" cy="284" r="70" fill="none" stroke="#f9a8d4" stroke-width="3" opacity=".72"/>
    <text x="210" y="306" text-anchor="middle" font-size="84" fill="#f9a8d4" font-family="Georgia,serif">✦</text>
    <path d="M136 432 C170 398 250 398 284 432" fill="none" stroke="#fde68a" stroke-width="6" stroke-linecap="round" opacity=".68"/>
    </g>
<rect x="58" y="530" width="304" height="74" rx="17" fill="#050812" opacity=".74" stroke="#d6a24f" stroke-opacity=".30"/>
<text x="210" y="566" text-anchor="middle" fill="#fff7df" font-size="20" font-family="Georgia,serif">Judgement</text>
<text x="210" y="592" text-anchor="middle" fill="#c9b27a" font-size="9" font-family="Arial" letter-spacing="3">FATECARD ORIGINAL</text>
</svg>