<svg xmlns="http://www.w3.org/2000/svg" width="420" height="660" viewBox="0 0 420 660" role="img" aria-label="Wheel of Fortune">
<defs>
<linearGradient id="bg" x1="0" y1="0" x2="1" y2="1"><stop stop-color="#080b18"/><stop offset=".52" stop-color="#211436"/><stop offset="1" stop-color="#050812"/></linearGradient>
<radialGradient id="a" cx="50%" cy="40%" r="64%"><stop stop-color="#facc15" stop-opacity=".22"/><stop offset=".55" stop-color="#38bdf8" stop-opacity=".12"/><stop offset="1" stop-color="#000" stop-opacity="0"/></radialGradient>
<filter id="glow"><feDropShadow dx="0" dy="0" stdDeviation="5" flood-color="#facc15" flood-opacity=".42"/></filter>
</defs>
<rect width="420" height="660" rx="34" fill="url(#bg)"/>
<rect x="18" y="18" width="384" height="624" rx="30" fill="url(#a)" stroke="#d6a24f" stroke-opacity=".82" stroke-width="2.4"/>
<rect x="36" y="36" width="348" height="588" rx="22" fill="none" stroke="#38bdf8" stroke-opacity=".28" stroke-width="1.5"/>
<circle cx="274" cy="146" r="1" fill="#fff1b8" opacity="0.53"/>
<circle cx="323" cy="562" r="1.2" fill="#fff1b8" opacity="0.27"/>
<circle cx="321" cy="572" r="2" fill="#fff1b8" opacity="0.31"/>
<circle cx="134" cy="329" r="1" fill="#fff1b8" opacity="0.61"/>
<circle cx="104" cy="250" r="1" fill="#fff1b8" opacity="0.76"/>
<circle cx="63" cy="562" r="1" fill="#fff1b8" opacity="0.52"/>
<circle cx="254" cy="405" r="1" fill="#fff1b8" opacity="0.40"/>
<circle cx="101" cy="456" r="1.2" fill="#fff1b8" opacity="0.51"/>
<circle cx="242" cy="489" r="1" fill="#fff1b8" opacity="0.71"/>
<circle cx="43" cy="358" r="2" fill="#fff1b8" opacity="0.27"/>
<circle cx="126" cy="414" r="2" fill="#fff1b8" opacity="0.47"/>
<circle cx="352" cy="163" r="1" fill="#fff1b8" opacity="0.32"/>
<circle cx="331" cy="458" r="1" fill="#fff1b8" opacity="0.28"/>
<circle cx="179" cy="104" r="2" fill="#fff1b8" opacity="0.53"/>
<circle cx="286" cy="517" r="1.2" fill="#fff1b8" opacity="0.68"/>
<circle cx="323" cy="258" r="2" fill="#fff1b8" opacity="0.59"/>
<circle cx="102" cy="202" r="2" fill="#fff1b8" opacity="0.60"/>
<circle cx="262" cy="476" r="1" fill="#fff1b8" opacity="0.51"/>
<circle cx="134" cy="313" r="1.5" fill="#fff1b8" opacity="0.51"/>
<circle cx="123" cy="536" r="2" fill="#fff1b8" opacity="0.62"/>
<circle cx="49" cy="362" r="1.5" fill="#fff1b8" opacity="0.37"/>
<circle cx="133" cy="321" r="1" fill="#fff1b8" opacity="0.61"/>
<circle cx="121" cy="549" r="2" fill="#fff1b8" opacity="0.39"/>
<circle cx="167" cy="417" r="2" fill="#fff1b8" opacity="0.40"/>
<circle cx="203" cy="429" r="2" fill="#fff1b8" opacity="0.39"/>
<circle cx="141" cy="296" r="2" fill="#fff1b8" opacity="0.50"/>
<circle cx="238" cy="277" r="1.2" fill="#fff1b8" opacity="0.48"/>
<circle cx="138" cy="435" r="2" fill="#fff1b8" opacity="0.48"/>
<circle cx="105" cy="479" r="1.5" fill="#fff1b8" opacity="0.76"/>
<circle cx="263" cy="182" r="1.5" fill="#fff1b8" opacity="0.35"/>
<circle cx="99" cy="465" r="1.5" fill="#fff1b8" opacity="0.47"/>
<circle cx="183" cy="292" r="2" fill="#fff1b8" opacity="0.46"/>
<circle cx="166" cy="101" r="1" fill="#fff1b8" opacity="0.69"/>
<circle cx="145" cy="460" r="1" fill="#fff1b8" opacity="0.48"/>
<circle cx="258" cy="559" r="2" fill="#fff1b8" opacity="0.70"/>
<circle cx="373" cy="375" r="1" fill="#fff1b8" opacity="0.55"/>
<circle cx="323" cy="464" r="1" fill="#fff1b8" opacity="0.78"/>
<circle cx="60" cy="331" r="1" fill="#fff1b8" opacity="0.48"/>
<path d="M70 104 C132 68 288 68 350 104 M70 556 C132 592 288 592 350 556" fill="none" stroke="#d6a24f" stroke-opacity=".28" stroke-width="2"/>
<text x="64" y="78" fill="#fff1b8" font-size="22" font-family="Georgia,serif">10</text>
<text x="356" y="78" text-anchor="end" fill="#fff1b8" font-size="22" font-family="Georgia,serif">10</text>
<g filter="url(#glow)">
    <circle cx="210" cy="284" r="98" fill="#facc15" opacity=".13"/>
    <circle cx="210" cy="284" r="70" fill="none" stroke="#facc15" stroke-width="3" opacity=".72"/>
    <text x="210" y="306" text-anchor="middle" font-size="84" fill="#facc15" font-family="Georgia,serif">✦</text>
    <path d="M136 432 C170 398 250 398 284 432" fill="none" stroke="#38bdf8" stroke-width="6" stroke-linecap="round" opacity=".68"/>
    </g>
<rect x="58" y="530" width="304" height="74" rx="17" fill="#050812" opacity=".74" stroke="#d6a24f" stroke-opacity=".30"/>
<text x="210" y="566" text-anchor="middle" fill="#fff7df" font-size="20" font-family="Georgia,serif">Wheel of Fortune</text>
<text x="210" y="592" text-anchor="middle" fill="#c9b27a" font-size="9" font-family="Arial" letter-spacing="3">FATECARD ORIGINAL</text>
</svg>