<svg xmlns="http://www.w3.org/2000/svg" width="420" height="660" viewBox="0 0 420 660" role="img" aria-label="The Empress">
  <defs>
    <linearGradient id="bg" x1="0" y1="0" x2="1" y2="1">
      <stop offset="0%" stop-color="#050816"/>
      <stop offset="45%" stop-color="#17102d"/>
      <stop offset="100%" stop-color="#020617"/>
    </linearGradient>
    <radialGradient id="aura" cx="50%" cy="38%" r="68%">
      <stop offset="0%" stop-color="#facc15" stop-opacity=".18"/>
      <stop offset="52%" stop-color="#a78bfa" stop-opacity=".10"/>
      <stop offset="100%" stop-color="#020617" stop-opacity="0"/>
    </radialGradient>
    <filter id="glow" x="-30%" y="-30%" width="160%" height="160%">
      <feDropShadow dx="0" dy="0" stdDeviation="6" flood-color="#f9a8d4" flood-opacity=".42"/>
    </filter>
  </defs>
  <rect width="420" height="660" rx="34" fill="url(#bg)"/>
  <rect x="20" y="20" width="380" height="620" rx="30" fill="url(#aura)" stroke="#facc15" stroke-opacity=".54" stroke-width="2"/>
  <rect x="35" y="35" width="350" height="590" rx="22" fill="none" stroke="#a78bfa" stroke-opacity=".18" stroke-width="1.5"/>
  <circle cx="173" cy="289" r="1.0" fill="#fde68a" opacity="0.76"/>
<circle cx="240" cy="184" r="1.0" fill="#fde68a" opacity="0.35"/>
<circle cx="230" cy="407" r="2.2" fill="#fde68a" opacity="0.32"/>
<circle cx="126" cy="270" r="1.4" fill="#fde68a" opacity="0.43"/>
<circle cx="124" cy="519" r="1.0" fill="#fde68a" opacity="0.30"/>
<circle cx="324" cy="90" r="2.2" fill="#fde68a" opacity="0.80"/>
<circle cx="46" cy="301" r="1.0" fill="#fde68a" opacity="0.52"/>
<circle cx="246" cy="422" r="2.2" fill="#fde68a" opacity="0.30"/>
<circle cx="74" cy="202" r="1.0" fill="#fde68a" opacity="0.56"/>
<circle cx="238" cy="268" r="1.4" fill="#fde68a" opacity="0.62"/>
<circle cx="245" cy="543" r="1.8" fill="#fde68a" opacity="0.37"/>
<circle cx="175" cy="158" r="1.0" fill="#fde68a" opacity="0.83"/>
<circle cx="333" cy="553" r="1.0" fill="#fde68a" opacity="0.55"/>
<circle cx="146" cy="325" r="1.0" fill="#fde68a" opacity="0.40"/>
<circle cx="360" cy="399" r="2.2" fill="#fde68a" opacity="0.54"/>
<circle cx="309" cy="548" r="1.0" fill="#fde68a" opacity="0.77"/>
<circle cx="231" cy="220" r="1.0" fill="#fde68a" opacity="0.79"/>
<circle cx="308" cy="325" r="1.4" fill="#fde68a" opacity="0.74"/>
<circle cx="348" cy="417" r="2.2" fill="#fde68a" opacity="0.58"/>
<circle cx="204" cy="249" r="1.0" fill="#fde68a" opacity="0.73"/>
<circle cx="233" cy="297" r="1.8" fill="#fde68a" opacity="0.58"/>
<circle cx="163" cy="304" r="1.4" fill="#fde68a" opacity="0.44"/>
<circle cx="62" cy="283" r="1.8" fill="#fde68a" opacity="0.42"/>
<circle cx="377" cy="455" r="1.4" fill="#fde68a" opacity="0.37"/>
<circle cx="227" cy="164" r="1.4" fill="#fde68a" opacity="0.75"/>
<circle cx="63" cy="492" r="1.0" fill="#fde68a" opacity="0.76"/>
<circle cx="188" cy="529" r="1.4" fill="#fde68a" opacity="0.50"/>
<circle cx="161" cy="578" r="1.4" fill="#fde68a" opacity="0.33"/>
<circle cx="271" cy="128" r="1.8" fill="#fde68a" opacity="0.78"/>
<circle cx="192" cy="149" r="1.0" fill="#fde68a" opacity="0.39"/>
<circle cx="165" cy="554" r="1.0" fill="#fde68a" opacity="0.47"/>
<circle cx="307" cy="321" r="1.4" fill="#fde68a" opacity="0.69"/>
<circle cx="367" cy="210" r="1.4" fill="#fde68a" opacity="0.77"/>
<circle cx="353" cy="347" r="2.2" fill="#fde68a" opacity="0.75"/>
  
    <path d="M55 118 C120 74 300 74 365 118" fill="none" stroke="#f9a8d4" stroke-opacity=".28" stroke-width="2"/>
    <path d="M55 542 C120 586 300 586 365 542" fill="none" stroke="#f9a8d4" stroke-opacity=".28" stroke-width="2"/>
    <path d="M74 88 L98 88 M322 88 L346 88 M74 572 L98 572 M322 572 L346 572" stroke="#34d399" stroke-opacity=".50" stroke-width="2" stroke-linecap="round"/>
    <circle cx="80" cy="100" r="10" fill="none" stroke="#34d399" stroke-opacity=".45"/>
    <circle cx="340" cy="100" r="10" fill="none" stroke="#34d399" stroke-opacity=".45"/>
    <circle cx="80" cy="560" r="10" fill="none" stroke="#34d399" stroke-opacity=".45"/>
    <circle cx="340" cy="560" r="10" fill="none" stroke="#34d399" stroke-opacity=".45"/>
    
  
        <g filter="url(#glow)">
          <circle cx="210" cy="288" r="118" fill="#f9a8d4" opacity=".11"/>
          <circle cx="210" cy="288" r="91" fill="none" stroke="#f9a8d4" stroke-width="3" stroke-opacity=".74"/>
          <circle cx="210" cy="288" r="58" fill="#34d399" opacity=".12" stroke="#34d399" stroke-width="2" stroke-opacity=".55"/>
          <text x="210" y="310" text-anchor="middle" font-size="96" font-family="Georgia, serif" fill="#f9a8d4">✿</text>
        </g>
        <path d="M132 430 C164 404, 256 404, 288 430" fill="none" stroke="#f9a8d4" stroke-width="6" stroke-linecap="round" stroke-opacity=".62"/>
        <path d="M156 452 C184 438, 236 438, 264 452" fill="none" stroke="#34d399" stroke-width="3" stroke-linecap="round" stroke-opacity=".56"/>
        <text x="62" y="86" font-size="24" font-family="Georgia, serif" fill="#fff7ed">03</text>
        <text x="358" y="86" text-anchor="end" font-size="24" font-family="Georgia, serif" fill="#fff7ed">03</text>
        
  <rect x="58" y="522" width="304" height="76" rx="18" fill="#020617" opacity=".62" stroke="#facc15" stroke-opacity=".24"/>
  <text x="210" y="558" text-anchor="middle" font-size="20" font-family="Georgia, serif" fill="#fff7ed">The Empress</text>
  <text x="210" y="586" text-anchor="middle" font-size="9" font-family="Arial, sans-serif" letter-spacing="3" fill="#c4b5fd">ORIGINAL SYMBOLIC DECK</text>
</svg>