<svg xmlns="http://www.w3.org/2000/svg" width="420" height="660" viewBox="0 0 420 660" role="img" aria-label="Justice">
<defs>
<linearGradient id="bg" x1="0" y1="0" x2="1" y2="1"><stop stop-color="#080b18"/><stop offset=".52" stop-color="#211436"/><stop offset="1" stop-color="#050812"/></linearGradient>
<radialGradient id="a" cx="50%" cy="40%" r="64%"><stop stop-color="#7dd3fc" stop-opacity=".22"/><stop offset=".55" stop-color="#fde68a" stop-opacity=".12"/><stop offset="1" stop-color="#000" stop-opacity="0"/></radialGradient>
<filter id="glow"><feDropShadow dx="0" dy="0" stdDeviation="5" flood-color="#7dd3fc" flood-opacity=".42"/></filter>
</defs>
<rect width="420" height="660" rx="34" fill="url(#bg)"/>
<rect x="18" y="18" width="384" height="624" rx="30" fill="url(#a)" stroke="#d6a24f" stroke-opacity=".82" stroke-width="2.4"/>
<rect x="36" y="36" width="348" height="588" rx="22" fill="none" stroke="#fde68a" stroke-opacity=".28" stroke-width="1.5"/>
<circle cx="260" cy="128" r="1" fill="#fff1b8" opacity="0.75"/>
<circle cx="97" cy="361" r="1" fill="#fff1b8" opacity="0.57"/>
<circle cx="83" cy="550" r="1.5" fill="#fff1b8" opacity="0.66"/>
<circle cx="197" cy="315" r="2" fill="#fff1b8" opacity="0.34"/>
<circle cx="296" cy="306" r="1.5" fill="#fff1b8" opacity="0.73"/>
<circle cx="150" cy="215" r="1.2" fill="#fff1b8" opacity="0.46"/>
<circle cx="278" cy="340" r="1.5" fill="#fff1b8" opacity="0.65"/>
<circle cx="87" cy="399" r="2" fill="#fff1b8" opacity="0.38"/>
<circle cx="237" cy="543" r="1.2" fill="#fff1b8" opacity="0.33"/>
<circle cx="376" cy="174" r="1" fill="#fff1b8" opacity="0.45"/>
<circle cx="257" cy="586" r="1.2" fill="#fff1b8" opacity="0.69"/>
<circle cx="319" cy="446" r="1.2" fill="#fff1b8" opacity="0.32"/>
<circle cx="92" cy="454" r="1" fill="#fff1b8" opacity="0.58"/>
<circle cx="130" cy="570" r="1" fill="#fff1b8" opacity="0.56"/>
<circle cx="110" cy="271" r="1.5" fill="#fff1b8" opacity="0.51"/>
<circle cx="98" cy="562" r="1.2" fill="#fff1b8" opacity="0.39"/>
<circle cx="238" cy="99" r="1" fill="#fff1b8" opacity="0.53"/>
<circle cx="67" cy="166" r="1.5" fill="#fff1b8" opacity="0.26"/>
<circle cx="330" cy="238" r="1.2" fill="#fff1b8" opacity="0.45"/>
<circle cx="116" cy="441" r="1" fill="#fff1b8" opacity="0.55"/>
<circle cx="100" cy="224" r="1" fill="#fff1b8" opacity="0.61"/>
<circle cx="168" cy="348" r="1.5" fill="#fff1b8" opacity="0.58"/>
<circle cx="275" cy="572" r="1" fill="#fff1b8" opacity="0.43"/>
<circle cx="326" cy="528" r="1.5" fill="#fff1b8" opacity="0.57"/>
<circle cx="343" cy="384" r="1.2" fill="#fff1b8" opacity="0.75"/>
<circle cx="225" cy="523" r="1.2" fill="#fff1b8" opacity="0.43"/>
<circle cx="154" cy="531" r="1.2" fill="#fff1b8" opacity="0.38"/>
<circle cx="59" cy="412" r="1" fill="#fff1b8" opacity="0.47"/>
<circle cx="165" cy="570" r="1.5" fill="#fff1b8" opacity="0.47"/>
<circle cx="169" cy="252" r="1.2" fill="#fff1b8" opacity="0.37"/>
<circle cx="306" cy="170" r="1.2" fill="#fff1b8" opacity="0.50"/>
<circle cx="91" cy="504" r="1" fill="#fff1b8" opacity="0.67"/>
<circle cx="368" cy="329" r="2" fill="#fff1b8" opacity="0.43"/>
<circle cx="268" cy="130" r="2" fill="#fff1b8" opacity="0.54"/>
<circle cx="66" cy="468" r="1" fill="#fff1b8" opacity="0.72"/>
<circle cx="120" cy="257" r="1" fill="#fff1b8" opacity="0.37"/>
<circle cx="258" cy="153" r="2" fill="#fff1b8" opacity="0.59"/>
<circle cx="255" cy="193" r="1.2" fill="#fff1b8" opacity="0.40"/>
<path d="M70 104 C132 68 288 68 350 104 M70 556 C132 592 288 592 350 556" fill="none" stroke="#d6a24f" stroke-opacity=".28" stroke-width="2"/>
<text x="64" y="78" fill="#fff1b8" font-size="22" font-family="Georgia,serif">11</text>
<text x="356" y="78" text-anchor="end" fill="#fff1b8" font-size="22" font-family="Georgia,serif">11</text>
<g filter="url(#glow)">
    <circle cx="210" cy="284" r="98" fill="#7dd3fc" opacity=".13"/>
    <circle cx="210" cy="284" r="70" fill="none" stroke="#7dd3fc" stroke-width="3" opacity=".72"/>
    <text x="210" y="306" text-anchor="middle" font-size="84" fill="#7dd3fc" font-family="Georgia,serif">✦</text>
    <path d="M136 432 C170 398 250 398 284 432" fill="none" stroke="#fde68a" stroke-width="6" stroke-linecap="round" opacity=".68"/>
    </g>
<rect x="58" y="530" width="304" height="74" rx="17" fill="#050812" opacity=".74" stroke="#d6a24f" stroke-opacity=".30"/>
<text x="210" y="566" text-anchor="middle" fill="#fff7df" font-size="20" font-family="Georgia,serif">Justice</text>
<text x="210" y="592" text-anchor="middle" fill="#c9b27a" font-size="9" font-family="Arial" letter-spacing="3">FATECARD ORIGINAL</text>
</svg>