<svg xmlns="http://www.w3.org/2000/svg" width="420" height="660" viewBox="0 0 420 660" role="img" aria-label="The Chariot">
  <defs>
    <linearGradient id="bg" x1="0" y1="0" x2="1" y2="1">
      <stop offset="0%" stop-color="#050816"/>
      <stop offset="45%" stop-color="#17102d"/>
      <stop offset="100%" stop-color="#020617"/>
    </linearGradient>
    <radialGradient id="aura" cx="50%" cy="38%" r="68%">
      <stop offset="0%" stop-color="#facc15" stop-opacity=".18"/>
      <stop offset="52%" stop-color="#a78bfa" stop-opacity=".10"/>
      <stop offset="100%" stop-color="#020617" stop-opacity="0"/>
    </radialGradient>
    <filter id="glow" x="-30%" y="-30%" width="160%" height="160%">
      <feDropShadow dx="0" dy="0" stdDeviation="6" flood-color="#67e8f9" flood-opacity=".42"/>
    </filter>
  </defs>
  <rect width="420" height="660" rx="34" fill="url(#bg)"/>
  <rect x="20" y="20" width="380" height="620" rx="30" fill="url(#aura)" stroke="#facc15" stroke-opacity=".54" stroke-width="2"/>
  <rect x="35" y="35" width="350" height="590" rx="22" fill="none" stroke="#a78bfa" stroke-opacity=".18" stroke-width="1.5"/>
  <circle cx="352" cy="196" r="1.0" fill="#fde68a" opacity="0.32"/>
<circle cx="176" cy="140" r="1.0" fill="#fde68a" opacity="0.56"/>
<circle cx="66" cy="95" r="2.2" fill="#fde68a" opacity="0.77"/>
<circle cx="283" cy="138" r="1.0" fill="#fde68a" opacity="0.31"/>
<circle cx="148" cy="417" r="1.8" fill="#fde68a" opacity="0.42"/>
<circle cx="156" cy="451" r="2.2" fill="#fde68a" opacity="0.62"/>
<circle cx="286" cy="508" r="1.0" fill="#fde68a" opacity="0.59"/>
<circle cx="110" cy="574" r="2.2" fill="#fde68a" opacity="0.51"/>
<circle cx="302" cy="334" r="1.8" fill="#fde68a" opacity="0.73"/>
<circle cx="178" cy="552" r="1.8" fill="#fde68a" opacity="0.53"/>
<circle cx="212" cy="204" r="1.4" fill="#fde68a" opacity="0.80"/>
<circle cx="114" cy="139" r="2.2" fill="#fde68a" opacity="0.32"/>
<circle cx="141" cy="470" r="1.0" fill="#fde68a" opacity="0.51"/>
<circle cx="318" cy="247" r="1.8" fill="#fde68a" opacity="0.74"/>
<circle cx="231" cy="147" r="1.8" fill="#fde68a" opacity="0.65"/>
<circle cx="180" cy="433" r="1.8" fill="#fde68a" opacity="0.45"/>
<circle cx="254" cy="348" r="1.4" fill="#fde68a" opacity="0.74"/>
<circle cx="74" cy="212" r="1.0" fill="#fde68a" opacity="0.33"/>
<circle cx="215" cy="505" r="2.2" fill="#fde68a" opacity="0.78"/>
<circle cx="119" cy="55" r="2.2" fill="#fde68a" opacity="0.73"/>
<circle cx="312" cy="507" r="1.0" fill="#fde68a" opacity="0.82"/>
<circle cx="123" cy="411" r="1.0" fill="#fde68a" opacity="0.30"/>
<circle cx="78" cy="416" r="1.0" fill="#fde68a" opacity="0.79"/>
<circle cx="139" cy="560" r="1.8" fill="#fde68a" opacity="0.57"/>
<circle cx="84" cy="66" r="1.4" fill="#fde68a" opacity="0.37"/>
<circle cx="376" cy="123" r="1.0" fill="#fde68a" opacity="0.42"/>
<circle cx="101" cy="183" r="1.0" fill="#fde68a" opacity="0.80"/>
<circle cx="244" cy="270" r="1.4" fill="#fde68a" opacity="0.82"/>
<circle cx="96" cy="326" r="1.0" fill="#fde68a" opacity="0.56"/>
<circle cx="191" cy="489" r="1.8" fill="#fde68a" opacity="0.57"/>
<circle cx="359" cy="399" r="1.0" fill="#fde68a" opacity="0.31"/>
<circle cx="41" cy="293" r="1.0" fill="#fde68a" opacity="0.84"/>
<circle cx="239" cy="159" r="1.8" fill="#fde68a" opacity="0.32"/>
<circle cx="340" cy="393" r="1.8" fill="#fde68a" opacity="0.76"/>
  
    <path d="M55 118 C120 74 300 74 365 118" fill="none" stroke="#67e8f9" stroke-opacity=".28" stroke-width="2"/>
    <path d="M55 542 C120 586 300 586 365 542" fill="none" stroke="#67e8f9" stroke-opacity=".28" stroke-width="2"/>
    <path d="M74 88 L98 88 M322 88 L346 88 M74 572 L98 572 M322 572 L346 572" stroke="#a78bfa" stroke-opacity=".50" stroke-width="2" stroke-linecap="round"/>
    <circle cx="80" cy="100" r="10" fill="none" stroke="#a78bfa" stroke-opacity=".45"/>
    <circle cx="340" cy="100" r="10" fill="none" stroke="#a78bfa" stroke-opacity=".45"/>
    <circle cx="80" cy="560" r="10" fill="none" stroke="#a78bfa" stroke-opacity=".45"/>
    <circle cx="340" cy="560" r="10" fill="none" stroke="#a78bfa" stroke-opacity=".45"/>
    
  
        <g filter="url(#glow)">
          <circle cx="210" cy="288" r="118" fill="#67e8f9" opacity=".11"/>
          <circle cx="210" cy="288" r="91" fill="none" stroke="#67e8f9" stroke-width="3" stroke-opacity=".74"/>
          <circle cx="210" cy="288" r="58" fill="#a78bfa" opacity=".12" stroke="#a78bfa" stroke-width="2" stroke-opacity=".55"/>
          <text x="210" y="310" text-anchor="middle" font-size="96" font-family="Georgia, serif" fill="#67e8f9">⟡</text>
        </g>
        <path d="M132 430 C164 404, 256 404, 288 430" fill="none" stroke="#67e8f9" stroke-width="6" stroke-linecap="round" stroke-opacity=".62"/>
        <path d="M156 452 C184 438, 236 438, 264 452" fill="none" stroke="#a78bfa" stroke-width="3" stroke-linecap="round" stroke-opacity=".56"/>
        <text x="62" y="86" font-size="24" font-family="Georgia, serif" fill="#fff7ed">07</text>
        <text x="358" y="86" text-anchor="end" font-size="24" font-family="Georgia, serif" fill="#fff7ed">07</text>
        
  <rect x="58" y="522" width="304" height="76" rx="18" fill="#020617" opacity=".62" stroke="#facc15" stroke-opacity=".24"/>
  <text x="210" y="558" text-anchor="middle" font-size="20" font-family="Georgia, serif" fill="#fff7ed">The Chariot</text>
  <text x="210" y="586" text-anchor="middle" font-size="9" font-family="Arial, sans-serif" letter-spacing="3" fill="#c4b5fd">ORIGINAL SYMBOLIC DECK</text>
</svg>