<svg xmlns="http://www.w3.org/2000/svg" width="420" height="660" viewBox="0 0 420 660" role="img" aria-label="The Moon">
<defs>
<linearGradient id="bg" x1="0" y1="0" x2="1" y2="1"><stop stop-color="#080b18"/><stop offset=".52" stop-color="#211436"/><stop offset="1" stop-color="#050812"/></linearGradient>
<radialGradient id="a" cx="50%" cy="40%" r="64%"><stop stop-color="#c084fc" stop-opacity=".22"/><stop offset=".55" stop-color="#93c5fd" stop-opacity=".12"/><stop offset="1" stop-color="#000" stop-opacity="0"/></radialGradient>
<filter id="glow"><feDropShadow dx="0" dy="0" stdDeviation="5" flood-color="#c084fc" flood-opacity=".42"/></filter>
</defs>
<rect width="420" height="660" rx="34" fill="url(#bg)"/>
<rect x="18" y="18" width="384" height="624" rx="30" fill="url(#a)" stroke="#d6a24f" stroke-opacity=".82" stroke-width="2.4"/>
<rect x="36" y="36" width="348" height="588" rx="22" fill="none" stroke="#93c5fd" stroke-opacity=".28" stroke-width="1.5"/>
<circle cx="116" cy="340" r="1.5" fill="#fff1b8" opacity="0.43"/>
<circle cx="208" cy="479" r="1.5" fill="#fff1b8" opacity="0.35"/>
<circle cx="282" cy="525" r="1" fill="#fff1b8" opacity="0.51"/>
<circle cx="67" cy="303" r="1" fill="#fff1b8" opacity="0.73"/>
<circle cx="101" cy="513" r="1.5" fill="#fff1b8" opacity="0.53"/>
<circle cx="73" cy="94" r="2" fill="#fff1b8" opacity="0.73"/>
<circle cx="121" cy="354" r="1" fill="#fff1b8" opacity="0.27"/>
<circle cx="290" cy="277" r="1.5" fill="#fff1b8" opacity="0.64"/>
<circle cx="314" cy="444" r="2" fill="#fff1b8" opacity="0.66"/>
<circle cx="248" cy="526" r="2" fill="#fff1b8" opacity="0.72"/>
<circle cx="100" cy="273" r="1.2" fill="#fff1b8" opacity="0.52"/>
<circle cx="144" cy="438" r="2" fill="#fff1b8" opacity="0.33"/>
<circle cx="188" cy="493" r="1" fill="#fff1b8" opacity="0.75"/>
<circle cx="258" cy="338" r="1.5" fill="#fff1b8" opacity="0.27"/>
<circle cx="99" cy="444" r="2" fill="#fff1b8" opacity="0.38"/>
<circle cx="199" cy="437" r="1" fill="#fff1b8" opacity="0.64"/>
<circle cx="172" cy="74" r="2" fill="#fff1b8" opacity="0.66"/>
<circle cx="122" cy="164" r="1" fill="#fff1b8" opacity="0.26"/>
<circle cx="238" cy="120" r="1" fill="#fff1b8" opacity="0.59"/>
<circle cx="353" cy="318" r="1.2" fill="#fff1b8" opacity="0.56"/>
<circle cx="349" cy="126" r="1.2" fill="#fff1b8" opacity="0.50"/>
<circle cx="194" cy="345" r="1.2" fill="#fff1b8" opacity="0.74"/>
<circle cx="301" cy="181" r="1.5" fill="#fff1b8" opacity="0.77"/>
<circle cx="280" cy="69" r="2" fill="#fff1b8" opacity="0.44"/>
<circle cx="269" cy="225" r="2" fill="#fff1b8" opacity="0.32"/>
<circle cx="53" cy="376" r="1.2" fill="#fff1b8" opacity="0.66"/>
<circle cx="337" cy="254" r="1.5" fill="#fff1b8" opacity="0.52"/>
<circle cx="145" cy="59" r="2" fill="#fff1b8" opacity="0.34"/>
<circle cx="235" cy="397" r="1.2" fill="#fff1b8" opacity="0.27"/>
<circle cx="306" cy="374" r="1" fill="#fff1b8" opacity="0.46"/>
<circle cx="286" cy="176" r="1" fill="#fff1b8" opacity="0.35"/>
<circle cx="322" cy="290" r="1.2" fill="#fff1b8" opacity="0.27"/>
<circle cx="189" cy="247" r="2" fill="#fff1b8" opacity="0.53"/>
<circle cx="136" cy="242" r="2" fill="#fff1b8" opacity="0.31"/>
<circle cx="251" cy="339" r="1" fill="#fff1b8" opacity="0.49"/>
<circle cx="255" cy="300" r="1.2" fill="#fff1b8" opacity="0.68"/>
<circle cx="45" cy="276" r="1" fill="#fff1b8" opacity="0.43"/>
<circle cx="163" cy="210" r="2" fill="#fff1b8" opacity="0.59"/>
<path d="M70 104 C132 68 288 68 350 104 M70 556 C132 592 288 592 350 556" fill="none" stroke="#d6a24f" stroke-opacity=".28" stroke-width="2"/>
<text x="64" y="78" fill="#fff1b8" font-size="22" font-family="Georgia,serif">18</text>
<text x="356" y="78" text-anchor="end" fill="#fff1b8" font-size="22" font-family="Georgia,serif">18</text>
<g filter="url(#glow)">
    <circle cx="210" cy="284" r="98" fill="#c084fc" opacity=".13"/>
    <circle cx="210" cy="284" r="70" fill="none" stroke="#c084fc" stroke-width="3" opacity=".72"/>
    <text x="210" y="306" text-anchor="middle" font-size="84" fill="#c084fc" font-family="Georgia,serif">✦</text>
    <path d="M136 432 C170 398 250 398 284 432" fill="none" stroke="#93c5fd" stroke-width="6" stroke-linecap="round" opacity=".68"/>
    </g>
<rect x="58" y="530" width="304" height="74" rx="17" fill="#050812" opacity=".74" stroke="#d6a24f" stroke-opacity=".30"/>
<text x="210" y="566" text-anchor="middle" fill="#fff7df" font-size="20" font-family="Georgia,serif">The Moon</text>
<text x="210" y="592" text-anchor="middle" fill="#c9b27a" font-size="9" font-family="Arial" letter-spacing="3">FATECARD ORIGINAL</text>
</svg>