<svg xmlns="http://www.w3.org/2000/svg" width="420" height="660" viewBox="0 0 420 660" role="img" aria-label="Strength">
<defs>
<linearGradient id="bg" x1="0" y1="0" x2="1" y2="1"><stop stop-color="#080b18"/><stop offset=".52" stop-color="#211436"/><stop offset="1" stop-color="#050812"/></linearGradient>
<radialGradient id="a" cx="50%" cy="40%" r="64%"><stop stop-color="#f59e0b" stop-opacity=".22"/><stop offset=".55" stop-color="#fecaca" stop-opacity=".12"/><stop offset="1" stop-color="#000" stop-opacity="0"/></radialGradient>
<filter id="glow"><feDropShadow dx="0" dy="0" stdDeviation="5" flood-color="#f59e0b" flood-opacity=".42"/></filter>
</defs>
<rect width="420" height="660" rx="34" fill="url(#bg)"/>
<rect x="18" y="18" width="384" height="624" rx="30" fill="url(#a)" stroke="#d6a24f" stroke-opacity=".82" stroke-width="2.4"/>
<rect x="36" y="36" width="348" height="588" rx="22" fill="none" stroke="#fecaca" stroke-opacity=".28" stroke-width="1.5"/>
<circle cx="176" cy="184" r="1.2" fill="#fff1b8" opacity="0.75"/>
<circle cx="359" cy="418" r="1.5" fill="#fff1b8" opacity="0.67"/>
<circle cx="133" cy="395" r="2" fill="#fff1b8" opacity="0.67"/>
<circle cx="147" cy="110" r="2" fill="#fff1b8" opacity="0.40"/>
<circle cx="76" cy="358" r="1" fill="#fff1b8" opacity="0.38"/>
<circle cx="152" cy="368" r="1.5" fill="#fff1b8" opacity="0.64"/>
<circle cx="356" cy="93" r="1.5" fill="#fff1b8" opacity="0.42"/>
<circle cx="91" cy="429" r="1.5" fill="#fff1b8" opacity="0.67"/>
<circle cx="350" cy="318" r="1.5" fill="#fff1b8" opacity="0.53"/>
<circle cx="304" cy="325" r="1.5" fill="#fff1b8" opacity="0.56"/>
<circle cx="351" cy="308" r="1" fill="#fff1b8" opacity="0.66"/>
<circle cx="335" cy="558" r="1.2" fill="#fff1b8" opacity="0.44"/>
<circle cx="195" cy="574" r="1.2" fill="#fff1b8" opacity="0.61"/>
<circle cx="356" cy="311" r="1.2" fill="#fff1b8" opacity="0.27"/>
<circle cx="278" cy="362" r="1.5" fill="#fff1b8" opacity="0.54"/>
<circle cx="159" cy="449" r="1.2" fill="#fff1b8" opacity="0.66"/>
<circle cx="133" cy="124" r="1.2" fill="#fff1b8" opacity="0.59"/>
<circle cx="66" cy="574" r="1" fill="#fff1b8" opacity="0.57"/>
<circle cx="90" cy="417" r="2" fill="#fff1b8" opacity="0.74"/>
<circle cx="171" cy="560" r="2" fill="#fff1b8" opacity="0.36"/>
<circle cx="337" cy="585" r="1.5" fill="#fff1b8" opacity="0.72"/>
<circle cx="104" cy="172" r="1.5" fill="#fff1b8" opacity="0.50"/>
<circle cx="109" cy="583" r="1.5" fill="#fff1b8" opacity="0.67"/>
<circle cx="323" cy="534" r="2" fill="#fff1b8" opacity="0.58"/>
<circle cx="346" cy="456" r="1" fill="#fff1b8" opacity="0.64"/>
<circle cx="263" cy="208" r="2" fill="#fff1b8" opacity="0.47"/>
<circle cx="243" cy="69" r="1.2" fill="#fff1b8" opacity="0.45"/>
<circle cx="239" cy="436" r="1" fill="#fff1b8" opacity="0.48"/>
<circle cx="239" cy="268" r="2" fill="#fff1b8" opacity="0.58"/>
<circle cx="122" cy="187" r="1.5" fill="#fff1b8" opacity="0.51"/>
<circle cx="185" cy="362" r="1.2" fill="#fff1b8" opacity="0.33"/>
<circle cx="328" cy="62" r="1.2" fill="#fff1b8" opacity="0.78"/>
<circle cx="175" cy="453" r="2" fill="#fff1b8" opacity="0.66"/>
<circle cx="127" cy="489" r="1.2" fill="#fff1b8" opacity="0.39"/>
<circle cx="247" cy="185" r="1.2" fill="#fff1b8" opacity="0.70"/>
<circle cx="171" cy="104" r="1" fill="#fff1b8" opacity="0.41"/>
<circle cx="235" cy="383" r="2" fill="#fff1b8" opacity="0.31"/>
<circle cx="269" cy="438" r="1" fill="#fff1b8" opacity="0.76"/>
<path d="M70 104 C132 68 288 68 350 104 M70 556 C132 592 288 592 350 556" fill="none" stroke="#d6a24f" stroke-opacity=".28" stroke-width="2"/>
<text x="64" y="78" fill="#fff1b8" font-size="22" font-family="Georgia,serif">08</text>
<text x="356" y="78" text-anchor="end" fill="#fff1b8" font-size="22" font-family="Georgia,serif">08</text>
<g filter="url(#glow)">
    <circle cx="210" cy="284" r="98" fill="#f59e0b" opacity=".13"/>
    <circle cx="210" cy="284" r="70" fill="none" stroke="#f59e0b" stroke-width="3" opacity=".72"/>
    <text x="210" y="306" text-anchor="middle" font-size="84" fill="#f59e0b" font-family="Georgia,serif">✦</text>
    <path d="M136 432 C170 398 250 398 284 432" fill="none" stroke="#fecaca" stroke-width="6" stroke-linecap="round" opacity=".68"/>
    </g>
<rect x="58" y="530" width="304" height="74" rx="17" fill="#050812" opacity=".74" stroke="#d6a24f" stroke-opacity=".30"/>
<text x="210" y="566" text-anchor="middle" fill="#fff7df" font-size="20" font-family="Georgia,serif">Strength</text>
<text x="210" y="592" text-anchor="middle" fill="#c9b27a" font-size="9" font-family="Arial" letter-spacing="3">FATECARD ORIGINAL</text>
</svg>