<svg xmlns="http://www.w3.org/2000/svg" width="420" height="660" viewBox="0 0 420 660" role="img" aria-label="The Sun">
<defs>
<linearGradient id="bg" x1="0" y1="0" x2="1" y2="1"><stop stop-color="#080b18"/><stop offset=".52" stop-color="#211436"/><stop offset="1" stop-color="#050812"/></linearGradient>
<radialGradient id="a" cx="50%" cy="40%" r="64%"><stop stop-color="#fcd34d" stop-opacity=".22"/><stop offset=".55" stop-color="#fb923c" stop-opacity=".12"/><stop offset="1" stop-color="#000" stop-opacity="0"/></radialGradient>
<filter id="glow"><feDropShadow dx="0" dy="0" stdDeviation="5" flood-color="#fcd34d" flood-opacity=".42"/></filter>
</defs>
<rect width="420" height="660" rx="34" fill="url(#bg)"/>
<rect x="18" y="18" width="384" height="624" rx="30" fill="url(#a)" stroke="#d6a24f" stroke-opacity=".82" stroke-width="2.4"/>
<rect x="36" y="36" width="348" height="588" rx="22" fill="none" stroke="#fb923c" stroke-opacity=".28" stroke-width="1.5"/>
<circle cx="91" cy="551" r="1" fill="#fff1b8" opacity="0.27"/>
<circle cx="364" cy="494" r="1.5" fill="#fff1b8" opacity="0.68"/>
<circle cx="156" cy="528" r="1" fill="#fff1b8" opacity="0.58"/>
<circle cx="165" cy="371" r="1.2" fill="#fff1b8" opacity="0.33"/>
<circle cx="319" cy="102" r="1.5" fill="#fff1b8" opacity="0.59"/>
<circle cx="120" cy="446" r="1.5" fill="#fff1b8" opacity="0.31"/>
<circle cx="219" cy="476" r="1.5" fill="#fff1b8" opacity="0.55"/>
<circle cx="172" cy="231" r="1" fill="#fff1b8" opacity="0.38"/>
<circle cx="53" cy="154" r="2" fill="#fff1b8" opacity="0.63"/>
<circle cx="287" cy="78" r="2" fill="#fff1b8" opacity="0.59"/>
<circle cx="304" cy="276" r="1" fill="#fff1b8" opacity="0.42"/>
<circle cx="372" cy="276" r="1" fill="#fff1b8" opacity="0.39"/>
<circle cx="69" cy="459" r="2" fill="#fff1b8" opacity="0.39"/>
<circle cx="268" cy="483" r="2" fill="#fff1b8" opacity="0.48"/>
<circle cx="96" cy="265" r="1.5" fill="#fff1b8" opacity="0.29"/>
<circle cx="295" cy="494" r="1" fill="#fff1b8" opacity="0.65"/>
<circle cx="300" cy="267" r="1" fill="#fff1b8" opacity="0.38"/>
<circle cx="336" cy="128" r="1.5" fill="#fff1b8" opacity="0.56"/>
<circle cx="341" cy="127" r="1.5" fill="#fff1b8" opacity="0.55"/>
<circle cx="49" cy="146" r="1.5" fill="#fff1b8" opacity="0.33"/>
<circle cx="175" cy="396" r="1.2" fill="#fff1b8" opacity="0.69"/>
<circle cx="289" cy="397" r="1" fill="#fff1b8" opacity="0.76"/>
<circle cx="217" cy="432" r="1.5" fill="#fff1b8" opacity="0.75"/>
<circle cx="291" cy="290" r="1.5" fill="#fff1b8" opacity="0.43"/>
<circle cx="265" cy="406" r="2" fill="#fff1b8" opacity="0.68"/>
<circle cx="353" cy="588" r="1.5" fill="#fff1b8" opacity="0.72"/>
<circle cx="189" cy="356" r="1.2" fill="#fff1b8" opacity="0.63"/>
<circle cx="295" cy="366" r="2" fill="#fff1b8" opacity="0.75"/>
<circle cx="88" cy="355" r="1" fill="#fff1b8" opacity="0.46"/>
<circle cx="287" cy="305" r="1.5" fill="#fff1b8" opacity="0.27"/>
<circle cx="227" cy="67" r="2" fill="#fff1b8" opacity="0.52"/>
<circle cx="335" cy="112" r="1.2" fill="#fff1b8" opacity="0.35"/>
<circle cx="93" cy="83" r="1" fill="#fff1b8" opacity="0.56"/>
<circle cx="208" cy="178" r="1.2" fill="#fff1b8" opacity="0.70"/>
<circle cx="377" cy="229" r="1.5" fill="#fff1b8" opacity="0.67"/>
<circle cx="143" cy="270" r="1.2" fill="#fff1b8" opacity="0.28"/>
<circle cx="301" cy="360" r="1.2" fill="#fff1b8" opacity="0.55"/>
<circle cx="206" cy="279" r="1.5" fill="#fff1b8" opacity="0.42"/>
<path d="M70 104 C132 68 288 68 350 104 M70 556 C132 592 288 592 350 556" fill="none" stroke="#d6a24f" stroke-opacity=".28" stroke-width="2"/>
<text x="64" y="78" fill="#fff1b8" font-size="22" font-family="Georgia,serif">19</text>
<text x="356" y="78" text-anchor="end" fill="#fff1b8" font-size="22" font-family="Georgia,serif">19</text>
<g filter="url(#glow)">
    <circle cx="210" cy="284" r="98" fill="#fcd34d" opacity=".13"/>
    <circle cx="210" cy="284" r="70" fill="none" stroke="#fcd34d" stroke-width="3" opacity=".72"/>
    <text x="210" y="306" text-anchor="middle" font-size="84" fill="#fcd34d" font-family="Georgia,serif">✦</text>
    <path d="M136 432 C170 398 250 398 284 432" fill="none" stroke="#fb923c" stroke-width="6" stroke-linecap="round" opacity=".68"/>
    </g>
<rect x="58" y="530" width="304" height="74" rx="17" fill="#050812" opacity=".74" stroke="#d6a24f" stroke-opacity=".30"/>
<text x="210" y="566" text-anchor="middle" fill="#fff7df" font-size="20" font-family="Georgia,serif">The Sun</text>
<text x="210" y="592" text-anchor="middle" fill="#c9b27a" font-size="9" font-family="Arial" letter-spacing="3">FATECARD ORIGINAL</text>
</svg>