<svg xmlns="http://www.w3.org/2000/svg" width="420" height="660" viewBox="0 0 420 660" role="img" aria-label="The High Priestess">
  <defs>
    <linearGradient id="bg" x1="0" y1="0" x2="1" y2="1">
      <stop offset="0%" stop-color="#050816"/>
      <stop offset="45%" stop-color="#17102d"/>
      <stop offset="100%" stop-color="#020617"/>
    </linearGradient>
    <radialGradient id="aura" cx="50%" cy="38%" r="68%">
      <stop offset="0%" stop-color="#facc15" stop-opacity=".18"/>
      <stop offset="52%" stop-color="#a78bfa" stop-opacity=".10"/>
      <stop offset="100%" stop-color="#020617" stop-opacity="0"/>
    </radialGradient>
    <filter id="glow" x="-30%" y="-30%" width="160%" height="160%">
      <feDropShadow dx="0" dy="0" stdDeviation="6" flood-color="#93c5fd" flood-opacity=".42"/>
    </filter>
  </defs>
  <rect width="420" height="660" rx="34" fill="url(#bg)"/>
  <rect x="20" y="20" width="380" height="620" rx="30" fill="url(#aura)" stroke="#facc15" stroke-opacity=".54" stroke-width="2"/>
  <rect x="35" y="35" width="350" height="590" rx="22" fill="none" stroke="#a78bfa" stroke-opacity=".18" stroke-width="1.5"/>
  <circle cx="316" cy="140" r="1.0" fill="#fde68a" opacity="0.30"/>
<circle cx="227" cy="244" r="1.0" fill="#fde68a" opacity="0.47"/>
<circle cx="210" cy="576" r="1.4" fill="#fde68a" opacity="0.55"/>
<circle cx="79" cy="491" r="1.0" fill="#fde68a" opacity="0.37"/>
<circle cx="120" cy="337" r="2.2" fill="#fde68a" opacity="0.30"/>
<circle cx="50" cy="313" r="1.0" fill="#fde68a" opacity="0.52"/>
<circle cx="280" cy="571" r="1.4" fill="#fde68a" opacity="0.67"/>
<circle cx="169" cy="306" r="1.4" fill="#fde68a" opacity="0.28"/>
<circle cx="309" cy="485" r="1.0" fill="#fde68a" opacity="0.39"/>
<circle cx="375" cy="227" r="1.0" fill="#fde68a" opacity="0.46"/>
<circle cx="327" cy="121" r="1.4" fill="#fde68a" opacity="0.54"/>
<circle cx="133" cy="181" r="2.2" fill="#fde68a" opacity="0.52"/>
<circle cx="244" cy="145" r="1.8" fill="#fde68a" opacity="0.79"/>
<circle cx="121" cy="149" r="2.2" fill="#fde68a" opacity="0.72"/>
<circle cx="147" cy="515" r="1.0" fill="#fde68a" opacity="0.72"/>
<circle cx="181" cy="383" r="1.0" fill="#fde68a" opacity="0.82"/>
<circle cx="110" cy="155" r="1.0" fill="#fde68a" opacity="0.72"/>
<circle cx="314" cy="168" r="1.0" fill="#fde68a" opacity="0.47"/>
<circle cx="54" cy="182" r="1.8" fill="#fde68a" opacity="0.72"/>
<circle cx="247" cy="243" r="1.4" fill="#fde68a" opacity="0.64"/>
<circle cx="172" cy="91" r="2.2" fill="#fde68a" opacity="0.44"/>
<circle cx="224" cy="296" r="1.8" fill="#fde68a" opacity="0.62"/>
<circle cx="132" cy="472" r="1.8" fill="#fde68a" opacity="0.35"/>
<circle cx="65" cy="299" r="1.4" fill="#fde68a" opacity="0.83"/>
<circle cx="255" cy="445" r="1.8" fill="#fde68a" opacity="0.54"/>
<circle cx="94" cy="454" r="2.2" fill="#fde68a" opacity="0.42"/>
<circle cx="239" cy="545" r="1.8" fill="#fde68a" opacity="0.58"/>
<circle cx="78" cy="307" r="1.4" fill="#fde68a" opacity="0.67"/>
<circle cx="80" cy="278" r="1.0" fill="#fde68a" opacity="0.83"/>
<circle cx="261" cy="277" r="1.8" fill="#fde68a" opacity="0.67"/>
<circle cx="67" cy="513" r="1.8" fill="#fde68a" opacity="0.31"/>
<circle cx="90" cy="271" r="1.8" fill="#fde68a" opacity="0.47"/>
<circle cx="198" cy="495" r="1.0" fill="#fde68a" opacity="0.45"/>
<circle cx="266" cy="486" r="1.8" fill="#fde68a" opacity="0.67"/>
  
    <path d="M55 118 C120 74 300 74 365 118" fill="none" stroke="#93c5fd" stroke-opacity=".28" stroke-width="2"/>
    <path d="M55 542 C120 586 300 586 365 542" fill="none" stroke="#93c5fd" stroke-opacity=".28" stroke-width="2"/>
    <path d="M74 88 L98 88 M322 88 L346 88 M74 572 L98 572 M322 572 L346 572" stroke="#e0e7ff" stroke-opacity=".50" stroke-width="2" stroke-linecap="round"/>
    <circle cx="80" cy="100" r="10" fill="none" stroke="#e0e7ff" stroke-opacity=".45"/>
    <circle cx="340" cy="100" r="10" fill="none" stroke="#e0e7ff" stroke-opacity=".45"/>
    <circle cx="80" cy="560" r="10" fill="none" stroke="#e0e7ff" stroke-opacity=".45"/>
    <circle cx="340" cy="560" r="10" fill="none" stroke="#e0e7ff" stroke-opacity=".45"/>
    
  
        <g filter="url(#glow)">
          <circle cx="210" cy="288" r="118" fill="#93c5fd" opacity=".11"/>
          <circle cx="210" cy="288" r="91" fill="none" stroke="#93c5fd" stroke-width="3" stroke-opacity=".74"/>
          <circle cx="210" cy="288" r="58" fill="#e0e7ff" opacity=".12" stroke="#e0e7ff" stroke-width="2" stroke-opacity=".55"/>
          <text x="210" y="310" text-anchor="middle" font-size="96" font-family="Georgia, serif" fill="#93c5fd">☾</text>
        </g>
        <path d="M132 430 C164 404, 256 404, 288 430" fill="none" stroke="#93c5fd" stroke-width="6" stroke-linecap="round" stroke-opacity=".62"/>
        <path d="M156 452 C184 438, 236 438, 264 452" fill="none" stroke="#e0e7ff" stroke-width="3" stroke-linecap="round" stroke-opacity=".56"/>
        <text x="62" y="86" font-size="24" font-family="Georgia, serif" fill="#fff7ed">02</text>
        <text x="358" y="86" text-anchor="end" font-size="24" font-family="Georgia, serif" fill="#fff7ed">02</text>
        
  <rect x="58" y="522" width="304" height="76" rx="18" fill="#020617" opacity=".62" stroke="#facc15" stroke-opacity=".24"/>
  <text x="210" y="558" text-anchor="middle" font-size="20" font-family="Georgia, serif" fill="#fff7ed">The High Priestess</text>
  <text x="210" y="586" text-anchor="middle" font-size="9" font-family="Arial, sans-serif" letter-spacing="3" fill="#c4b5fd">ORIGINAL SYMBOLIC DECK</text>
</svg>