<svg xmlns="http://www.w3.org/2000/svg" width="420" height="660" viewBox="0 0 420 660" role="img" aria-label="The Tower">
<defs>
<linearGradient id="bg" x1="0" y1="0" x2="1" y2="1"><stop stop-color="#080b18"/><stop offset=".52" stop-color="#211436"/><stop offset="1" stop-color="#050812"/></linearGradient>
<radialGradient id="a" cx="50%" cy="40%" r="64%"><stop stop-color="#fb923c" stop-opacity=".22"/><stop offset=".55" stop-color="#fef3c7" stop-opacity=".12"/><stop offset="1" stop-color="#000" stop-opacity="0"/></radialGradient>
<filter id="glow"><feDropShadow dx="0" dy="0" stdDeviation="5" flood-color="#fb923c" flood-opacity=".42"/></filter>
</defs>
<rect width="420" height="660" rx="34" fill="url(#bg)"/>
<rect x="18" y="18" width="384" height="624" rx="30" fill="url(#a)" stroke="#d6a24f" stroke-opacity=".82" stroke-width="2.4"/>
<rect x="36" y="36" width="348" height="588" rx="22" fill="none" stroke="#fef3c7" stroke-opacity=".28" stroke-width="1.5"/>
<circle cx="135" cy="240" r="1" fill="#fff1b8" opacity="0.37"/>
<circle cx="266" cy="509" r="2" fill="#fff1b8" opacity="0.40"/>
<circle cx="87" cy="475" r="1.2" fill="#fff1b8" opacity="0.30"/>
<circle cx="241" cy="343" r="1" fill="#fff1b8" opacity="0.38"/>
<circle cx="238" cy="583" r="2" fill="#fff1b8" opacity="0.53"/>
<circle cx="257" cy="239" r="1" fill="#fff1b8" opacity="0.71"/>
<circle cx="60" cy="351" r="1" fill="#fff1b8" opacity="0.60"/>
<circle cx="373" cy="579" r="1.2" fill="#fff1b8" opacity="0.62"/>
<circle cx="202" cy="561" r="1" fill="#fff1b8" opacity="0.41"/>
<circle cx="273" cy="439" r="2" fill="#fff1b8" opacity="0.37"/>
<circle cx="351" cy="545" r="1" fill="#fff1b8" opacity="0.27"/>
<circle cx="360" cy="390" r="1.2" fill="#fff1b8" opacity="0.30"/>
<circle cx="108" cy="224" r="2" fill="#fff1b8" opacity="0.41"/>
<circle cx="71" cy="411" r="2" fill="#fff1b8" opacity="0.61"/>
<circle cx="82" cy="456" r="1" fill="#fff1b8" opacity="0.62"/>
<circle cx="336" cy="574" r="1.2" fill="#fff1b8" opacity="0.43"/>
<circle cx="276" cy="517" r="1.5" fill="#fff1b8" opacity="0.26"/>
<circle cx="366" cy="157" r="1.5" fill="#fff1b8" opacity="0.35"/>
<circle cx="140" cy="290" r="1.2" fill="#fff1b8" opacity="0.49"/>
<circle cx="182" cy="174" r="1.2" fill="#fff1b8" opacity="0.39"/>
<circle cx="156" cy="321" r="1.5" fill="#fff1b8" opacity="0.60"/>
<circle cx="357" cy="557" r="1" fill="#fff1b8" opacity="0.47"/>
<circle cx="349" cy="322" r="1.5" fill="#fff1b8" opacity="0.38"/>
<circle cx="107" cy="153" r="1.2" fill="#fff1b8" opacity="0.54"/>
<circle cx="179" cy="214" r="1.5" fill="#fff1b8" opacity="0.57"/>
<circle cx="88" cy="109" r="2" fill="#fff1b8" opacity="0.44"/>
<circle cx="287" cy="128" r="1.2" fill="#fff1b8" opacity="0.40"/>
<circle cx="138" cy="123" r="1.2" fill="#fff1b8" opacity="0.42"/>
<circle cx="234" cy="237" r="2" fill="#fff1b8" opacity="0.72"/>
<circle cx="197" cy="217" r="1.5" fill="#fff1b8" opacity="0.37"/>
<circle cx="216" cy="168" r="1.5" fill="#fff1b8" opacity="0.59"/>
<circle cx="365" cy="294" r="1.5" fill="#fff1b8" opacity="0.34"/>
<circle cx="311" cy="556" r="1.2" fill="#fff1b8" opacity="0.35"/>
<circle cx="186" cy="216" r="1" fill="#fff1b8" opacity="0.65"/>
<circle cx="56" cy="468" r="2" fill="#fff1b8" opacity="0.64"/>
<circle cx="169" cy="469" r="1.5" fill="#fff1b8" opacity="0.60"/>
<circle cx="191" cy="469" r="1" fill="#fff1b8" opacity="0.73"/>
<circle cx="163" cy="526" r="1.5" fill="#fff1b8" opacity="0.40"/>
<path d="M70 104 C132 68 288 68 350 104 M70 556 C132 592 288 592 350 556" fill="none" stroke="#d6a24f" stroke-opacity=".28" stroke-width="2"/>
<text x="64" y="78" fill="#fff1b8" font-size="22" font-family="Georgia,serif">16</text>
<text x="356" y="78" text-anchor="end" fill="#fff1b8" font-size="22" font-family="Georgia,serif">16</text>
<g filter="url(#glow)">
    <circle cx="210" cy="284" r="98" fill="#fb923c" opacity=".13"/>
    <circle cx="210" cy="284" r="70" fill="none" stroke="#fb923c" stroke-width="3" opacity=".72"/>
    <text x="210" y="306" text-anchor="middle" font-size="84" fill="#fb923c" font-family="Georgia,serif">✦</text>
    <path d="M136 432 C170 398 250 398 284 432" fill="none" stroke="#fef3c7" stroke-width="6" stroke-linecap="round" opacity=".68"/>
    </g>
<rect x="58" y="530" width="304" height="74" rx="17" fill="#050812" opacity=".74" stroke="#d6a24f" stroke-opacity=".30"/>
<text x="210" y="566" text-anchor="middle" fill="#fff7df" font-size="20" font-family="Georgia,serif">The Tower</text>
<text x="210" y="592" text-anchor="middle" fill="#c9b27a" font-size="9" font-family="Arial" letter-spacing="3">FATECARD ORIGINAL</text>
</svg>