<svg xmlns="http://www.w3.org/2000/svg" width="420" height="660" viewBox="0 0 420 660" role="img" aria-label="Justice">
<defs>
  <linearGradient id="bg" x1="0" y1="0" x2="1" y2="1"><stop offset="0%" stop-color="#061021"/><stop offset="44%" stop-color="#24143b"/><stop offset="100%" stop-color="#050816"/></linearGradient>
  <radialGradient id="halo" cx="50%" cy="40%" r="62%"><stop offset="0%" stop-color="#facc15" stop-opacity=".20"/><stop offset="52%" stop-color="#a78bfa" stop-opacity=".12"/><stop offset="100%" stop-color="#000" stop-opacity="0"/></radialGradient>
  <filter id="glow"><feGaussianBlur stdDeviation="3"/></filter>
</defs>
<rect width="420" height="660" rx="34" fill="url(#bg)"/>
<rect x="18" y="18" width="384" height="624" rx="28" fill="none" stroke="#d6a84f" stroke-width="3" stroke-opacity=".85"/>
<rect x="32" y="32" width="356" height="596" rx="22" fill="url(#halo)"/>
<g fill="none" stroke="#d6a84f" stroke-opacity=".34">
  <path d="M52 82 C96 48,142 44,184 58"/><path d="M236 58 C278 44,324 48,368 82"/>
  <path d="M52 578 C96 612,142 616,184 602"/><path d="M236 602 C278 616,324 612,368 578"/>
  <path d="M70 110 H350 M70 550 H350"/>
</g>
<text x="62" y="84" font-size="25" fill="#fff7ed" font-family="Georgia,serif">11</text>
<text x="358" y="84" text-anchor="end" font-size="25" fill="#fff7ed" font-family="Georgia,serif">11</text>
<g>
        <path d="M210 130 V420" stroke="#67e8f9" stroke-width="7"/>
        <path d="M142 206 H278" stroke="#67e8f9" stroke-width="6"/>
        <path d="M152 206 L120 294 H184 Z" fill="#1e293b" stroke="#67e8f9" stroke-width="4"/>
        <path d="M268 206 L236 294 H300 Z" fill="#1e293b" stroke="#67e8f9" stroke-width="4"/>
        <path d="M178 440 H242" stroke="#67e8f9" stroke-width="8"/>
        <path d="M266 130 L226 240 L278 240 Z" fill="#e0f2fe" opacity=".72" stroke="#67e8f9" stroke-width="3"/></g>
<g opacity=".7"><circle cx="88" cy="160" r="2" fill="#fde68a"/><circle cx="336" cy="180" r="2" fill="#c4b5fd"/><circle cx="330" cy="492" r="2.3" fill="#fde68a"/><circle cx="92" cy="488" r="2" fill="#c4b5fd"/></g>
<rect x="54" y="528" width="312" height="74" rx="17" fill="#020617" opacity=".62" stroke="#d6a84f" stroke-opacity=".30"/>
<text x="210" y="566" text-anchor="middle" font-size="20" font-family="Georgia,serif" fill="#fff7ed">Justice</text>
<text x="210" y="592" text-anchor="middle" font-size="9" font-family="Arial,sans-serif" letter-spacing="3" fill="#c4b5fd">FATECARD ORIGINAL</text>
</svg>