<svg xmlns="http://www.w3.org/2000/svg" width="420" height="660" viewBox="0 0 420 660" role="img" aria-label="The Tower">
  <defs>
    <linearGradient id="bg" x1="0" y1="0" x2="1" y2="1">
      <stop offset="0%" stop-color="#050816"/>
      <stop offset="45%" stop-color="#17102d"/>
      <stop offset="100%" stop-color="#020617"/>
    </linearGradient>
    <radialGradient id="aura" cx="50%" cy="38%" r="68%">
      <stop offset="0%" stop-color="#facc15" stop-opacity=".18"/>
      <stop offset="52%" stop-color="#a78bfa" stop-opacity=".10"/>
      <stop offset="100%" stop-color="#020617" stop-opacity="0"/>
    </radialGradient>
    <filter id="glow" x="-30%" y="-30%" width="160%" height="160%">
      <feDropShadow dx="0" dy="0" stdDeviation="6" flood-color="#fb923c" flood-opacity=".42"/>
    </filter>
  </defs>
  <rect width="420" height="660" rx="34" fill="url(#bg)"/>
  <rect x="20" y="20" width="380" height="620" rx="30" fill="url(#aura)" stroke="#facc15" stroke-opacity=".54" stroke-width="2"/>
  <rect x="35" y="35" width="350" height="590" rx="22" fill="none" stroke="#a78bfa" stroke-opacity=".18" stroke-width="1.5"/>
  <circle cx="220" cy="321" r="1.8" fill="#fde68a" opacity="0.42"/>
<circle cx="230" cy="417" r="1.8" fill="#fde68a" opacity="0.60"/>
<circle cx="113" cy="430" r="1.0" fill="#fde68a" opacity="0.32"/>
<circle cx="45" cy="490" r="1.4" fill="#fde68a" opacity="0.42"/>
<circle cx="225" cy="468" r="1.0" fill="#fde68a" opacity="0.36"/>
<circle cx="368" cy="581" r="1.4" fill="#fde68a" opacity="0.32"/>
<circle cx="297" cy="114" r="1.0" fill="#fde68a" opacity="0.69"/>
<circle cx="342" cy="107" r="2.2" fill="#fde68a" opacity="0.41"/>
<circle cx="215" cy="575" r="2.2" fill="#fde68a" opacity="0.73"/>
<circle cx="293" cy="463" r="1.0" fill="#fde68a" opacity="0.49"/>
<circle cx="133" cy="461" r="1.0" fill="#fde68a" opacity="0.82"/>
<circle cx="344" cy="165" r="1.0" fill="#fde68a" opacity="0.33"/>
<circle cx="271" cy="489" r="1.0" fill="#fde68a" opacity="0.33"/>
<circle cx="196" cy="402" r="2.2" fill="#fde68a" opacity="0.54"/>
<circle cx="100" cy="63" r="1.8" fill="#fde68a" opacity="0.73"/>
<circle cx="98" cy="304" r="1.0" fill="#fde68a" opacity="0.47"/>
<circle cx="254" cy="408" r="1.0" fill="#fde68a" opacity="0.55"/>
<circle cx="136" cy="290" r="1.0" fill="#fde68a" opacity="0.36"/>
<circle cx="324" cy="199" r="1.0" fill="#fde68a" opacity="0.72"/>
<circle cx="57" cy="228" r="2.2" fill="#fde68a" opacity="0.30"/>
<circle cx="223" cy="66" r="1.0" fill="#fde68a" opacity="0.43"/>
<circle cx="42" cy="220" r="1.8" fill="#fde68a" opacity="0.38"/>
<circle cx="333" cy="154" r="1.0" fill="#fde68a" opacity="0.55"/>
<circle cx="80" cy="370" r="2.2" fill="#fde68a" opacity="0.68"/>
<circle cx="271" cy="300" r="1.4" fill="#fde68a" opacity="0.61"/>
<circle cx="132" cy="368" r="1.0" fill="#fde68a" opacity="0.63"/>
<circle cx="69" cy="104" r="1.4" fill="#fde68a" opacity="0.37"/>
<circle cx="268" cy="560" r="1.8" fill="#fde68a" opacity="0.82"/>
<circle cx="239" cy="107" r="1.0" fill="#fde68a" opacity="0.49"/>
<circle cx="218" cy="236" r="2.2" fill="#fde68a" opacity="0.67"/>
<circle cx="170" cy="320" r="1.0" fill="#fde68a" opacity="0.34"/>
<circle cx="327" cy="303" r="2.2" fill="#fde68a" opacity="0.43"/>
<circle cx="284" cy="564" r="1.8" fill="#fde68a" opacity="0.42"/>
<circle cx="321" cy="198" r="1.4" fill="#fde68a" opacity="0.74"/>
  
    <path d="M55 118 C120 74 300 74 365 118" fill="none" stroke="#fb923c" stroke-opacity=".28" stroke-width="2"/>
    <path d="M55 542 C120 586 300 586 365 542" fill="none" stroke="#fb923c" stroke-opacity=".28" stroke-width="2"/>
    <path d="M74 88 L98 88 M322 88 L346 88 M74 572 L98 572 M322 572 L346 572" stroke="#fef3c7" stroke-opacity=".50" stroke-width="2" stroke-linecap="round"/>
    <circle cx="80" cy="100" r="10" fill="none" stroke="#fef3c7" stroke-opacity=".45"/>
    <circle cx="340" cy="100" r="10" fill="none" stroke="#fef3c7" stroke-opacity=".45"/>
    <circle cx="80" cy="560" r="10" fill="none" stroke="#fef3c7" stroke-opacity=".45"/>
    <circle cx="340" cy="560" r="10" fill="none" stroke="#fef3c7" stroke-opacity=".45"/>
    
  
        <g filter="url(#glow)">
          <circle cx="210" cy="288" r="118" fill="#fb923c" opacity=".11"/>
          <circle cx="210" cy="288" r="91" fill="none" stroke="#fb923c" stroke-width="3" stroke-opacity=".74"/>
          <circle cx="210" cy="288" r="58" fill="#fef3c7" opacity=".12" stroke="#fef3c7" stroke-width="2" stroke-opacity=".55"/>
          <text x="210" y="310" text-anchor="middle" font-size="96" font-family="Georgia, serif" fill="#fb923c">▥</text>
        </g>
        <path d="M132 430 C164 404, 256 404, 288 430" fill="none" stroke="#fb923c" stroke-width="6" stroke-linecap="round" stroke-opacity=".62"/>
        <path d="M156 452 C184 438, 236 438, 264 452" fill="none" stroke="#fef3c7" stroke-width="3" stroke-linecap="round" stroke-opacity=".56"/>
        <text x="62" y="86" font-size="24" font-family="Georgia, serif" fill="#fff7ed">16</text>
        <text x="358" y="86" text-anchor="end" font-size="24" font-family="Georgia, serif" fill="#fff7ed">16</text>
        
  <rect x="58" y="522" width="304" height="76" rx="18" fill="#020617" opacity=".62" stroke="#facc15" stroke-opacity=".24"/>
  <text x="210" y="558" text-anchor="middle" font-size="20" font-family="Georgia, serif" fill="#fff7ed">The Tower</text>
  <text x="210" y="586" text-anchor="middle" font-size="9" font-family="Arial, sans-serif" letter-spacing="3" fill="#c4b5fd">ORIGINAL SYMBOLIC DECK</text>
</svg>