<svg xmlns="http://www.w3.org/2000/svg" width="420" height="660" viewBox="0 0 420 660" role="img" aria-label="Death">
<defs>
<linearGradient id="bg" x1="0" y1="0" x2="1" y2="1"><stop stop-color="#080b18"/><stop offset=".52" stop-color="#211436"/><stop offset="1" stop-color="#050812"/></linearGradient>
<radialGradient id="a" cx="50%" cy="40%" r="64%"><stop stop-color="#f8fafc" stop-opacity=".22"/><stop offset=".55" stop-color="#94a3b8" stop-opacity=".12"/><stop offset="1" stop-color="#000" stop-opacity="0"/></radialGradient>
<filter id="glow"><feDropShadow dx="0" dy="0" stdDeviation="5" flood-color="#f8fafc" flood-opacity=".42"/></filter>
</defs>
<rect width="420" height="660" rx="34" fill="url(#bg)"/>
<rect x="18" y="18" width="384" height="624" rx="30" fill="url(#a)" stroke="#d6a24f" stroke-opacity=".82" stroke-width="2.4"/>
<rect x="36" y="36" width="348" height="588" rx="22" fill="none" stroke="#94a3b8" stroke-opacity=".28" stroke-width="1.5"/>
<circle cx="65" cy="496" r="1.5" fill="#fff1b8" opacity="0.61"/>
<circle cx="83" cy="184" r="1.2" fill="#fff1b8" opacity="0.38"/>
<circle cx="105" cy="506" r="1" fill="#fff1b8" opacity="0.75"/>
<circle cx="334" cy="524" r="1" fill="#fff1b8" opacity="0.37"/>
<circle cx="376" cy="363" r="1.2" fill="#fff1b8" opacity="0.31"/>
<circle cx="124" cy="341" r="2" fill="#fff1b8" opacity="0.56"/>
<circle cx="72" cy="450" r="2" fill="#fff1b8" opacity="0.40"/>
<circle cx="277" cy="110" r="1" fill="#fff1b8" opacity="0.46"/>
<circle cx="233" cy="310" r="2" fill="#fff1b8" opacity="0.34"/>
<circle cx="238" cy="570" r="1.2" fill="#fff1b8" opacity="0.40"/>
<circle cx="202" cy="492" r="2" fill="#fff1b8" opacity="0.65"/>
<circle cx="272" cy="118" r="2" fill="#fff1b8" opacity="0.32"/>
<circle cx="120" cy="170" r="1" fill="#fff1b8" opacity="0.33"/>
<circle cx="170" cy="168" r="2" fill="#fff1b8" opacity="0.34"/>
<circle cx="281" cy="484" r="1.2" fill="#fff1b8" opacity="0.26"/>
<circle cx="213" cy="82" r="1" fill="#fff1b8" opacity="0.39"/>
<circle cx="363" cy="329" r="1" fill="#fff1b8" opacity="0.27"/>
<circle cx="141" cy="498" r="1" fill="#fff1b8" opacity="0.42"/>
<circle cx="285" cy="264" r="2" fill="#fff1b8" opacity="0.75"/>
<circle cx="96" cy="374" r="1.2" fill="#fff1b8" opacity="0.68"/>
<circle cx="266" cy="465" r="1.5" fill="#fff1b8" opacity="0.39"/>
<circle cx="293" cy="334" r="1.5" fill="#fff1b8" opacity="0.36"/>
<circle cx="218" cy="134" r="1.5" fill="#fff1b8" opacity="0.73"/>
<circle cx="347" cy="584" r="1.2" fill="#fff1b8" opacity="0.38"/>
<circle cx="317" cy="185" r="1.5" fill="#fff1b8" opacity="0.26"/>
<circle cx="142" cy="553" r="1" fill="#fff1b8" opacity="0.42"/>
<circle cx="150" cy="273" r="1.2" fill="#fff1b8" opacity="0.74"/>
<circle cx="42" cy="340" r="1" fill="#fff1b8" opacity="0.69"/>
<circle cx="189" cy="128" r="1" fill="#fff1b8" opacity="0.37"/>
<circle cx="207" cy="113" r="1.5" fill="#fff1b8" opacity="0.43"/>
<circle cx="293" cy="90" r="1" fill="#fff1b8" opacity="0.77"/>
<circle cx="131" cy="478" r="1.5" fill="#fff1b8" opacity="0.54"/>
<circle cx="56" cy="412" r="2" fill="#fff1b8" opacity="0.32"/>
<circle cx="266" cy="126" r="1.5" fill="#fff1b8" opacity="0.51"/>
<circle cx="319" cy="72" r="1" fill="#fff1b8" opacity="0.29"/>
<circle cx="329" cy="506" r="1.2" fill="#fff1b8" opacity="0.28"/>
<circle cx="323" cy="433" r="1" fill="#fff1b8" opacity="0.72"/>
<circle cx="93" cy="200" r="1.5" fill="#fff1b8" opacity="0.28"/>
<path d="M70 104 C132 68 288 68 350 104 M70 556 C132 592 288 592 350 556" fill="none" stroke="#d6a24f" stroke-opacity=".28" stroke-width="2"/>
<text x="64" y="78" fill="#fff1b8" font-size="22" font-family="Georgia,serif">13</text>
<text x="356" y="78" text-anchor="end" fill="#fff1b8" font-size="22" font-family="Georgia,serif">13</text>
<g filter="url(#glow)">
    <circle cx="210" cy="284" r="98" fill="#f8fafc" opacity=".13"/>
    <circle cx="210" cy="284" r="70" fill="none" stroke="#f8fafc" stroke-width="3" opacity=".72"/>
    <text x="210" y="306" text-anchor="middle" font-size="84" fill="#f8fafc" font-family="Georgia,serif">✦</text>
    <path d="M136 432 C170 398 250 398 284 432" fill="none" stroke="#94a3b8" stroke-width="6" stroke-linecap="round" opacity=".68"/>
    </g>
<rect x="58" y="530" width="304" height="74" rx="17" fill="#050812" opacity=".74" stroke="#d6a24f" stroke-opacity=".30"/>
<text x="210" y="566" text-anchor="middle" fill="#fff7df" font-size="20" font-family="Georgia,serif">Death</text>
<text x="210" y="592" text-anchor="middle" fill="#c9b27a" font-size="9" font-family="Arial" letter-spacing="3">FATECARD ORIGINAL</text>
</svg>