<svg xmlns="http://www.w3.org/2000/svg" width="420" height="660" viewBox="0 0 420 660" role="img" aria-label="The Hierophant">
  <defs>
    <linearGradient id="bg" x1="0" y1="0" x2="1" y2="1">
      <stop offset="0%" stop-color="#050816"/>
      <stop offset="45%" stop-color="#17102d"/>
      <stop offset="100%" stop-color="#020617"/>
    </linearGradient>
    <radialGradient id="aura" cx="50%" cy="38%" r="68%">
      <stop offset="0%" stop-color="#facc15" stop-opacity=".18"/>
      <stop offset="52%" stop-color="#a78bfa" stop-opacity=".10"/>
      <stop offset="100%" stop-color="#020617" stop-opacity="0"/>
    </radialGradient>
    <filter id="glow" x="-30%" y="-30%" width="160%" height="160%">
      <feDropShadow dx="0" dy="0" stdDeviation="6" flood-color="#fde68a" flood-opacity=".42"/>
    </filter>
  </defs>
  <rect width="420" height="660" rx="34" fill="url(#bg)"/>
  <rect x="20" y="20" width="380" height="620" rx="30" fill="url(#aura)" stroke="#facc15" stroke-opacity=".54" stroke-width="2"/>
  <rect x="35" y="35" width="350" height="590" rx="22" fill="none" stroke="#a78bfa" stroke-opacity=".18" stroke-width="1.5"/>
  <circle cx="241" cy="485" r="1.0" fill="#fde68a" opacity="0.76"/>
<circle cx="83" cy="352" r="2.2" fill="#fde68a" opacity="0.72"/>
<circle cx="349" cy="139" r="1.0" fill="#fde68a" opacity="0.76"/>
<circle cx="382" cy="429" r="1.0" fill="#fde68a" opacity="0.39"/>
<circle cx="60" cy="530" r="1.0" fill="#fde68a" opacity="0.56"/>
<circle cx="374" cy="493" r="1.4" fill="#fde68a" opacity="0.56"/>
<circle cx="286" cy="325" r="1.4" fill="#fde68a" opacity="0.78"/>
<circle cx="330" cy="285" r="1.4" fill="#fde68a" opacity="0.44"/>
<circle cx="318" cy="273" r="1.8" fill="#fde68a" opacity="0.50"/>
<circle cx="332" cy="125" r="1.8" fill="#fde68a" opacity="0.57"/>
<circle cx="95" cy="246" r="2.2" fill="#fde68a" opacity="0.79"/>
<circle cx="104" cy="69" r="2.2" fill="#fde68a" opacity="0.47"/>
<circle cx="73" cy="249" r="2.2" fill="#fde68a" opacity="0.74"/>
<circle cx="290" cy="157" r="1.4" fill="#fde68a" opacity="0.31"/>
<circle cx="74" cy="252" r="1.8" fill="#fde68a" opacity="0.59"/>
<circle cx="376" cy="504" r="1.0" fill="#fde68a" opacity="0.53"/>
<circle cx="125" cy="563" r="2.2" fill="#fde68a" opacity="0.31"/>
<circle cx="103" cy="243" r="1.0" fill="#fde68a" opacity="0.34"/>
<circle cx="48" cy="318" r="1.0" fill="#fde68a" opacity="0.56"/>
<circle cx="150" cy="153" r="1.8" fill="#fde68a" opacity="0.43"/>
<circle cx="346" cy="369" r="1.0" fill="#fde68a" opacity="0.39"/>
<circle cx="221" cy="562" r="1.4" fill="#fde68a" opacity="0.76"/>
<circle cx="147" cy="351" r="1.0" fill="#fde68a" opacity="0.56"/>
<circle cx="254" cy="370" r="1.4" fill="#fde68a" opacity="0.42"/>
<circle cx="136" cy="513" r="1.4" fill="#fde68a" opacity="0.63"/>
<circle cx="68" cy="178" r="1.0" fill="#fde68a" opacity="0.29"/>
<circle cx="296" cy="484" r="1.0" fill="#fde68a" opacity="0.70"/>
<circle cx="78" cy="382" r="1.8" fill="#fde68a" opacity="0.51"/>
<circle cx="332" cy="403" r="1.0" fill="#fde68a" opacity="0.45"/>
<circle cx="167" cy="269" r="1.0" fill="#fde68a" opacity="0.78"/>
<circle cx="200" cy="529" r="1.0" fill="#fde68a" opacity="0.73"/>
<circle cx="219" cy="289" r="2.2" fill="#fde68a" opacity="0.79"/>
<circle cx="163" cy="474" r="1.0" fill="#fde68a" opacity="0.43"/>
<circle cx="88" cy="403" r="1.4" fill="#fde68a" opacity="0.68"/>
  
    <path d="M55 118 C120 74 300 74 365 118" fill="none" stroke="#fde68a" stroke-opacity=".28" stroke-width="2"/>
    <path d="M55 542 C120 586 300 586 365 542" fill="none" stroke="#fde68a" stroke-opacity=".28" stroke-width="2"/>
    <path d="M74 88 L98 88 M322 88 L346 88 M74 572 L98 572 M322 572 L346 572" stroke="#60a5fa" stroke-opacity=".50" stroke-width="2" stroke-linecap="round"/>
    <circle cx="80" cy="100" r="10" fill="none" stroke="#60a5fa" stroke-opacity=".45"/>
    <circle cx="340" cy="100" r="10" fill="none" stroke="#60a5fa" stroke-opacity=".45"/>
    <circle cx="80" cy="560" r="10" fill="none" stroke="#60a5fa" stroke-opacity=".45"/>
    <circle cx="340" cy="560" r="10" fill="none" stroke="#60a5fa" stroke-opacity=".45"/>
    
  
        <g filter="url(#glow)">
          <circle cx="210" cy="288" r="118" fill="#fde68a" opacity=".11"/>
          <circle cx="210" cy="288" r="91" fill="none" stroke="#fde68a" stroke-width="3" stroke-opacity=".74"/>
          <circle cx="210" cy="288" r="58" fill="#60a5fa" opacity=".12" stroke="#60a5fa" stroke-width="2" stroke-opacity=".55"/>
          <text x="210" y="310" text-anchor="middle" font-size="96" font-family="Georgia, serif" fill="#fde68a">⚜</text>
        </g>
        <path d="M132 430 C164 404, 256 404, 288 430" fill="none" stroke="#fde68a" stroke-width="6" stroke-linecap="round" stroke-opacity=".62"/>
        <path d="M156 452 C184 438, 236 438, 264 452" fill="none" stroke="#60a5fa" stroke-width="3" stroke-linecap="round" stroke-opacity=".56"/>
        <text x="62" y="86" font-size="24" font-family="Georgia, serif" fill="#fff7ed">05</text>
        <text x="358" y="86" text-anchor="end" font-size="24" font-family="Georgia, serif" fill="#fff7ed">05</text>
        
  <rect x="58" y="522" width="304" height="76" rx="18" fill="#020617" opacity=".62" stroke="#facc15" stroke-opacity=".24"/>
  <text x="210" y="558" text-anchor="middle" font-size="20" font-family="Georgia, serif" fill="#fff7ed">The Hierophant</text>
  <text x="210" y="586" text-anchor="middle" font-size="9" font-family="Arial, sans-serif" letter-spacing="3" fill="#c4b5fd">ORIGINAL SYMBOLIC DECK</text>
</svg>