<svg xmlns="http://www.w3.org/2000/svg" width="420" height="660" viewBox="0 0 420 660" role="img" aria-label="The Devil">
<defs>
<linearGradient id="bg" x1="0" y1="0" x2="1" y2="1"><stop stop-color="#080b18"/><stop offset=".52" stop-color="#211436"/><stop offset="1" stop-color="#050812"/></linearGradient>
<radialGradient id="a" cx="50%" cy="40%" r="64%"><stop stop-color="#f87171" stop-opacity=".22"/><stop offset=".55" stop-color="#a78bfa" stop-opacity=".12"/><stop offset="1" stop-color="#000" stop-opacity="0"/></radialGradient>
<filter id="glow"><feDropShadow dx="0" dy="0" stdDeviation="5" flood-color="#f87171" flood-opacity=".42"/></filter>
</defs>
<rect width="420" height="660" rx="34" fill="url(#bg)"/>
<rect x="18" y="18" width="384" height="624" rx="30" fill="url(#a)" stroke="#d6a24f" stroke-opacity=".82" stroke-width="2.4"/>
<rect x="36" y="36" width="348" height="588" rx="22" fill="none" stroke="#a78bfa" stroke-opacity=".28" stroke-width="1.5"/>
<circle cx="282" cy="133" r="1" fill="#fff1b8" opacity="0.72"/>
<circle cx="228" cy="209" r="1.5" fill="#fff1b8" opacity="0.42"/>
<circle cx="310" cy="319" r="1.2" fill="#fff1b8" opacity="0.46"/>
<circle cx="226" cy="576" r="1" fill="#fff1b8" opacity="0.67"/>
<circle cx="54" cy="253" r="1.5" fill="#fff1b8" opacity="0.26"/>
<circle cx="247" cy="546" r="1" fill="#fff1b8" opacity="0.31"/>
<circle cx="366" cy="215" r="1.5" fill="#fff1b8" opacity="0.52"/>
<circle cx="344" cy="365" r="2" fill="#fff1b8" opacity="0.76"/>
<circle cx="323" cy="316" r="1.5" fill="#fff1b8" opacity="0.39"/>
<circle cx="106" cy="298" r="1.5" fill="#fff1b8" opacity="0.65"/>
<circle cx="153" cy="69" r="1.2" fill="#fff1b8" opacity="0.63"/>
<circle cx="126" cy="554" r="1.5" fill="#fff1b8" opacity="0.26"/>
<circle cx="294" cy="190" r="2" fill="#fff1b8" opacity="0.52"/>
<circle cx="299" cy="434" r="1" fill="#fff1b8" opacity="0.78"/>
<circle cx="208" cy="236" r="2" fill="#fff1b8" opacity="0.29"/>
<circle cx="136" cy="386" r="1.2" fill="#fff1b8" opacity="0.38"/>
<circle cx="262" cy="503" r="1" fill="#fff1b8" opacity="0.54"/>
<circle cx="378" cy="509" r="1.2" fill="#fff1b8" opacity="0.61"/>
<circle cx="98" cy="161" r="1" fill="#fff1b8" opacity="0.70"/>
<circle cx="73" cy="187" r="2" fill="#fff1b8" opacity="0.49"/>
<circle cx="196" cy="229" r="1.2" fill="#fff1b8" opacity="0.49"/>
<circle cx="253" cy="185" r="1.5" fill="#fff1b8" opacity="0.36"/>
<circle cx="287" cy="296" r="1.5" fill="#fff1b8" opacity="0.61"/>
<circle cx="83" cy="247" r="2" fill="#fff1b8" opacity="0.68"/>
<circle cx="320" cy="462" r="1.2" fill="#fff1b8" opacity="0.34"/>
<circle cx="331" cy="402" r="1" fill="#fff1b8" opacity="0.44"/>
<circle cx="335" cy="393" r="2" fill="#fff1b8" opacity="0.74"/>
<circle cx="218" cy="450" r="1" fill="#fff1b8" opacity="0.76"/>
<circle cx="64" cy="449" r="1" fill="#fff1b8" opacity="0.50"/>
<circle cx="98" cy="205" r="2" fill="#fff1b8" opacity="0.35"/>
<circle cx="50" cy="273" r="2" fill="#fff1b8" opacity="0.31"/>
<circle cx="347" cy="359" r="2" fill="#fff1b8" opacity="0.52"/>
<circle cx="183" cy="525" r="2" fill="#fff1b8" opacity="0.77"/>
<circle cx="203" cy="68" r="1" fill="#fff1b8" opacity="0.40"/>
<circle cx="313" cy="546" r="1.5" fill="#fff1b8" opacity="0.66"/>
<circle cx="156" cy="113" r="1" fill="#fff1b8" opacity="0.63"/>
<circle cx="181" cy="77" r="2" fill="#fff1b8" opacity="0.33"/>
<circle cx="171" cy="104" r="1" fill="#fff1b8" opacity="0.26"/>
<path d="M70 104 C132 68 288 68 350 104 M70 556 C132 592 288 592 350 556" fill="none" stroke="#d6a24f" stroke-opacity=".28" stroke-width="2"/>
<text x="64" y="78" fill="#fff1b8" font-size="22" font-family="Georgia,serif">15</text>
<text x="356" y="78" text-anchor="end" fill="#fff1b8" font-size="22" font-family="Georgia,serif">15</text>
<g filter="url(#glow)">
    <circle cx="210" cy="284" r="98" fill="#f87171" opacity=".13"/>
    <circle cx="210" cy="284" r="70" fill="none" stroke="#f87171" stroke-width="3" opacity=".72"/>
    <text x="210" y="306" text-anchor="middle" font-size="84" fill="#f87171" font-family="Georgia,serif">✦</text>
    <path d="M136 432 C170 398 250 398 284 432" fill="none" stroke="#a78bfa" stroke-width="6" stroke-linecap="round" opacity=".68"/>
    </g>
<rect x="58" y="530" width="304" height="74" rx="17" fill="#050812" opacity=".74" stroke="#d6a24f" stroke-opacity=".30"/>
<text x="210" y="566" text-anchor="middle" fill="#fff7df" font-size="20" font-family="Georgia,serif">The Devil</text>
<text x="210" y="592" text-anchor="middle" fill="#c9b27a" font-size="9" font-family="Arial" letter-spacing="3">FATECARD ORIGINAL</text>
</svg>