<svg xmlns="http://www.w3.org/2000/svg" width="420" height="660" viewBox="0 0 420 660" role="img" aria-label="The Tower">
<defs>
  <linearGradient id="bg" x1="0" y1="0" x2="1" y2="1"><stop offset="0%" stop-color="#061021"/><stop offset="44%" stop-color="#24143b"/><stop offset="100%" stop-color="#050816"/></linearGradient>
  <radialGradient id="halo" cx="50%" cy="40%" r="62%"><stop offset="0%" stop-color="#facc15" stop-opacity=".20"/><stop offset="52%" stop-color="#a78bfa" stop-opacity=".12"/><stop offset="100%" stop-color="#000" stop-opacity="0"/></radialGradient>
  <filter id="glow"><feGaussianBlur stdDeviation="3"/></filter>
</defs>
<rect width="420" height="660" rx="34" fill="url(#bg)"/>
<rect x="18" y="18" width="384" height="624" rx="28" fill="none" stroke="#d6a84f" stroke-width="3" stroke-opacity=".85"/>
<rect x="32" y="32" width="356" height="596" rx="22" fill="url(#halo)"/>
<g fill="none" stroke="#d6a84f" stroke-opacity=".34">
  <path d="M52 82 C96 48,142 44,184 58"/><path d="M236 58 C278 44,324 48,368 82"/>
  <path d="M52 578 C96 612,142 616,184 602"/><path d="M236 602 C278 616,324 612,368 578"/>
  <path d="M70 110 H350 M70 550 H350"/>
</g>
<text x="62" y="84" font-size="25" fill="#fff7ed" font-family="Georgia,serif">16</text>
<text x="358" y="84" text-anchor="end" font-size="25" fill="#fff7ed" font-family="Georgia,serif">16</text>
<g>
        <path d="M168 150 H252 L278 478 H142 Z" fill="#1f2937" stroke="#f97316" stroke-width="4"/>
        <rect x="184" y="210" width="24" height="54" fill="#facc15" opacity=".55"/><rect x="220" y="300" width="24" height="54" fill="#facc15" opacity=".55"/>
        <path d="M248 76 L190 236 H236 L170 430" stroke="#fbbf24" stroke-width="10" fill="none" stroke-linejoin="round"/>
        <path d="M142 150 L210 94 L278 150" fill="#7f1d1d" stroke="#f97316" stroke-width="4"/>
        <circle cx="122" cy="338" r="12" fill="#ef4444"/><circle cx="300" cy="390" r="10" fill="#ef4444"/></g>
<g opacity=".7"><circle cx="88" cy="160" r="2" fill="#fde68a"/><circle cx="336" cy="180" r="2" fill="#c4b5fd"/><circle cx="330" cy="492" r="2.3" fill="#fde68a"/><circle cx="92" cy="488" r="2" fill="#c4b5fd"/></g>
<rect x="54" y="528" width="312" height="74" rx="17" fill="#020617" opacity=".62" stroke="#d6a84f" stroke-opacity=".30"/>
<text x="210" y="566" text-anchor="middle" font-size="20" font-family="Georgia,serif" fill="#fff7ed">The Tower</text>
<text x="210" y="592" text-anchor="middle" font-size="9" font-family="Arial,sans-serif" letter-spacing="3" fill="#c4b5fd">FATECARD ORIGINAL</text>
</svg>