<svg xmlns="http://www.w3.org/2000/svg" width="420" height="660" viewBox="0 0 420 660" role="img" aria-label="The Hermit">
  <defs>
    <linearGradient id="bg" x1="0" y1="0" x2="1" y2="1">
      <stop offset="0%" stop-color="#050816"/>
      <stop offset="45%" stop-color="#17102d"/>
      <stop offset="100%" stop-color="#020617"/>
    </linearGradient>
    <radialGradient id="aura" cx="50%" cy="38%" r="68%">
      <stop offset="0%" stop-color="#facc15" stop-opacity=".18"/>
      <stop offset="52%" stop-color="#a78bfa" stop-opacity=".10"/>
      <stop offset="100%" stop-color="#020617" stop-opacity="0"/>
    </radialGradient>
    <filter id="glow" x="-30%" y="-30%" width="160%" height="160%">
      <feDropShadow dx="0" dy="0" stdDeviation="6" flood-color="#cbd5e1" flood-opacity=".42"/>
    </filter>
  </defs>
  <rect width="420" height="660" rx="34" fill="url(#bg)"/>
  <rect x="20" y="20" width="380" height="620" rx="30" fill="url(#aura)" stroke="#facc15" stroke-opacity=".54" stroke-width="2"/>
  <rect x="35" y="35" width="350" height="590" rx="22" fill="none" stroke="#a78bfa" stroke-opacity=".18" stroke-width="1.5"/>
  <circle cx="138" cy="453" r="1.8" fill="#fde68a" opacity="0.63"/>
<circle cx="59" cy="547" r="1.4" fill="#fde68a" opacity="0.59"/>
<circle cx="327" cy="506" r="1.0" fill="#fde68a" opacity="0.43"/>
<circle cx="216" cy="91" r="1.8" fill="#fde68a" opacity="0.77"/>
<circle cx="153" cy="250" r="2.2" fill="#fde68a" opacity="0.66"/>
<circle cx="205" cy="247" r="1.4" fill="#fde68a" opacity="0.70"/>
<circle cx="294" cy="439" r="1.8" fill="#fde68a" opacity="0.49"/>
<circle cx="115" cy="457" r="1.0" fill="#fde68a" opacity="0.33"/>
<circle cx="95" cy="138" r="2.2" fill="#fde68a" opacity="0.64"/>
<circle cx="303" cy="345" r="1.8" fill="#fde68a" opacity="0.41"/>
<circle cx="221" cy="296" r="2.2" fill="#fde68a" opacity="0.45"/>
<circle cx="98" cy="414" r="1.4" fill="#fde68a" opacity="0.71"/>
<circle cx="186" cy="63" r="1.4" fill="#fde68a" opacity="0.31"/>
<circle cx="290" cy="56" r="1.0" fill="#fde68a" opacity="0.59"/>
<circle cx="272" cy="520" r="2.2" fill="#fde68a" opacity="0.83"/>
<circle cx="87" cy="303" r="1.0" fill="#fde68a" opacity="0.38"/>
<circle cx="146" cy="410" r="1.0" fill="#fde68a" opacity="0.45"/>
<circle cx="304" cy="97" r="2.2" fill="#fde68a" opacity="0.65"/>
<circle cx="72" cy="528" r="1.8" fill="#fde68a" opacity="0.50"/>
<circle cx="46" cy="494" r="1.4" fill="#fde68a" opacity="0.73"/>
<circle cx="154" cy="457" r="1.8" fill="#fde68a" opacity="0.63"/>
<circle cx="49" cy="565" r="2.2" fill="#fde68a" opacity="0.65"/>
<circle cx="205" cy="190" r="1.8" fill="#fde68a" opacity="0.32"/>
<circle cx="310" cy="128" r="1.0" fill="#fde68a" opacity="0.71"/>
<circle cx="348" cy="489" r="2.2" fill="#fde68a" opacity="0.30"/>
<circle cx="83" cy="481" r="2.2" fill="#fde68a" opacity="0.38"/>
<circle cx="224" cy="239" r="1.4" fill="#fde68a" opacity="0.55"/>
<circle cx="52" cy="470" r="1.8" fill="#fde68a" opacity="0.49"/>
<circle cx="268" cy="117" r="1.4" fill="#fde68a" opacity="0.81"/>
<circle cx="140" cy="350" r="1.0" fill="#fde68a" opacity="0.36"/>
<circle cx="237" cy="540" r="1.0" fill="#fde68a" opacity="0.77"/>
<circle cx="312" cy="162" r="1.8" fill="#fde68a" opacity="0.36"/>
<circle cx="279" cy="155" r="1.4" fill="#fde68a" opacity="0.37"/>
<circle cx="43" cy="205" r="1.0" fill="#fde68a" opacity="0.45"/>
  
    <path d="M55 118 C120 74 300 74 365 118" fill="none" stroke="#cbd5e1" stroke-opacity=".28" stroke-width="2"/>
    <path d="M55 542 C120 586 300 586 365 542" fill="none" stroke="#cbd5e1" stroke-opacity=".28" stroke-width="2"/>
    <path d="M74 88 L98 88 M322 88 L346 88 M74 572 L98 572 M322 572 L346 572" stroke="#facc15" stroke-opacity=".50" stroke-width="2" stroke-linecap="round"/>
    <circle cx="80" cy="100" r="10" fill="none" stroke="#facc15" stroke-opacity=".45"/>
    <circle cx="340" cy="100" r="10" fill="none" stroke="#facc15" stroke-opacity=".45"/>
    <circle cx="80" cy="560" r="10" fill="none" stroke="#facc15" stroke-opacity=".45"/>
    <circle cx="340" cy="560" r="10" fill="none" stroke="#facc15" stroke-opacity=".45"/>
    
  
        <g filter="url(#glow)">
          <circle cx="210" cy="288" r="118" fill="#cbd5e1" opacity=".11"/>
          <circle cx="210" cy="288" r="91" fill="none" stroke="#cbd5e1" stroke-width="3" stroke-opacity=".74"/>
          <circle cx="210" cy="288" r="58" fill="#facc15" opacity=".12" stroke="#facc15" stroke-width="2" stroke-opacity=".55"/>
          <text x="210" y="310" text-anchor="middle" font-size="96" font-family="Georgia, serif" fill="#cbd5e1">✺</text>
        </g>
        <path d="M132 430 C164 404, 256 404, 288 430" fill="none" stroke="#cbd5e1" stroke-width="6" stroke-linecap="round" stroke-opacity=".62"/>
        <path d="M156 452 C184 438, 236 438, 264 452" fill="none" stroke="#facc15" stroke-width="3" stroke-linecap="round" stroke-opacity=".56"/>
        <text x="62" y="86" font-size="24" font-family="Georgia, serif" fill="#fff7ed">09</text>
        <text x="358" y="86" text-anchor="end" font-size="24" font-family="Georgia, serif" fill="#fff7ed">09</text>
        
  <rect x="58" y="522" width="304" height="76" rx="18" fill="#020617" opacity=".62" stroke="#facc15" stroke-opacity=".24"/>
  <text x="210" y="558" text-anchor="middle" font-size="20" font-family="Georgia, serif" fill="#fff7ed">The Hermit</text>
  <text x="210" y="586" text-anchor="middle" font-size="9" font-family="Arial, sans-serif" letter-spacing="3" fill="#c4b5fd">ORIGINAL SYMBOLIC DECK</text>
</svg>