<svg xmlns="http://www.w3.org/2000/svg" width="420" height="660" viewBox="0 0 420 660" role="img" aria-label="The Magician">
<defs>
<linearGradient id="bg" x1="0" y1="0" x2="1" y2="1"><stop stop-color="#080b18"/><stop offset=".52" stop-color="#211436"/><stop offset="1" stop-color="#050812"/></linearGradient>
<radialGradient id="a" cx="50%" cy="40%" r="64%"><stop stop-color="#c4b5fd" stop-opacity=".22"/><stop offset=".55" stop-color="#f5b760" stop-opacity=".12"/><stop offset="1" stop-color="#000" stop-opacity="0"/></radialGradient>
<filter id="glow"><feDropShadow dx="0" dy="0" stdDeviation="5" flood-color="#c4b5fd" flood-opacity=".42"/></filter>
</defs>
<rect width="420" height="660" rx="34" fill="url(#bg)"/>
<rect x="18" y="18" width="384" height="624" rx="30" fill="url(#a)" stroke="#d6a24f" stroke-opacity=".82" stroke-width="2.4"/>
<rect x="36" y="36" width="348" height="588" rx="22" fill="none" stroke="#f5b760" stroke-opacity=".28" stroke-width="1.5"/>
<circle cx="167" cy="248" r="1.2" fill="#fff1b8" opacity="0.55"/>
<circle cx="355" cy="529" r="1.2" fill="#fff1b8" opacity="0.40"/>
<circle cx="275" cy="91" r="1" fill="#fff1b8" opacity="0.27"/>
<circle cx="218" cy="488" r="1" fill="#fff1b8" opacity="0.55"/>
<circle cx="278" cy="279" r="2" fill="#fff1b8" opacity="0.69"/>
<circle cx="91" cy="563" r="1" fill="#fff1b8" opacity="0.27"/>
<circle cx="50" cy="163" r="1.2" fill="#fff1b8" opacity="0.50"/>
<circle cx="215" cy="585" r="1" fill="#fff1b8" opacity="0.55"/>
<circle cx="137" cy="382" r="2" fill="#fff1b8" opacity="0.31"/>
<circle cx="279" cy="408" r="1.5" fill="#fff1b8" opacity="0.50"/>
<circle cx="81" cy="214" r="1.5" fill="#fff1b8" opacity="0.64"/>
<circle cx="315" cy="345" r="1.5" fill="#fff1b8" opacity="0.55"/>
<circle cx="254" cy="80" r="1.2" fill="#fff1b8" opacity="0.27"/>
<circle cx="291" cy="349" r="1" fill="#fff1b8" opacity="0.27"/>
<circle cx="104" cy="366" r="1.5" fill="#fff1b8" opacity="0.28"/>
<circle cx="98" cy="274" r="1.5" fill="#fff1b8" opacity="0.52"/>
<circle cx="355" cy="431" r="1" fill="#fff1b8" opacity="0.47"/>
<circle cx="293" cy="576" r="1.2" fill="#fff1b8" opacity="0.40"/>
<circle cx="124" cy="70" r="1" fill="#fff1b8" opacity="0.74"/>
<circle cx="107" cy="483" r="1" fill="#fff1b8" opacity="0.48"/>
<circle cx="138" cy="249" r="1" fill="#fff1b8" opacity="0.77"/>
<circle cx="135" cy="425" r="1.5" fill="#fff1b8" opacity="0.37"/>
<circle cx="97" cy="472" r="1" fill="#fff1b8" opacity="0.77"/>
<circle cx="296" cy="95" r="2" fill="#fff1b8" opacity="0.64"/>
<circle cx="124" cy="166" r="2" fill="#fff1b8" opacity="0.72"/>
<circle cx="293" cy="500" r="1" fill="#fff1b8" opacity="0.45"/>
<circle cx="163" cy="266" r="1.5" fill="#fff1b8" opacity="0.35"/>
<circle cx="231" cy="463" r="1.5" fill="#fff1b8" opacity="0.36"/>
<circle cx="282" cy="551" r="1" fill="#fff1b8" opacity="0.64"/>
<circle cx="84" cy="99" r="2" fill="#fff1b8" opacity="0.30"/>
<circle cx="333" cy="137" r="1" fill="#fff1b8" opacity="0.29"/>
<circle cx="60" cy="486" r="2" fill="#fff1b8" opacity="0.77"/>
<circle cx="135" cy="223" r="1.2" fill="#fff1b8" opacity="0.37"/>
<circle cx="249" cy="284" r="2" fill="#fff1b8" opacity="0.39"/>
<circle cx="362" cy="338" r="1.5" fill="#fff1b8" opacity="0.65"/>
<circle cx="131" cy="475" r="1.2" fill="#fff1b8" opacity="0.53"/>
<circle cx="54" cy="589" r="1.2" fill="#fff1b8" opacity="0.49"/>
<circle cx="84" cy="493" r="1" fill="#fff1b8" opacity="0.55"/>
<path d="M70 104 C132 68 288 68 350 104 M70 556 C132 592 288 592 350 556" fill="none" stroke="#d6a24f" stroke-opacity=".28" stroke-width="2"/>
<text x="64" y="78" fill="#fff1b8" font-size="22" font-family="Georgia,serif">01</text>
<text x="356" y="78" text-anchor="end" fill="#fff1b8" font-size="22" font-family="Georgia,serif">01</text>
<g filter="url(#glow)">
    <circle cx="210" cy="284" r="98" fill="#c4b5fd" opacity=".13"/>
    <circle cx="210" cy="284" r="70" fill="none" stroke="#c4b5fd" stroke-width="3" opacity=".72"/>
    <text x="210" y="306" text-anchor="middle" font-size="84" fill="#c4b5fd" font-family="Georgia,serif">✦</text>
    <path d="M136 432 C170 398 250 398 284 432" fill="none" stroke="#f5b760" stroke-width="6" stroke-linecap="round" opacity=".68"/>
    </g>
<rect x="58" y="530" width="304" height="74" rx="17" fill="#050812" opacity=".74" stroke="#d6a24f" stroke-opacity=".30"/>
<text x="210" y="566" text-anchor="middle" fill="#fff7df" font-size="20" font-family="Georgia,serif">The Magician</text>
<text x="210" y="592" text-anchor="middle" fill="#c9b27a" font-size="9" font-family="Arial" letter-spacing="3">FATECARD ORIGINAL</text>
</svg>