<svg xmlns="http://www.w3.org/2000/svg" width="420" height="660" viewBox="0 0 420 660" role="img" aria-label="The Hierophant">
<defs>
<linearGradient id="bg" x1="0" y1="0" x2="1" y2="1"><stop stop-color="#080b18"/><stop offset=".52" stop-color="#211436"/><stop offset="1" stop-color="#050812"/></linearGradient>
<radialGradient id="a" cx="50%" cy="40%" r="64%"><stop stop-color="#fde68a" stop-opacity=".22"/><stop offset=".55" stop-color="#60a5fa" stop-opacity=".12"/><stop offset="1" stop-color="#000" stop-opacity="0"/></radialGradient>
<filter id="glow"><feDropShadow dx="0" dy="0" stdDeviation="5" flood-color="#fde68a" flood-opacity=".42"/></filter>
</defs>
<rect width="420" height="660" rx="34" fill="url(#bg)"/>
<rect x="18" y="18" width="384" height="624" rx="30" fill="url(#a)" stroke="#d6a24f" stroke-opacity=".82" stroke-width="2.4"/>
<rect x="36" y="36" width="348" height="588" rx="22" fill="none" stroke="#60a5fa" stroke-opacity=".28" stroke-width="1.5"/>
<circle cx="210" cy="468" r="1" fill="#fff1b8" opacity="0.36"/>
<circle cx="288" cy="138" r="1.2" fill="#fff1b8" opacity="0.53"/>
<circle cx="370" cy="285" r="1" fill="#fff1b8" opacity="0.45"/>
<circle cx="268" cy="120" r="2" fill="#fff1b8" opacity="0.41"/>
<circle cx="216" cy="339" r="1.5" fill="#fff1b8" opacity="0.69"/>
<circle cx="309" cy="287" r="1" fill="#fff1b8" opacity="0.42"/>
<circle cx="135" cy="325" r="1" fill="#fff1b8" opacity="0.43"/>
<circle cx="207" cy="544" r="2" fill="#fff1b8" opacity="0.46"/>
<circle cx="306" cy="232" r="2" fill="#fff1b8" opacity="0.44"/>
<circle cx="293" cy="584" r="1.2" fill="#fff1b8" opacity="0.47"/>
<circle cx="83" cy="139" r="1.5" fill="#fff1b8" opacity="0.47"/>
<circle cx="220" cy="222" r="2" fill="#fff1b8" opacity="0.54"/>
<circle cx="278" cy="274" r="1.2" fill="#fff1b8" opacity="0.38"/>
<circle cx="121" cy="91" r="1.2" fill="#fff1b8" opacity="0.35"/>
<circle cx="100" cy="180" r="2" fill="#fff1b8" opacity="0.51"/>
<circle cx="67" cy="266" r="1" fill="#fff1b8" opacity="0.30"/>
<circle cx="214" cy="154" r="1.2" fill="#fff1b8" opacity="0.29"/>
<circle cx="172" cy="158" r="1.5" fill="#fff1b8" opacity="0.55"/>
<circle cx="139" cy="323" r="1" fill="#fff1b8" opacity="0.48"/>
<circle cx="170" cy="312" r="1.2" fill="#fff1b8" opacity="0.41"/>
<circle cx="240" cy="188" r="1.5" fill="#fff1b8" opacity="0.29"/>
<circle cx="240" cy="411" r="1" fill="#fff1b8" opacity="0.43"/>
<circle cx="342" cy="437" r="1" fill="#fff1b8" opacity="0.58"/>
<circle cx="43" cy="565" r="2" fill="#fff1b8" opacity="0.59"/>
<circle cx="377" cy="262" r="1" fill="#fff1b8" opacity="0.52"/>
<circle cx="96" cy="377" r="1.2" fill="#fff1b8" opacity="0.32"/>
<circle cx="235" cy="553" r="1" fill="#fff1b8" opacity="0.76"/>
<circle cx="190" cy="510" r="1.5" fill="#fff1b8" opacity="0.77"/>
<circle cx="160" cy="154" r="2" fill="#fff1b8" opacity="0.38"/>
<circle cx="87" cy="269" r="1" fill="#fff1b8" opacity="0.77"/>
<circle cx="97" cy="465" r="1.5" fill="#fff1b8" opacity="0.44"/>
<circle cx="223" cy="74" r="2" fill="#fff1b8" opacity="0.27"/>
<circle cx="116" cy="587" r="1.2" fill="#fff1b8" opacity="0.65"/>
<circle cx="300" cy="159" r="1" fill="#fff1b8" opacity="0.32"/>
<circle cx="261" cy="362" r="1.2" fill="#fff1b8" opacity="0.48"/>
<circle cx="201" cy="221" r="1" fill="#fff1b8" opacity="0.30"/>
<circle cx="77" cy="390" r="1" fill="#fff1b8" opacity="0.33"/>
<circle cx="211" cy="340" r="1.2" fill="#fff1b8" opacity="0.67"/>
<path d="M70 104 C132 68 288 68 350 104 M70 556 C132 592 288 592 350 556" fill="none" stroke="#d6a24f" stroke-opacity=".28" stroke-width="2"/>
<text x="64" y="78" fill="#fff1b8" font-size="22" font-family="Georgia,serif">05</text>
<text x="356" y="78" text-anchor="end" fill="#fff1b8" font-size="22" font-family="Georgia,serif">05</text>
<g filter="url(#glow)">
    <circle cx="210" cy="284" r="98" fill="#fde68a" opacity=".13"/>
    <circle cx="210" cy="284" r="70" fill="none" stroke="#fde68a" stroke-width="3" opacity=".72"/>
    <text x="210" y="306" text-anchor="middle" font-size="84" fill="#fde68a" font-family="Georgia,serif">✦</text>
    <path d="M136 432 C170 398 250 398 284 432" fill="none" stroke="#60a5fa" stroke-width="6" stroke-linecap="round" opacity=".68"/>
    </g>
<rect x="58" y="530" width="304" height="74" rx="17" fill="#050812" opacity=".74" stroke="#d6a24f" stroke-opacity=".30"/>
<text x="210" y="566" text-anchor="middle" fill="#fff7df" font-size="20" font-family="Georgia,serif">The Hierophant</text>
<text x="210" y="592" text-anchor="middle" fill="#c9b27a" font-size="9" font-family="Arial" letter-spacing="3">FATECARD ORIGINAL</text>
</svg>