<svg xmlns="http://www.w3.org/2000/svg" width="420" height="660" viewBox="0 0 420 660" role="img" aria-label="The Hanged Man">
<defs>
<linearGradient id="bg" x1="0" y1="0" x2="1" y2="1"><stop stop-color="#080b18"/><stop offset=".52" stop-color="#211436"/><stop offset="1" stop-color="#050812"/></linearGradient>
<radialGradient id="a" cx="50%" cy="40%" r="64%"><stop stop-color="#a78bfa" stop-opacity=".22"/><stop offset=".55" stop-color="#93c5fd" stop-opacity=".12"/><stop offset="1" stop-color="#000" stop-opacity="0"/></radialGradient>
<filter id="glow"><feDropShadow dx="0" dy="0" stdDeviation="5" flood-color="#a78bfa" flood-opacity=".42"/></filter>
</defs>
<rect width="420" height="660" rx="34" fill="url(#bg)"/>
<rect x="18" y="18" width="384" height="624" rx="30" fill="url(#a)" stroke="#d6a24f" stroke-opacity=".82" stroke-width="2.4"/>
<rect x="36" y="36" width="348" height="588" rx="22" fill="none" stroke="#93c5fd" stroke-opacity=".28" stroke-width="1.5"/>
<circle cx="179" cy="571" r="1.2" fill="#fff1b8" opacity="0.45"/>
<circle cx="178" cy="246" r="1.5" fill="#fff1b8" opacity="0.61"/>
<circle cx="113" cy="584" r="1.2" fill="#fff1b8" opacity="0.42"/>
<circle cx="190" cy="314" r="1.2" fill="#fff1b8" opacity="0.64"/>
<circle cx="78" cy="361" r="1.5" fill="#fff1b8" opacity="0.67"/>
<circle cx="210" cy="79" r="1.2" fill="#fff1b8" opacity="0.73"/>
<circle cx="42" cy="216" r="2" fill="#fff1b8" opacity="0.72"/>
<circle cx="152" cy="288" r="2" fill="#fff1b8" opacity="0.54"/>
<circle cx="245" cy="433" r="1.2" fill="#fff1b8" opacity="0.43"/>
<circle cx="146" cy="179" r="1" fill="#fff1b8" opacity="0.36"/>
<circle cx="357" cy="288" r="1.2" fill="#fff1b8" opacity="0.38"/>
<circle cx="282" cy="107" r="1.5" fill="#fff1b8" opacity="0.42"/>
<circle cx="117" cy="567" r="1.5" fill="#fff1b8" opacity="0.45"/>
<circle cx="173" cy="240" r="1" fill="#fff1b8" opacity="0.56"/>
<circle cx="102" cy="178" r="1.2" fill="#fff1b8" opacity="0.29"/>
<circle cx="148" cy="104" r="1.5" fill="#fff1b8" opacity="0.41"/>
<circle cx="137" cy="349" r="2" fill="#fff1b8" opacity="0.47"/>
<circle cx="64" cy="168" r="1.5" fill="#fff1b8" opacity="0.37"/>
<circle cx="214" cy="257" r="2" fill="#fff1b8" opacity="0.29"/>
<circle cx="153" cy="452" r="1.2" fill="#fff1b8" opacity="0.52"/>
<circle cx="240" cy="61" r="2" fill="#fff1b8" opacity="0.32"/>
<circle cx="196" cy="325" r="1" fill="#fff1b8" opacity="0.57"/>
<circle cx="257" cy="341" r="1" fill="#fff1b8" opacity="0.56"/>
<circle cx="53" cy="400" r="1" fill="#fff1b8" opacity="0.45"/>
<circle cx="195" cy="133" r="1" fill="#fff1b8" opacity="0.71"/>
<circle cx="135" cy="328" r="1" fill="#fff1b8" opacity="0.43"/>
<circle cx="74" cy="354" r="1.2" fill="#fff1b8" opacity="0.57"/>
<circle cx="238" cy="189" r="1.2" fill="#fff1b8" opacity="0.60"/>
<circle cx="56" cy="132" r="1" fill="#fff1b8" opacity="0.65"/>
<circle cx="248" cy="347" r="1.5" fill="#fff1b8" opacity="0.32"/>
<circle cx="374" cy="454" r="1" fill="#fff1b8" opacity="0.33"/>
<circle cx="184" cy="63" r="1" fill="#fff1b8" opacity="0.39"/>
<circle cx="59" cy="242" r="1.5" fill="#fff1b8" opacity="0.39"/>
<circle cx="200" cy="302" r="2" fill="#fff1b8" opacity="0.28"/>
<circle cx="366" cy="332" r="2" fill="#fff1b8" opacity="0.65"/>
<circle cx="98" cy="421" r="1" fill="#fff1b8" opacity="0.61"/>
<circle cx="66" cy="430" r="1.2" fill="#fff1b8" opacity="0.58"/>
<circle cx="358" cy="468" r="1.2" fill="#fff1b8" opacity="0.65"/>
<path d="M70 104 C132 68 288 68 350 104 M70 556 C132 592 288 592 350 556" fill="none" stroke="#d6a24f" stroke-opacity=".28" stroke-width="2"/>
<text x="64" y="78" fill="#fff1b8" font-size="22" font-family="Georgia,serif">12</text>
<text x="356" y="78" text-anchor="end" fill="#fff1b8" font-size="22" font-family="Georgia,serif">12</text>
<g filter="url(#glow)">
    <circle cx="210" cy="284" r="98" fill="#a78bfa" opacity=".13"/>
    <circle cx="210" cy="284" r="70" fill="none" stroke="#a78bfa" stroke-width="3" opacity=".72"/>
    <text x="210" y="306" text-anchor="middle" font-size="84" fill="#a78bfa" font-family="Georgia,serif">✦</text>
    <path d="M136 432 C170 398 250 398 284 432" fill="none" stroke="#93c5fd" stroke-width="6" stroke-linecap="round" opacity=".68"/>
    </g>
<rect x="58" y="530" width="304" height="74" rx="17" fill="#050812" opacity=".74" stroke="#d6a24f" stroke-opacity=".30"/>
<text x="210" y="566" text-anchor="middle" fill="#fff7df" font-size="20" font-family="Georgia,serif">The Hanged Man</text>
<text x="210" y="592" text-anchor="middle" fill="#c9b27a" font-size="9" font-family="Arial" letter-spacing="3">FATECARD ORIGINAL</text>
</svg>