<svg xmlns="http://www.w3.org/2000/svg" width="420" height="660" viewBox="0 0 420 660" role="img" aria-label="Judgement">
  <defs>
    <linearGradient id="bg" x1="0" y1="0" x2="1" y2="1">
      <stop offset="0%" stop-color="#050816"/>
      <stop offset="45%" stop-color="#17102d"/>
      <stop offset="100%" stop-color="#020617"/>
    </linearGradient>
    <radialGradient id="aura" cx="50%" cy="38%" r="68%">
      <stop offset="0%" stop-color="#facc15" stop-opacity=".18"/>
      <stop offset="52%" stop-color="#a78bfa" stop-opacity=".10"/>
      <stop offset="100%" stop-color="#020617" stop-opacity="0"/>
    </radialGradient>
    <filter id="glow" x="-30%" y="-30%" width="160%" height="160%">
      <feDropShadow dx="0" dy="0" stdDeviation="6" flood-color="#f9a8d4" flood-opacity=".42"/>
    </filter>
  </defs>
  <rect width="420" height="660" rx="34" fill="url(#bg)"/>
  <rect x="20" y="20" width="380" height="620" rx="30" fill="url(#aura)" stroke="#facc15" stroke-opacity=".54" stroke-width="2"/>
  <rect x="35" y="35" width="350" height="590" rx="22" fill="none" stroke="#a78bfa" stroke-opacity=".18" stroke-width="1.5"/>
  <circle cx="201" cy="260" r="1.4" fill="#fde68a" opacity="0.83"/>
<circle cx="194" cy="169" r="2.2" fill="#fde68a" opacity="0.62"/>
<circle cx="57" cy="361" r="1.8" fill="#fde68a" opacity="0.80"/>
<circle cx="253" cy="505" r="1.0" fill="#fde68a" opacity="0.84"/>
<circle cx="236" cy="165" r="1.8" fill="#fde68a" opacity="0.66"/>
<circle cx="56" cy="100" r="1.0" fill="#fde68a" opacity="0.43"/>
<circle cx="107" cy="306" r="2.2" fill="#fde68a" opacity="0.29"/>
<circle cx="261" cy="165" r="2.2" fill="#fde68a" opacity="0.30"/>
<circle cx="89" cy="72" r="2.2" fill="#fde68a" opacity="0.62"/>
<circle cx="186" cy="156" r="2.2" fill="#fde68a" opacity="0.58"/>
<circle cx="58" cy="189" r="1.4" fill="#fde68a" opacity="0.49"/>
<circle cx="311" cy="431" r="1.8" fill="#fde68a" opacity="0.49"/>
<circle cx="94" cy="209" r="1.0" fill="#fde68a" opacity="0.82"/>
<circle cx="224" cy="176" r="1.0" fill="#fde68a" opacity="0.62"/>
<circle cx="60" cy="440" r="2.2" fill="#fde68a" opacity="0.52"/>
<circle cx="92" cy="375" r="1.4" fill="#fde68a" opacity="0.80"/>
<circle cx="179" cy="306" r="1.4" fill="#fde68a" opacity="0.33"/>
<circle cx="134" cy="203" r="1.0" fill="#fde68a" opacity="0.74"/>
<circle cx="60" cy="510" r="1.8" fill="#fde68a" opacity="0.28"/>
<circle cx="279" cy="223" r="1.4" fill="#fde68a" opacity="0.75"/>
<circle cx="80" cy="492" r="1.0" fill="#fde68a" opacity="0.41"/>
<circle cx="252" cy="452" r="1.4" fill="#fde68a" opacity="0.82"/>
<circle cx="230" cy="319" r="1.0" fill="#fde68a" opacity="0.37"/>
<circle cx="277" cy="469" r="1.8" fill="#fde68a" opacity="0.82"/>
<circle cx="64" cy="77" r="2.2" fill="#fde68a" opacity="0.71"/>
<circle cx="377" cy="65" r="1.0" fill="#fde68a" opacity="0.66"/>
<circle cx="318" cy="377" r="2.2" fill="#fde68a" opacity="0.78"/>
<circle cx="111" cy="206" r="1.0" fill="#fde68a" opacity="0.65"/>
<circle cx="78" cy="514" r="1.0" fill="#fde68a" opacity="0.66"/>
<circle cx="240" cy="200" r="1.0" fill="#fde68a" opacity="0.57"/>
<circle cx="377" cy="363" r="1.0" fill="#fde68a" opacity="0.82"/>
<circle cx="220" cy="352" r="2.2" fill="#fde68a" opacity="0.31"/>
<circle cx="295" cy="131" r="2.2" fill="#fde68a" opacity="0.51"/>
<circle cx="65" cy="203" r="1.0" fill="#fde68a" opacity="0.79"/>
  
    <path d="M55 118 C120 74 300 74 365 118" fill="none" stroke="#f9a8d4" stroke-opacity=".28" stroke-width="2"/>
    <path d="M55 542 C120 586 300 586 365 542" fill="none" stroke="#f9a8d4" stroke-opacity=".28" stroke-width="2"/>
    <path d="M74 88 L98 88 M322 88 L346 88 M74 572 L98 572 M322 572 L346 572" stroke="#fde68a" stroke-opacity=".50" stroke-width="2" stroke-linecap="round"/>
    <circle cx="80" cy="100" r="10" fill="none" stroke="#fde68a" stroke-opacity=".45"/>
    <circle cx="340" cy="100" r="10" fill="none" stroke="#fde68a" stroke-opacity=".45"/>
    <circle cx="80" cy="560" r="10" fill="none" stroke="#fde68a" stroke-opacity=".45"/>
    <circle cx="340" cy="560" r="10" fill="none" stroke="#fde68a" stroke-opacity=".45"/>
    
  
        <g filter="url(#glow)">
          <circle cx="210" cy="288" r="118" fill="#f9a8d4" opacity=".11"/>
          <circle cx="210" cy="288" r="91" fill="none" stroke="#f9a8d4" stroke-width="3" stroke-opacity=".74"/>
          <circle cx="210" cy="288" r="58" fill="#fde68a" opacity=".12" stroke="#fde68a" stroke-width="2" stroke-opacity=".55"/>
          <text x="210" y="310" text-anchor="middle" font-size="96" font-family="Georgia, serif" fill="#f9a8d4">◈</text>
        </g>
        <path d="M132 430 C164 404, 256 404, 288 430" fill="none" stroke="#f9a8d4" stroke-width="6" stroke-linecap="round" stroke-opacity=".62"/>
        <path d="M156 452 C184 438, 236 438, 264 452" fill="none" stroke="#fde68a" stroke-width="3" stroke-linecap="round" stroke-opacity=".56"/>
        <text x="62" y="86" font-size="24" font-family="Georgia, serif" fill="#fff7ed">20</text>
        <text x="358" y="86" text-anchor="end" font-size="24" font-family="Georgia, serif" fill="#fff7ed">20</text>
        
  <rect x="58" y="522" width="304" height="76" rx="18" fill="#020617" opacity=".62" stroke="#facc15" stroke-opacity=".24"/>
  <text x="210" y="558" text-anchor="middle" font-size="20" font-family="Georgia, serif" fill="#fff7ed">Judgement</text>
  <text x="210" y="586" text-anchor="middle" font-size="9" font-family="Arial, sans-serif" letter-spacing="3" fill="#c4b5fd">ORIGINAL SYMBOLIC DECK</text>
</svg>