<svg xmlns="http://www.w3.org/2000/svg" width="420" height="660" viewBox="0 0 420 660" role="img" aria-label="The Emperor">
<defs>
<linearGradient id="bg" x1="0" y1="0" x2="1" y2="1"><stop stop-color="#080b18"/><stop offset=".52" stop-color="#211436"/><stop offset="1" stop-color="#050812"/></linearGradient>
<radialGradient id="a" cx="50%" cy="40%" r="64%"><stop stop-color="#fb923c" stop-opacity=".22"/><stop offset=".55" stop-color="#fde68a" stop-opacity=".12"/><stop offset="1" stop-color="#000" stop-opacity="0"/></radialGradient>
<filter id="glow"><feDropShadow dx="0" dy="0" stdDeviation="5" flood-color="#fb923c" flood-opacity=".42"/></filter>
</defs>
<rect width="420" height="660" rx="34" fill="url(#bg)"/>
<rect x="18" y="18" width="384" height="624" rx="30" fill="url(#a)" stroke="#d6a24f" stroke-opacity=".82" stroke-width="2.4"/>
<rect x="36" y="36" width="348" height="588" rx="22" fill="none" stroke="#fde68a" stroke-opacity=".28" stroke-width="1.5"/>
<circle cx="359" cy="277" r="1.2" fill="#fff1b8" opacity="0.41"/>
<circle cx="272" cy="556" r="2" fill="#fff1b8" opacity="0.53"/>
<circle cx="259" cy="406" r="1" fill="#fff1b8" opacity="0.61"/>
<circle cx="262" cy="120" r="1.5" fill="#fff1b8" opacity="0.41"/>
<circle cx="366" cy="100" r="1.5" fill="#fff1b8" opacity="0.74"/>
<circle cx="123" cy="336" r="1.5" fill="#fff1b8" opacity="0.64"/>
<circle cx="196" cy="167" r="2" fill="#fff1b8" opacity="0.30"/>
<circle cx="189" cy="64" r="1" fill="#fff1b8" opacity="0.45"/>
<circle cx="146" cy="276" r="1" fill="#fff1b8" opacity="0.29"/>
<circle cx="213" cy="443" r="2" fill="#fff1b8" opacity="0.29"/>
<circle cx="230" cy="61" r="1" fill="#fff1b8" opacity="0.39"/>
<circle cx="47" cy="394" r="1.5" fill="#fff1b8" opacity="0.77"/>
<circle cx="215" cy="172" r="2" fill="#fff1b8" opacity="0.72"/>
<circle cx="281" cy="70" r="1" fill="#fff1b8" opacity="0.51"/>
<circle cx="98" cy="418" r="1.5" fill="#fff1b8" opacity="0.62"/>
<circle cx="67" cy="262" r="1.5" fill="#fff1b8" opacity="0.34"/>
<circle cx="108" cy="296" r="1.5" fill="#fff1b8" opacity="0.27"/>
<circle cx="340" cy="481" r="2" fill="#fff1b8" opacity="0.30"/>
<circle cx="241" cy="278" r="1" fill="#fff1b8" opacity="0.28"/>
<circle cx="164" cy="288" r="1.2" fill="#fff1b8" opacity="0.75"/>
<circle cx="213" cy="134" r="1.2" fill="#fff1b8" opacity="0.32"/>
<circle cx="306" cy="159" r="1.2" fill="#fff1b8" opacity="0.65"/>
<circle cx="93" cy="573" r="1" fill="#fff1b8" opacity="0.56"/>
<circle cx="55" cy="450" r="1" fill="#fff1b8" opacity="0.60"/>
<circle cx="311" cy="360" r="2" fill="#fff1b8" opacity="0.58"/>
<circle cx="315" cy="455" r="1" fill="#fff1b8" opacity="0.65"/>
<circle cx="150" cy="534" r="1.5" fill="#fff1b8" opacity="0.65"/>
<circle cx="59" cy="576" r="1.5" fill="#fff1b8" opacity="0.38"/>
<circle cx="298" cy="163" r="1.2" fill="#fff1b8" opacity="0.32"/>
<circle cx="290" cy="128" r="1" fill="#fff1b8" opacity="0.53"/>
<circle cx="65" cy="475" r="1" fill="#fff1b8" opacity="0.60"/>
<circle cx="295" cy="468" r="1.2" fill="#fff1b8" opacity="0.44"/>
<circle cx="140" cy="334" r="1.5" fill="#fff1b8" opacity="0.52"/>
<circle cx="87" cy="74" r="1" fill="#fff1b8" opacity="0.30"/>
<circle cx="117" cy="335" r="1" fill="#fff1b8" opacity="0.43"/>
<circle cx="109" cy="257" r="1.5" fill="#fff1b8" opacity="0.38"/>
<circle cx="291" cy="479" r="1.5" fill="#fff1b8" opacity="0.44"/>
<circle cx="321" cy="190" r="1.5" fill="#fff1b8" opacity="0.41"/>
<path d="M70 104 C132 68 288 68 350 104 M70 556 C132 592 288 592 350 556" fill="none" stroke="#d6a24f" stroke-opacity=".28" stroke-width="2"/>
<text x="64" y="78" fill="#fff1b8" font-size="22" font-family="Georgia,serif">04</text>
<text x="356" y="78" text-anchor="end" fill="#fff1b8" font-size="22" font-family="Georgia,serif">04</text>
<g filter="url(#glow)">
        <ellipse cx="210" cy="430" rx="108" ry="24" fill="#fde68a" opacity=".15"/>
        <path d="M140 378 C174 306 236 306 280 378" fill="#fb923c" opacity=".16" stroke="#fb923c" stroke-width="3"/>
        <circle cx="210" cy="232" r="38" fill="#fde68a" opacity=".20" stroke="#fb923c" stroke-width="3"/>
        <path d="M166 300 L254 300 L282 410 L138 410 Z" fill="#fb923c" opacity=".20" stroke="#fde68a" stroke-width="3"/>
        <path d="M254 228 C286 252 296 292 282 334" fill="none" stroke="#fb923c" stroke-width="6" stroke-linecap="round"/>
        <text x="210" y="318" text-anchor="middle" font-size="56" fill="#fb923c" font-family="Georgia,serif">♞</text>
        </g>
<rect x="58" y="530" width="304" height="74" rx="17" fill="#050812" opacity=".74" stroke="#d6a24f" stroke-opacity=".30"/>
<text x="210" y="566" text-anchor="middle" fill="#fff7df" font-size="20" font-family="Georgia,serif">The Emperor</text>
<text x="210" y="592" text-anchor="middle" fill="#c9b27a" font-size="9" font-family="Arial" letter-spacing="3">FATECARD ORIGINAL</text>
</svg>