<svg xmlns="http://www.w3.org/2000/svg" width="420" height="660" viewBox="0 0 420 660" role="img" aria-label="The Empress">
<defs>
<linearGradient id="bg" x1="0" y1="0" x2="1" y2="1"><stop stop-color="#080b18"/><stop offset=".52" stop-color="#211436"/><stop offset="1" stop-color="#050812"/></linearGradient>
<radialGradient id="a" cx="50%" cy="40%" r="64%"><stop stop-color="#f9a8d4" stop-opacity=".22"/><stop offset=".55" stop-color="#34d399" stop-opacity=".12"/><stop offset="1" stop-color="#000" stop-opacity="0"/></radialGradient>
<filter id="glow"><feDropShadow dx="0" dy="0" stdDeviation="5" flood-color="#f9a8d4" flood-opacity=".42"/></filter>
</defs>
<rect width="420" height="660" rx="34" fill="url(#bg)"/>
<rect x="18" y="18" width="384" height="624" rx="30" fill="url(#a)" stroke="#d6a24f" stroke-opacity=".82" stroke-width="2.4"/>
<rect x="36" y="36" width="348" height="588" rx="22" fill="none" stroke="#34d399" stroke-opacity=".28" stroke-width="1.5"/>
<circle cx="285" cy="125" r="1" fill="#fff1b8" opacity="0.71"/>
<circle cx="222" cy="283" r="1.5" fill="#fff1b8" opacity="0.36"/>
<circle cx="302" cy="347" r="2" fill="#fff1b8" opacity="0.76"/>
<circle cx="216" cy="82" r="1.2" fill="#fff1b8" opacity="0.77"/>
<circle cx="148" cy="546" r="1" fill="#fff1b8" opacity="0.71"/>
<circle cx="63" cy="138" r="1" fill="#fff1b8" opacity="0.34"/>
<circle cx="96" cy="136" r="1.2" fill="#fff1b8" opacity="0.38"/>
<circle cx="147" cy="181" r="2" fill="#fff1b8" opacity="0.64"/>
<circle cx="92" cy="121" r="1.5" fill="#fff1b8" opacity="0.61"/>
<circle cx="104" cy="455" r="1.2" fill="#fff1b8" opacity="0.38"/>
<circle cx="126" cy="379" r="1.2" fill="#fff1b8" opacity="0.38"/>
<circle cx="228" cy="142" r="2" fill="#fff1b8" opacity="0.77"/>
<circle cx="44" cy="164" r="1" fill="#fff1b8" opacity="0.51"/>
<circle cx="54" cy="167" r="1.5" fill="#fff1b8" opacity="0.47"/>
<circle cx="300" cy="531" r="1.5" fill="#fff1b8" opacity="0.71"/>
<circle cx="153" cy="215" r="1.2" fill="#fff1b8" opacity="0.58"/>
<circle cx="74" cy="509" r="1" fill="#fff1b8" opacity="0.51"/>
<circle cx="51" cy="156" r="1" fill="#fff1b8" opacity="0.51"/>
<circle cx="233" cy="137" r="1.2" fill="#fff1b8" opacity="0.33"/>
<circle cx="168" cy="484" r="2" fill="#fff1b8" opacity="0.72"/>
<circle cx="87" cy="276" r="1.5" fill="#fff1b8" opacity="0.33"/>
<circle cx="266" cy="558" r="1.2" fill="#fff1b8" opacity="0.38"/>
<circle cx="304" cy="329" r="1.2" fill="#fff1b8" opacity="0.74"/>
<circle cx="351" cy="88" r="2" fill="#fff1b8" opacity="0.43"/>
<circle cx="277" cy="556" r="2" fill="#fff1b8" opacity="0.39"/>
<circle cx="43" cy="155" r="2" fill="#fff1b8" opacity="0.28"/>
<circle cx="45" cy="426" r="2" fill="#fff1b8" opacity="0.56"/>
<circle cx="336" cy="93" r="1" fill="#fff1b8" opacity="0.40"/>
<circle cx="101" cy="193" r="1.2" fill="#fff1b8" opacity="0.56"/>
<circle cx="361" cy="71" r="2" fill="#fff1b8" opacity="0.62"/>
<circle cx="354" cy="500" r="1.5" fill="#fff1b8" opacity="0.37"/>
<circle cx="183" cy="109" r="1" fill="#fff1b8" opacity="0.76"/>
<circle cx="270" cy="401" r="1" fill="#fff1b8" opacity="0.52"/>
<circle cx="134" cy="499" r="1.5" fill="#fff1b8" opacity="0.41"/>
<circle cx="123" cy="268" r="1" fill="#fff1b8" opacity="0.63"/>
<circle cx="257" cy="247" r="1.5" fill="#fff1b8" opacity="0.37"/>
<circle cx="319" cy="97" r="1" fill="#fff1b8" opacity="0.66"/>
<circle cx="183" cy="488" r="1.5" fill="#fff1b8" opacity="0.78"/>
<path d="M70 104 C132 68 288 68 350 104 M70 556 C132 592 288 592 350 556" fill="none" stroke="#d6a24f" stroke-opacity=".28" stroke-width="2"/>
<text x="64" y="78" fill="#fff1b8" font-size="22" font-family="Georgia,serif">03</text>
<text x="356" y="78" text-anchor="end" fill="#fff1b8" font-size="22" font-family="Georgia,serif">03</text>
<g filter="url(#glow)">
        <ellipse cx="210" cy="418" rx="90" ry="22" fill="#34d399" opacity=".16"/>
        <path d="M154 420 C166 322 184 254 210 224 C236 254 254 322 266 420 Z" fill="#f9a8d4" opacity=".20" stroke="#f9a8d4" stroke-opacity=".72" stroke-width="3"/>
        <circle cx="210" cy="206" r="42" fill="#34d399" opacity=".24" stroke="#f9a8d4" stroke-width="3"/>
        <path d="M178 268 C200 286 220 286 242 268" fill="none" stroke="#34d399" stroke-width="5" stroke-linecap="round" opacity=".70"/>
        <text x="210" y="212" text-anchor="middle" dominant-baseline="middle" font-size="46" fill="#f9a8d4" font-family="Georgia,serif">☾</text>
        </g>
<rect x="58" y="530" width="304" height="74" rx="17" fill="#050812" opacity=".74" stroke="#d6a24f" stroke-opacity=".30"/>
<text x="210" y="566" text-anchor="middle" fill="#fff7df" font-size="20" font-family="Georgia,serif">The Empress</text>
<text x="210" y="592" text-anchor="middle" fill="#c9b27a" font-size="9" font-family="Arial" letter-spacing="3">FATECARD ORIGINAL</text>
</svg>