<svg xmlns="http://www.w3.org/2000/svg" width="420" height="660" viewBox="0 0 420 660" role="img" aria-label="The Star">
  <defs>
    <linearGradient id="bg" x1="0" y1="0" x2="1" y2="1">
      <stop offset="0%" stop-color="#050816"/>
      <stop offset="45%" stop-color="#17102d"/>
      <stop offset="100%" stop-color="#020617"/>
    </linearGradient>
    <radialGradient id="aura" cx="50%" cy="38%" r="68%">
      <stop offset="0%" stop-color="#facc15" stop-opacity=".18"/>
      <stop offset="52%" stop-color="#a78bfa" stop-opacity=".10"/>
      <stop offset="100%" stop-color="#020617" stop-opacity="0"/>
    </radialGradient>
    <filter id="glow" x="-30%" y="-30%" width="160%" height="160%">
      <feDropShadow dx="0" dy="0" stdDeviation="6" flood-color="#bfdbfe" flood-opacity=".42"/>
    </filter>
  </defs>
  <rect width="420" height="660" rx="34" fill="url(#bg)"/>
  <rect x="20" y="20" width="380" height="620" rx="30" fill="url(#aura)" stroke="#facc15" stroke-opacity=".54" stroke-width="2"/>
  <rect x="35" y="35" width="350" height="590" rx="22" fill="none" stroke="#a78bfa" stroke-opacity=".18" stroke-width="1.5"/>
  <circle cx="345" cy="276" r="1.8" fill="#fde68a" opacity="0.74"/>
<circle cx="344" cy="537" r="1.8" fill="#fde68a" opacity="0.80"/>
<circle cx="335" cy="469" r="1.0" fill="#fde68a" opacity="0.38"/>
<circle cx="264" cy="229" r="1.8" fill="#fde68a" opacity="0.82"/>
<circle cx="99" cy="168" r="1.4" fill="#fde68a" opacity="0.57"/>
<circle cx="61" cy="269" r="1.0" fill="#fde68a" opacity="0.30"/>
<circle cx="303" cy="357" r="2.2" fill="#fde68a" opacity="0.78"/>
<circle cx="260" cy="123" r="1.8" fill="#fde68a" opacity="0.46"/>
<circle cx="198" cy="269" r="1.8" fill="#fde68a" opacity="0.82"/>
<circle cx="88" cy="112" r="2.2" fill="#fde68a" opacity="0.50"/>
<circle cx="94" cy="222" r="1.0" fill="#fde68a" opacity="0.35"/>
<circle cx="252" cy="238" r="2.2" fill="#fde68a" opacity="0.70"/>
<circle cx="315" cy="126" r="2.2" fill="#fde68a" opacity="0.48"/>
<circle cx="84" cy="250" r="1.8" fill="#fde68a" opacity="0.71"/>
<circle cx="77" cy="315" r="1.8" fill="#fde68a" opacity="0.34"/>
<circle cx="375" cy="557" r="1.0" fill="#fde68a" opacity="0.73"/>
<circle cx="41" cy="556" r="2.2" fill="#fde68a" opacity="0.29"/>
<circle cx="77" cy="530" r="1.4" fill="#fde68a" opacity="0.68"/>
<circle cx="349" cy="498" r="1.0" fill="#fde68a" opacity="0.70"/>
<circle cx="258" cy="588" r="1.0" fill="#fde68a" opacity="0.40"/>
<circle cx="73" cy="120" r="1.8" fill="#fde68a" opacity="0.57"/>
<circle cx="289" cy="184" r="1.4" fill="#fde68a" opacity="0.70"/>
<circle cx="380" cy="488" r="1.0" fill="#fde68a" opacity="0.43"/>
<circle cx="155" cy="123" r="1.4" fill="#fde68a" opacity="0.69"/>
<circle cx="257" cy="331" r="2.2" fill="#fde68a" opacity="0.44"/>
<circle cx="324" cy="365" r="1.0" fill="#fde68a" opacity="0.84"/>
<circle cx="51" cy="450" r="1.8" fill="#fde68a" opacity="0.82"/>
<circle cx="121" cy="421" r="1.0" fill="#fde68a" opacity="0.73"/>
<circle cx="259" cy="481" r="1.8" fill="#fde68a" opacity="0.72"/>
<circle cx="54" cy="552" r="1.8" fill="#fde68a" opacity="0.67"/>
<circle cx="167" cy="148" r="1.4" fill="#fde68a" opacity="0.74"/>
<circle cx="127" cy="106" r="1.0" fill="#fde68a" opacity="0.69"/>
<circle cx="256" cy="300" r="1.4" fill="#fde68a" opacity="0.51"/>
<circle cx="114" cy="186" r="1.0" fill="#fde68a" opacity="0.55"/>
  
    <path d="M55 118 C120 74 300 74 365 118" fill="none" stroke="#bfdbfe" stroke-opacity=".28" stroke-width="2"/>
    <path d="M55 542 C120 586 300 586 365 542" fill="none" stroke="#bfdbfe" stroke-opacity=".28" stroke-width="2"/>
    <path d="M74 88 L98 88 M322 88 L346 88 M74 572 L98 572 M322 572 L346 572" stroke="#fde68a" stroke-opacity=".50" stroke-width="2" stroke-linecap="round"/>
    <circle cx="80" cy="100" r="10" fill="none" stroke="#fde68a" stroke-opacity=".45"/>
    <circle cx="340" cy="100" r="10" fill="none" stroke="#fde68a" stroke-opacity=".45"/>
    <circle cx="80" cy="560" r="10" fill="none" stroke="#fde68a" stroke-opacity=".45"/>
    <circle cx="340" cy="560" r="10" fill="none" stroke="#fde68a" stroke-opacity=".45"/>
    
  
        <g filter="url(#glow)">
          <circle cx="210" cy="288" r="118" fill="#bfdbfe" opacity=".11"/>
          <circle cx="210" cy="288" r="91" fill="none" stroke="#bfdbfe" stroke-width="3" stroke-opacity=".74"/>
          <circle cx="210" cy="288" r="58" fill="#fde68a" opacity=".12" stroke="#fde68a" stroke-width="2" stroke-opacity=".55"/>
          <text x="210" y="310" text-anchor="middle" font-size="96" font-family="Georgia, serif" fill="#bfdbfe">✶</text>
        </g>
        <path d="M132 430 C164 404, 256 404, 288 430" fill="none" stroke="#bfdbfe" stroke-width="6" stroke-linecap="round" stroke-opacity=".62"/>
        <path d="M156 452 C184 438, 236 438, 264 452" fill="none" stroke="#fde68a" stroke-width="3" stroke-linecap="round" stroke-opacity=".56"/>
        <text x="62" y="86" font-size="24" font-family="Georgia, serif" fill="#fff7ed">17</text>
        <text x="358" y="86" text-anchor="end" font-size="24" font-family="Georgia, serif" fill="#fff7ed">17</text>
        
  <rect x="58" y="522" width="304" height="76" rx="18" fill="#020617" opacity=".62" stroke="#facc15" stroke-opacity=".24"/>
  <text x="210" y="558" text-anchor="middle" font-size="20" font-family="Georgia, serif" fill="#fff7ed">The Star</text>
  <text x="210" y="586" text-anchor="middle" font-size="9" font-family="Arial, sans-serif" letter-spacing="3" fill="#c4b5fd">ORIGINAL SYMBOLIC DECK</text>
</svg>