<svg xmlns="http://www.w3.org/2000/svg" width="420" height="660" viewBox="0 0 420 660" role="img" aria-label="Four of Cups">
<defs>
<linearGradient id="bg" x1="0" y1="0" x2="1" y2="1"><stop stop-color="#080b18"/><stop offset=".52" stop-color="#211436"/><stop offset="1" stop-color="#050812"/></linearGradient>
<radialGradient id="a" cx="50%" cy="40%" r="64%"><stop stop-color="#38bdf8" stop-opacity=".22"/><stop offset=".55" stop-color="#93c5fd" stop-opacity=".12"/><stop offset="1" stop-color="#000" stop-opacity="0"/></radialGradient>
<filter id="glow"><feDropShadow dx="0" dy="0" stdDeviation="5" flood-color="#38bdf8" flood-opacity=".42"/></filter>
</defs>
<rect width="420" height="660" rx="34" fill="url(#bg)"/>
<rect x="18" y="18" width="384" height="624" rx="30" fill="url(#a)" stroke="#d6a24f" stroke-opacity=".82" stroke-width="2.4"/>
<rect x="36" y="36" width="348" height="588" rx="22" fill="none" stroke="#93c5fd" stroke-opacity=".28" stroke-width="1.5"/>
<circle cx="283" cy="565" r="1" fill="#fff1b8" opacity="0.29"/>
<circle cx="147" cy="210" r="1" fill="#fff1b8" opacity="0.32"/>
<circle cx="123" cy="330" r="1.2" fill="#fff1b8" opacity="0.64"/>
<circle cx="87" cy="367" r="2" fill="#fff1b8" opacity="0.60"/>
<circle cx="358" cy="84" r="1.2" fill="#fff1b8" opacity="0.42"/>
<circle cx="202" cy="60" r="1" fill="#fff1b8" opacity="0.53"/>
<circle cx="328" cy="487" r="1" fill="#fff1b8" opacity="0.57"/>
<circle cx="228" cy="398" r="1" fill="#fff1b8" opacity="0.73"/>
<circle cx="246" cy="571" r="1" fill="#fff1b8" opacity="0.60"/>
<circle cx="278" cy="579" r="2" fill="#fff1b8" opacity="0.48"/>
<circle cx="174" cy="184" r="1" fill="#fff1b8" opacity="0.49"/>
<circle cx="221" cy="213" r="2" fill="#fff1b8" opacity="0.77"/>
<circle cx="347" cy="86" r="2" fill="#fff1b8" opacity="0.26"/>
<circle cx="153" cy="369" r="1.2" fill="#fff1b8" opacity="0.54"/>
<circle cx="267" cy="367" r="1.5" fill="#fff1b8" opacity="0.33"/>
<circle cx="182" cy="469" r="1" fill="#fff1b8" opacity="0.69"/>
<circle cx="350" cy="157" r="2" fill="#fff1b8" opacity="0.38"/>
<circle cx="300" cy="63" r="1.2" fill="#fff1b8" opacity="0.56"/>
<circle cx="122" cy="295" r="1" fill="#fff1b8" opacity="0.35"/>
<circle cx="369" cy="125" r="1" fill="#fff1b8" opacity="0.40"/>
<circle cx="242" cy="479" r="1.5" fill="#fff1b8" opacity="0.27"/>
<circle cx="152" cy="351" r="2" fill="#fff1b8" opacity="0.52"/>
<circle cx="302" cy="362" r="2" fill="#fff1b8" opacity="0.71"/>
<circle cx="289" cy="95" r="2" fill="#fff1b8" opacity="0.61"/>
<circle cx="98" cy="585" r="1" fill="#fff1b8" opacity="0.37"/>
<circle cx="208" cy="86" r="1.5" fill="#fff1b8" opacity="0.65"/>
<circle cx="293" cy="441" r="1.5" fill="#fff1b8" opacity="0.58"/>
<circle cx="153" cy="290" r="1.5" fill="#fff1b8" opacity="0.31"/>
<circle cx="118" cy="377" r="2" fill="#fff1b8" opacity="0.28"/>
<circle cx="181" cy="506" r="2" fill="#fff1b8" opacity="0.62"/>
<circle cx="277" cy="92" r="1.2" fill="#fff1b8" opacity="0.28"/>
<circle cx="54" cy="417" r="2" fill="#fff1b8" opacity="0.34"/>
<circle cx="146" cy="96" r="1.5" fill="#fff1b8" opacity="0.68"/>
<circle cx="137" cy="208" r="2" fill="#fff1b8" opacity="0.73"/>
<circle cx="216" cy="170" r="2" fill="#fff1b8" opacity="0.29"/>
<circle cx="53" cy="160" r="2" fill="#fff1b8" opacity="0.61"/>
<circle cx="182" cy="284" r="1.5" fill="#fff1b8" opacity="0.64"/>
<circle cx="44" cy="207" r="1" fill="#fff1b8" opacity="0.44"/>
<path d="M70 104 C132 68 288 68 350 104 M70 556 C132 592 288 592 350 556" fill="none" stroke="#d6a24f" stroke-opacity=".28" stroke-width="2"/>
<text x="64" y="78" fill="#fff1b8" font-size="22" font-family="Georgia,serif">IV</text>
<text x="356" y="78" text-anchor="end" fill="#fff1b8" font-size="22" font-family="Georgia,serif">IV</text>
<g filter="url(#glow)"><circle cx="210" cy="292" r="122" fill="#93c5fd" opacity=".08"/><circle cx="210" cy="292" r="92" fill="none" stroke="#38bdf8" stroke-opacity=".36" stroke-width="2"/><text x="210" y="156" text-anchor="middle" dominant-baseline="middle" font-size="42" fill="#38bdf8" font-family="Georgia,serif">●</text><text x="154" y="218" text-anchor="middle" dominant-baseline="middle" font-size="42" fill="#38bdf8" font-family="Georgia,serif">●</text><text x="266" y="218" text-anchor="middle" dominant-baseline="middle" font-size="42" fill="#38bdf8" font-family="Georgia,serif">●</text><text x="154" y="294" text-anchor="middle" dominant-baseline="middle" font-size="42" fill="#38bdf8" font-family="Georgia,serif">●</text><path d="M130 464 C172 428 248 428 290 464" fill="none" stroke="#38bdf8" stroke-width="5" stroke-linecap="round" opacity=".6"/></g>
<rect x="58" y="530" width="304" height="74" rx="17" fill="#050812" opacity=".74" stroke="#d6a24f" stroke-opacity=".30"/>
<text x="210" y="566" text-anchor="middle" fill="#fff7df" font-size="20" font-family="Georgia,serif">Four of Cups</text>
<text x="210" y="592" text-anchor="middle" fill="#c9b27a" font-size="9" font-family="Arial" letter-spacing="3">FATECARD ORIGINAL</text>
</svg>