<svg xmlns="http://www.w3.org/2000/svg" width="420" height="660" viewBox="0 0 420 660" role="img" aria-label="Page of Cups">
  <defs>
    <linearGradient id="bg" x1="0" y1="0" x2="1" y2="1">
      <stop offset="0%" stop-color="#050816"/>
      <stop offset="45%" stop-color="#17102d"/>
      <stop offset="100%" stop-color="#020617"/>
    </linearGradient>
    <radialGradient id="aura" cx="50%" cy="38%" r="68%">
      <stop offset="0%" stop-color="#facc15" stop-opacity=".18"/>
      <stop offset="52%" stop-color="#a78bfa" stop-opacity=".10"/>
      <stop offset="100%" stop-color="#020617" stop-opacity="0"/>
    </radialGradient>
    <filter id="glow" x="-30%" y="-30%" width="160%" height="160%">
      <feDropShadow dx="0" dy="0" stdDeviation="6" flood-color="#38bdf8" flood-opacity=".42"/>
    </filter>
  </defs>
  <rect width="420" height="660" rx="34" fill="url(#bg)"/>
  <rect x="20" y="20" width="380" height="620" rx="30" fill="url(#aura)" stroke="#facc15" stroke-opacity=".54" stroke-width="2"/>
  <rect x="35" y="35" width="350" height="590" rx="22" fill="none" stroke="#a78bfa" stroke-opacity=".18" stroke-width="1.5"/>
  <circle cx="146" cy="174" r="1.0" fill="#fde68a" opacity="0.36"/>
<circle cx="131" cy="192" r="1.0" fill="#fde68a" opacity="0.46"/>
<circle cx="259" cy="531" r="1.4" fill="#fde68a" opacity="0.31"/>
<circle cx="44" cy="220" r="1.0" fill="#fde68a" opacity="0.74"/>
<circle cx="331" cy="160" r="1.8" fill="#fde68a" opacity="0.32"/>
<circle cx="197" cy="87" r="1.0" fill="#fde68a" opacity="0.80"/>
<circle cx="59" cy="402" r="2.2" fill="#fde68a" opacity="0.72"/>
<circle cx="77" cy="344" r="1.4" fill="#fde68a" opacity="0.52"/>
<circle cx="204" cy="439" r="1.4" fill="#fde68a" opacity="0.69"/>
<circle cx="375" cy="285" r="1.0" fill="#fde68a" opacity="0.81"/>
<circle cx="339" cy="316" r="2.2" fill="#fde68a" opacity="0.56"/>
<circle cx="213" cy="201" r="1.4" fill="#fde68a" opacity="0.42"/>
<circle cx="233" cy="390" r="1.0" fill="#fde68a" opacity="0.59"/>
<circle cx="78" cy="470" r="2.2" fill="#fde68a" opacity="0.77"/>
<circle cx="140" cy="403" r="1.8" fill="#fde68a" opacity="0.74"/>
<circle cx="174" cy="324" r="1.0" fill="#fde68a" opacity="0.35"/>
<circle cx="53" cy="139" r="1.8" fill="#fde68a" opacity="0.40"/>
<circle cx="52" cy="399" r="1.0" fill="#fde68a" opacity="0.28"/>
<circle cx="326" cy="404" r="1.0" fill="#fde68a" opacity="0.71"/>
<circle cx="176" cy="407" r="1.0" fill="#fde68a" opacity="0.36"/>
<circle cx="124" cy="223" r="1.4" fill="#fde68a" opacity="0.53"/>
<circle cx="355" cy="345" r="1.4" fill="#fde68a" opacity="0.48"/>
<circle cx="353" cy="247" r="1.8" fill="#fde68a" opacity="0.78"/>
<circle cx="262" cy="467" r="1.8" fill="#fde68a" opacity="0.48"/>
<circle cx="211" cy="268" r="1.8" fill="#fde68a" opacity="0.83"/>
<circle cx="133" cy="523" r="1.0" fill="#fde68a" opacity="0.45"/>
<circle cx="143" cy="294" r="1.0" fill="#fde68a" opacity="0.42"/>
<circle cx="182" cy="202" r="1.0" fill="#fde68a" opacity="0.74"/>
<circle cx="215" cy="366" r="1.8" fill="#fde68a" opacity="0.33"/>
<circle cx="210" cy="214" r="1.0" fill="#fde68a" opacity="0.59"/>
<circle cx="184" cy="358" r="1.0" fill="#fde68a" opacity="0.31"/>
<circle cx="128" cy="420" r="1.0" fill="#fde68a" opacity="0.81"/>
<circle cx="162" cy="346" r="1.8" fill="#fde68a" opacity="0.65"/>
<circle cx="344" cy="230" r="1.0" fill="#fde68a" opacity="0.41"/>
  
    <path d="M55 118 C120 74 300 74 365 118" fill="none" stroke="#38bdf8" stroke-opacity=".28" stroke-width="2"/>
    <path d="M55 542 C120 586 300 586 365 542" fill="none" stroke="#38bdf8" stroke-opacity=".28" stroke-width="2"/>
    <path d="M74 88 L98 88 M322 88 L346 88 M74 572 L98 572 M322 572 L346 572" stroke="#93c5fd" stroke-opacity=".50" stroke-width="2" stroke-linecap="round"/>
    <circle cx="80" cy="100" r="10" fill="none" stroke="#93c5fd" stroke-opacity=".45"/>
    <circle cx="340" cy="100" r="10" fill="none" stroke="#93c5fd" stroke-opacity=".45"/>
    <circle cx="80" cy="560" r="10" fill="none" stroke="#93c5fd" stroke-opacity=".45"/>
    <circle cx="340" cy="560" r="10" fill="none" stroke="#93c5fd" stroke-opacity=".45"/>
    
  
            <circle cx="210" cy="272" r="122" fill="#38bdf8" opacity=".08"/>
            <path d="M146 394 L178 246 L210 382 L242 246 L274 394 Z" fill="#38bdf8" opacity=".12" stroke="#38bdf8" stroke-width="3" stroke-opacity=".68"/>
            <circle cx="210" cy="250" r="54" fill="#93c5fd" opacity=".11" stroke="#93c5fd" stroke-width="3" stroke-opacity=".55"/>
            <text x="210" y="264" text-anchor="middle" font-size="64" font-family="Georgia, serif" fill="#38bdf8">♙</text>
            <text x="210" y="350" text-anchor="middle" font-size="54" font-family="Georgia, serif" fill="#93c5fd">●</text>
            <text x="62" y="86" font-size="20" font-family="Georgia, serif" fill="#fff7ed">PAGE</text>
            <text x="358" y="86" text-anchor="end" font-size="20" font-family="Georgia, serif" fill="#fff7ed">PAGE</text>
            
  <rect x="58" y="522" width="304" height="76" rx="18" fill="#020617" opacity=".62" stroke="#facc15" stroke-opacity=".24"/>
  <text x="210" y="558" text-anchor="middle" font-size="20" font-family="Georgia, serif" fill="#fff7ed">Page of Cups</text>
  <text x="210" y="586" text-anchor="middle" font-size="9" font-family="Arial, sans-serif" letter-spacing="3" fill="#c4b5fd">ORIGINAL SYMBOLIC DECK</text>
</svg>