<svg xmlns="http://www.w3.org/2000/svg" width="420" height="660" viewBox="0 0 420 660" role="img" aria-label="Eight of Pentacles">
<defs>
<linearGradient id="bg" x1="0" y1="0" x2="1" y2="1"><stop stop-color="#080b18"/><stop offset=".52" stop-color="#211436"/><stop offset="1" stop-color="#050812"/></linearGradient>
<radialGradient id="a" cx="50%" cy="40%" r="64%"><stop stop-color="#34d399" stop-opacity=".22"/><stop offset=".55" stop-color="#fde68a" stop-opacity=".12"/><stop offset="1" stop-color="#000" stop-opacity="0"/></radialGradient>
<filter id="glow"><feDropShadow dx="0" dy="0" stdDeviation="5" flood-color="#34d399" flood-opacity=".42"/></filter>
</defs>
<rect width="420" height="660" rx="34" fill="url(#bg)"/>
<rect x="18" y="18" width="384" height="624" rx="30" fill="url(#a)" stroke="#d6a24f" stroke-opacity=".82" stroke-width="2.4"/>
<rect x="36" y="36" width="348" height="588" rx="22" fill="none" stroke="#fde68a" stroke-opacity=".28" stroke-width="1.5"/>
<circle cx="48" cy="397" r="1.2" fill="#fff1b8" opacity="0.27"/>
<circle cx="57" cy="203" r="1" fill="#fff1b8" opacity="0.31"/>
<circle cx="291" cy="230" r="1" fill="#fff1b8" opacity="0.74"/>
<circle cx="142" cy="426" r="1.5" fill="#fff1b8" opacity="0.49"/>
<circle cx="199" cy="583" r="1.2" fill="#fff1b8" opacity="0.29"/>
<circle cx="114" cy="300" r="1.5" fill="#fff1b8" opacity="0.48"/>
<circle cx="362" cy="387" r="2" fill="#fff1b8" opacity="0.36"/>
<circle cx="163" cy="551" r="1" fill="#fff1b8" opacity="0.66"/>
<circle cx="367" cy="493" r="2" fill="#fff1b8" opacity="0.67"/>
<circle cx="143" cy="534" r="2" fill="#fff1b8" opacity="0.29"/>
<circle cx="87" cy="473" r="1" fill="#fff1b8" opacity="0.54"/>
<circle cx="51" cy="313" r="1.5" fill="#fff1b8" opacity="0.48"/>
<circle cx="318" cy="242" r="1.5" fill="#fff1b8" opacity="0.60"/>
<circle cx="354" cy="431" r="1.2" fill="#fff1b8" opacity="0.64"/>
<circle cx="216" cy="318" r="1.5" fill="#fff1b8" opacity="0.28"/>
<circle cx="327" cy="189" r="1" fill="#fff1b8" opacity="0.62"/>
<circle cx="165" cy="572" r="2" fill="#fff1b8" opacity="0.30"/>
<circle cx="48" cy="393" r="1.2" fill="#fff1b8" opacity="0.73"/>
<circle cx="178" cy="509" r="2" fill="#fff1b8" opacity="0.52"/>
<circle cx="374" cy="470" r="2" fill="#fff1b8" opacity="0.37"/>
<circle cx="86" cy="202" r="1.2" fill="#fff1b8" opacity="0.39"/>
<circle cx="158" cy="350" r="2" fill="#fff1b8" opacity="0.72"/>
<circle cx="234" cy="323" r="1" fill="#fff1b8" opacity="0.39"/>
<circle cx="245" cy="578" r="1.5" fill="#fff1b8" opacity="0.51"/>
<circle cx="203" cy="544" r="1" fill="#fff1b8" opacity="0.75"/>
<circle cx="321" cy="267" r="1" fill="#fff1b8" opacity="0.55"/>
<circle cx="71" cy="515" r="1.5" fill="#fff1b8" opacity="0.39"/>
<circle cx="187" cy="124" r="2" fill="#fff1b8" opacity="0.43"/>
<circle cx="167" cy="81" r="2" fill="#fff1b8" opacity="0.49"/>
<circle cx="247" cy="188" r="1.5" fill="#fff1b8" opacity="0.48"/>
<circle cx="237" cy="61" r="1.5" fill="#fff1b8" opacity="0.36"/>
<circle cx="217" cy="121" r="1.2" fill="#fff1b8" opacity="0.76"/>
<circle cx="362" cy="422" r="2" fill="#fff1b8" opacity="0.33"/>
<circle cx="293" cy="299" r="2" fill="#fff1b8" opacity="0.64"/>
<circle cx="374" cy="259" r="2" fill="#fff1b8" opacity="0.43"/>
<circle cx="251" cy="532" r="1" fill="#fff1b8" opacity="0.55"/>
<circle cx="51" cy="268" r="1.5" fill="#fff1b8" opacity="0.70"/>
<circle cx="301" cy="301" r="1" fill="#fff1b8" opacity="0.71"/>
<path d="M70 104 C132 68 288 68 350 104 M70 556 C132 592 288 592 350 556" fill="none" stroke="#d6a24f" stroke-opacity=".28" stroke-width="2"/>
<text x="64" y="78" fill="#fff1b8" font-size="22" font-family="Georgia,serif">VIII</text>
<text x="356" y="78" text-anchor="end" fill="#fff1b8" font-size="22" font-family="Georgia,serif">VIII</text>
<g filter="url(#glow)"><circle cx="210" cy="292" r="122" fill="#fde68a" opacity=".08"/><circle cx="210" cy="292" r="92" fill="none" stroke="#34d399" stroke-opacity=".36" stroke-width="2"/><text x="210" y="156" text-anchor="middle" dominant-baseline="middle" font-size="42" fill="#34d399" font-family="Georgia,serif">⬟</text><text x="154" y="218" text-anchor="middle" dominant-baseline="middle" font-size="42" fill="#34d399" font-family="Georgia,serif">⬟</text><text x="266" y="218" text-anchor="middle" dominant-baseline="middle" font-size="42" fill="#34d399" font-family="Georgia,serif">⬟</text><text x="154" y="294" text-anchor="middle" dominant-baseline="middle" font-size="42" fill="#34d399" font-family="Georgia,serif">⬟</text><text x="266" y="294" text-anchor="middle" dominant-baseline="middle" font-size="42" fill="#34d399" font-family="Georgia,serif">⬟</text><text x="210" y="364" text-anchor="middle" dominant-baseline="middle" font-size="42" fill="#34d399" font-family="Georgia,serif">⬟</text><text x="210" y="252" text-anchor="middle" dominant-baseline="middle" font-size="42" fill="#34d399" font-family="Georgia,serif">⬟</text><text x="154" y="382" text-anchor="middle" dominant-baseline="middle" font-size="42" fill="#34d399" font-family="Georgia,serif">⬟</text><path d="M130 464 C172 428 248 428 290 464" fill="none" stroke="#34d399" stroke-width="5" stroke-linecap="round" opacity=".6"/></g>
<rect x="58" y="530" width="304" height="74" rx="17" fill="#050812" opacity=".74" stroke="#d6a24f" stroke-opacity=".30"/>
<text x="210" y="566" text-anchor="middle" fill="#fff7df" font-size="20" font-family="Georgia,serif">Eight of Pentacles</text>
<text x="210" y="592" text-anchor="middle" fill="#c9b27a" font-size="9" font-family="Arial" letter-spacing="3">FATECARD ORIGINAL</text>
</svg>