<svg xmlns="http://www.w3.org/2000/svg" width="420" height="660" viewBox="0 0 420 660" role="img" aria-label="King of Wands">
  <defs>
    <linearGradient id="bg" x1="0" y1="0" x2="1" y2="1">
      <stop offset="0%" stop-color="#050816"/>
      <stop offset="45%" stop-color="#17102d"/>
      <stop offset="100%" stop-color="#020617"/>
    </linearGradient>
    <radialGradient id="aura" cx="50%" cy="38%" r="68%">
      <stop offset="0%" stop-color="#facc15" stop-opacity=".18"/>
      <stop offset="52%" stop-color="#a78bfa" stop-opacity=".10"/>
      <stop offset="100%" stop-color="#020617" stop-opacity="0"/>
    </radialGradient>
    <filter id="glow" x="-30%" y="-30%" width="160%" height="160%">
      <feDropShadow dx="0" dy="0" stdDeviation="6" flood-color="#fb923c" flood-opacity=".42"/>
    </filter>
  </defs>
  <rect width="420" height="660" rx="34" fill="url(#bg)"/>
  <rect x="20" y="20" width="380" height="620" rx="30" fill="url(#aura)" stroke="#facc15" stroke-opacity=".54" stroke-width="2"/>
  <rect x="35" y="35" width="350" height="590" rx="22" fill="none" stroke="#a78bfa" stroke-opacity=".18" stroke-width="1.5"/>
  <circle cx="297" cy="448" r="2.2" fill="#fde68a" opacity="0.30"/>
<circle cx="372" cy="372" r="1.0" fill="#fde68a" opacity="0.42"/>
<circle cx="321" cy="491" r="2.2" fill="#fde68a" opacity="0.74"/>
<circle cx="329" cy="527" r="1.8" fill="#fde68a" opacity="0.78"/>
<circle cx="304" cy="206" r="1.0" fill="#fde68a" opacity="0.32"/>
<circle cx="189" cy="208" r="1.0" fill="#fde68a" opacity="0.71"/>
<circle cx="119" cy="263" r="2.2" fill="#fde68a" opacity="0.67"/>
<circle cx="334" cy="125" r="1.4" fill="#fde68a" opacity="0.46"/>
<circle cx="159" cy="127" r="2.2" fill="#fde68a" opacity="0.59"/>
<circle cx="70" cy="573" r="1.0" fill="#fde68a" opacity="0.46"/>
<circle cx="377" cy="71" r="1.0" fill="#fde68a" opacity="0.48"/>
<circle cx="63" cy="243" r="1.0" fill="#fde68a" opacity="0.35"/>
<circle cx="254" cy="549" r="1.4" fill="#fde68a" opacity="0.60"/>
<circle cx="319" cy="346" r="1.0" fill="#fde68a" opacity="0.52"/>
<circle cx="59" cy="539" r="1.0" fill="#fde68a" opacity="0.50"/>
<circle cx="236" cy="355" r="1.0" fill="#fde68a" opacity="0.81"/>
<circle cx="180" cy="462" r="1.0" fill="#fde68a" opacity="0.50"/>
<circle cx="362" cy="311" r="1.4" fill="#fde68a" opacity="0.34"/>
<circle cx="323" cy="386" r="1.0" fill="#fde68a" opacity="0.76"/>
<circle cx="334" cy="93" r="1.0" fill="#fde68a" opacity="0.58"/>
<circle cx="317" cy="273" r="2.2" fill="#fde68a" opacity="0.73"/>
<circle cx="200" cy="204" r="2.2" fill="#fde68a" opacity="0.52"/>
<circle cx="107" cy="410" r="2.2" fill="#fde68a" opacity="0.80"/>
<circle cx="320" cy="327" r="1.0" fill="#fde68a" opacity="0.82"/>
<circle cx="343" cy="139" r="1.4" fill="#fde68a" opacity="0.68"/>
<circle cx="97" cy="263" r="1.4" fill="#fde68a" opacity="0.76"/>
<circle cx="55" cy="97" r="2.2" fill="#fde68a" opacity="0.36"/>
<circle cx="358" cy="352" r="1.8" fill="#fde68a" opacity="0.83"/>
<circle cx="89" cy="303" r="1.8" fill="#fde68a" opacity="0.49"/>
<circle cx="311" cy="414" r="1.8" fill="#fde68a" opacity="0.41"/>
<circle cx="313" cy="168" r="1.0" fill="#fde68a" opacity="0.72"/>
<circle cx="243" cy="73" r="2.2" fill="#fde68a" opacity="0.33"/>
<circle cx="133" cy="247" r="2.2" fill="#fde68a" opacity="0.51"/>
<circle cx="112" cy="333" r="1.0" fill="#fde68a" opacity="0.75"/>
  
    <path d="M55 118 C120 74 300 74 365 118" fill="none" stroke="#fb923c" stroke-opacity=".28" stroke-width="2"/>
    <path d="M55 542 C120 586 300 586 365 542" fill="none" stroke="#fb923c" stroke-opacity=".28" stroke-width="2"/>
    <path d="M74 88 L98 88 M322 88 L346 88 M74 572 L98 572 M322 572 L346 572" stroke="#facc15" stroke-opacity=".50" stroke-width="2" stroke-linecap="round"/>
    <circle cx="80" cy="100" r="10" fill="none" stroke="#facc15" stroke-opacity=".45"/>
    <circle cx="340" cy="100" r="10" fill="none" stroke="#facc15" stroke-opacity=".45"/>
    <circle cx="80" cy="560" r="10" fill="none" stroke="#facc15" stroke-opacity=".45"/>
    <circle cx="340" cy="560" r="10" fill="none" stroke="#facc15" stroke-opacity=".45"/>
    
  
            <circle cx="210" cy="272" r="122" fill="#fb923c" opacity=".08"/>
            <path d="M146 394 L178 246 L210 382 L242 246 L274 394 Z" fill="#fb923c" opacity=".12" stroke="#fb923c" stroke-width="3" stroke-opacity=".68"/>
            <circle cx="210" cy="250" r="54" fill="#facc15" opacity=".11" stroke="#facc15" stroke-width="3" stroke-opacity=".55"/>
            <text x="210" y="264" text-anchor="middle" font-size="64" font-family="Georgia, serif" fill="#fb923c">♚</text>
            <text x="210" y="350" text-anchor="middle" font-size="54" font-family="Georgia, serif" fill="#facc15">♣</text>
            <text x="62" y="86" font-size="20" font-family="Georgia, serif" fill="#fff7ed">KING</text>
            <text x="358" y="86" text-anchor="end" font-size="20" font-family="Georgia, serif" fill="#fff7ed">KING</text>
            
  <rect x="58" y="522" width="304" height="76" rx="18" fill="#020617" opacity=".62" stroke="#facc15" stroke-opacity=".24"/>
  <text x="210" y="558" text-anchor="middle" font-size="20" font-family="Georgia, serif" fill="#fff7ed">King of Wands</text>
  <text x="210" y="586" text-anchor="middle" font-size="9" font-family="Arial, sans-serif" letter-spacing="3" fill="#c4b5fd">ORIGINAL SYMBOLIC DECK</text>
</svg>