<svg xmlns="http://www.w3.org/2000/svg" width="420" height="660" viewBox="0 0 420 660" role="img" aria-label="King of Pentacles">
  <defs>
    <linearGradient id="bg" x1="0" y1="0" x2="1" y2="1">
      <stop offset="0%" stop-color="#050816"/>
      <stop offset="45%" stop-color="#17102d"/>
      <stop offset="100%" stop-color="#020617"/>
    </linearGradient>
    <radialGradient id="aura" cx="50%" cy="38%" r="68%">
      <stop offset="0%" stop-color="#facc15" stop-opacity=".18"/>
      <stop offset="52%" stop-color="#a78bfa" stop-opacity=".10"/>
      <stop offset="100%" stop-color="#020617" stop-opacity="0"/>
    </radialGradient>
    <filter id="glow" x="-30%" y="-30%" width="160%" height="160%">
      <feDropShadow dx="0" dy="0" stdDeviation="6" flood-color="#34d399" flood-opacity=".42"/>
    </filter>
  </defs>
  <rect width="420" height="660" rx="34" fill="url(#bg)"/>
  <rect x="20" y="20" width="380" height="620" rx="30" fill="url(#aura)" stroke="#facc15" stroke-opacity=".54" stroke-width="2"/>
  <rect x="35" y="35" width="350" height="590" rx="22" fill="none" stroke="#a78bfa" stroke-opacity=".18" stroke-width="1.5"/>
  <circle cx="288" cy="295" r="1.0" fill="#fde68a" opacity="0.67"/>
<circle cx="82" cy="454" r="1.8" fill="#fde68a" opacity="0.63"/>
<circle cx="226" cy="509" r="1.0" fill="#fde68a" opacity="0.76"/>
<circle cx="316" cy="289" r="1.0" fill="#fde68a" opacity="0.53"/>
<circle cx="120" cy="192" r="1.4" fill="#fde68a" opacity="0.69"/>
<circle cx="207" cy="519" r="1.0" fill="#fde68a" opacity="0.66"/>
<circle cx="217" cy="144" r="2.2" fill="#fde68a" opacity="0.36"/>
<circle cx="108" cy="405" r="1.4" fill="#fde68a" opacity="0.45"/>
<circle cx="339" cy="350" r="2.2" fill="#fde68a" opacity="0.61"/>
<circle cx="335" cy="312" r="2.2" fill="#fde68a" opacity="0.41"/>
<circle cx="352" cy="237" r="1.0" fill="#fde68a" opacity="0.84"/>
<circle cx="40" cy="128" r="1.4" fill="#fde68a" opacity="0.67"/>
<circle cx="212" cy="250" r="1.0" fill="#fde68a" opacity="0.75"/>
<circle cx="147" cy="96" r="1.0" fill="#fde68a" opacity="0.47"/>
<circle cx="254" cy="76" r="1.0" fill="#fde68a" opacity="0.45"/>
<circle cx="319" cy="325" r="1.0" fill="#fde68a" opacity="0.61"/>
<circle cx="315" cy="587" r="1.0" fill="#fde68a" opacity="0.76"/>
<circle cx="72" cy="441" r="1.0" fill="#fde68a" opacity="0.62"/>
<circle cx="194" cy="269" r="2.2" fill="#fde68a" opacity="0.59"/>
<circle cx="103" cy="336" r="1.0" fill="#fde68a" opacity="0.83"/>
<circle cx="281" cy="187" r="1.0" fill="#fde68a" opacity="0.52"/>
<circle cx="147" cy="206" r="1.0" fill="#fde68a" opacity="0.28"/>
<circle cx="75" cy="109" r="1.0" fill="#fde68a" opacity="0.32"/>
<circle cx="265" cy="58" r="1.4" fill="#fde68a" opacity="0.43"/>
<circle cx="265" cy="218" r="1.4" fill="#fde68a" opacity="0.82"/>
<circle cx="48" cy="328" r="1.4" fill="#fde68a" opacity="0.42"/>
<circle cx="226" cy="415" r="2.2" fill="#fde68a" opacity="0.72"/>
<circle cx="226" cy="488" r="1.8" fill="#fde68a" opacity="0.40"/>
<circle cx="369" cy="294" r="1.4" fill="#fde68a" opacity="0.69"/>
<circle cx="143" cy="58" r="1.4" fill="#fde68a" opacity="0.67"/>
<circle cx="249" cy="310" r="1.8" fill="#fde68a" opacity="0.69"/>
<circle cx="48" cy="364" r="1.0" fill="#fde68a" opacity="0.44"/>
<circle cx="51" cy="458" r="2.2" fill="#fde68a" opacity="0.53"/>
<circle cx="317" cy="128" r="1.0" fill="#fde68a" opacity="0.70"/>
  
    <path d="M55 118 C120 74 300 74 365 118" fill="none" stroke="#34d399" stroke-opacity=".28" stroke-width="2"/>
    <path d="M55 542 C120 586 300 586 365 542" fill="none" stroke="#34d399" stroke-opacity=".28" stroke-width="2"/>
    <path d="M74 88 L98 88 M322 88 L346 88 M74 572 L98 572 M322 572 L346 572" stroke="#fde68a" stroke-opacity=".50" stroke-width="2" stroke-linecap="round"/>
    <circle cx="80" cy="100" r="10" fill="none" stroke="#fde68a" stroke-opacity=".45"/>
    <circle cx="340" cy="100" r="10" fill="none" stroke="#fde68a" stroke-opacity=".45"/>
    <circle cx="80" cy="560" r="10" fill="none" stroke="#fde68a" stroke-opacity=".45"/>
    <circle cx="340" cy="560" r="10" fill="none" stroke="#fde68a" stroke-opacity=".45"/>
    
  
            <circle cx="210" cy="272" r="122" fill="#34d399" opacity=".08"/>
            <path d="M146 394 L178 246 L210 382 L242 246 L274 394 Z" fill="#34d399" opacity=".12" stroke="#34d399" stroke-width="3" stroke-opacity=".68"/>
            <circle cx="210" cy="250" r="54" fill="#fde68a" opacity=".11" stroke="#fde68a" stroke-width="3" stroke-opacity=".55"/>
            <text x="210" y="264" text-anchor="middle" font-size="64" font-family="Georgia, serif" fill="#34d399">♚</text>
            <text x="210" y="350" text-anchor="middle" font-size="54" font-family="Georgia, serif" fill="#fde68a">⬟</text>
            <text x="62" y="86" font-size="20" font-family="Georgia, serif" fill="#fff7ed">KING</text>
            <text x="358" y="86" text-anchor="end" font-size="20" font-family="Georgia, serif" fill="#fff7ed">KING</text>
            
  <rect x="58" y="522" width="304" height="76" rx="18" fill="#020617" opacity=".62" stroke="#facc15" stroke-opacity=".24"/>
  <text x="210" y="558" text-anchor="middle" font-size="20" font-family="Georgia, serif" fill="#fff7ed">King of Pentacles</text>
  <text x="210" y="586" text-anchor="middle" font-size="9" font-family="Arial, sans-serif" letter-spacing="3" fill="#c4b5fd">ORIGINAL SYMBOLIC DECK</text>
</svg>