<svg xmlns="http://www.w3.org/2000/svg" width="420" height="660" viewBox="0 0 420 660" role="img" aria-label="Five of Wands">
<defs>
<linearGradient id="bg" x1="0" y1="0" x2="1" y2="1"><stop stop-color="#080b18"/><stop offset=".52" stop-color="#211436"/><stop offset="1" stop-color="#050812"/></linearGradient>
<radialGradient id="a" cx="50%" cy="40%" r="64%"><stop stop-color="#f59e0b" stop-opacity=".22"/><stop offset=".55" stop-color="#fb923c" stop-opacity=".12"/><stop offset="1" stop-color="#000" stop-opacity="0"/></radialGradient>
<filter id="glow"><feDropShadow dx="0" dy="0" stdDeviation="5" flood-color="#f59e0b" flood-opacity=".42"/></filter>
</defs>
<rect width="420" height="660" rx="34" fill="url(#bg)"/>
<rect x="18" y="18" width="384" height="624" rx="30" fill="url(#a)" stroke="#d6a24f" stroke-opacity=".82" stroke-width="2.4"/>
<rect x="36" y="36" width="348" height="588" rx="22" fill="none" stroke="#fb923c" stroke-opacity=".28" stroke-width="1.5"/>
<circle cx="57" cy="379" r="1" fill="#fff1b8" opacity="0.60"/>
<circle cx="252" cy="119" r="1.2" fill="#fff1b8" opacity="0.35"/>
<circle cx="121" cy="387" r="1.2" fill="#fff1b8" opacity="0.75"/>
<circle cx="355" cy="468" r="1" fill="#fff1b8" opacity="0.65"/>
<circle cx="371" cy="282" r="1" fill="#fff1b8" opacity="0.71"/>
<circle cx="196" cy="260" r="2" fill="#fff1b8" opacity="0.52"/>
<circle cx="84" cy="322" r="1" fill="#fff1b8" opacity="0.60"/>
<circle cx="42" cy="511" r="1.2" fill="#fff1b8" opacity="0.44"/>
<circle cx="211" cy="205" r="1" fill="#fff1b8" opacity="0.27"/>
<circle cx="129" cy="348" r="1.5" fill="#fff1b8" opacity="0.72"/>
<circle cx="42" cy="109" r="1.5" fill="#fff1b8" opacity="0.64"/>
<circle cx="164" cy="74" r="1" fill="#fff1b8" opacity="0.30"/>
<circle cx="237" cy="139" r="1.5" fill="#fff1b8" opacity="0.73"/>
<circle cx="325" cy="446" r="1.2" fill="#fff1b8" opacity="0.56"/>
<circle cx="168" cy="80" r="1" fill="#fff1b8" opacity="0.48"/>
<circle cx="104" cy="453" r="2" fill="#fff1b8" opacity="0.51"/>
<circle cx="282" cy="546" r="1.5" fill="#fff1b8" opacity="0.73"/>
<circle cx="204" cy="319" r="1" fill="#fff1b8" opacity="0.53"/>
<circle cx="373" cy="217" r="2" fill="#fff1b8" opacity="0.27"/>
<circle cx="47" cy="540" r="2" fill="#fff1b8" opacity="0.50"/>
<circle cx="301" cy="497" r="1" fill="#fff1b8" opacity="0.70"/>
<circle cx="302" cy="267" r="2" fill="#fff1b8" opacity="0.27"/>
<circle cx="197" cy="543" r="2" fill="#fff1b8" opacity="0.66"/>
<circle cx="223" cy="409" r="1" fill="#fff1b8" opacity="0.69"/>
<circle cx="271" cy="418" r="2" fill="#fff1b8" opacity="0.44"/>
<circle cx="166" cy="315" r="1.2" fill="#fff1b8" opacity="0.73"/>
<circle cx="192" cy="504" r="1.2" fill="#fff1b8" opacity="0.42"/>
<circle cx="150" cy="309" r="1.2" fill="#fff1b8" opacity="0.54"/>
<circle cx="289" cy="572" r="1.2" fill="#fff1b8" opacity="0.43"/>
<circle cx="328" cy="480" r="1.2" fill="#fff1b8" opacity="0.63"/>
<circle cx="246" cy="326" r="1" fill="#fff1b8" opacity="0.56"/>
<circle cx="287" cy="516" r="1.5" fill="#fff1b8" opacity="0.59"/>
<circle cx="111" cy="520" r="1.5" fill="#fff1b8" opacity="0.76"/>
<circle cx="107" cy="284" r="1" fill="#fff1b8" opacity="0.46"/>
<circle cx="309" cy="74" r="2" fill="#fff1b8" opacity="0.52"/>
<circle cx="204" cy="172" r="1.2" fill="#fff1b8" opacity="0.40"/>
<circle cx="366" cy="295" r="2" fill="#fff1b8" opacity="0.30"/>
<circle cx="227" cy="229" r="1.2" fill="#fff1b8" opacity="0.38"/>
<path d="M70 104 C132 68 288 68 350 104 M70 556 C132 592 288 592 350 556" fill="none" stroke="#d6a24f" stroke-opacity=".28" stroke-width="2"/>
<text x="64" y="78" fill="#fff1b8" font-size="22" font-family="Georgia,serif">V</text>
<text x="356" y="78" text-anchor="end" fill="#fff1b8" font-size="22" font-family="Georgia,serif">V</text>
<g filter="url(#glow)"><circle cx="210" cy="292" r="122" fill="#fb923c" opacity=".08"/><circle cx="210" cy="292" r="92" fill="none" stroke="#f59e0b" stroke-opacity=".36" stroke-width="2"/><text x="210" y="156" text-anchor="middle" dominant-baseline="middle" font-size="42" fill="#f59e0b" font-family="Georgia,serif">♣</text><text x="154" y="218" text-anchor="middle" dominant-baseline="middle" font-size="42" fill="#f59e0b" font-family="Georgia,serif">♣</text><text x="266" y="218" text-anchor="middle" dominant-baseline="middle" font-size="42" fill="#f59e0b" font-family="Georgia,serif">♣</text><text x="154" y="294" text-anchor="middle" dominant-baseline="middle" font-size="42" fill="#f59e0b" font-family="Georgia,serif">♣</text><text x="266" y="294" text-anchor="middle" dominant-baseline="middle" font-size="42" fill="#f59e0b" font-family="Georgia,serif">♣</text><path d="M130 464 C172 428 248 428 290 464" fill="none" stroke="#f59e0b" stroke-width="5" stroke-linecap="round" opacity=".6"/></g>
<rect x="58" y="530" width="304" height="74" rx="17" fill="#050812" opacity=".74" stroke="#d6a24f" stroke-opacity=".30"/>
<text x="210" y="566" text-anchor="middle" fill="#fff7df" font-size="20" font-family="Georgia,serif">Five of Wands</text>
<text x="210" y="592" text-anchor="middle" fill="#c9b27a" font-size="9" font-family="Arial" letter-spacing="3">FATECARD ORIGINAL</text>
</svg>