<svg xmlns="http://www.w3.org/2000/svg" width="420" height="660" viewBox="0 0 420 660" role="img" aria-label="Six of Cups">
  <defs>
    <linearGradient id="bg" x1="0" y1="0" x2="1" y2="1">
      <stop offset="0%" stop-color="#050816"/>
      <stop offset="45%" stop-color="#17102d"/>
      <stop offset="100%" stop-color="#020617"/>
    </linearGradient>
    <radialGradient id="aura" cx="50%" cy="38%" r="68%">
      <stop offset="0%" stop-color="#facc15" stop-opacity=".18"/>
      <stop offset="52%" stop-color="#a78bfa" stop-opacity=".10"/>
      <stop offset="100%" stop-color="#020617" stop-opacity="0"/>
    </radialGradient>
    <filter id="glow" x="-30%" y="-30%" width="160%" height="160%">
      <feDropShadow dx="0" dy="0" stdDeviation="6" flood-color="#38bdf8" flood-opacity=".42"/>
    </filter>
  </defs>
  <rect width="420" height="660" rx="34" fill="url(#bg)"/>
  <rect x="20" y="20" width="380" height="620" rx="30" fill="url(#aura)" stroke="#facc15" stroke-opacity=".54" stroke-width="2"/>
  <rect x="35" y="35" width="350" height="590" rx="22" fill="none" stroke="#a78bfa" stroke-opacity=".18" stroke-width="1.5"/>
  <circle cx="334" cy="190" r="1.0" fill="#fde68a" opacity="0.32"/>
<circle cx="125" cy="326" r="1.8" fill="#fde68a" opacity="0.46"/>
<circle cx="332" cy="520" r="1.0" fill="#fde68a" opacity="0.37"/>
<circle cx="241" cy="151" r="1.8" fill="#fde68a" opacity="0.69"/>
<circle cx="225" cy="467" r="1.4" fill="#fde68a" opacity="0.61"/>
<circle cx="169" cy="328" r="2.2" fill="#fde68a" opacity="0.77"/>
<circle cx="314" cy="529" r="1.0" fill="#fde68a" opacity="0.49"/>
<circle cx="142" cy="495" r="2.2" fill="#fde68a" opacity="0.51"/>
<circle cx="257" cy="300" r="1.0" fill="#fde68a" opacity="0.83"/>
<circle cx="259" cy="258" r="1.8" fill="#fde68a" opacity="0.70"/>
<circle cx="198" cy="507" r="1.0" fill="#fde68a" opacity="0.82"/>
<circle cx="349" cy="306" r="1.4" fill="#fde68a" opacity="0.42"/>
<circle cx="208" cy="211" r="2.2" fill="#fde68a" opacity="0.43"/>
<circle cx="201" cy="468" r="1.0" fill="#fde68a" opacity="0.31"/>
<circle cx="74" cy="418" r="1.8" fill="#fde68a" opacity="0.56"/>
<circle cx="134" cy="406" r="2.2" fill="#fde68a" opacity="0.60"/>
<circle cx="248" cy="112" r="2.2" fill="#fde68a" opacity="0.34"/>
<circle cx="220" cy="353" r="1.4" fill="#fde68a" opacity="0.49"/>
<circle cx="248" cy="257" r="1.4" fill="#fde68a" opacity="0.40"/>
<circle cx="280" cy="570" r="2.2" fill="#fde68a" opacity="0.62"/>
<circle cx="238" cy="414" r="1.8" fill="#fde68a" opacity="0.54"/>
<circle cx="269" cy="117" r="2.2" fill="#fde68a" opacity="0.36"/>
<circle cx="280" cy="313" r="1.0" fill="#fde68a" opacity="0.80"/>
<circle cx="112" cy="57" r="1.0" fill="#fde68a" opacity="0.45"/>
<circle cx="205" cy="563" r="1.0" fill="#fde68a" opacity="0.50"/>
<circle cx="54" cy="389" r="1.4" fill="#fde68a" opacity="0.55"/>
<circle cx="297" cy="57" r="1.8" fill="#fde68a" opacity="0.58"/>
<circle cx="79" cy="232" r="1.0" fill="#fde68a" opacity="0.68"/>
<circle cx="297" cy="59" r="1.0" fill="#fde68a" opacity="0.80"/>
<circle cx="236" cy="550" r="1.0" fill="#fde68a" opacity="0.50"/>
<circle cx="92" cy="440" r="1.0" fill="#fde68a" opacity="0.38"/>
<circle cx="140" cy="351" r="1.0" fill="#fde68a" opacity="0.67"/>
<circle cx="207" cy="477" r="1.0" fill="#fde68a" opacity="0.80"/>
<circle cx="125" cy="383" r="1.4" fill="#fde68a" opacity="0.47"/>
  
    <path d="M55 118 C120 74 300 74 365 118" fill="none" stroke="#38bdf8" stroke-opacity=".28" stroke-width="2"/>
    <path d="M55 542 C120 586 300 586 365 542" fill="none" stroke="#38bdf8" stroke-opacity=".28" stroke-width="2"/>
    <path d="M74 88 L98 88 M322 88 L346 88 M74 572 L98 572 M322 572 L346 572" stroke="#93c5fd" stroke-opacity=".50" stroke-width="2" stroke-linecap="round"/>
    <circle cx="80" cy="100" r="10" fill="none" stroke="#93c5fd" stroke-opacity=".45"/>
    <circle cx="340" cy="100" r="10" fill="none" stroke="#93c5fd" stroke-opacity=".45"/>
    <circle cx="80" cy="560" r="10" fill="none" stroke="#93c5fd" stroke-opacity=".45"/>
    <circle cx="340" cy="560" r="10" fill="none" stroke="#93c5fd" stroke-opacity=".45"/>
    
  
            <circle cx="210" cy="286" r="132" fill="#38bdf8" opacity=".065"/>
            <circle cx="210" cy="286" r="102" fill="none" stroke="#93c5fd" stroke-opacity=".36" stroke-width="2"/>
            <text x="210" y="164" text-anchor="middle" dominant-baseline="middle" font-size="42" font-family="Georgia, serif" fill="#38bdf8" opacity=".94">●</text><text x="154" y="220" text-anchor="middle" dominant-baseline="middle" font-size="42" font-family="Georgia, serif" fill="#38bdf8" opacity=".94">●</text><text x="266" y="220" text-anchor="middle" dominant-baseline="middle" font-size="42" font-family="Georgia, serif" fill="#38bdf8" opacity=".94">●</text><text x="154" y="302" text-anchor="middle" dominant-baseline="middle" font-size="42" font-family="Georgia, serif" fill="#38bdf8" opacity=".94">●</text><text x="266" y="302" text-anchor="middle" dominant-baseline="middle" font-size="42" font-family="Georgia, serif" fill="#38bdf8" opacity=".94">●</text><text x="210" y="360" text-anchor="middle" dominant-baseline="middle" font-size="42" font-family="Georgia, serif" fill="#38bdf8" opacity=".94">●</text>
            <text x="62" y="86" font-size="26" font-family="Georgia, serif" fill="#fff7ed">VI</text>
            <text x="358" y="86" text-anchor="end" font-size="26" font-family="Georgia, serif" fill="#fff7ed">VI</text>
            
  <rect x="58" y="522" width="304" height="76" rx="18" fill="#020617" opacity=".62" stroke="#facc15" stroke-opacity=".24"/>
  <text x="210" y="558" text-anchor="middle" font-size="20" font-family="Georgia, serif" fill="#fff7ed">Six of Cups</text>
  <text x="210" y="586" text-anchor="middle" font-size="9" font-family="Arial, sans-serif" letter-spacing="3" fill="#c4b5fd">ORIGINAL SYMBOLIC DECK</text>
</svg>