<svg xmlns="http://www.w3.org/2000/svg" width="420" height="660" viewBox="0 0 420 660" role="img" aria-label="Three of Pentacles">
  <defs>
    <linearGradient id="bg" x1="0" y1="0" x2="1" y2="1">
      <stop offset="0%" stop-color="#050816"/>
      <stop offset="45%" stop-color="#17102d"/>
      <stop offset="100%" stop-color="#020617"/>
    </linearGradient>
    <radialGradient id="aura" cx="50%" cy="38%" r="68%">
      <stop offset="0%" stop-color="#facc15" stop-opacity=".18"/>
      <stop offset="52%" stop-color="#a78bfa" stop-opacity=".10"/>
      <stop offset="100%" stop-color="#020617" stop-opacity="0"/>
    </radialGradient>
    <filter id="glow" x="-30%" y="-30%" width="160%" height="160%">
      <feDropShadow dx="0" dy="0" stdDeviation="6" flood-color="#34d399" flood-opacity=".42"/>
    </filter>
  </defs>
  <rect width="420" height="660" rx="34" fill="url(#bg)"/>
  <rect x="20" y="20" width="380" height="620" rx="30" fill="url(#aura)" stroke="#facc15" stroke-opacity=".54" stroke-width="2"/>
  <rect x="35" y="35" width="350" height="590" rx="22" fill="none" stroke="#a78bfa" stroke-opacity=".18" stroke-width="1.5"/>
  <circle cx="200" cy="552" r="1.4" fill="#fde68a" opacity="0.46"/>
<circle cx="229" cy="296" r="1.0" fill="#fde68a" opacity="0.66"/>
<circle cx="70" cy="149" r="2.2" fill="#fde68a" opacity="0.68"/>
<circle cx="344" cy="588" r="1.0" fill="#fde68a" opacity="0.75"/>
<circle cx="215" cy="487" r="1.0" fill="#fde68a" opacity="0.83"/>
<circle cx="368" cy="316" r="1.0" fill="#fde68a" opacity="0.48"/>
<circle cx="179" cy="229" r="1.0" fill="#fde68a" opacity="0.73"/>
<circle cx="229" cy="316" r="1.4" fill="#fde68a" opacity="0.58"/>
<circle cx="320" cy="396" r="2.2" fill="#fde68a" opacity="0.29"/>
<circle cx="372" cy="231" r="1.0" fill="#fde68a" opacity="0.77"/>
<circle cx="203" cy="496" r="1.8" fill="#fde68a" opacity="0.64"/>
<circle cx="312" cy="502" r="1.8" fill="#fde68a" opacity="0.55"/>
<circle cx="42" cy="234" r="1.0" fill="#fde68a" opacity="0.40"/>
<circle cx="111" cy="397" r="1.0" fill="#fde68a" opacity="0.75"/>
<circle cx="156" cy="382" r="2.2" fill="#fde68a" opacity="0.74"/>
<circle cx="319" cy="320" r="1.8" fill="#fde68a" opacity="0.72"/>
<circle cx="282" cy="122" r="1.0" fill="#fde68a" opacity="0.76"/>
<circle cx="368" cy="165" r="1.8" fill="#fde68a" opacity="0.32"/>
<circle cx="98" cy="370" r="1.0" fill="#fde68a" opacity="0.53"/>
<circle cx="99" cy="385" r="1.0" fill="#fde68a" opacity="0.52"/>
<circle cx="189" cy="571" r="1.0" fill="#fde68a" opacity="0.44"/>
<circle cx="97" cy="259" r="1.8" fill="#fde68a" opacity="0.57"/>
<circle cx="141" cy="253" r="2.2" fill="#fde68a" opacity="0.55"/>
<circle cx="42" cy="121" r="1.0" fill="#fde68a" opacity="0.63"/>
<circle cx="256" cy="475" r="1.4" fill="#fde68a" opacity="0.44"/>
<circle cx="220" cy="235" r="1.0" fill="#fde68a" opacity="0.69"/>
<circle cx="283" cy="192" r="1.8" fill="#fde68a" opacity="0.76"/>
<circle cx="165" cy="202" r="1.8" fill="#fde68a" opacity="0.32"/>
<circle cx="113" cy="212" r="2.2" fill="#fde68a" opacity="0.74"/>
<circle cx="126" cy="100" r="1.0" fill="#fde68a" opacity="0.79"/>
<circle cx="296" cy="109" r="1.0" fill="#fde68a" opacity="0.74"/>
<circle cx="363" cy="91" r="1.4" fill="#fde68a" opacity="0.82"/>
<circle cx="378" cy="483" r="2.2" fill="#fde68a" opacity="0.83"/>
<circle cx="275" cy="474" r="1.0" fill="#fde68a" opacity="0.49"/>
  
    <path d="M55 118 C120 74 300 74 365 118" fill="none" stroke="#34d399" stroke-opacity=".28" stroke-width="2"/>
    <path d="M55 542 C120 586 300 586 365 542" fill="none" stroke="#34d399" stroke-opacity=".28" stroke-width="2"/>
    <path d="M74 88 L98 88 M322 88 L346 88 M74 572 L98 572 M322 572 L346 572" stroke="#fde68a" stroke-opacity=".50" stroke-width="2" stroke-linecap="round"/>
    <circle cx="80" cy="100" r="10" fill="none" stroke="#fde68a" stroke-opacity=".45"/>
    <circle cx="340" cy="100" r="10" fill="none" stroke="#fde68a" stroke-opacity=".45"/>
    <circle cx="80" cy="560" r="10" fill="none" stroke="#fde68a" stroke-opacity=".45"/>
    <circle cx="340" cy="560" r="10" fill="none" stroke="#fde68a" stroke-opacity=".45"/>
    
  
            <circle cx="210" cy="286" r="132" fill="#34d399" opacity=".065"/>
            <circle cx="210" cy="286" r="102" fill="none" stroke="#fde68a" stroke-opacity=".36" stroke-width="2"/>
            <text x="210" y="164" text-anchor="middle" dominant-baseline="middle" font-size="42" font-family="Georgia, serif" fill="#34d399" opacity=".94">⬟</text><text x="154" y="220" text-anchor="middle" dominant-baseline="middle" font-size="42" font-family="Georgia, serif" fill="#34d399" opacity=".94">⬟</text><text x="266" y="220" text-anchor="middle" dominant-baseline="middle" font-size="42" font-family="Georgia, serif" fill="#34d399" opacity=".94">⬟</text>
            <text x="62" y="86" font-size="26" font-family="Georgia, serif" fill="#fff7ed">III</text>
            <text x="358" y="86" text-anchor="end" font-size="26" font-family="Georgia, serif" fill="#fff7ed">III</text>
            
  <rect x="58" y="522" width="304" height="76" rx="18" fill="#020617" opacity=".62" stroke="#facc15" stroke-opacity=".24"/>
  <text x="210" y="558" text-anchor="middle" font-size="20" font-family="Georgia, serif" fill="#fff7ed">Three of Pentacles</text>
  <text x="210" y="586" text-anchor="middle" font-size="9" font-family="Arial, sans-serif" letter-spacing="3" fill="#c4b5fd">ORIGINAL SYMBOLIC DECK</text>
</svg>