<svg xmlns="http://www.w3.org/2000/svg" width="420" height="660" viewBox="0 0 420 660" role="img" aria-label="Seven of Wands">
<defs>
<linearGradient id="bg" x1="0" y1="0" x2="1" y2="1"><stop stop-color="#080b18"/><stop offset=".52" stop-color="#211436"/><stop offset="1" stop-color="#050812"/></linearGradient>
<radialGradient id="a" cx="50%" cy="40%" r="64%"><stop stop-color="#f59e0b" stop-opacity=".22"/><stop offset=".55" stop-color="#fb923c" stop-opacity=".12"/><stop offset="1" stop-color="#000" stop-opacity="0"/></radialGradient>
<filter id="glow"><feDropShadow dx="0" dy="0" stdDeviation="5" flood-color="#f59e0b" flood-opacity=".42"/></filter>
</defs>
<rect width="420" height="660" rx="34" fill="url(#bg)"/>
<rect x="18" y="18" width="384" height="624" rx="30" fill="url(#a)" stroke="#d6a24f" stroke-opacity=".82" stroke-width="2.4"/>
<rect x="36" y="36" width="348" height="588" rx="22" fill="none" stroke="#fb923c" stroke-opacity=".28" stroke-width="1.5"/>
<circle cx="209" cy="257" r="2" fill="#fff1b8" opacity="0.47"/>
<circle cx="234" cy="195" r="1.5" fill="#fff1b8" opacity="0.27"/>
<circle cx="163" cy="379" r="1.5" fill="#fff1b8" opacity="0.60"/>
<circle cx="316" cy="75" r="2" fill="#fff1b8" opacity="0.44"/>
<circle cx="277" cy="427" r="1" fill="#fff1b8" opacity="0.41"/>
<circle cx="190" cy="267" r="2" fill="#fff1b8" opacity="0.27"/>
<circle cx="368" cy="525" r="2" fill="#fff1b8" opacity="0.67"/>
<circle cx="147" cy="61" r="1.5" fill="#fff1b8" opacity="0.52"/>
<circle cx="140" cy="358" r="2" fill="#fff1b8" opacity="0.45"/>
<circle cx="200" cy="478" r="2" fill="#fff1b8" opacity="0.49"/>
<circle cx="245" cy="438" r="2" fill="#fff1b8" opacity="0.76"/>
<circle cx="266" cy="267" r="1.5" fill="#fff1b8" opacity="0.67"/>
<circle cx="181" cy="292" r="1" fill="#fff1b8" opacity="0.54"/>
<circle cx="294" cy="480" r="2" fill="#fff1b8" opacity="0.38"/>
<circle cx="260" cy="157" r="1" fill="#fff1b8" opacity="0.67"/>
<circle cx="273" cy="115" r="1.5" fill="#fff1b8" opacity="0.28"/>
<circle cx="168" cy="553" r="1" fill="#fff1b8" opacity="0.28"/>
<circle cx="235" cy="298" r="1.5" fill="#fff1b8" opacity="0.30"/>
<circle cx="377" cy="110" r="1.2" fill="#fff1b8" opacity="0.35"/>
<circle cx="160" cy="358" r="1" fill="#fff1b8" opacity="0.70"/>
<circle cx="79" cy="185" r="1.5" fill="#fff1b8" opacity="0.60"/>
<circle cx="134" cy="463" r="2" fill="#fff1b8" opacity="0.58"/>
<circle cx="122" cy="152" r="1" fill="#fff1b8" opacity="0.62"/>
<circle cx="176" cy="404" r="1" fill="#fff1b8" opacity="0.66"/>
<circle cx="220" cy="259" r="1.5" fill="#fff1b8" opacity="0.33"/>
<circle cx="215" cy="348" r="1.5" fill="#fff1b8" opacity="0.27"/>
<circle cx="138" cy="551" r="1" fill="#fff1b8" opacity="0.33"/>
<circle cx="293" cy="161" r="1" fill="#fff1b8" opacity="0.39"/>
<circle cx="261" cy="425" r="1" fill="#fff1b8" opacity="0.43"/>
<circle cx="229" cy="68" r="1.2" fill="#fff1b8" opacity="0.45"/>
<circle cx="374" cy="444" r="2" fill="#fff1b8" opacity="0.36"/>
<circle cx="167" cy="560" r="1.2" fill="#fff1b8" opacity="0.51"/>
<circle cx="279" cy="519" r="1" fill="#fff1b8" opacity="0.26"/>
<circle cx="355" cy="442" r="1.2" fill="#fff1b8" opacity="0.74"/>
<circle cx="245" cy="338" r="1.2" fill="#fff1b8" opacity="0.51"/>
<circle cx="350" cy="125" r="1" fill="#fff1b8" opacity="0.30"/>
<circle cx="103" cy="313" r="2" fill="#fff1b8" opacity="0.31"/>
<circle cx="208" cy="567" r="1" fill="#fff1b8" opacity="0.49"/>
<path d="M70 104 C132 68 288 68 350 104 M70 556 C132 592 288 592 350 556" fill="none" stroke="#d6a24f" stroke-opacity=".28" stroke-width="2"/>
<text x="64" y="78" fill="#fff1b8" font-size="22" font-family="Georgia,serif">VII</text>
<text x="356" y="78" text-anchor="end" fill="#fff1b8" font-size="22" font-family="Georgia,serif">VII</text>
<g filter="url(#glow)"><circle cx="210" cy="292" r="122" fill="#fb923c" opacity=".08"/><circle cx="210" cy="292" r="92" fill="none" stroke="#f59e0b" stroke-opacity=".36" stroke-width="2"/><text x="210" y="156" text-anchor="middle" dominant-baseline="middle" font-size="42" fill="#f59e0b" font-family="Georgia,serif">♣</text><text x="154" y="218" text-anchor="middle" dominant-baseline="middle" font-size="42" fill="#f59e0b" font-family="Georgia,serif">♣</text><text x="266" y="218" text-anchor="middle" dominant-baseline="middle" font-size="42" fill="#f59e0b" font-family="Georgia,serif">♣</text><text x="154" y="294" text-anchor="middle" dominant-baseline="middle" font-size="42" fill="#f59e0b" font-family="Georgia,serif">♣</text><text x="266" y="294" text-anchor="middle" dominant-baseline="middle" font-size="42" fill="#f59e0b" font-family="Georgia,serif">♣</text><text x="210" y="364" text-anchor="middle" dominant-baseline="middle" font-size="42" fill="#f59e0b" font-family="Georgia,serif">♣</text><text x="210" y="252" text-anchor="middle" dominant-baseline="middle" font-size="42" fill="#f59e0b" font-family="Georgia,serif">♣</text><path d="M130 464 C172 428 248 428 290 464" fill="none" stroke="#f59e0b" stroke-width="5" stroke-linecap="round" opacity=".6"/></g>
<rect x="58" y="530" width="304" height="74" rx="17" fill="#050812" opacity=".74" stroke="#d6a24f" stroke-opacity=".30"/>
<text x="210" y="566" text-anchor="middle" fill="#fff7df" font-size="20" font-family="Georgia,serif">Seven of Wands</text>
<text x="210" y="592" text-anchor="middle" fill="#c9b27a" font-size="9" font-family="Arial" letter-spacing="3">FATECARD ORIGINAL</text>
</svg>