<svg xmlns="http://www.w3.org/2000/svg" width="420" height="660" viewBox="0 0 420 660" role="img" aria-label="Ace of Wands">
<defs>
<linearGradient id="bg" x1="0" y1="0" x2="1" y2="1"><stop stop-color="#080b18"/><stop offset=".52" stop-color="#211436"/><stop offset="1" stop-color="#050812"/></linearGradient>
<radialGradient id="a" cx="50%" cy="40%" r="64%"><stop stop-color="#f59e0b" stop-opacity=".22"/><stop offset=".55" stop-color="#fb923c" stop-opacity=".12"/><stop offset="1" stop-color="#000" stop-opacity="0"/></radialGradient>
<filter id="glow"><feDropShadow dx="0" dy="0" stdDeviation="5" flood-color="#f59e0b" flood-opacity=".42"/></filter>
</defs>
<rect width="420" height="660" rx="34" fill="url(#bg)"/>
<rect x="18" y="18" width="384" height="624" rx="30" fill="url(#a)" stroke="#d6a24f" stroke-opacity=".82" stroke-width="2.4"/>
<rect x="36" y="36" width="348" height="588" rx="22" fill="none" stroke="#fb923c" stroke-opacity=".28" stroke-width="1.5"/>
<circle cx="311" cy="559" r="1.5" fill="#fff1b8" opacity="0.78"/>
<circle cx="312" cy="290" r="2" fill="#fff1b8" opacity="0.76"/>
<circle cx="328" cy="180" r="2" fill="#fff1b8" opacity="0.31"/>
<circle cx="202" cy="127" r="1.5" fill="#fff1b8" opacity="0.68"/>
<circle cx="332" cy="529" r="1.2" fill="#fff1b8" opacity="0.62"/>
<circle cx="61" cy="317" r="1.2" fill="#fff1b8" opacity="0.34"/>
<circle cx="248" cy="445" r="2" fill="#fff1b8" opacity="0.78"/>
<circle cx="162" cy="383" r="1.2" fill="#fff1b8" opacity="0.66"/>
<circle cx="138" cy="306" r="2" fill="#fff1b8" opacity="0.66"/>
<circle cx="128" cy="543" r="1" fill="#fff1b8" opacity="0.60"/>
<circle cx="361" cy="206" r="1.2" fill="#fff1b8" opacity="0.58"/>
<circle cx="272" cy="59" r="1" fill="#fff1b8" opacity="0.38"/>
<circle cx="278" cy="391" r="1.2" fill="#fff1b8" opacity="0.74"/>
<circle cx="249" cy="362" r="1" fill="#fff1b8" opacity="0.69"/>
<circle cx="372" cy="432" r="1" fill="#fff1b8" opacity="0.44"/>
<circle cx="351" cy="349" r="1.2" fill="#fff1b8" opacity="0.33"/>
<circle cx="234" cy="508" r="1.5" fill="#fff1b8" opacity="0.43"/>
<circle cx="201" cy="172" r="1" fill="#fff1b8" opacity="0.44"/>
<circle cx="56" cy="257" r="2" fill="#fff1b8" opacity="0.75"/>
<circle cx="286" cy="219" r="1.2" fill="#fff1b8" opacity="0.58"/>
<circle cx="96" cy="349" r="1.2" fill="#fff1b8" opacity="0.57"/>
<circle cx="236" cy="115" r="1.5" fill="#fff1b8" opacity="0.75"/>
<circle cx="105" cy="83" r="1" fill="#fff1b8" opacity="0.68"/>
<circle cx="94" cy="218" r="1.2" fill="#fff1b8" opacity="0.27"/>
<circle cx="252" cy="346" r="1" fill="#fff1b8" opacity="0.40"/>
<circle cx="268" cy="82" r="2" fill="#fff1b8" opacity="0.63"/>
<circle cx="102" cy="482" r="1.2" fill="#fff1b8" opacity="0.53"/>
<circle cx="120" cy="189" r="1" fill="#fff1b8" opacity="0.49"/>
<circle cx="365" cy="110" r="1" fill="#fff1b8" opacity="0.67"/>
<circle cx="241" cy="548" r="1" fill="#fff1b8" opacity="0.64"/>
<circle cx="295" cy="520" r="1.5" fill="#fff1b8" opacity="0.36"/>
<circle cx="96" cy="477" r="2" fill="#fff1b8" opacity="0.73"/>
<circle cx="323" cy="235" r="2" fill="#fff1b8" opacity="0.64"/>
<circle cx="232" cy="124" r="1.2" fill="#fff1b8" opacity="0.32"/>
<circle cx="238" cy="143" r="1.2" fill="#fff1b8" opacity="0.45"/>
<circle cx="213" cy="279" r="1" fill="#fff1b8" opacity="0.59"/>
<circle cx="169" cy="203" r="1" fill="#fff1b8" opacity="0.54"/>
<circle cx="121" cy="544" r="1.5" fill="#fff1b8" opacity="0.70"/>
<path d="M70 104 C132 68 288 68 350 104 M70 556 C132 592 288 592 350 556" fill="none" stroke="#d6a24f" stroke-opacity=".28" stroke-width="2"/>
<text x="64" y="78" fill="#fff1b8" font-size="22" font-family="Georgia,serif">A</text>
<text x="356" y="78" text-anchor="end" fill="#fff1b8" font-size="22" font-family="Georgia,serif">A</text>
<g filter="url(#glow)"><circle cx="210" cy="292" r="122" fill="#fb923c" opacity=".08"/><circle cx="210" cy="292" r="92" fill="none" stroke="#f59e0b" stroke-opacity=".36" stroke-width="2"/><text x="210" y="156" text-anchor="middle" dominant-baseline="middle" font-size="42" fill="#f59e0b" font-family="Georgia,serif">♣</text><path d="M130 464 C172 428 248 428 290 464" fill="none" stroke="#f59e0b" stroke-width="5" stroke-linecap="round" opacity=".6"/></g>
<rect x="58" y="530" width="304" height="74" rx="17" fill="#050812" opacity=".74" stroke="#d6a24f" stroke-opacity=".30"/>
<text x="210" y="566" text-anchor="middle" fill="#fff7df" font-size="20" font-family="Georgia,serif">Ace of Wands</text>
<text x="210" y="592" text-anchor="middle" fill="#c9b27a" font-size="9" font-family="Arial" letter-spacing="3">FATECARD ORIGINAL</text>
</svg>