<svg xmlns="http://www.w3.org/2000/svg" width="420" height="660" viewBox="0 0 420 660" role="img" aria-label="Knight of Pentacles">
<defs>
<linearGradient id="bg" x1="0" y1="0" x2="1" y2="1"><stop stop-color="#080b18"/><stop offset=".52" stop-color="#211436"/><stop offset="1" stop-color="#050812"/></linearGradient>
<radialGradient id="a" cx="50%" cy="40%" r="64%"><stop stop-color="#34d399" stop-opacity=".22"/><stop offset=".55" stop-color="#fde68a" stop-opacity=".12"/><stop offset="1" stop-color="#000" stop-opacity="0"/></radialGradient>
<filter id="glow"><feDropShadow dx="0" dy="0" stdDeviation="5" flood-color="#34d399" flood-opacity=".42"/></filter>
</defs>
<rect width="420" height="660" rx="34" fill="url(#bg)"/>
<rect x="18" y="18" width="384" height="624" rx="30" fill="url(#a)" stroke="#d6a24f" stroke-opacity=".82" stroke-width="2.4"/>
<rect x="36" y="36" width="348" height="588" rx="22" fill="none" stroke="#fde68a" stroke-opacity=".28" stroke-width="1.5"/>
<circle cx="82" cy="131" r="2" fill="#fff1b8" opacity="0.36"/>
<circle cx="205" cy="406" r="2" fill="#fff1b8" opacity="0.58"/>
<circle cx="125" cy="193" r="1" fill="#fff1b8" opacity="0.75"/>
<circle cx="308" cy="335" r="2" fill="#fff1b8" opacity="0.73"/>
<circle cx="115" cy="265" r="1" fill="#fff1b8" opacity="0.61"/>
<circle cx="130" cy="261" r="2" fill="#fff1b8" opacity="0.33"/>
<circle cx="87" cy="443" r="2" fill="#fff1b8" opacity="0.52"/>
<circle cx="94" cy="247" r="1.2" fill="#fff1b8" opacity="0.66"/>
<circle cx="352" cy="420" r="1.2" fill="#fff1b8" opacity="0.53"/>
<circle cx="166" cy="440" r="1.5" fill="#fff1b8" opacity="0.57"/>
<circle cx="42" cy="150" r="1.5" fill="#fff1b8" opacity="0.27"/>
<circle cx="298" cy="370" r="1.5" fill="#fff1b8" opacity="0.74"/>
<circle cx="103" cy="353" r="2" fill="#fff1b8" opacity="0.49"/>
<circle cx="171" cy="333" r="1.5" fill="#fff1b8" opacity="0.68"/>
<circle cx="157" cy="372" r="1" fill="#fff1b8" opacity="0.37"/>
<circle cx="240" cy="215" r="1.5" fill="#fff1b8" opacity="0.78"/>
<circle cx="289" cy="85" r="1.5" fill="#fff1b8" opacity="0.30"/>
<circle cx="118" cy="459" r="1.5" fill="#fff1b8" opacity="0.61"/>
<circle cx="222" cy="564" r="1.2" fill="#fff1b8" opacity="0.77"/>
<circle cx="212" cy="405" r="1" fill="#fff1b8" opacity="0.72"/>
<circle cx="79" cy="314" r="2" fill="#fff1b8" opacity="0.29"/>
<circle cx="352" cy="70" r="2" fill="#fff1b8" opacity="0.39"/>
<circle cx="282" cy="224" r="1.5" fill="#fff1b8" opacity="0.61"/>
<circle cx="116" cy="122" r="1.2" fill="#fff1b8" opacity="0.50"/>
<circle cx="307" cy="585" r="1.5" fill="#fff1b8" opacity="0.48"/>
<circle cx="344" cy="472" r="1.5" fill="#fff1b8" opacity="0.66"/>
<circle cx="159" cy="430" r="2" fill="#fff1b8" opacity="0.50"/>
<circle cx="101" cy="375" r="2" fill="#fff1b8" opacity="0.61"/>
<circle cx="179" cy="411" r="1.2" fill="#fff1b8" opacity="0.41"/>
<circle cx="358" cy="183" r="1.2" fill="#fff1b8" opacity="0.37"/>
<circle cx="131" cy="129" r="2" fill="#fff1b8" opacity="0.51"/>
<circle cx="202" cy="256" r="1.5" fill="#fff1b8" opacity="0.50"/>
<circle cx="102" cy="444" r="1.2" fill="#fff1b8" opacity="0.74"/>
<circle cx="54" cy="300" r="1" fill="#fff1b8" opacity="0.58"/>
<circle cx="155" cy="394" r="2" fill="#fff1b8" opacity="0.45"/>
<circle cx="358" cy="79" r="1" fill="#fff1b8" opacity="0.31"/>
<circle cx="124" cy="171" r="1.5" fill="#fff1b8" opacity="0.62"/>
<circle cx="254" cy="389" r="1" fill="#fff1b8" opacity="0.57"/>
<path d="M70 104 C132 68 288 68 350 104 M70 556 C132 592 288 592 350 556" fill="none" stroke="#d6a24f" stroke-opacity=".28" stroke-width="2"/>
<text x="64" y="78" fill="#fff1b8" font-size="22" font-family="Georgia,serif">KNIGHT</text>
<text x="356" y="78" text-anchor="end" fill="#fff1b8" font-size="22" font-family="Georgia,serif">KNIGHT</text>
<g filter="url(#glow)"><ellipse cx="210" cy="430" rx="96" ry="22" fill="#fde68a" opacity=".16"/><path d="M148 400 C164 310 186 250 210 220 C234 250 256 310 272 400 Z" fill="#34d399" opacity=".17" stroke="#34d399" stroke-width="3"/><circle cx="210" cy="214" r="40" fill="#fde68a" opacity=".18" stroke="#fde68a" stroke-width="3"/><text x="210" y="268" text-anchor="middle" font-size="74" fill="#34d399" font-family="Georgia,serif">♞</text><text x="210" y="356" text-anchor="middle" font-size="56" fill="#fde68a" font-family="Georgia,serif">⬟</text></g>
<rect x="58" y="530" width="304" height="74" rx="17" fill="#050812" opacity=".74" stroke="#d6a24f" stroke-opacity=".30"/>
<text x="210" y="566" text-anchor="middle" fill="#fff7df" font-size="20" font-family="Georgia,serif">Knight of Pentacles</text>
<text x="210" y="592" text-anchor="middle" fill="#c9b27a" font-size="9" font-family="Arial" letter-spacing="3">FATECARD ORIGINAL</text>
</svg>