<svg xmlns="http://www.w3.org/2000/svg" width="420" height="660" viewBox="0 0 420 660" role="img" aria-label="Four of Cups">
  <defs>
    <linearGradient id="bg" x1="0" y1="0" x2="1" y2="1">
      <stop offset="0%" stop-color="#050816"/>
      <stop offset="45%" stop-color="#17102d"/>
      <stop offset="100%" stop-color="#020617"/>
    </linearGradient>
    <radialGradient id="aura" cx="50%" cy="38%" r="68%">
      <stop offset="0%" stop-color="#facc15" stop-opacity=".18"/>
      <stop offset="52%" stop-color="#a78bfa" stop-opacity=".10"/>
      <stop offset="100%" stop-color="#020617" stop-opacity="0"/>
    </radialGradient>
    <filter id="glow" x="-30%" y="-30%" width="160%" height="160%">
      <feDropShadow dx="0" dy="0" stdDeviation="6" flood-color="#38bdf8" flood-opacity=".42"/>
    </filter>
  </defs>
  <rect width="420" height="660" rx="34" fill="url(#bg)"/>
  <rect x="20" y="20" width="380" height="620" rx="30" fill="url(#aura)" stroke="#facc15" stroke-opacity=".54" stroke-width="2"/>
  <rect x="35" y="35" width="350" height="590" rx="22" fill="none" stroke="#a78bfa" stroke-opacity=".18" stroke-width="1.5"/>
  <circle cx="283" cy="394" r="1.8" fill="#fde68a" opacity="0.66"/>
<circle cx="282" cy="305" r="2.2" fill="#fde68a" opacity="0.48"/>
<circle cx="197" cy="98" r="1.4" fill="#fde68a" opacity="0.51"/>
<circle cx="209" cy="341" r="1.0" fill="#fde68a" opacity="0.79"/>
<circle cx="109" cy="581" r="1.4" fill="#fde68a" opacity="0.65"/>
<circle cx="193" cy="232" r="1.8" fill="#fde68a" opacity="0.30"/>
<circle cx="138" cy="67" r="2.2" fill="#fde68a" opacity="0.38"/>
<circle cx="356" cy="379" r="2.2" fill="#fde68a" opacity="0.29"/>
<circle cx="380" cy="491" r="1.8" fill="#fde68a" opacity="0.43"/>
<circle cx="106" cy="368" r="1.8" fill="#fde68a" opacity="0.29"/>
<circle cx="373" cy="560" r="1.0" fill="#fde68a" opacity="0.66"/>
<circle cx="186" cy="312" r="1.0" fill="#fde68a" opacity="0.64"/>
<circle cx="94" cy="141" r="2.2" fill="#fde68a" opacity="0.37"/>
<circle cx="338" cy="131" r="1.4" fill="#fde68a" opacity="0.52"/>
<circle cx="175" cy="359" r="1.0" fill="#fde68a" opacity="0.73"/>
<circle cx="118" cy="285" r="2.2" fill="#fde68a" opacity="0.43"/>
<circle cx="260" cy="451" r="1.0" fill="#fde68a" opacity="0.60"/>
<circle cx="379" cy="125" r="1.8" fill="#fde68a" opacity="0.40"/>
<circle cx="237" cy="67" r="2.2" fill="#fde68a" opacity="0.41"/>
<circle cx="58" cy="236" r="1.0" fill="#fde68a" opacity="0.49"/>
<circle cx="81" cy="157" r="1.8" fill="#fde68a" opacity="0.36"/>
<circle cx="100" cy="348" r="1.8" fill="#fde68a" opacity="0.48"/>
<circle cx="184" cy="176" r="1.0" fill="#fde68a" opacity="0.43"/>
<circle cx="78" cy="157" r="1.8" fill="#fde68a" opacity="0.64"/>
<circle cx="104" cy="179" r="1.4" fill="#fde68a" opacity="0.75"/>
<circle cx="173" cy="146" r="1.8" fill="#fde68a" opacity="0.31"/>
<circle cx="39" cy="432" r="1.0" fill="#fde68a" opacity="0.40"/>
<circle cx="77" cy="338" r="1.8" fill="#fde68a" opacity="0.80"/>
<circle cx="211" cy="185" r="1.4" fill="#fde68a" opacity="0.66"/>
<circle cx="236" cy="520" r="1.4" fill="#fde68a" opacity="0.50"/>
<circle cx="164" cy="584" r="1.0" fill="#fde68a" opacity="0.55"/>
<circle cx="44" cy="109" r="1.0" fill="#fde68a" opacity="0.81"/>
<circle cx="363" cy="153" r="1.8" fill="#fde68a" opacity="0.74"/>
<circle cx="272" cy="342" r="1.8" fill="#fde68a" opacity="0.82"/>
  
    <path d="M55 118 C120 74 300 74 365 118" fill="none" stroke="#38bdf8" stroke-opacity=".28" stroke-width="2"/>
    <path d="M55 542 C120 586 300 586 365 542" fill="none" stroke="#38bdf8" stroke-opacity=".28" stroke-width="2"/>
    <path d="M74 88 L98 88 M322 88 L346 88 M74 572 L98 572 M322 572 L346 572" stroke="#93c5fd" stroke-opacity=".50" stroke-width="2" stroke-linecap="round"/>
    <circle cx="80" cy="100" r="10" fill="none" stroke="#93c5fd" stroke-opacity=".45"/>
    <circle cx="340" cy="100" r="10" fill="none" stroke="#93c5fd" stroke-opacity=".45"/>
    <circle cx="80" cy="560" r="10" fill="none" stroke="#93c5fd" stroke-opacity=".45"/>
    <circle cx="340" cy="560" r="10" fill="none" stroke="#93c5fd" stroke-opacity=".45"/>
    
  
            <circle cx="210" cy="286" r="132" fill="#38bdf8" opacity=".065"/>
            <circle cx="210" cy="286" r="102" fill="none" stroke="#93c5fd" stroke-opacity=".36" stroke-width="2"/>
            <text x="210" y="164" text-anchor="middle" dominant-baseline="middle" font-size="42" font-family="Georgia, serif" fill="#38bdf8" opacity=".94">●</text><text x="154" y="220" text-anchor="middle" dominant-baseline="middle" font-size="42" font-family="Georgia, serif" fill="#38bdf8" opacity=".94">●</text><text x="266" y="220" text-anchor="middle" dominant-baseline="middle" font-size="42" font-family="Georgia, serif" fill="#38bdf8" opacity=".94">●</text><text x="154" y="302" text-anchor="middle" dominant-baseline="middle" font-size="42" font-family="Georgia, serif" fill="#38bdf8" opacity=".94">●</text>
            <text x="62" y="86" font-size="26" font-family="Georgia, serif" fill="#fff7ed">IV</text>
            <text x="358" y="86" text-anchor="end" font-size="26" font-family="Georgia, serif" fill="#fff7ed">IV</text>
            
  <rect x="58" y="522" width="304" height="76" rx="18" fill="#020617" opacity=".62" stroke="#facc15" stroke-opacity=".24"/>
  <text x="210" y="558" text-anchor="middle" font-size="20" font-family="Georgia, serif" fill="#fff7ed">Four of Cups</text>
  <text x="210" y="586" text-anchor="middle" font-size="9" font-family="Arial, sans-serif" letter-spacing="3" fill="#c4b5fd">ORIGINAL SYMBOLIC DECK</text>
</svg>