<svg xmlns="http://www.w3.org/2000/svg" width="420" height="660" viewBox="0 0 420 660" role="img" aria-label="Two of Pentacles">
<defs>
<linearGradient id="bg" x1="0" y1="0" x2="1" y2="1"><stop stop-color="#080b18"/><stop offset=".52" stop-color="#211436"/><stop offset="1" stop-color="#050812"/></linearGradient>
<radialGradient id="a" cx="50%" cy="40%" r="64%"><stop stop-color="#34d399" stop-opacity=".22"/><stop offset=".55" stop-color="#fde68a" stop-opacity=".12"/><stop offset="1" stop-color="#000" stop-opacity="0"/></radialGradient>
<filter id="glow"><feDropShadow dx="0" dy="0" stdDeviation="5" flood-color="#34d399" flood-opacity=".42"/></filter>
</defs>
<rect width="420" height="660" rx="34" fill="url(#bg)"/>
<rect x="18" y="18" width="384" height="624" rx="30" fill="url(#a)" stroke="#d6a24f" stroke-opacity=".82" stroke-width="2.4"/>
<rect x="36" y="36" width="348" height="588" rx="22" fill="none" stroke="#fde68a" stroke-opacity=".28" stroke-width="1.5"/>
<circle cx="145" cy="387" r="1.2" fill="#fff1b8" opacity="0.36"/>
<circle cx="133" cy="359" r="1.2" fill="#fff1b8" opacity="0.37"/>
<circle cx="257" cy="465" r="1.5" fill="#fff1b8" opacity="0.65"/>
<circle cx="140" cy="320" r="1" fill="#fff1b8" opacity="0.27"/>
<circle cx="54" cy="469" r="1.2" fill="#fff1b8" opacity="0.43"/>
<circle cx="364" cy="339" r="1.2" fill="#fff1b8" opacity="0.38"/>
<circle cx="72" cy="216" r="1" fill="#fff1b8" opacity="0.63"/>
<circle cx="111" cy="182" r="1.5" fill="#fff1b8" opacity="0.37"/>
<circle cx="99" cy="292" r="1.2" fill="#fff1b8" opacity="0.76"/>
<circle cx="285" cy="458" r="1" fill="#fff1b8" opacity="0.39"/>
<circle cx="314" cy="67" r="1.5" fill="#fff1b8" opacity="0.54"/>
<circle cx="349" cy="129" r="1" fill="#fff1b8" opacity="0.36"/>
<circle cx="227" cy="251" r="1.2" fill="#fff1b8" opacity="0.69"/>
<circle cx="164" cy="387" r="2" fill="#fff1b8" opacity="0.34"/>
<circle cx="242" cy="397" r="1.5" fill="#fff1b8" opacity="0.32"/>
<circle cx="46" cy="414" r="1.2" fill="#fff1b8" opacity="0.62"/>
<circle cx="212" cy="148" r="1.2" fill="#fff1b8" opacity="0.65"/>
<circle cx="143" cy="225" r="1.5" fill="#fff1b8" opacity="0.56"/>
<circle cx="92" cy="337" r="1.5" fill="#fff1b8" opacity="0.67"/>
<circle cx="253" cy="333" r="1.5" fill="#fff1b8" opacity="0.69"/>
<circle cx="185" cy="333" r="1" fill="#fff1b8" opacity="0.39"/>
<circle cx="377" cy="536" r="1.5" fill="#fff1b8" opacity="0.63"/>
<circle cx="87" cy="147" r="1.5" fill="#fff1b8" opacity="0.54"/>
<circle cx="278" cy="345" r="1.2" fill="#fff1b8" opacity="0.61"/>
<circle cx="101" cy="499" r="1" fill="#fff1b8" opacity="0.77"/>
<circle cx="307" cy="199" r="1" fill="#fff1b8" opacity="0.31"/>
<circle cx="224" cy="391" r="1.2" fill="#fff1b8" opacity="0.52"/>
<circle cx="285" cy="188" r="1.5" fill="#fff1b8" opacity="0.40"/>
<circle cx="52" cy="95" r="1.2" fill="#fff1b8" opacity="0.27"/>
<circle cx="242" cy="198" r="2" fill="#fff1b8" opacity="0.61"/>
<circle cx="247" cy="143" r="1" fill="#fff1b8" opacity="0.60"/>
<circle cx="231" cy="168" r="1.5" fill="#fff1b8" opacity="0.53"/>
<circle cx="138" cy="569" r="1.2" fill="#fff1b8" opacity="0.54"/>
<circle cx="95" cy="499" r="2" fill="#fff1b8" opacity="0.26"/>
<circle cx="89" cy="362" r="1.2" fill="#fff1b8" opacity="0.42"/>
<circle cx="182" cy="350" r="1.2" fill="#fff1b8" opacity="0.35"/>
<circle cx="71" cy="552" r="1.5" fill="#fff1b8" opacity="0.66"/>
<circle cx="325" cy="168" r="1.5" fill="#fff1b8" opacity="0.27"/>
<path d="M70 104 C132 68 288 68 350 104 M70 556 C132 592 288 592 350 556" fill="none" stroke="#d6a24f" stroke-opacity=".28" stroke-width="2"/>
<text x="64" y="78" fill="#fff1b8" font-size="22" font-family="Georgia,serif">II</text>
<text x="356" y="78" text-anchor="end" fill="#fff1b8" font-size="22" font-family="Georgia,serif">II</text>
<g filter="url(#glow)"><circle cx="210" cy="292" r="122" fill="#fde68a" opacity=".08"/><circle cx="210" cy="292" r="92" fill="none" stroke="#34d399" stroke-opacity=".36" stroke-width="2"/><text x="210" y="156" text-anchor="middle" dominant-baseline="middle" font-size="42" fill="#34d399" font-family="Georgia,serif">⬟</text><text x="154" y="218" text-anchor="middle" dominant-baseline="middle" font-size="42" fill="#34d399" font-family="Georgia,serif">⬟</text><path d="M130 464 C172 428 248 428 290 464" fill="none" stroke="#34d399" stroke-width="5" stroke-linecap="round" opacity=".6"/></g>
<rect x="58" y="530" width="304" height="74" rx="17" fill="#050812" opacity=".74" stroke="#d6a24f" stroke-opacity=".30"/>
<text x="210" y="566" text-anchor="middle" fill="#fff7df" font-size="20" font-family="Georgia,serif">Two of Pentacles</text>
<text x="210" y="592" text-anchor="middle" fill="#c9b27a" font-size="9" font-family="Arial" letter-spacing="3">FATECARD ORIGINAL</text>
</svg>