<svg xmlns="http://www.w3.org/2000/svg" width="420" height="660" viewBox="0 0 420 660" role="img" aria-label="Four of Wands">
<defs>
<linearGradient id="bg" x1="0" y1="0" x2="1" y2="1"><stop stop-color="#080b18"/><stop offset=".52" stop-color="#211436"/><stop offset="1" stop-color="#050812"/></linearGradient>
<radialGradient id="a" cx="50%" cy="40%" r="64%"><stop stop-color="#f59e0b" stop-opacity=".22"/><stop offset=".55" stop-color="#fb923c" stop-opacity=".12"/><stop offset="1" stop-color="#000" stop-opacity="0"/></radialGradient>
<filter id="glow"><feDropShadow dx="0" dy="0" stdDeviation="5" flood-color="#f59e0b" flood-opacity=".42"/></filter>
</defs>
<rect width="420" height="660" rx="34" fill="url(#bg)"/>
<rect x="18" y="18" width="384" height="624" rx="30" fill="url(#a)" stroke="#d6a24f" stroke-opacity=".82" stroke-width="2.4"/>
<rect x="36" y="36" width="348" height="588" rx="22" fill="none" stroke="#fb923c" stroke-opacity=".28" stroke-width="1.5"/>
<circle cx="318" cy="535" r="1" fill="#fff1b8" opacity="0.62"/>
<circle cx="181" cy="108" r="2" fill="#fff1b8" opacity="0.41"/>
<circle cx="267" cy="583" r="1" fill="#fff1b8" opacity="0.29"/>
<circle cx="199" cy="113" r="1.5" fill="#fff1b8" opacity="0.37"/>
<circle cx="100" cy="216" r="2" fill="#fff1b8" opacity="0.65"/>
<circle cx="266" cy="162" r="1" fill="#fff1b8" opacity="0.30"/>
<circle cx="62" cy="415" r="1.2" fill="#fff1b8" opacity="0.62"/>
<circle cx="147" cy="281" r="1.5" fill="#fff1b8" opacity="0.42"/>
<circle cx="292" cy="469" r="1" fill="#fff1b8" opacity="0.71"/>
<circle cx="198" cy="343" r="1.5" fill="#fff1b8" opacity="0.50"/>
<circle cx="240" cy="507" r="1.2" fill="#fff1b8" opacity="0.29"/>
<circle cx="199" cy="559" r="2" fill="#fff1b8" opacity="0.60"/>
<circle cx="349" cy="95" r="1.5" fill="#fff1b8" opacity="0.49"/>
<circle cx="278" cy="138" r="1" fill="#fff1b8" opacity="0.43"/>
<circle cx="87" cy="482" r="1" fill="#fff1b8" opacity="0.70"/>
<circle cx="361" cy="443" r="1" fill="#fff1b8" opacity="0.76"/>
<circle cx="105" cy="66" r="1" fill="#fff1b8" opacity="0.28"/>
<circle cx="46" cy="521" r="1.2" fill="#fff1b8" opacity="0.36"/>
<circle cx="51" cy="481" r="2" fill="#fff1b8" opacity="0.77"/>
<circle cx="132" cy="489" r="1.2" fill="#fff1b8" opacity="0.64"/>
<circle cx="126" cy="432" r="1" fill="#fff1b8" opacity="0.62"/>
<circle cx="335" cy="509" r="1" fill="#fff1b8" opacity="0.61"/>
<circle cx="253" cy="401" r="1.2" fill="#fff1b8" opacity="0.63"/>
<circle cx="343" cy="540" r="1.5" fill="#fff1b8" opacity="0.32"/>
<circle cx="71" cy="454" r="1" fill="#fff1b8" opacity="0.58"/>
<circle cx="231" cy="536" r="2" fill="#fff1b8" opacity="0.37"/>
<circle cx="159" cy="555" r="1.5" fill="#fff1b8" opacity="0.62"/>
<circle cx="103" cy="581" r="1.2" fill="#fff1b8" opacity="0.73"/>
<circle cx="357" cy="194" r="1" fill="#fff1b8" opacity="0.77"/>
<circle cx="309" cy="345" r="1.5" fill="#fff1b8" opacity="0.43"/>
<circle cx="242" cy="550" r="1.5" fill="#fff1b8" opacity="0.39"/>
<circle cx="367" cy="420" r="1.2" fill="#fff1b8" opacity="0.76"/>
<circle cx="118" cy="62" r="2" fill="#fff1b8" opacity="0.55"/>
<circle cx="106" cy="77" r="1" fill="#fff1b8" opacity="0.73"/>
<circle cx="226" cy="447" r="1.2" fill="#fff1b8" opacity="0.28"/>
<circle cx="179" cy="231" r="2" fill="#fff1b8" opacity="0.44"/>
<circle cx="49" cy="138" r="1.2" fill="#fff1b8" opacity="0.62"/>
<circle cx="167" cy="129" r="2" fill="#fff1b8" opacity="0.73"/>
<path d="M70 104 C132 68 288 68 350 104 M70 556 C132 592 288 592 350 556" fill="none" stroke="#d6a24f" stroke-opacity=".28" stroke-width="2"/>
<text x="64" y="78" fill="#fff1b8" font-size="22" font-family="Georgia,serif">IV</text>
<text x="356" y="78" text-anchor="end" fill="#fff1b8" font-size="22" font-family="Georgia,serif">IV</text>
<g filter="url(#glow)"><circle cx="210" cy="292" r="122" fill="#fb923c" opacity=".08"/><circle cx="210" cy="292" r="92" fill="none" stroke="#f59e0b" stroke-opacity=".36" stroke-width="2"/><text x="210" y="156" text-anchor="middle" dominant-baseline="middle" font-size="42" fill="#f59e0b" font-family="Georgia,serif">♣</text><text x="154" y="218" text-anchor="middle" dominant-baseline="middle" font-size="42" fill="#f59e0b" font-family="Georgia,serif">♣</text><text x="266" y="218" text-anchor="middle" dominant-baseline="middle" font-size="42" fill="#f59e0b" font-family="Georgia,serif">♣</text><text x="154" y="294" text-anchor="middle" dominant-baseline="middle" font-size="42" fill="#f59e0b" font-family="Georgia,serif">♣</text><path d="M130 464 C172 428 248 428 290 464" fill="none" stroke="#f59e0b" stroke-width="5" stroke-linecap="round" opacity=".6"/></g>
<rect x="58" y="530" width="304" height="74" rx="17" fill="#050812" opacity=".74" stroke="#d6a24f" stroke-opacity=".30"/>
<text x="210" y="566" text-anchor="middle" fill="#fff7df" font-size="20" font-family="Georgia,serif">Four of Wands</text>
<text x="210" y="592" text-anchor="middle" fill="#c9b27a" font-size="9" font-family="Arial" letter-spacing="3">FATECARD ORIGINAL</text>
</svg>