<svg xmlns="http://www.w3.org/2000/svg" width="420" height="660" viewBox="0 0 420 660" role="img" aria-label="Three of Swords">
<defs>
<linearGradient id="bg" x1="0" y1="0" x2="1" y2="1"><stop stop-color="#080b18"/><stop offset=".52" stop-color="#211436"/><stop offset="1" stop-color="#050812"/></linearGradient>
<radialGradient id="a" cx="50%" cy="40%" r="64%"><stop stop-color="#c4b5fd" stop-opacity=".22"/><stop offset=".55" stop-color="#e0e7ff" stop-opacity=".12"/><stop offset="1" stop-color="#000" stop-opacity="0"/></radialGradient>
<filter id="glow"><feDropShadow dx="0" dy="0" stdDeviation="5" flood-color="#c4b5fd" flood-opacity=".42"/></filter>
</defs>
<rect width="420" height="660" rx="34" fill="url(#bg)"/>
<rect x="18" y="18" width="384" height="624" rx="30" fill="url(#a)" stroke="#d6a24f" stroke-opacity=".82" stroke-width="2.4"/>
<rect x="36" y="36" width="348" height="588" rx="22" fill="none" stroke="#e0e7ff" stroke-opacity=".28" stroke-width="1.5"/>
<circle cx="88" cy="525" r="2" fill="#fff1b8" opacity="0.68"/>
<circle cx="300" cy="104" r="2" fill="#fff1b8" opacity="0.65"/>
<circle cx="247" cy="459" r="1.5" fill="#fff1b8" opacity="0.43"/>
<circle cx="322" cy="275" r="1.2" fill="#fff1b8" opacity="0.66"/>
<circle cx="306" cy="395" r="1" fill="#fff1b8" opacity="0.39"/>
<circle cx="254" cy="215" r="1.5" fill="#fff1b8" opacity="0.71"/>
<circle cx="142" cy="242" r="1.2" fill="#fff1b8" opacity="0.65"/>
<circle cx="77" cy="486" r="2" fill="#fff1b8" opacity="0.68"/>
<circle cx="71" cy="116" r="1.5" fill="#fff1b8" opacity="0.37"/>
<circle cx="333" cy="128" r="1" fill="#fff1b8" opacity="0.65"/>
<circle cx="347" cy="216" r="1.2" fill="#fff1b8" opacity="0.75"/>
<circle cx="341" cy="301" r="1.2" fill="#fff1b8" opacity="0.31"/>
<circle cx="108" cy="452" r="1.2" fill="#fff1b8" opacity="0.51"/>
<circle cx="231" cy="63" r="1" fill="#fff1b8" opacity="0.30"/>
<circle cx="141" cy="162" r="1.5" fill="#fff1b8" opacity="0.44"/>
<circle cx="103" cy="157" r="1" fill="#fff1b8" opacity="0.62"/>
<circle cx="376" cy="379" r="1" fill="#fff1b8" opacity="0.52"/>
<circle cx="91" cy="516" r="1.5" fill="#fff1b8" opacity="0.53"/>
<circle cx="140" cy="336" r="1" fill="#fff1b8" opacity="0.71"/>
<circle cx="208" cy="119" r="1.2" fill="#fff1b8" opacity="0.48"/>
<circle cx="357" cy="445" r="1" fill="#fff1b8" opacity="0.40"/>
<circle cx="100" cy="400" r="1.2" fill="#fff1b8" opacity="0.69"/>
<circle cx="170" cy="292" r="2" fill="#fff1b8" opacity="0.64"/>
<circle cx="76" cy="342" r="2" fill="#fff1b8" opacity="0.74"/>
<circle cx="306" cy="486" r="1.2" fill="#fff1b8" opacity="0.50"/>
<circle cx="160" cy="492" r="2" fill="#fff1b8" opacity="0.38"/>
<circle cx="152" cy="393" r="2" fill="#fff1b8" opacity="0.62"/>
<circle cx="367" cy="443" r="1.5" fill="#fff1b8" opacity="0.49"/>
<circle cx="71" cy="572" r="1" fill="#fff1b8" opacity="0.42"/>
<circle cx="128" cy="508" r="2" fill="#fff1b8" opacity="0.60"/>
<circle cx="251" cy="313" r="1.2" fill="#fff1b8" opacity="0.72"/>
<circle cx="233" cy="125" r="1" fill="#fff1b8" opacity="0.44"/>
<circle cx="306" cy="197" r="1.2" fill="#fff1b8" opacity="0.32"/>
<circle cx="261" cy="404" r="1.5" fill="#fff1b8" opacity="0.47"/>
<circle cx="269" cy="290" r="1" fill="#fff1b8" opacity="0.65"/>
<circle cx="180" cy="122" r="1.5" fill="#fff1b8" opacity="0.28"/>
<circle cx="361" cy="345" r="2" fill="#fff1b8" opacity="0.70"/>
<circle cx="263" cy="381" r="1.5" fill="#fff1b8" opacity="0.64"/>
<path d="M70 104 C132 68 288 68 350 104 M70 556 C132 592 288 592 350 556" fill="none" stroke="#d6a24f" stroke-opacity=".28" stroke-width="2"/>
<text x="64" y="78" fill="#fff1b8" font-size="22" font-family="Georgia,serif">III</text>
<text x="356" y="78" text-anchor="end" fill="#fff1b8" font-size="22" font-family="Georgia,serif">III</text>
<g filter="url(#glow)"><circle cx="210" cy="292" r="122" fill="#e0e7ff" opacity=".08"/><circle cx="210" cy="292" r="92" fill="none" stroke="#c4b5fd" stroke-opacity=".36" stroke-width="2"/><text x="210" y="156" text-anchor="middle" dominant-baseline="middle" font-size="42" fill="#c4b5fd" font-family="Georgia,serif">◆</text><text x="154" y="218" text-anchor="middle" dominant-baseline="middle" font-size="42" fill="#c4b5fd" font-family="Georgia,serif">◆</text><text x="266" y="218" text-anchor="middle" dominant-baseline="middle" font-size="42" fill="#c4b5fd" font-family="Georgia,serif">◆</text><path d="M130 464 C172 428 248 428 290 464" fill="none" stroke="#c4b5fd" stroke-width="5" stroke-linecap="round" opacity=".6"/></g>
<rect x="58" y="530" width="304" height="74" rx="17" fill="#050812" opacity=".74" stroke="#d6a24f" stroke-opacity=".30"/>
<text x="210" y="566" text-anchor="middle" fill="#fff7df" font-size="20" font-family="Georgia,serif">Three of Swords</text>
<text x="210" y="592" text-anchor="middle" fill="#c9b27a" font-size="9" font-family="Arial" letter-spacing="3">FATECARD ORIGINAL</text>
</svg>