<svg xmlns="http://www.w3.org/2000/svg" width="420" height="660" viewBox="0 0 420 660" role="img" aria-label="Ace of Swords">
  <defs>
    <linearGradient id="bg" x1="0" y1="0" x2="1" y2="1">
      <stop offset="0%" stop-color="#050816"/>
      <stop offset="45%" stop-color="#17102d"/>
      <stop offset="100%" stop-color="#020617"/>
    </linearGradient>
    <radialGradient id="aura" cx="50%" cy="38%" r="68%">
      <stop offset="0%" stop-color="#facc15" stop-opacity=".18"/>
      <stop offset="52%" stop-color="#a78bfa" stop-opacity=".10"/>
      <stop offset="100%" stop-color="#020617" stop-opacity="0"/>
    </radialGradient>
    <filter id="glow" x="-30%" y="-30%" width="160%" height="160%">
      <feDropShadow dx="0" dy="0" stdDeviation="6" flood-color="#c4b5fd" flood-opacity=".42"/>
    </filter>
  </defs>
  <rect width="420" height="660" rx="34" fill="url(#bg)"/>
  <rect x="20" y="20" width="380" height="620" rx="30" fill="url(#aura)" stroke="#facc15" stroke-opacity=".54" stroke-width="2"/>
  <rect x="35" y="35" width="350" height="590" rx="22" fill="none" stroke="#a78bfa" stroke-opacity=".18" stroke-width="1.5"/>
  <circle cx="85" cy="299" r="1.8" fill="#fde68a" opacity="0.36"/>
<circle cx="86" cy="371" r="1.4" fill="#fde68a" opacity="0.54"/>
<circle cx="202" cy="497" r="1.0" fill="#fde68a" opacity="0.30"/>
<circle cx="101" cy="561" r="1.8" fill="#fde68a" opacity="0.38"/>
<circle cx="249" cy="164" r="1.0" fill="#fde68a" opacity="0.43"/>
<circle cx="96" cy="166" r="1.8" fill="#fde68a" opacity="0.31"/>
<circle cx="188" cy="452" r="2.2" fill="#fde68a" opacity="0.83"/>
<circle cx="39" cy="434" r="2.2" fill="#fde68a" opacity="0.48"/>
<circle cx="314" cy="435" r="1.0" fill="#fde68a" opacity="0.40"/>
<circle cx="190" cy="394" r="1.8" fill="#fde68a" opacity="0.28"/>
<circle cx="101" cy="109" r="1.0" fill="#fde68a" opacity="0.34"/>
<circle cx="197" cy="542" r="1.4" fill="#fde68a" opacity="0.58"/>
<circle cx="158" cy="225" r="1.4" fill="#fde68a" opacity="0.45"/>
<circle cx="38" cy="573" r="2.2" fill="#fde68a" opacity="0.62"/>
<circle cx="144" cy="66" r="1.4" fill="#fde68a" opacity="0.67"/>
<circle cx="160" cy="573" r="1.8" fill="#fde68a" opacity="0.74"/>
<circle cx="69" cy="468" r="2.2" fill="#fde68a" opacity="0.32"/>
<circle cx="270" cy="223" r="1.0" fill="#fde68a" opacity="0.52"/>
<circle cx="201" cy="494" r="1.0" fill="#fde68a" opacity="0.80"/>
<circle cx="295" cy="294" r="1.8" fill="#fde68a" opacity="0.79"/>
<circle cx="339" cy="477" r="1.0" fill="#fde68a" opacity="0.32"/>
<circle cx="66" cy="203" r="1.0" fill="#fde68a" opacity="0.81"/>
<circle cx="146" cy="69" r="1.0" fill="#fde68a" opacity="0.48"/>
<circle cx="279" cy="514" r="1.0" fill="#fde68a" opacity="0.75"/>
<circle cx="371" cy="333" r="1.8" fill="#fde68a" opacity="0.54"/>
<circle cx="339" cy="426" r="1.4" fill="#fde68a" opacity="0.46"/>
<circle cx="371" cy="550" r="1.8" fill="#fde68a" opacity="0.49"/>
<circle cx="342" cy="282" r="1.8" fill="#fde68a" opacity="0.54"/>
<circle cx="223" cy="218" r="1.8" fill="#fde68a" opacity="0.73"/>
<circle cx="227" cy="410" r="1.0" fill="#fde68a" opacity="0.31"/>
<circle cx="222" cy="370" r="1.0" fill="#fde68a" opacity="0.83"/>
<circle cx="181" cy="536" r="1.8" fill="#fde68a" opacity="0.57"/>
<circle cx="272" cy="303" r="1.8" fill="#fde68a" opacity="0.32"/>
<circle cx="217" cy="249" r="2.2" fill="#fde68a" opacity="0.84"/>
  
    <path d="M55 118 C120 74 300 74 365 118" fill="none" stroke="#c4b5fd" stroke-opacity=".28" stroke-width="2"/>
    <path d="M55 542 C120 586 300 586 365 542" fill="none" stroke="#c4b5fd" stroke-opacity=".28" stroke-width="2"/>
    <path d="M74 88 L98 88 M322 88 L346 88 M74 572 L98 572 M322 572 L346 572" stroke="#e0e7ff" stroke-opacity=".50" stroke-width="2" stroke-linecap="round"/>
    <circle cx="80" cy="100" r="10" fill="none" stroke="#e0e7ff" stroke-opacity=".45"/>
    <circle cx="340" cy="100" r="10" fill="none" stroke="#e0e7ff" stroke-opacity=".45"/>
    <circle cx="80" cy="560" r="10" fill="none" stroke="#e0e7ff" stroke-opacity=".45"/>
    <circle cx="340" cy="560" r="10" fill="none" stroke="#e0e7ff" stroke-opacity=".45"/>
    
  
            <circle cx="210" cy="286" r="132" fill="#c4b5fd" opacity=".065"/>
            <circle cx="210" cy="286" r="102" fill="none" stroke="#e0e7ff" stroke-opacity=".36" stroke-width="2"/>
            <text x="210" y="164" text-anchor="middle" dominant-baseline="middle" font-size="42" font-family="Georgia, serif" fill="#c4b5fd" opacity=".94">◆</text>
            <text x="62" y="86" font-size="26" font-family="Georgia, serif" fill="#fff7ed">A</text>
            <text x="358" y="86" text-anchor="end" font-size="26" font-family="Georgia, serif" fill="#fff7ed">A</text>
            
  <rect x="58" y="522" width="304" height="76" rx="18" fill="#020617" opacity=".62" stroke="#facc15" stroke-opacity=".24"/>
  <text x="210" y="558" text-anchor="middle" font-size="20" font-family="Georgia, serif" fill="#fff7ed">Ace of Swords</text>
  <text x="210" y="586" text-anchor="middle" font-size="9" font-family="Arial, sans-serif" letter-spacing="3" fill="#c4b5fd">ORIGINAL SYMBOLIC DECK</text>
</svg>