<svg xmlns="http://www.w3.org/2000/svg" width="420" height="660" viewBox="0 0 420 660" role="img" aria-label="Ten of Pentacles">
<defs>
<linearGradient id="bg" x1="0" y1="0" x2="1" y2="1"><stop stop-color="#080b18"/><stop offset=".52" stop-color="#211436"/><stop offset="1" stop-color="#050812"/></linearGradient>
<radialGradient id="a" cx="50%" cy="40%" r="64%"><stop stop-color="#34d399" stop-opacity=".22"/><stop offset=".55" stop-color="#fde68a" stop-opacity=".12"/><stop offset="1" stop-color="#000" stop-opacity="0"/></radialGradient>
<filter id="glow"><feDropShadow dx="0" dy="0" stdDeviation="5" flood-color="#34d399" flood-opacity=".42"/></filter>
</defs>
<rect width="420" height="660" rx="34" fill="url(#bg)"/>
<rect x="18" y="18" width="384" height="624" rx="30" fill="url(#a)" stroke="#d6a24f" stroke-opacity=".82" stroke-width="2.4"/>
<rect x="36" y="36" width="348" height="588" rx="22" fill="none" stroke="#fde68a" stroke-opacity=".28" stroke-width="1.5"/>
<circle cx="168" cy="123" r="1" fill="#fff1b8" opacity="0.59"/>
<circle cx="291" cy="362" r="2" fill="#fff1b8" opacity="0.60"/>
<circle cx="370" cy="265" r="1.2" fill="#fff1b8" opacity="0.33"/>
<circle cx="308" cy="346" r="2" fill="#fff1b8" opacity="0.54"/>
<circle cx="137" cy="547" r="1" fill="#fff1b8" opacity="0.38"/>
<circle cx="208" cy="183" r="1.2" fill="#fff1b8" opacity="0.75"/>
<circle cx="177" cy="402" r="1.5" fill="#fff1b8" opacity="0.45"/>
<circle cx="262" cy="79" r="1.2" fill="#fff1b8" opacity="0.77"/>
<circle cx="91" cy="118" r="1.2" fill="#fff1b8" opacity="0.26"/>
<circle cx="75" cy="454" r="1.2" fill="#fff1b8" opacity="0.33"/>
<circle cx="226" cy="501" r="1.2" fill="#fff1b8" opacity="0.43"/>
<circle cx="298" cy="194" r="1.5" fill="#fff1b8" opacity="0.66"/>
<circle cx="341" cy="58" r="1" fill="#fff1b8" opacity="0.32"/>
<circle cx="123" cy="120" r="2" fill="#fff1b8" opacity="0.31"/>
<circle cx="183" cy="360" r="2" fill="#fff1b8" opacity="0.67"/>
<circle cx="337" cy="440" r="1.2" fill="#fff1b8" opacity="0.69"/>
<circle cx="233" cy="176" r="1.5" fill="#fff1b8" opacity="0.70"/>
<circle cx="105" cy="539" r="1.2" fill="#fff1b8" opacity="0.77"/>
<circle cx="251" cy="444" r="1.2" fill="#fff1b8" opacity="0.56"/>
<circle cx="79" cy="157" r="1.2" fill="#fff1b8" opacity="0.38"/>
<circle cx="180" cy="530" r="1.5" fill="#fff1b8" opacity="0.27"/>
<circle cx="218" cy="261" r="1.5" fill="#fff1b8" opacity="0.67"/>
<circle cx="90" cy="457" r="1.5" fill="#fff1b8" opacity="0.30"/>
<circle cx="177" cy="373" r="1.2" fill="#fff1b8" opacity="0.75"/>
<circle cx="124" cy="502" r="1" fill="#fff1b8" opacity="0.64"/>
<circle cx="322" cy="314" r="2" fill="#fff1b8" opacity="0.29"/>
<circle cx="291" cy="421" r="1.2" fill="#fff1b8" opacity="0.68"/>
<circle cx="237" cy="356" r="2" fill="#fff1b8" opacity="0.40"/>
<circle cx="52" cy="257" r="1.5" fill="#fff1b8" opacity="0.56"/>
<circle cx="174" cy="422" r="2" fill="#fff1b8" opacity="0.43"/>
<circle cx="62" cy="561" r="1.2" fill="#fff1b8" opacity="0.67"/>
<circle cx="351" cy="462" r="2" fill="#fff1b8" opacity="0.54"/>
<circle cx="77" cy="85" r="1.5" fill="#fff1b8" opacity="0.61"/>
<circle cx="204" cy="428" r="1.2" fill="#fff1b8" opacity="0.56"/>
<circle cx="62" cy="439" r="1.5" fill="#fff1b8" opacity="0.75"/>
<circle cx="332" cy="553" r="2" fill="#fff1b8" opacity="0.31"/>
<circle cx="162" cy="93" r="2" fill="#fff1b8" opacity="0.68"/>
<circle cx="128" cy="506" r="1.2" fill="#fff1b8" opacity="0.32"/>
<path d="M70 104 C132 68 288 68 350 104 M70 556 C132 592 288 592 350 556" fill="none" stroke="#d6a24f" stroke-opacity=".28" stroke-width="2"/>
<text x="64" y="78" fill="#fff1b8" font-size="22" font-family="Georgia,serif">X</text>
<text x="356" y="78" text-anchor="end" fill="#fff1b8" font-size="22" font-family="Georgia,serif">X</text>
<g filter="url(#glow)"><circle cx="210" cy="292" r="122" fill="#fde68a" opacity=".08"/><circle cx="210" cy="292" r="92" fill="none" stroke="#34d399" stroke-opacity=".36" stroke-width="2"/><text x="210" y="156" text-anchor="middle" dominant-baseline="middle" font-size="42" fill="#34d399" font-family="Georgia,serif">⬟</text><text x="154" y="218" text-anchor="middle" dominant-baseline="middle" font-size="42" fill="#34d399" font-family="Georgia,serif">⬟</text><text x="266" y="218" text-anchor="middle" dominant-baseline="middle" font-size="42" fill="#34d399" font-family="Georgia,serif">⬟</text><text x="154" y="294" text-anchor="middle" dominant-baseline="middle" font-size="42" fill="#34d399" font-family="Georgia,serif">⬟</text><text x="266" y="294" text-anchor="middle" dominant-baseline="middle" font-size="42" fill="#34d399" font-family="Georgia,serif">⬟</text><text x="210" y="364" text-anchor="middle" dominant-baseline="middle" font-size="42" fill="#34d399" font-family="Georgia,serif">⬟</text><text x="210" y="252" text-anchor="middle" dominant-baseline="middle" font-size="42" fill="#34d399" font-family="Georgia,serif">⬟</text><text x="154" y="382" text-anchor="middle" dominant-baseline="middle" font-size="42" fill="#34d399" font-family="Georgia,serif">⬟</text><text x="266" y="382" text-anchor="middle" dominant-baseline="middle" font-size="42" fill="#34d399" font-family="Georgia,serif">⬟</text><text x="210" y="444" text-anchor="middle" dominant-baseline="middle" font-size="42" fill="#34d399" font-family="Georgia,serif">⬟</text><path d="M130 464 C172 428 248 428 290 464" fill="none" stroke="#34d399" stroke-width="5" stroke-linecap="round" opacity=".6"/></g>
<rect x="58" y="530" width="304" height="74" rx="17" fill="#050812" opacity=".74" stroke="#d6a24f" stroke-opacity=".30"/>
<text x="210" y="566" text-anchor="middle" fill="#fff7df" font-size="20" font-family="Georgia,serif">Ten of Pentacles</text>
<text x="210" y="592" text-anchor="middle" fill="#c9b27a" font-size="9" font-family="Arial" letter-spacing="3">FATECARD ORIGINAL</text>
</svg>