<svg xmlns="http://www.w3.org/2000/svg" width="420" height="660" viewBox="0 0 420 660" role="img" aria-label="Page of Pentacles">
  <defs>
    <linearGradient id="bg" x1="0" y1="0" x2="1" y2="1">
      <stop offset="0%" stop-color="#050816"/>
      <stop offset="45%" stop-color="#17102d"/>
      <stop offset="100%" stop-color="#020617"/>
    </linearGradient>
    <radialGradient id="aura" cx="50%" cy="38%" r="68%">
      <stop offset="0%" stop-color="#facc15" stop-opacity=".18"/>
      <stop offset="52%" stop-color="#a78bfa" stop-opacity=".10"/>
      <stop offset="100%" stop-color="#020617" stop-opacity="0"/>
    </radialGradient>
    <filter id="glow" x="-30%" y="-30%" width="160%" height="160%">
      <feDropShadow dx="0" dy="0" stdDeviation="6" flood-color="#34d399" flood-opacity=".42"/>
    </filter>
  </defs>
  <rect width="420" height="660" rx="34" fill="url(#bg)"/>
  <rect x="20" y="20" width="380" height="620" rx="30" fill="url(#aura)" stroke="#facc15" stroke-opacity=".54" stroke-width="2"/>
  <rect x="35" y="35" width="350" height="590" rx="22" fill="none" stroke="#a78bfa" stroke-opacity=".18" stroke-width="1.5"/>
  <circle cx="84" cy="300" r="1.8" fill="#fde68a" opacity="0.64"/>
<circle cx="233" cy="64" r="2.2" fill="#fde68a" opacity="0.71"/>
<circle cx="300" cy="346" r="1.4" fill="#fde68a" opacity="0.33"/>
<circle cx="319" cy="390" r="1.0" fill="#fde68a" opacity="0.55"/>
<circle cx="376" cy="272" r="1.8" fill="#fde68a" opacity="0.46"/>
<circle cx="296" cy="425" r="1.4" fill="#fde68a" opacity="0.59"/>
<circle cx="62" cy="111" r="1.0" fill="#fde68a" opacity="0.64"/>
<circle cx="276" cy="491" r="1.4" fill="#fde68a" opacity="0.47"/>
<circle cx="52" cy="487" r="1.4" fill="#fde68a" opacity="0.36"/>
<circle cx="281" cy="106" r="2.2" fill="#fde68a" opacity="0.38"/>
<circle cx="160" cy="336" r="1.8" fill="#fde68a" opacity="0.55"/>
<circle cx="178" cy="114" r="1.4" fill="#fde68a" opacity="0.66"/>
<circle cx="322" cy="246" r="1.0" fill="#fde68a" opacity="0.83"/>
<circle cx="269" cy="476" r="2.2" fill="#fde68a" opacity="0.52"/>
<circle cx="203" cy="281" r="2.2" fill="#fde68a" opacity="0.38"/>
<circle cx="183" cy="390" r="1.0" fill="#fde68a" opacity="0.55"/>
<circle cx="358" cy="407" r="1.0" fill="#fde68a" opacity="0.40"/>
<circle cx="137" cy="321" r="1.0" fill="#fde68a" opacity="0.82"/>
<circle cx="119" cy="108" r="1.8" fill="#fde68a" opacity="0.54"/>
<circle cx="358" cy="493" r="2.2" fill="#fde68a" opacity="0.73"/>
<circle cx="170" cy="370" r="1.4" fill="#fde68a" opacity="0.65"/>
<circle cx="174" cy="414" r="1.0" fill="#fde68a" opacity="0.75"/>
<circle cx="247" cy="445" r="1.8" fill="#fde68a" opacity="0.61"/>
<circle cx="149" cy="420" r="1.0" fill="#fde68a" opacity="0.68"/>
<circle cx="244" cy="214" r="2.2" fill="#fde68a" opacity="0.59"/>
<circle cx="343" cy="295" r="1.0" fill="#fde68a" opacity="0.82"/>
<circle cx="341" cy="577" r="1.0" fill="#fde68a" opacity="0.79"/>
<circle cx="363" cy="210" r="2.2" fill="#fde68a" opacity="0.40"/>
<circle cx="144" cy="568" r="1.8" fill="#fde68a" opacity="0.37"/>
<circle cx="99" cy="104" r="2.2" fill="#fde68a" opacity="0.82"/>
<circle cx="218" cy="108" r="1.4" fill="#fde68a" opacity="0.50"/>
<circle cx="343" cy="190" r="2.2" fill="#fde68a" opacity="0.31"/>
<circle cx="282" cy="255" r="1.0" fill="#fde68a" opacity="0.80"/>
<circle cx="364" cy="311" r="1.8" fill="#fde68a" opacity="0.62"/>
  
    <path d="M55 118 C120 74 300 74 365 118" fill="none" stroke="#34d399" stroke-opacity=".28" stroke-width="2"/>
    <path d="M55 542 C120 586 300 586 365 542" fill="none" stroke="#34d399" stroke-opacity=".28" stroke-width="2"/>
    <path d="M74 88 L98 88 M322 88 L346 88 M74 572 L98 572 M322 572 L346 572" stroke="#fde68a" stroke-opacity=".50" stroke-width="2" stroke-linecap="round"/>
    <circle cx="80" cy="100" r="10" fill="none" stroke="#fde68a" stroke-opacity=".45"/>
    <circle cx="340" cy="100" r="10" fill="none" stroke="#fde68a" stroke-opacity=".45"/>
    <circle cx="80" cy="560" r="10" fill="none" stroke="#fde68a" stroke-opacity=".45"/>
    <circle cx="340" cy="560" r="10" fill="none" stroke="#fde68a" stroke-opacity=".45"/>
    
  
            <circle cx="210" cy="272" r="122" fill="#34d399" opacity=".08"/>
            <path d="M146 394 L178 246 L210 382 L242 246 L274 394 Z" fill="#34d399" opacity=".12" stroke="#34d399" stroke-width="3" stroke-opacity=".68"/>
            <circle cx="210" cy="250" r="54" fill="#fde68a" opacity=".11" stroke="#fde68a" stroke-width="3" stroke-opacity=".55"/>
            <text x="210" y="264" text-anchor="middle" font-size="64" font-family="Georgia, serif" fill="#34d399">♙</text>
            <text x="210" y="350" text-anchor="middle" font-size="54" font-family="Georgia, serif" fill="#fde68a">⬟</text>
            <text x="62" y="86" font-size="20" font-family="Georgia, serif" fill="#fff7ed">PAGE</text>
            <text x="358" y="86" text-anchor="end" font-size="20" font-family="Georgia, serif" fill="#fff7ed">PAGE</text>
            
  <rect x="58" y="522" width="304" height="76" rx="18" fill="#020617" opacity=".62" stroke="#facc15" stroke-opacity=".24"/>
  <text x="210" y="558" text-anchor="middle" font-size="20" font-family="Georgia, serif" fill="#fff7ed">Page of Pentacles</text>
  <text x="210" y="586" text-anchor="middle" font-size="9" font-family="Arial, sans-serif" letter-spacing="3" fill="#c4b5fd">ORIGINAL SYMBOLIC DECK</text>
</svg>