<svg xmlns="http://www.w3.org/2000/svg" width="420" height="660" viewBox="0 0 420 660" role="img" aria-label="Page of Wands">
  <defs>
    <linearGradient id="bg" x1="0" y1="0" x2="1" y2="1">
      <stop offset="0%" stop-color="#050816"/>
      <stop offset="45%" stop-color="#17102d"/>
      <stop offset="100%" stop-color="#020617"/>
    </linearGradient>
    <radialGradient id="aura" cx="50%" cy="38%" r="68%">
      <stop offset="0%" stop-color="#facc15" stop-opacity=".18"/>
      <stop offset="52%" stop-color="#a78bfa" stop-opacity=".10"/>
      <stop offset="100%" stop-color="#020617" stop-opacity="0"/>
    </radialGradient>
    <filter id="glow" x="-30%" y="-30%" width="160%" height="160%">
      <feDropShadow dx="0" dy="0" stdDeviation="6" flood-color="#fb923c" flood-opacity=".42"/>
    </filter>
  </defs>
  <rect width="420" height="660" rx="34" fill="url(#bg)"/>
  <rect x="20" y="20" width="380" height="620" rx="30" fill="url(#aura)" stroke="#facc15" stroke-opacity=".54" stroke-width="2"/>
  <rect x="35" y="35" width="350" height="590" rx="22" fill="none" stroke="#a78bfa" stroke-opacity=".18" stroke-width="1.5"/>
  <circle cx="90" cy="352" r="1.8" fill="#fde68a" opacity="0.42"/>
<circle cx="316" cy="225" r="1.0" fill="#fde68a" opacity="0.47"/>
<circle cx="300" cy="526" r="1.8" fill="#fde68a" opacity="0.36"/>
<circle cx="278" cy="451" r="1.4" fill="#fde68a" opacity="0.83"/>
<circle cx="86" cy="354" r="1.8" fill="#fde68a" opacity="0.47"/>
<circle cx="242" cy="116" r="1.4" fill="#fde68a" opacity="0.82"/>
<circle cx="322" cy="550" r="1.8" fill="#fde68a" opacity="0.48"/>
<circle cx="93" cy="98" r="1.0" fill="#fde68a" opacity="0.78"/>
<circle cx="125" cy="231" r="1.8" fill="#fde68a" opacity="0.77"/>
<circle cx="93" cy="144" r="2.2" fill="#fde68a" opacity="0.37"/>
<circle cx="125" cy="121" r="1.8" fill="#fde68a" opacity="0.52"/>
<circle cx="331" cy="479" r="1.0" fill="#fde68a" opacity="0.79"/>
<circle cx="75" cy="70" r="1.0" fill="#fde68a" opacity="0.65"/>
<circle cx="117" cy="323" r="1.4" fill="#fde68a" opacity="0.50"/>
<circle cx="122" cy="269" r="1.0" fill="#fde68a" opacity="0.51"/>
<circle cx="128" cy="142" r="2.2" fill="#fde68a" opacity="0.32"/>
<circle cx="378" cy="542" r="2.2" fill="#fde68a" opacity="0.57"/>
<circle cx="236" cy="326" r="1.4" fill="#fde68a" opacity="0.64"/>
<circle cx="175" cy="75" r="1.0" fill="#fde68a" opacity="0.50"/>
<circle cx="195" cy="559" r="1.8" fill="#fde68a" opacity="0.71"/>
<circle cx="217" cy="458" r="1.0" fill="#fde68a" opacity="0.75"/>
<circle cx="292" cy="239" r="1.0" fill="#fde68a" opacity="0.51"/>
<circle cx="68" cy="330" r="1.0" fill="#fde68a" opacity="0.28"/>
<circle cx="289" cy="386" r="1.0" fill="#fde68a" opacity="0.83"/>
<circle cx="241" cy="537" r="1.8" fill="#fde68a" opacity="0.59"/>
<circle cx="282" cy="84" r="1.0" fill="#fde68a" opacity="0.81"/>
<circle cx="243" cy="211" r="2.2" fill="#fde68a" opacity="0.50"/>
<circle cx="233" cy="537" r="1.4" fill="#fde68a" opacity="0.83"/>
<circle cx="57" cy="476" r="1.4" fill="#fde68a" opacity="0.72"/>
<circle cx="81" cy="569" r="1.0" fill="#fde68a" opacity="0.66"/>
<circle cx="276" cy="232" r="2.2" fill="#fde68a" opacity="0.60"/>
<circle cx="296" cy="123" r="1.0" fill="#fde68a" opacity="0.53"/>
<circle cx="79" cy="209" r="1.8" fill="#fde68a" opacity="0.46"/>
<circle cx="197" cy="162" r="1.0" fill="#fde68a" opacity="0.69"/>
  
    <path d="M55 118 C120 74 300 74 365 118" fill="none" stroke="#fb923c" stroke-opacity=".28" stroke-width="2"/>
    <path d="M55 542 C120 586 300 586 365 542" fill="none" stroke="#fb923c" stroke-opacity=".28" stroke-width="2"/>
    <path d="M74 88 L98 88 M322 88 L346 88 M74 572 L98 572 M322 572 L346 572" stroke="#facc15" stroke-opacity=".50" stroke-width="2" stroke-linecap="round"/>
    <circle cx="80" cy="100" r="10" fill="none" stroke="#facc15" stroke-opacity=".45"/>
    <circle cx="340" cy="100" r="10" fill="none" stroke="#facc15" stroke-opacity=".45"/>
    <circle cx="80" cy="560" r="10" fill="none" stroke="#facc15" stroke-opacity=".45"/>
    <circle cx="340" cy="560" r="10" fill="none" stroke="#facc15" stroke-opacity=".45"/>
    
  
            <circle cx="210" cy="272" r="122" fill="#fb923c" opacity=".08"/>
            <path d="M146 394 L178 246 L210 382 L242 246 L274 394 Z" fill="#fb923c" opacity=".12" stroke="#fb923c" stroke-width="3" stroke-opacity=".68"/>
            <circle cx="210" cy="250" r="54" fill="#facc15" opacity=".11" stroke="#facc15" stroke-width="3" stroke-opacity=".55"/>
            <text x="210" y="264" text-anchor="middle" font-size="64" font-family="Georgia, serif" fill="#fb923c">♙</text>
            <text x="210" y="350" text-anchor="middle" font-size="54" font-family="Georgia, serif" fill="#facc15">♣</text>
            <text x="62" y="86" font-size="20" font-family="Georgia, serif" fill="#fff7ed">PAGE</text>
            <text x="358" y="86" text-anchor="end" font-size="20" font-family="Georgia, serif" fill="#fff7ed">PAGE</text>
            
  <rect x="58" y="522" width="304" height="76" rx="18" fill="#020617" opacity=".62" stroke="#facc15" stroke-opacity=".24"/>
  <text x="210" y="558" text-anchor="middle" font-size="20" font-family="Georgia, serif" fill="#fff7ed">Page of Wands</text>
  <text x="210" y="586" text-anchor="middle" font-size="9" font-family="Arial, sans-serif" letter-spacing="3" fill="#c4b5fd">ORIGINAL SYMBOLIC DECK</text>
</svg>