<svg xmlns="http://www.w3.org/2000/svg" width="420" height="660" viewBox="0 0 420 660" role="img" aria-label="Page of Swords">
<defs>
<linearGradient id="bg" x1="0" y1="0" x2="1" y2="1"><stop stop-color="#080b18"/><stop offset=".52" stop-color="#211436"/><stop offset="1" stop-color="#050812"/></linearGradient>
<radialGradient id="a" cx="50%" cy="40%" r="64%"><stop stop-color="#c4b5fd" stop-opacity=".22"/><stop offset=".55" stop-color="#e0e7ff" stop-opacity=".12"/><stop offset="1" stop-color="#000" stop-opacity="0"/></radialGradient>
<filter id="glow"><feDropShadow dx="0" dy="0" stdDeviation="5" flood-color="#c4b5fd" flood-opacity=".42"/></filter>
</defs>
<rect width="420" height="660" rx="34" fill="url(#bg)"/>
<rect x="18" y="18" width="384" height="624" rx="30" fill="url(#a)" stroke="#d6a24f" stroke-opacity=".82" stroke-width="2.4"/>
<rect x="36" y="36" width="348" height="588" rx="22" fill="none" stroke="#e0e7ff" stroke-opacity=".28" stroke-width="1.5"/>
<circle cx="107" cy="61" r="1.2" fill="#fff1b8" opacity="0.62"/>
<circle cx="112" cy="320" r="1" fill="#fff1b8" opacity="0.34"/>
<circle cx="168" cy="285" r="1.5" fill="#fff1b8" opacity="0.73"/>
<circle cx="113" cy="570" r="1" fill="#fff1b8" opacity="0.73"/>
<circle cx="315" cy="101" r="1.5" fill="#fff1b8" opacity="0.50"/>
<circle cx="196" cy="146" r="1.5" fill="#fff1b8" opacity="0.62"/>
<circle cx="314" cy="301" r="1.5" fill="#fff1b8" opacity="0.36"/>
<circle cx="279" cy="301" r="1" fill="#fff1b8" opacity="0.63"/>
<circle cx="88" cy="548" r="2" fill="#fff1b8" opacity="0.28"/>
<circle cx="84" cy="457" r="1.2" fill="#fff1b8" opacity="0.74"/>
<circle cx="254" cy="270" r="2" fill="#fff1b8" opacity="0.54"/>
<circle cx="81" cy="113" r="2" fill="#fff1b8" opacity="0.58"/>
<circle cx="378" cy="320" r="2" fill="#fff1b8" opacity="0.51"/>
<circle cx="243" cy="154" r="1.5" fill="#fff1b8" opacity="0.45"/>
<circle cx="240" cy="412" r="1" fill="#fff1b8" opacity="0.58"/>
<circle cx="306" cy="537" r="2" fill="#fff1b8" opacity="0.62"/>
<circle cx="319" cy="178" r="1.5" fill="#fff1b8" opacity="0.69"/>
<circle cx="240" cy="89" r="1" fill="#fff1b8" opacity="0.65"/>
<circle cx="177" cy="487" r="1.5" fill="#fff1b8" opacity="0.51"/>
<circle cx="89" cy="479" r="2" fill="#fff1b8" opacity="0.57"/>
<circle cx="212" cy="95" r="1.5" fill="#fff1b8" opacity="0.38"/>
<circle cx="350" cy="159" r="1.2" fill="#fff1b8" opacity="0.30"/>
<circle cx="88" cy="117" r="1" fill="#fff1b8" opacity="0.48"/>
<circle cx="45" cy="443" r="1.2" fill="#fff1b8" opacity="0.73"/>
<circle cx="59" cy="555" r="1.5" fill="#fff1b8" opacity="0.74"/>
<circle cx="100" cy="421" r="1.5" fill="#fff1b8" opacity="0.64"/>
<circle cx="153" cy="69" r="1.5" fill="#fff1b8" opacity="0.53"/>
<circle cx="337" cy="204" r="1" fill="#fff1b8" opacity="0.57"/>
<circle cx="285" cy="523" r="1.2" fill="#fff1b8" opacity="0.50"/>
<circle cx="150" cy="550" r="2" fill="#fff1b8" opacity="0.39"/>
<circle cx="50" cy="124" r="1.5" fill="#fff1b8" opacity="0.74"/>
<circle cx="72" cy="125" r="1" fill="#fff1b8" opacity="0.39"/>
<circle cx="142" cy="379" r="1.5" fill="#fff1b8" opacity="0.76"/>
<circle cx="60" cy="496" r="1.5" fill="#fff1b8" opacity="0.70"/>
<circle cx="146" cy="380" r="2" fill="#fff1b8" opacity="0.65"/>
<circle cx="177" cy="536" r="2" fill="#fff1b8" opacity="0.51"/>
<circle cx="171" cy="453" r="1.5" fill="#fff1b8" opacity="0.44"/>
<circle cx="143" cy="437" r="2" fill="#fff1b8" opacity="0.71"/>
<path d="M70 104 C132 68 288 68 350 104 M70 556 C132 592 288 592 350 556" fill="none" stroke="#d6a24f" stroke-opacity=".28" stroke-width="2"/>
<text x="64" y="78" fill="#fff1b8" font-size="22" font-family="Georgia,serif">PAGE</text>
<text x="356" y="78" text-anchor="end" fill="#fff1b8" font-size="22" font-family="Georgia,serif">PAGE</text>
<g filter="url(#glow)"><ellipse cx="210" cy="430" rx="96" ry="22" fill="#e0e7ff" opacity=".16"/><path d="M148 400 C164 310 186 250 210 220 C234 250 256 310 272 400 Z" fill="#c4b5fd" opacity=".17" stroke="#c4b5fd" stroke-width="3"/><circle cx="210" cy="214" r="40" fill="#e0e7ff" opacity=".18" stroke="#e0e7ff" stroke-width="3"/><text x="210" y="268" text-anchor="middle" font-size="74" fill="#c4b5fd" font-family="Georgia,serif">♙</text><text x="210" y="356" text-anchor="middle" font-size="56" fill="#e0e7ff" font-family="Georgia,serif">◆</text></g>
<rect x="58" y="530" width="304" height="74" rx="17" fill="#050812" opacity=".74" stroke="#d6a24f" stroke-opacity=".30"/>
<text x="210" y="566" text-anchor="middle" fill="#fff7df" font-size="20" font-family="Georgia,serif">Page of Swords</text>
<text x="210" y="592" text-anchor="middle" fill="#c9b27a" font-size="9" font-family="Arial" letter-spacing="3">FATECARD ORIGINAL</text>
</svg>