<svg xmlns="http://www.w3.org/2000/svg" width="420" height="660" viewBox="0 0 420 660" role="img" aria-label="Queen of Wands">
  <defs>
    <linearGradient id="bg" x1="0" y1="0" x2="1" y2="1">
      <stop offset="0%" stop-color="#050816"/>
      <stop offset="45%" stop-color="#17102d"/>
      <stop offset="100%" stop-color="#020617"/>
    </linearGradient>
    <radialGradient id="aura" cx="50%" cy="38%" r="68%">
      <stop offset="0%" stop-color="#facc15" stop-opacity=".18"/>
      <stop offset="52%" stop-color="#a78bfa" stop-opacity=".10"/>
      <stop offset="100%" stop-color="#020617" stop-opacity="0"/>
    </radialGradient>
    <filter id="glow" x="-30%" y="-30%" width="160%" height="160%">
      <feDropShadow dx="0" dy="0" stdDeviation="6" flood-color="#fb923c" flood-opacity=".42"/>
    </filter>
  </defs>
  <rect width="420" height="660" rx="34" fill="url(#bg)"/>
  <rect x="20" y="20" width="380" height="620" rx="30" fill="url(#aura)" stroke="#facc15" stroke-opacity=".54" stroke-width="2"/>
  <rect x="35" y="35" width="350" height="590" rx="22" fill="none" stroke="#a78bfa" stroke-opacity=".18" stroke-width="1.5"/>
  <circle cx="231" cy="540" r="1.8" fill="#fde68a" opacity="0.32"/>
<circle cx="191" cy="373" r="1.0" fill="#fde68a" opacity="0.81"/>
<circle cx="87" cy="263" r="1.0" fill="#fde68a" opacity="0.54"/>
<circle cx="316" cy="529" r="1.8" fill="#fde68a" opacity="0.78"/>
<circle cx="89" cy="178" r="1.4" fill="#fde68a" opacity="0.65"/>
<circle cx="332" cy="580" r="1.8" fill="#fde68a" opacity="0.45"/>
<circle cx="227" cy="124" r="1.0" fill="#fde68a" opacity="0.84"/>
<circle cx="159" cy="387" r="1.0" fill="#fde68a" opacity="0.35"/>
<circle cx="298" cy="498" r="2.2" fill="#fde68a" opacity="0.37"/>
<circle cx="264" cy="528" r="1.0" fill="#fde68a" opacity="0.49"/>
<circle cx="375" cy="59" r="1.4" fill="#fde68a" opacity="0.58"/>
<circle cx="370" cy="574" r="2.2" fill="#fde68a" opacity="0.61"/>
<circle cx="225" cy="502" r="1.0" fill="#fde68a" opacity="0.31"/>
<circle cx="69" cy="184" r="1.4" fill="#fde68a" opacity="0.57"/>
<circle cx="189" cy="581" r="1.8" fill="#fde68a" opacity="0.31"/>
<circle cx="231" cy="576" r="1.0" fill="#fde68a" opacity="0.52"/>
<circle cx="332" cy="203" r="1.0" fill="#fde68a" opacity="0.71"/>
<circle cx="281" cy="87" r="1.0" fill="#fde68a" opacity="0.77"/>
<circle cx="287" cy="508" r="1.4" fill="#fde68a" opacity="0.30"/>
<circle cx="144" cy="368" r="1.0" fill="#fde68a" opacity="0.49"/>
<circle cx="119" cy="571" r="1.0" fill="#fde68a" opacity="0.68"/>
<circle cx="273" cy="292" r="1.8" fill="#fde68a" opacity="0.69"/>
<circle cx="43" cy="390" r="1.4" fill="#fde68a" opacity="0.47"/>
<circle cx="138" cy="405" r="1.4" fill="#fde68a" opacity="0.45"/>
<circle cx="339" cy="246" r="2.2" fill="#fde68a" opacity="0.42"/>
<circle cx="260" cy="133" r="1.0" fill="#fde68a" opacity="0.32"/>
<circle cx="272" cy="175" r="1.0" fill="#fde68a" opacity="0.34"/>
<circle cx="137" cy="201" r="1.4" fill="#fde68a" opacity="0.30"/>
<circle cx="377" cy="152" r="1.0" fill="#fde68a" opacity="0.28"/>
<circle cx="93" cy="471" r="2.2" fill="#fde68a" opacity="0.43"/>
<circle cx="247" cy="274" r="1.0" fill="#fde68a" opacity="0.62"/>
<circle cx="239" cy="382" r="1.8" fill="#fde68a" opacity="0.52"/>
<circle cx="244" cy="234" r="1.0" fill="#fde68a" opacity="0.41"/>
<circle cx="86" cy="474" r="1.8" fill="#fde68a" opacity="0.58"/>
  
    <path d="M55 118 C120 74 300 74 365 118" fill="none" stroke="#fb923c" stroke-opacity=".28" stroke-width="2"/>
    <path d="M55 542 C120 586 300 586 365 542" fill="none" stroke="#fb923c" stroke-opacity=".28" stroke-width="2"/>
    <path d="M74 88 L98 88 M322 88 L346 88 M74 572 L98 572 M322 572 L346 572" stroke="#facc15" stroke-opacity=".50" stroke-width="2" stroke-linecap="round"/>
    <circle cx="80" cy="100" r="10" fill="none" stroke="#facc15" stroke-opacity=".45"/>
    <circle cx="340" cy="100" r="10" fill="none" stroke="#facc15" stroke-opacity=".45"/>
    <circle cx="80" cy="560" r="10" fill="none" stroke="#facc15" stroke-opacity=".45"/>
    <circle cx="340" cy="560" r="10" fill="none" stroke="#facc15" stroke-opacity=".45"/>
    
  
            <circle cx="210" cy="272" r="122" fill="#fb923c" opacity=".08"/>
            <path d="M146 394 L178 246 L210 382 L242 246 L274 394 Z" fill="#fb923c" opacity=".12" stroke="#fb923c" stroke-width="3" stroke-opacity=".68"/>
            <circle cx="210" cy="250" r="54" fill="#facc15" opacity=".11" stroke="#facc15" stroke-width="3" stroke-opacity=".55"/>
            <text x="210" y="264" text-anchor="middle" font-size="64" font-family="Georgia, serif" fill="#fb923c">♛</text>
            <text x="210" y="350" text-anchor="middle" font-size="54" font-family="Georgia, serif" fill="#facc15">♣</text>
            <text x="62" y="86" font-size="20" font-family="Georgia, serif" fill="#fff7ed">QUEEN</text>
            <text x="358" y="86" text-anchor="end" font-size="20" font-family="Georgia, serif" fill="#fff7ed">QUEEN</text>
            
  <rect x="58" y="522" width="304" height="76" rx="18" fill="#020617" opacity=".62" stroke="#facc15" stroke-opacity=".24"/>
  <text x="210" y="558" text-anchor="middle" font-size="20" font-family="Georgia, serif" fill="#fff7ed">Queen of Wands</text>
  <text x="210" y="586" text-anchor="middle" font-size="9" font-family="Arial, sans-serif" letter-spacing="3" fill="#c4b5fd">ORIGINAL SYMBOLIC DECK</text>
</svg>