<svg xmlns="http://www.w3.org/2000/svg" width="420" height="660" viewBox="0 0 420 660" role="img" aria-label="King of Cups">
  <defs>
    <linearGradient id="bg" x1="0" y1="0" x2="1" y2="1">
      <stop offset="0%" stop-color="#050816"/>
      <stop offset="45%" stop-color="#17102d"/>
      <stop offset="100%" stop-color="#020617"/>
    </linearGradient>
    <radialGradient id="aura" cx="50%" cy="38%" r="68%">
      <stop offset="0%" stop-color="#facc15" stop-opacity=".18"/>
      <stop offset="52%" stop-color="#a78bfa" stop-opacity=".10"/>
      <stop offset="100%" stop-color="#020617" stop-opacity="0"/>
    </radialGradient>
    <filter id="glow" x="-30%" y="-30%" width="160%" height="160%">
      <feDropShadow dx="0" dy="0" stdDeviation="6" flood-color="#38bdf8" flood-opacity=".42"/>
    </filter>
  </defs>
  <rect width="420" height="660" rx="34" fill="url(#bg)"/>
  <rect x="20" y="20" width="380" height="620" rx="30" fill="url(#aura)" stroke="#facc15" stroke-opacity=".54" stroke-width="2"/>
  <rect x="35" y="35" width="350" height="590" rx="22" fill="none" stroke="#a78bfa" stroke-opacity=".18" stroke-width="1.5"/>
  <circle cx="121" cy="318" r="2.2" fill="#fde68a" opacity="0.80"/>
<circle cx="77" cy="312" r="1.0" fill="#fde68a" opacity="0.77"/>
<circle cx="136" cy="415" r="1.8" fill="#fde68a" opacity="0.58"/>
<circle cx="89" cy="373" r="1.4" fill="#fde68a" opacity="0.65"/>
<circle cx="72" cy="207" r="1.4" fill="#fde68a" opacity="0.73"/>
<circle cx="364" cy="151" r="1.8" fill="#fde68a" opacity="0.78"/>
<circle cx="237" cy="391" r="1.0" fill="#fde68a" opacity="0.45"/>
<circle cx="132" cy="584" r="1.0" fill="#fde68a" opacity="0.40"/>
<circle cx="51" cy="451" r="1.0" fill="#fde68a" opacity="0.84"/>
<circle cx="340" cy="555" r="1.4" fill="#fde68a" opacity="0.42"/>
<circle cx="365" cy="295" r="2.2" fill="#fde68a" opacity="0.71"/>
<circle cx="80" cy="303" r="1.8" fill="#fde68a" opacity="0.83"/>
<circle cx="345" cy="539" r="1.4" fill="#fde68a" opacity="0.65"/>
<circle cx="74" cy="144" r="1.0" fill="#fde68a" opacity="0.67"/>
<circle cx="279" cy="526" r="1.0" fill="#fde68a" opacity="0.42"/>
<circle cx="285" cy="412" r="2.2" fill="#fde68a" opacity="0.33"/>
<circle cx="135" cy="522" r="1.0" fill="#fde68a" opacity="0.69"/>
<circle cx="227" cy="68" r="2.2" fill="#fde68a" opacity="0.31"/>
<circle cx="139" cy="250" r="1.8" fill="#fde68a" opacity="0.81"/>
<circle cx="208" cy="489" r="1.0" fill="#fde68a" opacity="0.32"/>
<circle cx="260" cy="118" r="1.0" fill="#fde68a" opacity="0.63"/>
<circle cx="132" cy="464" r="1.0" fill="#fde68a" opacity="0.38"/>
<circle cx="256" cy="92" r="2.2" fill="#fde68a" opacity="0.74"/>
<circle cx="208" cy="397" r="1.4" fill="#fde68a" opacity="0.57"/>
<circle cx="257" cy="333" r="1.0" fill="#fde68a" opacity="0.81"/>
<circle cx="148" cy="171" r="1.0" fill="#fde68a" opacity="0.60"/>
<circle cx="117" cy="127" r="1.0" fill="#fde68a" opacity="0.62"/>
<circle cx="211" cy="530" r="1.8" fill="#fde68a" opacity="0.45"/>
<circle cx="229" cy="291" r="1.8" fill="#fde68a" opacity="0.84"/>
<circle cx="358" cy="362" r="1.0" fill="#fde68a" opacity="0.74"/>
<circle cx="282" cy="566" r="1.0" fill="#fde68a" opacity="0.34"/>
<circle cx="95" cy="381" r="2.2" fill="#fde68a" opacity="0.56"/>
<circle cx="168" cy="122" r="1.4" fill="#fde68a" opacity="0.36"/>
<circle cx="187" cy="278" r="1.0" fill="#fde68a" opacity="0.43"/>
  
    <path d="M55 118 C120 74 300 74 365 118" fill="none" stroke="#38bdf8" stroke-opacity=".28" stroke-width="2"/>
    <path d="M55 542 C120 586 300 586 365 542" fill="none" stroke="#38bdf8" stroke-opacity=".28" stroke-width="2"/>
    <path d="M74 88 L98 88 M322 88 L346 88 M74 572 L98 572 M322 572 L346 572" stroke="#93c5fd" stroke-opacity=".50" stroke-width="2" stroke-linecap="round"/>
    <circle cx="80" cy="100" r="10" fill="none" stroke="#93c5fd" stroke-opacity=".45"/>
    <circle cx="340" cy="100" r="10" fill="none" stroke="#93c5fd" stroke-opacity=".45"/>
    <circle cx="80" cy="560" r="10" fill="none" stroke="#93c5fd" stroke-opacity=".45"/>
    <circle cx="340" cy="560" r="10" fill="none" stroke="#93c5fd" stroke-opacity=".45"/>
    
  
            <circle cx="210" cy="272" r="122" fill="#38bdf8" opacity=".08"/>
            <path d="M146 394 L178 246 L210 382 L242 246 L274 394 Z" fill="#38bdf8" opacity=".12" stroke="#38bdf8" stroke-width="3" stroke-opacity=".68"/>
            <circle cx="210" cy="250" r="54" fill="#93c5fd" opacity=".11" stroke="#93c5fd" stroke-width="3" stroke-opacity=".55"/>
            <text x="210" y="264" text-anchor="middle" font-size="64" font-family="Georgia, serif" fill="#38bdf8">♚</text>
            <text x="210" y="350" text-anchor="middle" font-size="54" font-family="Georgia, serif" fill="#93c5fd">●</text>
            <text x="62" y="86" font-size="20" font-family="Georgia, serif" fill="#fff7ed">KING</text>
            <text x="358" y="86" text-anchor="end" font-size="20" font-family="Georgia, serif" fill="#fff7ed">KING</text>
            
  <rect x="58" y="522" width="304" height="76" rx="18" fill="#020617" opacity=".62" stroke="#facc15" stroke-opacity=".24"/>
  <text x="210" y="558" text-anchor="middle" font-size="20" font-family="Georgia, serif" fill="#fff7ed">King of Cups</text>
  <text x="210" y="586" text-anchor="middle" font-size="9" font-family="Arial, sans-serif" letter-spacing="3" fill="#c4b5fd">ORIGINAL SYMBOLIC DECK</text>
</svg>