<svg xmlns="http://www.w3.org/2000/svg" width="420" height="660" viewBox="0 0 420 660" role="img" aria-label="Four of Pentacles">
<defs>
<linearGradient id="bg" x1="0" y1="0" x2="1" y2="1"><stop stop-color="#080b18"/><stop offset=".52" stop-color="#211436"/><stop offset="1" stop-color="#050812"/></linearGradient>
<radialGradient id="a" cx="50%" cy="40%" r="64%"><stop stop-color="#34d399" stop-opacity=".22"/><stop offset=".55" stop-color="#fde68a" stop-opacity=".12"/><stop offset="1" stop-color="#000" stop-opacity="0"/></radialGradient>
<filter id="glow"><feDropShadow dx="0" dy="0" stdDeviation="5" flood-color="#34d399" flood-opacity=".42"/></filter>
</defs>
<rect width="420" height="660" rx="34" fill="url(#bg)"/>
<rect x="18" y="18" width="384" height="624" rx="30" fill="url(#a)" stroke="#d6a24f" stroke-opacity=".82" stroke-width="2.4"/>
<rect x="36" y="36" width="348" height="588" rx="22" fill="none" stroke="#fde68a" stroke-opacity=".28" stroke-width="1.5"/>
<circle cx="148" cy="587" r="1.5" fill="#fff1b8" opacity="0.58"/>
<circle cx="239" cy="359" r="2" fill="#fff1b8" opacity="0.46"/>
<circle cx="254" cy="331" r="1.2" fill="#fff1b8" opacity="0.58"/>
<circle cx="240" cy="491" r="1" fill="#fff1b8" opacity="0.47"/>
<circle cx="87" cy="507" r="1.5" fill="#fff1b8" opacity="0.31"/>
<circle cx="234" cy="559" r="1" fill="#fff1b8" opacity="0.63"/>
<circle cx="153" cy="482" r="1.5" fill="#fff1b8" opacity="0.44"/>
<circle cx="71" cy="225" r="1" fill="#fff1b8" opacity="0.47"/>
<circle cx="47" cy="547" r="2" fill="#fff1b8" opacity="0.52"/>
<circle cx="185" cy="563" r="1.5" fill="#fff1b8" opacity="0.47"/>
<circle cx="111" cy="532" r="1.2" fill="#fff1b8" opacity="0.57"/>
<circle cx="245" cy="374" r="1.5" fill="#fff1b8" opacity="0.47"/>
<circle cx="110" cy="373" r="1.5" fill="#fff1b8" opacity="0.67"/>
<circle cx="378" cy="265" r="1.2" fill="#fff1b8" opacity="0.74"/>
<circle cx="128" cy="561" r="1.2" fill="#fff1b8" opacity="0.34"/>
<circle cx="314" cy="352" r="2" fill="#fff1b8" opacity="0.60"/>
<circle cx="79" cy="73" r="1" fill="#fff1b8" opacity="0.36"/>
<circle cx="257" cy="59" r="1.5" fill="#fff1b8" opacity="0.57"/>
<circle cx="232" cy="241" r="1" fill="#fff1b8" opacity="0.70"/>
<circle cx="313" cy="368" r="1.2" fill="#fff1b8" opacity="0.64"/>
<circle cx="241" cy="321" r="1.2" fill="#fff1b8" opacity="0.53"/>
<circle cx="101" cy="500" r="1.2" fill="#fff1b8" opacity="0.31"/>
<circle cx="342" cy="443" r="1.2" fill="#fff1b8" opacity="0.76"/>
<circle cx="218" cy="469" r="2" fill="#fff1b8" opacity="0.70"/>
<circle cx="50" cy="445" r="1.5" fill="#fff1b8" opacity="0.60"/>
<circle cx="327" cy="301" r="1" fill="#fff1b8" opacity="0.60"/>
<circle cx="147" cy="562" r="1.2" fill="#fff1b8" opacity="0.63"/>
<circle cx="303" cy="154" r="1.5" fill="#fff1b8" opacity="0.41"/>
<circle cx="224" cy="262" r="1" fill="#fff1b8" opacity="0.54"/>
<circle cx="267" cy="339" r="2" fill="#fff1b8" opacity="0.35"/>
<circle cx="127" cy="81" r="2" fill="#fff1b8" opacity="0.63"/>
<circle cx="159" cy="447" r="1" fill="#fff1b8" opacity="0.36"/>
<circle cx="105" cy="286" r="1.5" fill="#fff1b8" opacity="0.40"/>
<circle cx="119" cy="440" r="1" fill="#fff1b8" opacity="0.51"/>
<circle cx="191" cy="483" r="2" fill="#fff1b8" opacity="0.43"/>
<circle cx="281" cy="133" r="2" fill="#fff1b8" opacity="0.44"/>
<circle cx="281" cy="373" r="1.5" fill="#fff1b8" opacity="0.40"/>
<circle cx="83" cy="330" r="2" fill="#fff1b8" opacity="0.58"/>
<path d="M70 104 C132 68 288 68 350 104 M70 556 C132 592 288 592 350 556" fill="none" stroke="#d6a24f" stroke-opacity=".28" stroke-width="2"/>
<text x="64" y="78" fill="#fff1b8" font-size="22" font-family="Georgia,serif">IV</text>
<text x="356" y="78" text-anchor="end" fill="#fff1b8" font-size="22" font-family="Georgia,serif">IV</text>
<g filter="url(#glow)"><circle cx="210" cy="292" r="122" fill="#fde68a" opacity=".08"/><circle cx="210" cy="292" r="92" fill="none" stroke="#34d399" stroke-opacity=".36" stroke-width="2"/><text x="210" y="156" text-anchor="middle" dominant-baseline="middle" font-size="42" fill="#34d399" font-family="Georgia,serif">⬟</text><text x="154" y="218" text-anchor="middle" dominant-baseline="middle" font-size="42" fill="#34d399" font-family="Georgia,serif">⬟</text><text x="266" y="218" text-anchor="middle" dominant-baseline="middle" font-size="42" fill="#34d399" font-family="Georgia,serif">⬟</text><text x="154" y="294" text-anchor="middle" dominant-baseline="middle" font-size="42" fill="#34d399" font-family="Georgia,serif">⬟</text><path d="M130 464 C172 428 248 428 290 464" fill="none" stroke="#34d399" stroke-width="5" stroke-linecap="round" opacity=".6"/></g>
<rect x="58" y="530" width="304" height="74" rx="17" fill="#050812" opacity=".74" stroke="#d6a24f" stroke-opacity=".30"/>
<text x="210" y="566" text-anchor="middle" fill="#fff7df" font-size="20" font-family="Georgia,serif">Four of Pentacles</text>
<text x="210" y="592" text-anchor="middle" fill="#c9b27a" font-size="9" font-family="Arial" letter-spacing="3">FATECARD ORIGINAL</text>
</svg>