<svg xmlns="http://www.w3.org/2000/svg" width="420" height="660" viewBox="0 0 420 660" role="img" aria-label="Knight of Wands">
  <defs>
    <linearGradient id="bg" x1="0" y1="0" x2="1" y2="1">
      <stop offset="0%" stop-color="#050816"/>
      <stop offset="45%" stop-color="#17102d"/>
      <stop offset="100%" stop-color="#020617"/>
    </linearGradient>
    <radialGradient id="aura" cx="50%" cy="38%" r="68%">
      <stop offset="0%" stop-color="#facc15" stop-opacity=".18"/>
      <stop offset="52%" stop-color="#a78bfa" stop-opacity=".10"/>
      <stop offset="100%" stop-color="#020617" stop-opacity="0"/>
    </radialGradient>
    <filter id="glow" x="-30%" y="-30%" width="160%" height="160%">
      <feDropShadow dx="0" dy="0" stdDeviation="6" flood-color="#fb923c" flood-opacity=".42"/>
    </filter>
  </defs>
  <rect width="420" height="660" rx="34" fill="url(#bg)"/>
  <rect x="20" y="20" width="380" height="620" rx="30" fill="url(#aura)" stroke="#facc15" stroke-opacity=".54" stroke-width="2"/>
  <rect x="35" y="35" width="350" height="590" rx="22" fill="none" stroke="#a78bfa" stroke-opacity=".18" stroke-width="1.5"/>
  <circle cx="294" cy="313" r="1.0" fill="#fde68a" opacity="0.59"/>
<circle cx="68" cy="186" r="1.4" fill="#fde68a" opacity="0.75"/>
<circle cx="224" cy="62" r="2.2" fill="#fde68a" opacity="0.64"/>
<circle cx="334" cy="407" r="1.0" fill="#fde68a" opacity="0.65"/>
<circle cx="202" cy="170" r="1.0" fill="#fde68a" opacity="0.51"/>
<circle cx="244" cy="471" r="1.0" fill="#fde68a" opacity="0.40"/>
<circle cx="47" cy="231" r="2.2" fill="#fde68a" opacity="0.73"/>
<circle cx="305" cy="228" r="1.0" fill="#fde68a" opacity="0.57"/>
<circle cx="144" cy="339" r="2.2" fill="#fde68a" opacity="0.48"/>
<circle cx="267" cy="302" r="1.8" fill="#fde68a" opacity="0.65"/>
<circle cx="161" cy="541" r="2.2" fill="#fde68a" opacity="0.74"/>
<circle cx="285" cy="355" r="1.0" fill="#fde68a" opacity="0.81"/>
<circle cx="222" cy="143" r="1.0" fill="#fde68a" opacity="0.41"/>
<circle cx="77" cy="300" r="1.0" fill="#fde68a" opacity="0.80"/>
<circle cx="232" cy="472" r="1.0" fill="#fde68a" opacity="0.28"/>
<circle cx="41" cy="586" r="1.0" fill="#fde68a" opacity="0.33"/>
<circle cx="152" cy="573" r="1.8" fill="#fde68a" opacity="0.54"/>
<circle cx="119" cy="179" r="1.0" fill="#fde68a" opacity="0.72"/>
<circle cx="257" cy="200" r="1.0" fill="#fde68a" opacity="0.70"/>
<circle cx="230" cy="129" r="1.0" fill="#fde68a" opacity="0.58"/>
<circle cx="192" cy="485" r="1.8" fill="#fde68a" opacity="0.57"/>
<circle cx="287" cy="58" r="1.0" fill="#fde68a" opacity="0.57"/>
<circle cx="337" cy="560" r="1.0" fill="#fde68a" opacity="0.36"/>
<circle cx="267" cy="72" r="1.8" fill="#fde68a" opacity="0.50"/>
<circle cx="76" cy="440" r="1.8" fill="#fde68a" opacity="0.29"/>
<circle cx="87" cy="323" r="2.2" fill="#fde68a" opacity="0.61"/>
<circle cx="355" cy="498" r="1.4" fill="#fde68a" opacity="0.55"/>
<circle cx="71" cy="263" r="2.2" fill="#fde68a" opacity="0.73"/>
<circle cx="118" cy="174" r="1.0" fill="#fde68a" opacity="0.64"/>
<circle cx="150" cy="332" r="1.0" fill="#fde68a" opacity="0.39"/>
<circle cx="181" cy="187" r="1.0" fill="#fde68a" opacity="0.36"/>
<circle cx="170" cy="407" r="1.4" fill="#fde68a" opacity="0.56"/>
<circle cx="252" cy="100" r="1.8" fill="#fde68a" opacity="0.69"/>
<circle cx="323" cy="481" r="1.4" fill="#fde68a" opacity="0.34"/>
  
    <path d="M55 118 C120 74 300 74 365 118" fill="none" stroke="#fb923c" stroke-opacity=".28" stroke-width="2"/>
    <path d="M55 542 C120 586 300 586 365 542" fill="none" stroke="#fb923c" stroke-opacity=".28" stroke-width="2"/>
    <path d="M74 88 L98 88 M322 88 L346 88 M74 572 L98 572 M322 572 L346 572" stroke="#facc15" stroke-opacity=".50" stroke-width="2" stroke-linecap="round"/>
    <circle cx="80" cy="100" r="10" fill="none" stroke="#facc15" stroke-opacity=".45"/>
    <circle cx="340" cy="100" r="10" fill="none" stroke="#facc15" stroke-opacity=".45"/>
    <circle cx="80" cy="560" r="10" fill="none" stroke="#facc15" stroke-opacity=".45"/>
    <circle cx="340" cy="560" r="10" fill="none" stroke="#facc15" stroke-opacity=".45"/>
    
  
            <circle cx="210" cy="272" r="122" fill="#fb923c" opacity=".08"/>
            <path d="M146 394 L178 246 L210 382 L242 246 L274 394 Z" fill="#fb923c" opacity=".12" stroke="#fb923c" stroke-width="3" stroke-opacity=".68"/>
            <circle cx="210" cy="250" r="54" fill="#facc15" opacity=".11" stroke="#facc15" stroke-width="3" stroke-opacity=".55"/>
            <text x="210" y="264" text-anchor="middle" font-size="64" font-family="Georgia, serif" fill="#fb923c">♞</text>
            <text x="210" y="350" text-anchor="middle" font-size="54" font-family="Georgia, serif" fill="#facc15">♣</text>
            <text x="62" y="86" font-size="20" font-family="Georgia, serif" fill="#fff7ed">KNIGHT</text>
            <text x="358" y="86" text-anchor="end" font-size="20" font-family="Georgia, serif" fill="#fff7ed">KNIGHT</text>
            
  <rect x="58" y="522" width="304" height="76" rx="18" fill="#020617" opacity=".62" stroke="#facc15" stroke-opacity=".24"/>
  <text x="210" y="558" text-anchor="middle" font-size="20" font-family="Georgia, serif" fill="#fff7ed">Knight of Wands</text>
  <text x="210" y="586" text-anchor="middle" font-size="9" font-family="Arial, sans-serif" letter-spacing="3" fill="#c4b5fd">ORIGINAL SYMBOLIC DECK</text>
</svg>