<svg xmlns="http://www.w3.org/2000/svg" width="420" height="660" viewBox="0 0 420 660" role="img" aria-label="Ten of Swords">
<defs>
<linearGradient id="bg" x1="0" y1="0" x2="1" y2="1"><stop stop-color="#080b18"/><stop offset=".52" stop-color="#211436"/><stop offset="1" stop-color="#050812"/></linearGradient>
<radialGradient id="a" cx="50%" cy="40%" r="64%"><stop stop-color="#c4b5fd" stop-opacity=".22"/><stop offset=".55" stop-color="#e0e7ff" stop-opacity=".12"/><stop offset="1" stop-color="#000" stop-opacity="0"/></radialGradient>
<filter id="glow"><feDropShadow dx="0" dy="0" stdDeviation="5" flood-color="#c4b5fd" flood-opacity=".42"/></filter>
</defs>
<rect width="420" height="660" rx="34" fill="url(#bg)"/>
<rect x="18" y="18" width="384" height="624" rx="30" fill="url(#a)" stroke="#d6a24f" stroke-opacity=".82" stroke-width="2.4"/>
<rect x="36" y="36" width="348" height="588" rx="22" fill="none" stroke="#e0e7ff" stroke-opacity=".28" stroke-width="1.5"/>
<circle cx="316" cy="379" r="1.2" fill="#fff1b8" opacity="0.29"/>
<circle cx="190" cy="154" r="1.2" fill="#fff1b8" opacity="0.44"/>
<circle cx="73" cy="164" r="1.2" fill="#fff1b8" opacity="0.55"/>
<circle cx="156" cy="577" r="2" fill="#fff1b8" opacity="0.67"/>
<circle cx="368" cy="175" r="1" fill="#fff1b8" opacity="0.39"/>
<circle cx="69" cy="184" r="1" fill="#fff1b8" opacity="0.48"/>
<circle cx="261" cy="192" r="1.5" fill="#fff1b8" opacity="0.55"/>
<circle cx="309" cy="557" r="2" fill="#fff1b8" opacity="0.29"/>
<circle cx="164" cy="461" r="1.2" fill="#fff1b8" opacity="0.69"/>
<circle cx="188" cy="374" r="1.5" fill="#fff1b8" opacity="0.70"/>
<circle cx="137" cy="182" r="2" fill="#fff1b8" opacity="0.72"/>
<circle cx="322" cy="256" r="1.5" fill="#fff1b8" opacity="0.52"/>
<circle cx="85" cy="229" r="1.5" fill="#fff1b8" opacity="0.76"/>
<circle cx="97" cy="556" r="1.2" fill="#fff1b8" opacity="0.30"/>
<circle cx="69" cy="390" r="1.5" fill="#fff1b8" opacity="0.66"/>
<circle cx="218" cy="309" r="1.5" fill="#fff1b8" opacity="0.61"/>
<circle cx="365" cy="479" r="1.2" fill="#fff1b8" opacity="0.57"/>
<circle cx="219" cy="247" r="1.5" fill="#fff1b8" opacity="0.49"/>
<circle cx="87" cy="197" r="2" fill="#fff1b8" opacity="0.78"/>
<circle cx="171" cy="366" r="1.5" fill="#fff1b8" opacity="0.44"/>
<circle cx="320" cy="60" r="1" fill="#fff1b8" opacity="0.78"/>
<circle cx="44" cy="557" r="1.2" fill="#fff1b8" opacity="0.70"/>
<circle cx="170" cy="81" r="2" fill="#fff1b8" opacity="0.42"/>
<circle cx="229" cy="387" r="1" fill="#fff1b8" opacity="0.68"/>
<circle cx="345" cy="347" r="1.2" fill="#fff1b8" opacity="0.54"/>
<circle cx="293" cy="590" r="1.2" fill="#fff1b8" opacity="0.63"/>
<circle cx="266" cy="233" r="1" fill="#fff1b8" opacity="0.74"/>
<circle cx="253" cy="174" r="1" fill="#fff1b8" opacity="0.31"/>
<circle cx="133" cy="489" r="1.5" fill="#fff1b8" opacity="0.52"/>
<circle cx="113" cy="78" r="2" fill="#fff1b8" opacity="0.68"/>
<circle cx="169" cy="589" r="1.5" fill="#fff1b8" opacity="0.37"/>
<circle cx="139" cy="117" r="2" fill="#fff1b8" opacity="0.38"/>
<circle cx="286" cy="575" r="1.2" fill="#fff1b8" opacity="0.38"/>
<circle cx="84" cy="491" r="1.5" fill="#fff1b8" opacity="0.75"/>
<circle cx="144" cy="73" r="1" fill="#fff1b8" opacity="0.63"/>
<circle cx="182" cy="108" r="2" fill="#fff1b8" opacity="0.42"/>
<circle cx="201" cy="438" r="2" fill="#fff1b8" opacity="0.53"/>
<circle cx="263" cy="234" r="1.2" fill="#fff1b8" opacity="0.29"/>
<path d="M70 104 C132 68 288 68 350 104 M70 556 C132 592 288 592 350 556" fill="none" stroke="#d6a24f" stroke-opacity=".28" stroke-width="2"/>
<text x="64" y="78" fill="#fff1b8" font-size="22" font-family="Georgia,serif">X</text>
<text x="356" y="78" text-anchor="end" fill="#fff1b8" font-size="22" font-family="Georgia,serif">X</text>
<g filter="url(#glow)"><circle cx="210" cy="292" r="122" fill="#e0e7ff" opacity=".08"/><circle cx="210" cy="292" r="92" fill="none" stroke="#c4b5fd" stroke-opacity=".36" stroke-width="2"/><text x="210" y="156" text-anchor="middle" dominant-baseline="middle" font-size="42" fill="#c4b5fd" font-family="Georgia,serif">◆</text><text x="154" y="218" text-anchor="middle" dominant-baseline="middle" font-size="42" fill="#c4b5fd" font-family="Georgia,serif">◆</text><text x="266" y="218" text-anchor="middle" dominant-baseline="middle" font-size="42" fill="#c4b5fd" font-family="Georgia,serif">◆</text><text x="154" y="294" text-anchor="middle" dominant-baseline="middle" font-size="42" fill="#c4b5fd" font-family="Georgia,serif">◆</text><text x="266" y="294" text-anchor="middle" dominant-baseline="middle" font-size="42" fill="#c4b5fd" font-family="Georgia,serif">◆</text><text x="210" y="364" text-anchor="middle" dominant-baseline="middle" font-size="42" fill="#c4b5fd" font-family="Georgia,serif">◆</text><text x="210" y="252" text-anchor="middle" dominant-baseline="middle" font-size="42" fill="#c4b5fd" font-family="Georgia,serif">◆</text><text x="154" y="382" text-anchor="middle" dominant-baseline="middle" font-size="42" fill="#c4b5fd" font-family="Georgia,serif">◆</text><text x="266" y="382" text-anchor="middle" dominant-baseline="middle" font-size="42" fill="#c4b5fd" font-family="Georgia,serif">◆</text><text x="210" y="444" text-anchor="middle" dominant-baseline="middle" font-size="42" fill="#c4b5fd" font-family="Georgia,serif">◆</text><path d="M130 464 C172 428 248 428 290 464" fill="none" stroke="#c4b5fd" stroke-width="5" stroke-linecap="round" opacity=".6"/></g>
<rect x="58" y="530" width="304" height="74" rx="17" fill="#050812" opacity=".74" stroke="#d6a24f" stroke-opacity=".30"/>
<text x="210" y="566" text-anchor="middle" fill="#fff7df" font-size="20" font-family="Georgia,serif">Ten of Swords</text>
<text x="210" y="592" text-anchor="middle" fill="#c9b27a" font-size="9" font-family="Arial" letter-spacing="3">FATECARD ORIGINAL</text>
</svg>