<svg xmlns="http://www.w3.org/2000/svg" width="420" height="660" viewBox="0 0 420 660" role="img" aria-label="Ten of Cups">
<defs>
<linearGradient id="bg" x1="0" y1="0" x2="1" y2="1"><stop stop-color="#080b18"/><stop offset=".52" stop-color="#211436"/><stop offset="1" stop-color="#050812"/></linearGradient>
<radialGradient id="a" cx="50%" cy="40%" r="64%"><stop stop-color="#38bdf8" stop-opacity=".22"/><stop offset=".55" stop-color="#93c5fd" stop-opacity=".12"/><stop offset="1" stop-color="#000" stop-opacity="0"/></radialGradient>
<filter id="glow"><feDropShadow dx="0" dy="0" stdDeviation="5" flood-color="#38bdf8" flood-opacity=".42"/></filter>
</defs>
<rect width="420" height="660" rx="34" fill="url(#bg)"/>
<rect x="18" y="18" width="384" height="624" rx="30" fill="url(#a)" stroke="#d6a24f" stroke-opacity=".82" stroke-width="2.4"/>
<rect x="36" y="36" width="348" height="588" rx="22" fill="none" stroke="#93c5fd" stroke-opacity=".28" stroke-width="1.5"/>
<circle cx="344" cy="231" r="1" fill="#fff1b8" opacity="0.49"/>
<circle cx="194" cy="330" r="1.5" fill="#fff1b8" opacity="0.52"/>
<circle cx="144" cy="245" r="1.2" fill="#fff1b8" opacity="0.65"/>
<circle cx="133" cy="490" r="2" fill="#fff1b8" opacity="0.59"/>
<circle cx="153" cy="392" r="1.2" fill="#fff1b8" opacity="0.38"/>
<circle cx="56" cy="567" r="1.2" fill="#fff1b8" opacity="0.62"/>
<circle cx="214" cy="135" r="1" fill="#fff1b8" opacity="0.71"/>
<circle cx="341" cy="468" r="1.5" fill="#fff1b8" opacity="0.68"/>
<circle cx="255" cy="328" r="1.5" fill="#fff1b8" opacity="0.27"/>
<circle cx="216" cy="141" r="1.2" fill="#fff1b8" opacity="0.66"/>
<circle cx="319" cy="116" r="1.2" fill="#fff1b8" opacity="0.69"/>
<circle cx="193" cy="74" r="1.5" fill="#fff1b8" opacity="0.60"/>
<circle cx="367" cy="390" r="1.2" fill="#fff1b8" opacity="0.26"/>
<circle cx="240" cy="511" r="1.2" fill="#fff1b8" opacity="0.41"/>
<circle cx="234" cy="436" r="1.5" fill="#fff1b8" opacity="0.35"/>
<circle cx="98" cy="160" r="2" fill="#fff1b8" opacity="0.62"/>
<circle cx="138" cy="71" r="2" fill="#fff1b8" opacity="0.77"/>
<circle cx="51" cy="492" r="2" fill="#fff1b8" opacity="0.34"/>
<circle cx="200" cy="491" r="1.5" fill="#fff1b8" opacity="0.27"/>
<circle cx="153" cy="311" r="1" fill="#fff1b8" opacity="0.54"/>
<circle cx="53" cy="121" r="1.2" fill="#fff1b8" opacity="0.32"/>
<circle cx="361" cy="575" r="1.5" fill="#fff1b8" opacity="0.66"/>
<circle cx="52" cy="512" r="1.2" fill="#fff1b8" opacity="0.60"/>
<circle cx="217" cy="562" r="2" fill="#fff1b8" opacity="0.40"/>
<circle cx="311" cy="201" r="1.2" fill="#fff1b8" opacity="0.70"/>
<circle cx="155" cy="377" r="2" fill="#fff1b8" opacity="0.45"/>
<circle cx="334" cy="126" r="1" fill="#fff1b8" opacity="0.76"/>
<circle cx="339" cy="514" r="1.2" fill="#fff1b8" opacity="0.66"/>
<circle cx="107" cy="363" r="1.5" fill="#fff1b8" opacity="0.77"/>
<circle cx="338" cy="293" r="1.5" fill="#fff1b8" opacity="0.33"/>
<circle cx="71" cy="243" r="1.5" fill="#fff1b8" opacity="0.59"/>
<circle cx="86" cy="568" r="1.5" fill="#fff1b8" opacity="0.32"/>
<circle cx="110" cy="334" r="2" fill="#fff1b8" opacity="0.49"/>
<circle cx="47" cy="315" r="1.2" fill="#fff1b8" opacity="0.32"/>
<circle cx="123" cy="105" r="1" fill="#fff1b8" opacity="0.33"/>
<circle cx="151" cy="226" r="1.2" fill="#fff1b8" opacity="0.45"/>
<circle cx="362" cy="524" r="1.5" fill="#fff1b8" opacity="0.46"/>
<circle cx="210" cy="540" r="1.5" fill="#fff1b8" opacity="0.74"/>
<path d="M70 104 C132 68 288 68 350 104 M70 556 C132 592 288 592 350 556" fill="none" stroke="#d6a24f" stroke-opacity=".28" stroke-width="2"/>
<text x="64" y="78" fill="#fff1b8" font-size="22" font-family="Georgia,serif">X</text>
<text x="356" y="78" text-anchor="end" fill="#fff1b8" font-size="22" font-family="Georgia,serif">X</text>
<g filter="url(#glow)"><circle cx="210" cy="292" r="122" fill="#93c5fd" opacity=".08"/><circle cx="210" cy="292" r="92" fill="none" stroke="#38bdf8" stroke-opacity=".36" stroke-width="2"/><text x="210" y="156" text-anchor="middle" dominant-baseline="middle" font-size="42" fill="#38bdf8" font-family="Georgia,serif">●</text><text x="154" y="218" text-anchor="middle" dominant-baseline="middle" font-size="42" fill="#38bdf8" font-family="Georgia,serif">●</text><text x="266" y="218" text-anchor="middle" dominant-baseline="middle" font-size="42" fill="#38bdf8" font-family="Georgia,serif">●</text><text x="154" y="294" text-anchor="middle" dominant-baseline="middle" font-size="42" fill="#38bdf8" font-family="Georgia,serif">●</text><text x="266" y="294" text-anchor="middle" dominant-baseline="middle" font-size="42" fill="#38bdf8" font-family="Georgia,serif">●</text><text x="210" y="364" text-anchor="middle" dominant-baseline="middle" font-size="42" fill="#38bdf8" font-family="Georgia,serif">●</text><text x="210" y="252" text-anchor="middle" dominant-baseline="middle" font-size="42" fill="#38bdf8" font-family="Georgia,serif">●</text><text x="154" y="382" text-anchor="middle" dominant-baseline="middle" font-size="42" fill="#38bdf8" font-family="Georgia,serif">●</text><text x="266" y="382" text-anchor="middle" dominant-baseline="middle" font-size="42" fill="#38bdf8" font-family="Georgia,serif">●</text><text x="210" y="444" text-anchor="middle" dominant-baseline="middle" font-size="42" fill="#38bdf8" font-family="Georgia,serif">●</text><path d="M130 464 C172 428 248 428 290 464" fill="none" stroke="#38bdf8" stroke-width="5" stroke-linecap="round" opacity=".6"/></g>
<rect x="58" y="530" width="304" height="74" rx="17" fill="#050812" opacity=".74" stroke="#d6a24f" stroke-opacity=".30"/>
<text x="210" y="566" text-anchor="middle" fill="#fff7df" font-size="20" font-family="Georgia,serif">Ten of Cups</text>
<text x="210" y="592" text-anchor="middle" fill="#c9b27a" font-size="9" font-family="Arial" letter-spacing="3">FATECARD ORIGINAL</text>
</svg>