<svg xmlns="http://www.w3.org/2000/svg" width="420" height="660" viewBox="0 0 420 660" role="img" aria-label="Five of Pentacles">
  <defs>
    <linearGradient id="bg" x1="0" y1="0" x2="1" y2="1">
      <stop offset="0%" stop-color="#050816"/>
      <stop offset="45%" stop-color="#17102d"/>
      <stop offset="100%" stop-color="#020617"/>
    </linearGradient>
    <radialGradient id="aura" cx="50%" cy="38%" r="68%">
      <stop offset="0%" stop-color="#facc15" stop-opacity=".18"/>
      <stop offset="52%" stop-color="#a78bfa" stop-opacity=".10"/>
      <stop offset="100%" stop-color="#020617" stop-opacity="0"/>
    </radialGradient>
    <filter id="glow" x="-30%" y="-30%" width="160%" height="160%">
      <feDropShadow dx="0" dy="0" stdDeviation="6" flood-color="#34d399" flood-opacity=".42"/>
    </filter>
  </defs>
  <rect width="420" height="660" rx="34" fill="url(#bg)"/>
  <rect x="20" y="20" width="380" height="620" rx="30" fill="url(#aura)" stroke="#facc15" stroke-opacity=".54" stroke-width="2"/>
  <rect x="35" y="35" width="350" height="590" rx="22" fill="none" stroke="#a78bfa" stroke-opacity=".18" stroke-width="1.5"/>
  <circle cx="169" cy="364" r="2.2" fill="#fde68a" opacity="0.80"/>
<circle cx="209" cy="62" r="2.2" fill="#fde68a" opacity="0.58"/>
<circle cx="109" cy="243" r="1.0" fill="#fde68a" opacity="0.35"/>
<circle cx="161" cy="247" r="1.8" fill="#fde68a" opacity="0.73"/>
<circle cx="135" cy="503" r="2.2" fill="#fde68a" opacity="0.83"/>
<circle cx="43" cy="158" r="1.8" fill="#fde68a" opacity="0.62"/>
<circle cx="195" cy="479" r="2.2" fill="#fde68a" opacity="0.53"/>
<circle cx="161" cy="76" r="1.8" fill="#fde68a" opacity="0.36"/>
<circle cx="128" cy="555" r="2.2" fill="#fde68a" opacity="0.69"/>
<circle cx="71" cy="562" r="1.4" fill="#fde68a" opacity="0.71"/>
<circle cx="81" cy="421" r="1.4" fill="#fde68a" opacity="0.42"/>
<circle cx="301" cy="436" r="2.2" fill="#fde68a" opacity="0.49"/>
<circle cx="302" cy="172" r="1.0" fill="#fde68a" opacity="0.64"/>
<circle cx="141" cy="383" r="1.8" fill="#fde68a" opacity="0.62"/>
<circle cx="42" cy="250" r="1.8" fill="#fde68a" opacity="0.37"/>
<circle cx="166" cy="585" r="1.0" fill="#fde68a" opacity="0.38"/>
<circle cx="271" cy="139" r="1.4" fill="#fde68a" opacity="0.60"/>
<circle cx="261" cy="105" r="1.0" fill="#fde68a" opacity="0.31"/>
<circle cx="127" cy="258" r="1.0" fill="#fde68a" opacity="0.37"/>
<circle cx="234" cy="274" r="1.0" fill="#fde68a" opacity="0.54"/>
<circle cx="336" cy="318" r="2.2" fill="#fde68a" opacity="0.46"/>
<circle cx="150" cy="418" r="1.0" fill="#fde68a" opacity="0.59"/>
<circle cx="120" cy="367" r="1.4" fill="#fde68a" opacity="0.40"/>
<circle cx="188" cy="394" r="1.0" fill="#fde68a" opacity="0.55"/>
<circle cx="53" cy="57" r="1.4" fill="#fde68a" opacity="0.51"/>
<circle cx="242" cy="524" r="1.8" fill="#fde68a" opacity="0.81"/>
<circle cx="212" cy="227" r="1.0" fill="#fde68a" opacity="0.38"/>
<circle cx="47" cy="337" r="1.0" fill="#fde68a" opacity="0.69"/>
<circle cx="320" cy="274" r="1.0" fill="#fde68a" opacity="0.57"/>
<circle cx="120" cy="408" r="1.0" fill="#fde68a" opacity="0.48"/>
<circle cx="205" cy="372" r="1.0" fill="#fde68a" opacity="0.29"/>
<circle cx="198" cy="75" r="1.4" fill="#fde68a" opacity="0.70"/>
<circle cx="38" cy="267" r="2.2" fill="#fde68a" opacity="0.73"/>
<circle cx="55" cy="107" r="1.4" fill="#fde68a" opacity="0.46"/>
  
    <path d="M55 118 C120 74 300 74 365 118" fill="none" stroke="#34d399" stroke-opacity=".28" stroke-width="2"/>
    <path d="M55 542 C120 586 300 586 365 542" fill="none" stroke="#34d399" stroke-opacity=".28" stroke-width="2"/>
    <path d="M74 88 L98 88 M322 88 L346 88 M74 572 L98 572 M322 572 L346 572" stroke="#fde68a" stroke-opacity=".50" stroke-width="2" stroke-linecap="round"/>
    <circle cx="80" cy="100" r="10" fill="none" stroke="#fde68a" stroke-opacity=".45"/>
    <circle cx="340" cy="100" r="10" fill="none" stroke="#fde68a" stroke-opacity=".45"/>
    <circle cx="80" cy="560" r="10" fill="none" stroke="#fde68a" stroke-opacity=".45"/>
    <circle cx="340" cy="560" r="10" fill="none" stroke="#fde68a" stroke-opacity=".45"/>
    
  
            <circle cx="210" cy="286" r="132" fill="#34d399" opacity=".065"/>
            <circle cx="210" cy="286" r="102" fill="none" stroke="#fde68a" stroke-opacity=".36" stroke-width="2"/>
            <text x="210" y="164" text-anchor="middle" dominant-baseline="middle" font-size="42" font-family="Georgia, serif" fill="#34d399" opacity=".94">⬟</text><text x="154" y="220" text-anchor="middle" dominant-baseline="middle" font-size="42" font-family="Georgia, serif" fill="#34d399" opacity=".94">⬟</text><text x="266" y="220" text-anchor="middle" dominant-baseline="middle" font-size="42" font-family="Georgia, serif" fill="#34d399" opacity=".94">⬟</text><text x="154" y="302" text-anchor="middle" dominant-baseline="middle" font-size="42" font-family="Georgia, serif" fill="#34d399" opacity=".94">⬟</text><text x="266" y="302" text-anchor="middle" dominant-baseline="middle" font-size="42" font-family="Georgia, serif" fill="#34d399" opacity=".94">⬟</text>
            <text x="62" y="86" font-size="26" font-family="Georgia, serif" fill="#fff7ed">V</text>
            <text x="358" y="86" text-anchor="end" font-size="26" font-family="Georgia, serif" fill="#fff7ed">V</text>
            
  <rect x="58" y="522" width="304" height="76" rx="18" fill="#020617" opacity=".62" stroke="#facc15" stroke-opacity=".24"/>
  <text x="210" y="558" text-anchor="middle" font-size="20" font-family="Georgia, serif" fill="#fff7ed">Five of Pentacles</text>
  <text x="210" y="586" text-anchor="middle" font-size="9" font-family="Arial, sans-serif" letter-spacing="3" fill="#c4b5fd">ORIGINAL SYMBOLIC DECK</text>
</svg>