<svg xmlns="http://www.w3.org/2000/svg" width="420" height="660" viewBox="0 0 420 660" role="img" aria-label="Three of Cups">
  <defs>
    <linearGradient id="bg" x1="0" y1="0" x2="1" y2="1">
      <stop offset="0%" stop-color="#050816"/>
      <stop offset="45%" stop-color="#17102d"/>
      <stop offset="100%" stop-color="#020617"/>
    </linearGradient>
    <radialGradient id="aura" cx="50%" cy="38%" r="68%">
      <stop offset="0%" stop-color="#facc15" stop-opacity=".18"/>
      <stop offset="52%" stop-color="#a78bfa" stop-opacity=".10"/>
      <stop offset="100%" stop-color="#020617" stop-opacity="0"/>
    </radialGradient>
    <filter id="glow" x="-30%" y="-30%" width="160%" height="160%">
      <feDropShadow dx="0" dy="0" stdDeviation="6" flood-color="#38bdf8" flood-opacity=".42"/>
    </filter>
  </defs>
  <rect width="420" height="660" rx="34" fill="url(#bg)"/>
  <rect x="20" y="20" width="380" height="620" rx="30" fill="url(#aura)" stroke="#facc15" stroke-opacity=".54" stroke-width="2"/>
  <rect x="35" y="35" width="350" height="590" rx="22" fill="none" stroke="#a78bfa" stroke-opacity=".18" stroke-width="1.5"/>
  <circle cx="299" cy="269" r="1.8" fill="#fde68a" opacity="0.48"/>
<circle cx="46" cy="398" r="1.8" fill="#fde68a" opacity="0.45"/>
<circle cx="199" cy="260" r="1.4" fill="#fde68a" opacity="0.42"/>
<circle cx="45" cy="318" r="2.2" fill="#fde68a" opacity="0.74"/>
<circle cx="115" cy="348" r="1.0" fill="#fde68a" opacity="0.60"/>
<circle cx="134" cy="500" r="1.0" fill="#fde68a" opacity="0.83"/>
<circle cx="187" cy="342" r="1.8" fill="#fde68a" opacity="0.28"/>
<circle cx="114" cy="122" r="1.0" fill="#fde68a" opacity="0.45"/>
<circle cx="302" cy="463" r="1.0" fill="#fde68a" opacity="0.77"/>
<circle cx="44" cy="148" r="1.0" fill="#fde68a" opacity="0.75"/>
<circle cx="120" cy="550" r="1.0" fill="#fde68a" opacity="0.64"/>
<circle cx="60" cy="447" r="1.0" fill="#fde68a" opacity="0.31"/>
<circle cx="274" cy="372" r="1.8" fill="#fde68a" opacity="0.64"/>
<circle cx="342" cy="255" r="1.8" fill="#fde68a" opacity="0.40"/>
<circle cx="121" cy="150" r="1.0" fill="#fde68a" opacity="0.50"/>
<circle cx="106" cy="490" r="1.0" fill="#fde68a" opacity="0.65"/>
<circle cx="352" cy="457" r="1.0" fill="#fde68a" opacity="0.46"/>
<circle cx="307" cy="231" r="1.0" fill="#fde68a" opacity="0.46"/>
<circle cx="360" cy="126" r="1.0" fill="#fde68a" opacity="0.46"/>
<circle cx="324" cy="574" r="2.2" fill="#fde68a" opacity="0.59"/>
<circle cx="322" cy="418" r="1.8" fill="#fde68a" opacity="0.77"/>
<circle cx="116" cy="56" r="1.4" fill="#fde68a" opacity="0.35"/>
<circle cx="207" cy="269" r="1.4" fill="#fde68a" opacity="0.47"/>
<circle cx="378" cy="485" r="1.0" fill="#fde68a" opacity="0.37"/>
<circle cx="62" cy="139" r="1.4" fill="#fde68a" opacity="0.76"/>
<circle cx="285" cy="579" r="2.2" fill="#fde68a" opacity="0.69"/>
<circle cx="353" cy="465" r="1.0" fill="#fde68a" opacity="0.37"/>
<circle cx="276" cy="483" r="2.2" fill="#fde68a" opacity="0.53"/>
<circle cx="120" cy="497" r="1.8" fill="#fde68a" opacity="0.38"/>
<circle cx="97" cy="429" r="1.0" fill="#fde68a" opacity="0.75"/>
<circle cx="158" cy="75" r="1.0" fill="#fde68a" opacity="0.68"/>
<circle cx="39" cy="218" r="1.0" fill="#fde68a" opacity="0.70"/>
<circle cx="43" cy="69" r="1.0" fill="#fde68a" opacity="0.56"/>
<circle cx="165" cy="266" r="1.8" fill="#fde68a" opacity="0.72"/>
  
    <path d="M55 118 C120 74 300 74 365 118" fill="none" stroke="#38bdf8" stroke-opacity=".28" stroke-width="2"/>
    <path d="M55 542 C120 586 300 586 365 542" fill="none" stroke="#38bdf8" stroke-opacity=".28" stroke-width="2"/>
    <path d="M74 88 L98 88 M322 88 L346 88 M74 572 L98 572 M322 572 L346 572" stroke="#93c5fd" stroke-opacity=".50" stroke-width="2" stroke-linecap="round"/>
    <circle cx="80" cy="100" r="10" fill="none" stroke="#93c5fd" stroke-opacity=".45"/>
    <circle cx="340" cy="100" r="10" fill="none" stroke="#93c5fd" stroke-opacity=".45"/>
    <circle cx="80" cy="560" r="10" fill="none" stroke="#93c5fd" stroke-opacity=".45"/>
    <circle cx="340" cy="560" r="10" fill="none" stroke="#93c5fd" stroke-opacity=".45"/>
    
  
            <circle cx="210" cy="286" r="132" fill="#38bdf8" opacity=".065"/>
            <circle cx="210" cy="286" r="102" fill="none" stroke="#93c5fd" stroke-opacity=".36" stroke-width="2"/>
            <text x="210" y="164" text-anchor="middle" dominant-baseline="middle" font-size="42" font-family="Georgia, serif" fill="#38bdf8" opacity=".94">●</text><text x="154" y="220" text-anchor="middle" dominant-baseline="middle" font-size="42" font-family="Georgia, serif" fill="#38bdf8" opacity=".94">●</text><text x="266" y="220" text-anchor="middle" dominant-baseline="middle" font-size="42" font-family="Georgia, serif" fill="#38bdf8" opacity=".94">●</text>
            <text x="62" y="86" font-size="26" font-family="Georgia, serif" fill="#fff7ed">III</text>
            <text x="358" y="86" text-anchor="end" font-size="26" font-family="Georgia, serif" fill="#fff7ed">III</text>
            
  <rect x="58" y="522" width="304" height="76" rx="18" fill="#020617" opacity=".62" stroke="#facc15" stroke-opacity=".24"/>
  <text x="210" y="558" text-anchor="middle" font-size="20" font-family="Georgia, serif" fill="#fff7ed">Three of Cups</text>
  <text x="210" y="586" text-anchor="middle" font-size="9" font-family="Arial, sans-serif" letter-spacing="3" fill="#c4b5fd">ORIGINAL SYMBOLIC DECK</text>
</svg>