<svg xmlns="http://www.w3.org/2000/svg" width="420" height="660" viewBox="0 0 420 660" role="img" aria-label="Queen of Cups">
  <defs>
    <linearGradient id="bg" x1="0" y1="0" x2="1" y2="1">
      <stop offset="0%" stop-color="#050816"/>
      <stop offset="45%" stop-color="#17102d"/>
      <stop offset="100%" stop-color="#020617"/>
    </linearGradient>
    <radialGradient id="aura" cx="50%" cy="38%" r="68%">
      <stop offset="0%" stop-color="#facc15" stop-opacity=".18"/>
      <stop offset="52%" stop-color="#a78bfa" stop-opacity=".10"/>
      <stop offset="100%" stop-color="#020617" stop-opacity="0"/>
    </radialGradient>
    <filter id="glow" x="-30%" y="-30%" width="160%" height="160%">
      <feDropShadow dx="0" dy="0" stdDeviation="6" flood-color="#38bdf8" flood-opacity=".42"/>
    </filter>
  </defs>
  <rect width="420" height="660" rx="34" fill="url(#bg)"/>
  <rect x="20" y="20" width="380" height="620" rx="30" fill="url(#aura)" stroke="#facc15" stroke-opacity=".54" stroke-width="2"/>
  <rect x="35" y="35" width="350" height="590" rx="22" fill="none" stroke="#a78bfa" stroke-opacity=".18" stroke-width="1.5"/>
  <circle cx="192" cy="196" r="1.0" fill="#fde68a" opacity="0.65"/>
<circle cx="55" cy="125" r="1.0" fill="#fde68a" opacity="0.78"/>
<circle cx="277" cy="511" r="1.0" fill="#fde68a" opacity="0.64"/>
<circle cx="375" cy="346" r="1.0" fill="#fde68a" opacity="0.65"/>
<circle cx="338" cy="255" r="1.0" fill="#fde68a" opacity="0.74"/>
<circle cx="132" cy="473" r="1.8" fill="#fde68a" opacity="0.32"/>
<circle cx="182" cy="562" r="1.8" fill="#fde68a" opacity="0.72"/>
<circle cx="52" cy="232" r="1.0" fill="#fde68a" opacity="0.66"/>
<circle cx="367" cy="418" r="1.8" fill="#fde68a" opacity="0.78"/>
<circle cx="334" cy="256" r="2.2" fill="#fde68a" opacity="0.82"/>
<circle cx="176" cy="288" r="2.2" fill="#fde68a" opacity="0.64"/>
<circle cx="118" cy="180" r="1.8" fill="#fde68a" opacity="0.36"/>
<circle cx="333" cy="153" r="1.8" fill="#fde68a" opacity="0.35"/>
<circle cx="379" cy="113" r="2.2" fill="#fde68a" opacity="0.62"/>
<circle cx="123" cy="75" r="1.8" fill="#fde68a" opacity="0.51"/>
<circle cx="225" cy="257" r="2.2" fill="#fde68a" opacity="0.39"/>
<circle cx="192" cy="491" r="1.0" fill="#fde68a" opacity="0.43"/>
<circle cx="54" cy="302" r="1.4" fill="#fde68a" opacity="0.28"/>
<circle cx="374" cy="54" r="1.0" fill="#fde68a" opacity="0.62"/>
<circle cx="231" cy="499" r="1.8" fill="#fde68a" opacity="0.45"/>
<circle cx="71" cy="409" r="1.0" fill="#fde68a" opacity="0.66"/>
<circle cx="210" cy="549" r="1.0" fill="#fde68a" opacity="0.77"/>
<circle cx="168" cy="384" r="1.0" fill="#fde68a" opacity="0.55"/>
<circle cx="225" cy="584" r="1.8" fill="#fde68a" opacity="0.77"/>
<circle cx="146" cy="234" r="1.4" fill="#fde68a" opacity="0.39"/>
<circle cx="298" cy="551" r="1.0" fill="#fde68a" opacity="0.35"/>
<circle cx="285" cy="376" r="1.8" fill="#fde68a" opacity="0.36"/>
<circle cx="371" cy="512" r="2.2" fill="#fde68a" opacity="0.80"/>
<circle cx="202" cy="248" r="1.4" fill="#fde68a" opacity="0.75"/>
<circle cx="51" cy="204" r="1.0" fill="#fde68a" opacity="0.46"/>
<circle cx="296" cy="259" r="1.0" fill="#fde68a" opacity="0.59"/>
<circle cx="316" cy="100" r="1.8" fill="#fde68a" opacity="0.50"/>
<circle cx="48" cy="203" r="2.2" fill="#fde68a" opacity="0.66"/>
<circle cx="133" cy="447" r="1.0" fill="#fde68a" opacity="0.78"/>
  
    <path d="M55 118 C120 74 300 74 365 118" fill="none" stroke="#38bdf8" stroke-opacity=".28" stroke-width="2"/>
    <path d="M55 542 C120 586 300 586 365 542" fill="none" stroke="#38bdf8" stroke-opacity=".28" stroke-width="2"/>
    <path d="M74 88 L98 88 M322 88 L346 88 M74 572 L98 572 M322 572 L346 572" stroke="#93c5fd" stroke-opacity=".50" stroke-width="2" stroke-linecap="round"/>
    <circle cx="80" cy="100" r="10" fill="none" stroke="#93c5fd" stroke-opacity=".45"/>
    <circle cx="340" cy="100" r="10" fill="none" stroke="#93c5fd" stroke-opacity=".45"/>
    <circle cx="80" cy="560" r="10" fill="none" stroke="#93c5fd" stroke-opacity=".45"/>
    <circle cx="340" cy="560" r="10" fill="none" stroke="#93c5fd" stroke-opacity=".45"/>
    
  
            <circle cx="210" cy="272" r="122" fill="#38bdf8" opacity=".08"/>
            <path d="M146 394 L178 246 L210 382 L242 246 L274 394 Z" fill="#38bdf8" opacity=".12" stroke="#38bdf8" stroke-width="3" stroke-opacity=".68"/>
            <circle cx="210" cy="250" r="54" fill="#93c5fd" opacity=".11" stroke="#93c5fd" stroke-width="3" stroke-opacity=".55"/>
            <text x="210" y="264" text-anchor="middle" font-size="64" font-family="Georgia, serif" fill="#38bdf8">♛</text>
            <text x="210" y="350" text-anchor="middle" font-size="54" font-family="Georgia, serif" fill="#93c5fd">●</text>
            <text x="62" y="86" font-size="20" font-family="Georgia, serif" fill="#fff7ed">QUEEN</text>
            <text x="358" y="86" text-anchor="end" font-size="20" font-family="Georgia, serif" fill="#fff7ed">QUEEN</text>
            
  <rect x="58" y="522" width="304" height="76" rx="18" fill="#020617" opacity=".62" stroke="#facc15" stroke-opacity=".24"/>
  <text x="210" y="558" text-anchor="middle" font-size="20" font-family="Georgia, serif" fill="#fff7ed">Queen of Cups</text>
  <text x="210" y="586" text-anchor="middle" font-size="9" font-family="Arial, sans-serif" letter-spacing="3" fill="#c4b5fd">ORIGINAL SYMBOLIC DECK</text>
</svg>