<svg xmlns="http://www.w3.org/2000/svg" width="420" height="660" viewBox="0 0 420 660" role="img" aria-label="Nine of Swords">
  <defs>
    <linearGradient id="bg-minor_swords_nine" x1="0" y1="0" x2="1" y2="1">
      <stop offset="0%" stop-color="#0b1022"/>
      <stop offset="52%" stop-color="#211136"/>
      <stop offset="100%" stop-color="#050816"/>
    </linearGradient>
    <radialGradient id="glow-minor_swords_nine" cx="50%" cy="38%" r="62%">
      <stop offset="0%" stop-color="#facc15" stop-opacity=".22"/>
      <stop offset="55%" stop-color="#a78bfa" stop-opacity=".10"/>
      <stop offset="100%" stop-color="#000000" stop-opacity="0"/>
    </radialGradient>
    <filter id="soft-minor_swords_nine" x="-20%" y="-20%" width="140%" height="140%">
      <feGaussianBlur stdDeviation="4"/>
    </filter>
  </defs>
  <rect width="420" height="660" rx="34" fill="url(#bg-minor_swords_nine)"/>
  <rect x="18" y="18" width="384" height="624" rx="28" fill="none" stroke="#facc15" stroke-opacity=".62" stroke-width="3"/>
  <rect x="32" y="32" width="356" height="596" rx="22" fill="url(#glow-minor_swords_nine)"/>
  <path d="M64 120 C148 72, 272 72, 356 120 M64 540 C148 588, 272 588, 356 540" fill="none" stroke="#facc15" stroke-opacity=".24" stroke-width="2"/>
  <g opacity=".6">
    <circle cx="82" cy="152" r="2.5" fill="#fde68a"/><circle cx="340" cy="180" r="2" fill="#c4b5fd"/><circle cx="320" cy="498" r="2.5" fill="#fde68a"/><circle cx="94" cy="486" r="2" fill="#c4b5fd"/>
  </g>
  
            <circle cx="210" cy="262" r="120" fill="#c4b5fd" opacity=".08"/>
            <path d="M100 458 C144 420, 276 420, 320 458" fill="none" stroke="#c4b5fd" stroke-width="6" opacity=".7" stroke-linecap="round"/>
            <text x="210" y="150" text-anchor="middle" dominant-baseline="middle" font-size="46" font-family="Georgia, serif" fill="#c4b5fd" opacity=".92">◆</text><text x="145" y="220" text-anchor="middle" dominant-baseline="middle" font-size="46" font-family="Georgia, serif" fill="#c4b5fd" opacity=".92">◆</text><text x="275" y="220" text-anchor="middle" dominant-baseline="middle" font-size="46" font-family="Georgia, serif" fill="#c4b5fd" opacity=".92">◆</text><text x="145" y="305" text-anchor="middle" dominant-baseline="middle" font-size="46" font-family="Georgia, serif" fill="#c4b5fd" opacity=".92">◆</text><text x="275" y="305" text-anchor="middle" dominant-baseline="middle" font-size="46" font-family="Georgia, serif" fill="#c4b5fd" opacity=".92">◆</text><text x="210" y="375" text-anchor="middle" dominant-baseline="middle" font-size="46" font-family="Georgia, serif" fill="#c4b5fd" opacity=".92">◆</text><text x="210" y="260" text-anchor="middle" dominant-baseline="middle" font-size="46" font-family="Georgia, serif" fill="#c4b5fd" opacity=".92">◆</text><text x="145" y="150" text-anchor="middle" dominant-baseline="middle" font-size="46" font-family="Georgia, serif" fill="#c4b5fd" opacity=".92">◆</text><text x="275" y="375" text-anchor="middle" dominant-baseline="middle" font-size="46" font-family="Georgia, serif" fill="#c4b5fd" opacity=".92">◆</text>
            <text x="64" y="82" font-size="30" font-family="Georgia, serif" fill="#f8fafc">IX</text>
            <text x="356" y="82" text-anchor="end" font-size="30" font-family="Georgia, serif" fill="#f8fafc">IX</text>
            
  <rect x="54" y="530" width="312" height="70" rx="18" fill="#020617" opacity=".48" stroke="#facc15" stroke-opacity=".20"/>
  <text x="210" y="568" text-anchor="middle" font-size="22" font-family="Georgia, serif" fill="#fff7ed">Nine of Swords</text>
  <text x="210" y="594" text-anchor="middle" font-size="10" font-family="Arial, sans-serif" letter-spacing="3" fill="#c4b5fd">FATECARD ORIGINAL</text>
</svg>