<svg xmlns="http://www.w3.org/2000/svg" width="420" height="660" viewBox="0 0 420 660" role="img" aria-label="Two of Wands">
  <defs>
    <linearGradient id="bg" x1="0" y1="0" x2="1" y2="1">
      <stop offset="0%" stop-color="#050816"/>
      <stop offset="45%" stop-color="#17102d"/>
      <stop offset="100%" stop-color="#020617"/>
    </linearGradient>
    <radialGradient id="aura" cx="50%" cy="38%" r="68%">
      <stop offset="0%" stop-color="#facc15" stop-opacity=".18"/>
      <stop offset="52%" stop-color="#a78bfa" stop-opacity=".10"/>
      <stop offset="100%" stop-color="#020617" stop-opacity="0"/>
    </radialGradient>
    <filter id="glow" x="-30%" y="-30%" width="160%" height="160%">
      <feDropShadow dx="0" dy="0" stdDeviation="6" flood-color="#fb923c" flood-opacity=".42"/>
    </filter>
  </defs>
  <rect width="420" height="660" rx="34" fill="url(#bg)"/>
  <rect x="20" y="20" width="380" height="620" rx="30" fill="url(#aura)" stroke="#facc15" stroke-opacity=".54" stroke-width="2"/>
  <rect x="35" y="35" width="350" height="590" rx="22" fill="none" stroke="#a78bfa" stroke-opacity=".18" stroke-width="1.5"/>
  <circle cx="368" cy="446" r="1.8" fill="#fde68a" opacity="0.82"/>
<circle cx="295" cy="300" r="1.4" fill="#fde68a" opacity="0.79"/>
<circle cx="131" cy="122" r="1.0" fill="#fde68a" opacity="0.41"/>
<circle cx="188" cy="456" r="1.4" fill="#fde68a" opacity="0.42"/>
<circle cx="125" cy="481" r="1.8" fill="#fde68a" opacity="0.74"/>
<circle cx="85" cy="103" r="1.0" fill="#fde68a" opacity="0.53"/>
<circle cx="80" cy="304" r="1.8" fill="#fde68a" opacity="0.63"/>
<circle cx="344" cy="459" r="1.0" fill="#fde68a" opacity="0.75"/>
<circle cx="284" cy="468" r="1.4" fill="#fde68a" opacity="0.35"/>
<circle cx="188" cy="467" r="1.8" fill="#fde68a" opacity="0.38"/>
<circle cx="134" cy="245" r="1.4" fill="#fde68a" opacity="0.58"/>
<circle cx="131" cy="552" r="2.2" fill="#fde68a" opacity="0.30"/>
<circle cx="128" cy="79" r="1.4" fill="#fde68a" opacity="0.30"/>
<circle cx="130" cy="582" r="1.8" fill="#fde68a" opacity="0.82"/>
<circle cx="311" cy="561" r="1.0" fill="#fde68a" opacity="0.61"/>
<circle cx="345" cy="388" r="1.0" fill="#fde68a" opacity="0.47"/>
<circle cx="98" cy="338" r="2.2" fill="#fde68a" opacity="0.80"/>
<circle cx="220" cy="286" r="1.8" fill="#fde68a" opacity="0.58"/>
<circle cx="237" cy="256" r="1.4" fill="#fde68a" opacity="0.49"/>
<circle cx="169" cy="457" r="2.2" fill="#fde68a" opacity="0.33"/>
<circle cx="116" cy="101" r="2.2" fill="#fde68a" opacity="0.81"/>
<circle cx="371" cy="263" r="1.4" fill="#fde68a" opacity="0.55"/>
<circle cx="235" cy="234" r="1.0" fill="#fde68a" opacity="0.81"/>
<circle cx="330" cy="160" r="1.4" fill="#fde68a" opacity="0.64"/>
<circle cx="61" cy="585" r="1.0" fill="#fde68a" opacity="0.47"/>
<circle cx="194" cy="384" r="2.2" fill="#fde68a" opacity="0.30"/>
<circle cx="329" cy="155" r="2.2" fill="#fde68a" opacity="0.76"/>
<circle cx="259" cy="267" r="1.8" fill="#fde68a" opacity="0.57"/>
<circle cx="212" cy="562" r="1.0" fill="#fde68a" opacity="0.62"/>
<circle cx="184" cy="146" r="1.8" fill="#fde68a" opacity="0.50"/>
<circle cx="221" cy="398" r="2.2" fill="#fde68a" opacity="0.33"/>
<circle cx="189" cy="159" r="1.8" fill="#fde68a" opacity="0.61"/>
<circle cx="223" cy="164" r="1.0" fill="#fde68a" opacity="0.51"/>
<circle cx="334" cy="283" r="1.4" fill="#fde68a" opacity="0.62"/>
  
    <path d="M55 118 C120 74 300 74 365 118" fill="none" stroke="#fb923c" stroke-opacity=".28" stroke-width="2"/>
    <path d="M55 542 C120 586 300 586 365 542" fill="none" stroke="#fb923c" stroke-opacity=".28" stroke-width="2"/>
    <path d="M74 88 L98 88 M322 88 L346 88 M74 572 L98 572 M322 572 L346 572" stroke="#facc15" stroke-opacity=".50" stroke-width="2" stroke-linecap="round"/>
    <circle cx="80" cy="100" r="10" fill="none" stroke="#facc15" stroke-opacity=".45"/>
    <circle cx="340" cy="100" r="10" fill="none" stroke="#facc15" stroke-opacity=".45"/>
    <circle cx="80" cy="560" r="10" fill="none" stroke="#facc15" stroke-opacity=".45"/>
    <circle cx="340" cy="560" r="10" fill="none" stroke="#facc15" stroke-opacity=".45"/>
    
  
            <circle cx="210" cy="286" r="132" fill="#fb923c" opacity=".065"/>
            <circle cx="210" cy="286" r="102" fill="none" stroke="#facc15" stroke-opacity=".36" stroke-width="2"/>
            <text x="210" y="164" text-anchor="middle" dominant-baseline="middle" font-size="42" font-family="Georgia, serif" fill="#fb923c" opacity=".94">♣</text><text x="154" y="220" text-anchor="middle" dominant-baseline="middle" font-size="42" font-family="Georgia, serif" fill="#fb923c" opacity=".94">♣</text>
            <text x="62" y="86" font-size="26" font-family="Georgia, serif" fill="#fff7ed">II</text>
            <text x="358" y="86" text-anchor="end" font-size="26" font-family="Georgia, serif" fill="#fff7ed">II</text>
            
  <rect x="58" y="522" width="304" height="76" rx="18" fill="#020617" opacity=".62" stroke="#facc15" stroke-opacity=".24"/>
  <text x="210" y="558" text-anchor="middle" font-size="20" font-family="Georgia, serif" fill="#fff7ed">Two of Wands</text>
  <text x="210" y="586" text-anchor="middle" font-size="9" font-family="Arial, sans-serif" letter-spacing="3" fill="#c4b5fd">ORIGINAL SYMBOLIC DECK</text>
</svg>