<svg xmlns="http://www.w3.org/2000/svg" width="420" height="660" viewBox="0 0 420 660" role="img" aria-label="Knight of Wands">
<defs>
<linearGradient id="bg" x1="0" y1="0" x2="1" y2="1"><stop stop-color="#080b18"/><stop offset=".52" stop-color="#211436"/><stop offset="1" stop-color="#050812"/></linearGradient>
<radialGradient id="a" cx="50%" cy="40%" r="64%"><stop stop-color="#f59e0b" stop-opacity=".22"/><stop offset=".55" stop-color="#fb923c" stop-opacity=".12"/><stop offset="1" stop-color="#000" stop-opacity="0"/></radialGradient>
<filter id="glow"><feDropShadow dx="0" dy="0" stdDeviation="5" flood-color="#f59e0b" flood-opacity=".42"/></filter>
</defs>
<rect width="420" height="660" rx="34" fill="url(#bg)"/>
<rect x="18" y="18" width="384" height="624" rx="30" fill="url(#a)" stroke="#d6a24f" stroke-opacity=".82" stroke-width="2.4"/>
<rect x="36" y="36" width="348" height="588" rx="22" fill="none" stroke="#fb923c" stroke-opacity=".28" stroke-width="1.5"/>
<circle cx="58" cy="574" r="1" fill="#fff1b8" opacity="0.40"/>
<circle cx="100" cy="138" r="1" fill="#fff1b8" opacity="0.77"/>
<circle cx="77" cy="268" r="2" fill="#fff1b8" opacity="0.38"/>
<circle cx="281" cy="543" r="1.5" fill="#fff1b8" opacity="0.56"/>
<circle cx="196" cy="462" r="1.5" fill="#fff1b8" opacity="0.72"/>
<circle cx="356" cy="560" r="1.5" fill="#fff1b8" opacity="0.32"/>
<circle cx="77" cy="406" r="1.2" fill="#fff1b8" opacity="0.29"/>
<circle cx="133" cy="117" r="1" fill="#fff1b8" opacity="0.74"/>
<circle cx="298" cy="194" r="1.5" fill="#fff1b8" opacity="0.48"/>
<circle cx="289" cy="385" r="1" fill="#fff1b8" opacity="0.77"/>
<circle cx="109" cy="579" r="1" fill="#fff1b8" opacity="0.70"/>
<circle cx="92" cy="235" r="1" fill="#fff1b8" opacity="0.63"/>
<circle cx="198" cy="451" r="2" fill="#fff1b8" opacity="0.40"/>
<circle cx="257" cy="468" r="2" fill="#fff1b8" opacity="0.74"/>
<circle cx="136" cy="483" r="1.2" fill="#fff1b8" opacity="0.32"/>
<circle cx="280" cy="470" r="2" fill="#fff1b8" opacity="0.46"/>
<circle cx="268" cy="111" r="1" fill="#fff1b8" opacity="0.59"/>
<circle cx="309" cy="283" r="1.5" fill="#fff1b8" opacity="0.75"/>
<circle cx="99" cy="291" r="1.2" fill="#fff1b8" opacity="0.64"/>
<circle cx="137" cy="360" r="2" fill="#fff1b8" opacity="0.62"/>
<circle cx="297" cy="80" r="1.5" fill="#fff1b8" opacity="0.72"/>
<circle cx="136" cy="301" r="1.2" fill="#fff1b8" opacity="0.47"/>
<circle cx="232" cy="516" r="1.2" fill="#fff1b8" opacity="0.41"/>
<circle cx="367" cy="81" r="1.5" fill="#fff1b8" opacity="0.60"/>
<circle cx="272" cy="316" r="1" fill="#fff1b8" opacity="0.33"/>
<circle cx="313" cy="371" r="2" fill="#fff1b8" opacity="0.31"/>
<circle cx="228" cy="509" r="1.5" fill="#fff1b8" opacity="0.27"/>
<circle cx="145" cy="472" r="1" fill="#fff1b8" opacity="0.67"/>
<circle cx="300" cy="254" r="2" fill="#fff1b8" opacity="0.74"/>
<circle cx="236" cy="345" r="2" fill="#fff1b8" opacity="0.28"/>
<circle cx="238" cy="266" r="1" fill="#fff1b8" opacity="0.73"/>
<circle cx="50" cy="264" r="1.2" fill="#fff1b8" opacity="0.43"/>
<circle cx="342" cy="515" r="1.2" fill="#fff1b8" opacity="0.27"/>
<circle cx="155" cy="104" r="2" fill="#fff1b8" opacity="0.65"/>
<circle cx="108" cy="234" r="1.2" fill="#fff1b8" opacity="0.38"/>
<circle cx="136" cy="231" r="1.2" fill="#fff1b8" opacity="0.34"/>
<circle cx="158" cy="304" r="1" fill="#fff1b8" opacity="0.33"/>
<circle cx="212" cy="577" r="2" fill="#fff1b8" opacity="0.55"/>
<path d="M70 104 C132 68 288 68 350 104 M70 556 C132 592 288 592 350 556" fill="none" stroke="#d6a24f" stroke-opacity=".28" stroke-width="2"/>
<text x="64" y="78" fill="#fff1b8" font-size="22" font-family="Georgia,serif">KNIGHT</text>
<text x="356" y="78" text-anchor="end" fill="#fff1b8" font-size="22" font-family="Georgia,serif">KNIGHT</text>
<g filter="url(#glow)"><ellipse cx="210" cy="430" rx="96" ry="22" fill="#fb923c" opacity=".16"/><path d="M148 400 C164 310 186 250 210 220 C234 250 256 310 272 400 Z" fill="#f59e0b" opacity=".17" stroke="#f59e0b" stroke-width="3"/><circle cx="210" cy="214" r="40" fill="#fb923c" opacity=".18" stroke="#fb923c" stroke-width="3"/><text x="210" y="268" text-anchor="middle" font-size="74" fill="#f59e0b" font-family="Georgia,serif">♞</text><text x="210" y="356" text-anchor="middle" font-size="56" fill="#fb923c" font-family="Georgia,serif">♣</text></g>
<rect x="58" y="530" width="304" height="74" rx="17" fill="#050812" opacity=".74" stroke="#d6a24f" stroke-opacity=".30"/>
<text x="210" y="566" text-anchor="middle" fill="#fff7df" font-size="20" font-family="Georgia,serif">Knight of Wands</text>
<text x="210" y="592" text-anchor="middle" fill="#c9b27a" font-size="9" font-family="Arial" letter-spacing="3">FATECARD ORIGINAL</text>
</svg>