<svg xmlns="http://www.w3.org/2000/svg" width="420" height="660" viewBox="0 0 420 660" role="img" aria-label="Seven of Pentacles">
<defs>
<linearGradient id="bg" x1="0" y1="0" x2="1" y2="1"><stop stop-color="#080b18"/><stop offset=".52" stop-color="#211436"/><stop offset="1" stop-color="#050812"/></linearGradient>
<radialGradient id="a" cx="50%" cy="40%" r="64%"><stop stop-color="#34d399" stop-opacity=".22"/><stop offset=".55" stop-color="#fde68a" stop-opacity=".12"/><stop offset="1" stop-color="#000" stop-opacity="0"/></radialGradient>
<filter id="glow"><feDropShadow dx="0" dy="0" stdDeviation="5" flood-color="#34d399" flood-opacity=".42"/></filter>
</defs>
<rect width="420" height="660" rx="34" fill="url(#bg)"/>
<rect x="18" y="18" width="384" height="624" rx="30" fill="url(#a)" stroke="#d6a24f" stroke-opacity=".82" stroke-width="2.4"/>
<rect x="36" y="36" width="348" height="588" rx="22" fill="none" stroke="#fde68a" stroke-opacity=".28" stroke-width="1.5"/>
<circle cx="61" cy="232" r="1.5" fill="#fff1b8" opacity="0.76"/>
<circle cx="131" cy="364" r="2" fill="#fff1b8" opacity="0.48"/>
<circle cx="247" cy="584" r="1.2" fill="#fff1b8" opacity="0.42"/>
<circle cx="201" cy="435" r="1.5" fill="#fff1b8" opacity="0.36"/>
<circle cx="118" cy="79" r="2" fill="#fff1b8" opacity="0.71"/>
<circle cx="314" cy="378" r="1" fill="#fff1b8" opacity="0.33"/>
<circle cx="327" cy="127" r="1" fill="#fff1b8" opacity="0.70"/>
<circle cx="236" cy="420" r="1" fill="#fff1b8" opacity="0.56"/>
<circle cx="280" cy="258" r="1" fill="#fff1b8" opacity="0.53"/>
<circle cx="139" cy="214" r="2" fill="#fff1b8" opacity="0.71"/>
<circle cx="124" cy="151" r="2" fill="#fff1b8" opacity="0.40"/>
<circle cx="56" cy="572" r="2" fill="#fff1b8" opacity="0.58"/>
<circle cx="115" cy="569" r="1" fill="#fff1b8" opacity="0.50"/>
<circle cx="56" cy="203" r="1" fill="#fff1b8" opacity="0.65"/>
<circle cx="338" cy="107" r="2" fill="#fff1b8" opacity="0.36"/>
<circle cx="304" cy="175" r="1.5" fill="#fff1b8" opacity="0.48"/>
<circle cx="80" cy="406" r="1" fill="#fff1b8" opacity="0.65"/>
<circle cx="218" cy="529" r="1.2" fill="#fff1b8" opacity="0.45"/>
<circle cx="51" cy="511" r="1.5" fill="#fff1b8" opacity="0.36"/>
<circle cx="97" cy="65" r="2" fill="#fff1b8" opacity="0.59"/>
<circle cx="291" cy="296" r="1" fill="#fff1b8" opacity="0.75"/>
<circle cx="343" cy="203" r="1.5" fill="#fff1b8" opacity="0.37"/>
<circle cx="372" cy="383" r="1" fill="#fff1b8" opacity="0.76"/>
<circle cx="86" cy="247" r="1.5" fill="#fff1b8" opacity="0.27"/>
<circle cx="217" cy="171" r="1.2" fill="#fff1b8" opacity="0.78"/>
<circle cx="59" cy="111" r="1.2" fill="#fff1b8" opacity="0.60"/>
<circle cx="99" cy="131" r="2" fill="#fff1b8" opacity="0.44"/>
<circle cx="90" cy="140" r="1.5" fill="#fff1b8" opacity="0.70"/>
<circle cx="148" cy="555" r="1" fill="#fff1b8" opacity="0.57"/>
<circle cx="271" cy="291" r="2" fill="#fff1b8" opacity="0.69"/>
<circle cx="293" cy="208" r="1" fill="#fff1b8" opacity="0.55"/>
<circle cx="112" cy="162" r="1.2" fill="#fff1b8" opacity="0.57"/>
<circle cx="118" cy="163" r="1" fill="#fff1b8" opacity="0.36"/>
<circle cx="311" cy="173" r="2" fill="#fff1b8" opacity="0.44"/>
<circle cx="247" cy="429" r="1.2" fill="#fff1b8" opacity="0.62"/>
<circle cx="43" cy="331" r="2" fill="#fff1b8" opacity="0.42"/>
<circle cx="372" cy="169" r="1" fill="#fff1b8" opacity="0.59"/>
<circle cx="352" cy="391" r="2" fill="#fff1b8" opacity="0.54"/>
<path d="M70 104 C132 68 288 68 350 104 M70 556 C132 592 288 592 350 556" fill="none" stroke="#d6a24f" stroke-opacity=".28" stroke-width="2"/>
<text x="64" y="78" fill="#fff1b8" font-size="22" font-family="Georgia,serif">VII</text>
<text x="356" y="78" text-anchor="end" fill="#fff1b8" font-size="22" font-family="Georgia,serif">VII</text>
<g filter="url(#glow)"><circle cx="210" cy="292" r="122" fill="#fde68a" opacity=".08"/><circle cx="210" cy="292" r="92" fill="none" stroke="#34d399" stroke-opacity=".36" stroke-width="2"/><text x="210" y="156" text-anchor="middle" dominant-baseline="middle" font-size="42" fill="#34d399" font-family="Georgia,serif">⬟</text><text x="154" y="218" text-anchor="middle" dominant-baseline="middle" font-size="42" fill="#34d399" font-family="Georgia,serif">⬟</text><text x="266" y="218" text-anchor="middle" dominant-baseline="middle" font-size="42" fill="#34d399" font-family="Georgia,serif">⬟</text><text x="154" y="294" text-anchor="middle" dominant-baseline="middle" font-size="42" fill="#34d399" font-family="Georgia,serif">⬟</text><text x="266" y="294" text-anchor="middle" dominant-baseline="middle" font-size="42" fill="#34d399" font-family="Georgia,serif">⬟</text><text x="210" y="364" text-anchor="middle" dominant-baseline="middle" font-size="42" fill="#34d399" font-family="Georgia,serif">⬟</text><text x="210" y="252" text-anchor="middle" dominant-baseline="middle" font-size="42" fill="#34d399" font-family="Georgia,serif">⬟</text><path d="M130 464 C172 428 248 428 290 464" fill="none" stroke="#34d399" stroke-width="5" stroke-linecap="round" opacity=".6"/></g>
<rect x="58" y="530" width="304" height="74" rx="17" fill="#050812" opacity=".74" stroke="#d6a24f" stroke-opacity=".30"/>
<text x="210" y="566" text-anchor="middle" fill="#fff7df" font-size="20" font-family="Georgia,serif">Seven of Pentacles</text>
<text x="210" y="592" text-anchor="middle" fill="#c9b27a" font-size="9" font-family="Arial" letter-spacing="3">FATECARD ORIGINAL</text>
</svg>