<svg xmlns="http://www.w3.org/2000/svg" width="420" height="660" viewBox="0 0 420 660" role="img" aria-label="Three of Wands">
<defs>
<linearGradient id="bg" x1="0" y1="0" x2="1" y2="1"><stop stop-color="#080b18"/><stop offset=".52" stop-color="#211436"/><stop offset="1" stop-color="#050812"/></linearGradient>
<radialGradient id="a" cx="50%" cy="40%" r="64%"><stop stop-color="#f59e0b" stop-opacity=".22"/><stop offset=".55" stop-color="#fb923c" stop-opacity=".12"/><stop offset="1" stop-color="#000" stop-opacity="0"/></radialGradient>
<filter id="glow"><feDropShadow dx="0" dy="0" stdDeviation="5" flood-color="#f59e0b" flood-opacity=".42"/></filter>
</defs>
<rect width="420" height="660" rx="34" fill="url(#bg)"/>
<rect x="18" y="18" width="384" height="624" rx="30" fill="url(#a)" stroke="#d6a24f" stroke-opacity=".82" stroke-width="2.4"/>
<rect x="36" y="36" width="348" height="588" rx="22" fill="none" stroke="#fb923c" stroke-opacity=".28" stroke-width="1.5"/>
<circle cx="254" cy="145" r="1.5" fill="#fff1b8" opacity="0.70"/>
<circle cx="338" cy="557" r="1.2" fill="#fff1b8" opacity="0.64"/>
<circle cx="346" cy="186" r="1.2" fill="#fff1b8" opacity="0.34"/>
<circle cx="311" cy="368" r="1.5" fill="#fff1b8" opacity="0.38"/>
<circle cx="103" cy="271" r="1" fill="#fff1b8" opacity="0.69"/>
<circle cx="265" cy="443" r="1.5" fill="#fff1b8" opacity="0.55"/>
<circle cx="194" cy="176" r="1.5" fill="#fff1b8" opacity="0.50"/>
<circle cx="316" cy="354" r="1" fill="#fff1b8" opacity="0.76"/>
<circle cx="274" cy="163" r="1" fill="#fff1b8" opacity="0.57"/>
<circle cx="198" cy="122" r="1" fill="#fff1b8" opacity="0.37"/>
<circle cx="253" cy="394" r="1.5" fill="#fff1b8" opacity="0.31"/>
<circle cx="326" cy="147" r="1.5" fill="#fff1b8" opacity="0.50"/>
<circle cx="193" cy="397" r="1" fill="#fff1b8" opacity="0.41"/>
<circle cx="228" cy="395" r="1.2" fill="#fff1b8" opacity="0.33"/>
<circle cx="163" cy="61" r="2" fill="#fff1b8" opacity="0.53"/>
<circle cx="230" cy="300" r="1.5" fill="#fff1b8" opacity="0.52"/>
<circle cx="229" cy="428" r="2" fill="#fff1b8" opacity="0.28"/>
<circle cx="50" cy="194" r="1.5" fill="#fff1b8" opacity="0.33"/>
<circle cx="250" cy="138" r="2" fill="#fff1b8" opacity="0.77"/>
<circle cx="84" cy="161" r="1.5" fill="#fff1b8" opacity="0.47"/>
<circle cx="276" cy="349" r="2" fill="#fff1b8" opacity="0.58"/>
<circle cx="272" cy="471" r="1.5" fill="#fff1b8" opacity="0.34"/>
<circle cx="146" cy="580" r="2" fill="#fff1b8" opacity="0.62"/>
<circle cx="207" cy="189" r="2" fill="#fff1b8" opacity="0.34"/>
<circle cx="188" cy="299" r="2" fill="#fff1b8" opacity="0.77"/>
<circle cx="103" cy="287" r="1.2" fill="#fff1b8" opacity="0.57"/>
<circle cx="290" cy="200" r="1" fill="#fff1b8" opacity="0.31"/>
<circle cx="310" cy="262" r="1.2" fill="#fff1b8" opacity="0.67"/>
<circle cx="98" cy="480" r="1.2" fill="#fff1b8" opacity="0.34"/>
<circle cx="347" cy="497" r="1.5" fill="#fff1b8" opacity="0.49"/>
<circle cx="304" cy="91" r="1.5" fill="#fff1b8" opacity="0.74"/>
<circle cx="169" cy="423" r="2" fill="#fff1b8" opacity="0.69"/>
<circle cx="138" cy="83" r="1.5" fill="#fff1b8" opacity="0.51"/>
<circle cx="298" cy="436" r="1" fill="#fff1b8" opacity="0.49"/>
<circle cx="152" cy="366" r="1.2" fill="#fff1b8" opacity="0.43"/>
<circle cx="338" cy="414" r="2" fill="#fff1b8" opacity="0.45"/>
<circle cx="231" cy="78" r="1.5" fill="#fff1b8" opacity="0.75"/>
<circle cx="324" cy="455" r="2" fill="#fff1b8" opacity="0.46"/>
<path d="M70 104 C132 68 288 68 350 104 M70 556 C132 592 288 592 350 556" fill="none" stroke="#d6a24f" stroke-opacity=".28" stroke-width="2"/>
<text x="64" y="78" fill="#fff1b8" font-size="22" font-family="Georgia,serif">III</text>
<text x="356" y="78" text-anchor="end" fill="#fff1b8" font-size="22" font-family="Georgia,serif">III</text>
<g filter="url(#glow)"><circle cx="210" cy="292" r="122" fill="#fb923c" opacity=".08"/><circle cx="210" cy="292" r="92" fill="none" stroke="#f59e0b" stroke-opacity=".36" stroke-width="2"/><text x="210" y="156" text-anchor="middle" dominant-baseline="middle" font-size="42" fill="#f59e0b" font-family="Georgia,serif">♣</text><text x="154" y="218" text-anchor="middle" dominant-baseline="middle" font-size="42" fill="#f59e0b" font-family="Georgia,serif">♣</text><text x="266" y="218" text-anchor="middle" dominant-baseline="middle" font-size="42" fill="#f59e0b" font-family="Georgia,serif">♣</text><path d="M130 464 C172 428 248 428 290 464" fill="none" stroke="#f59e0b" stroke-width="5" stroke-linecap="round" opacity=".6"/></g>
<rect x="58" y="530" width="304" height="74" rx="17" fill="#050812" opacity=".74" stroke="#d6a24f" stroke-opacity=".30"/>
<text x="210" y="566" text-anchor="middle" fill="#fff7df" font-size="20" font-family="Georgia,serif">Three of Wands</text>
<text x="210" y="592" text-anchor="middle" fill="#c9b27a" font-size="9" font-family="Arial" letter-spacing="3">FATECARD ORIGINAL</text>
</svg>