<svg xmlns="http://www.w3.org/2000/svg" width="420" height="660" viewBox="0 0 420 660" role="img" aria-label="Four of Swords">
<defs>
<linearGradient id="bg" x1="0" y1="0" x2="1" y2="1"><stop stop-color="#080b18"/><stop offset=".52" stop-color="#211436"/><stop offset="1" stop-color="#050812"/></linearGradient>
<radialGradient id="a" cx="50%" cy="40%" r="64%"><stop stop-color="#c4b5fd" stop-opacity=".22"/><stop offset=".55" stop-color="#e0e7ff" stop-opacity=".12"/><stop offset="1" stop-color="#000" stop-opacity="0"/></radialGradient>
<filter id="glow"><feDropShadow dx="0" dy="0" stdDeviation="5" flood-color="#c4b5fd" flood-opacity=".42"/></filter>
</defs>
<rect width="420" height="660" rx="34" fill="url(#bg)"/>
<rect x="18" y="18" width="384" height="624" rx="30" fill="url(#a)" stroke="#d6a24f" stroke-opacity=".82" stroke-width="2.4"/>
<rect x="36" y="36" width="348" height="588" rx="22" fill="none" stroke="#e0e7ff" stroke-opacity=".28" stroke-width="1.5"/>
<circle cx="52" cy="70" r="1.2" fill="#fff1b8" opacity="0.30"/>
<circle cx="301" cy="188" r="1.2" fill="#fff1b8" opacity="0.37"/>
<circle cx="179" cy="166" r="1" fill="#fff1b8" opacity="0.50"/>
<circle cx="196" cy="343" r="1" fill="#fff1b8" opacity="0.72"/>
<circle cx="92" cy="481" r="1.5" fill="#fff1b8" opacity="0.57"/>
<circle cx="357" cy="313" r="2" fill="#fff1b8" opacity="0.29"/>
<circle cx="93" cy="381" r="2" fill="#fff1b8" opacity="0.54"/>
<circle cx="85" cy="291" r="1.2" fill="#fff1b8" opacity="0.65"/>
<circle cx="325" cy="579" r="1.5" fill="#fff1b8" opacity="0.63"/>
<circle cx="147" cy="578" r="1" fill="#fff1b8" opacity="0.37"/>
<circle cx="74" cy="391" r="1" fill="#fff1b8" opacity="0.29"/>
<circle cx="82" cy="122" r="1.5" fill="#fff1b8" opacity="0.58"/>
<circle cx="217" cy="194" r="1.5" fill="#fff1b8" opacity="0.74"/>
<circle cx="188" cy="293" r="1.5" fill="#fff1b8" opacity="0.74"/>
<circle cx="336" cy="340" r="1" fill="#fff1b8" opacity="0.77"/>
<circle cx="321" cy="381" r="1.5" fill="#fff1b8" opacity="0.37"/>
<circle cx="270" cy="542" r="1.2" fill="#fff1b8" opacity="0.76"/>
<circle cx="255" cy="487" r="1" fill="#fff1b8" opacity="0.50"/>
<circle cx="358" cy="331" r="2" fill="#fff1b8" opacity="0.55"/>
<circle cx="199" cy="187" r="1.5" fill="#fff1b8" opacity="0.59"/>
<circle cx="271" cy="82" r="1" fill="#fff1b8" opacity="0.77"/>
<circle cx="151" cy="115" r="1.2" fill="#fff1b8" opacity="0.29"/>
<circle cx="288" cy="158" r="2" fill="#fff1b8" opacity="0.66"/>
<circle cx="251" cy="197" r="1.5" fill="#fff1b8" opacity="0.66"/>
<circle cx="159" cy="239" r="1" fill="#fff1b8" opacity="0.47"/>
<circle cx="270" cy="253" r="1" fill="#fff1b8" opacity="0.48"/>
<circle cx="93" cy="515" r="1.2" fill="#fff1b8" opacity="0.55"/>
<circle cx="277" cy="114" r="2" fill="#fff1b8" opacity="0.57"/>
<circle cx="116" cy="94" r="1.2" fill="#fff1b8" opacity="0.71"/>
<circle cx="340" cy="363" r="2" fill="#fff1b8" opacity="0.45"/>
<circle cx="74" cy="233" r="1.2" fill="#fff1b8" opacity="0.27"/>
<circle cx="187" cy="419" r="1.5" fill="#fff1b8" opacity="0.70"/>
<circle cx="122" cy="150" r="1.2" fill="#fff1b8" opacity="0.47"/>
<circle cx="238" cy="511" r="1" fill="#fff1b8" opacity="0.73"/>
<circle cx="236" cy="456" r="1.5" fill="#fff1b8" opacity="0.56"/>
<circle cx="360" cy="250" r="2" fill="#fff1b8" opacity="0.70"/>
<circle cx="146" cy="425" r="1.2" fill="#fff1b8" opacity="0.67"/>
<circle cx="359" cy="538" r="1" fill="#fff1b8" opacity="0.37"/>
<path d="M70 104 C132 68 288 68 350 104 M70 556 C132 592 288 592 350 556" fill="none" stroke="#d6a24f" stroke-opacity=".28" stroke-width="2"/>
<text x="64" y="78" fill="#fff1b8" font-size="22" font-family="Georgia,serif">IV</text>
<text x="356" y="78" text-anchor="end" fill="#fff1b8" font-size="22" font-family="Georgia,serif">IV</text>
<g filter="url(#glow)"><circle cx="210" cy="292" r="122" fill="#e0e7ff" opacity=".08"/><circle cx="210" cy="292" r="92" fill="none" stroke="#c4b5fd" stroke-opacity=".36" stroke-width="2"/><text x="210" y="156" text-anchor="middle" dominant-baseline="middle" font-size="42" fill="#c4b5fd" font-family="Georgia,serif">◆</text><text x="154" y="218" text-anchor="middle" dominant-baseline="middle" font-size="42" fill="#c4b5fd" font-family="Georgia,serif">◆</text><text x="266" y="218" text-anchor="middle" dominant-baseline="middle" font-size="42" fill="#c4b5fd" font-family="Georgia,serif">◆</text><text x="154" y="294" text-anchor="middle" dominant-baseline="middle" font-size="42" fill="#c4b5fd" font-family="Georgia,serif">◆</text><path d="M130 464 C172 428 248 428 290 464" fill="none" stroke="#c4b5fd" stroke-width="5" stroke-linecap="round" opacity=".6"/></g>
<rect x="58" y="530" width="304" height="74" rx="17" fill="#050812" opacity=".74" stroke="#d6a24f" stroke-opacity=".30"/>
<text x="210" y="566" text-anchor="middle" fill="#fff7df" font-size="20" font-family="Georgia,serif">Four of Swords</text>
<text x="210" y="592" text-anchor="middle" fill="#c9b27a" font-size="9" font-family="Arial" letter-spacing="3">FATECARD ORIGINAL</text>
</svg>