<svg xmlns="http://www.w3.org/2000/svg" width="420" height="660" viewBox="0 0 420 660" role="img" aria-label="Five of Cups">
  <defs>
    <linearGradient id="bg" x1="0" y1="0" x2="1" y2="1">
      <stop offset="0%" stop-color="#050816"/>
      <stop offset="45%" stop-color="#17102d"/>
      <stop offset="100%" stop-color="#020617"/>
    </linearGradient>
    <radialGradient id="aura" cx="50%" cy="38%" r="68%">
      <stop offset="0%" stop-color="#facc15" stop-opacity=".18"/>
      <stop offset="52%" stop-color="#a78bfa" stop-opacity=".10"/>
      <stop offset="100%" stop-color="#020617" stop-opacity="0"/>
    </radialGradient>
    <filter id="glow" x="-30%" y="-30%" width="160%" height="160%">
      <feDropShadow dx="0" dy="0" stdDeviation="6" flood-color="#38bdf8" flood-opacity=".42"/>
    </filter>
  </defs>
  <rect width="420" height="660" rx="34" fill="url(#bg)"/>
  <rect x="20" y="20" width="380" height="620" rx="30" fill="url(#aura)" stroke="#facc15" stroke-opacity=".54" stroke-width="2"/>
  <rect x="35" y="35" width="350" height="590" rx="22" fill="none" stroke="#a78bfa" stroke-opacity=".18" stroke-width="1.5"/>
  <circle cx="87" cy="96" r="1.0" fill="#fde68a" opacity="0.75"/>
<circle cx="69" cy="317" r="1.8" fill="#fde68a" opacity="0.71"/>
<circle cx="355" cy="316" r="1.8" fill="#fde68a" opacity="0.64"/>
<circle cx="39" cy="244" r="1.0" fill="#fde68a" opacity="0.77"/>
<circle cx="157" cy="553" r="1.4" fill="#fde68a" opacity="0.48"/>
<circle cx="329" cy="183" r="1.4" fill="#fde68a" opacity="0.78"/>
<circle cx="266" cy="182" r="2.2" fill="#fde68a" opacity="0.62"/>
<circle cx="270" cy="487" r="2.2" fill="#fde68a" opacity="0.35"/>
<circle cx="133" cy="67" r="2.2" fill="#fde68a" opacity="0.40"/>
<circle cx="250" cy="151" r="1.4" fill="#fde68a" opacity="0.43"/>
<circle cx="370" cy="358" r="1.0" fill="#fde68a" opacity="0.58"/>
<circle cx="273" cy="373" r="1.4" fill="#fde68a" opacity="0.79"/>
<circle cx="172" cy="75" r="1.0" fill="#fde68a" opacity="0.62"/>
<circle cx="88" cy="102" r="1.8" fill="#fde68a" opacity="0.75"/>
<circle cx="346" cy="543" r="1.4" fill="#fde68a" opacity="0.45"/>
<circle cx="231" cy="220" r="1.4" fill="#fde68a" opacity="0.35"/>
<circle cx="270" cy="271" r="1.0" fill="#fde68a" opacity="0.46"/>
<circle cx="91" cy="283" r="1.8" fill="#fde68a" opacity="0.84"/>
<circle cx="267" cy="534" r="1.0" fill="#fde68a" opacity="0.47"/>
<circle cx="57" cy="297" r="1.4" fill="#fde68a" opacity="0.31"/>
<circle cx="342" cy="305" r="1.0" fill="#fde68a" opacity="0.79"/>
<circle cx="39" cy="230" r="1.8" fill="#fde68a" opacity="0.61"/>
<circle cx="317" cy="317" r="1.0" fill="#fde68a" opacity="0.76"/>
<circle cx="247" cy="444" r="1.4" fill="#fde68a" opacity="0.46"/>
<circle cx="312" cy="378" r="1.0" fill="#fde68a" opacity="0.58"/>
<circle cx="116" cy="390" r="1.0" fill="#fde68a" opacity="0.63"/>
<circle cx="364" cy="213" r="1.8" fill="#fde68a" opacity="0.30"/>
<circle cx="331" cy="576" r="1.0" fill="#fde68a" opacity="0.52"/>
<circle cx="127" cy="330" r="1.0" fill="#fde68a" opacity="0.66"/>
<circle cx="70" cy="62" r="1.0" fill="#fde68a" opacity="0.51"/>
<circle cx="235" cy="247" r="2.2" fill="#fde68a" opacity="0.32"/>
<circle cx="226" cy="245" r="1.8" fill="#fde68a" opacity="0.69"/>
<circle cx="74" cy="226" r="1.4" fill="#fde68a" opacity="0.57"/>
<circle cx="86" cy="258" r="1.4" fill="#fde68a" opacity="0.46"/>
  
    <path d="M55 118 C120 74 300 74 365 118" fill="none" stroke="#38bdf8" stroke-opacity=".28" stroke-width="2"/>
    <path d="M55 542 C120 586 300 586 365 542" fill="none" stroke="#38bdf8" stroke-opacity=".28" stroke-width="2"/>
    <path d="M74 88 L98 88 M322 88 L346 88 M74 572 L98 572 M322 572 L346 572" stroke="#93c5fd" stroke-opacity=".50" stroke-width="2" stroke-linecap="round"/>
    <circle cx="80" cy="100" r="10" fill="none" stroke="#93c5fd" stroke-opacity=".45"/>
    <circle cx="340" cy="100" r="10" fill="none" stroke="#93c5fd" stroke-opacity=".45"/>
    <circle cx="80" cy="560" r="10" fill="none" stroke="#93c5fd" stroke-opacity=".45"/>
    <circle cx="340" cy="560" r="10" fill="none" stroke="#93c5fd" stroke-opacity=".45"/>
    
  
            <circle cx="210" cy="286" r="132" fill="#38bdf8" opacity=".065"/>
            <circle cx="210" cy="286" r="102" fill="none" stroke="#93c5fd" stroke-opacity=".36" stroke-width="2"/>
            <text x="210" y="164" text-anchor="middle" dominant-baseline="middle" font-size="42" font-family="Georgia, serif" fill="#38bdf8" opacity=".94">●</text><text x="154" y="220" text-anchor="middle" dominant-baseline="middle" font-size="42" font-family="Georgia, serif" fill="#38bdf8" opacity=".94">●</text><text x="266" y="220" text-anchor="middle" dominant-baseline="middle" font-size="42" font-family="Georgia, serif" fill="#38bdf8" opacity=".94">●</text><text x="154" y="302" text-anchor="middle" dominant-baseline="middle" font-size="42" font-family="Georgia, serif" fill="#38bdf8" opacity=".94">●</text><text x="266" y="302" text-anchor="middle" dominant-baseline="middle" font-size="42" font-family="Georgia, serif" fill="#38bdf8" opacity=".94">●</text>
            <text x="62" y="86" font-size="26" font-family="Georgia, serif" fill="#fff7ed">V</text>
            <text x="358" y="86" text-anchor="end" font-size="26" font-family="Georgia, serif" fill="#fff7ed">V</text>
            
  <rect x="58" y="522" width="304" height="76" rx="18" fill="#020617" opacity=".62" stroke="#facc15" stroke-opacity=".24"/>
  <text x="210" y="558" text-anchor="middle" font-size="20" font-family="Georgia, serif" fill="#fff7ed">Five of Cups</text>
  <text x="210" y="586" text-anchor="middle" font-size="9" font-family="Arial, sans-serif" letter-spacing="3" fill="#c4b5fd">ORIGINAL SYMBOLIC DECK</text>
</svg>