<svg xmlns="http://www.w3.org/2000/svg" width="420" height="660" viewBox="0 0 420 660" role="img" aria-label="Ace of Pentacles">
  <defs>
    <linearGradient id="bg" x1="0" y1="0" x2="1" y2="1">
      <stop offset="0%" stop-color="#050816"/>
      <stop offset="45%" stop-color="#17102d"/>
      <stop offset="100%" stop-color="#020617"/>
    </linearGradient>
    <radialGradient id="aura" cx="50%" cy="38%" r="68%">
      <stop offset="0%" stop-color="#facc15" stop-opacity=".18"/>
      <stop offset="52%" stop-color="#a78bfa" stop-opacity=".10"/>
      <stop offset="100%" stop-color="#020617" stop-opacity="0"/>
    </radialGradient>
    <filter id="glow" x="-30%" y="-30%" width="160%" height="160%">
      <feDropShadow dx="0" dy="0" stdDeviation="6" flood-color="#34d399" flood-opacity=".42"/>
    </filter>
  </defs>
  <rect width="420" height="660" rx="34" fill="url(#bg)"/>
  <rect x="20" y="20" width="380" height="620" rx="30" fill="url(#aura)" stroke="#facc15" stroke-opacity=".54" stroke-width="2"/>
  <rect x="35" y="35" width="350" height="590" rx="22" fill="none" stroke="#a78bfa" stroke-opacity=".18" stroke-width="1.5"/>
  <circle cx="51" cy="242" r="1.4" fill="#fde68a" opacity="0.56"/>
<circle cx="353" cy="282" r="1.0" fill="#fde68a" opacity="0.81"/>
<circle cx="345" cy="194" r="1.0" fill="#fde68a" opacity="0.50"/>
<circle cx="245" cy="221" r="1.0" fill="#fde68a" opacity="0.69"/>
<circle cx="66" cy="542" r="1.4" fill="#fde68a" opacity="0.71"/>
<circle cx="144" cy="500" r="1.8" fill="#fde68a" opacity="0.61"/>
<circle cx="224" cy="170" r="1.0" fill="#fde68a" opacity="0.76"/>
<circle cx="146" cy="520" r="1.4" fill="#fde68a" opacity="0.40"/>
<circle cx="105" cy="459" r="2.2" fill="#fde68a" opacity="0.34"/>
<circle cx="362" cy="426" r="1.8" fill="#fde68a" opacity="0.46"/>
<circle cx="64" cy="250" r="1.0" fill="#fde68a" opacity="0.68"/>
<circle cx="114" cy="91" r="1.4" fill="#fde68a" opacity="0.51"/>
<circle cx="149" cy="290" r="2.2" fill="#fde68a" opacity="0.47"/>
<circle cx="192" cy="540" r="1.0" fill="#fde68a" opacity="0.36"/>
<circle cx="111" cy="122" r="2.2" fill="#fde68a" opacity="0.30"/>
<circle cx="97" cy="572" r="1.0" fill="#fde68a" opacity="0.47"/>
<circle cx="252" cy="498" r="1.0" fill="#fde68a" opacity="0.33"/>
<circle cx="68" cy="146" r="2.2" fill="#fde68a" opacity="0.68"/>
<circle cx="382" cy="551" r="1.4" fill="#fde68a" opacity="0.77"/>
<circle cx="335" cy="155" r="1.8" fill="#fde68a" opacity="0.42"/>
<circle cx="70" cy="213" r="2.2" fill="#fde68a" opacity="0.29"/>
<circle cx="38" cy="467" r="1.0" fill="#fde68a" opacity="0.52"/>
<circle cx="259" cy="96" r="1.4" fill="#fde68a" opacity="0.49"/>
<circle cx="174" cy="345" r="1.8" fill="#fde68a" opacity="0.40"/>
<circle cx="118" cy="62" r="1.0" fill="#fde68a" opacity="0.37"/>
<circle cx="106" cy="220" r="1.8" fill="#fde68a" opacity="0.42"/>
<circle cx="346" cy="573" r="1.0" fill="#fde68a" opacity="0.33"/>
<circle cx="360" cy="576" r="1.0" fill="#fde68a" opacity="0.71"/>
<circle cx="376" cy="233" r="1.4" fill="#fde68a" opacity="0.71"/>
<circle cx="125" cy="254" r="1.0" fill="#fde68a" opacity="0.71"/>
<circle cx="298" cy="573" r="2.2" fill="#fde68a" opacity="0.62"/>
<circle cx="196" cy="486" r="1.8" fill="#fde68a" opacity="0.48"/>
<circle cx="304" cy="503" r="1.0" fill="#fde68a" opacity="0.35"/>
<circle cx="154" cy="105" r="1.0" fill="#fde68a" opacity="0.77"/>
  
    <path d="M55 118 C120 74 300 74 365 118" fill="none" stroke="#34d399" stroke-opacity=".28" stroke-width="2"/>
    <path d="M55 542 C120 586 300 586 365 542" fill="none" stroke="#34d399" stroke-opacity=".28" stroke-width="2"/>
    <path d="M74 88 L98 88 M322 88 L346 88 M74 572 L98 572 M322 572 L346 572" stroke="#fde68a" stroke-opacity=".50" stroke-width="2" stroke-linecap="round"/>
    <circle cx="80" cy="100" r="10" fill="none" stroke="#fde68a" stroke-opacity=".45"/>
    <circle cx="340" cy="100" r="10" fill="none" stroke="#fde68a" stroke-opacity=".45"/>
    <circle cx="80" cy="560" r="10" fill="none" stroke="#fde68a" stroke-opacity=".45"/>
    <circle cx="340" cy="560" r="10" fill="none" stroke="#fde68a" stroke-opacity=".45"/>
    
  
            <circle cx="210" cy="286" r="132" fill="#34d399" opacity=".065"/>
            <circle cx="210" cy="286" r="102" fill="none" stroke="#fde68a" stroke-opacity=".36" stroke-width="2"/>
            <text x="210" y="164" text-anchor="middle" dominant-baseline="middle" font-size="42" font-family="Georgia, serif" fill="#34d399" opacity=".94">⬟</text>
            <text x="62" y="86" font-size="26" font-family="Georgia, serif" fill="#fff7ed">A</text>
            <text x="358" y="86" text-anchor="end" font-size="26" font-family="Georgia, serif" fill="#fff7ed">A</text>
            
  <rect x="58" y="522" width="304" height="76" rx="18" fill="#020617" opacity=".62" stroke="#facc15" stroke-opacity=".24"/>
  <text x="210" y="558" text-anchor="middle" font-size="20" font-family="Georgia, serif" fill="#fff7ed">Ace of Pentacles</text>
  <text x="210" y="586" text-anchor="middle" font-size="9" font-family="Arial, sans-serif" letter-spacing="3" fill="#c4b5fd">ORIGINAL SYMBOLIC DECK</text>
</svg>