<svg xmlns="http://www.w3.org/2000/svg" width="420" height="660" viewBox="0 0 420 660" role="img" aria-label="Seven of Cups">
<defs>
<linearGradient id="bg" x1="0" y1="0" x2="1" y2="1"><stop stop-color="#080b18"/><stop offset=".52" stop-color="#211436"/><stop offset="1" stop-color="#050812"/></linearGradient>
<radialGradient id="a" cx="50%" cy="40%" r="64%"><stop stop-color="#38bdf8" stop-opacity=".22"/><stop offset=".55" stop-color="#93c5fd" stop-opacity=".12"/><stop offset="1" stop-color="#000" stop-opacity="0"/></radialGradient>
<filter id="glow"><feDropShadow dx="0" dy="0" stdDeviation="5" flood-color="#38bdf8" flood-opacity=".42"/></filter>
</defs>
<rect width="420" height="660" rx="34" fill="url(#bg)"/>
<rect x="18" y="18" width="384" height="624" rx="30" fill="url(#a)" stroke="#d6a24f" stroke-opacity=".82" stroke-width="2.4"/>
<rect x="36" y="36" width="348" height="588" rx="22" fill="none" stroke="#93c5fd" stroke-opacity=".28" stroke-width="1.5"/>
<circle cx="181" cy="289" r="1.5" fill="#fff1b8" opacity="0.27"/>
<circle cx="332" cy="108" r="1.2" fill="#fff1b8" opacity="0.56"/>
<circle cx="284" cy="160" r="2" fill="#fff1b8" opacity="0.43"/>
<circle cx="316" cy="443" r="1.2" fill="#fff1b8" opacity="0.61"/>
<circle cx="370" cy="127" r="1" fill="#fff1b8" opacity="0.69"/>
<circle cx="145" cy="87" r="1.2" fill="#fff1b8" opacity="0.54"/>
<circle cx="265" cy="350" r="1.2" fill="#fff1b8" opacity="0.53"/>
<circle cx="314" cy="254" r="1.5" fill="#fff1b8" opacity="0.45"/>
<circle cx="375" cy="450" r="1.5" fill="#fff1b8" opacity="0.52"/>
<circle cx="185" cy="360" r="1" fill="#fff1b8" opacity="0.45"/>
<circle cx="373" cy="277" r="2" fill="#fff1b8" opacity="0.31"/>
<circle cx="298" cy="574" r="1" fill="#fff1b8" opacity="0.32"/>
<circle cx="57" cy="495" r="2" fill="#fff1b8" opacity="0.57"/>
<circle cx="289" cy="76" r="1" fill="#fff1b8" opacity="0.62"/>
<circle cx="130" cy="368" r="2" fill="#fff1b8" opacity="0.69"/>
<circle cx="372" cy="533" r="1" fill="#fff1b8" opacity="0.70"/>
<circle cx="225" cy="111" r="1" fill="#fff1b8" opacity="0.65"/>
<circle cx="64" cy="210" r="2" fill="#fff1b8" opacity="0.40"/>
<circle cx="84" cy="430" r="1.5" fill="#fff1b8" opacity="0.35"/>
<circle cx="210" cy="362" r="2" fill="#fff1b8" opacity="0.26"/>
<circle cx="159" cy="495" r="1" fill="#fff1b8" opacity="0.72"/>
<circle cx="220" cy="181" r="1.5" fill="#fff1b8" opacity="0.29"/>
<circle cx="326" cy="507" r="1.2" fill="#fff1b8" opacity="0.44"/>
<circle cx="123" cy="582" r="2" fill="#fff1b8" opacity="0.39"/>
<circle cx="155" cy="281" r="1" fill="#fff1b8" opacity="0.45"/>
<circle cx="366" cy="208" r="1" fill="#fff1b8" opacity="0.34"/>
<circle cx="92" cy="346" r="1" fill="#fff1b8" opacity="0.31"/>
<circle cx="260" cy="106" r="1" fill="#fff1b8" opacity="0.57"/>
<circle cx="139" cy="496" r="2" fill="#fff1b8" opacity="0.37"/>
<circle cx="90" cy="515" r="1.5" fill="#fff1b8" opacity="0.48"/>
<circle cx="158" cy="551" r="1" fill="#fff1b8" opacity="0.32"/>
<circle cx="229" cy="237" r="1" fill="#fff1b8" opacity="0.56"/>
<circle cx="94" cy="212" r="1" fill="#fff1b8" opacity="0.76"/>
<circle cx="132" cy="565" r="2" fill="#fff1b8" opacity="0.74"/>
<circle cx="50" cy="439" r="1.5" fill="#fff1b8" opacity="0.71"/>
<circle cx="67" cy="406" r="1.5" fill="#fff1b8" opacity="0.57"/>
<circle cx="50" cy="217" r="1" fill="#fff1b8" opacity="0.36"/>
<circle cx="350" cy="509" r="1" fill="#fff1b8" opacity="0.57"/>
<path d="M70 104 C132 68 288 68 350 104 M70 556 C132 592 288 592 350 556" fill="none" stroke="#d6a24f" stroke-opacity=".28" stroke-width="2"/>
<text x="64" y="78" fill="#fff1b8" font-size="22" font-family="Georgia,serif">VII</text>
<text x="356" y="78" text-anchor="end" fill="#fff1b8" font-size="22" font-family="Georgia,serif">VII</text>
<g filter="url(#glow)"><circle cx="210" cy="292" r="122" fill="#93c5fd" opacity=".08"/><circle cx="210" cy="292" r="92" fill="none" stroke="#38bdf8" stroke-opacity=".36" stroke-width="2"/><text x="210" y="156" text-anchor="middle" dominant-baseline="middle" font-size="42" fill="#38bdf8" font-family="Georgia,serif">●</text><text x="154" y="218" text-anchor="middle" dominant-baseline="middle" font-size="42" fill="#38bdf8" font-family="Georgia,serif">●</text><text x="266" y="218" text-anchor="middle" dominant-baseline="middle" font-size="42" fill="#38bdf8" font-family="Georgia,serif">●</text><text x="154" y="294" text-anchor="middle" dominant-baseline="middle" font-size="42" fill="#38bdf8" font-family="Georgia,serif">●</text><text x="266" y="294" text-anchor="middle" dominant-baseline="middle" font-size="42" fill="#38bdf8" font-family="Georgia,serif">●</text><text x="210" y="364" text-anchor="middle" dominant-baseline="middle" font-size="42" fill="#38bdf8" font-family="Georgia,serif">●</text><text x="210" y="252" text-anchor="middle" dominant-baseline="middle" font-size="42" fill="#38bdf8" font-family="Georgia,serif">●</text><path d="M130 464 C172 428 248 428 290 464" fill="none" stroke="#38bdf8" stroke-width="5" stroke-linecap="round" opacity=".6"/></g>
<rect x="58" y="530" width="304" height="74" rx="17" fill="#050812" opacity=".74" stroke="#d6a24f" stroke-opacity=".30"/>
<text x="210" y="566" text-anchor="middle" fill="#fff7df" font-size="20" font-family="Georgia,serif">Seven of Cups</text>
<text x="210" y="592" text-anchor="middle" fill="#c9b27a" font-size="9" font-family="Arial" letter-spacing="3">FATECARD ORIGINAL</text>
</svg>