<svg xmlns="http://www.w3.org/2000/svg" width="420" height="660" viewBox="0 0 420 660" role="img" aria-label="Three of Wands">
  <defs>
    <linearGradient id="bg" x1="0" y1="0" x2="1" y2="1">
      <stop offset="0%" stop-color="#050816"/>
      <stop offset="45%" stop-color="#17102d"/>
      <stop offset="100%" stop-color="#020617"/>
    </linearGradient>
    <radialGradient id="aura" cx="50%" cy="38%" r="68%">
      <stop offset="0%" stop-color="#facc15" stop-opacity=".18"/>
      <stop offset="52%" stop-color="#a78bfa" stop-opacity=".10"/>
      <stop offset="100%" stop-color="#020617" stop-opacity="0"/>
    </radialGradient>
    <filter id="glow" x="-30%" y="-30%" width="160%" height="160%">
      <feDropShadow dx="0" dy="0" stdDeviation="6" flood-color="#fb923c" flood-opacity=".42"/>
    </filter>
  </defs>
  <rect width="420" height="660" rx="34" fill="url(#bg)"/>
  <rect x="20" y="20" width="380" height="620" rx="30" fill="url(#aura)" stroke="#facc15" stroke-opacity=".54" stroke-width="2"/>
  <rect x="35" y="35" width="350" height="590" rx="22" fill="none" stroke="#a78bfa" stroke-opacity=".18" stroke-width="1.5"/>
  <circle cx="334" cy="175" r="1.0" fill="#fde68a" opacity="0.63"/>
<circle cx="224" cy="223" r="2.2" fill="#fde68a" opacity="0.63"/>
<circle cx="279" cy="188" r="1.8" fill="#fde68a" opacity="0.81"/>
<circle cx="333" cy="546" r="1.0" fill="#fde68a" opacity="0.60"/>
<circle cx="267" cy="306" r="1.0" fill="#fde68a" opacity="0.35"/>
<circle cx="72" cy="145" r="1.8" fill="#fde68a" opacity="0.48"/>
<circle cx="232" cy="153" r="1.8" fill="#fde68a" opacity="0.62"/>
<circle cx="221" cy="351" r="1.0" fill="#fde68a" opacity="0.41"/>
<circle cx="375" cy="174" r="1.8" fill="#fde68a" opacity="0.44"/>
<circle cx="250" cy="562" r="1.8" fill="#fde68a" opacity="0.45"/>
<circle cx="382" cy="268" r="1.0" fill="#fde68a" opacity="0.55"/>
<circle cx="332" cy="362" r="2.2" fill="#fde68a" opacity="0.44"/>
<circle cx="163" cy="193" r="1.8" fill="#fde68a" opacity="0.45"/>
<circle cx="347" cy="436" r="1.0" fill="#fde68a" opacity="0.81"/>
<circle cx="267" cy="378" r="1.8" fill="#fde68a" opacity="0.73"/>
<circle cx="256" cy="190" r="1.0" fill="#fde68a" opacity="0.67"/>
<circle cx="136" cy="99" r="2.2" fill="#fde68a" opacity="0.72"/>
<circle cx="352" cy="313" r="1.0" fill="#fde68a" opacity="0.29"/>
<circle cx="258" cy="523" r="1.0" fill="#fde68a" opacity="0.58"/>
<circle cx="274" cy="379" r="2.2" fill="#fde68a" opacity="0.38"/>
<circle cx="95" cy="395" r="1.4" fill="#fde68a" opacity="0.30"/>
<circle cx="271" cy="308" r="1.0" fill="#fde68a" opacity="0.32"/>
<circle cx="76" cy="174" r="1.0" fill="#fde68a" opacity="0.65"/>
<circle cx="65" cy="251" r="1.0" fill="#fde68a" opacity="0.82"/>
<circle cx="164" cy="290" r="1.4" fill="#fde68a" opacity="0.66"/>
<circle cx="136" cy="103" r="2.2" fill="#fde68a" opacity="0.43"/>
<circle cx="374" cy="281" r="1.0" fill="#fde68a" opacity="0.61"/>
<circle cx="358" cy="66" r="2.2" fill="#fde68a" opacity="0.53"/>
<circle cx="200" cy="65" r="1.8" fill="#fde68a" opacity="0.37"/>
<circle cx="109" cy="306" r="1.8" fill="#fde68a" opacity="0.84"/>
<circle cx="187" cy="485" r="2.2" fill="#fde68a" opacity="0.78"/>
<circle cx="71" cy="165" r="2.2" fill="#fde68a" opacity="0.75"/>
<circle cx="283" cy="66" r="1.0" fill="#fde68a" opacity="0.76"/>
<circle cx="198" cy="466" r="1.4" fill="#fde68a" opacity="0.81"/>
  
    <path d="M55 118 C120 74 300 74 365 118" fill="none" stroke="#fb923c" stroke-opacity=".28" stroke-width="2"/>
    <path d="M55 542 C120 586 300 586 365 542" fill="none" stroke="#fb923c" stroke-opacity=".28" stroke-width="2"/>
    <path d="M74 88 L98 88 M322 88 L346 88 M74 572 L98 572 M322 572 L346 572" stroke="#facc15" stroke-opacity=".50" stroke-width="2" stroke-linecap="round"/>
    <circle cx="80" cy="100" r="10" fill="none" stroke="#facc15" stroke-opacity=".45"/>
    <circle cx="340" cy="100" r="10" fill="none" stroke="#facc15" stroke-opacity=".45"/>
    <circle cx="80" cy="560" r="10" fill="none" stroke="#facc15" stroke-opacity=".45"/>
    <circle cx="340" cy="560" r="10" fill="none" stroke="#facc15" stroke-opacity=".45"/>
    
  
            <circle cx="210" cy="286" r="132" fill="#fb923c" opacity=".065"/>
            <circle cx="210" cy="286" r="102" fill="none" stroke="#facc15" stroke-opacity=".36" stroke-width="2"/>
            <text x="210" y="164" text-anchor="middle" dominant-baseline="middle" font-size="42" font-family="Georgia, serif" fill="#fb923c" opacity=".94">♣</text><text x="154" y="220" text-anchor="middle" dominant-baseline="middle" font-size="42" font-family="Georgia, serif" fill="#fb923c" opacity=".94">♣</text><text x="266" y="220" text-anchor="middle" dominant-baseline="middle" font-size="42" font-family="Georgia, serif" fill="#fb923c" opacity=".94">♣</text>
            <text x="62" y="86" font-size="26" font-family="Georgia, serif" fill="#fff7ed">III</text>
            <text x="358" y="86" text-anchor="end" font-size="26" font-family="Georgia, serif" fill="#fff7ed">III</text>
            
  <rect x="58" y="522" width="304" height="76" rx="18" fill="#020617" opacity=".62" stroke="#facc15" stroke-opacity=".24"/>
  <text x="210" y="558" text-anchor="middle" font-size="20" font-family="Georgia, serif" fill="#fff7ed">Three of Wands</text>
  <text x="210" y="586" text-anchor="middle" font-size="9" font-family="Arial, sans-serif" letter-spacing="3" fill="#c4b5fd">ORIGINAL SYMBOLIC DECK</text>
</svg>