<svg xmlns="http://www.w3.org/2000/svg" width="420" height="660" viewBox="0 0 420 660" role="img" aria-label="Queen of Pentacles">
<defs>
<linearGradient id="bg" x1="0" y1="0" x2="1" y2="1"><stop stop-color="#080b18"/><stop offset=".52" stop-color="#211436"/><stop offset="1" stop-color="#050812"/></linearGradient>
<radialGradient id="a" cx="50%" cy="40%" r="64%"><stop stop-color="#34d399" stop-opacity=".22"/><stop offset=".55" stop-color="#fde68a" stop-opacity=".12"/><stop offset="1" stop-color="#000" stop-opacity="0"/></radialGradient>
<filter id="glow"><feDropShadow dx="0" dy="0" stdDeviation="5" flood-color="#34d399" flood-opacity=".42"/></filter>
</defs>
<rect width="420" height="660" rx="34" fill="url(#bg)"/>
<rect x="18" y="18" width="384" height="624" rx="30" fill="url(#a)" stroke="#d6a24f" stroke-opacity=".82" stroke-width="2.4"/>
<rect x="36" y="36" width="348" height="588" rx="22" fill="none" stroke="#fde68a" stroke-opacity=".28" stroke-width="1.5"/>
<circle cx="123" cy="299" r="1" fill="#fff1b8" opacity="0.54"/>
<circle cx="291" cy="526" r="1.5" fill="#fff1b8" opacity="0.43"/>
<circle cx="299" cy="255" r="1.2" fill="#fff1b8" opacity="0.50"/>
<circle cx="371" cy="331" r="1.2" fill="#fff1b8" opacity="0.53"/>
<circle cx="74" cy="374" r="1.2" fill="#fff1b8" opacity="0.77"/>
<circle cx="69" cy="571" r="2" fill="#fff1b8" opacity="0.44"/>
<circle cx="282" cy="282" r="2" fill="#fff1b8" opacity="0.70"/>
<circle cx="253" cy="149" r="2" fill="#fff1b8" opacity="0.57"/>
<circle cx="118" cy="516" r="1.2" fill="#fff1b8" opacity="0.45"/>
<circle cx="330" cy="87" r="1.2" fill="#fff1b8" opacity="0.64"/>
<circle cx="343" cy="395" r="1.2" fill="#fff1b8" opacity="0.67"/>
<circle cx="142" cy="63" r="1" fill="#fff1b8" opacity="0.60"/>
<circle cx="246" cy="479" r="1.2" fill="#fff1b8" opacity="0.68"/>
<circle cx="246" cy="415" r="2" fill="#fff1b8" opacity="0.38"/>
<circle cx="255" cy="184" r="1.2" fill="#fff1b8" opacity="0.36"/>
<circle cx="196" cy="136" r="1" fill="#fff1b8" opacity="0.64"/>
<circle cx="181" cy="517" r="1" fill="#fff1b8" opacity="0.31"/>
<circle cx="223" cy="62" r="1.2" fill="#fff1b8" opacity="0.29"/>
<circle cx="311" cy="435" r="2" fill="#fff1b8" opacity="0.46"/>
<circle cx="220" cy="491" r="2" fill="#fff1b8" opacity="0.63"/>
<circle cx="181" cy="346" r="1" fill="#fff1b8" opacity="0.60"/>
<circle cx="100" cy="373" r="2" fill="#fff1b8" opacity="0.39"/>
<circle cx="303" cy="142" r="1.5" fill="#fff1b8" opacity="0.36"/>
<circle cx="55" cy="576" r="2" fill="#fff1b8" opacity="0.76"/>
<circle cx="55" cy="263" r="1" fill="#fff1b8" opacity="0.35"/>
<circle cx="77" cy="382" r="1.5" fill="#fff1b8" opacity="0.36"/>
<circle cx="343" cy="125" r="1.5" fill="#fff1b8" opacity="0.54"/>
<circle cx="301" cy="159" r="1.2" fill="#fff1b8" opacity="0.78"/>
<circle cx="364" cy="308" r="1.2" fill="#fff1b8" opacity="0.66"/>
<circle cx="236" cy="567" r="1.5" fill="#fff1b8" opacity="0.57"/>
<circle cx="126" cy="380" r="1.5" fill="#fff1b8" opacity="0.72"/>
<circle cx="375" cy="352" r="1" fill="#fff1b8" opacity="0.43"/>
<circle cx="63" cy="425" r="1.2" fill="#fff1b8" opacity="0.57"/>
<circle cx="315" cy="370" r="1" fill="#fff1b8" opacity="0.37"/>
<circle cx="149" cy="359" r="1.5" fill="#fff1b8" opacity="0.74"/>
<circle cx="344" cy="276" r="1.2" fill="#fff1b8" opacity="0.30"/>
<circle cx="112" cy="379" r="2" fill="#fff1b8" opacity="0.46"/>
<circle cx="265" cy="465" r="1.2" fill="#fff1b8" opacity="0.72"/>
<path d="M70 104 C132 68 288 68 350 104 M70 556 C132 592 288 592 350 556" fill="none" stroke="#d6a24f" stroke-opacity=".28" stroke-width="2"/>
<text x="64" y="78" fill="#fff1b8" font-size="22" font-family="Georgia,serif">QUEEN</text>
<text x="356" y="78" text-anchor="end" fill="#fff1b8" font-size="22" font-family="Georgia,serif">QUEEN</text>
<g filter="url(#glow)"><ellipse cx="210" cy="430" rx="96" ry="22" fill="#fde68a" opacity=".16"/><path d="M148 400 C164 310 186 250 210 220 C234 250 256 310 272 400 Z" fill="#34d399" opacity=".17" stroke="#34d399" stroke-width="3"/><circle cx="210" cy="214" r="40" fill="#fde68a" opacity=".18" stroke="#fde68a" stroke-width="3"/><text x="210" y="268" text-anchor="middle" font-size="74" fill="#34d399" font-family="Georgia,serif">♛</text><text x="210" y="356" text-anchor="middle" font-size="56" fill="#fde68a" font-family="Georgia,serif">⬟</text></g>
<rect x="58" y="530" width="304" height="74" rx="17" fill="#050812" opacity=".74" stroke="#d6a24f" stroke-opacity=".30"/>
<text x="210" y="566" text-anchor="middle" fill="#fff7df" font-size="20" font-family="Georgia,serif">Queen of Pentacles</text>
<text x="210" y="592" text-anchor="middle" fill="#c9b27a" font-size="9" font-family="Arial" letter-spacing="3">FATECARD ORIGINAL</text>
</svg>