<svg xmlns="http://www.w3.org/2000/svg" width="420" height="660" viewBox="0 0 420 660" role="img" aria-label="Queen of Wands">
<defs>
<linearGradient id="bg" x1="0" y1="0" x2="1" y2="1"><stop stop-color="#080b18"/><stop offset=".52" stop-color="#211436"/><stop offset="1" stop-color="#050812"/></linearGradient>
<radialGradient id="a" cx="50%" cy="40%" r="64%"><stop stop-color="#f59e0b" stop-opacity=".22"/><stop offset=".55" stop-color="#fb923c" stop-opacity=".12"/><stop offset="1" stop-color="#000" stop-opacity="0"/></radialGradient>
<filter id="glow"><feDropShadow dx="0" dy="0" stdDeviation="5" flood-color="#f59e0b" flood-opacity=".42"/></filter>
</defs>
<rect width="420" height="660" rx="34" fill="url(#bg)"/>
<rect x="18" y="18" width="384" height="624" rx="30" fill="url(#a)" stroke="#d6a24f" stroke-opacity=".82" stroke-width="2.4"/>
<rect x="36" y="36" width="348" height="588" rx="22" fill="none" stroke="#fb923c" stroke-opacity=".28" stroke-width="1.5"/>
<circle cx="279" cy="336" r="1.5" fill="#fff1b8" opacity="0.41"/>
<circle cx="165" cy="160" r="2" fill="#fff1b8" opacity="0.66"/>
<circle cx="54" cy="510" r="1.5" fill="#fff1b8" opacity="0.74"/>
<circle cx="208" cy="542" r="2" fill="#fff1b8" opacity="0.50"/>
<circle cx="294" cy="130" r="1" fill="#fff1b8" opacity="0.52"/>
<circle cx="190" cy="456" r="1.5" fill="#fff1b8" opacity="0.31"/>
<circle cx="137" cy="74" r="1.2" fill="#fff1b8" opacity="0.50"/>
<circle cx="223" cy="114" r="1.5" fill="#fff1b8" opacity="0.75"/>
<circle cx="65" cy="287" r="1.2" fill="#fff1b8" opacity="0.52"/>
<circle cx="187" cy="77" r="1.5" fill="#fff1b8" opacity="0.34"/>
<circle cx="318" cy="205" r="1" fill="#fff1b8" opacity="0.51"/>
<circle cx="337" cy="526" r="2" fill="#fff1b8" opacity="0.56"/>
<circle cx="240" cy="147" r="2" fill="#fff1b8" opacity="0.77"/>
<circle cx="199" cy="387" r="1.2" fill="#fff1b8" opacity="0.46"/>
<circle cx="107" cy="122" r="1.2" fill="#fff1b8" opacity="0.58"/>
<circle cx="298" cy="101" r="1.2" fill="#fff1b8" opacity="0.52"/>
<circle cx="370" cy="206" r="1.5" fill="#fff1b8" opacity="0.50"/>
<circle cx="53" cy="433" r="1" fill="#fff1b8" opacity="0.52"/>
<circle cx="57" cy="499" r="1.5" fill="#fff1b8" opacity="0.42"/>
<circle cx="43" cy="337" r="1.5" fill="#fff1b8" opacity="0.39"/>
<circle cx="339" cy="324" r="2" fill="#fff1b8" opacity="0.41"/>
<circle cx="154" cy="446" r="1.2" fill="#fff1b8" opacity="0.43"/>
<circle cx="156" cy="371" r="1" fill="#fff1b8" opacity="0.59"/>
<circle cx="246" cy="356" r="1" fill="#fff1b8" opacity="0.73"/>
<circle cx="83" cy="361" r="1.5" fill="#fff1b8" opacity="0.69"/>
<circle cx="277" cy="476" r="2" fill="#fff1b8" opacity="0.72"/>
<circle cx="290" cy="390" r="1.2" fill="#fff1b8" opacity="0.74"/>
<circle cx="170" cy="265" r="2" fill="#fff1b8" opacity="0.61"/>
<circle cx="150" cy="547" r="1.5" fill="#fff1b8" opacity="0.31"/>
<circle cx="143" cy="444" r="1" fill="#fff1b8" opacity="0.50"/>
<circle cx="209" cy="401" r="1.5" fill="#fff1b8" opacity="0.68"/>
<circle cx="175" cy="60" r="1" fill="#fff1b8" opacity="0.30"/>
<circle cx="84" cy="386" r="1" fill="#fff1b8" opacity="0.43"/>
<circle cx="312" cy="256" r="1" fill="#fff1b8" opacity="0.71"/>
<circle cx="195" cy="97" r="1" fill="#fff1b8" opacity="0.58"/>
<circle cx="155" cy="373" r="1.2" fill="#fff1b8" opacity="0.53"/>
<circle cx="306" cy="471" r="2" fill="#fff1b8" opacity="0.29"/>
<circle cx="230" cy="305" r="1.2" fill="#fff1b8" opacity="0.51"/>
<path d="M70 104 C132 68 288 68 350 104 M70 556 C132 592 288 592 350 556" fill="none" stroke="#d6a24f" stroke-opacity=".28" stroke-width="2"/>
<text x="64" y="78" fill="#fff1b8" font-size="22" font-family="Georgia,serif">QUEEN</text>
<text x="356" y="78" text-anchor="end" fill="#fff1b8" font-size="22" font-family="Georgia,serif">QUEEN</text>
<g filter="url(#glow)"><ellipse cx="210" cy="430" rx="96" ry="22" fill="#fb923c" opacity=".16"/><path d="M148 400 C164 310 186 250 210 220 C234 250 256 310 272 400 Z" fill="#f59e0b" opacity=".17" stroke="#f59e0b" stroke-width="3"/><circle cx="210" cy="214" r="40" fill="#fb923c" opacity=".18" stroke="#fb923c" stroke-width="3"/><text x="210" y="268" text-anchor="middle" font-size="74" fill="#f59e0b" font-family="Georgia,serif">♛</text><text x="210" y="356" text-anchor="middle" font-size="56" fill="#fb923c" font-family="Georgia,serif">♣</text></g>
<rect x="58" y="530" width="304" height="74" rx="17" fill="#050812" opacity=".74" stroke="#d6a24f" stroke-opacity=".30"/>
<text x="210" y="566" text-anchor="middle" fill="#fff7df" font-size="20" font-family="Georgia,serif">Queen of Wands</text>
<text x="210" y="592" text-anchor="middle" fill="#c9b27a" font-size="9" font-family="Arial" letter-spacing="3">FATECARD ORIGINAL</text>
</svg>