<svg xmlns="http://www.w3.org/2000/svg" width="420" height="660" viewBox="0 0 420 660" role="img" aria-label="Six of Pentacles">
<defs>
<linearGradient id="bg" x1="0" y1="0" x2="1" y2="1"><stop stop-color="#080b18"/><stop offset=".52" stop-color="#211436"/><stop offset="1" stop-color="#050812"/></linearGradient>
<radialGradient id="a" cx="50%" cy="40%" r="64%"><stop stop-color="#34d399" stop-opacity=".22"/><stop offset=".55" stop-color="#fde68a" stop-opacity=".12"/><stop offset="1" stop-color="#000" stop-opacity="0"/></radialGradient>
<filter id="glow"><feDropShadow dx="0" dy="0" stdDeviation="5" flood-color="#34d399" flood-opacity=".42"/></filter>
</defs>
<rect width="420" height="660" rx="34" fill="url(#bg)"/>
<rect x="18" y="18" width="384" height="624" rx="30" fill="url(#a)" stroke="#d6a24f" stroke-opacity=".82" stroke-width="2.4"/>
<rect x="36" y="36" width="348" height="588" rx="22" fill="none" stroke="#fde68a" stroke-opacity=".28" stroke-width="1.5"/>
<circle cx="227" cy="575" r="1" fill="#fff1b8" opacity="0.45"/>
<circle cx="288" cy="65" r="2" fill="#fff1b8" opacity="0.63"/>
<circle cx="139" cy="343" r="2" fill="#fff1b8" opacity="0.47"/>
<circle cx="96" cy="480" r="1.2" fill="#fff1b8" opacity="0.26"/>
<circle cx="53" cy="325" r="1" fill="#fff1b8" opacity="0.38"/>
<circle cx="223" cy="77" r="2" fill="#fff1b8" opacity="0.41"/>
<circle cx="183" cy="518" r="1" fill="#fff1b8" opacity="0.73"/>
<circle cx="139" cy="519" r="1.5" fill="#fff1b8" opacity="0.56"/>
<circle cx="134" cy="389" r="1" fill="#fff1b8" opacity="0.64"/>
<circle cx="237" cy="588" r="1.5" fill="#fff1b8" opacity="0.65"/>
<circle cx="206" cy="67" r="1" fill="#fff1b8" opacity="0.37"/>
<circle cx="261" cy="460" r="1" fill="#fff1b8" opacity="0.61"/>
<circle cx="180" cy="120" r="1" fill="#fff1b8" opacity="0.31"/>
<circle cx="67" cy="502" r="2" fill="#fff1b8" opacity="0.51"/>
<circle cx="185" cy="161" r="1.2" fill="#fff1b8" opacity="0.67"/>
<circle cx="167" cy="385" r="1.2" fill="#fff1b8" opacity="0.75"/>
<circle cx="358" cy="81" r="1" fill="#fff1b8" opacity="0.62"/>
<circle cx="168" cy="463" r="1" fill="#fff1b8" opacity="0.52"/>
<circle cx="277" cy="301" r="1.2" fill="#fff1b8" opacity="0.72"/>
<circle cx="158" cy="294" r="2" fill="#fff1b8" opacity="0.57"/>
<circle cx="221" cy="515" r="2" fill="#fff1b8" opacity="0.62"/>
<circle cx="82" cy="219" r="1" fill="#fff1b8" opacity="0.55"/>
<circle cx="60" cy="382" r="2" fill="#fff1b8" opacity="0.73"/>
<circle cx="332" cy="266" r="2" fill="#fff1b8" opacity="0.71"/>
<circle cx="269" cy="274" r="1.2" fill="#fff1b8" opacity="0.74"/>
<circle cx="172" cy="450" r="1.5" fill="#fff1b8" opacity="0.58"/>
<circle cx="320" cy="534" r="1.5" fill="#fff1b8" opacity="0.32"/>
<circle cx="139" cy="365" r="1" fill="#fff1b8" opacity="0.61"/>
<circle cx="90" cy="486" r="1" fill="#fff1b8" opacity="0.68"/>
<circle cx="152" cy="410" r="1.2" fill="#fff1b8" opacity="0.57"/>
<circle cx="356" cy="528" r="2" fill="#fff1b8" opacity="0.63"/>
<circle cx="315" cy="497" r="1.2" fill="#fff1b8" opacity="0.72"/>
<circle cx="295" cy="315" r="1" fill="#fff1b8" opacity="0.69"/>
<circle cx="112" cy="70" r="2" fill="#fff1b8" opacity="0.54"/>
<circle cx="192" cy="417" r="1.2" fill="#fff1b8" opacity="0.69"/>
<circle cx="164" cy="258" r="1.5" fill="#fff1b8" opacity="0.63"/>
<circle cx="272" cy="557" r="2" fill="#fff1b8" opacity="0.27"/>
<circle cx="363" cy="324" r="1.5" fill="#fff1b8" opacity="0.73"/>
<path d="M70 104 C132 68 288 68 350 104 M70 556 C132 592 288 592 350 556" fill="none" stroke="#d6a24f" stroke-opacity=".28" stroke-width="2"/>
<text x="64" y="78" fill="#fff1b8" font-size="22" font-family="Georgia,serif">VI</text>
<text x="356" y="78" text-anchor="end" fill="#fff1b8" font-size="22" font-family="Georgia,serif">VI</text>
<g filter="url(#glow)"><circle cx="210" cy="292" r="122" fill="#fde68a" opacity=".08"/><circle cx="210" cy="292" r="92" fill="none" stroke="#34d399" stroke-opacity=".36" stroke-width="2"/><text x="210" y="156" text-anchor="middle" dominant-baseline="middle" font-size="42" fill="#34d399" font-family="Georgia,serif">⬟</text><text x="154" y="218" text-anchor="middle" dominant-baseline="middle" font-size="42" fill="#34d399" font-family="Georgia,serif">⬟</text><text x="266" y="218" text-anchor="middle" dominant-baseline="middle" font-size="42" fill="#34d399" font-family="Georgia,serif">⬟</text><text x="154" y="294" text-anchor="middle" dominant-baseline="middle" font-size="42" fill="#34d399" font-family="Georgia,serif">⬟</text><text x="266" y="294" text-anchor="middle" dominant-baseline="middle" font-size="42" fill="#34d399" font-family="Georgia,serif">⬟</text><text x="210" y="364" text-anchor="middle" dominant-baseline="middle" font-size="42" fill="#34d399" font-family="Georgia,serif">⬟</text><path d="M130 464 C172 428 248 428 290 464" fill="none" stroke="#34d399" stroke-width="5" stroke-linecap="round" opacity=".6"/></g>
<rect x="58" y="530" width="304" height="74" rx="17" fill="#050812" opacity=".74" stroke="#d6a24f" stroke-opacity=".30"/>
<text x="210" y="566" text-anchor="middle" fill="#fff7df" font-size="20" font-family="Georgia,serif">Six of Pentacles</text>
<text x="210" y="592" text-anchor="middle" fill="#c9b27a" font-size="9" font-family="Arial" letter-spacing="3">FATECARD ORIGINAL</text>
</svg>