<svg xmlns="http://www.w3.org/2000/svg" width="420" height="660" viewBox="0 0 420 660" role="img" aria-label="King of Swords">
<defs>
<linearGradient id="bg" x1="0" y1="0" x2="1" y2="1"><stop stop-color="#080b18"/><stop offset=".52" stop-color="#211436"/><stop offset="1" stop-color="#050812"/></linearGradient>
<radialGradient id="a" cx="50%" cy="40%" r="64%"><stop stop-color="#c4b5fd" stop-opacity=".22"/><stop offset=".55" stop-color="#e0e7ff" stop-opacity=".12"/><stop offset="1" stop-color="#000" stop-opacity="0"/></radialGradient>
<filter id="glow"><feDropShadow dx="0" dy="0" stdDeviation="5" flood-color="#c4b5fd" flood-opacity=".42"/></filter>
</defs>
<rect width="420" height="660" rx="34" fill="url(#bg)"/>
<rect x="18" y="18" width="384" height="624" rx="30" fill="url(#a)" stroke="#d6a24f" stroke-opacity=".82" stroke-width="2.4"/>
<rect x="36" y="36" width="348" height="588" rx="22" fill="none" stroke="#e0e7ff" stroke-opacity=".28" stroke-width="1.5"/>
<circle cx="276" cy="539" r="2" fill="#fff1b8" opacity="0.26"/>
<circle cx="154" cy="304" r="1" fill="#fff1b8" opacity="0.74"/>
<circle cx="338" cy="539" r="1" fill="#fff1b8" opacity="0.67"/>
<circle cx="317" cy="565" r="1" fill="#fff1b8" opacity="0.43"/>
<circle cx="89" cy="494" r="1.2" fill="#fff1b8" opacity="0.76"/>
<circle cx="167" cy="561" r="1" fill="#fff1b8" opacity="0.30"/>
<circle cx="118" cy="504" r="1.5" fill="#fff1b8" opacity="0.75"/>
<circle cx="259" cy="164" r="1" fill="#fff1b8" opacity="0.34"/>
<circle cx="131" cy="104" r="1" fill="#fff1b8" opacity="0.40"/>
<circle cx="69" cy="150" r="1" fill="#fff1b8" opacity="0.29"/>
<circle cx="227" cy="509" r="2" fill="#fff1b8" opacity="0.75"/>
<circle cx="317" cy="95" r="2" fill="#fff1b8" opacity="0.66"/>
<circle cx="235" cy="306" r="1" fill="#fff1b8" opacity="0.76"/>
<circle cx="175" cy="466" r="2" fill="#fff1b8" opacity="0.60"/>
<circle cx="319" cy="293" r="1" fill="#fff1b8" opacity="0.54"/>
<circle cx="321" cy="86" r="1.5" fill="#fff1b8" opacity="0.33"/>
<circle cx="270" cy="480" r="1.2" fill="#fff1b8" opacity="0.43"/>
<circle cx="335" cy="539" r="1.5" fill="#fff1b8" opacity="0.73"/>
<circle cx="184" cy="214" r="1" fill="#fff1b8" opacity="0.43"/>
<circle cx="103" cy="370" r="2" fill="#fff1b8" opacity="0.67"/>
<circle cx="182" cy="211" r="1.2" fill="#fff1b8" opacity="0.27"/>
<circle cx="140" cy="540" r="1" fill="#fff1b8" opacity="0.77"/>
<circle cx="172" cy="548" r="1" fill="#fff1b8" opacity="0.73"/>
<circle cx="327" cy="64" r="2" fill="#fff1b8" opacity="0.59"/>
<circle cx="161" cy="105" r="1.5" fill="#fff1b8" opacity="0.55"/>
<circle cx="330" cy="575" r="2" fill="#fff1b8" opacity="0.62"/>
<circle cx="161" cy="573" r="1.5" fill="#fff1b8" opacity="0.46"/>
<circle cx="162" cy="469" r="1" fill="#fff1b8" opacity="0.28"/>
<circle cx="110" cy="428" r="1.5" fill="#fff1b8" opacity="0.54"/>
<circle cx="341" cy="286" r="1" fill="#fff1b8" opacity="0.33"/>
<circle cx="43" cy="213" r="1" fill="#fff1b8" opacity="0.39"/>
<circle cx="94" cy="376" r="2" fill="#fff1b8" opacity="0.30"/>
<circle cx="47" cy="87" r="1.2" fill="#fff1b8" opacity="0.30"/>
<circle cx="376" cy="374" r="1.2" fill="#fff1b8" opacity="0.45"/>
<circle cx="227" cy="582" r="1.2" fill="#fff1b8" opacity="0.74"/>
<circle cx="43" cy="171" r="1" fill="#fff1b8" opacity="0.29"/>
<circle cx="154" cy="183" r="1" fill="#fff1b8" opacity="0.73"/>
<circle cx="64" cy="237" r="1.5" fill="#fff1b8" opacity="0.55"/>
<path d="M70 104 C132 68 288 68 350 104 M70 556 C132 592 288 592 350 556" fill="none" stroke="#d6a24f" stroke-opacity=".28" stroke-width="2"/>
<text x="64" y="78" fill="#fff1b8" font-size="22" font-family="Georgia,serif">KING</text>
<text x="356" y="78" text-anchor="end" fill="#fff1b8" font-size="22" font-family="Georgia,serif">KING</text>
<g filter="url(#glow)"><ellipse cx="210" cy="430" rx="96" ry="22" fill="#e0e7ff" opacity=".16"/><path d="M148 400 C164 310 186 250 210 220 C234 250 256 310 272 400 Z" fill="#c4b5fd" opacity=".17" stroke="#c4b5fd" stroke-width="3"/><circle cx="210" cy="214" r="40" fill="#e0e7ff" opacity=".18" stroke="#e0e7ff" stroke-width="3"/><text x="210" y="268" text-anchor="middle" font-size="74" fill="#c4b5fd" font-family="Georgia,serif">♚</text><text x="210" y="356" text-anchor="middle" font-size="56" fill="#e0e7ff" font-family="Georgia,serif">◆</text></g>
<rect x="58" y="530" width="304" height="74" rx="17" fill="#050812" opacity=".74" stroke="#d6a24f" stroke-opacity=".30"/>
<text x="210" y="566" text-anchor="middle" fill="#fff7df" font-size="20" font-family="Georgia,serif">King of Swords</text>
<text x="210" y="592" text-anchor="middle" fill="#c9b27a" font-size="9" font-family="Arial" letter-spacing="3">FATECARD ORIGINAL</text>
</svg>