<svg xmlns="http://www.w3.org/2000/svg" width="420" height="660" viewBox="0 0 420 660" role="img" aria-label="Five of Swords">
<defs>
<linearGradient id="bg" x1="0" y1="0" x2="1" y2="1"><stop stop-color="#080b18"/><stop offset=".52" stop-color="#211436"/><stop offset="1" stop-color="#050812"/></linearGradient>
<radialGradient id="a" cx="50%" cy="40%" r="64%"><stop stop-color="#c4b5fd" stop-opacity=".22"/><stop offset=".55" stop-color="#e0e7ff" stop-opacity=".12"/><stop offset="1" stop-color="#000" stop-opacity="0"/></radialGradient>
<filter id="glow"><feDropShadow dx="0" dy="0" stdDeviation="5" flood-color="#c4b5fd" flood-opacity=".42"/></filter>
</defs>
<rect width="420" height="660" rx="34" fill="url(#bg)"/>
<rect x="18" y="18" width="384" height="624" rx="30" fill="url(#a)" stroke="#d6a24f" stroke-opacity=".82" stroke-width="2.4"/>
<rect x="36" y="36" width="348" height="588" rx="22" fill="none" stroke="#e0e7ff" stroke-opacity=".28" stroke-width="1.5"/>
<circle cx="105" cy="401" r="2" fill="#fff1b8" opacity="0.72"/>
<circle cx="205" cy="202" r="1" fill="#fff1b8" opacity="0.68"/>
<circle cx="75" cy="61" r="2" fill="#fff1b8" opacity="0.61"/>
<circle cx="111" cy="121" r="1.2" fill="#fff1b8" opacity="0.43"/>
<circle cx="310" cy="493" r="1" fill="#fff1b8" opacity="0.74"/>
<circle cx="311" cy="375" r="1.5" fill="#fff1b8" opacity="0.53"/>
<circle cx="197" cy="243" r="1.2" fill="#fff1b8" opacity="0.68"/>
<circle cx="118" cy="119" r="1.5" fill="#fff1b8" opacity="0.74"/>
<circle cx="199" cy="384" r="1.5" fill="#fff1b8" opacity="0.39"/>
<circle cx="371" cy="434" r="1.5" fill="#fff1b8" opacity="0.73"/>
<circle cx="93" cy="452" r="1.5" fill="#fff1b8" opacity="0.66"/>
<circle cx="278" cy="281" r="1" fill="#fff1b8" opacity="0.63"/>
<circle cx="119" cy="550" r="2" fill="#fff1b8" opacity="0.66"/>
<circle cx="293" cy="581" r="1.5" fill="#fff1b8" opacity="0.40"/>
<circle cx="86" cy="287" r="1" fill="#fff1b8" opacity="0.55"/>
<circle cx="176" cy="145" r="1.2" fill="#fff1b8" opacity="0.32"/>
<circle cx="118" cy="151" r="1" fill="#fff1b8" opacity="0.34"/>
<circle cx="172" cy="272" r="1.5" fill="#fff1b8" opacity="0.27"/>
<circle cx="265" cy="575" r="1.2" fill="#fff1b8" opacity="0.62"/>
<circle cx="148" cy="214" r="1" fill="#fff1b8" opacity="0.39"/>
<circle cx="256" cy="566" r="1" fill="#fff1b8" opacity="0.41"/>
<circle cx="211" cy="536" r="2" fill="#fff1b8" opacity="0.73"/>
<circle cx="377" cy="211" r="1" fill="#fff1b8" opacity="0.54"/>
<circle cx="364" cy="274" r="1" fill="#fff1b8" opacity="0.62"/>
<circle cx="264" cy="187" r="1.2" fill="#fff1b8" opacity="0.43"/>
<circle cx="116" cy="460" r="1" fill="#fff1b8" opacity="0.42"/>
<circle cx="251" cy="228" r="2" fill="#fff1b8" opacity="0.33"/>
<circle cx="138" cy="337" r="2" fill="#fff1b8" opacity="0.74"/>
<circle cx="347" cy="589" r="1.5" fill="#fff1b8" opacity="0.71"/>
<circle cx="161" cy="223" r="1.5" fill="#fff1b8" opacity="0.26"/>
<circle cx="180" cy="179" r="1" fill="#fff1b8" opacity="0.49"/>
<circle cx="322" cy="125" r="1.2" fill="#fff1b8" opacity="0.51"/>
<circle cx="261" cy="487" r="1.5" fill="#fff1b8" opacity="0.75"/>
<circle cx="223" cy="319" r="1" fill="#fff1b8" opacity="0.58"/>
<circle cx="226" cy="169" r="2" fill="#fff1b8" opacity="0.51"/>
<circle cx="352" cy="69" r="1.5" fill="#fff1b8" opacity="0.67"/>
<circle cx="372" cy="576" r="1" fill="#fff1b8" opacity="0.69"/>
<circle cx="72" cy="576" r="2" fill="#fff1b8" opacity="0.68"/>
<path d="M70 104 C132 68 288 68 350 104 M70 556 C132 592 288 592 350 556" fill="none" stroke="#d6a24f" stroke-opacity=".28" stroke-width="2"/>
<text x="64" y="78" fill="#fff1b8" font-size="22" font-family="Georgia,serif">V</text>
<text x="356" y="78" text-anchor="end" fill="#fff1b8" font-size="22" font-family="Georgia,serif">V</text>
<g filter="url(#glow)"><circle cx="210" cy="292" r="122" fill="#e0e7ff" opacity=".08"/><circle cx="210" cy="292" r="92" fill="none" stroke="#c4b5fd" stroke-opacity=".36" stroke-width="2"/><text x="210" y="156" text-anchor="middle" dominant-baseline="middle" font-size="42" fill="#c4b5fd" font-family="Georgia,serif">◆</text><text x="154" y="218" text-anchor="middle" dominant-baseline="middle" font-size="42" fill="#c4b5fd" font-family="Georgia,serif">◆</text><text x="266" y="218" text-anchor="middle" dominant-baseline="middle" font-size="42" fill="#c4b5fd" font-family="Georgia,serif">◆</text><text x="154" y="294" text-anchor="middle" dominant-baseline="middle" font-size="42" fill="#c4b5fd" font-family="Georgia,serif">◆</text><text x="266" y="294" text-anchor="middle" dominant-baseline="middle" font-size="42" fill="#c4b5fd" font-family="Georgia,serif">◆</text><path d="M130 464 C172 428 248 428 290 464" fill="none" stroke="#c4b5fd" stroke-width="5" stroke-linecap="round" opacity=".6"/></g>
<rect x="58" y="530" width="304" height="74" rx="17" fill="#050812" opacity=".74" stroke="#d6a24f" stroke-opacity=".30"/>
<text x="210" y="566" text-anchor="middle" fill="#fff7df" font-size="20" font-family="Georgia,serif">Five of Swords</text>
<text x="210" y="592" text-anchor="middle" fill="#c9b27a" font-size="9" font-family="Arial" letter-spacing="3">FATECARD ORIGINAL</text>
</svg>