<svg xmlns="http://www.w3.org/2000/svg" width="420" height="660" viewBox="0 0 420 660" role="img" aria-label="Six of Swords">
<defs>
<linearGradient id="bg" x1="0" y1="0" x2="1" y2="1"><stop stop-color="#080b18"/><stop offset=".52" stop-color="#211436"/><stop offset="1" stop-color="#050812"/></linearGradient>
<radialGradient id="a" cx="50%" cy="40%" r="64%"><stop stop-color="#c4b5fd" stop-opacity=".22"/><stop offset=".55" stop-color="#e0e7ff" stop-opacity=".12"/><stop offset="1" stop-color="#000" stop-opacity="0"/></radialGradient>
<filter id="glow"><feDropShadow dx="0" dy="0" stdDeviation="5" flood-color="#c4b5fd" flood-opacity=".42"/></filter>
</defs>
<rect width="420" height="660" rx="34" fill="url(#bg)"/>
<rect x="18" y="18" width="384" height="624" rx="30" fill="url(#a)" stroke="#d6a24f" stroke-opacity=".82" stroke-width="2.4"/>
<rect x="36" y="36" width="348" height="588" rx="22" fill="none" stroke="#e0e7ff" stroke-opacity=".28" stroke-width="1.5"/>
<circle cx="376" cy="110" r="1.2" fill="#fff1b8" opacity="0.45"/>
<circle cx="75" cy="409" r="1.2" fill="#fff1b8" opacity="0.71"/>
<circle cx="115" cy="365" r="1" fill="#fff1b8" opacity="0.52"/>
<circle cx="192" cy="302" r="1.2" fill="#fff1b8" opacity="0.61"/>
<circle cx="197" cy="526" r="2" fill="#fff1b8" opacity="0.36"/>
<circle cx="349" cy="420" r="2" fill="#fff1b8" opacity="0.44"/>
<circle cx="251" cy="96" r="1.5" fill="#fff1b8" opacity="0.35"/>
<circle cx="146" cy="590" r="1.5" fill="#fff1b8" opacity="0.49"/>
<circle cx="352" cy="362" r="1.5" fill="#fff1b8" opacity="0.57"/>
<circle cx="210" cy="103" r="1.5" fill="#fff1b8" opacity="0.34"/>
<circle cx="73" cy="202" r="1" fill="#fff1b8" opacity="0.31"/>
<circle cx="96" cy="502" r="1.2" fill="#fff1b8" opacity="0.55"/>
<circle cx="189" cy="302" r="2" fill="#fff1b8" opacity="0.37"/>
<circle cx="83" cy="246" r="2" fill="#fff1b8" opacity="0.29"/>
<circle cx="259" cy="98" r="2" fill="#fff1b8" opacity="0.58"/>
<circle cx="161" cy="368" r="1.5" fill="#fff1b8" opacity="0.49"/>
<circle cx="208" cy="458" r="1" fill="#fff1b8" opacity="0.53"/>
<circle cx="323" cy="364" r="1.5" fill="#fff1b8" opacity="0.52"/>
<circle cx="210" cy="509" r="1" fill="#fff1b8" opacity="0.58"/>
<circle cx="101" cy="251" r="1.5" fill="#fff1b8" opacity="0.67"/>
<circle cx="376" cy="400" r="1.5" fill="#fff1b8" opacity="0.59"/>
<circle cx="293" cy="525" r="2" fill="#fff1b8" opacity="0.59"/>
<circle cx="147" cy="512" r="2" fill="#fff1b8" opacity="0.74"/>
<circle cx="259" cy="474" r="2" fill="#fff1b8" opacity="0.52"/>
<circle cx="280" cy="365" r="1.2" fill="#fff1b8" opacity="0.28"/>
<circle cx="63" cy="573" r="1.2" fill="#fff1b8" opacity="0.61"/>
<circle cx="168" cy="232" r="2" fill="#fff1b8" opacity="0.63"/>
<circle cx="331" cy="353" r="1.5" fill="#fff1b8" opacity="0.29"/>
<circle cx="326" cy="364" r="2" fill="#fff1b8" opacity="0.68"/>
<circle cx="222" cy="462" r="1.2" fill="#fff1b8" opacity="0.27"/>
<circle cx="170" cy="421" r="2" fill="#fff1b8" opacity="0.27"/>
<circle cx="176" cy="403" r="1.5" fill="#fff1b8" opacity="0.29"/>
<circle cx="374" cy="490" r="1.5" fill="#fff1b8" opacity="0.54"/>
<circle cx="378" cy="550" r="1.5" fill="#fff1b8" opacity="0.74"/>
<circle cx="246" cy="276" r="1" fill="#fff1b8" opacity="0.50"/>
<circle cx="258" cy="320" r="2" fill="#fff1b8" opacity="0.78"/>
<circle cx="201" cy="174" r="1" fill="#fff1b8" opacity="0.27"/>
<circle cx="303" cy="534" r="1" fill="#fff1b8" opacity="0.32"/>
<path d="M70 104 C132 68 288 68 350 104 M70 556 C132 592 288 592 350 556" fill="none" stroke="#d6a24f" stroke-opacity=".28" stroke-width="2"/>
<text x="64" y="78" fill="#fff1b8" font-size="22" font-family="Georgia,serif">VI</text>
<text x="356" y="78" text-anchor="end" fill="#fff1b8" font-size="22" font-family="Georgia,serif">VI</text>
<g filter="url(#glow)"><circle cx="210" cy="292" r="122" fill="#e0e7ff" opacity=".08"/><circle cx="210" cy="292" r="92" fill="none" stroke="#c4b5fd" stroke-opacity=".36" stroke-width="2"/><text x="210" y="156" text-anchor="middle" dominant-baseline="middle" font-size="42" fill="#c4b5fd" font-family="Georgia,serif">◆</text><text x="154" y="218" text-anchor="middle" dominant-baseline="middle" font-size="42" fill="#c4b5fd" font-family="Georgia,serif">◆</text><text x="266" y="218" text-anchor="middle" dominant-baseline="middle" font-size="42" fill="#c4b5fd" font-family="Georgia,serif">◆</text><text x="154" y="294" text-anchor="middle" dominant-baseline="middle" font-size="42" fill="#c4b5fd" font-family="Georgia,serif">◆</text><text x="266" y="294" text-anchor="middle" dominant-baseline="middle" font-size="42" fill="#c4b5fd" font-family="Georgia,serif">◆</text><text x="210" y="364" text-anchor="middle" dominant-baseline="middle" font-size="42" fill="#c4b5fd" font-family="Georgia,serif">◆</text><path d="M130 464 C172 428 248 428 290 464" fill="none" stroke="#c4b5fd" stroke-width="5" stroke-linecap="round" opacity=".6"/></g>
<rect x="58" y="530" width="304" height="74" rx="17" fill="#050812" opacity=".74" stroke="#d6a24f" stroke-opacity=".30"/>
<text x="210" y="566" text-anchor="middle" fill="#fff7df" font-size="20" font-family="Georgia,serif">Six of Swords</text>
<text x="210" y="592" text-anchor="middle" fill="#c9b27a" font-size="9" font-family="Arial" letter-spacing="3">FATECARD ORIGINAL</text>
</svg>