<svg xmlns="http://www.w3.org/2000/svg" width="420" height="660" viewBox="0 0 420 660" role="img" aria-label="Ace of Cups">
  <defs>
    <linearGradient id="bg" x1="0" y1="0" x2="1" y2="1">
      <stop offset="0%" stop-color="#050816"/>
      <stop offset="45%" stop-color="#17102d"/>
      <stop offset="100%" stop-color="#020617"/>
    </linearGradient>
    <radialGradient id="aura" cx="50%" cy="38%" r="68%">
      <stop offset="0%" stop-color="#facc15" stop-opacity=".18"/>
      <stop offset="52%" stop-color="#a78bfa" stop-opacity=".10"/>
      <stop offset="100%" stop-color="#020617" stop-opacity="0"/>
    </radialGradient>
    <filter id="glow" x="-30%" y="-30%" width="160%" height="160%">
      <feDropShadow dx="0" dy="0" stdDeviation="6" flood-color="#38bdf8" flood-opacity=".42"/>
    </filter>
  </defs>
  <rect width="420" height="660" rx="34" fill="url(#bg)"/>
  <rect x="20" y="20" width="380" height="620" rx="30" fill="url(#aura)" stroke="#facc15" stroke-opacity=".54" stroke-width="2"/>
  <rect x="35" y="35" width="350" height="590" rx="22" fill="none" stroke="#a78bfa" stroke-opacity=".18" stroke-width="1.5"/>
  <circle cx="53" cy="233" r="1.0" fill="#fde68a" opacity="0.29"/>
<circle cx="93" cy="260" r="1.8" fill="#fde68a" opacity="0.54"/>
<circle cx="154" cy="208" r="2.2" fill="#fde68a" opacity="0.64"/>
<circle cx="286" cy="136" r="1.0" fill="#fde68a" opacity="0.59"/>
<circle cx="112" cy="364" r="2.2" fill="#fde68a" opacity="0.76"/>
<circle cx="344" cy="293" r="1.0" fill="#fde68a" opacity="0.78"/>
<circle cx="183" cy="360" r="1.4" fill="#fde68a" opacity="0.31"/>
<circle cx="221" cy="530" r="2.2" fill="#fde68a" opacity="0.78"/>
<circle cx="85" cy="484" r="1.4" fill="#fde68a" opacity="0.40"/>
<circle cx="295" cy="372" r="1.4" fill="#fde68a" opacity="0.58"/>
<circle cx="184" cy="522" r="1.4" fill="#fde68a" opacity="0.37"/>
<circle cx="138" cy="447" r="1.4" fill="#fde68a" opacity="0.75"/>
<circle cx="259" cy="90" r="1.0" fill="#fde68a" opacity="0.66"/>
<circle cx="115" cy="358" r="1.0" fill="#fde68a" opacity="0.53"/>
<circle cx="327" cy="466" r="1.4" fill="#fde68a" opacity="0.72"/>
<circle cx="58" cy="365" r="1.8" fill="#fde68a" opacity="0.57"/>
<circle cx="118" cy="282" r="1.4" fill="#fde68a" opacity="0.51"/>
<circle cx="353" cy="436" r="2.2" fill="#fde68a" opacity="0.51"/>
<circle cx="328" cy="422" r="1.0" fill="#fde68a" opacity="0.72"/>
<circle cx="333" cy="85" r="1.0" fill="#fde68a" opacity="0.81"/>
<circle cx="302" cy="122" r="2.2" fill="#fde68a" opacity="0.48"/>
<circle cx="258" cy="566" r="2.2" fill="#fde68a" opacity="0.41"/>
<circle cx="90" cy="416" r="1.8" fill="#fde68a" opacity="0.65"/>
<circle cx="378" cy="448" r="1.8" fill="#fde68a" opacity="0.40"/>
<circle cx="201" cy="559" r="1.0" fill="#fde68a" opacity="0.71"/>
<circle cx="193" cy="512" r="1.8" fill="#fde68a" opacity="0.61"/>
<circle cx="238" cy="501" r="1.0" fill="#fde68a" opacity="0.70"/>
<circle cx="167" cy="454" r="1.4" fill="#fde68a" opacity="0.39"/>
<circle cx="64" cy="524" r="1.0" fill="#fde68a" opacity="0.37"/>
<circle cx="238" cy="289" r="2.2" fill="#fde68a" opacity="0.70"/>
<circle cx="211" cy="151" r="1.0" fill="#fde68a" opacity="0.70"/>
<circle cx="228" cy="116" r="1.0" fill="#fde68a" opacity="0.28"/>
<circle cx="361" cy="223" r="2.2" fill="#fde68a" opacity="0.74"/>
<circle cx="268" cy="58" r="1.0" fill="#fde68a" opacity="0.42"/>
  
    <path d="M55 118 C120 74 300 74 365 118" fill="none" stroke="#38bdf8" stroke-opacity=".28" stroke-width="2"/>
    <path d="M55 542 C120 586 300 586 365 542" fill="none" stroke="#38bdf8" stroke-opacity=".28" stroke-width="2"/>
    <path d="M74 88 L98 88 M322 88 L346 88 M74 572 L98 572 M322 572 L346 572" stroke="#93c5fd" stroke-opacity=".50" stroke-width="2" stroke-linecap="round"/>
    <circle cx="80" cy="100" r="10" fill="none" stroke="#93c5fd" stroke-opacity=".45"/>
    <circle cx="340" cy="100" r="10" fill="none" stroke="#93c5fd" stroke-opacity=".45"/>
    <circle cx="80" cy="560" r="10" fill="none" stroke="#93c5fd" stroke-opacity=".45"/>
    <circle cx="340" cy="560" r="10" fill="none" stroke="#93c5fd" stroke-opacity=".45"/>
    
  
            <circle cx="210" cy="286" r="132" fill="#38bdf8" opacity=".065"/>
            <circle cx="210" cy="286" r="102" fill="none" stroke="#93c5fd" stroke-opacity=".36" stroke-width="2"/>
            <text x="210" y="164" text-anchor="middle" dominant-baseline="middle" font-size="42" font-family="Georgia, serif" fill="#38bdf8" opacity=".94">●</text>
            <text x="62" y="86" font-size="26" font-family="Georgia, serif" fill="#fff7ed">A</text>
            <text x="358" y="86" text-anchor="end" font-size="26" font-family="Georgia, serif" fill="#fff7ed">A</text>
            
  <rect x="58" y="522" width="304" height="76" rx="18" fill="#020617" opacity=".62" stroke="#facc15" stroke-opacity=".24"/>
  <text x="210" y="558" text-anchor="middle" font-size="20" font-family="Georgia, serif" fill="#fff7ed">Ace of Cups</text>
  <text x="210" y="586" text-anchor="middle" font-size="9" font-family="Arial, sans-serif" letter-spacing="3" fill="#c4b5fd">ORIGINAL SYMBOLIC DECK</text>
</svg>