<svg xmlns="http://www.w3.org/2000/svg" width="420" height="660" viewBox="0 0 420 660" role="img" aria-label="Knight of Pentacles">
  <defs>
    <linearGradient id="bg" x1="0" y1="0" x2="1" y2="1">
      <stop offset="0%" stop-color="#050816"/>
      <stop offset="45%" stop-color="#17102d"/>
      <stop offset="100%" stop-color="#020617"/>
    </linearGradient>
    <radialGradient id="aura" cx="50%" cy="38%" r="68%">
      <stop offset="0%" stop-color="#facc15" stop-opacity=".18"/>
      <stop offset="52%" stop-color="#a78bfa" stop-opacity=".10"/>
      <stop offset="100%" stop-color="#020617" stop-opacity="0"/>
    </radialGradient>
    <filter id="glow" x="-30%" y="-30%" width="160%" height="160%">
      <feDropShadow dx="0" dy="0" stdDeviation="6" flood-color="#34d399" flood-opacity=".42"/>
    </filter>
  </defs>
  <rect width="420" height="660" rx="34" fill="url(#bg)"/>
  <rect x="20" y="20" width="380" height="620" rx="30" fill="url(#aura)" stroke="#facc15" stroke-opacity=".54" stroke-width="2"/>
  <rect x="35" y="35" width="350" height="590" rx="22" fill="none" stroke="#a78bfa" stroke-opacity=".18" stroke-width="1.5"/>
  <circle cx="281" cy="314" r="1.0" fill="#fde68a" opacity="0.44"/>
<circle cx="376" cy="208" r="1.0" fill="#fde68a" opacity="0.78"/>
<circle cx="62" cy="485" r="2.2" fill="#fde68a" opacity="0.43"/>
<circle cx="132" cy="440" r="1.0" fill="#fde68a" opacity="0.42"/>
<circle cx="253" cy="282" r="1.8" fill="#fde68a" opacity="0.32"/>
<circle cx="193" cy="247" r="1.0" fill="#fde68a" opacity="0.61"/>
<circle cx="192" cy="287" r="1.4" fill="#fde68a" opacity="0.47"/>
<circle cx="139" cy="384" r="1.8" fill="#fde68a" opacity="0.37"/>
<circle cx="241" cy="351" r="1.8" fill="#fde68a" opacity="0.33"/>
<circle cx="96" cy="284" r="2.2" fill="#fde68a" opacity="0.39"/>
<circle cx="318" cy="382" r="1.4" fill="#fde68a" opacity="0.77"/>
<circle cx="164" cy="430" r="2.2" fill="#fde68a" opacity="0.39"/>
<circle cx="223" cy="343" r="1.0" fill="#fde68a" opacity="0.81"/>
<circle cx="62" cy="78" r="1.4" fill="#fde68a" opacity="0.47"/>
<circle cx="99" cy="171" r="1.4" fill="#fde68a" opacity="0.66"/>
<circle cx="171" cy="502" r="1.0" fill="#fde68a" opacity="0.39"/>
<circle cx="307" cy="401" r="1.8" fill="#fde68a" opacity="0.62"/>
<circle cx="193" cy="216" r="1.0" fill="#fde68a" opacity="0.42"/>
<circle cx="43" cy="431" r="1.8" fill="#fde68a" opacity="0.35"/>
<circle cx="285" cy="472" r="1.4" fill="#fde68a" opacity="0.72"/>
<circle cx="60" cy="118" r="1.8" fill="#fde68a" opacity="0.59"/>
<circle cx="44" cy="307" r="1.8" fill="#fde68a" opacity="0.74"/>
<circle cx="83" cy="515" r="1.0" fill="#fde68a" opacity="0.64"/>
<circle cx="55" cy="251" r="1.4" fill="#fde68a" opacity="0.76"/>
<circle cx="50" cy="296" r="2.2" fill="#fde68a" opacity="0.71"/>
<circle cx="213" cy="79" r="1.0" fill="#fde68a" opacity="0.42"/>
<circle cx="285" cy="372" r="1.4" fill="#fde68a" opacity="0.80"/>
<circle cx="222" cy="515" r="1.0" fill="#fde68a" opacity="0.64"/>
<circle cx="274" cy="259" r="1.4" fill="#fde68a" opacity="0.67"/>
<circle cx="186" cy="406" r="1.0" fill="#fde68a" opacity="0.70"/>
<circle cx="255" cy="527" r="1.8" fill="#fde68a" opacity="0.42"/>
<circle cx="235" cy="105" r="1.0" fill="#fde68a" opacity="0.80"/>
<circle cx="305" cy="397" r="1.4" fill="#fde68a" opacity="0.81"/>
<circle cx="284" cy="409" r="1.0" fill="#fde68a" opacity="0.80"/>
  
    <path d="M55 118 C120 74 300 74 365 118" fill="none" stroke="#34d399" stroke-opacity=".28" stroke-width="2"/>
    <path d="M55 542 C120 586 300 586 365 542" fill="none" stroke="#34d399" stroke-opacity=".28" stroke-width="2"/>
    <path d="M74 88 L98 88 M322 88 L346 88 M74 572 L98 572 M322 572 L346 572" stroke="#fde68a" stroke-opacity=".50" stroke-width="2" stroke-linecap="round"/>
    <circle cx="80" cy="100" r="10" fill="none" stroke="#fde68a" stroke-opacity=".45"/>
    <circle cx="340" cy="100" r="10" fill="none" stroke="#fde68a" stroke-opacity=".45"/>
    <circle cx="80" cy="560" r="10" fill="none" stroke="#fde68a" stroke-opacity=".45"/>
    <circle cx="340" cy="560" r="10" fill="none" stroke="#fde68a" stroke-opacity=".45"/>
    
  
            <circle cx="210" cy="272" r="122" fill="#34d399" opacity=".08"/>
            <path d="M146 394 L178 246 L210 382 L242 246 L274 394 Z" fill="#34d399" opacity=".12" stroke="#34d399" stroke-width="3" stroke-opacity=".68"/>
            <circle cx="210" cy="250" r="54" fill="#fde68a" opacity=".11" stroke="#fde68a" stroke-width="3" stroke-opacity=".55"/>
            <text x="210" y="264" text-anchor="middle" font-size="64" font-family="Georgia, serif" fill="#34d399">♞</text>
            <text x="210" y="350" text-anchor="middle" font-size="54" font-family="Georgia, serif" fill="#fde68a">⬟</text>
            <text x="62" y="86" font-size="20" font-family="Georgia, serif" fill="#fff7ed">KNIGHT</text>
            <text x="358" y="86" text-anchor="end" font-size="20" font-family="Georgia, serif" fill="#fff7ed">KNIGHT</text>
            
  <rect x="58" y="522" width="304" height="76" rx="18" fill="#020617" opacity=".62" stroke="#facc15" stroke-opacity=".24"/>
  <text x="210" y="558" text-anchor="middle" font-size="20" font-family="Georgia, serif" fill="#fff7ed">Knight of Pentacles</text>
  <text x="210" y="586" text-anchor="middle" font-size="9" font-family="Arial, sans-serif" letter-spacing="3" fill="#c4b5fd">ORIGINAL SYMBOLIC DECK</text>
</svg>