<svg xmlns="http://www.w3.org/2000/svg" width="420" height="660" viewBox="0 0 420 660" role="img" aria-label="Three of Swords">
  <defs>
    <linearGradient id="bg" x1="0" y1="0" x2="1" y2="1">
      <stop offset="0%" stop-color="#050816"/>
      <stop offset="45%" stop-color="#17102d"/>
      <stop offset="100%" stop-color="#020617"/>
    </linearGradient>
    <radialGradient id="aura" cx="50%" cy="38%" r="68%">
      <stop offset="0%" stop-color="#facc15" stop-opacity=".18"/>
      <stop offset="52%" stop-color="#a78bfa" stop-opacity=".10"/>
      <stop offset="100%" stop-color="#020617" stop-opacity="0"/>
    </radialGradient>
    <filter id="glow" x="-30%" y="-30%" width="160%" height="160%">
      <feDropShadow dx="0" dy="0" stdDeviation="6" flood-color="#c4b5fd" flood-opacity=".42"/>
    </filter>
  </defs>
  <rect width="420" height="660" rx="34" fill="url(#bg)"/>
  <rect x="20" y="20" width="380" height="620" rx="30" fill="url(#aura)" stroke="#facc15" stroke-opacity=".54" stroke-width="2"/>
  <rect x="35" y="35" width="350" height="590" rx="22" fill="none" stroke="#a78bfa" stroke-opacity=".18" stroke-width="1.5"/>
  <circle cx="277" cy="233" r="1.8" fill="#fde68a" opacity="0.53"/>
<circle cx="106" cy="529" r="1.4" fill="#fde68a" opacity="0.34"/>
<circle cx="123" cy="93" r="1.0" fill="#fde68a" opacity="0.49"/>
<circle cx="268" cy="559" r="1.4" fill="#fde68a" opacity="0.34"/>
<circle cx="252" cy="65" r="1.4" fill="#fde68a" opacity="0.71"/>
<circle cx="327" cy="80" r="1.0" fill="#fde68a" opacity="0.81"/>
<circle cx="100" cy="194" r="2.2" fill="#fde68a" opacity="0.61"/>
<circle cx="334" cy="152" r="2.2" fill="#fde68a" opacity="0.77"/>
<circle cx="152" cy="92" r="2.2" fill="#fde68a" opacity="0.35"/>
<circle cx="294" cy="511" r="1.8" fill="#fde68a" opacity="0.73"/>
<circle cx="66" cy="298" r="1.0" fill="#fde68a" opacity="0.55"/>
<circle cx="113" cy="443" r="1.0" fill="#fde68a" opacity="0.37"/>
<circle cx="168" cy="380" r="1.0" fill="#fde68a" opacity="0.39"/>
<circle cx="321" cy="316" r="1.0" fill="#fde68a" opacity="0.72"/>
<circle cx="118" cy="437" r="1.0" fill="#fde68a" opacity="0.36"/>
<circle cx="309" cy="483" r="1.4" fill="#fde68a" opacity="0.29"/>
<circle cx="282" cy="291" r="1.0" fill="#fde68a" opacity="0.78"/>
<circle cx="265" cy="139" r="1.4" fill="#fde68a" opacity="0.31"/>
<circle cx="218" cy="370" r="1.8" fill="#fde68a" opacity="0.44"/>
<circle cx="332" cy="397" r="1.0" fill="#fde68a" opacity="0.72"/>
<circle cx="123" cy="195" r="1.4" fill="#fde68a" opacity="0.37"/>
<circle cx="55" cy="201" r="1.8" fill="#fde68a" opacity="0.48"/>
<circle cx="218" cy="429" r="1.0" fill="#fde68a" opacity="0.77"/>
<circle cx="246" cy="462" r="1.0" fill="#fde68a" opacity="0.64"/>
<circle cx="276" cy="116" r="1.0" fill="#fde68a" opacity="0.73"/>
<circle cx="283" cy="495" r="2.2" fill="#fde68a" opacity="0.76"/>
<circle cx="130" cy="356" r="1.0" fill="#fde68a" opacity="0.29"/>
<circle cx="231" cy="111" r="1.4" fill="#fde68a" opacity="0.66"/>
<circle cx="329" cy="548" r="1.8" fill="#fde68a" opacity="0.33"/>
<circle cx="158" cy="418" r="1.8" fill="#fde68a" opacity="0.80"/>
<circle cx="215" cy="70" r="1.0" fill="#fde68a" opacity="0.71"/>
<circle cx="209" cy="453" r="1.0" fill="#fde68a" opacity="0.77"/>
<circle cx="251" cy="110" r="1.8" fill="#fde68a" opacity="0.30"/>
<circle cx="88" cy="64" r="1.0" fill="#fde68a" opacity="0.70"/>
  
    <path d="M55 118 C120 74 300 74 365 118" fill="none" stroke="#c4b5fd" stroke-opacity=".28" stroke-width="2"/>
    <path d="M55 542 C120 586 300 586 365 542" fill="none" stroke="#c4b5fd" stroke-opacity=".28" stroke-width="2"/>
    <path d="M74 88 L98 88 M322 88 L346 88 M74 572 L98 572 M322 572 L346 572" stroke="#e0e7ff" stroke-opacity=".50" stroke-width="2" stroke-linecap="round"/>
    <circle cx="80" cy="100" r="10" fill="none" stroke="#e0e7ff" stroke-opacity=".45"/>
    <circle cx="340" cy="100" r="10" fill="none" stroke="#e0e7ff" stroke-opacity=".45"/>
    <circle cx="80" cy="560" r="10" fill="none" stroke="#e0e7ff" stroke-opacity=".45"/>
    <circle cx="340" cy="560" r="10" fill="none" stroke="#e0e7ff" stroke-opacity=".45"/>
    
  
            <circle cx="210" cy="286" r="132" fill="#c4b5fd" opacity=".065"/>
            <circle cx="210" cy="286" r="102" fill="none" stroke="#e0e7ff" stroke-opacity=".36" stroke-width="2"/>
            <text x="210" y="164" text-anchor="middle" dominant-baseline="middle" font-size="42" font-family="Georgia, serif" fill="#c4b5fd" opacity=".94">◆</text><text x="154" y="220" text-anchor="middle" dominant-baseline="middle" font-size="42" font-family="Georgia, serif" fill="#c4b5fd" opacity=".94">◆</text><text x="266" y="220" text-anchor="middle" dominant-baseline="middle" font-size="42" font-family="Georgia, serif" fill="#c4b5fd" opacity=".94">◆</text>
            <text x="62" y="86" font-size="26" font-family="Georgia, serif" fill="#fff7ed">III</text>
            <text x="358" y="86" text-anchor="end" font-size="26" font-family="Georgia, serif" fill="#fff7ed">III</text>
            
  <rect x="58" y="522" width="304" height="76" rx="18" fill="#020617" opacity=".62" stroke="#facc15" stroke-opacity=".24"/>
  <text x="210" y="558" text-anchor="middle" font-size="20" font-family="Georgia, serif" fill="#fff7ed">Three of Swords</text>
  <text x="210" y="586" text-anchor="middle" font-size="9" font-family="Arial, sans-serif" letter-spacing="3" fill="#c4b5fd">ORIGINAL SYMBOLIC DECK</text>
</svg>