<svg xmlns="http://www.w3.org/2000/svg" width="420" height="660" viewBox="0 0 420 660" role="img" aria-label="Nine of Cups">
  <defs>
    <linearGradient id="bg" x1="0" y1="0" x2="1" y2="1">
      <stop offset="0%" stop-color="#050816"/>
      <stop offset="45%" stop-color="#17102d"/>
      <stop offset="100%" stop-color="#020617"/>
    </linearGradient>
    <radialGradient id="aura" cx="50%" cy="38%" r="68%">
      <stop offset="0%" stop-color="#facc15" stop-opacity=".18"/>
      <stop offset="52%" stop-color="#a78bfa" stop-opacity=".10"/>
      <stop offset="100%" stop-color="#020617" stop-opacity="0"/>
    </radialGradient>
    <filter id="glow" x="-30%" y="-30%" width="160%" height="160%">
      <feDropShadow dx="0" dy="0" stdDeviation="6" flood-color="#38bdf8" flood-opacity=".42"/>
    </filter>
  </defs>
  <rect width="420" height="660" rx="34" fill="url(#bg)"/>
  <rect x="20" y="20" width="380" height="620" rx="30" fill="url(#aura)" stroke="#facc15" stroke-opacity=".54" stroke-width="2"/>
  <rect x="35" y="35" width="350" height="590" rx="22" fill="none" stroke="#a78bfa" stroke-opacity=".18" stroke-width="1.5"/>
  <circle cx="176" cy="526" r="2.2" fill="#fde68a" opacity="0.39"/>
<circle cx="193" cy="196" r="1.4" fill="#fde68a" opacity="0.53"/>
<circle cx="257" cy="184" r="1.8" fill="#fde68a" opacity="0.67"/>
<circle cx="373" cy="414" r="2.2" fill="#fde68a" opacity="0.66"/>
<circle cx="105" cy="260" r="2.2" fill="#fde68a" opacity="0.54"/>
<circle cx="203" cy="196" r="1.0" fill="#fde68a" opacity="0.71"/>
<circle cx="367" cy="299" r="2.2" fill="#fde68a" opacity="0.77"/>
<circle cx="264" cy="340" r="1.8" fill="#fde68a" opacity="0.44"/>
<circle cx="218" cy="492" r="1.4" fill="#fde68a" opacity="0.55"/>
<circle cx="159" cy="480" r="1.4" fill="#fde68a" opacity="0.80"/>
<circle cx="88" cy="110" r="2.2" fill="#fde68a" opacity="0.31"/>
<circle cx="216" cy="405" r="1.0" fill="#fde68a" opacity="0.37"/>
<circle cx="357" cy="189" r="2.2" fill="#fde68a" opacity="0.49"/>
<circle cx="141" cy="281" r="1.8" fill="#fde68a" opacity="0.38"/>
<circle cx="52" cy="512" r="1.0" fill="#fde68a" opacity="0.43"/>
<circle cx="88" cy="208" r="1.4" fill="#fde68a" opacity="0.42"/>
<circle cx="162" cy="438" r="1.8" fill="#fde68a" opacity="0.72"/>
<circle cx="193" cy="241" r="2.2" fill="#fde68a" opacity="0.70"/>
<circle cx="287" cy="189" r="1.8" fill="#fde68a" opacity="0.71"/>
<circle cx="250" cy="272" r="1.4" fill="#fde68a" opacity="0.76"/>
<circle cx="101" cy="477" r="1.4" fill="#fde68a" opacity="0.80"/>
<circle cx="132" cy="218" r="1.4" fill="#fde68a" opacity="0.84"/>
<circle cx="260" cy="338" r="1.0" fill="#fde68a" opacity="0.74"/>
<circle cx="185" cy="478" r="1.0" fill="#fde68a" opacity="0.71"/>
<circle cx="367" cy="337" r="2.2" fill="#fde68a" opacity="0.57"/>
<circle cx="184" cy="89" r="1.8" fill="#fde68a" opacity="0.79"/>
<circle cx="247" cy="505" r="1.0" fill="#fde68a" opacity="0.31"/>
<circle cx="360" cy="337" r="2.2" fill="#fde68a" opacity="0.48"/>
<circle cx="327" cy="70" r="1.0" fill="#fde68a" opacity="0.44"/>
<circle cx="177" cy="410" r="1.0" fill="#fde68a" opacity="0.53"/>
<circle cx="194" cy="331" r="2.2" fill="#fde68a" opacity="0.69"/>
<circle cx="233" cy="196" r="1.4" fill="#fde68a" opacity="0.54"/>
<circle cx="340" cy="99" r="2.2" fill="#fde68a" opacity="0.36"/>
<circle cx="55" cy="216" r="1.0" fill="#fde68a" opacity="0.65"/>
  
    <path d="M55 118 C120 74 300 74 365 118" fill="none" stroke="#38bdf8" stroke-opacity=".28" stroke-width="2"/>
    <path d="M55 542 C120 586 300 586 365 542" fill="none" stroke="#38bdf8" stroke-opacity=".28" stroke-width="2"/>
    <path d="M74 88 L98 88 M322 88 L346 88 M74 572 L98 572 M322 572 L346 572" stroke="#93c5fd" stroke-opacity=".50" stroke-width="2" stroke-linecap="round"/>
    <circle cx="80" cy="100" r="10" fill="none" stroke="#93c5fd" stroke-opacity=".45"/>
    <circle cx="340" cy="100" r="10" fill="none" stroke="#93c5fd" stroke-opacity=".45"/>
    <circle cx="80" cy="560" r="10" fill="none" stroke="#93c5fd" stroke-opacity=".45"/>
    <circle cx="340" cy="560" r="10" fill="none" stroke="#93c5fd" stroke-opacity=".45"/>
    
  
            <circle cx="210" cy="286" r="132" fill="#38bdf8" opacity=".065"/>
            <circle cx="210" cy="286" r="102" fill="none" stroke="#93c5fd" stroke-opacity=".36" stroke-width="2"/>
            <text x="210" y="164" text-anchor="middle" dominant-baseline="middle" font-size="42" font-family="Georgia, serif" fill="#38bdf8" opacity=".94">●</text><text x="154" y="220" text-anchor="middle" dominant-baseline="middle" font-size="42" font-family="Georgia, serif" fill="#38bdf8" opacity=".94">●</text><text x="266" y="220" text-anchor="middle" dominant-baseline="middle" font-size="42" font-family="Georgia, serif" fill="#38bdf8" opacity=".94">●</text><text x="154" y="302" text-anchor="middle" dominant-baseline="middle" font-size="42" font-family="Georgia, serif" fill="#38bdf8" opacity=".94">●</text><text x="266" y="302" text-anchor="middle" dominant-baseline="middle" font-size="42" font-family="Georgia, serif" fill="#38bdf8" opacity=".94">●</text><text x="210" y="360" text-anchor="middle" dominant-baseline="middle" font-size="42" font-family="Georgia, serif" fill="#38bdf8" opacity=".94">●</text><text x="210" y="250" text-anchor="middle" dominant-baseline="middle" font-size="50" font-family="Georgia, serif" fill="#38bdf8" opacity=".94">●</text><text x="154" y="384" text-anchor="middle" dominant-baseline="middle" font-size="42" font-family="Georgia, serif" fill="#38bdf8" opacity=".94">●</text><text x="266" y="384" text-anchor="middle" dominant-baseline="middle" font-size="42" font-family="Georgia, serif" fill="#38bdf8" opacity=".94">●</text>
            <text x="62" y="86" font-size="26" font-family="Georgia, serif" fill="#fff7ed">IX</text>
            <text x="358" y="86" text-anchor="end" font-size="26" font-family="Georgia, serif" fill="#fff7ed">IX</text>
            
  <rect x="58" y="522" width="304" height="76" rx="18" fill="#020617" opacity=".62" stroke="#facc15" stroke-opacity=".24"/>
  <text x="210" y="558" text-anchor="middle" font-size="20" font-family="Georgia, serif" fill="#fff7ed">Nine of Cups</text>
  <text x="210" y="586" text-anchor="middle" font-size="9" font-family="Arial, sans-serif" letter-spacing="3" fill="#c4b5fd">ORIGINAL SYMBOLIC DECK</text>
</svg>