<svg xmlns="http://www.w3.org/2000/svg" width="420" height="660" viewBox="0 0 420 660" role="img" aria-label="Ten of Swords">
  <defs>
    <linearGradient id="bg" x1="0" y1="0" x2="1" y2="1">
      <stop offset="0%" stop-color="#050816"/>
      <stop offset="45%" stop-color="#17102d"/>
      <stop offset="100%" stop-color="#020617"/>
    </linearGradient>
    <radialGradient id="aura" cx="50%" cy="38%" r="68%">
      <stop offset="0%" stop-color="#facc15" stop-opacity=".18"/>
      <stop offset="52%" stop-color="#a78bfa" stop-opacity=".10"/>
      <stop offset="100%" stop-color="#020617" stop-opacity="0"/>
    </radialGradient>
    <filter id="glow" x="-30%" y="-30%" width="160%" height="160%">
      <feDropShadow dx="0" dy="0" stdDeviation="6" flood-color="#c4b5fd" flood-opacity=".42"/>
    </filter>
  </defs>
  <rect width="420" height="660" rx="34" fill="url(#bg)"/>
  <rect x="20" y="20" width="380" height="620" rx="30" fill="url(#aura)" stroke="#facc15" stroke-opacity=".54" stroke-width="2"/>
  <rect x="35" y="35" width="350" height="590" rx="22" fill="none" stroke="#a78bfa" stroke-opacity=".18" stroke-width="1.5"/>
  <circle cx="323" cy="307" r="1.0" fill="#fde68a" opacity="0.71"/>
<circle cx="255" cy="348" r="1.0" fill="#fde68a" opacity="0.80"/>
<circle cx="290" cy="153" r="1.0" fill="#fde68a" opacity="0.59"/>
<circle cx="75" cy="587" r="1.0" fill="#fde68a" opacity="0.33"/>
<circle cx="142" cy="454" r="2.2" fill="#fde68a" opacity="0.54"/>
<circle cx="190" cy="201" r="1.4" fill="#fde68a" opacity="0.36"/>
<circle cx="217" cy="55" r="1.0" fill="#fde68a" opacity="0.38"/>
<circle cx="277" cy="263" r="2.2" fill="#fde68a" opacity="0.56"/>
<circle cx="148" cy="504" r="1.8" fill="#fde68a" opacity="0.30"/>
<circle cx="75" cy="537" r="1.4" fill="#fde68a" opacity="0.43"/>
<circle cx="315" cy="254" r="2.2" fill="#fde68a" opacity="0.57"/>
<circle cx="333" cy="336" r="1.4" fill="#fde68a" opacity="0.61"/>
<circle cx="216" cy="68" r="1.8" fill="#fde68a" opacity="0.59"/>
<circle cx="247" cy="133" r="1.4" fill="#fde68a" opacity="0.81"/>
<circle cx="172" cy="116" r="1.0" fill="#fde68a" opacity="0.80"/>
<circle cx="149" cy="99" r="1.8" fill="#fde68a" opacity="0.73"/>
<circle cx="312" cy="91" r="1.0" fill="#fde68a" opacity="0.67"/>
<circle cx="341" cy="348" r="1.4" fill="#fde68a" opacity="0.57"/>
<circle cx="140" cy="484" r="1.0" fill="#fde68a" opacity="0.67"/>
<circle cx="92" cy="581" r="1.0" fill="#fde68a" opacity="0.36"/>
<circle cx="295" cy="487" r="2.2" fill="#fde68a" opacity="0.58"/>
<circle cx="297" cy="174" r="1.8" fill="#fde68a" opacity="0.69"/>
<circle cx="83" cy="166" r="1.4" fill="#fde68a" opacity="0.51"/>
<circle cx="65" cy="350" r="1.8" fill="#fde68a" opacity="0.70"/>
<circle cx="158" cy="291" r="1.4" fill="#fde68a" opacity="0.36"/>
<circle cx="135" cy="120" r="2.2" fill="#fde68a" opacity="0.55"/>
<circle cx="134" cy="83" r="2.2" fill="#fde68a" opacity="0.69"/>
<circle cx="369" cy="522" r="1.0" fill="#fde68a" opacity="0.71"/>
<circle cx="136" cy="545" r="1.0" fill="#fde68a" opacity="0.49"/>
<circle cx="326" cy="166" r="1.8" fill="#fde68a" opacity="0.39"/>
<circle cx="55" cy="188" r="1.8" fill="#fde68a" opacity="0.56"/>
<circle cx="309" cy="380" r="1.4" fill="#fde68a" opacity="0.47"/>
<circle cx="292" cy="290" r="1.0" fill="#fde68a" opacity="0.44"/>
<circle cx="249" cy="362" r="2.2" fill="#fde68a" opacity="0.40"/>
  
    <path d="M55 118 C120 74 300 74 365 118" fill="none" stroke="#c4b5fd" stroke-opacity=".28" stroke-width="2"/>
    <path d="M55 542 C120 586 300 586 365 542" fill="none" stroke="#c4b5fd" stroke-opacity=".28" stroke-width="2"/>
    <path d="M74 88 L98 88 M322 88 L346 88 M74 572 L98 572 M322 572 L346 572" stroke="#e0e7ff" stroke-opacity=".50" stroke-width="2" stroke-linecap="round"/>
    <circle cx="80" cy="100" r="10" fill="none" stroke="#e0e7ff" stroke-opacity=".45"/>
    <circle cx="340" cy="100" r="10" fill="none" stroke="#e0e7ff" stroke-opacity=".45"/>
    <circle cx="80" cy="560" r="10" fill="none" stroke="#e0e7ff" stroke-opacity=".45"/>
    <circle cx="340" cy="560" r="10" fill="none" stroke="#e0e7ff" stroke-opacity=".45"/>
    
  
            <circle cx="210" cy="286" r="132" fill="#c4b5fd" opacity=".065"/>
            <circle cx="210" cy="286" r="102" fill="none" stroke="#e0e7ff" stroke-opacity=".36" stroke-width="2"/>
            <text x="210" y="164" text-anchor="middle" dominant-baseline="middle" font-size="42" font-family="Georgia, serif" fill="#c4b5fd" opacity=".94">◆</text><text x="154" y="220" text-anchor="middle" dominant-baseline="middle" font-size="42" font-family="Georgia, serif" fill="#c4b5fd" opacity=".94">◆</text><text x="266" y="220" text-anchor="middle" dominant-baseline="middle" font-size="42" font-family="Georgia, serif" fill="#c4b5fd" opacity=".94">◆</text><text x="154" y="302" text-anchor="middle" dominant-baseline="middle" font-size="42" font-family="Georgia, serif" fill="#c4b5fd" opacity=".94">◆</text><text x="266" y="302" text-anchor="middle" dominant-baseline="middle" font-size="42" font-family="Georgia, serif" fill="#c4b5fd" opacity=".94">◆</text><text x="210" y="360" text-anchor="middle" dominant-baseline="middle" font-size="42" font-family="Georgia, serif" fill="#c4b5fd" opacity=".94">◆</text><text x="210" y="250" text-anchor="middle" dominant-baseline="middle" font-size="50" font-family="Georgia, serif" fill="#c4b5fd" opacity=".94">◆</text><text x="154" y="384" text-anchor="middle" dominant-baseline="middle" font-size="42" font-family="Georgia, serif" fill="#c4b5fd" opacity=".94">◆</text><text x="266" y="384" text-anchor="middle" dominant-baseline="middle" font-size="42" font-family="Georgia, serif" fill="#c4b5fd" opacity=".94">◆</text><text x="210" y="442" text-anchor="middle" dominant-baseline="middle" font-size="42" font-family="Georgia, serif" fill="#c4b5fd" opacity=".94">◆</text>
            <text x="62" y="86" font-size="26" font-family="Georgia, serif" fill="#fff7ed">X</text>
            <text x="358" y="86" text-anchor="end" font-size="26" font-family="Georgia, serif" fill="#fff7ed">X</text>
            
  <rect x="58" y="522" width="304" height="76" rx="18" fill="#020617" opacity=".62" stroke="#facc15" stroke-opacity=".24"/>
  <text x="210" y="558" text-anchor="middle" font-size="20" font-family="Georgia, serif" fill="#fff7ed">Ten of Swords</text>
  <text x="210" y="586" text-anchor="middle" font-size="9" font-family="Arial, sans-serif" letter-spacing="3" fill="#c4b5fd">ORIGINAL SYMBOLIC DECK</text>
</svg>