<svg xmlns="http://www.w3.org/2000/svg" width="420" height="660" viewBox="0 0 420 660" role="img" aria-label="Eight of Pentacles">
  <defs>
    <linearGradient id="bg" x1="0" y1="0" x2="1" y2="1">
      <stop offset="0%" stop-color="#050816"/>
      <stop offset="45%" stop-color="#17102d"/>
      <stop offset="100%" stop-color="#020617"/>
    </linearGradient>
    <radialGradient id="aura" cx="50%" cy="38%" r="68%">
      <stop offset="0%" stop-color="#facc15" stop-opacity=".18"/>
      <stop offset="52%" stop-color="#a78bfa" stop-opacity=".10"/>
      <stop offset="100%" stop-color="#020617" stop-opacity="0"/>
    </radialGradient>
    <filter id="glow" x="-30%" y="-30%" width="160%" height="160%">
      <feDropShadow dx="0" dy="0" stdDeviation="6" flood-color="#34d399" flood-opacity=".42"/>
    </filter>
  </defs>
  <rect width="420" height="660" rx="34" fill="url(#bg)"/>
  <rect x="20" y="20" width="380" height="620" rx="30" fill="url(#aura)" stroke="#facc15" stroke-opacity=".54" stroke-width="2"/>
  <rect x="35" y="35" width="350" height="590" rx="22" fill="none" stroke="#a78bfa" stroke-opacity=".18" stroke-width="1.5"/>
  <circle cx="365" cy="431" r="1.0" fill="#fde68a" opacity="0.28"/>
<circle cx="298" cy="183" r="2.2" fill="#fde68a" opacity="0.55"/>
<circle cx="313" cy="485" r="1.8" fill="#fde68a" opacity="0.76"/>
<circle cx="197" cy="436" r="1.4" fill="#fde68a" opacity="0.34"/>
<circle cx="120" cy="151" r="1.0" fill="#fde68a" opacity="0.45"/>
<circle cx="362" cy="273" r="1.0" fill="#fde68a" opacity="0.71"/>
<circle cx="259" cy="204" r="1.4" fill="#fde68a" opacity="0.40"/>
<circle cx="219" cy="476" r="2.2" fill="#fde68a" opacity="0.68"/>
<circle cx="382" cy="508" r="1.8" fill="#fde68a" opacity="0.78"/>
<circle cx="219" cy="521" r="1.8" fill="#fde68a" opacity="0.62"/>
<circle cx="138" cy="265" r="1.0" fill="#fde68a" opacity="0.77"/>
<circle cx="372" cy="513" r="1.4" fill="#fde68a" opacity="0.70"/>
<circle cx="151" cy="303" r="2.2" fill="#fde68a" opacity="0.31"/>
<circle cx="157" cy="324" r="1.8" fill="#fde68a" opacity="0.34"/>
<circle cx="183" cy="293" r="1.0" fill="#fde68a" opacity="0.53"/>
<circle cx="112" cy="135" r="1.0" fill="#fde68a" opacity="0.38"/>
<circle cx="341" cy="452" r="1.8" fill="#fde68a" opacity="0.48"/>
<circle cx="205" cy="429" r="1.4" fill="#fde68a" opacity="0.71"/>
<circle cx="76" cy="287" r="2.2" fill="#fde68a" opacity="0.71"/>
<circle cx="289" cy="536" r="1.0" fill="#fde68a" opacity="0.52"/>
<circle cx="305" cy="545" r="1.4" fill="#fde68a" opacity="0.56"/>
<circle cx="318" cy="296" r="1.4" fill="#fde68a" opacity="0.73"/>
<circle cx="294" cy="376" r="1.4" fill="#fde68a" opacity="0.55"/>
<circle cx="86" cy="491" r="2.2" fill="#fde68a" opacity="0.56"/>
<circle cx="182" cy="307" r="1.0" fill="#fde68a" opacity="0.33"/>
<circle cx="332" cy="136" r="1.0" fill="#fde68a" opacity="0.75"/>
<circle cx="356" cy="382" r="1.4" fill="#fde68a" opacity="0.30"/>
<circle cx="120" cy="536" r="2.2" fill="#fde68a" opacity="0.49"/>
<circle cx="329" cy="225" r="1.4" fill="#fde68a" opacity="0.34"/>
<circle cx="267" cy="143" r="1.4" fill="#fde68a" opacity="0.65"/>
<circle cx="98" cy="395" r="1.0" fill="#fde68a" opacity="0.59"/>
<circle cx="362" cy="459" r="1.8" fill="#fde68a" opacity="0.74"/>
<circle cx="324" cy="171" r="1.4" fill="#fde68a" opacity="0.53"/>
<circle cx="221" cy="164" r="1.0" fill="#fde68a" opacity="0.42"/>
  
    <path d="M55 118 C120 74 300 74 365 118" fill="none" stroke="#34d399" stroke-opacity=".28" stroke-width="2"/>
    <path d="M55 542 C120 586 300 586 365 542" fill="none" stroke="#34d399" stroke-opacity=".28" stroke-width="2"/>
    <path d="M74 88 L98 88 M322 88 L346 88 M74 572 L98 572 M322 572 L346 572" stroke="#fde68a" stroke-opacity=".50" stroke-width="2" stroke-linecap="round"/>
    <circle cx="80" cy="100" r="10" fill="none" stroke="#fde68a" stroke-opacity=".45"/>
    <circle cx="340" cy="100" r="10" fill="none" stroke="#fde68a" stroke-opacity=".45"/>
    <circle cx="80" cy="560" r="10" fill="none" stroke="#fde68a" stroke-opacity=".45"/>
    <circle cx="340" cy="560" r="10" fill="none" stroke="#fde68a" stroke-opacity=".45"/>
    
  
            <circle cx="210" cy="286" r="132" fill="#34d399" opacity=".065"/>
            <circle cx="210" cy="286" r="102" fill="none" stroke="#fde68a" stroke-opacity=".36" stroke-width="2"/>
            <text x="210" y="164" text-anchor="middle" dominant-baseline="middle" font-size="42" font-family="Georgia, serif" fill="#34d399" opacity=".94">⬟</text><text x="154" y="220" text-anchor="middle" dominant-baseline="middle" font-size="42" font-family="Georgia, serif" fill="#34d399" opacity=".94">⬟</text><text x="266" y="220" text-anchor="middle" dominant-baseline="middle" font-size="42" font-family="Georgia, serif" fill="#34d399" opacity=".94">⬟</text><text x="154" y="302" text-anchor="middle" dominant-baseline="middle" font-size="42" font-family="Georgia, serif" fill="#34d399" opacity=".94">⬟</text><text x="266" y="302" text-anchor="middle" dominant-baseline="middle" font-size="42" font-family="Georgia, serif" fill="#34d399" opacity=".94">⬟</text><text x="210" y="360" text-anchor="middle" dominant-baseline="middle" font-size="42" font-family="Georgia, serif" fill="#34d399" opacity=".94">⬟</text><text x="210" y="250" text-anchor="middle" dominant-baseline="middle" font-size="50" font-family="Georgia, serif" fill="#34d399" opacity=".94">⬟</text><text x="154" y="384" text-anchor="middle" dominant-baseline="middle" font-size="42" font-family="Georgia, serif" fill="#34d399" opacity=".94">⬟</text>
            <text x="62" y="86" font-size="26" font-family="Georgia, serif" fill="#fff7ed">VIII</text>
            <text x="358" y="86" text-anchor="end" font-size="26" font-family="Georgia, serif" fill="#fff7ed">VIII</text>
            
  <rect x="58" y="522" width="304" height="76" rx="18" fill="#020617" opacity=".62" stroke="#facc15" stroke-opacity=".24"/>
  <text x="210" y="558" text-anchor="middle" font-size="20" font-family="Georgia, serif" fill="#fff7ed">Eight of Pentacles</text>
  <text x="210" y="586" text-anchor="middle" font-size="9" font-family="Arial, sans-serif" letter-spacing="3" fill="#c4b5fd">ORIGINAL SYMBOLIC DECK</text>
</svg>