<svg xmlns="http://www.w3.org/2000/svg" width="420" height="660" viewBox="0 0 420 660" role="img" aria-label="Five of Cups">
<defs>
<linearGradient id="bg" x1="0" y1="0" x2="1" y2="1"><stop stop-color="#080b18"/><stop offset=".52" stop-color="#211436"/><stop offset="1" stop-color="#050812"/></linearGradient>
<radialGradient id="a" cx="50%" cy="40%" r="64%"><stop stop-color="#38bdf8" stop-opacity=".22"/><stop offset=".55" stop-color="#93c5fd" stop-opacity=".12"/><stop offset="1" stop-color="#000" stop-opacity="0"/></radialGradient>
<filter id="glow"><feDropShadow dx="0" dy="0" stdDeviation="5" flood-color="#38bdf8" flood-opacity=".42"/></filter>
</defs>
<rect width="420" height="660" rx="34" fill="url(#bg)"/>
<rect x="18" y="18" width="384" height="624" rx="30" fill="url(#a)" stroke="#d6a24f" stroke-opacity=".82" stroke-width="2.4"/>
<rect x="36" y="36" width="348" height="588" rx="22" fill="none" stroke="#93c5fd" stroke-opacity=".28" stroke-width="1.5"/>
<circle cx="315" cy="474" r="1.2" fill="#fff1b8" opacity="0.47"/>
<circle cx="357" cy="223" r="2" fill="#fff1b8" opacity="0.48"/>
<circle cx="262" cy="184" r="2" fill="#fff1b8" opacity="0.62"/>
<circle cx="153" cy="422" r="1.5" fill="#fff1b8" opacity="0.34"/>
<circle cx="286" cy="506" r="2" fill="#fff1b8" opacity="0.64"/>
<circle cx="72" cy="275" r="1.5" fill="#fff1b8" opacity="0.72"/>
<circle cx="231" cy="195" r="2" fill="#fff1b8" opacity="0.27"/>
<circle cx="59" cy="243" r="2" fill="#fff1b8" opacity="0.46"/>
<circle cx="233" cy="357" r="1" fill="#fff1b8" opacity="0.56"/>
<circle cx="335" cy="228" r="1.2" fill="#fff1b8" opacity="0.34"/>
<circle cx="54" cy="230" r="2" fill="#fff1b8" opacity="0.40"/>
<circle cx="90" cy="540" r="1" fill="#fff1b8" opacity="0.48"/>
<circle cx="130" cy="239" r="1" fill="#fff1b8" opacity="0.44"/>
<circle cx="332" cy="268" r="1.2" fill="#fff1b8" opacity="0.70"/>
<circle cx="316" cy="92" r="2" fill="#fff1b8" opacity="0.66"/>
<circle cx="101" cy="138" r="1.2" fill="#fff1b8" opacity="0.31"/>
<circle cx="308" cy="463" r="1" fill="#fff1b8" opacity="0.75"/>
<circle cx="110" cy="253" r="1" fill="#fff1b8" opacity="0.55"/>
<circle cx="230" cy="214" r="1.2" fill="#fff1b8" opacity="0.41"/>
<circle cx="173" cy="90" r="1.5" fill="#fff1b8" opacity="0.42"/>
<circle cx="168" cy="286" r="2" fill="#fff1b8" opacity="0.72"/>
<circle cx="239" cy="110" r="1" fill="#fff1b8" opacity="0.29"/>
<circle cx="378" cy="512" r="1" fill="#fff1b8" opacity="0.70"/>
<circle cx="346" cy="551" r="1.5" fill="#fff1b8" opacity="0.62"/>
<circle cx="84" cy="362" r="1.2" fill="#fff1b8" opacity="0.38"/>
<circle cx="250" cy="307" r="1" fill="#fff1b8" opacity="0.41"/>
<circle cx="243" cy="62" r="2" fill="#fff1b8" opacity="0.74"/>
<circle cx="123" cy="159" r="2" fill="#fff1b8" opacity="0.62"/>
<circle cx="223" cy="278" r="1.2" fill="#fff1b8" opacity="0.74"/>
<circle cx="235" cy="164" r="1.2" fill="#fff1b8" opacity="0.74"/>
<circle cx="310" cy="558" r="1" fill="#fff1b8" opacity="0.69"/>
<circle cx="251" cy="580" r="1.5" fill="#fff1b8" opacity="0.76"/>
<circle cx="363" cy="266" r="1" fill="#fff1b8" opacity="0.35"/>
<circle cx="363" cy="431" r="1" fill="#fff1b8" opacity="0.38"/>
<circle cx="201" cy="109" r="2" fill="#fff1b8" opacity="0.55"/>
<circle cx="163" cy="433" r="1.2" fill="#fff1b8" opacity="0.48"/>
<circle cx="293" cy="237" r="2" fill="#fff1b8" opacity="0.63"/>
<circle cx="339" cy="193" r="1.5" fill="#fff1b8" opacity="0.50"/>
<path d="M70 104 C132 68 288 68 350 104 M70 556 C132 592 288 592 350 556" fill="none" stroke="#d6a24f" stroke-opacity=".28" stroke-width="2"/>
<text x="64" y="78" fill="#fff1b8" font-size="22" font-family="Georgia,serif">V</text>
<text x="356" y="78" text-anchor="end" fill="#fff1b8" font-size="22" font-family="Georgia,serif">V</text>
<g filter="url(#glow)"><circle cx="210" cy="292" r="122" fill="#93c5fd" opacity=".08"/><circle cx="210" cy="292" r="92" fill="none" stroke="#38bdf8" stroke-opacity=".36" stroke-width="2"/><text x="210" y="156" text-anchor="middle" dominant-baseline="middle" font-size="42" fill="#38bdf8" font-family="Georgia,serif">●</text><text x="154" y="218" text-anchor="middle" dominant-baseline="middle" font-size="42" fill="#38bdf8" font-family="Georgia,serif">●</text><text x="266" y="218" text-anchor="middle" dominant-baseline="middle" font-size="42" fill="#38bdf8" font-family="Georgia,serif">●</text><text x="154" y="294" text-anchor="middle" dominant-baseline="middle" font-size="42" fill="#38bdf8" font-family="Georgia,serif">●</text><text x="266" y="294" text-anchor="middle" dominant-baseline="middle" font-size="42" fill="#38bdf8" font-family="Georgia,serif">●</text><path d="M130 464 C172 428 248 428 290 464" fill="none" stroke="#38bdf8" stroke-width="5" stroke-linecap="round" opacity=".6"/></g>
<rect x="58" y="530" width="304" height="74" rx="17" fill="#050812" opacity=".74" stroke="#d6a24f" stroke-opacity=".30"/>
<text x="210" y="566" text-anchor="middle" fill="#fff7df" font-size="20" font-family="Georgia,serif">Five of Cups</text>
<text x="210" y="592" text-anchor="middle" fill="#c9b27a" font-size="9" font-family="Arial" letter-spacing="3">FATECARD ORIGINAL</text>
</svg>