<svg xmlns="http://www.w3.org/2000/svg" width="420" height="660" viewBox="0 0 420 660" role="img" aria-label="Nine of Swords">
<defs>
<linearGradient id="bg" x1="0" y1="0" x2="1" y2="1"><stop stop-color="#080b18"/><stop offset=".52" stop-color="#211436"/><stop offset="1" stop-color="#050812"/></linearGradient>
<radialGradient id="a" cx="50%" cy="40%" r="64%"><stop stop-color="#c4b5fd" stop-opacity=".22"/><stop offset=".55" stop-color="#e0e7ff" stop-opacity=".12"/><stop offset="1" stop-color="#000" stop-opacity="0"/></radialGradient>
<filter id="glow"><feDropShadow dx="0" dy="0" stdDeviation="5" flood-color="#c4b5fd" flood-opacity=".42"/></filter>
</defs>
<rect width="420" height="660" rx="34" fill="url(#bg)"/>
<rect x="18" y="18" width="384" height="624" rx="30" fill="url(#a)" stroke="#d6a24f" stroke-opacity=".82" stroke-width="2.4"/>
<rect x="36" y="36" width="348" height="588" rx="22" fill="none" stroke="#e0e7ff" stroke-opacity=".28" stroke-width="1.5"/>
<circle cx="369" cy="574" r="2" fill="#fff1b8" opacity="0.42"/>
<circle cx="240" cy="447" r="1" fill="#fff1b8" opacity="0.58"/>
<circle cx="346" cy="488" r="1.2" fill="#fff1b8" opacity="0.66"/>
<circle cx="355" cy="295" r="1.2" fill="#fff1b8" opacity="0.72"/>
<circle cx="324" cy="584" r="2" fill="#fff1b8" opacity="0.33"/>
<circle cx="315" cy="206" r="2" fill="#fff1b8" opacity="0.33"/>
<circle cx="94" cy="272" r="1" fill="#fff1b8" opacity="0.52"/>
<circle cx="244" cy="458" r="1.5" fill="#fff1b8" opacity="0.57"/>
<circle cx="158" cy="184" r="1.2" fill="#fff1b8" opacity="0.49"/>
<circle cx="374" cy="97" r="1.5" fill="#fff1b8" opacity="0.65"/>
<circle cx="145" cy="473" r="1.2" fill="#fff1b8" opacity="0.62"/>
<circle cx="268" cy="93" r="1.2" fill="#fff1b8" opacity="0.28"/>
<circle cx="342" cy="254" r="1" fill="#fff1b8" opacity="0.35"/>
<circle cx="223" cy="406" r="2" fill="#fff1b8" opacity="0.73"/>
<circle cx="348" cy="143" r="1.2" fill="#fff1b8" opacity="0.66"/>
<circle cx="128" cy="415" r="1.5" fill="#fff1b8" opacity="0.40"/>
<circle cx="228" cy="326" r="1.2" fill="#fff1b8" opacity="0.33"/>
<circle cx="356" cy="319" r="1.2" fill="#fff1b8" opacity="0.46"/>
<circle cx="376" cy="234" r="1.5" fill="#fff1b8" opacity="0.78"/>
<circle cx="195" cy="369" r="1.5" fill="#fff1b8" opacity="0.43"/>
<circle cx="308" cy="225" r="1" fill="#fff1b8" opacity="0.76"/>
<circle cx="369" cy="336" r="1" fill="#fff1b8" opacity="0.62"/>
<circle cx="170" cy="73" r="1" fill="#fff1b8" opacity="0.48"/>
<circle cx="251" cy="99" r="1" fill="#fff1b8" opacity="0.72"/>
<circle cx="113" cy="302" r="1.5" fill="#fff1b8" opacity="0.32"/>
<circle cx="349" cy="133" r="2" fill="#fff1b8" opacity="0.78"/>
<circle cx="88" cy="258" r="2" fill="#fff1b8" opacity="0.30"/>
<circle cx="280" cy="546" r="1.5" fill="#fff1b8" opacity="0.45"/>
<circle cx="334" cy="582" r="1.5" fill="#fff1b8" opacity="0.61"/>
<circle cx="130" cy="208" r="1.5" fill="#fff1b8" opacity="0.58"/>
<circle cx="170" cy="86" r="1" fill="#fff1b8" opacity="0.39"/>
<circle cx="344" cy="477" r="1.5" fill="#fff1b8" opacity="0.31"/>
<circle cx="218" cy="240" r="1.5" fill="#fff1b8" opacity="0.74"/>
<circle cx="52" cy="493" r="1.5" fill="#fff1b8" opacity="0.38"/>
<circle cx="79" cy="200" r="1" fill="#fff1b8" opacity="0.66"/>
<circle cx="300" cy="368" r="2" fill="#fff1b8" opacity="0.66"/>
<circle cx="176" cy="309" r="2" fill="#fff1b8" opacity="0.47"/>
<circle cx="47" cy="378" r="1" fill="#fff1b8" opacity="0.34"/>
<path d="M70 104 C132 68 288 68 350 104 M70 556 C132 592 288 592 350 556" fill="none" stroke="#d6a24f" stroke-opacity=".28" stroke-width="2"/>
<text x="64" y="78" fill="#fff1b8" font-size="22" font-family="Georgia,serif">IX</text>
<text x="356" y="78" text-anchor="end" fill="#fff1b8" font-size="22" font-family="Georgia,serif">IX</text>
<g filter="url(#glow)"><circle cx="210" cy="292" r="122" fill="#e0e7ff" opacity=".08"/><circle cx="210" cy="292" r="92" fill="none" stroke="#c4b5fd" stroke-opacity=".36" stroke-width="2"/><text x="210" y="156" text-anchor="middle" dominant-baseline="middle" font-size="42" fill="#c4b5fd" font-family="Georgia,serif">◆</text><text x="154" y="218" text-anchor="middle" dominant-baseline="middle" font-size="42" fill="#c4b5fd" font-family="Georgia,serif">◆</text><text x="266" y="218" text-anchor="middle" dominant-baseline="middle" font-size="42" fill="#c4b5fd" font-family="Georgia,serif">◆</text><text x="154" y="294" text-anchor="middle" dominant-baseline="middle" font-size="42" fill="#c4b5fd" font-family="Georgia,serif">◆</text><text x="266" y="294" text-anchor="middle" dominant-baseline="middle" font-size="42" fill="#c4b5fd" font-family="Georgia,serif">◆</text><text x="210" y="364" text-anchor="middle" dominant-baseline="middle" font-size="42" fill="#c4b5fd" font-family="Georgia,serif">◆</text><text x="210" y="252" text-anchor="middle" dominant-baseline="middle" font-size="42" fill="#c4b5fd" font-family="Georgia,serif">◆</text><text x="154" y="382" text-anchor="middle" dominant-baseline="middle" font-size="42" fill="#c4b5fd" font-family="Georgia,serif">◆</text><text x="266" y="382" text-anchor="middle" dominant-baseline="middle" font-size="42" fill="#c4b5fd" font-family="Georgia,serif">◆</text><path d="M130 464 C172 428 248 428 290 464" fill="none" stroke="#c4b5fd" stroke-width="5" stroke-linecap="round" opacity=".6"/></g>
<rect x="58" y="530" width="304" height="74" rx="17" fill="#050812" opacity=".74" stroke="#d6a24f" stroke-opacity=".30"/>
<text x="210" y="566" text-anchor="middle" fill="#fff7df" font-size="20" font-family="Georgia,serif">Nine of Swords</text>
<text x="210" y="592" text-anchor="middle" fill="#c9b27a" font-size="9" font-family="Arial" letter-spacing="3">FATECARD ORIGINAL</text>
</svg>