<svg xmlns="http://www.w3.org/2000/svg" width="420" height="660" viewBox="0 0 420 660" role="img" aria-label="Eight of Cups">
<defs>
<linearGradient id="bg" x1="0" y1="0" x2="1" y2="1"><stop stop-color="#080b18"/><stop offset=".52" stop-color="#211436"/><stop offset="1" stop-color="#050812"/></linearGradient>
<radialGradient id="a" cx="50%" cy="40%" r="64%"><stop stop-color="#38bdf8" stop-opacity=".22"/><stop offset=".55" stop-color="#93c5fd" stop-opacity=".12"/><stop offset="1" stop-color="#000" stop-opacity="0"/></radialGradient>
<filter id="glow"><feDropShadow dx="0" dy="0" stdDeviation="5" flood-color="#38bdf8" flood-opacity=".42"/></filter>
</defs>
<rect width="420" height="660" rx="34" fill="url(#bg)"/>
<rect x="18" y="18" width="384" height="624" rx="30" fill="url(#a)" stroke="#d6a24f" stroke-opacity=".82" stroke-width="2.4"/>
<rect x="36" y="36" width="348" height="588" rx="22" fill="none" stroke="#93c5fd" stroke-opacity=".28" stroke-width="1.5"/>
<circle cx="240" cy="260" r="2" fill="#fff1b8" opacity="0.67"/>
<circle cx="171" cy="527" r="1.2" fill="#fff1b8" opacity="0.49"/>
<circle cx="310" cy="299" r="2" fill="#fff1b8" opacity="0.71"/>
<circle cx="331" cy="475" r="1" fill="#fff1b8" opacity="0.31"/>
<circle cx="252" cy="120" r="1" fill="#fff1b8" opacity="0.66"/>
<circle cx="234" cy="486" r="2" fill="#fff1b8" opacity="0.36"/>
<circle cx="247" cy="404" r="1.5" fill="#fff1b8" opacity="0.59"/>
<circle cx="51" cy="144" r="1.2" fill="#fff1b8" opacity="0.43"/>
<circle cx="281" cy="113" r="2" fill="#fff1b8" opacity="0.29"/>
<circle cx="155" cy="360" r="2" fill="#fff1b8" opacity="0.73"/>
<circle cx="241" cy="70" r="1.2" fill="#fff1b8" opacity="0.69"/>
<circle cx="240" cy="197" r="1.2" fill="#fff1b8" opacity="0.69"/>
<circle cx="161" cy="250" r="1.5" fill="#fff1b8" opacity="0.55"/>
<circle cx="238" cy="387" r="2" fill="#fff1b8" opacity="0.68"/>
<circle cx="78" cy="539" r="1.2" fill="#fff1b8" opacity="0.50"/>
<circle cx="306" cy="360" r="2" fill="#fff1b8" opacity="0.42"/>
<circle cx="316" cy="225" r="1" fill="#fff1b8" opacity="0.30"/>
<circle cx="248" cy="561" r="2" fill="#fff1b8" opacity="0.45"/>
<circle cx="115" cy="369" r="1.5" fill="#fff1b8" opacity="0.34"/>
<circle cx="306" cy="109" r="1.2" fill="#fff1b8" opacity="0.27"/>
<circle cx="371" cy="90" r="1" fill="#fff1b8" opacity="0.64"/>
<circle cx="313" cy="224" r="2" fill="#fff1b8" opacity="0.64"/>
<circle cx="73" cy="432" r="2" fill="#fff1b8" opacity="0.47"/>
<circle cx="352" cy="312" r="1.2" fill="#fff1b8" opacity="0.50"/>
<circle cx="238" cy="86" r="1.2" fill="#fff1b8" opacity="0.62"/>
<circle cx="203" cy="344" r="1.2" fill="#fff1b8" opacity="0.36"/>
<circle cx="161" cy="114" r="1" fill="#fff1b8" opacity="0.75"/>
<circle cx="337" cy="417" r="1.2" fill="#fff1b8" opacity="0.37"/>
<circle cx="78" cy="195" r="2" fill="#fff1b8" opacity="0.30"/>
<circle cx="167" cy="301" r="1.5" fill="#fff1b8" opacity="0.48"/>
<circle cx="106" cy="378" r="1.5" fill="#fff1b8" opacity="0.47"/>
<circle cx="99" cy="215" r="2" fill="#fff1b8" opacity="0.29"/>
<circle cx="145" cy="416" r="1.5" fill="#fff1b8" opacity="0.41"/>
<circle cx="357" cy="493" r="1.2" fill="#fff1b8" opacity="0.41"/>
<circle cx="284" cy="254" r="2" fill="#fff1b8" opacity="0.32"/>
<circle cx="131" cy="126" r="1.2" fill="#fff1b8" opacity="0.66"/>
<circle cx="226" cy="76" r="1.2" fill="#fff1b8" opacity="0.60"/>
<circle cx="261" cy="315" r="1" fill="#fff1b8" opacity="0.43"/>
<path d="M70 104 C132 68 288 68 350 104 M70 556 C132 592 288 592 350 556" fill="none" stroke="#d6a24f" stroke-opacity=".28" stroke-width="2"/>
<text x="64" y="78" fill="#fff1b8" font-size="22" font-family="Georgia,serif">VIII</text>
<text x="356" y="78" text-anchor="end" fill="#fff1b8" font-size="22" font-family="Georgia,serif">VIII</text>
<g filter="url(#glow)"><circle cx="210" cy="292" r="122" fill="#93c5fd" opacity=".08"/><circle cx="210" cy="292" r="92" fill="none" stroke="#38bdf8" stroke-opacity=".36" stroke-width="2"/><text x="210" y="156" text-anchor="middle" dominant-baseline="middle" font-size="42" fill="#38bdf8" font-family="Georgia,serif">●</text><text x="154" y="218" text-anchor="middle" dominant-baseline="middle" font-size="42" fill="#38bdf8" font-family="Georgia,serif">●</text><text x="266" y="218" text-anchor="middle" dominant-baseline="middle" font-size="42" fill="#38bdf8" font-family="Georgia,serif">●</text><text x="154" y="294" text-anchor="middle" dominant-baseline="middle" font-size="42" fill="#38bdf8" font-family="Georgia,serif">●</text><text x="266" y="294" text-anchor="middle" dominant-baseline="middle" font-size="42" fill="#38bdf8" font-family="Georgia,serif">●</text><text x="210" y="364" text-anchor="middle" dominant-baseline="middle" font-size="42" fill="#38bdf8" font-family="Georgia,serif">●</text><text x="210" y="252" text-anchor="middle" dominant-baseline="middle" font-size="42" fill="#38bdf8" font-family="Georgia,serif">●</text><text x="154" y="382" text-anchor="middle" dominant-baseline="middle" font-size="42" fill="#38bdf8" font-family="Georgia,serif">●</text><path d="M130 464 C172 428 248 428 290 464" fill="none" stroke="#38bdf8" stroke-width="5" stroke-linecap="round" opacity=".6"/></g>
<rect x="58" y="530" width="304" height="74" rx="17" fill="#050812" opacity=".74" stroke="#d6a24f" stroke-opacity=".30"/>
<text x="210" y="566" text-anchor="middle" fill="#fff7df" font-size="20" font-family="Georgia,serif">Eight of Cups</text>
<text x="210" y="592" text-anchor="middle" fill="#c9b27a" font-size="9" font-family="Arial" letter-spacing="3">FATECARD ORIGINAL</text>
</svg>