<svg xmlns="http://www.w3.org/2000/svg" width="420" height="660" viewBox="0 0 420 660" role="img" aria-label="Two of Swords">
<defs>
<linearGradient id="bg" x1="0" y1="0" x2="1" y2="1"><stop stop-color="#080b18"/><stop offset=".52" stop-color="#211436"/><stop offset="1" stop-color="#050812"/></linearGradient>
<radialGradient id="a" cx="50%" cy="40%" r="64%"><stop stop-color="#c4b5fd" stop-opacity=".22"/><stop offset=".55" stop-color="#e0e7ff" stop-opacity=".12"/><stop offset="1" stop-color="#000" stop-opacity="0"/></radialGradient>
<filter id="glow"><feDropShadow dx="0" dy="0" stdDeviation="5" flood-color="#c4b5fd" flood-opacity=".42"/></filter>
</defs>
<rect width="420" height="660" rx="34" fill="url(#bg)"/>
<rect x="18" y="18" width="384" height="624" rx="30" fill="url(#a)" stroke="#d6a24f" stroke-opacity=".82" stroke-width="2.4"/>
<rect x="36" y="36" width="348" height="588" rx="22" fill="none" stroke="#e0e7ff" stroke-opacity=".28" stroke-width="1.5"/>
<circle cx="266" cy="514" r="1.2" fill="#fff1b8" opacity="0.62"/>
<circle cx="87" cy="588" r="1.2" fill="#fff1b8" opacity="0.56"/>
<circle cx="293" cy="236" r="2" fill="#fff1b8" opacity="0.58"/>
<circle cx="225" cy="399" r="2" fill="#fff1b8" opacity="0.36"/>
<circle cx="76" cy="373" r="1.5" fill="#fff1b8" opacity="0.66"/>
<circle cx="54" cy="531" r="1.2" fill="#fff1b8" opacity="0.40"/>
<circle cx="265" cy="190" r="1.5" fill="#fff1b8" opacity="0.70"/>
<circle cx="158" cy="531" r="1" fill="#fff1b8" opacity="0.56"/>
<circle cx="324" cy="401" r="1" fill="#fff1b8" opacity="0.33"/>
<circle cx="165" cy="434" r="1.2" fill="#fff1b8" opacity="0.57"/>
<circle cx="275" cy="170" r="1.2" fill="#fff1b8" opacity="0.64"/>
<circle cx="222" cy="281" r="1" fill="#fff1b8" opacity="0.54"/>
<circle cx="202" cy="539" r="1.2" fill="#fff1b8" opacity="0.63"/>
<circle cx="235" cy="239" r="2" fill="#fff1b8" opacity="0.64"/>
<circle cx="91" cy="231" r="1" fill="#fff1b8" opacity="0.28"/>
<circle cx="79" cy="149" r="1.2" fill="#fff1b8" opacity="0.42"/>
<circle cx="161" cy="580" r="1.5" fill="#fff1b8" opacity="0.39"/>
<circle cx="347" cy="129" r="2" fill="#fff1b8" opacity="0.56"/>
<circle cx="106" cy="118" r="1" fill="#fff1b8" opacity="0.53"/>
<circle cx="92" cy="390" r="2" fill="#fff1b8" opacity="0.65"/>
<circle cx="271" cy="529" r="1" fill="#fff1b8" opacity="0.53"/>
<circle cx="93" cy="143" r="1.2" fill="#fff1b8" opacity="0.42"/>
<circle cx="67" cy="395" r="2" fill="#fff1b8" opacity="0.35"/>
<circle cx="369" cy="426" r="1" fill="#fff1b8" opacity="0.55"/>
<circle cx="78" cy="211" r="1.5" fill="#fff1b8" opacity="0.54"/>
<circle cx="134" cy="350" r="1.5" fill="#fff1b8" opacity="0.42"/>
<circle cx="141" cy="186" r="1.5" fill="#fff1b8" opacity="0.40"/>
<circle cx="100" cy="454" r="2" fill="#fff1b8" opacity="0.43"/>
<circle cx="335" cy="172" r="1.5" fill="#fff1b8" opacity="0.49"/>
<circle cx="304" cy="424" r="2" fill="#fff1b8" opacity="0.68"/>
<circle cx="161" cy="239" r="2" fill="#fff1b8" opacity="0.39"/>
<circle cx="83" cy="177" r="1" fill="#fff1b8" opacity="0.53"/>
<circle cx="284" cy="442" r="1.2" fill="#fff1b8" opacity="0.66"/>
<circle cx="211" cy="534" r="1.2" fill="#fff1b8" opacity="0.77"/>
<circle cx="78" cy="277" r="1.5" fill="#fff1b8" opacity="0.32"/>
<circle cx="179" cy="451" r="1" fill="#fff1b8" opacity="0.69"/>
<circle cx="259" cy="74" r="2" fill="#fff1b8" opacity="0.27"/>
<circle cx="203" cy="484" r="1" fill="#fff1b8" opacity="0.47"/>
<path d="M70 104 C132 68 288 68 350 104 M70 556 C132 592 288 592 350 556" fill="none" stroke="#d6a24f" stroke-opacity=".28" stroke-width="2"/>
<text x="64" y="78" fill="#fff1b8" font-size="22" font-family="Georgia,serif">II</text>
<text x="356" y="78" text-anchor="end" fill="#fff1b8" font-size="22" font-family="Georgia,serif">II</text>
<g filter="url(#glow)"><circle cx="210" cy="292" r="122" fill="#e0e7ff" opacity=".08"/><circle cx="210" cy="292" r="92" fill="none" stroke="#c4b5fd" stroke-opacity=".36" stroke-width="2"/><text x="210" y="156" text-anchor="middle" dominant-baseline="middle" font-size="42" fill="#c4b5fd" font-family="Georgia,serif">◆</text><text x="154" y="218" text-anchor="middle" dominant-baseline="middle" font-size="42" fill="#c4b5fd" font-family="Georgia,serif">◆</text><path d="M130 464 C172 428 248 428 290 464" fill="none" stroke="#c4b5fd" stroke-width="5" stroke-linecap="round" opacity=".6"/></g>
<rect x="58" y="530" width="304" height="74" rx="17" fill="#050812" opacity=".74" stroke="#d6a24f" stroke-opacity=".30"/>
<text x="210" y="566" text-anchor="middle" fill="#fff7df" font-size="20" font-family="Georgia,serif">Two of Swords</text>
<text x="210" y="592" text-anchor="middle" fill="#c9b27a" font-size="9" font-family="Arial" letter-spacing="3">FATECARD ORIGINAL</text>
</svg>