<svg xmlns="http://www.w3.org/2000/svg" width="420" height="660" viewBox="0 0 420 660" role="img" aria-label="Two of Cups">
<defs>
<linearGradient id="bg" x1="0" y1="0" x2="1" y2="1"><stop stop-color="#080b18"/><stop offset=".52" stop-color="#211436"/><stop offset="1" stop-color="#050812"/></linearGradient>
<radialGradient id="a" cx="50%" cy="40%" r="64%"><stop stop-color="#38bdf8" stop-opacity=".22"/><stop offset=".55" stop-color="#93c5fd" stop-opacity=".12"/><stop offset="1" stop-color="#000" stop-opacity="0"/></radialGradient>
<filter id="glow"><feDropShadow dx="0" dy="0" stdDeviation="5" flood-color="#38bdf8" flood-opacity=".42"/></filter>
</defs>
<rect width="420" height="660" rx="34" fill="url(#bg)"/>
<rect x="18" y="18" width="384" height="624" rx="30" fill="url(#a)" stroke="#d6a24f" stroke-opacity=".82" stroke-width="2.4"/>
<rect x="36" y="36" width="348" height="588" rx="22" fill="none" stroke="#93c5fd" stroke-opacity=".28" stroke-width="1.5"/>
<circle cx="278" cy="173" r="1.5" fill="#fff1b8" opacity="0.53"/>
<circle cx="306" cy="374" r="2" fill="#fff1b8" opacity="0.49"/>
<circle cx="148" cy="110" r="2" fill="#fff1b8" opacity="0.69"/>
<circle cx="88" cy="465" r="1.5" fill="#fff1b8" opacity="0.61"/>
<circle cx="272" cy="147" r="1.2" fill="#fff1b8" opacity="0.58"/>
<circle cx="343" cy="515" r="2" fill="#fff1b8" opacity="0.63"/>
<circle cx="277" cy="331" r="2" fill="#fff1b8" opacity="0.43"/>
<circle cx="376" cy="538" r="1" fill="#fff1b8" opacity="0.30"/>
<circle cx="93" cy="178" r="1" fill="#fff1b8" opacity="0.72"/>
<circle cx="152" cy="95" r="1.2" fill="#fff1b8" opacity="0.72"/>
<circle cx="93" cy="187" r="2" fill="#fff1b8" opacity="0.77"/>
<circle cx="372" cy="133" r="2" fill="#fff1b8" opacity="0.72"/>
<circle cx="365" cy="402" r="1.5" fill="#fff1b8" opacity="0.58"/>
<circle cx="86" cy="159" r="1" fill="#fff1b8" opacity="0.35"/>
<circle cx="178" cy="220" r="1.5" fill="#fff1b8" opacity="0.72"/>
<circle cx="185" cy="371" r="1.5" fill="#fff1b8" opacity="0.54"/>
<circle cx="315" cy="397" r="1.5" fill="#fff1b8" opacity="0.76"/>
<circle cx="240" cy="455" r="1" fill="#fff1b8" opacity="0.65"/>
<circle cx="104" cy="545" r="1.2" fill="#fff1b8" opacity="0.59"/>
<circle cx="331" cy="258" r="1.5" fill="#fff1b8" opacity="0.47"/>
<circle cx="329" cy="113" r="1.5" fill="#fff1b8" opacity="0.73"/>
<circle cx="345" cy="293" r="2" fill="#fff1b8" opacity="0.40"/>
<circle cx="150" cy="283" r="1" fill="#fff1b8" opacity="0.41"/>
<circle cx="158" cy="180" r="1" fill="#fff1b8" opacity="0.30"/>
<circle cx="110" cy="335" r="1.5" fill="#fff1b8" opacity="0.68"/>
<circle cx="367" cy="190" r="1.5" fill="#fff1b8" opacity="0.64"/>
<circle cx="98" cy="327" r="1" fill="#fff1b8" opacity="0.45"/>
<circle cx="146" cy="124" r="2" fill="#fff1b8" opacity="0.44"/>
<circle cx="160" cy="229" r="1.2" fill="#fff1b8" opacity="0.28"/>
<circle cx="193" cy="530" r="1.2" fill="#fff1b8" opacity="0.36"/>
<circle cx="353" cy="151" r="2" fill="#fff1b8" opacity="0.58"/>
<circle cx="111" cy="505" r="2" fill="#fff1b8" opacity="0.39"/>
<circle cx="127" cy="213" r="1" fill="#fff1b8" opacity="0.43"/>
<circle cx="161" cy="71" r="1.5" fill="#fff1b8" opacity="0.56"/>
<circle cx="99" cy="67" r="1.2" fill="#fff1b8" opacity="0.49"/>
<circle cx="45" cy="95" r="1.2" fill="#fff1b8" opacity="0.48"/>
<circle cx="297" cy="478" r="2" fill="#fff1b8" opacity="0.68"/>
<circle cx="80" cy="162" r="2" fill="#fff1b8" opacity="0.43"/>
<path d="M70 104 C132 68 288 68 350 104 M70 556 C132 592 288 592 350 556" fill="none" stroke="#d6a24f" stroke-opacity=".28" stroke-width="2"/>
<text x="64" y="78" fill="#fff1b8" font-size="22" font-family="Georgia,serif">II</text>
<text x="356" y="78" text-anchor="end" fill="#fff1b8" font-size="22" font-family="Georgia,serif">II</text>
<g filter="url(#glow)"><circle cx="210" cy="292" r="122" fill="#93c5fd" opacity=".08"/><circle cx="210" cy="292" r="92" fill="none" stroke="#38bdf8" stroke-opacity=".36" stroke-width="2"/><text x="210" y="156" text-anchor="middle" dominant-baseline="middle" font-size="42" fill="#38bdf8" font-family="Georgia,serif">●</text><text x="154" y="218" text-anchor="middle" dominant-baseline="middle" font-size="42" fill="#38bdf8" font-family="Georgia,serif">●</text><path d="M130 464 C172 428 248 428 290 464" fill="none" stroke="#38bdf8" stroke-width="5" stroke-linecap="round" opacity=".6"/></g>
<rect x="58" y="530" width="304" height="74" rx="17" fill="#050812" opacity=".74" stroke="#d6a24f" stroke-opacity=".30"/>
<text x="210" y="566" text-anchor="middle" fill="#fff7df" font-size="20" font-family="Georgia,serif">Two of Cups</text>
<text x="210" y="592" text-anchor="middle" fill="#c9b27a" font-size="9" font-family="Arial" letter-spacing="3">FATECARD ORIGINAL</text>
</svg>