<svg xmlns="http://www.w3.org/2000/svg" width="420" height="660" viewBox="0 0 420 660" role="img" aria-label="Ten of Wands">
<defs>
<linearGradient id="bg" x1="0" y1="0" x2="1" y2="1"><stop stop-color="#080b18"/><stop offset=".52" stop-color="#211436"/><stop offset="1" stop-color="#050812"/></linearGradient>
<radialGradient id="a" cx="50%" cy="40%" r="64%"><stop stop-color="#f59e0b" stop-opacity=".22"/><stop offset=".55" stop-color="#fb923c" stop-opacity=".12"/><stop offset="1" stop-color="#000" stop-opacity="0"/></radialGradient>
<filter id="glow"><feDropShadow dx="0" dy="0" stdDeviation="5" flood-color="#f59e0b" flood-opacity=".42"/></filter>
</defs>
<rect width="420" height="660" rx="34" fill="url(#bg)"/>
<rect x="18" y="18" width="384" height="624" rx="30" fill="url(#a)" stroke="#d6a24f" stroke-opacity=".82" stroke-width="2.4"/>
<rect x="36" y="36" width="348" height="588" rx="22" fill="none" stroke="#fb923c" stroke-opacity=".28" stroke-width="1.5"/>
<circle cx="73" cy="194" r="2" fill="#fff1b8" opacity="0.56"/>
<circle cx="319" cy="303" r="1.2" fill="#fff1b8" opacity="0.58"/>
<circle cx="223" cy="102" r="1" fill="#fff1b8" opacity="0.76"/>
<circle cx="351" cy="385" r="2" fill="#fff1b8" opacity="0.39"/>
<circle cx="297" cy="141" r="1.5" fill="#fff1b8" opacity="0.38"/>
<circle cx="151" cy="235" r="1.2" fill="#fff1b8" opacity="0.39"/>
<circle cx="118" cy="106" r="2" fill="#fff1b8" opacity="0.28"/>
<circle cx="353" cy="82" r="1.5" fill="#fff1b8" opacity="0.40"/>
<circle cx="256" cy="62" r="1" fill="#fff1b8" opacity="0.62"/>
<circle cx="331" cy="354" r="1" fill="#fff1b8" opacity="0.30"/>
<circle cx="262" cy="282" r="2" fill="#fff1b8" opacity="0.60"/>
<circle cx="184" cy="197" r="1.5" fill="#fff1b8" opacity="0.47"/>
<circle cx="376" cy="278" r="1.2" fill="#fff1b8" opacity="0.27"/>
<circle cx="61" cy="182" r="1.2" fill="#fff1b8" opacity="0.64"/>
<circle cx="267" cy="467" r="1.5" fill="#fff1b8" opacity="0.65"/>
<circle cx="236" cy="101" r="2" fill="#fff1b8" opacity="0.59"/>
<circle cx="192" cy="335" r="1" fill="#fff1b8" opacity="0.35"/>
<circle cx="44" cy="63" r="2" fill="#fff1b8" opacity="0.31"/>
<circle cx="74" cy="409" r="1" fill="#fff1b8" opacity="0.40"/>
<circle cx="147" cy="87" r="1" fill="#fff1b8" opacity="0.74"/>
<circle cx="104" cy="135" r="1.5" fill="#fff1b8" opacity="0.54"/>
<circle cx="105" cy="484" r="1" fill="#fff1b8" opacity="0.78"/>
<circle cx="370" cy="374" r="1.5" fill="#fff1b8" opacity="0.54"/>
<circle cx="350" cy="300" r="1" fill="#fff1b8" opacity="0.50"/>
<circle cx="172" cy="523" r="1" fill="#fff1b8" opacity="0.40"/>
<circle cx="322" cy="524" r="2" fill="#fff1b8" opacity="0.45"/>
<circle cx="359" cy="261" r="1.5" fill="#fff1b8" opacity="0.53"/>
<circle cx="364" cy="187" r="2" fill="#fff1b8" opacity="0.49"/>
<circle cx="238" cy="118" r="1.5" fill="#fff1b8" opacity="0.73"/>
<circle cx="236" cy="362" r="2" fill="#fff1b8" opacity="0.73"/>
<circle cx="264" cy="81" r="1.5" fill="#fff1b8" opacity="0.41"/>
<circle cx="100" cy="543" r="2" fill="#fff1b8" opacity="0.42"/>
<circle cx="237" cy="137" r="1.2" fill="#fff1b8" opacity="0.48"/>
<circle cx="158" cy="152" r="1.2" fill="#fff1b8" opacity="0.33"/>
<circle cx="72" cy="425" r="1.5" fill="#fff1b8" opacity="0.46"/>
<circle cx="252" cy="122" r="1.2" fill="#fff1b8" opacity="0.35"/>
<circle cx="110" cy="579" r="1.2" fill="#fff1b8" opacity="0.46"/>
<circle cx="309" cy="533" r="2" fill="#fff1b8" opacity="0.50"/>
<path d="M70 104 C132 68 288 68 350 104 M70 556 C132 592 288 592 350 556" fill="none" stroke="#d6a24f" stroke-opacity=".28" stroke-width="2"/>
<text x="64" y="78" fill="#fff1b8" font-size="22" font-family="Georgia,serif">X</text>
<text x="356" y="78" text-anchor="end" fill="#fff1b8" font-size="22" font-family="Georgia,serif">X</text>
<g filter="url(#glow)"><circle cx="210" cy="292" r="122" fill="#fb923c" opacity=".08"/><circle cx="210" cy="292" r="92" fill="none" stroke="#f59e0b" stroke-opacity=".36" stroke-width="2"/><text x="210" y="156" text-anchor="middle" dominant-baseline="middle" font-size="42" fill="#f59e0b" font-family="Georgia,serif">♣</text><text x="154" y="218" text-anchor="middle" dominant-baseline="middle" font-size="42" fill="#f59e0b" font-family="Georgia,serif">♣</text><text x="266" y="218" text-anchor="middle" dominant-baseline="middle" font-size="42" fill="#f59e0b" font-family="Georgia,serif">♣</text><text x="154" y="294" text-anchor="middle" dominant-baseline="middle" font-size="42" fill="#f59e0b" font-family="Georgia,serif">♣</text><text x="266" y="294" text-anchor="middle" dominant-baseline="middle" font-size="42" fill="#f59e0b" font-family="Georgia,serif">♣</text><text x="210" y="364" text-anchor="middle" dominant-baseline="middle" font-size="42" fill="#f59e0b" font-family="Georgia,serif">♣</text><text x="210" y="252" text-anchor="middle" dominant-baseline="middle" font-size="42" fill="#f59e0b" font-family="Georgia,serif">♣</text><text x="154" y="382" text-anchor="middle" dominant-baseline="middle" font-size="42" fill="#f59e0b" font-family="Georgia,serif">♣</text><text x="266" y="382" text-anchor="middle" dominant-baseline="middle" font-size="42" fill="#f59e0b" font-family="Georgia,serif">♣</text><text x="210" y="444" text-anchor="middle" dominant-baseline="middle" font-size="42" fill="#f59e0b" font-family="Georgia,serif">♣</text><path d="M130 464 C172 428 248 428 290 464" fill="none" stroke="#f59e0b" stroke-width="5" stroke-linecap="round" opacity=".6"/></g>
<rect x="58" y="530" width="304" height="74" rx="17" fill="#050812" opacity=".74" stroke="#d6a24f" stroke-opacity=".30"/>
<text x="210" y="566" text-anchor="middle" fill="#fff7df" font-size="20" font-family="Georgia,serif">Ten of Wands</text>
<text x="210" y="592" text-anchor="middle" fill="#c9b27a" font-size="9" font-family="Arial" letter-spacing="3">FATECARD ORIGINAL</text>
</svg>