<svg xmlns="http://www.w3.org/2000/svg" width="420" height="660" viewBox="0 0 420 660" role="img" aria-label="Four of Pentacles">
  <defs>
    <linearGradient id="bg" x1="0" y1="0" x2="1" y2="1">
      <stop offset="0%" stop-color="#050816"/>
      <stop offset="45%" stop-color="#17102d"/>
      <stop offset="100%" stop-color="#020617"/>
    </linearGradient>
    <radialGradient id="aura" cx="50%" cy="38%" r="68%">
      <stop offset="0%" stop-color="#facc15" stop-opacity=".18"/>
      <stop offset="52%" stop-color="#a78bfa" stop-opacity=".10"/>
      <stop offset="100%" stop-color="#020617" stop-opacity="0"/>
    </radialGradient>
    <filter id="glow" x="-30%" y="-30%" width="160%" height="160%">
      <feDropShadow dx="0" dy="0" stdDeviation="6" flood-color="#34d399" flood-opacity=".42"/>
    </filter>
  </defs>
  <rect width="420" height="660" rx="34" fill="url(#bg)"/>
  <rect x="20" y="20" width="380" height="620" rx="30" fill="url(#aura)" stroke="#facc15" stroke-opacity=".54" stroke-width="2"/>
  <rect x="35" y="35" width="350" height="590" rx="22" fill="none" stroke="#a78bfa" stroke-opacity=".18" stroke-width="1.5"/>
  <circle cx="376" cy="488" r="1.0" fill="#fde68a" opacity="0.75"/>
<circle cx="116" cy="442" r="2.2" fill="#fde68a" opacity="0.59"/>
<circle cx="289" cy="140" r="1.0" fill="#fde68a" opacity="0.57"/>
<circle cx="332" cy="132" r="2.2" fill="#fde68a" opacity="0.83"/>
<circle cx="66" cy="321" r="1.0" fill="#fde68a" opacity="0.66"/>
<circle cx="199" cy="443" r="1.0" fill="#fde68a" opacity="0.45"/>
<circle cx="79" cy="446" r="1.0" fill="#fde68a" opacity="0.44"/>
<circle cx="140" cy="193" r="1.0" fill="#fde68a" opacity="0.44"/>
<circle cx="376" cy="56" r="2.2" fill="#fde68a" opacity="0.39"/>
<circle cx="333" cy="446" r="1.0" fill="#fde68a" opacity="0.33"/>
<circle cx="118" cy="454" r="1.0" fill="#fde68a" opacity="0.30"/>
<circle cx="167" cy="117" r="1.4" fill="#fde68a" opacity="0.62"/>
<circle cx="195" cy="538" r="1.4" fill="#fde68a" opacity="0.81"/>
<circle cx="68" cy="582" r="1.8" fill="#fde68a" opacity="0.64"/>
<circle cx="179" cy="225" r="1.4" fill="#fde68a" opacity="0.73"/>
<circle cx="200" cy="497" r="1.0" fill="#fde68a" opacity="0.72"/>
<circle cx="263" cy="162" r="2.2" fill="#fde68a" opacity="0.60"/>
<circle cx="56" cy="540" r="1.0" fill="#fde68a" opacity="0.50"/>
<circle cx="100" cy="410" r="1.4" fill="#fde68a" opacity="0.63"/>
<circle cx="203" cy="287" r="1.0" fill="#fde68a" opacity="0.63"/>
<circle cx="69" cy="322" r="1.0" fill="#fde68a" opacity="0.42"/>
<circle cx="240" cy="74" r="1.4" fill="#fde68a" opacity="0.42"/>
<circle cx="53" cy="87" r="2.2" fill="#fde68a" opacity="0.55"/>
<circle cx="295" cy="282" r="1.0" fill="#fde68a" opacity="0.39"/>
<circle cx="243" cy="401" r="1.0" fill="#fde68a" opacity="0.36"/>
<circle cx="156" cy="74" r="1.8" fill="#fde68a" opacity="0.57"/>
<circle cx="250" cy="550" r="1.0" fill="#fde68a" opacity="0.49"/>
<circle cx="337" cy="323" r="1.8" fill="#fde68a" opacity="0.36"/>
<circle cx="352" cy="210" r="1.4" fill="#fde68a" opacity="0.54"/>
<circle cx="165" cy="59" r="1.4" fill="#fde68a" opacity="0.44"/>
<circle cx="363" cy="324" r="1.0" fill="#fde68a" opacity="0.83"/>
<circle cx="66" cy="166" r="1.0" fill="#fde68a" opacity="0.83"/>
<circle cx="355" cy="410" r="1.0" fill="#fde68a" opacity="0.36"/>
<circle cx="319" cy="377" r="2.2" fill="#fde68a" opacity="0.63"/>
  
    <path d="M55 118 C120 74 300 74 365 118" fill="none" stroke="#34d399" stroke-opacity=".28" stroke-width="2"/>
    <path d="M55 542 C120 586 300 586 365 542" fill="none" stroke="#34d399" stroke-opacity=".28" stroke-width="2"/>
    <path d="M74 88 L98 88 M322 88 L346 88 M74 572 L98 572 M322 572 L346 572" stroke="#fde68a" stroke-opacity=".50" stroke-width="2" stroke-linecap="round"/>
    <circle cx="80" cy="100" r="10" fill="none" stroke="#fde68a" stroke-opacity=".45"/>
    <circle cx="340" cy="100" r="10" fill="none" stroke="#fde68a" stroke-opacity=".45"/>
    <circle cx="80" cy="560" r="10" fill="none" stroke="#fde68a" stroke-opacity=".45"/>
    <circle cx="340" cy="560" r="10" fill="none" stroke="#fde68a" stroke-opacity=".45"/>
    
  
            <circle cx="210" cy="286" r="132" fill="#34d399" opacity=".065"/>
            <circle cx="210" cy="286" r="102" fill="none" stroke="#fde68a" stroke-opacity=".36" stroke-width="2"/>
            <text x="210" y="164" text-anchor="middle" dominant-baseline="middle" font-size="42" font-family="Georgia, serif" fill="#34d399" opacity=".94">⬟</text><text x="154" y="220" text-anchor="middle" dominant-baseline="middle" font-size="42" font-family="Georgia, serif" fill="#34d399" opacity=".94">⬟</text><text x="266" y="220" text-anchor="middle" dominant-baseline="middle" font-size="42" font-family="Georgia, serif" fill="#34d399" opacity=".94">⬟</text><text x="154" y="302" text-anchor="middle" dominant-baseline="middle" font-size="42" font-family="Georgia, serif" fill="#34d399" opacity=".94">⬟</text>
            <text x="62" y="86" font-size="26" font-family="Georgia, serif" fill="#fff7ed">IV</text>
            <text x="358" y="86" text-anchor="end" font-size="26" font-family="Georgia, serif" fill="#fff7ed">IV</text>
            
  <rect x="58" y="522" width="304" height="76" rx="18" fill="#020617" opacity=".62" stroke="#facc15" stroke-opacity=".24"/>
  <text x="210" y="558" text-anchor="middle" font-size="20" font-family="Georgia, serif" fill="#fff7ed">Four of Pentacles</text>
  <text x="210" y="586" text-anchor="middle" font-size="9" font-family="Arial, sans-serif" letter-spacing="3" fill="#c4b5fd">ORIGINAL SYMBOLIC DECK</text>
</svg>