<svg xmlns="http://www.w3.org/2000/svg" width="420" height="660" viewBox="0 0 420 660" role="img" aria-label="Page of Cups">
<defs>
<linearGradient id="bg" x1="0" y1="0" x2="1" y2="1"><stop stop-color="#080b18"/><stop offset=".52" stop-color="#211436"/><stop offset="1" stop-color="#050812"/></linearGradient>
<radialGradient id="a" cx="50%" cy="40%" r="64%"><stop stop-color="#38bdf8" stop-opacity=".22"/><stop offset=".55" stop-color="#93c5fd" stop-opacity=".12"/><stop offset="1" stop-color="#000" stop-opacity="0"/></radialGradient>
<filter id="glow"><feDropShadow dx="0" dy="0" stdDeviation="5" flood-color="#38bdf8" flood-opacity=".42"/></filter>
</defs>
<rect width="420" height="660" rx="34" fill="url(#bg)"/>
<rect x="18" y="18" width="384" height="624" rx="30" fill="url(#a)" stroke="#d6a24f" stroke-opacity=".82" stroke-width="2.4"/>
<rect x="36" y="36" width="348" height="588" rx="22" fill="none" stroke="#93c5fd" stroke-opacity=".28" stroke-width="1.5"/>
<circle cx="122" cy="305" r="1.2" fill="#fff1b8" opacity="0.39"/>
<circle cx="157" cy="83" r="2" fill="#fff1b8" opacity="0.31"/>
<circle cx="167" cy="402" r="2" fill="#fff1b8" opacity="0.32"/>
<circle cx="244" cy="135" r="1.2" fill="#fff1b8" opacity="0.45"/>
<circle cx="87" cy="278" r="1" fill="#fff1b8" opacity="0.70"/>
<circle cx="203" cy="270" r="1.2" fill="#fff1b8" opacity="0.65"/>
<circle cx="81" cy="570" r="1" fill="#fff1b8" opacity="0.66"/>
<circle cx="271" cy="476" r="2" fill="#fff1b8" opacity="0.40"/>
<circle cx="345" cy="391" r="1.2" fill="#fff1b8" opacity="0.65"/>
<circle cx="217" cy="356" r="1" fill="#fff1b8" opacity="0.77"/>
<circle cx="154" cy="307" r="2" fill="#fff1b8" opacity="0.75"/>
<circle cx="274" cy="349" r="1" fill="#fff1b8" opacity="0.66"/>
<circle cx="303" cy="62" r="2" fill="#fff1b8" opacity="0.60"/>
<circle cx="227" cy="341" r="2" fill="#fff1b8" opacity="0.60"/>
<circle cx="56" cy="67" r="2" fill="#fff1b8" opacity="0.42"/>
<circle cx="234" cy="81" r="1.2" fill="#fff1b8" opacity="0.62"/>
<circle cx="359" cy="356" r="2" fill="#fff1b8" opacity="0.64"/>
<circle cx="198" cy="466" r="1.5" fill="#fff1b8" opacity="0.27"/>
<circle cx="161" cy="453" r="1" fill="#fff1b8" opacity="0.63"/>
<circle cx="171" cy="202" r="1.2" fill="#fff1b8" opacity="0.78"/>
<circle cx="268" cy="442" r="1" fill="#fff1b8" opacity="0.50"/>
<circle cx="71" cy="160" r="1.5" fill="#fff1b8" opacity="0.66"/>
<circle cx="151" cy="127" r="2" fill="#fff1b8" opacity="0.43"/>
<circle cx="201" cy="236" r="1.5" fill="#fff1b8" opacity="0.45"/>
<circle cx="175" cy="131" r="1.2" fill="#fff1b8" opacity="0.41"/>
<circle cx="144" cy="587" r="1" fill="#fff1b8" opacity="0.41"/>
<circle cx="181" cy="539" r="2" fill="#fff1b8" opacity="0.61"/>
<circle cx="290" cy="350" r="1.5" fill="#fff1b8" opacity="0.77"/>
<circle cx="215" cy="405" r="1.2" fill="#fff1b8" opacity="0.45"/>
<circle cx="159" cy="486" r="2" fill="#fff1b8" opacity="0.55"/>
<circle cx="210" cy="541" r="1.5" fill="#fff1b8" opacity="0.51"/>
<circle cx="318" cy="104" r="1.2" fill="#fff1b8" opacity="0.46"/>
<circle cx="197" cy="280" r="1.2" fill="#fff1b8" opacity="0.63"/>
<circle cx="271" cy="256" r="1.2" fill="#fff1b8" opacity="0.56"/>
<circle cx="136" cy="381" r="1.5" fill="#fff1b8" opacity="0.31"/>
<circle cx="43" cy="568" r="2" fill="#fff1b8" opacity="0.54"/>
<circle cx="97" cy="265" r="2" fill="#fff1b8" opacity="0.62"/>
<circle cx="357" cy="408" r="1" fill="#fff1b8" opacity="0.64"/>
<path d="M70 104 C132 68 288 68 350 104 M70 556 C132 592 288 592 350 556" fill="none" stroke="#d6a24f" stroke-opacity=".28" stroke-width="2"/>
<text x="64" y="78" fill="#fff1b8" font-size="22" font-family="Georgia,serif">PAGE</text>
<text x="356" y="78" text-anchor="end" fill="#fff1b8" font-size="22" font-family="Georgia,serif">PAGE</text>
<g filter="url(#glow)"><ellipse cx="210" cy="430" rx="96" ry="22" fill="#93c5fd" opacity=".16"/><path d="M148 400 C164 310 186 250 210 220 C234 250 256 310 272 400 Z" fill="#38bdf8" opacity=".17" stroke="#38bdf8" stroke-width="3"/><circle cx="210" cy="214" r="40" fill="#93c5fd" opacity=".18" stroke="#93c5fd" stroke-width="3"/><text x="210" y="268" text-anchor="middle" font-size="74" fill="#38bdf8" font-family="Georgia,serif">♙</text><text x="210" y="356" text-anchor="middle" font-size="56" fill="#93c5fd" font-family="Georgia,serif">●</text></g>
<rect x="58" y="530" width="304" height="74" rx="17" fill="#050812" opacity=".74" stroke="#d6a24f" stroke-opacity=".30"/>
<text x="210" y="566" text-anchor="middle" fill="#fff7df" font-size="20" font-family="Georgia,serif">Page of Cups</text>
<text x="210" y="592" text-anchor="middle" fill="#c9b27a" font-size="9" font-family="Arial" letter-spacing="3">FATECARD ORIGINAL</text>
</svg>