<svg xmlns="http://www.w3.org/2000/svg" width="420" height="660" viewBox="0 0 420 660" role="img" aria-label="Eight of Wands">
  <defs>
    <linearGradient id="bg" x1="0" y1="0" x2="1" y2="1">
      <stop offset="0%" stop-color="#050816"/>
      <stop offset="45%" stop-color="#17102d"/>
      <stop offset="100%" stop-color="#020617"/>
    </linearGradient>
    <radialGradient id="aura" cx="50%" cy="38%" r="68%">
      <stop offset="0%" stop-color="#facc15" stop-opacity=".18"/>
      <stop offset="52%" stop-color="#a78bfa" stop-opacity=".10"/>
      <stop offset="100%" stop-color="#020617" stop-opacity="0"/>
    </radialGradient>
    <filter id="glow" x="-30%" y="-30%" width="160%" height="160%">
      <feDropShadow dx="0" dy="0" stdDeviation="6" flood-color="#fb923c" flood-opacity=".42"/>
    </filter>
  </defs>
  <rect width="420" height="660" rx="34" fill="url(#bg)"/>
  <rect x="20" y="20" width="380" height="620" rx="30" fill="url(#aura)" stroke="#facc15" stroke-opacity=".54" stroke-width="2"/>
  <rect x="35" y="35" width="350" height="590" rx="22" fill="none" stroke="#a78bfa" stroke-opacity=".18" stroke-width="1.5"/>
  <circle cx="247" cy="577" r="1.0" fill="#fde68a" opacity="0.42"/>
<circle cx="138" cy="109" r="1.0" fill="#fde68a" opacity="0.83"/>
<circle cx="122" cy="402" r="1.0" fill="#fde68a" opacity="0.59"/>
<circle cx="255" cy="559" r="2.2" fill="#fde68a" opacity="0.35"/>
<circle cx="272" cy="195" r="1.8" fill="#fde68a" opacity="0.55"/>
<circle cx="88" cy="117" r="1.0" fill="#fde68a" opacity="0.51"/>
<circle cx="50" cy="369" r="2.2" fill="#fde68a" opacity="0.76"/>
<circle cx="291" cy="274" r="1.0" fill="#fde68a" opacity="0.80"/>
<circle cx="38" cy="196" r="2.2" fill="#fde68a" opacity="0.63"/>
<circle cx="172" cy="327" r="1.0" fill="#fde68a" opacity="0.53"/>
<circle cx="378" cy="410" r="1.8" fill="#fde68a" opacity="0.75"/>
<circle cx="358" cy="68" r="1.4" fill="#fde68a" opacity="0.33"/>
<circle cx="333" cy="128" r="2.2" fill="#fde68a" opacity="0.36"/>
<circle cx="244" cy="84" r="1.8" fill="#fde68a" opacity="0.46"/>
<circle cx="373" cy="586" r="1.4" fill="#fde68a" opacity="0.80"/>
<circle cx="368" cy="208" r="1.8" fill="#fde68a" opacity="0.54"/>
<circle cx="189" cy="383" r="1.8" fill="#fde68a" opacity="0.31"/>
<circle cx="244" cy="342" r="1.0" fill="#fde68a" opacity="0.29"/>
<circle cx="355" cy="562" r="1.8" fill="#fde68a" opacity="0.75"/>
<circle cx="228" cy="116" r="1.0" fill="#fde68a" opacity="0.46"/>
<circle cx="143" cy="525" r="1.0" fill="#fde68a" opacity="0.30"/>
<circle cx="234" cy="74" r="1.0" fill="#fde68a" opacity="0.48"/>
<circle cx="268" cy="195" r="1.0" fill="#fde68a" opacity="0.38"/>
<circle cx="69" cy="551" r="1.0" fill="#fde68a" opacity="0.45"/>
<circle cx="341" cy="121" r="1.4" fill="#fde68a" opacity="0.68"/>
<circle cx="300" cy="195" r="1.4" fill="#fde68a" opacity="0.71"/>
<circle cx="43" cy="172" r="1.4" fill="#fde68a" opacity="0.51"/>
<circle cx="341" cy="88" r="1.4" fill="#fde68a" opacity="0.82"/>
<circle cx="197" cy="377" r="1.4" fill="#fde68a" opacity="0.69"/>
<circle cx="298" cy="494" r="1.0" fill="#fde68a" opacity="0.30"/>
<circle cx="244" cy="563" r="2.2" fill="#fde68a" opacity="0.51"/>
<circle cx="306" cy="232" r="2.2" fill="#fde68a" opacity="0.38"/>
<circle cx="280" cy="175" r="2.2" fill="#fde68a" opacity="0.51"/>
<circle cx="129" cy="380" r="1.0" fill="#fde68a" opacity="0.40"/>
  
    <path d="M55 118 C120 74 300 74 365 118" fill="none" stroke="#fb923c" stroke-opacity=".28" stroke-width="2"/>
    <path d="M55 542 C120 586 300 586 365 542" fill="none" stroke="#fb923c" stroke-opacity=".28" stroke-width="2"/>
    <path d="M74 88 L98 88 M322 88 L346 88 M74 572 L98 572 M322 572 L346 572" stroke="#facc15" stroke-opacity=".50" stroke-width="2" stroke-linecap="round"/>
    <circle cx="80" cy="100" r="10" fill="none" stroke="#facc15" stroke-opacity=".45"/>
    <circle cx="340" cy="100" r="10" fill="none" stroke="#facc15" stroke-opacity=".45"/>
    <circle cx="80" cy="560" r="10" fill="none" stroke="#facc15" stroke-opacity=".45"/>
    <circle cx="340" cy="560" r="10" fill="none" stroke="#facc15" stroke-opacity=".45"/>
    
  
            <circle cx="210" cy="286" r="132" fill="#fb923c" opacity=".065"/>
            <circle cx="210" cy="286" r="102" fill="none" stroke="#facc15" stroke-opacity=".36" stroke-width="2"/>
            <text x="210" y="164" text-anchor="middle" dominant-baseline="middle" font-size="42" font-family="Georgia, serif" fill="#fb923c" opacity=".94">♣</text><text x="154" y="220" text-anchor="middle" dominant-baseline="middle" font-size="42" font-family="Georgia, serif" fill="#fb923c" opacity=".94">♣</text><text x="266" y="220" text-anchor="middle" dominant-baseline="middle" font-size="42" font-family="Georgia, serif" fill="#fb923c" opacity=".94">♣</text><text x="154" y="302" text-anchor="middle" dominant-baseline="middle" font-size="42" font-family="Georgia, serif" fill="#fb923c" opacity=".94">♣</text><text x="266" y="302" text-anchor="middle" dominant-baseline="middle" font-size="42" font-family="Georgia, serif" fill="#fb923c" opacity=".94">♣</text><text x="210" y="360" text-anchor="middle" dominant-baseline="middle" font-size="42" font-family="Georgia, serif" fill="#fb923c" opacity=".94">♣</text><text x="210" y="250" text-anchor="middle" dominant-baseline="middle" font-size="50" font-family="Georgia, serif" fill="#fb923c" opacity=".94">♣</text><text x="154" y="384" text-anchor="middle" dominant-baseline="middle" font-size="42" font-family="Georgia, serif" fill="#fb923c" opacity=".94">♣</text>
            <text x="62" y="86" font-size="26" font-family="Georgia, serif" fill="#fff7ed">VIII</text>
            <text x="358" y="86" text-anchor="end" font-size="26" font-family="Georgia, serif" fill="#fff7ed">VIII</text>
            
  <rect x="58" y="522" width="304" height="76" rx="18" fill="#020617" opacity=".62" stroke="#facc15" stroke-opacity=".24"/>
  <text x="210" y="558" text-anchor="middle" font-size="20" font-family="Georgia, serif" fill="#fff7ed">Eight of Wands</text>
  <text x="210" y="586" text-anchor="middle" font-size="9" font-family="Arial, sans-serif" letter-spacing="3" fill="#c4b5fd">ORIGINAL SYMBOLIC DECK</text>
</svg>