<svg xmlns="http://www.w3.org/2000/svg" width="420" height="660" viewBox="0 0 420 660" role="img" aria-label="Eight of Swords">
<defs>
<linearGradient id="bg" x1="0" y1="0" x2="1" y2="1"><stop stop-color="#080b18"/><stop offset=".52" stop-color="#211436"/><stop offset="1" stop-color="#050812"/></linearGradient>
<radialGradient id="a" cx="50%" cy="40%" r="64%"><stop stop-color="#c4b5fd" stop-opacity=".22"/><stop offset=".55" stop-color="#e0e7ff" stop-opacity=".12"/><stop offset="1" stop-color="#000" stop-opacity="0"/></radialGradient>
<filter id="glow"><feDropShadow dx="0" dy="0" stdDeviation="5" flood-color="#c4b5fd" flood-opacity=".42"/></filter>
</defs>
<rect width="420" height="660" rx="34" fill="url(#bg)"/>
<rect x="18" y="18" width="384" height="624" rx="30" fill="url(#a)" stroke="#d6a24f" stroke-opacity=".82" stroke-width="2.4"/>
<rect x="36" y="36" width="348" height="588" rx="22" fill="none" stroke="#e0e7ff" stroke-opacity=".28" stroke-width="1.5"/>
<circle cx="43" cy="569" r="1.5" fill="#fff1b8" opacity="0.35"/>
<circle cx="275" cy="510" r="1.5" fill="#fff1b8" opacity="0.44"/>
<circle cx="42" cy="433" r="2" fill="#fff1b8" opacity="0.75"/>
<circle cx="228" cy="328" r="1" fill="#fff1b8" opacity="0.46"/>
<circle cx="152" cy="62" r="1.5" fill="#fff1b8" opacity="0.37"/>
<circle cx="354" cy="269" r="1" fill="#fff1b8" opacity="0.43"/>
<circle cx="185" cy="77" r="1" fill="#fff1b8" opacity="0.61"/>
<circle cx="80" cy="155" r="1.5" fill="#fff1b8" opacity="0.45"/>
<circle cx="186" cy="390" r="1" fill="#fff1b8" opacity="0.77"/>
<circle cx="329" cy="283" r="1.2" fill="#fff1b8" opacity="0.40"/>
<circle cx="209" cy="60" r="1.5" fill="#fff1b8" opacity="0.37"/>
<circle cx="293" cy="442" r="2" fill="#fff1b8" opacity="0.69"/>
<circle cx="256" cy="306" r="1" fill="#fff1b8" opacity="0.66"/>
<circle cx="97" cy="88" r="1" fill="#fff1b8" opacity="0.61"/>
<circle cx="256" cy="311" r="1" fill="#fff1b8" opacity="0.34"/>
<circle cx="169" cy="346" r="1.5" fill="#fff1b8" opacity="0.59"/>
<circle cx="331" cy="63" r="1.2" fill="#fff1b8" opacity="0.62"/>
<circle cx="161" cy="386" r="2" fill="#fff1b8" opacity="0.28"/>
<circle cx="97" cy="336" r="1" fill="#fff1b8" opacity="0.50"/>
<circle cx="248" cy="291" r="2" fill="#fff1b8" opacity="0.28"/>
<circle cx="173" cy="224" r="1" fill="#fff1b8" opacity="0.54"/>
<circle cx="277" cy="154" r="1" fill="#fff1b8" opacity="0.63"/>
<circle cx="217" cy="58" r="1.5" fill="#fff1b8" opacity="0.54"/>
<circle cx="88" cy="81" r="1.5" fill="#fff1b8" opacity="0.58"/>
<circle cx="284" cy="531" r="1.5" fill="#fff1b8" opacity="0.76"/>
<circle cx="263" cy="497" r="1.2" fill="#fff1b8" opacity="0.68"/>
<circle cx="81" cy="536" r="1.5" fill="#fff1b8" opacity="0.66"/>
<circle cx="190" cy="518" r="2" fill="#fff1b8" opacity="0.73"/>
<circle cx="56" cy="336" r="1.5" fill="#fff1b8" opacity="0.68"/>
<circle cx="313" cy="172" r="1.2" fill="#fff1b8" opacity="0.64"/>
<circle cx="165" cy="533" r="1.5" fill="#fff1b8" opacity="0.69"/>
<circle cx="261" cy="378" r="1" fill="#fff1b8" opacity="0.60"/>
<circle cx="93" cy="377" r="1" fill="#fff1b8" opacity="0.64"/>
<circle cx="124" cy="327" r="1.5" fill="#fff1b8" opacity="0.77"/>
<circle cx="226" cy="574" r="2" fill="#fff1b8" opacity="0.41"/>
<circle cx="61" cy="491" r="1.5" fill="#fff1b8" opacity="0.33"/>
<circle cx="295" cy="529" r="1.2" fill="#fff1b8" opacity="0.47"/>
<circle cx="184" cy="111" r="1.2" fill="#fff1b8" opacity="0.65"/>
<path d="M70 104 C132 68 288 68 350 104 M70 556 C132 592 288 592 350 556" fill="none" stroke="#d6a24f" stroke-opacity=".28" stroke-width="2"/>
<text x="64" y="78" fill="#fff1b8" font-size="22" font-family="Georgia,serif">VIII</text>
<text x="356" y="78" text-anchor="end" fill="#fff1b8" font-size="22" font-family="Georgia,serif">VIII</text>
<g filter="url(#glow)"><circle cx="210" cy="292" r="122" fill="#e0e7ff" opacity=".08"/><circle cx="210" cy="292" r="92" fill="none" stroke="#c4b5fd" stroke-opacity=".36" stroke-width="2"/><text x="210" y="156" text-anchor="middle" dominant-baseline="middle" font-size="42" fill="#c4b5fd" font-family="Georgia,serif">◆</text><text x="154" y="218" text-anchor="middle" dominant-baseline="middle" font-size="42" fill="#c4b5fd" font-family="Georgia,serif">◆</text><text x="266" y="218" text-anchor="middle" dominant-baseline="middle" font-size="42" fill="#c4b5fd" font-family="Georgia,serif">◆</text><text x="154" y="294" text-anchor="middle" dominant-baseline="middle" font-size="42" fill="#c4b5fd" font-family="Georgia,serif">◆</text><text x="266" y="294" text-anchor="middle" dominant-baseline="middle" font-size="42" fill="#c4b5fd" font-family="Georgia,serif">◆</text><text x="210" y="364" text-anchor="middle" dominant-baseline="middle" font-size="42" fill="#c4b5fd" font-family="Georgia,serif">◆</text><text x="210" y="252" text-anchor="middle" dominant-baseline="middle" font-size="42" fill="#c4b5fd" font-family="Georgia,serif">◆</text><text x="154" y="382" text-anchor="middle" dominant-baseline="middle" font-size="42" fill="#c4b5fd" font-family="Georgia,serif">◆</text><path d="M130 464 C172 428 248 428 290 464" fill="none" stroke="#c4b5fd" stroke-width="5" stroke-linecap="round" opacity=".6"/></g>
<rect x="58" y="530" width="304" height="74" rx="17" fill="#050812" opacity=".74" stroke="#d6a24f" stroke-opacity=".30"/>
<text x="210" y="566" text-anchor="middle" fill="#fff7df" font-size="20" font-family="Georgia,serif">Eight of Swords</text>
<text x="210" y="592" text-anchor="middle" fill="#c9b27a" font-size="9" font-family="Arial" letter-spacing="3">FATECARD ORIGINAL</text>
</svg>