<svg xmlns="http://www.w3.org/2000/svg" width="420" height="660" viewBox="0 0 420 660" role="img" aria-label="Four of Swords">
  <defs>
    <linearGradient id="bg" x1="0" y1="0" x2="1" y2="1">
      <stop offset="0%" stop-color="#050816"/>
      <stop offset="45%" stop-color="#17102d"/>
      <stop offset="100%" stop-color="#020617"/>
    </linearGradient>
    <radialGradient id="aura" cx="50%" cy="38%" r="68%">
      <stop offset="0%" stop-color="#facc15" stop-opacity=".18"/>
      <stop offset="52%" stop-color="#a78bfa" stop-opacity=".10"/>
      <stop offset="100%" stop-color="#020617" stop-opacity="0"/>
    </radialGradient>
    <filter id="glow" x="-30%" y="-30%" width="160%" height="160%">
      <feDropShadow dx="0" dy="0" stdDeviation="6" flood-color="#c4b5fd" flood-opacity=".42"/>
    </filter>
  </defs>
  <rect width="420" height="660" rx="34" fill="url(#bg)"/>
  <rect x="20" y="20" width="380" height="620" rx="30" fill="url(#aura)" stroke="#facc15" stroke-opacity=".54" stroke-width="2"/>
  <rect x="35" y="35" width="350" height="590" rx="22" fill="none" stroke="#a78bfa" stroke-opacity=".18" stroke-width="1.5"/>
  <circle cx="365" cy="191" r="1.0" fill="#fde68a" opacity="0.66"/>
<circle cx="338" cy="555" r="1.4" fill="#fde68a" opacity="0.78"/>
<circle cx="109" cy="483" r="1.8" fill="#fde68a" opacity="0.36"/>
<circle cx="314" cy="56" r="1.0" fill="#fde68a" opacity="0.81"/>
<circle cx="155" cy="181" r="1.0" fill="#fde68a" opacity="0.39"/>
<circle cx="355" cy="225" r="1.0" fill="#fde68a" opacity="0.51"/>
<circle cx="280" cy="278" r="1.4" fill="#fde68a" opacity="0.37"/>
<circle cx="119" cy="423" r="1.0" fill="#fde68a" opacity="0.41"/>
<circle cx="95" cy="215" r="1.0" fill="#fde68a" opacity="0.71"/>
<circle cx="45" cy="125" r="1.0" fill="#fde68a" opacity="0.67"/>
<circle cx="64" cy="180" r="1.8" fill="#fde68a" opacity="0.56"/>
<circle cx="169" cy="418" r="2.2" fill="#fde68a" opacity="0.68"/>
<circle cx="339" cy="191" r="1.0" fill="#fde68a" opacity="0.50"/>
<circle cx="221" cy="197" r="1.4" fill="#fde68a" opacity="0.46"/>
<circle cx="207" cy="434" r="1.4" fill="#fde68a" opacity="0.48"/>
<circle cx="169" cy="251" r="1.0" fill="#fde68a" opacity="0.38"/>
<circle cx="314" cy="127" r="1.4" fill="#fde68a" opacity="0.69"/>
<circle cx="298" cy="188" r="2.2" fill="#fde68a" opacity="0.76"/>
<circle cx="70" cy="451" r="2.2" fill="#fde68a" opacity="0.48"/>
<circle cx="108" cy="557" r="1.8" fill="#fde68a" opacity="0.58"/>
<circle cx="182" cy="406" r="1.4" fill="#fde68a" opacity="0.35"/>
<circle cx="262" cy="57" r="1.0" fill="#fde68a" opacity="0.83"/>
<circle cx="97" cy="186" r="1.8" fill="#fde68a" opacity="0.41"/>
<circle cx="286" cy="230" r="2.2" fill="#fde68a" opacity="0.84"/>
<circle cx="186" cy="140" r="1.4" fill="#fde68a" opacity="0.35"/>
<circle cx="48" cy="255" r="1.0" fill="#fde68a" opacity="0.83"/>
<circle cx="174" cy="283" r="1.8" fill="#fde68a" opacity="0.40"/>
<circle cx="351" cy="417" r="2.2" fill="#fde68a" opacity="0.56"/>
<circle cx="331" cy="380" r="1.8" fill="#fde68a" opacity="0.83"/>
<circle cx="330" cy="146" r="1.0" fill="#fde68a" opacity="0.82"/>
<circle cx="351" cy="99" r="1.0" fill="#fde68a" opacity="0.47"/>
<circle cx="254" cy="320" r="1.0" fill="#fde68a" opacity="0.75"/>
<circle cx="329" cy="182" r="1.4" fill="#fde68a" opacity="0.51"/>
<circle cx="180" cy="469" r="1.0" fill="#fde68a" opacity="0.77"/>
  
    <path d="M55 118 C120 74 300 74 365 118" fill="none" stroke="#c4b5fd" stroke-opacity=".28" stroke-width="2"/>
    <path d="M55 542 C120 586 300 586 365 542" fill="none" stroke="#c4b5fd" stroke-opacity=".28" stroke-width="2"/>
    <path d="M74 88 L98 88 M322 88 L346 88 M74 572 L98 572 M322 572 L346 572" stroke="#e0e7ff" stroke-opacity=".50" stroke-width="2" stroke-linecap="round"/>
    <circle cx="80" cy="100" r="10" fill="none" stroke="#e0e7ff" stroke-opacity=".45"/>
    <circle cx="340" cy="100" r="10" fill="none" stroke="#e0e7ff" stroke-opacity=".45"/>
    <circle cx="80" cy="560" r="10" fill="none" stroke="#e0e7ff" stroke-opacity=".45"/>
    <circle cx="340" cy="560" r="10" fill="none" stroke="#e0e7ff" stroke-opacity=".45"/>
    
  
            <circle cx="210" cy="286" r="132" fill="#c4b5fd" opacity=".065"/>
            <circle cx="210" cy="286" r="102" fill="none" stroke="#e0e7ff" stroke-opacity=".36" stroke-width="2"/>
            <text x="210" y="164" text-anchor="middle" dominant-baseline="middle" font-size="42" font-family="Georgia, serif" fill="#c4b5fd" opacity=".94">◆</text><text x="154" y="220" text-anchor="middle" dominant-baseline="middle" font-size="42" font-family="Georgia, serif" fill="#c4b5fd" opacity=".94">◆</text><text x="266" y="220" text-anchor="middle" dominant-baseline="middle" font-size="42" font-family="Georgia, serif" fill="#c4b5fd" opacity=".94">◆</text><text x="154" y="302" text-anchor="middle" dominant-baseline="middle" font-size="42" font-family="Georgia, serif" fill="#c4b5fd" opacity=".94">◆</text>
            <text x="62" y="86" font-size="26" font-family="Georgia, serif" fill="#fff7ed">IV</text>
            <text x="358" y="86" text-anchor="end" font-size="26" font-family="Georgia, serif" fill="#fff7ed">IV</text>
            
  <rect x="58" y="522" width="304" height="76" rx="18" fill="#020617" opacity=".62" stroke="#facc15" stroke-opacity=".24"/>
  <text x="210" y="558" text-anchor="middle" font-size="20" font-family="Georgia, serif" fill="#fff7ed">Four of Swords</text>
  <text x="210" y="586" text-anchor="middle" font-size="9" font-family="Arial, sans-serif" letter-spacing="3" fill="#c4b5fd">ORIGINAL SYMBOLIC DECK</text>
</svg>