<svg xmlns="http://www.w3.org/2000/svg" width="420" height="660" viewBox="0 0 420 660" role="img" aria-label="Eight of Wands">
<defs>
<linearGradient id="bg" x1="0" y1="0" x2="1" y2="1"><stop stop-color="#080b18"/><stop offset=".52" stop-color="#211436"/><stop offset="1" stop-color="#050812"/></linearGradient>
<radialGradient id="a" cx="50%" cy="40%" r="64%"><stop stop-color="#f59e0b" stop-opacity=".22"/><stop offset=".55" stop-color="#fb923c" stop-opacity=".12"/><stop offset="1" stop-color="#000" stop-opacity="0"/></radialGradient>
<filter id="glow"><feDropShadow dx="0" dy="0" stdDeviation="5" flood-color="#f59e0b" flood-opacity=".42"/></filter>
</defs>
<rect width="420" height="660" rx="34" fill="url(#bg)"/>
<rect x="18" y="18" width="384" height="624" rx="30" fill="url(#a)" stroke="#d6a24f" stroke-opacity=".82" stroke-width="2.4"/>
<rect x="36" y="36" width="348" height="588" rx="22" fill="none" stroke="#fb923c" stroke-opacity=".28" stroke-width="1.5"/>
<circle cx="307" cy="257" r="2" fill="#fff1b8" opacity="0.37"/>
<circle cx="254" cy="153" r="2" fill="#fff1b8" opacity="0.33"/>
<circle cx="219" cy="374" r="2" fill="#fff1b8" opacity="0.74"/>
<circle cx="365" cy="322" r="1.2" fill="#fff1b8" opacity="0.77"/>
<circle cx="63" cy="342" r="1.5" fill="#fff1b8" opacity="0.69"/>
<circle cx="243" cy="306" r="1" fill="#fff1b8" opacity="0.46"/>
<circle cx="99" cy="522" r="1.5" fill="#fff1b8" opacity="0.65"/>
<circle cx="166" cy="77" r="1" fill="#fff1b8" opacity="0.43"/>
<circle cx="92" cy="174" r="1.5" fill="#fff1b8" opacity="0.42"/>
<circle cx="125" cy="191" r="1.5" fill="#fff1b8" opacity="0.34"/>
<circle cx="68" cy="441" r="1.2" fill="#fff1b8" opacity="0.71"/>
<circle cx="317" cy="275" r="1" fill="#fff1b8" opacity="0.44"/>
<circle cx="53" cy="416" r="1.5" fill="#fff1b8" opacity="0.48"/>
<circle cx="251" cy="542" r="1" fill="#fff1b8" opacity="0.51"/>
<circle cx="290" cy="332" r="1.5" fill="#fff1b8" opacity="0.35"/>
<circle cx="215" cy="319" r="1.5" fill="#fff1b8" opacity="0.49"/>
<circle cx="83" cy="99" r="1" fill="#fff1b8" opacity="0.43"/>
<circle cx="245" cy="414" r="1.5" fill="#fff1b8" opacity="0.26"/>
<circle cx="344" cy="254" r="2" fill="#fff1b8" opacity="0.34"/>
<circle cx="174" cy="479" r="2" fill="#fff1b8" opacity="0.61"/>
<circle cx="235" cy="182" r="1.2" fill="#fff1b8" opacity="0.53"/>
<circle cx="317" cy="477" r="1" fill="#fff1b8" opacity="0.56"/>
<circle cx="148" cy="315" r="1.2" fill="#fff1b8" opacity="0.27"/>
<circle cx="244" cy="567" r="2" fill="#fff1b8" opacity="0.43"/>
<circle cx="124" cy="470" r="1.2" fill="#fff1b8" opacity="0.66"/>
<circle cx="336" cy="299" r="1.2" fill="#fff1b8" opacity="0.65"/>
<circle cx="203" cy="578" r="1.2" fill="#fff1b8" opacity="0.40"/>
<circle cx="99" cy="262" r="1.5" fill="#fff1b8" opacity="0.73"/>
<circle cx="183" cy="353" r="1.5" fill="#fff1b8" opacity="0.39"/>
<circle cx="143" cy="92" r="1.2" fill="#fff1b8" opacity="0.33"/>
<circle cx="317" cy="277" r="1.2" fill="#fff1b8" opacity="0.49"/>
<circle cx="233" cy="247" r="1.5" fill="#fff1b8" opacity="0.73"/>
<circle cx="160" cy="529" r="1" fill="#fff1b8" opacity="0.50"/>
<circle cx="128" cy="321" r="2" fill="#fff1b8" opacity="0.36"/>
<circle cx="234" cy="537" r="2" fill="#fff1b8" opacity="0.35"/>
<circle cx="377" cy="240" r="1.2" fill="#fff1b8" opacity="0.41"/>
<circle cx="134" cy="424" r="1.2" fill="#fff1b8" opacity="0.70"/>
<circle cx="317" cy="564" r="1.2" fill="#fff1b8" opacity="0.33"/>
<path d="M70 104 C132 68 288 68 350 104 M70 556 C132 592 288 592 350 556" fill="none" stroke="#d6a24f" stroke-opacity=".28" stroke-width="2"/>
<text x="64" y="78" fill="#fff1b8" font-size="22" font-family="Georgia,serif">VIII</text>
<text x="356" y="78" text-anchor="end" fill="#fff1b8" font-size="22" font-family="Georgia,serif">VIII</text>
<g filter="url(#glow)"><circle cx="210" cy="292" r="122" fill="#fb923c" opacity=".08"/><circle cx="210" cy="292" r="92" fill="none" stroke="#f59e0b" stroke-opacity=".36" stroke-width="2"/><text x="210" y="156" text-anchor="middle" dominant-baseline="middle" font-size="42" fill="#f59e0b" font-family="Georgia,serif">♣</text><text x="154" y="218" text-anchor="middle" dominant-baseline="middle" font-size="42" fill="#f59e0b" font-family="Georgia,serif">♣</text><text x="266" y="218" text-anchor="middle" dominant-baseline="middle" font-size="42" fill="#f59e0b" font-family="Georgia,serif">♣</text><text x="154" y="294" text-anchor="middle" dominant-baseline="middle" font-size="42" fill="#f59e0b" font-family="Georgia,serif">♣</text><text x="266" y="294" text-anchor="middle" dominant-baseline="middle" font-size="42" fill="#f59e0b" font-family="Georgia,serif">♣</text><text x="210" y="364" text-anchor="middle" dominant-baseline="middle" font-size="42" fill="#f59e0b" font-family="Georgia,serif">♣</text><text x="210" y="252" text-anchor="middle" dominant-baseline="middle" font-size="42" fill="#f59e0b" font-family="Georgia,serif">♣</text><text x="154" y="382" text-anchor="middle" dominant-baseline="middle" font-size="42" fill="#f59e0b" font-family="Georgia,serif">♣</text><path d="M130 464 C172 428 248 428 290 464" fill="none" stroke="#f59e0b" stroke-width="5" stroke-linecap="round" opacity=".6"/></g>
<rect x="58" y="530" width="304" height="74" rx="17" fill="#050812" opacity=".74" stroke="#d6a24f" stroke-opacity=".30"/>
<text x="210" y="566" text-anchor="middle" fill="#fff7df" font-size="20" font-family="Georgia,serif">Eight of Wands</text>
<text x="210" y="592" text-anchor="middle" fill="#c9b27a" font-size="9" font-family="Arial" letter-spacing="3">FATECARD ORIGINAL</text>
</svg>