<svg xmlns="http://www.w3.org/2000/svg" width="420" height="660" viewBox="0 0 420 660" role="img" aria-label="Knight of Cups">
<defs>
<linearGradient id="bg" x1="0" y1="0" x2="1" y2="1"><stop stop-color="#080b18"/><stop offset=".52" stop-color="#211436"/><stop offset="1" stop-color="#050812"/></linearGradient>
<radialGradient id="a" cx="50%" cy="40%" r="64%"><stop stop-color="#38bdf8" stop-opacity=".22"/><stop offset=".55" stop-color="#93c5fd" stop-opacity=".12"/><stop offset="1" stop-color="#000" stop-opacity="0"/></radialGradient>
<filter id="glow"><feDropShadow dx="0" dy="0" stdDeviation="5" flood-color="#38bdf8" flood-opacity=".42"/></filter>
</defs>
<rect width="420" height="660" rx="34" fill="url(#bg)"/>
<rect x="18" y="18" width="384" height="624" rx="30" fill="url(#a)" stroke="#d6a24f" stroke-opacity=".82" stroke-width="2.4"/>
<rect x="36" y="36" width="348" height="588" rx="22" fill="none" stroke="#93c5fd" stroke-opacity=".28" stroke-width="1.5"/>
<circle cx="122" cy="252" r="1" fill="#fff1b8" opacity="0.72"/>
<circle cx="325" cy="263" r="1" fill="#fff1b8" opacity="0.71"/>
<circle cx="57" cy="428" r="2" fill="#fff1b8" opacity="0.42"/>
<circle cx="48" cy="471" r="1" fill="#fff1b8" opacity="0.48"/>
<circle cx="62" cy="486" r="1.2" fill="#fff1b8" opacity="0.36"/>
<circle cx="320" cy="91" r="1.2" fill="#fff1b8" opacity="0.51"/>
<circle cx="93" cy="376" r="1.5" fill="#fff1b8" opacity="0.50"/>
<circle cx="132" cy="489" r="1" fill="#fff1b8" opacity="0.65"/>
<circle cx="114" cy="171" r="1.5" fill="#fff1b8" opacity="0.59"/>
<circle cx="316" cy="205" r="1" fill="#fff1b8" opacity="0.40"/>
<circle cx="98" cy="306" r="1.5" fill="#fff1b8" opacity="0.34"/>
<circle cx="324" cy="100" r="1.5" fill="#fff1b8" opacity="0.67"/>
<circle cx="92" cy="217" r="2" fill="#fff1b8" opacity="0.28"/>
<circle cx="239" cy="154" r="2" fill="#fff1b8" opacity="0.57"/>
<circle cx="226" cy="576" r="1" fill="#fff1b8" opacity="0.51"/>
<circle cx="321" cy="554" r="1" fill="#fff1b8" opacity="0.29"/>
<circle cx="145" cy="408" r="2" fill="#fff1b8" opacity="0.73"/>
<circle cx="98" cy="242" r="1.5" fill="#fff1b8" opacity="0.31"/>
<circle cx="275" cy="343" r="2" fill="#fff1b8" opacity="0.52"/>
<circle cx="201" cy="438" r="1" fill="#fff1b8" opacity="0.30"/>
<circle cx="82" cy="548" r="2" fill="#fff1b8" opacity="0.72"/>
<circle cx="259" cy="524" r="2" fill="#fff1b8" opacity="0.69"/>
<circle cx="77" cy="147" r="1" fill="#fff1b8" opacity="0.70"/>
<circle cx="269" cy="515" r="2" fill="#fff1b8" opacity="0.33"/>
<circle cx="305" cy="242" r="1" fill="#fff1b8" opacity="0.52"/>
<circle cx="163" cy="81" r="1.2" fill="#fff1b8" opacity="0.39"/>
<circle cx="319" cy="253" r="2" fill="#fff1b8" opacity="0.73"/>
<circle cx="45" cy="488" r="1.5" fill="#fff1b8" opacity="0.76"/>
<circle cx="52" cy="177" r="1" fill="#fff1b8" opacity="0.38"/>
<circle cx="292" cy="442" r="1" fill="#fff1b8" opacity="0.60"/>
<circle cx="63" cy="163" r="1.5" fill="#fff1b8" opacity="0.32"/>
<circle cx="366" cy="502" r="2" fill="#fff1b8" opacity="0.49"/>
<circle cx="136" cy="584" r="1.5" fill="#fff1b8" opacity="0.74"/>
<circle cx="311" cy="146" r="2" fill="#fff1b8" opacity="0.54"/>
<circle cx="116" cy="342" r="1.5" fill="#fff1b8" opacity="0.75"/>
<circle cx="222" cy="341" r="1.2" fill="#fff1b8" opacity="0.58"/>
<circle cx="142" cy="156" r="1.2" fill="#fff1b8" opacity="0.74"/>
<circle cx="248" cy="565" r="1.5" fill="#fff1b8" opacity="0.67"/>
<path d="M70 104 C132 68 288 68 350 104 M70 556 C132 592 288 592 350 556" fill="none" stroke="#d6a24f" stroke-opacity=".28" stroke-width="2"/>
<text x="64" y="78" fill="#fff1b8" font-size="22" font-family="Georgia,serif">KNIGHT</text>
<text x="356" y="78" text-anchor="end" fill="#fff1b8" font-size="22" font-family="Georgia,serif">KNIGHT</text>
<g filter="url(#glow)"><ellipse cx="210" cy="430" rx="96" ry="22" fill="#93c5fd" opacity=".16"/><path d="M148 400 C164 310 186 250 210 220 C234 250 256 310 272 400 Z" fill="#38bdf8" opacity=".17" stroke="#38bdf8" stroke-width="3"/><circle cx="210" cy="214" r="40" fill="#93c5fd" opacity=".18" stroke="#93c5fd" stroke-width="3"/><text x="210" y="268" text-anchor="middle" font-size="74" fill="#38bdf8" font-family="Georgia,serif">♞</text><text x="210" y="356" text-anchor="middle" font-size="56" fill="#93c5fd" font-family="Georgia,serif">●</text></g>
<rect x="58" y="530" width="304" height="74" rx="17" fill="#050812" opacity=".74" stroke="#d6a24f" stroke-opacity=".30"/>
<text x="210" y="566" text-anchor="middle" fill="#fff7df" font-size="20" font-family="Georgia,serif">Knight of Cups</text>
<text x="210" y="592" text-anchor="middle" fill="#c9b27a" font-size="9" font-family="Arial" letter-spacing="3">FATECARD ORIGINAL</text>
</svg>