<svg xmlns="http://www.w3.org/2000/svg" width="420" height="660" viewBox="0 0 420 660" role="img" aria-label="Four of Wands">
  <defs>
    <linearGradient id="bg" x1="0" y1="0" x2="1" y2="1">
      <stop offset="0%" stop-color="#050816"/>
      <stop offset="45%" stop-color="#17102d"/>
      <stop offset="100%" stop-color="#020617"/>
    </linearGradient>
    <radialGradient id="aura" cx="50%" cy="38%" r="68%">
      <stop offset="0%" stop-color="#facc15" stop-opacity=".18"/>
      <stop offset="52%" stop-color="#a78bfa" stop-opacity=".10"/>
      <stop offset="100%" stop-color="#020617" stop-opacity="0"/>
    </radialGradient>
    <filter id="glow" x="-30%" y="-30%" width="160%" height="160%">
      <feDropShadow dx="0" dy="0" stdDeviation="6" flood-color="#fb923c" flood-opacity=".42"/>
    </filter>
  </defs>
  <rect width="420" height="660" rx="34" fill="url(#bg)"/>
  <rect x="20" y="20" width="380" height="620" rx="30" fill="url(#aura)" stroke="#facc15" stroke-opacity=".54" stroke-width="2"/>
  <rect x="35" y="35" width="350" height="590" rx="22" fill="none" stroke="#a78bfa" stroke-opacity=".18" stroke-width="1.5"/>
  <circle cx="238" cy="69" r="1.4" fill="#fde68a" opacity="0.73"/>
<circle cx="297" cy="288" r="1.0" fill="#fde68a" opacity="0.47"/>
<circle cx="312" cy="278" r="1.8" fill="#fde68a" opacity="0.45"/>
<circle cx="184" cy="516" r="1.0" fill="#fde68a" opacity="0.33"/>
<circle cx="295" cy="375" r="1.0" fill="#fde68a" opacity="0.71"/>
<circle cx="132" cy="286" r="1.0" fill="#fde68a" opacity="0.79"/>
<circle cx="331" cy="110" r="1.4" fill="#fde68a" opacity="0.30"/>
<circle cx="339" cy="160" r="1.0" fill="#fde68a" opacity="0.43"/>
<circle cx="198" cy="149" r="2.2" fill="#fde68a" opacity="0.30"/>
<circle cx="194" cy="175" r="1.0" fill="#fde68a" opacity="0.77"/>
<circle cx="325" cy="378" r="1.0" fill="#fde68a" opacity="0.64"/>
<circle cx="41" cy="228" r="2.2" fill="#fde68a" opacity="0.80"/>
<circle cx="211" cy="230" r="1.8" fill="#fde68a" opacity="0.76"/>
<circle cx="140" cy="56" r="1.0" fill="#fde68a" opacity="0.56"/>
<circle cx="350" cy="190" r="1.4" fill="#fde68a" opacity="0.67"/>
<circle cx="143" cy="471" r="1.0" fill="#fde68a" opacity="0.39"/>
<circle cx="328" cy="298" r="1.0" fill="#fde68a" opacity="0.33"/>
<circle cx="228" cy="204" r="1.0" fill="#fde68a" opacity="0.70"/>
<circle cx="83" cy="246" r="2.2" fill="#fde68a" opacity="0.66"/>
<circle cx="96" cy="265" r="1.0" fill="#fde68a" opacity="0.68"/>
<circle cx="175" cy="514" r="1.0" fill="#fde68a" opacity="0.81"/>
<circle cx="240" cy="210" r="1.8" fill="#fde68a" opacity="0.63"/>
<circle cx="117" cy="227" r="2.2" fill="#fde68a" opacity="0.81"/>
<circle cx="187" cy="311" r="1.0" fill="#fde68a" opacity="0.67"/>
<circle cx="152" cy="477" r="1.0" fill="#fde68a" opacity="0.76"/>
<circle cx="45" cy="408" r="2.2" fill="#fde68a" opacity="0.66"/>
<circle cx="106" cy="117" r="1.0" fill="#fde68a" opacity="0.56"/>
<circle cx="300" cy="358" r="1.4" fill="#fde68a" opacity="0.30"/>
<circle cx="78" cy="426" r="1.4" fill="#fde68a" opacity="0.69"/>
<circle cx="231" cy="480" r="1.0" fill="#fde68a" opacity="0.59"/>
<circle cx="318" cy="333" r="1.0" fill="#fde68a" opacity="0.33"/>
<circle cx="345" cy="487" r="1.0" fill="#fde68a" opacity="0.78"/>
<circle cx="231" cy="487" r="1.4" fill="#fde68a" opacity="0.49"/>
<circle cx="269" cy="383" r="1.4" fill="#fde68a" opacity="0.58"/>
  
    <path d="M55 118 C120 74 300 74 365 118" fill="none" stroke="#fb923c" stroke-opacity=".28" stroke-width="2"/>
    <path d="M55 542 C120 586 300 586 365 542" fill="none" stroke="#fb923c" stroke-opacity=".28" stroke-width="2"/>
    <path d="M74 88 L98 88 M322 88 L346 88 M74 572 L98 572 M322 572 L346 572" stroke="#facc15" stroke-opacity=".50" stroke-width="2" stroke-linecap="round"/>
    <circle cx="80" cy="100" r="10" fill="none" stroke="#facc15" stroke-opacity=".45"/>
    <circle cx="340" cy="100" r="10" fill="none" stroke="#facc15" stroke-opacity=".45"/>
    <circle cx="80" cy="560" r="10" fill="none" stroke="#facc15" stroke-opacity=".45"/>
    <circle cx="340" cy="560" r="10" fill="none" stroke="#facc15" stroke-opacity=".45"/>
    
  
            <circle cx="210" cy="286" r="132" fill="#fb923c" opacity=".065"/>
            <circle cx="210" cy="286" r="102" fill="none" stroke="#facc15" stroke-opacity=".36" stroke-width="2"/>
            <text x="210" y="164" text-anchor="middle" dominant-baseline="middle" font-size="42" font-family="Georgia, serif" fill="#fb923c" opacity=".94">♣</text><text x="154" y="220" text-anchor="middle" dominant-baseline="middle" font-size="42" font-family="Georgia, serif" fill="#fb923c" opacity=".94">♣</text><text x="266" y="220" text-anchor="middle" dominant-baseline="middle" font-size="42" font-family="Georgia, serif" fill="#fb923c" opacity=".94">♣</text><text x="154" y="302" text-anchor="middle" dominant-baseline="middle" font-size="42" font-family="Georgia, serif" fill="#fb923c" opacity=".94">♣</text>
            <text x="62" y="86" font-size="26" font-family="Georgia, serif" fill="#fff7ed">IV</text>
            <text x="358" y="86" text-anchor="end" font-size="26" font-family="Georgia, serif" fill="#fff7ed">IV</text>
            
  <rect x="58" y="522" width="304" height="76" rx="18" fill="#020617" opacity=".62" stroke="#facc15" stroke-opacity=".24"/>
  <text x="210" y="558" text-anchor="middle" font-size="20" font-family="Georgia, serif" fill="#fff7ed">Four of Wands</text>
  <text x="210" y="586" text-anchor="middle" font-size="9" font-family="Arial, sans-serif" letter-spacing="3" fill="#c4b5fd">ORIGINAL SYMBOLIC DECK</text>
</svg>