<svg xmlns="http://www.w3.org/2000/svg" width="420" height="660" viewBox="0 0 420 660" role="img" aria-label="Five of Swords">
  <defs>
    <linearGradient id="bg" x1="0" y1="0" x2="1" y2="1">
      <stop offset="0%" stop-color="#050816"/>
      <stop offset="45%" stop-color="#17102d"/>
      <stop offset="100%" stop-color="#020617"/>
    </linearGradient>
    <radialGradient id="aura" cx="50%" cy="38%" r="68%">
      <stop offset="0%" stop-color="#facc15" stop-opacity=".18"/>
      <stop offset="52%" stop-color="#a78bfa" stop-opacity=".10"/>
      <stop offset="100%" stop-color="#020617" stop-opacity="0"/>
    </radialGradient>
    <filter id="glow" x="-30%" y="-30%" width="160%" height="160%">
      <feDropShadow dx="0" dy="0" stdDeviation="6" flood-color="#c4b5fd" flood-opacity=".42"/>
    </filter>
  </defs>
  <rect width="420" height="660" rx="34" fill="url(#bg)"/>
  <rect x="20" y="20" width="380" height="620" rx="30" fill="url(#aura)" stroke="#facc15" stroke-opacity=".54" stroke-width="2"/>
  <rect x="35" y="35" width="350" height="590" rx="22" fill="none" stroke="#a78bfa" stroke-opacity=".18" stroke-width="1.5"/>
  <circle cx="210" cy="478" r="1.4" fill="#fde68a" opacity="0.55"/>
<circle cx="188" cy="129" r="1.8" fill="#fde68a" opacity="0.72"/>
<circle cx="47" cy="244" r="2.2" fill="#fde68a" opacity="0.39"/>
<circle cx="93" cy="415" r="1.0" fill="#fde68a" opacity="0.32"/>
<circle cx="314" cy="392" r="1.4" fill="#fde68a" opacity="0.65"/>
<circle cx="277" cy="353" r="1.0" fill="#fde68a" opacity="0.71"/>
<circle cx="343" cy="416" r="2.2" fill="#fde68a" opacity="0.73"/>
<circle cx="45" cy="176" r="1.8" fill="#fde68a" opacity="0.34"/>
<circle cx="309" cy="473" r="2.2" fill="#fde68a" opacity="0.77"/>
<circle cx="88" cy="379" r="1.4" fill="#fde68a" opacity="0.79"/>
<circle cx="141" cy="272" r="1.0" fill="#fde68a" opacity="0.82"/>
<circle cx="314" cy="382" r="1.8" fill="#fde68a" opacity="0.38"/>
<circle cx="52" cy="292" r="1.0" fill="#fde68a" opacity="0.56"/>
<circle cx="138" cy="243" r="2.2" fill="#fde68a" opacity="0.45"/>
<circle cx="356" cy="522" r="1.8" fill="#fde68a" opacity="0.71"/>
<circle cx="219" cy="571" r="1.0" fill="#fde68a" opacity="0.33"/>
<circle cx="244" cy="471" r="1.0" fill="#fde68a" opacity="0.74"/>
<circle cx="42" cy="579" r="1.8" fill="#fde68a" opacity="0.84"/>
<circle cx="237" cy="139" r="1.0" fill="#fde68a" opacity="0.81"/>
<circle cx="243" cy="360" r="1.0" fill="#fde68a" opacity="0.80"/>
<circle cx="249" cy="271" r="1.0" fill="#fde68a" opacity="0.52"/>
<circle cx="219" cy="538" r="1.4" fill="#fde68a" opacity="0.40"/>
<circle cx="269" cy="87" r="1.0" fill="#fde68a" opacity="0.73"/>
<circle cx="209" cy="487" r="1.0" fill="#fde68a" opacity="0.38"/>
<circle cx="66" cy="427" r="1.0" fill="#fde68a" opacity="0.44"/>
<circle cx="123" cy="206" r="1.4" fill="#fde68a" opacity="0.61"/>
<circle cx="284" cy="444" r="1.4" fill="#fde68a" opacity="0.44"/>
<circle cx="378" cy="144" r="1.4" fill="#fde68a" opacity="0.31"/>
<circle cx="51" cy="193" r="2.2" fill="#fde68a" opacity="0.47"/>
<circle cx="372" cy="141" r="1.4" fill="#fde68a" opacity="0.36"/>
<circle cx="253" cy="377" r="1.4" fill="#fde68a" opacity="0.71"/>
<circle cx="293" cy="135" r="1.4" fill="#fde68a" opacity="0.46"/>
<circle cx="263" cy="473" r="1.8" fill="#fde68a" opacity="0.83"/>
<circle cx="278" cy="288" r="1.8" fill="#fde68a" opacity="0.31"/>
  
    <path d="M55 118 C120 74 300 74 365 118" fill="none" stroke="#c4b5fd" stroke-opacity=".28" stroke-width="2"/>
    <path d="M55 542 C120 586 300 586 365 542" fill="none" stroke="#c4b5fd" stroke-opacity=".28" stroke-width="2"/>
    <path d="M74 88 L98 88 M322 88 L346 88 M74 572 L98 572 M322 572 L346 572" stroke="#e0e7ff" stroke-opacity=".50" stroke-width="2" stroke-linecap="round"/>
    <circle cx="80" cy="100" r="10" fill="none" stroke="#e0e7ff" stroke-opacity=".45"/>
    <circle cx="340" cy="100" r="10" fill="none" stroke="#e0e7ff" stroke-opacity=".45"/>
    <circle cx="80" cy="560" r="10" fill="none" stroke="#e0e7ff" stroke-opacity=".45"/>
    <circle cx="340" cy="560" r="10" fill="none" stroke="#e0e7ff" stroke-opacity=".45"/>
    
  
            <circle cx="210" cy="286" r="132" fill="#c4b5fd" opacity=".065"/>
            <circle cx="210" cy="286" r="102" fill="none" stroke="#e0e7ff" stroke-opacity=".36" stroke-width="2"/>
            <text x="210" y="164" text-anchor="middle" dominant-baseline="middle" font-size="42" font-family="Georgia, serif" fill="#c4b5fd" opacity=".94">◆</text><text x="154" y="220" text-anchor="middle" dominant-baseline="middle" font-size="42" font-family="Georgia, serif" fill="#c4b5fd" opacity=".94">◆</text><text x="266" y="220" text-anchor="middle" dominant-baseline="middle" font-size="42" font-family="Georgia, serif" fill="#c4b5fd" opacity=".94">◆</text><text x="154" y="302" text-anchor="middle" dominant-baseline="middle" font-size="42" font-family="Georgia, serif" fill="#c4b5fd" opacity=".94">◆</text><text x="266" y="302" text-anchor="middle" dominant-baseline="middle" font-size="42" font-family="Georgia, serif" fill="#c4b5fd" opacity=".94">◆</text>
            <text x="62" y="86" font-size="26" font-family="Georgia, serif" fill="#fff7ed">V</text>
            <text x="358" y="86" text-anchor="end" font-size="26" font-family="Georgia, serif" fill="#fff7ed">V</text>
            
  <rect x="58" y="522" width="304" height="76" rx="18" fill="#020617" opacity=".62" stroke="#facc15" stroke-opacity=".24"/>
  <text x="210" y="558" text-anchor="middle" font-size="20" font-family="Georgia, serif" fill="#fff7ed">Five of Swords</text>
  <text x="210" y="586" text-anchor="middle" font-size="9" font-family="Arial, sans-serif" letter-spacing="3" fill="#c4b5fd">ORIGINAL SYMBOLIC DECK</text>
</svg>