<svg xmlns="http://www.w3.org/2000/svg" width="420" height="660" viewBox="0 0 420 660" role="img" aria-label="Six of Pentacles">
  <defs>
    <linearGradient id="bg" x1="0" y1="0" x2="1" y2="1">
      <stop offset="0%" stop-color="#050816"/>
      <stop offset="45%" stop-color="#17102d"/>
      <stop offset="100%" stop-color="#020617"/>
    </linearGradient>
    <radialGradient id="aura" cx="50%" cy="38%" r="68%">
      <stop offset="0%" stop-color="#facc15" stop-opacity=".18"/>
      <stop offset="52%" stop-color="#a78bfa" stop-opacity=".10"/>
      <stop offset="100%" stop-color="#020617" stop-opacity="0"/>
    </radialGradient>
    <filter id="glow" x="-30%" y="-30%" width="160%" height="160%">
      <feDropShadow dx="0" dy="0" stdDeviation="6" flood-color="#34d399" flood-opacity=".42"/>
    </filter>
  </defs>
  <rect width="420" height="660" rx="34" fill="url(#bg)"/>
  <rect x="20" y="20" width="380" height="620" rx="30" fill="url(#aura)" stroke="#facc15" stroke-opacity=".54" stroke-width="2"/>
  <rect x="35" y="35" width="350" height="590" rx="22" fill="none" stroke="#a78bfa" stroke-opacity=".18" stroke-width="1.5"/>
  <circle cx="364" cy="187" r="2.2" fill="#fde68a" opacity="0.42"/>
<circle cx="213" cy="364" r="2.2" fill="#fde68a" opacity="0.73"/>
<circle cx="305" cy="512" r="1.0" fill="#fde68a" opacity="0.56"/>
<circle cx="83" cy="548" r="1.4" fill="#fde68a" opacity="0.48"/>
<circle cx="138" cy="193" r="1.0" fill="#fde68a" opacity="0.48"/>
<circle cx="254" cy="453" r="1.8" fill="#fde68a" opacity="0.75"/>
<circle cx="134" cy="93" r="1.0" fill="#fde68a" opacity="0.55"/>
<circle cx="280" cy="282" r="2.2" fill="#fde68a" opacity="0.74"/>
<circle cx="79" cy="275" r="2.2" fill="#fde68a" opacity="0.73"/>
<circle cx="332" cy="479" r="1.4" fill="#fde68a" opacity="0.74"/>
<circle cx="230" cy="410" r="1.8" fill="#fde68a" opacity="0.77"/>
<circle cx="195" cy="184" r="1.0" fill="#fde68a" opacity="0.79"/>
<circle cx="302" cy="395" r="1.4" fill="#fde68a" opacity="0.72"/>
<circle cx="253" cy="201" r="1.0" fill="#fde68a" opacity="0.30"/>
<circle cx="88" cy="514" r="1.0" fill="#fde68a" opacity="0.31"/>
<circle cx="259" cy="513" r="1.0" fill="#fde68a" opacity="0.73"/>
<circle cx="223" cy="328" r="2.2" fill="#fde68a" opacity="0.64"/>
<circle cx="95" cy="542" r="1.0" fill="#fde68a" opacity="0.58"/>
<circle cx="63" cy="462" r="2.2" fill="#fde68a" opacity="0.52"/>
<circle cx="101" cy="439" r="2.2" fill="#fde68a" opacity="0.40"/>
<circle cx="286" cy="541" r="1.4" fill="#fde68a" opacity="0.70"/>
<circle cx="374" cy="551" r="2.2" fill="#fde68a" opacity="0.78"/>
<circle cx="328" cy="563" r="1.0" fill="#fde68a" opacity="0.65"/>
<circle cx="309" cy="254" r="1.8" fill="#fde68a" opacity="0.67"/>
<circle cx="190" cy="497" r="2.2" fill="#fde68a" opacity="0.40"/>
<circle cx="328" cy="80" r="1.8" fill="#fde68a" opacity="0.50"/>
<circle cx="280" cy="574" r="2.2" fill="#fde68a" opacity="0.31"/>
<circle cx="91" cy="567" r="1.4" fill="#fde68a" opacity="0.44"/>
<circle cx="187" cy="101" r="1.0" fill="#fde68a" opacity="0.73"/>
<circle cx="114" cy="69" r="1.4" fill="#fde68a" opacity="0.52"/>
<circle cx="255" cy="275" r="1.0" fill="#fde68a" opacity="0.76"/>
<circle cx="376" cy="396" r="1.0" fill="#fde68a" opacity="0.49"/>
<circle cx="214" cy="565" r="1.4" fill="#fde68a" opacity="0.65"/>
<circle cx="320" cy="66" r="1.8" fill="#fde68a" opacity="0.40"/>
  
    <path d="M55 118 C120 74 300 74 365 118" fill="none" stroke="#34d399" stroke-opacity=".28" stroke-width="2"/>
    <path d="M55 542 C120 586 300 586 365 542" fill="none" stroke="#34d399" stroke-opacity=".28" stroke-width="2"/>
    <path d="M74 88 L98 88 M322 88 L346 88 M74 572 L98 572 M322 572 L346 572" stroke="#fde68a" stroke-opacity=".50" stroke-width="2" stroke-linecap="round"/>
    <circle cx="80" cy="100" r="10" fill="none" stroke="#fde68a" stroke-opacity=".45"/>
    <circle cx="340" cy="100" r="10" fill="none" stroke="#fde68a" stroke-opacity=".45"/>
    <circle cx="80" cy="560" r="10" fill="none" stroke="#fde68a" stroke-opacity=".45"/>
    <circle cx="340" cy="560" r="10" fill="none" stroke="#fde68a" stroke-opacity=".45"/>
    
  
            <circle cx="210" cy="286" r="132" fill="#34d399" opacity=".065"/>
            <circle cx="210" cy="286" r="102" fill="none" stroke="#fde68a" stroke-opacity=".36" stroke-width="2"/>
            <text x="210" y="164" text-anchor="middle" dominant-baseline="middle" font-size="42" font-family="Georgia, serif" fill="#34d399" opacity=".94">⬟</text><text x="154" y="220" text-anchor="middle" dominant-baseline="middle" font-size="42" font-family="Georgia, serif" fill="#34d399" opacity=".94">⬟</text><text x="266" y="220" text-anchor="middle" dominant-baseline="middle" font-size="42" font-family="Georgia, serif" fill="#34d399" opacity=".94">⬟</text><text x="154" y="302" text-anchor="middle" dominant-baseline="middle" font-size="42" font-family="Georgia, serif" fill="#34d399" opacity=".94">⬟</text><text x="266" y="302" text-anchor="middle" dominant-baseline="middle" font-size="42" font-family="Georgia, serif" fill="#34d399" opacity=".94">⬟</text><text x="210" y="360" text-anchor="middle" dominant-baseline="middle" font-size="42" font-family="Georgia, serif" fill="#34d399" opacity=".94">⬟</text>
            <text x="62" y="86" font-size="26" font-family="Georgia, serif" fill="#fff7ed">VI</text>
            <text x="358" y="86" text-anchor="end" font-size="26" font-family="Georgia, serif" fill="#fff7ed">VI</text>
            
  <rect x="58" y="522" width="304" height="76" rx="18" fill="#020617" opacity=".62" stroke="#facc15" stroke-opacity=".24"/>
  <text x="210" y="558" text-anchor="middle" font-size="20" font-family="Georgia, serif" fill="#fff7ed">Six of Pentacles</text>
  <text x="210" y="586" text-anchor="middle" font-size="9" font-family="Arial, sans-serif" letter-spacing="3" fill="#c4b5fd">ORIGINAL SYMBOLIC DECK</text>
</svg>