<svg xmlns="http://www.w3.org/2000/svg" width="420" height="660" viewBox="0 0 420 660" role="img" aria-label="Three of Pentacles">
<defs>
<linearGradient id="bg" x1="0" y1="0" x2="1" y2="1"><stop stop-color="#080b18"/><stop offset=".52" stop-color="#211436"/><stop offset="1" stop-color="#050812"/></linearGradient>
<radialGradient id="a" cx="50%" cy="40%" r="64%"><stop stop-color="#34d399" stop-opacity=".22"/><stop offset=".55" stop-color="#fde68a" stop-opacity=".12"/><stop offset="1" stop-color="#000" stop-opacity="0"/></radialGradient>
<filter id="glow"><feDropShadow dx="0" dy="0" stdDeviation="5" flood-color="#34d399" flood-opacity=".42"/></filter>
</defs>
<rect width="420" height="660" rx="34" fill="url(#bg)"/>
<rect x="18" y="18" width="384" height="624" rx="30" fill="url(#a)" stroke="#d6a24f" stroke-opacity=".82" stroke-width="2.4"/>
<rect x="36" y="36" width="348" height="588" rx="22" fill="none" stroke="#fde68a" stroke-opacity=".28" stroke-width="1.5"/>
<circle cx="268" cy="124" r="1.5" fill="#fff1b8" opacity="0.71"/>
<circle cx="191" cy="170" r="1" fill="#fff1b8" opacity="0.53"/>
<circle cx="227" cy="195" r="1" fill="#fff1b8" opacity="0.38"/>
<circle cx="321" cy="116" r="1.2" fill="#fff1b8" opacity="0.40"/>
<circle cx="93" cy="528" r="2" fill="#fff1b8" opacity="0.66"/>
<circle cx="203" cy="127" r="1.5" fill="#fff1b8" opacity="0.49"/>
<circle cx="286" cy="131" r="1" fill="#fff1b8" opacity="0.26"/>
<circle cx="261" cy="112" r="2" fill="#fff1b8" opacity="0.73"/>
<circle cx="252" cy="382" r="1.2" fill="#fff1b8" opacity="0.66"/>
<circle cx="137" cy="484" r="1.2" fill="#fff1b8" opacity="0.30"/>
<circle cx="127" cy="511" r="1" fill="#fff1b8" opacity="0.43"/>
<circle cx="144" cy="422" r="1.2" fill="#fff1b8" opacity="0.43"/>
<circle cx="201" cy="328" r="1.5" fill="#fff1b8" opacity="0.49"/>
<circle cx="359" cy="206" r="2" fill="#fff1b8" opacity="0.32"/>
<circle cx="162" cy="155" r="1" fill="#fff1b8" opacity="0.71"/>
<circle cx="83" cy="315" r="2" fill="#fff1b8" opacity="0.58"/>
<circle cx="315" cy="267" r="2" fill="#fff1b8" opacity="0.63"/>
<circle cx="109" cy="483" r="1.2" fill="#fff1b8" opacity="0.52"/>
<circle cx="230" cy="110" r="1" fill="#fff1b8" opacity="0.65"/>
<circle cx="358" cy="263" r="1.5" fill="#fff1b8" opacity="0.70"/>
<circle cx="45" cy="109" r="1" fill="#fff1b8" opacity="0.52"/>
<circle cx="242" cy="247" r="1.2" fill="#fff1b8" opacity="0.67"/>
<circle cx="361" cy="512" r="2" fill="#fff1b8" opacity="0.59"/>
<circle cx="263" cy="468" r="1.2" fill="#fff1b8" opacity="0.41"/>
<circle cx="350" cy="205" r="1" fill="#fff1b8" opacity="0.37"/>
<circle cx="162" cy="132" r="1.5" fill="#fff1b8" opacity="0.71"/>
<circle cx="227" cy="265" r="1" fill="#fff1b8" opacity="0.37"/>
<circle cx="147" cy="590" r="1.2" fill="#fff1b8" opacity="0.66"/>
<circle cx="226" cy="587" r="2" fill="#fff1b8" opacity="0.50"/>
<circle cx="189" cy="118" r="1.5" fill="#fff1b8" opacity="0.33"/>
<circle cx="324" cy="411" r="1" fill="#fff1b8" opacity="0.56"/>
<circle cx="173" cy="259" r="1" fill="#fff1b8" opacity="0.58"/>
<circle cx="186" cy="390" r="1" fill="#fff1b8" opacity="0.34"/>
<circle cx="303" cy="320" r="2" fill="#fff1b8" opacity="0.39"/>
<circle cx="138" cy="394" r="2" fill="#fff1b8" opacity="0.41"/>
<circle cx="190" cy="582" r="1" fill="#fff1b8" opacity="0.37"/>
<circle cx="80" cy="359" r="1.2" fill="#fff1b8" opacity="0.55"/>
<circle cx="236" cy="74" r="1.2" fill="#fff1b8" opacity="0.60"/>
<path d="M70 104 C132 68 288 68 350 104 M70 556 C132 592 288 592 350 556" fill="none" stroke="#d6a24f" stroke-opacity=".28" stroke-width="2"/>
<text x="64" y="78" fill="#fff1b8" font-size="22" font-family="Georgia,serif">III</text>
<text x="356" y="78" text-anchor="end" fill="#fff1b8" font-size="22" font-family="Georgia,serif">III</text>
<g filter="url(#glow)"><circle cx="210" cy="292" r="122" fill="#fde68a" opacity=".08"/><circle cx="210" cy="292" r="92" fill="none" stroke="#34d399" stroke-opacity=".36" stroke-width="2"/><text x="210" y="156" text-anchor="middle" dominant-baseline="middle" font-size="42" fill="#34d399" font-family="Georgia,serif">⬟</text><text x="154" y="218" text-anchor="middle" dominant-baseline="middle" font-size="42" fill="#34d399" font-family="Georgia,serif">⬟</text><text x="266" y="218" text-anchor="middle" dominant-baseline="middle" font-size="42" fill="#34d399" font-family="Georgia,serif">⬟</text><path d="M130 464 C172 428 248 428 290 464" fill="none" stroke="#34d399" stroke-width="5" stroke-linecap="round" opacity=".6"/></g>
<rect x="58" y="530" width="304" height="74" rx="17" fill="#050812" opacity=".74" stroke="#d6a24f" stroke-opacity=".30"/>
<text x="210" y="566" text-anchor="middle" fill="#fff7df" font-size="20" font-family="Georgia,serif">Three of Pentacles</text>
<text x="210" y="592" text-anchor="middle" fill="#c9b27a" font-size="9" font-family="Arial" letter-spacing="3">FATECARD ORIGINAL</text>
</svg>