<svg xmlns="http://www.w3.org/2000/svg" width="420" height="660" viewBox="0 0 420 660" role="img" aria-label="King of Cups">
<defs>
<linearGradient id="bg" x1="0" y1="0" x2="1" y2="1"><stop stop-color="#080b18"/><stop offset=".52" stop-color="#211436"/><stop offset="1" stop-color="#050812"/></linearGradient>
<radialGradient id="a" cx="50%" cy="40%" r="64%"><stop stop-color="#38bdf8" stop-opacity=".22"/><stop offset=".55" stop-color="#93c5fd" stop-opacity=".12"/><stop offset="1" stop-color="#000" stop-opacity="0"/></radialGradient>
<filter id="glow"><feDropShadow dx="0" dy="0" stdDeviation="5" flood-color="#38bdf8" flood-opacity=".42"/></filter>
</defs>
<rect width="420" height="660" rx="34" fill="url(#bg)"/>
<rect x="18" y="18" width="384" height="624" rx="30" fill="url(#a)" stroke="#d6a24f" stroke-opacity=".82" stroke-width="2.4"/>
<rect x="36" y="36" width="348" height="588" rx="22" fill="none" stroke="#93c5fd" stroke-opacity=".28" stroke-width="1.5"/>
<circle cx="316" cy="299" r="1.2" fill="#fff1b8" opacity="0.60"/>
<circle cx="65" cy="531" r="1.2" fill="#fff1b8" opacity="0.62"/>
<circle cx="127" cy="503" r="2" fill="#fff1b8" opacity="0.31"/>
<circle cx="293" cy="283" r="1" fill="#fff1b8" opacity="0.71"/>
<circle cx="368" cy="478" r="1" fill="#fff1b8" opacity="0.76"/>
<circle cx="330" cy="373" r="1.5" fill="#fff1b8" opacity="0.31"/>
<circle cx="210" cy="151" r="1.5" fill="#fff1b8" opacity="0.65"/>
<circle cx="156" cy="341" r="1.2" fill="#fff1b8" opacity="0.31"/>
<circle cx="157" cy="368" r="1.2" fill="#fff1b8" opacity="0.47"/>
<circle cx="347" cy="243" r="1.2" fill="#fff1b8" opacity="0.57"/>
<circle cx="237" cy="223" r="2" fill="#fff1b8" opacity="0.65"/>
<circle cx="210" cy="256" r="1" fill="#fff1b8" opacity="0.72"/>
<circle cx="228" cy="199" r="1.2" fill="#fff1b8" opacity="0.33"/>
<circle cx="75" cy="521" r="1.2" fill="#fff1b8" opacity="0.42"/>
<circle cx="234" cy="375" r="1" fill="#fff1b8" opacity="0.54"/>
<circle cx="167" cy="363" r="1.5" fill="#fff1b8" opacity="0.61"/>
<circle cx="94" cy="513" r="1.2" fill="#fff1b8" opacity="0.42"/>
<circle cx="171" cy="159" r="1.5" fill="#fff1b8" opacity="0.33"/>
<circle cx="45" cy="510" r="1.5" fill="#fff1b8" opacity="0.74"/>
<circle cx="163" cy="91" r="1.2" fill="#fff1b8" opacity="0.76"/>
<circle cx="365" cy="358" r="1.2" fill="#fff1b8" opacity="0.77"/>
<circle cx="140" cy="103" r="2" fill="#fff1b8" opacity="0.54"/>
<circle cx="266" cy="289" r="2" fill="#fff1b8" opacity="0.44"/>
<circle cx="292" cy="585" r="2" fill="#fff1b8" opacity="0.36"/>
<circle cx="44" cy="351" r="1" fill="#fff1b8" opacity="0.34"/>
<circle cx="121" cy="139" r="1.2" fill="#fff1b8" opacity="0.36"/>
<circle cx="141" cy="440" r="1.2" fill="#fff1b8" opacity="0.67"/>
<circle cx="325" cy="86" r="1" fill="#fff1b8" opacity="0.30"/>
<circle cx="74" cy="538" r="1.2" fill="#fff1b8" opacity="0.56"/>
<circle cx="252" cy="404" r="2" fill="#fff1b8" opacity="0.43"/>
<circle cx="364" cy="133" r="2" fill="#fff1b8" opacity="0.45"/>
<circle cx="223" cy="544" r="2" fill="#fff1b8" opacity="0.64"/>
<circle cx="371" cy="221" r="1" fill="#fff1b8" opacity="0.26"/>
<circle cx="57" cy="503" r="2" fill="#fff1b8" opacity="0.44"/>
<circle cx="294" cy="363" r="1.2" fill="#fff1b8" opacity="0.49"/>
<circle cx="363" cy="86" r="1.2" fill="#fff1b8" opacity="0.26"/>
<circle cx="144" cy="90" r="2" fill="#fff1b8" opacity="0.31"/>
<circle cx="118" cy="154" r="1" fill="#fff1b8" opacity="0.78"/>
<path d="M70 104 C132 68 288 68 350 104 M70 556 C132 592 288 592 350 556" fill="none" stroke="#d6a24f" stroke-opacity=".28" stroke-width="2"/>
<text x="64" y="78" fill="#fff1b8" font-size="22" font-family="Georgia,serif">KING</text>
<text x="356" y="78" text-anchor="end" fill="#fff1b8" font-size="22" font-family="Georgia,serif">KING</text>
<g filter="url(#glow)"><ellipse cx="210" cy="430" rx="96" ry="22" fill="#93c5fd" opacity=".16"/><path d="M148 400 C164 310 186 250 210 220 C234 250 256 310 272 400 Z" fill="#38bdf8" opacity=".17" stroke="#38bdf8" stroke-width="3"/><circle cx="210" cy="214" r="40" fill="#93c5fd" opacity=".18" stroke="#93c5fd" stroke-width="3"/><text x="210" y="268" text-anchor="middle" font-size="74" fill="#38bdf8" font-family="Georgia,serif">♚</text><text x="210" y="356" text-anchor="middle" font-size="56" fill="#93c5fd" font-family="Georgia,serif">●</text></g>
<rect x="58" y="530" width="304" height="74" rx="17" fill="#050812" opacity=".74" stroke="#d6a24f" stroke-opacity=".30"/>
<text x="210" y="566" text-anchor="middle" fill="#fff7df" font-size="20" font-family="Georgia,serif">King of Cups</text>
<text x="210" y="592" text-anchor="middle" fill="#c9b27a" font-size="9" font-family="Arial" letter-spacing="3">FATECARD ORIGINAL</text>
</svg>