<svg xmlns="http://www.w3.org/2000/svg" width="420" height="660" viewBox="0 0 420 660" role="img" aria-label="Two of Cups">
  <defs>
    <linearGradient id="bg" x1="0" y1="0" x2="1" y2="1">
      <stop offset="0%" stop-color="#050816"/>
      <stop offset="45%" stop-color="#17102d"/>
      <stop offset="100%" stop-color="#020617"/>
    </linearGradient>
    <radialGradient id="aura" cx="50%" cy="38%" r="68%">
      <stop offset="0%" stop-color="#facc15" stop-opacity=".18"/>
      <stop offset="52%" stop-color="#a78bfa" stop-opacity=".10"/>
      <stop offset="100%" stop-color="#020617" stop-opacity="0"/>
    </radialGradient>
    <filter id="glow" x="-30%" y="-30%" width="160%" height="160%">
      <feDropShadow dx="0" dy="0" stdDeviation="6" flood-color="#38bdf8" flood-opacity=".42"/>
    </filter>
  </defs>
  <rect width="420" height="660" rx="34" fill="url(#bg)"/>
  <rect x="20" y="20" width="380" height="620" rx="30" fill="url(#aura)" stroke="#facc15" stroke-opacity=".54" stroke-width="2"/>
  <rect x="35" y="35" width="350" height="590" rx="22" fill="none" stroke="#a78bfa" stroke-opacity=".18" stroke-width="1.5"/>
  <circle cx="50" cy="99" r="1.8" fill="#fde68a" opacity="0.46"/>
<circle cx="233" cy="278" r="1.0" fill="#fde68a" opacity="0.44"/>
<circle cx="235" cy="456" r="1.8" fill="#fde68a" opacity="0.29"/>
<circle cx="50" cy="370" r="1.8" fill="#fde68a" opacity="0.83"/>
<circle cx="251" cy="235" r="1.0" fill="#fde68a" opacity="0.29"/>
<circle cx="360" cy="362" r="1.0" fill="#fde68a" opacity="0.57"/>
<circle cx="135" cy="54" r="1.0" fill="#fde68a" opacity="0.43"/>
<circle cx="259" cy="241" r="1.0" fill="#fde68a" opacity="0.36"/>
<circle cx="245" cy="120" r="2.2" fill="#fde68a" opacity="0.58"/>
<circle cx="63" cy="325" r="1.0" fill="#fde68a" opacity="0.57"/>
<circle cx="74" cy="83" r="1.4" fill="#fde68a" opacity="0.53"/>
<circle cx="373" cy="56" r="1.0" fill="#fde68a" opacity="0.44"/>
<circle cx="168" cy="529" r="1.0" fill="#fde68a" opacity="0.47"/>
<circle cx="309" cy="144" r="1.0" fill="#fde68a" opacity="0.66"/>
<circle cx="216" cy="188" r="1.0" fill="#fde68a" opacity="0.55"/>
<circle cx="277" cy="445" r="1.8" fill="#fde68a" opacity="0.56"/>
<circle cx="315" cy="542" r="1.0" fill="#fde68a" opacity="0.72"/>
<circle cx="328" cy="55" r="2.2" fill="#fde68a" opacity="0.80"/>
<circle cx="252" cy="371" r="2.2" fill="#fde68a" opacity="0.67"/>
<circle cx="288" cy="178" r="1.0" fill="#fde68a" opacity="0.30"/>
<circle cx="276" cy="83" r="1.0" fill="#fde68a" opacity="0.47"/>
<circle cx="38" cy="134" r="1.4" fill="#fde68a" opacity="0.36"/>
<circle cx="280" cy="228" r="2.2" fill="#fde68a" opacity="0.52"/>
<circle cx="293" cy="82" r="2.2" fill="#fde68a" opacity="0.64"/>
<circle cx="201" cy="66" r="2.2" fill="#fde68a" opacity="0.61"/>
<circle cx="170" cy="546" r="1.4" fill="#fde68a" opacity="0.38"/>
<circle cx="40" cy="419" r="1.0" fill="#fde68a" opacity="0.50"/>
<circle cx="38" cy="486" r="1.0" fill="#fde68a" opacity="0.48"/>
<circle cx="104" cy="432" r="1.0" fill="#fde68a" opacity="0.48"/>
<circle cx="190" cy="436" r="1.4" fill="#fde68a" opacity="0.33"/>
<circle cx="270" cy="239" r="1.4" fill="#fde68a" opacity="0.58"/>
<circle cx="61" cy="505" r="2.2" fill="#fde68a" opacity="0.40"/>
<circle cx="197" cy="126" r="1.8" fill="#fde68a" opacity="0.64"/>
<circle cx="256" cy="534" r="2.2" fill="#fde68a" opacity="0.60"/>
  
    <path d="M55 118 C120 74 300 74 365 118" fill="none" stroke="#38bdf8" stroke-opacity=".28" stroke-width="2"/>
    <path d="M55 542 C120 586 300 586 365 542" fill="none" stroke="#38bdf8" stroke-opacity=".28" stroke-width="2"/>
    <path d="M74 88 L98 88 M322 88 L346 88 M74 572 L98 572 M322 572 L346 572" stroke="#93c5fd" stroke-opacity=".50" stroke-width="2" stroke-linecap="round"/>
    <circle cx="80" cy="100" r="10" fill="none" stroke="#93c5fd" stroke-opacity=".45"/>
    <circle cx="340" cy="100" r="10" fill="none" stroke="#93c5fd" stroke-opacity=".45"/>
    <circle cx="80" cy="560" r="10" fill="none" stroke="#93c5fd" stroke-opacity=".45"/>
    <circle cx="340" cy="560" r="10" fill="none" stroke="#93c5fd" stroke-opacity=".45"/>
    
  
            <circle cx="210" cy="286" r="132" fill="#38bdf8" opacity=".065"/>
            <circle cx="210" cy="286" r="102" fill="none" stroke="#93c5fd" stroke-opacity=".36" stroke-width="2"/>
            <text x="210" y="164" text-anchor="middle" dominant-baseline="middle" font-size="42" font-family="Georgia, serif" fill="#38bdf8" opacity=".94">●</text><text x="154" y="220" text-anchor="middle" dominant-baseline="middle" font-size="42" font-family="Georgia, serif" fill="#38bdf8" opacity=".94">●</text>
            <text x="62" y="86" font-size="26" font-family="Georgia, serif" fill="#fff7ed">II</text>
            <text x="358" y="86" text-anchor="end" font-size="26" font-family="Georgia, serif" fill="#fff7ed">II</text>
            
  <rect x="58" y="522" width="304" height="76" rx="18" fill="#020617" opacity=".62" stroke="#facc15" stroke-opacity=".24"/>
  <text x="210" y="558" text-anchor="middle" font-size="20" font-family="Georgia, serif" fill="#fff7ed">Two of Cups</text>
  <text x="210" y="586" text-anchor="middle" font-size="9" font-family="Arial, sans-serif" letter-spacing="3" fill="#c4b5fd">ORIGINAL SYMBOLIC DECK</text>
</svg>