<svg xmlns="http://www.w3.org/2000/svg" width="420" height="660" viewBox="0 0 420 660" role="img" aria-label="Seven of Pentacles">
  <defs>
    <linearGradient id="bg" x1="0" y1="0" x2="1" y2="1">
      <stop offset="0%" stop-color="#050816"/>
      <stop offset="45%" stop-color="#17102d"/>
      <stop offset="100%" stop-color="#020617"/>
    </linearGradient>
    <radialGradient id="aura" cx="50%" cy="38%" r="68%">
      <stop offset="0%" stop-color="#facc15" stop-opacity=".18"/>
      <stop offset="52%" stop-color="#a78bfa" stop-opacity=".10"/>
      <stop offset="100%" stop-color="#020617" stop-opacity="0"/>
    </radialGradient>
    <filter id="glow" x="-30%" y="-30%" width="160%" height="160%">
      <feDropShadow dx="0" dy="0" stdDeviation="6" flood-color="#34d399" flood-opacity=".42"/>
    </filter>
  </defs>
  <rect width="420" height="660" rx="34" fill="url(#bg)"/>
  <rect x="20" y="20" width="380" height="620" rx="30" fill="url(#aura)" stroke="#facc15" stroke-opacity=".54" stroke-width="2"/>
  <rect x="35" y="35" width="350" height="590" rx="22" fill="none" stroke="#a78bfa" stroke-opacity=".18" stroke-width="1.5"/>
  <circle cx="238" cy="505" r="1.0" fill="#fde68a" opacity="0.69"/>
<circle cx="231" cy="337" r="2.2" fill="#fde68a" opacity="0.76"/>
<circle cx="82" cy="578" r="1.4" fill="#fde68a" opacity="0.38"/>
<circle cx="82" cy="376" r="1.0" fill="#fde68a" opacity="0.79"/>
<circle cx="212" cy="89" r="1.4" fill="#fde68a" opacity="0.66"/>
<circle cx="135" cy="387" r="1.0" fill="#fde68a" opacity="0.49"/>
<circle cx="222" cy="572" r="1.0" fill="#fde68a" opacity="0.83"/>
<circle cx="253" cy="509" r="1.8" fill="#fde68a" opacity="0.62"/>
<circle cx="229" cy="259" r="1.4" fill="#fde68a" opacity="0.53"/>
<circle cx="87" cy="290" r="1.4" fill="#fde68a" opacity="0.64"/>
<circle cx="359" cy="329" r="2.2" fill="#fde68a" opacity="0.34"/>
<circle cx="62" cy="181" r="2.2" fill="#fde68a" opacity="0.79"/>
<circle cx="162" cy="380" r="1.4" fill="#fde68a" opacity="0.61"/>
<circle cx="358" cy="555" r="1.0" fill="#fde68a" opacity="0.76"/>
<circle cx="118" cy="550" r="2.2" fill="#fde68a" opacity="0.37"/>
<circle cx="335" cy="381" r="1.0" fill="#fde68a" opacity="0.81"/>
<circle cx="163" cy="350" r="1.4" fill="#fde68a" opacity="0.79"/>
<circle cx="171" cy="560" r="1.4" fill="#fde68a" opacity="0.76"/>
<circle cx="176" cy="234" r="1.0" fill="#fde68a" opacity="0.66"/>
<circle cx="285" cy="329" r="1.0" fill="#fde68a" opacity="0.59"/>
<circle cx="218" cy="173" r="1.0" fill="#fde68a" opacity="0.42"/>
<circle cx="127" cy="434" r="2.2" fill="#fde68a" opacity="0.60"/>
<circle cx="274" cy="443" r="1.4" fill="#fde68a" opacity="0.32"/>
<circle cx="117" cy="533" r="1.0" fill="#fde68a" opacity="0.76"/>
<circle cx="200" cy="529" r="2.2" fill="#fde68a" opacity="0.45"/>
<circle cx="360" cy="147" r="2.2" fill="#fde68a" opacity="0.71"/>
<circle cx="317" cy="138" r="2.2" fill="#fde68a" opacity="0.40"/>
<circle cx="176" cy="509" r="1.0" fill="#fde68a" opacity="0.36"/>
<circle cx="247" cy="107" r="1.4" fill="#fde68a" opacity="0.60"/>
<circle cx="174" cy="90" r="1.4" fill="#fde68a" opacity="0.34"/>
<circle cx="86" cy="124" r="1.4" fill="#fde68a" opacity="0.55"/>
<circle cx="124" cy="153" r="1.8" fill="#fde68a" opacity="0.39"/>
<circle cx="144" cy="404" r="1.0" fill="#fde68a" opacity="0.83"/>
<circle cx="226" cy="60" r="1.4" fill="#fde68a" opacity="0.53"/>
  
    <path d="M55 118 C120 74 300 74 365 118" fill="none" stroke="#34d399" stroke-opacity=".28" stroke-width="2"/>
    <path d="M55 542 C120 586 300 586 365 542" fill="none" stroke="#34d399" stroke-opacity=".28" stroke-width="2"/>
    <path d="M74 88 L98 88 M322 88 L346 88 M74 572 L98 572 M322 572 L346 572" stroke="#fde68a" stroke-opacity=".50" stroke-width="2" stroke-linecap="round"/>
    <circle cx="80" cy="100" r="10" fill="none" stroke="#fde68a" stroke-opacity=".45"/>
    <circle cx="340" cy="100" r="10" fill="none" stroke="#fde68a" stroke-opacity=".45"/>
    <circle cx="80" cy="560" r="10" fill="none" stroke="#fde68a" stroke-opacity=".45"/>
    <circle cx="340" cy="560" r="10" fill="none" stroke="#fde68a" stroke-opacity=".45"/>
    
  
            <circle cx="210" cy="286" r="132" fill="#34d399" opacity=".065"/>
            <circle cx="210" cy="286" r="102" fill="none" stroke="#fde68a" stroke-opacity=".36" stroke-width="2"/>
            <text x="210" y="164" text-anchor="middle" dominant-baseline="middle" font-size="42" font-family="Georgia, serif" fill="#34d399" opacity=".94">⬟</text><text x="154" y="220" text-anchor="middle" dominant-baseline="middle" font-size="42" font-family="Georgia, serif" fill="#34d399" opacity=".94">⬟</text><text x="266" y="220" text-anchor="middle" dominant-baseline="middle" font-size="42" font-family="Georgia, serif" fill="#34d399" opacity=".94">⬟</text><text x="154" y="302" text-anchor="middle" dominant-baseline="middle" font-size="42" font-family="Georgia, serif" fill="#34d399" opacity=".94">⬟</text><text x="266" y="302" text-anchor="middle" dominant-baseline="middle" font-size="42" font-family="Georgia, serif" fill="#34d399" opacity=".94">⬟</text><text x="210" y="360" text-anchor="middle" dominant-baseline="middle" font-size="42" font-family="Georgia, serif" fill="#34d399" opacity=".94">⬟</text><text x="210" y="250" text-anchor="middle" dominant-baseline="middle" font-size="50" font-family="Georgia, serif" fill="#34d399" opacity=".94">⬟</text>
            <text x="62" y="86" font-size="26" font-family="Georgia, serif" fill="#fff7ed">VII</text>
            <text x="358" y="86" text-anchor="end" font-size="26" font-family="Georgia, serif" fill="#fff7ed">VII</text>
            
  <rect x="58" y="522" width="304" height="76" rx="18" fill="#020617" opacity=".62" stroke="#facc15" stroke-opacity=".24"/>
  <text x="210" y="558" text-anchor="middle" font-size="20" font-family="Georgia, serif" fill="#fff7ed">Seven of Pentacles</text>
  <text x="210" y="586" text-anchor="middle" font-size="9" font-family="Arial, sans-serif" letter-spacing="3" fill="#c4b5fd">ORIGINAL SYMBOLIC DECK</text>
</svg>