<svg xmlns="http://www.w3.org/2000/svg" width="420" height="660" viewBox="0 0 420 660" role="img" aria-label="Knight of Swords">
<defs>
<linearGradient id="bg" x1="0" y1="0" x2="1" y2="1"><stop stop-color="#080b18"/><stop offset=".52" stop-color="#211436"/><stop offset="1" stop-color="#050812"/></linearGradient>
<radialGradient id="a" cx="50%" cy="40%" r="64%"><stop stop-color="#c4b5fd" stop-opacity=".22"/><stop offset=".55" stop-color="#e0e7ff" stop-opacity=".12"/><stop offset="1" stop-color="#000" stop-opacity="0"/></radialGradient>
<filter id="glow"><feDropShadow dx="0" dy="0" stdDeviation="5" flood-color="#c4b5fd" flood-opacity=".42"/></filter>
</defs>
<rect width="420" height="660" rx="34" fill="url(#bg)"/>
<rect x="18" y="18" width="384" height="624" rx="30" fill="url(#a)" stroke="#d6a24f" stroke-opacity=".82" stroke-width="2.4"/>
<rect x="36" y="36" width="348" height="588" rx="22" fill="none" stroke="#e0e7ff" stroke-opacity=".28" stroke-width="1.5"/>
<circle cx="271" cy="315" r="1.2" fill="#fff1b8" opacity="0.39"/>
<circle cx="248" cy="331" r="1" fill="#fff1b8" opacity="0.68"/>
<circle cx="209" cy="391" r="2" fill="#fff1b8" opacity="0.56"/>
<circle cx="155" cy="190" r="1.2" fill="#fff1b8" opacity="0.28"/>
<circle cx="251" cy="245" r="1.5" fill="#fff1b8" opacity="0.50"/>
<circle cx="191" cy="221" r="1" fill="#fff1b8" opacity="0.45"/>
<circle cx="344" cy="574" r="2" fill="#fff1b8" opacity="0.35"/>
<circle cx="316" cy="466" r="1" fill="#fff1b8" opacity="0.36"/>
<circle cx="282" cy="406" r="2" fill="#fff1b8" opacity="0.45"/>
<circle cx="68" cy="232" r="1.2" fill="#fff1b8" opacity="0.71"/>
<circle cx="312" cy="571" r="1" fill="#fff1b8" opacity="0.27"/>
<circle cx="244" cy="441" r="1.5" fill="#fff1b8" opacity="0.47"/>
<circle cx="340" cy="103" r="1" fill="#fff1b8" opacity="0.69"/>
<circle cx="119" cy="295" r="1.5" fill="#fff1b8" opacity="0.59"/>
<circle cx="115" cy="540" r="1.2" fill="#fff1b8" opacity="0.64"/>
<circle cx="126" cy="253" r="1" fill="#fff1b8" opacity="0.41"/>
<circle cx="188" cy="385" r="1" fill="#fff1b8" opacity="0.48"/>
<circle cx="268" cy="134" r="1.2" fill="#fff1b8" opacity="0.76"/>
<circle cx="246" cy="557" r="1" fill="#fff1b8" opacity="0.66"/>
<circle cx="121" cy="476" r="1.2" fill="#fff1b8" opacity="0.29"/>
<circle cx="372" cy="519" r="1.5" fill="#fff1b8" opacity="0.69"/>
<circle cx="346" cy="111" r="1.2" fill="#fff1b8" opacity="0.75"/>
<circle cx="309" cy="148" r="1.5" fill="#fff1b8" opacity="0.67"/>
<circle cx="224" cy="453" r="1.5" fill="#fff1b8" opacity="0.54"/>
<circle cx="308" cy="272" r="1.5" fill="#fff1b8" opacity="0.27"/>
<circle cx="153" cy="243" r="1.5" fill="#fff1b8" opacity="0.29"/>
<circle cx="148" cy="348" r="1.5" fill="#fff1b8" opacity="0.47"/>
<circle cx="170" cy="183" r="1.2" fill="#fff1b8" opacity="0.66"/>
<circle cx="328" cy="62" r="2" fill="#fff1b8" opacity="0.59"/>
<circle cx="75" cy="268" r="1" fill="#fff1b8" opacity="0.28"/>
<circle cx="262" cy="265" r="1" fill="#fff1b8" opacity="0.68"/>
<circle cx="359" cy="554" r="1.5" fill="#fff1b8" opacity="0.34"/>
<circle cx="107" cy="186" r="1.5" fill="#fff1b8" opacity="0.44"/>
<circle cx="126" cy="221" r="2" fill="#fff1b8" opacity="0.73"/>
<circle cx="100" cy="109" r="1.2" fill="#fff1b8" opacity="0.71"/>
<circle cx="224" cy="243" r="1.2" fill="#fff1b8" opacity="0.53"/>
<circle cx="275" cy="287" r="1" fill="#fff1b8" opacity="0.64"/>
<circle cx="286" cy="406" r="2" fill="#fff1b8" opacity="0.36"/>
<path d="M70 104 C132 68 288 68 350 104 M70 556 C132 592 288 592 350 556" fill="none" stroke="#d6a24f" stroke-opacity=".28" stroke-width="2"/>
<text x="64" y="78" fill="#fff1b8" font-size="22" font-family="Georgia,serif">KNIGHT</text>
<text x="356" y="78" text-anchor="end" fill="#fff1b8" font-size="22" font-family="Georgia,serif">KNIGHT</text>
<g filter="url(#glow)"><ellipse cx="210" cy="430" rx="96" ry="22" fill="#e0e7ff" opacity=".16"/><path d="M148 400 C164 310 186 250 210 220 C234 250 256 310 272 400 Z" fill="#c4b5fd" opacity=".17" stroke="#c4b5fd" stroke-width="3"/><circle cx="210" cy="214" r="40" fill="#e0e7ff" opacity=".18" stroke="#e0e7ff" stroke-width="3"/><text x="210" y="268" text-anchor="middle" font-size="74" fill="#c4b5fd" font-family="Georgia,serif">♞</text><text x="210" y="356" text-anchor="middle" font-size="56" fill="#e0e7ff" font-family="Georgia,serif">◆</text></g>
<rect x="58" y="530" width="304" height="74" rx="17" fill="#050812" opacity=".74" stroke="#d6a24f" stroke-opacity=".30"/>
<text x="210" y="566" text-anchor="middle" fill="#fff7df" font-size="20" font-family="Georgia,serif">Knight of Swords</text>
<text x="210" y="592" text-anchor="middle" fill="#c9b27a" font-size="9" font-family="Arial" letter-spacing="3">FATECARD ORIGINAL</text>
</svg>