<svg xmlns="http://www.w3.org/2000/svg" width="420" height="660" viewBox="0 0 420 660" role="img" aria-label="King of Cups">
  <defs>
    <linearGradient id="bg-minor_cups_king" x1="0" y1="0" x2="1" y2="1">
      <stop offset="0%" stop-color="#0b1022"/>
      <stop offset="52%" stop-color="#211136"/>
      <stop offset="100%" stop-color="#050816"/>
    </linearGradient>
    <radialGradient id="glow-minor_cups_king" cx="50%" cy="38%" r="62%">
      <stop offset="0%" stop-color="#facc15" stop-opacity=".22"/>
      <stop offset="55%" stop-color="#a78bfa" stop-opacity=".10"/>
      <stop offset="100%" stop-color="#000000" stop-opacity="0"/>
    </radialGradient>
    <filter id="soft-minor_cups_king" x="-20%" y="-20%" width="140%" height="140%">
      <feGaussianBlur stdDeviation="4"/>
    </filter>
  </defs>
  <rect width="420" height="660" rx="34" fill="url(#bg-minor_cups_king)"/>
  <rect x="18" y="18" width="384" height="624" rx="28" fill="none" stroke="#facc15" stroke-opacity=".62" stroke-width="3"/>
  <rect x="32" y="32" width="356" height="596" rx="22" fill="url(#glow-minor_cups_king)"/>
  <path d="M64 120 C148 72, 272 72, 356 120 M64 540 C148 588, 272 588, 356 540" fill="none" stroke="#facc15" stroke-opacity=".24" stroke-width="2"/>
  <g opacity=".6">
    <circle cx="82" cy="152" r="2.5" fill="#fde68a"/><circle cx="340" cy="180" r="2" fill="#c4b5fd"/><circle cx="320" cy="498" r="2.5" fill="#fde68a"/><circle cx="94" cy="486" r="2" fill="#c4b5fd"/>
  </g>
  
            <circle cx="210" cy="252" r="100" fill="#38bdf8" opacity=".12"/>
            <path d="M138 390 C160 315, 260 315, 282 390 Z" fill="#38bdf8" opacity=".20" stroke="#38bdf8" stroke-width="3"/>
            <circle cx="210" cy="206" r="48" fill="#38bdf8" opacity=".22" stroke="#38bdf8" stroke-width="3"/>
            <text x="210" y="218" text-anchor="middle" font-size="54" font-family="Georgia, serif" fill="#38bdf8">♚</text>
            <text x="210" y="326" text-anchor="middle" font-size="60" font-family="Georgia, serif" fill="#38bdf8">●</text>
            <text x="64" y="82" font-size="30" font-family="Georgia, serif" fill="#f8fafc">K</text>
            <text x="356" y="82" text-anchor="end" font-size="30" font-family="Georgia, serif" fill="#f8fafc">K</text>
            
  <rect x="54" y="530" width="312" height="70" rx="18" fill="#020617" opacity=".48" stroke="#facc15" stroke-opacity=".20"/>
  <text x="210" y="568" text-anchor="middle" font-size="22" font-family="Georgia, serif" fill="#fff7ed">King of Cups</text>
  <text x="210" y="594" text-anchor="middle" font-size="10" font-family="Arial, sans-serif" letter-spacing="3" fill="#c4b5fd">FATECARD ORIGINAL</text>
</svg>