<svg xmlns="http://www.w3.org/2000/svg" width="420" height="660" viewBox="0 0 420 660" role="img" aria-label="Knight of Swords">
  <defs>
    <linearGradient id="bg" x1="0" y1="0" x2="1" y2="1">
      <stop offset="0%" stop-color="#050816"/>
      <stop offset="45%" stop-color="#17102d"/>
      <stop offset="100%" stop-color="#020617"/>
    </linearGradient>
    <radialGradient id="aura" cx="50%" cy="38%" r="68%">
      <stop offset="0%" stop-color="#facc15" stop-opacity=".18"/>
      <stop offset="52%" stop-color="#a78bfa" stop-opacity=".10"/>
      <stop offset="100%" stop-color="#020617" stop-opacity="0"/>
    </radialGradient>
    <filter id="glow" x="-30%" y="-30%" width="160%" height="160%">
      <feDropShadow dx="0" dy="0" stdDeviation="6" flood-color="#c4b5fd" flood-opacity=".42"/>
    </filter>
  </defs>
  <rect width="420" height="660" rx="34" fill="url(#bg)"/>
  <rect x="20" y="20" width="380" height="620" rx="30" fill="url(#aura)" stroke="#facc15" stroke-opacity=".54" stroke-width="2"/>
  <rect x="35" y="35" width="350" height="590" rx="22" fill="none" stroke="#a78bfa" stroke-opacity=".18" stroke-width="1.5"/>
  <circle cx="381" cy="344" r="1.0" fill="#fde68a" opacity="0.61"/>
<circle cx="59" cy="212" r="1.4" fill="#fde68a" opacity="0.45"/>
<circle cx="201" cy="219" r="1.8" fill="#fde68a" opacity="0.79"/>
<circle cx="380" cy="350" r="2.2" fill="#fde68a" opacity="0.31"/>
<circle cx="47" cy="442" r="1.4" fill="#fde68a" opacity="0.52"/>
<circle cx="313" cy="582" r="1.0" fill="#fde68a" opacity="0.53"/>
<circle cx="51" cy="543" r="1.8" fill="#fde68a" opacity="0.60"/>
<circle cx="289" cy="546" r="1.4" fill="#fde68a" opacity="0.35"/>
<circle cx="272" cy="108" r="1.0" fill="#fde68a" opacity="0.52"/>
<circle cx="291" cy="84" r="2.2" fill="#fde68a" opacity="0.80"/>
<circle cx="102" cy="237" r="1.0" fill="#fde68a" opacity="0.72"/>
<circle cx="340" cy="235" r="2.2" fill="#fde68a" opacity="0.60"/>
<circle cx="200" cy="132" r="1.8" fill="#fde68a" opacity="0.58"/>
<circle cx="109" cy="533" r="1.0" fill="#fde68a" opacity="0.60"/>
<circle cx="257" cy="206" r="1.8" fill="#fde68a" opacity="0.70"/>
<circle cx="308" cy="144" r="1.0" fill="#fde68a" opacity="0.73"/>
<circle cx="312" cy="176" r="1.4" fill="#fde68a" opacity="0.64"/>
<circle cx="124" cy="123" r="1.0" fill="#fde68a" opacity="0.50"/>
<circle cx="86" cy="562" r="1.8" fill="#fde68a" opacity="0.59"/>
<circle cx="70" cy="214" r="1.0" fill="#fde68a" opacity="0.81"/>
<circle cx="361" cy="520" r="1.0" fill="#fde68a" opacity="0.44"/>
<circle cx="54" cy="403" r="1.8" fill="#fde68a" opacity="0.30"/>
<circle cx="184" cy="162" r="2.2" fill="#fde68a" opacity="0.62"/>
<circle cx="146" cy="171" r="1.4" fill="#fde68a" opacity="0.34"/>
<circle cx="74" cy="181" r="1.0" fill="#fde68a" opacity="0.68"/>
<circle cx="109" cy="395" r="1.4" fill="#fde68a" opacity="0.34"/>
<circle cx="202" cy="583" r="1.0" fill="#fde68a" opacity="0.64"/>
<circle cx="168" cy="390" r="1.0" fill="#fde68a" opacity="0.29"/>
<circle cx="345" cy="466" r="1.0" fill="#fde68a" opacity="0.74"/>
<circle cx="249" cy="471" r="1.4" fill="#fde68a" opacity="0.62"/>
<circle cx="227" cy="544" r="1.0" fill="#fde68a" opacity="0.36"/>
<circle cx="211" cy="343" r="1.0" fill="#fde68a" opacity="0.73"/>
<circle cx="105" cy="239" r="2.2" fill="#fde68a" opacity="0.60"/>
<circle cx="315" cy="203" r="2.2" fill="#fde68a" opacity="0.68"/>
  
    <path d="M55 118 C120 74 300 74 365 118" fill="none" stroke="#c4b5fd" stroke-opacity=".28" stroke-width="2"/>
    <path d="M55 542 C120 586 300 586 365 542" fill="none" stroke="#c4b5fd" stroke-opacity=".28" stroke-width="2"/>
    <path d="M74 88 L98 88 M322 88 L346 88 M74 572 L98 572 M322 572 L346 572" stroke="#e0e7ff" stroke-opacity=".50" stroke-width="2" stroke-linecap="round"/>
    <circle cx="80" cy="100" r="10" fill="none" stroke="#e0e7ff" stroke-opacity=".45"/>
    <circle cx="340" cy="100" r="10" fill="none" stroke="#e0e7ff" stroke-opacity=".45"/>
    <circle cx="80" cy="560" r="10" fill="none" stroke="#e0e7ff" stroke-opacity=".45"/>
    <circle cx="340" cy="560" r="10" fill="none" stroke="#e0e7ff" stroke-opacity=".45"/>
    
  
            <circle cx="210" cy="272" r="122" fill="#c4b5fd" opacity=".08"/>
            <path d="M146 394 L178 246 L210 382 L242 246 L274 394 Z" fill="#c4b5fd" opacity=".12" stroke="#c4b5fd" stroke-width="3" stroke-opacity=".68"/>
            <circle cx="210" cy="250" r="54" fill="#e0e7ff" opacity=".11" stroke="#e0e7ff" stroke-width="3" stroke-opacity=".55"/>
            <text x="210" y="264" text-anchor="middle" font-size="64" font-family="Georgia, serif" fill="#c4b5fd">♞</text>
            <text x="210" y="350" text-anchor="middle" font-size="54" font-family="Georgia, serif" fill="#e0e7ff">◆</text>
            <text x="62" y="86" font-size="20" font-family="Georgia, serif" fill="#fff7ed">KNIGHT</text>
            <text x="358" y="86" text-anchor="end" font-size="20" font-family="Georgia, serif" fill="#fff7ed">KNIGHT</text>
            
  <rect x="58" y="522" width="304" height="76" rx="18" fill="#020617" opacity=".62" stroke="#facc15" stroke-opacity=".24"/>
  <text x="210" y="558" text-anchor="middle" font-size="20" font-family="Georgia, serif" fill="#fff7ed">Knight of Swords</text>
  <text x="210" y="586" text-anchor="middle" font-size="9" font-family="Arial, sans-serif" letter-spacing="3" fill="#c4b5fd">ORIGINAL SYMBOLIC DECK</text>
</svg>