<svg xmlns="http://www.w3.org/2000/svg" width="420" height="660" viewBox="0 0 420 660" role="img" aria-label="Queen of Swords">
<defs>
<linearGradient id="bg" x1="0" y1="0" x2="1" y2="1"><stop stop-color="#080b18"/><stop offset=".52" stop-color="#211436"/><stop offset="1" stop-color="#050812"/></linearGradient>
<radialGradient id="a" cx="50%" cy="40%" r="64%"><stop stop-color="#c4b5fd" stop-opacity=".22"/><stop offset=".55" stop-color="#e0e7ff" stop-opacity=".12"/><stop offset="1" stop-color="#000" stop-opacity="0"/></radialGradient>
<filter id="glow"><feDropShadow dx="0" dy="0" stdDeviation="5" flood-color="#c4b5fd" flood-opacity=".42"/></filter>
</defs>
<rect width="420" height="660" rx="34" fill="url(#bg)"/>
<rect x="18" y="18" width="384" height="624" rx="30" fill="url(#a)" stroke="#d6a24f" stroke-opacity=".82" stroke-width="2.4"/>
<rect x="36" y="36" width="348" height="588" rx="22" fill="none" stroke="#e0e7ff" stroke-opacity=".28" stroke-width="1.5"/>
<circle cx="167" cy="372" r="1" fill="#fff1b8" opacity="0.43"/>
<circle cx="144" cy="100" r="1" fill="#fff1b8" opacity="0.51"/>
<circle cx="241" cy="331" r="1.5" fill="#fff1b8" opacity="0.64"/>
<circle cx="186" cy="207" r="1.2" fill="#fff1b8" opacity="0.41"/>
<circle cx="271" cy="80" r="1.2" fill="#fff1b8" opacity="0.61"/>
<circle cx="262" cy="91" r="1.2" fill="#fff1b8" opacity="0.30"/>
<circle cx="149" cy="562" r="1.5" fill="#fff1b8" opacity="0.47"/>
<circle cx="85" cy="364" r="1" fill="#fff1b8" opacity="0.70"/>
<circle cx="221" cy="83" r="2" fill="#fff1b8" opacity="0.36"/>
<circle cx="195" cy="245" r="2" fill="#fff1b8" opacity="0.45"/>
<circle cx="192" cy="269" r="1.2" fill="#fff1b8" opacity="0.47"/>
<circle cx="162" cy="193" r="1.2" fill="#fff1b8" opacity="0.67"/>
<circle cx="334" cy="110" r="1.2" fill="#fff1b8" opacity="0.52"/>
<circle cx="264" cy="535" r="1" fill="#fff1b8" opacity="0.35"/>
<circle cx="347" cy="369" r="1" fill="#fff1b8" opacity="0.39"/>
<circle cx="148" cy="431" r="1.2" fill="#fff1b8" opacity="0.48"/>
<circle cx="119" cy="125" r="1.2" fill="#fff1b8" opacity="0.51"/>
<circle cx="128" cy="196" r="1" fill="#fff1b8" opacity="0.32"/>
<circle cx="167" cy="560" r="2" fill="#fff1b8" opacity="0.54"/>
<circle cx="70" cy="157" r="1" fill="#fff1b8" opacity="0.43"/>
<circle cx="133" cy="227" r="1.5" fill="#fff1b8" opacity="0.46"/>
<circle cx="290" cy="399" r="1" fill="#fff1b8" opacity="0.30"/>
<circle cx="272" cy="395" r="1" fill="#fff1b8" opacity="0.69"/>
<circle cx="138" cy="542" r="1.5" fill="#fff1b8" opacity="0.39"/>
<circle cx="129" cy="578" r="1.5" fill="#fff1b8" opacity="0.33"/>
<circle cx="231" cy="432" r="1" fill="#fff1b8" opacity="0.45"/>
<circle cx="161" cy="195" r="1.5" fill="#fff1b8" opacity="0.61"/>
<circle cx="91" cy="568" r="1.5" fill="#fff1b8" opacity="0.37"/>
<circle cx="64" cy="259" r="1" fill="#fff1b8" opacity="0.32"/>
<circle cx="342" cy="326" r="2" fill="#fff1b8" opacity="0.65"/>
<circle cx="193" cy="82" r="1" fill="#fff1b8" opacity="0.28"/>
<circle cx="370" cy="536" r="1" fill="#fff1b8" opacity="0.49"/>
<circle cx="197" cy="65" r="2" fill="#fff1b8" opacity="0.66"/>
<circle cx="308" cy="415" r="1.2" fill="#fff1b8" opacity="0.66"/>
<circle cx="293" cy="219" r="1.2" fill="#fff1b8" opacity="0.52"/>
<circle cx="140" cy="463" r="1.5" fill="#fff1b8" opacity="0.49"/>
<circle cx="291" cy="275" r="1.2" fill="#fff1b8" opacity="0.50"/>
<circle cx="298" cy="481" r="2" fill="#fff1b8" opacity="0.75"/>
<path d="M70 104 C132 68 288 68 350 104 M70 556 C132 592 288 592 350 556" fill="none" stroke="#d6a24f" stroke-opacity=".28" stroke-width="2"/>
<text x="64" y="78" fill="#fff1b8" font-size="22" font-family="Georgia,serif">QUEEN</text>
<text x="356" y="78" text-anchor="end" fill="#fff1b8" font-size="22" font-family="Georgia,serif">QUEEN</text>
<g filter="url(#glow)"><ellipse cx="210" cy="430" rx="96" ry="22" fill="#e0e7ff" opacity=".16"/><path d="M148 400 C164 310 186 250 210 220 C234 250 256 310 272 400 Z" fill="#c4b5fd" opacity=".17" stroke="#c4b5fd" stroke-width="3"/><circle cx="210" cy="214" r="40" fill="#e0e7ff" opacity=".18" stroke="#e0e7ff" stroke-width="3"/><text x="210" y="268" text-anchor="middle" font-size="74" fill="#c4b5fd" font-family="Georgia,serif">♛</text><text x="210" y="356" text-anchor="middle" font-size="56" fill="#e0e7ff" font-family="Georgia,serif">◆</text></g>
<rect x="58" y="530" width="304" height="74" rx="17" fill="#050812" opacity=".74" stroke="#d6a24f" stroke-opacity=".30"/>
<text x="210" y="566" text-anchor="middle" fill="#fff7df" font-size="20" font-family="Georgia,serif">Queen of Swords</text>
<text x="210" y="592" text-anchor="middle" fill="#c9b27a" font-size="9" font-family="Arial" letter-spacing="3">FATECARD ORIGINAL</text>
</svg>