<svg xmlns="http://www.w3.org/2000/svg" width="420" height="660" viewBox="0 0 420 660" role="img" aria-label="Queen of Cups">
<defs>
<linearGradient id="bg" x1="0" y1="0" x2="1" y2="1"><stop stop-color="#080b18"/><stop offset=".52" stop-color="#211436"/><stop offset="1" stop-color="#050812"/></linearGradient>
<radialGradient id="a" cx="50%" cy="40%" r="64%"><stop stop-color="#38bdf8" stop-opacity=".22"/><stop offset=".55" stop-color="#93c5fd" stop-opacity=".12"/><stop offset="1" stop-color="#000" stop-opacity="0"/></radialGradient>
<filter id="glow"><feDropShadow dx="0" dy="0" stdDeviation="5" flood-color="#38bdf8" flood-opacity=".42"/></filter>
</defs>
<rect width="420" height="660" rx="34" fill="url(#bg)"/>
<rect x="18" y="18" width="384" height="624" rx="30" fill="url(#a)" stroke="#d6a24f" stroke-opacity=".82" stroke-width="2.4"/>
<rect x="36" y="36" width="348" height="588" rx="22" fill="none" stroke="#93c5fd" stroke-opacity=".28" stroke-width="1.5"/>
<circle cx="202" cy="570" r="1.5" fill="#fff1b8" opacity="0.54"/>
<circle cx="104" cy="540" r="1" fill="#fff1b8" opacity="0.47"/>
<circle cx="136" cy="223" r="1.5" fill="#fff1b8" opacity="0.57"/>
<circle cx="246" cy="65" r="1" fill="#fff1b8" opacity="0.48"/>
<circle cx="353" cy="527" r="1.5" fill="#fff1b8" opacity="0.54"/>
<circle cx="291" cy="93" r="1.5" fill="#fff1b8" opacity="0.65"/>
<circle cx="100" cy="170" r="1" fill="#fff1b8" opacity="0.36"/>
<circle cx="250" cy="436" r="1.2" fill="#fff1b8" opacity="0.76"/>
<circle cx="140" cy="377" r="2" fill="#fff1b8" opacity="0.34"/>
<circle cx="223" cy="488" r="1.2" fill="#fff1b8" opacity="0.56"/>
<circle cx="219" cy="77" r="1.2" fill="#fff1b8" opacity="0.34"/>
<circle cx="271" cy="234" r="2" fill="#fff1b8" opacity="0.61"/>
<circle cx="316" cy="270" r="1" fill="#fff1b8" opacity="0.39"/>
<circle cx="353" cy="257" r="1.5" fill="#fff1b8" opacity="0.69"/>
<circle cx="212" cy="262" r="1.2" fill="#fff1b8" opacity="0.55"/>
<circle cx="315" cy="308" r="1.2" fill="#fff1b8" opacity="0.37"/>
<circle cx="119" cy="276" r="1" fill="#fff1b8" opacity="0.54"/>
<circle cx="351" cy="444" r="1.2" fill="#fff1b8" opacity="0.57"/>
<circle cx="313" cy="531" r="2" fill="#fff1b8" opacity="0.36"/>
<circle cx="183" cy="377" r="1.2" fill="#fff1b8" opacity="0.48"/>
<circle cx="190" cy="299" r="2" fill="#fff1b8" opacity="0.52"/>
<circle cx="346" cy="349" r="1.5" fill="#fff1b8" opacity="0.29"/>
<circle cx="346" cy="258" r="1.2" fill="#fff1b8" opacity="0.53"/>
<circle cx="309" cy="84" r="2" fill="#fff1b8" opacity="0.75"/>
<circle cx="78" cy="124" r="1.2" fill="#fff1b8" opacity="0.40"/>
<circle cx="310" cy="429" r="2" fill="#fff1b8" opacity="0.51"/>
<circle cx="55" cy="342" r="1.2" fill="#fff1b8" opacity="0.31"/>
<circle cx="98" cy="262" r="2" fill="#fff1b8" opacity="0.72"/>
<circle cx="140" cy="352" r="2" fill="#fff1b8" opacity="0.47"/>
<circle cx="102" cy="278" r="2" fill="#fff1b8" opacity="0.48"/>
<circle cx="46" cy="363" r="1.2" fill="#fff1b8" opacity="0.41"/>
<circle cx="363" cy="529" r="1.5" fill="#fff1b8" opacity="0.39"/>
<circle cx="101" cy="512" r="1" fill="#fff1b8" opacity="0.52"/>
<circle cx="302" cy="424" r="1.5" fill="#fff1b8" opacity="0.78"/>
<circle cx="87" cy="195" r="1.2" fill="#fff1b8" opacity="0.76"/>
<circle cx="213" cy="150" r="1" fill="#fff1b8" opacity="0.27"/>
<circle cx="129" cy="255" r="2" fill="#fff1b8" opacity="0.36"/>
<circle cx="285" cy="382" r="1.5" fill="#fff1b8" opacity="0.75"/>
<path d="M70 104 C132 68 288 68 350 104 M70 556 C132 592 288 592 350 556" fill="none" stroke="#d6a24f" stroke-opacity=".28" stroke-width="2"/>
<text x="64" y="78" fill="#fff1b8" font-size="22" font-family="Georgia,serif">QUEEN</text>
<text x="356" y="78" text-anchor="end" fill="#fff1b8" font-size="22" font-family="Georgia,serif">QUEEN</text>
<g filter="url(#glow)"><ellipse cx="210" cy="430" rx="96" ry="22" fill="#93c5fd" opacity=".16"/><path d="M148 400 C164 310 186 250 210 220 C234 250 256 310 272 400 Z" fill="#38bdf8" opacity=".17" stroke="#38bdf8" stroke-width="3"/><circle cx="210" cy="214" r="40" fill="#93c5fd" opacity=".18" stroke="#93c5fd" stroke-width="3"/><text x="210" y="268" text-anchor="middle" font-size="74" fill="#38bdf8" font-family="Georgia,serif">♛</text><text x="210" y="356" text-anchor="middle" font-size="56" fill="#93c5fd" font-family="Georgia,serif">●</text></g>
<rect x="58" y="530" width="304" height="74" rx="17" fill="#050812" opacity=".74" stroke="#d6a24f" stroke-opacity=".30"/>
<text x="210" y="566" text-anchor="middle" fill="#fff7df" font-size="20" font-family="Georgia,serif">Queen of Cups</text>
<text x="210" y="592" text-anchor="middle" fill="#c9b27a" font-size="9" font-family="Arial" letter-spacing="3">FATECARD ORIGINAL</text>
</svg>