<svg xmlns="http://www.w3.org/2000/svg" width="420" height="660" viewBox="0 0 420 660" role="img" aria-label="Eight of Swords">
  <defs>
    <linearGradient id="bg" x1="0" y1="0" x2="1" y2="1">
      <stop offset="0%" stop-color="#050816"/>
      <stop offset="45%" stop-color="#17102d"/>
      <stop offset="100%" stop-color="#020617"/>
    </linearGradient>
    <radialGradient id="aura" cx="50%" cy="38%" r="68%">
      <stop offset="0%" stop-color="#facc15" stop-opacity=".18"/>
      <stop offset="52%" stop-color="#a78bfa" stop-opacity=".10"/>
      <stop offset="100%" stop-color="#020617" stop-opacity="0"/>
    </radialGradient>
    <filter id="glow" x="-30%" y="-30%" width="160%" height="160%">
      <feDropShadow dx="0" dy="0" stdDeviation="6" flood-color="#c4b5fd" flood-opacity=".42"/>
    </filter>
  </defs>
  <rect width="420" height="660" rx="34" fill="url(#bg)"/>
  <rect x="20" y="20" width="380" height="620" rx="30" fill="url(#aura)" stroke="#facc15" stroke-opacity=".54" stroke-width="2"/>
  <rect x="35" y="35" width="350" height="590" rx="22" fill="none" stroke="#a78bfa" stroke-opacity=".18" stroke-width="1.5"/>
  <circle cx="129" cy="340" r="1.0" fill="#fde68a" opacity="0.60"/>
<circle cx="102" cy="145" r="2.2" fill="#fde68a" opacity="0.61"/>
<circle cx="146" cy="502" r="1.0" fill="#fde68a" opacity="0.68"/>
<circle cx="207" cy="410" r="1.0" fill="#fde68a" opacity="0.58"/>
<circle cx="286" cy="436" r="2.2" fill="#fde68a" opacity="0.76"/>
<circle cx="52" cy="326" r="1.0" fill="#fde68a" opacity="0.82"/>
<circle cx="177" cy="235" r="1.4" fill="#fde68a" opacity="0.55"/>
<circle cx="381" cy="228" r="2.2" fill="#fde68a" opacity="0.54"/>
<circle cx="354" cy="459" r="1.8" fill="#fde68a" opacity="0.39"/>
<circle cx="47" cy="63" r="1.8" fill="#fde68a" opacity="0.59"/>
<circle cx="78" cy="145" r="1.0" fill="#fde68a" opacity="0.32"/>
<circle cx="130" cy="171" r="1.4" fill="#fde68a" opacity="0.71"/>
<circle cx="282" cy="242" r="1.8" fill="#fde68a" opacity="0.69"/>
<circle cx="370" cy="227" r="1.4" fill="#fde68a" opacity="0.63"/>
<circle cx="102" cy="299" r="1.8" fill="#fde68a" opacity="0.81"/>
<circle cx="296" cy="236" r="1.4" fill="#fde68a" opacity="0.57"/>
<circle cx="310" cy="525" r="1.8" fill="#fde68a" opacity="0.43"/>
<circle cx="126" cy="428" r="1.8" fill="#fde68a" opacity="0.48"/>
<circle cx="179" cy="221" r="1.0" fill="#fde68a" opacity="0.84"/>
<circle cx="203" cy="100" r="1.0" fill="#fde68a" opacity="0.29"/>
<circle cx="173" cy="499" r="1.0" fill="#fde68a" opacity="0.29"/>
<circle cx="358" cy="205" r="2.2" fill="#fde68a" opacity="0.75"/>
<circle cx="156" cy="392" r="2.2" fill="#fde68a" opacity="0.45"/>
<circle cx="137" cy="494" r="1.4" fill="#fde68a" opacity="0.82"/>
<circle cx="102" cy="418" r="1.4" fill="#fde68a" opacity="0.44"/>
<circle cx="55" cy="571" r="1.0" fill="#fde68a" opacity="0.59"/>
<circle cx="193" cy="372" r="1.8" fill="#fde68a" opacity="0.75"/>
<circle cx="382" cy="440" r="1.8" fill="#fde68a" opacity="0.75"/>
<circle cx="351" cy="522" r="1.0" fill="#fde68a" opacity="0.63"/>
<circle cx="306" cy="541" r="1.0" fill="#fde68a" opacity="0.56"/>
<circle cx="215" cy="475" r="1.4" fill="#fde68a" opacity="0.32"/>
<circle cx="167" cy="375" r="1.4" fill="#fde68a" opacity="0.30"/>
<circle cx="60" cy="318" r="1.0" fill="#fde68a" opacity="0.34"/>
<circle cx="295" cy="95" r="2.2" fill="#fde68a" opacity="0.58"/>
  
    <path d="M55 118 C120 74 300 74 365 118" fill="none" stroke="#c4b5fd" stroke-opacity=".28" stroke-width="2"/>
    <path d="M55 542 C120 586 300 586 365 542" fill="none" stroke="#c4b5fd" stroke-opacity=".28" stroke-width="2"/>
    <path d="M74 88 L98 88 M322 88 L346 88 M74 572 L98 572 M322 572 L346 572" stroke="#e0e7ff" stroke-opacity=".50" stroke-width="2" stroke-linecap="round"/>
    <circle cx="80" cy="100" r="10" fill="none" stroke="#e0e7ff" stroke-opacity=".45"/>
    <circle cx="340" cy="100" r="10" fill="none" stroke="#e0e7ff" stroke-opacity=".45"/>
    <circle cx="80" cy="560" r="10" fill="none" stroke="#e0e7ff" stroke-opacity=".45"/>
    <circle cx="340" cy="560" r="10" fill="none" stroke="#e0e7ff" stroke-opacity=".45"/>
    
  
            <circle cx="210" cy="286" r="132" fill="#c4b5fd" opacity=".065"/>
            <circle cx="210" cy="286" r="102" fill="none" stroke="#e0e7ff" stroke-opacity=".36" stroke-width="2"/>
            <text x="210" y="164" text-anchor="middle" dominant-baseline="middle" font-size="42" font-family="Georgia, serif" fill="#c4b5fd" opacity=".94">◆</text><text x="154" y="220" text-anchor="middle" dominant-baseline="middle" font-size="42" font-family="Georgia, serif" fill="#c4b5fd" opacity=".94">◆</text><text x="266" y="220" text-anchor="middle" dominant-baseline="middle" font-size="42" font-family="Georgia, serif" fill="#c4b5fd" opacity=".94">◆</text><text x="154" y="302" text-anchor="middle" dominant-baseline="middle" font-size="42" font-family="Georgia, serif" fill="#c4b5fd" opacity=".94">◆</text><text x="266" y="302" text-anchor="middle" dominant-baseline="middle" font-size="42" font-family="Georgia, serif" fill="#c4b5fd" opacity=".94">◆</text><text x="210" y="360" text-anchor="middle" dominant-baseline="middle" font-size="42" font-family="Georgia, serif" fill="#c4b5fd" opacity=".94">◆</text><text x="210" y="250" text-anchor="middle" dominant-baseline="middle" font-size="50" font-family="Georgia, serif" fill="#c4b5fd" opacity=".94">◆</text><text x="154" y="384" text-anchor="middle" dominant-baseline="middle" font-size="42" font-family="Georgia, serif" fill="#c4b5fd" opacity=".94">◆</text>
            <text x="62" y="86" font-size="26" font-family="Georgia, serif" fill="#fff7ed">VIII</text>
            <text x="358" y="86" text-anchor="end" font-size="26" font-family="Georgia, serif" fill="#fff7ed">VIII</text>
            
  <rect x="58" y="522" width="304" height="76" rx="18" fill="#020617" opacity=".62" stroke="#facc15" stroke-opacity=".24"/>
  <text x="210" y="558" text-anchor="middle" font-size="20" font-family="Georgia, serif" fill="#fff7ed">Eight of Swords</text>
  <text x="210" y="586" text-anchor="middle" font-size="9" font-family="Arial, sans-serif" letter-spacing="3" fill="#c4b5fd">ORIGINAL SYMBOLIC DECK</text>
</svg>