<svg xmlns="http://www.w3.org/2000/svg" width="420" height="660" viewBox="0 0 420 660" role="img" aria-label="Nine of Wands">
<defs>
<linearGradient id="bg" x1="0" y1="0" x2="1" y2="1"><stop stop-color="#080b18"/><stop offset=".52" stop-color="#211436"/><stop offset="1" stop-color="#050812"/></linearGradient>
<radialGradient id="a" cx="50%" cy="40%" r="64%"><stop stop-color="#f59e0b" stop-opacity=".22"/><stop offset=".55" stop-color="#fb923c" stop-opacity=".12"/><stop offset="1" stop-color="#000" stop-opacity="0"/></radialGradient>
<filter id="glow"><feDropShadow dx="0" dy="0" stdDeviation="5" flood-color="#f59e0b" flood-opacity=".42"/></filter>
</defs>
<rect width="420" height="660" rx="34" fill="url(#bg)"/>
<rect x="18" y="18" width="384" height="624" rx="30" fill="url(#a)" stroke="#d6a24f" stroke-opacity=".82" stroke-width="2.4"/>
<rect x="36" y="36" width="348" height="588" rx="22" fill="none" stroke="#fb923c" stroke-opacity=".28" stroke-width="1.5"/>
<circle cx="158" cy="293" r="1" fill="#fff1b8" opacity="0.34"/>
<circle cx="185" cy="460" r="1.5" fill="#fff1b8" opacity="0.45"/>
<circle cx="348" cy="529" r="2" fill="#fff1b8" opacity="0.77"/>
<circle cx="265" cy="574" r="1.5" fill="#fff1b8" opacity="0.69"/>
<circle cx="135" cy="491" r="1" fill="#fff1b8" opacity="0.41"/>
<circle cx="109" cy="566" r="1.5" fill="#fff1b8" opacity="0.58"/>
<circle cx="171" cy="583" r="2" fill="#fff1b8" opacity="0.34"/>
<circle cx="115" cy="285" r="1.5" fill="#fff1b8" opacity="0.52"/>
<circle cx="150" cy="293" r="1" fill="#fff1b8" opacity="0.54"/>
<circle cx="269" cy="452" r="1.2" fill="#fff1b8" opacity="0.73"/>
<circle cx="176" cy="526" r="2" fill="#fff1b8" opacity="0.47"/>
<circle cx="343" cy="517" r="2" fill="#fff1b8" opacity="0.74"/>
<circle cx="227" cy="361" r="2" fill="#fff1b8" opacity="0.46"/>
<circle cx="74" cy="441" r="1" fill="#fff1b8" opacity="0.68"/>
<circle cx="135" cy="80" r="1.5" fill="#fff1b8" opacity="0.38"/>
<circle cx="238" cy="446" r="1.2" fill="#fff1b8" opacity="0.74"/>
<circle cx="245" cy="125" r="1" fill="#fff1b8" opacity="0.68"/>
<circle cx="274" cy="96" r="2" fill="#fff1b8" opacity="0.74"/>
<circle cx="75" cy="494" r="1.2" fill="#fff1b8" opacity="0.48"/>
<circle cx="358" cy="141" r="2" fill="#fff1b8" opacity="0.47"/>
<circle cx="374" cy="302" r="2" fill="#fff1b8" opacity="0.27"/>
<circle cx="102" cy="384" r="1" fill="#fff1b8" opacity="0.55"/>
<circle cx="88" cy="249" r="1.2" fill="#fff1b8" opacity="0.62"/>
<circle cx="153" cy="305" r="1.2" fill="#fff1b8" opacity="0.69"/>
<circle cx="232" cy="365" r="1" fill="#fff1b8" opacity="0.45"/>
<circle cx="107" cy="574" r="1" fill="#fff1b8" opacity="0.50"/>
<circle cx="280" cy="573" r="1.5" fill="#fff1b8" opacity="0.76"/>
<circle cx="84" cy="279" r="1.5" fill="#fff1b8" opacity="0.76"/>
<circle cx="46" cy="109" r="1" fill="#fff1b8" opacity="0.29"/>
<circle cx="122" cy="109" r="1.2" fill="#fff1b8" opacity="0.46"/>
<circle cx="375" cy="205" r="1.2" fill="#fff1b8" opacity="0.29"/>
<circle cx="115" cy="494" r="1" fill="#fff1b8" opacity="0.46"/>
<circle cx="106" cy="96" r="1" fill="#fff1b8" opacity="0.75"/>
<circle cx="102" cy="547" r="1.2" fill="#fff1b8" opacity="0.32"/>
<circle cx="58" cy="545" r="1.5" fill="#fff1b8" opacity="0.42"/>
<circle cx="269" cy="290" r="1.5" fill="#fff1b8" opacity="0.29"/>
<circle cx="67" cy="522" r="1" fill="#fff1b8" opacity="0.44"/>
<circle cx="316" cy="193" r="1.2" fill="#fff1b8" opacity="0.64"/>
<path d="M70 104 C132 68 288 68 350 104 M70 556 C132 592 288 592 350 556" fill="none" stroke="#d6a24f" stroke-opacity=".28" stroke-width="2"/>
<text x="64" y="78" fill="#fff1b8" font-size="22" font-family="Georgia,serif">IX</text>
<text x="356" y="78" text-anchor="end" fill="#fff1b8" font-size="22" font-family="Georgia,serif">IX</text>
<g filter="url(#glow)"><circle cx="210" cy="292" r="122" fill="#fb923c" opacity=".08"/><circle cx="210" cy="292" r="92" fill="none" stroke="#f59e0b" stroke-opacity=".36" stroke-width="2"/><text x="210" y="156" text-anchor="middle" dominant-baseline="middle" font-size="42" fill="#f59e0b" font-family="Georgia,serif">♣</text><text x="154" y="218" text-anchor="middle" dominant-baseline="middle" font-size="42" fill="#f59e0b" font-family="Georgia,serif">♣</text><text x="266" y="218" text-anchor="middle" dominant-baseline="middle" font-size="42" fill="#f59e0b" font-family="Georgia,serif">♣</text><text x="154" y="294" text-anchor="middle" dominant-baseline="middle" font-size="42" fill="#f59e0b" font-family="Georgia,serif">♣</text><text x="266" y="294" text-anchor="middle" dominant-baseline="middle" font-size="42" fill="#f59e0b" font-family="Georgia,serif">♣</text><text x="210" y="364" text-anchor="middle" dominant-baseline="middle" font-size="42" fill="#f59e0b" font-family="Georgia,serif">♣</text><text x="210" y="252" text-anchor="middle" dominant-baseline="middle" font-size="42" fill="#f59e0b" font-family="Georgia,serif">♣</text><text x="154" y="382" text-anchor="middle" dominant-baseline="middle" font-size="42" fill="#f59e0b" font-family="Georgia,serif">♣</text><text x="266" y="382" text-anchor="middle" dominant-baseline="middle" font-size="42" fill="#f59e0b" font-family="Georgia,serif">♣</text><path d="M130 464 C172 428 248 428 290 464" fill="none" stroke="#f59e0b" stroke-width="5" stroke-linecap="round" opacity=".6"/></g>
<rect x="58" y="530" width="304" height="74" rx="17" fill="#050812" opacity=".74" stroke="#d6a24f" stroke-opacity=".30"/>
<text x="210" y="566" text-anchor="middle" fill="#fff7df" font-size="20" font-family="Georgia,serif">Nine of Wands</text>
<text x="210" y="592" text-anchor="middle" fill="#c9b27a" font-size="9" font-family="Arial" letter-spacing="3">FATECARD ORIGINAL</text>
</svg>