<svg xmlns="http://www.w3.org/2000/svg" width="420" height="660" viewBox="0 0 420 660" role="img" aria-label="Five of Wands">
  <defs>
    <linearGradient id="bg" x1="0" y1="0" x2="1" y2="1">
      <stop offset="0%" stop-color="#050816"/>
      <stop offset="45%" stop-color="#17102d"/>
      <stop offset="100%" stop-color="#020617"/>
    </linearGradient>
    <radialGradient id="aura" cx="50%" cy="38%" r="68%">
      <stop offset="0%" stop-color="#facc15" stop-opacity=".18"/>
      <stop offset="52%" stop-color="#a78bfa" stop-opacity=".10"/>
      <stop offset="100%" stop-color="#020617" stop-opacity="0"/>
    </radialGradient>
    <filter id="glow" x="-30%" y="-30%" width="160%" height="160%">
      <feDropShadow dx="0" dy="0" stdDeviation="6" flood-color="#fb923c" flood-opacity=".42"/>
    </filter>
  </defs>
  <rect width="420" height="660" rx="34" fill="url(#bg)"/>
  <rect x="20" y="20" width="380" height="620" rx="30" fill="url(#aura)" stroke="#facc15" stroke-opacity=".54" stroke-width="2"/>
  <rect x="35" y="35" width="350" height="590" rx="22" fill="none" stroke="#a78bfa" stroke-opacity=".18" stroke-width="1.5"/>
  <circle cx="142" cy="443" r="1.0" fill="#fde68a" opacity="0.68"/>
<circle cx="279" cy="278" r="1.0" fill="#fde68a" opacity="0.46"/>
<circle cx="374" cy="94" r="1.8" fill="#fde68a" opacity="0.67"/>
<circle cx="99" cy="367" r="1.0" fill="#fde68a" opacity="0.55"/>
<circle cx="215" cy="479" r="1.0" fill="#fde68a" opacity="0.49"/>
<circle cx="206" cy="321" r="1.4" fill="#fde68a" opacity="0.36"/>
<circle cx="186" cy="354" r="1.8" fill="#fde68a" opacity="0.58"/>
<circle cx="250" cy="244" r="1.8" fill="#fde68a" opacity="0.40"/>
<circle cx="305" cy="266" r="2.2" fill="#fde68a" opacity="0.69"/>
<circle cx="61" cy="237" r="1.8" fill="#fde68a" opacity="0.40"/>
<circle cx="133" cy="342" r="1.0" fill="#fde68a" opacity="0.28"/>
<circle cx="127" cy="557" r="1.4" fill="#fde68a" opacity="0.61"/>
<circle cx="252" cy="204" r="1.0" fill="#fde68a" opacity="0.65"/>
<circle cx="319" cy="280" r="1.4" fill="#fde68a" opacity="0.49"/>
<circle cx="80" cy="247" r="1.0" fill="#fde68a" opacity="0.61"/>
<circle cx="279" cy="562" r="1.4" fill="#fde68a" opacity="0.35"/>
<circle cx="368" cy="585" r="1.0" fill="#fde68a" opacity="0.40"/>
<circle cx="266" cy="349" r="1.0" fill="#fde68a" opacity="0.58"/>
<circle cx="78" cy="493" r="2.2" fill="#fde68a" opacity="0.34"/>
<circle cx="159" cy="249" r="1.0" fill="#fde68a" opacity="0.64"/>
<circle cx="280" cy="368" r="2.2" fill="#fde68a" opacity="0.78"/>
<circle cx="276" cy="585" r="1.0" fill="#fde68a" opacity="0.52"/>
<circle cx="344" cy="232" r="1.8" fill="#fde68a" opacity="0.39"/>
<circle cx="112" cy="398" r="1.0" fill="#fde68a" opacity="0.36"/>
<circle cx="49" cy="474" r="2.2" fill="#fde68a" opacity="0.78"/>
<circle cx="252" cy="261" r="2.2" fill="#fde68a" opacity="0.81"/>
<circle cx="40" cy="378" r="2.2" fill="#fde68a" opacity="0.57"/>
<circle cx="222" cy="573" r="1.0" fill="#fde68a" opacity="0.35"/>
<circle cx="40" cy="90" r="1.8" fill="#fde68a" opacity="0.37"/>
<circle cx="161" cy="424" r="2.2" fill="#fde68a" opacity="0.53"/>
<circle cx="114" cy="238" r="1.0" fill="#fde68a" opacity="0.49"/>
<circle cx="102" cy="248" r="2.2" fill="#fde68a" opacity="0.53"/>
<circle cx="179" cy="205" r="1.0" fill="#fde68a" opacity="0.64"/>
<circle cx="182" cy="229" r="1.0" fill="#fde68a" opacity="0.60"/>
  
    <path d="M55 118 C120 74 300 74 365 118" fill="none" stroke="#fb923c" stroke-opacity=".28" stroke-width="2"/>
    <path d="M55 542 C120 586 300 586 365 542" fill="none" stroke="#fb923c" stroke-opacity=".28" stroke-width="2"/>
    <path d="M74 88 L98 88 M322 88 L346 88 M74 572 L98 572 M322 572 L346 572" stroke="#facc15" stroke-opacity=".50" stroke-width="2" stroke-linecap="round"/>
    <circle cx="80" cy="100" r="10" fill="none" stroke="#facc15" stroke-opacity=".45"/>
    <circle cx="340" cy="100" r="10" fill="none" stroke="#facc15" stroke-opacity=".45"/>
    <circle cx="80" cy="560" r="10" fill="none" stroke="#facc15" stroke-opacity=".45"/>
    <circle cx="340" cy="560" r="10" fill="none" stroke="#facc15" stroke-opacity=".45"/>
    
  
            <circle cx="210" cy="286" r="132" fill="#fb923c" opacity=".065"/>
            <circle cx="210" cy="286" r="102" fill="none" stroke="#facc15" stroke-opacity=".36" stroke-width="2"/>
            <text x="210" y="164" text-anchor="middle" dominant-baseline="middle" font-size="42" font-family="Georgia, serif" fill="#fb923c" opacity=".94">♣</text><text x="154" y="220" text-anchor="middle" dominant-baseline="middle" font-size="42" font-family="Georgia, serif" fill="#fb923c" opacity=".94">♣</text><text x="266" y="220" text-anchor="middle" dominant-baseline="middle" font-size="42" font-family="Georgia, serif" fill="#fb923c" opacity=".94">♣</text><text x="154" y="302" text-anchor="middle" dominant-baseline="middle" font-size="42" font-family="Georgia, serif" fill="#fb923c" opacity=".94">♣</text><text x="266" y="302" text-anchor="middle" dominant-baseline="middle" font-size="42" font-family="Georgia, serif" fill="#fb923c" opacity=".94">♣</text>
            <text x="62" y="86" font-size="26" font-family="Georgia, serif" fill="#fff7ed">V</text>
            <text x="358" y="86" text-anchor="end" font-size="26" font-family="Georgia, serif" fill="#fff7ed">V</text>
            
  <rect x="58" y="522" width="304" height="76" rx="18" fill="#020617" opacity=".62" stroke="#facc15" stroke-opacity=".24"/>
  <text x="210" y="558" text-anchor="middle" font-size="20" font-family="Georgia, serif" fill="#fff7ed">Five of Wands</text>
  <text x="210" y="586" text-anchor="middle" font-size="9" font-family="Arial, sans-serif" letter-spacing="3" fill="#c4b5fd">ORIGINAL SYMBOLIC DECK</text>
</svg>