<svg xmlns="http://www.w3.org/2000/svg" width="420" height="660" viewBox="0 0 420 660" role="img" aria-label="Nine of Pentacles">
<defs>
<linearGradient id="bg" x1="0" y1="0" x2="1" y2="1"><stop stop-color="#080b18"/><stop offset=".52" stop-color="#211436"/><stop offset="1" stop-color="#050812"/></linearGradient>
<radialGradient id="a" cx="50%" cy="40%" r="64%"><stop stop-color="#34d399" stop-opacity=".22"/><stop offset=".55" stop-color="#fde68a" stop-opacity=".12"/><stop offset="1" stop-color="#000" stop-opacity="0"/></radialGradient>
<filter id="glow"><feDropShadow dx="0" dy="0" stdDeviation="5" flood-color="#34d399" flood-opacity=".42"/></filter>
</defs>
<rect width="420" height="660" rx="34" fill="url(#bg)"/>
<rect x="18" y="18" width="384" height="624" rx="30" fill="url(#a)" stroke="#d6a24f" stroke-opacity=".82" stroke-width="2.4"/>
<rect x="36" y="36" width="348" height="588" rx="22" fill="none" stroke="#fde68a" stroke-opacity=".28" stroke-width="1.5"/>
<circle cx="375" cy="71" r="1" fill="#fff1b8" opacity="0.51"/>
<circle cx="216" cy="523" r="1.2" fill="#fff1b8" opacity="0.49"/>
<circle cx="329" cy="453" r="1.5" fill="#fff1b8" opacity="0.56"/>
<circle cx="293" cy="488" r="1.2" fill="#fff1b8" opacity="0.62"/>
<circle cx="105" cy="266" r="2" fill="#fff1b8" opacity="0.31"/>
<circle cx="269" cy="507" r="1" fill="#fff1b8" opacity="0.27"/>
<circle cx="342" cy="69" r="1.2" fill="#fff1b8" opacity="0.38"/>
<circle cx="378" cy="494" r="1.2" fill="#fff1b8" opacity="0.41"/>
<circle cx="250" cy="124" r="1" fill="#fff1b8" opacity="0.27"/>
<circle cx="159" cy="473" r="1.2" fill="#fff1b8" opacity="0.51"/>
<circle cx="155" cy="562" r="1.5" fill="#fff1b8" opacity="0.50"/>
<circle cx="231" cy="182" r="1.5" fill="#fff1b8" opacity="0.53"/>
<circle cx="114" cy="435" r="1.2" fill="#fff1b8" opacity="0.59"/>
<circle cx="216" cy="521" r="1" fill="#fff1b8" opacity="0.50"/>
<circle cx="61" cy="191" r="1" fill="#fff1b8" opacity="0.51"/>
<circle cx="50" cy="152" r="1" fill="#fff1b8" opacity="0.49"/>
<circle cx="302" cy="66" r="1.5" fill="#fff1b8" opacity="0.48"/>
<circle cx="278" cy="345" r="2" fill="#fff1b8" opacity="0.67"/>
<circle cx="352" cy="478" r="1" fill="#fff1b8" opacity="0.32"/>
<circle cx="223" cy="371" r="1.5" fill="#fff1b8" opacity="0.59"/>
<circle cx="351" cy="280" r="1" fill="#fff1b8" opacity="0.63"/>
<circle cx="75" cy="508" r="1.5" fill="#fff1b8" opacity="0.29"/>
<circle cx="245" cy="115" r="2" fill="#fff1b8" opacity="0.73"/>
<circle cx="112" cy="151" r="1.5" fill="#fff1b8" opacity="0.46"/>
<circle cx="268" cy="511" r="2" fill="#fff1b8" opacity="0.56"/>
<circle cx="158" cy="78" r="1" fill="#fff1b8" opacity="0.68"/>
<circle cx="375" cy="68" r="2" fill="#fff1b8" opacity="0.41"/>
<circle cx="260" cy="306" r="2" fill="#fff1b8" opacity="0.69"/>
<circle cx="98" cy="568" r="2" fill="#fff1b8" opacity="0.72"/>
<circle cx="168" cy="383" r="1" fill="#fff1b8" opacity="0.67"/>
<circle cx="377" cy="295" r="2" fill="#fff1b8" opacity="0.32"/>
<circle cx="306" cy="407" r="1.2" fill="#fff1b8" opacity="0.64"/>
<circle cx="156" cy="103" r="1" fill="#fff1b8" opacity="0.27"/>
<circle cx="364" cy="506" r="1.5" fill="#fff1b8" opacity="0.44"/>
<circle cx="89" cy="146" r="1.5" fill="#fff1b8" opacity="0.46"/>
<circle cx="268" cy="368" r="2" fill="#fff1b8" opacity="0.75"/>
<circle cx="112" cy="347" r="2" fill="#fff1b8" opacity="0.60"/>
<circle cx="179" cy="515" r="1.5" fill="#fff1b8" opacity="0.77"/>
<path d="M70 104 C132 68 288 68 350 104 M70 556 C132 592 288 592 350 556" fill="none" stroke="#d6a24f" stroke-opacity=".28" stroke-width="2"/>
<text x="64" y="78" fill="#fff1b8" font-size="22" font-family="Georgia,serif">IX</text>
<text x="356" y="78" text-anchor="end" fill="#fff1b8" font-size="22" font-family="Georgia,serif">IX</text>
<g filter="url(#glow)"><circle cx="210" cy="292" r="122" fill="#fde68a" opacity=".08"/><circle cx="210" cy="292" r="92" fill="none" stroke="#34d399" stroke-opacity=".36" stroke-width="2"/><text x="210" y="156" text-anchor="middle" dominant-baseline="middle" font-size="42" fill="#34d399" font-family="Georgia,serif">⬟</text><text x="154" y="218" text-anchor="middle" dominant-baseline="middle" font-size="42" fill="#34d399" font-family="Georgia,serif">⬟</text><text x="266" y="218" text-anchor="middle" dominant-baseline="middle" font-size="42" fill="#34d399" font-family="Georgia,serif">⬟</text><text x="154" y="294" text-anchor="middle" dominant-baseline="middle" font-size="42" fill="#34d399" font-family="Georgia,serif">⬟</text><text x="266" y="294" text-anchor="middle" dominant-baseline="middle" font-size="42" fill="#34d399" font-family="Georgia,serif">⬟</text><text x="210" y="364" text-anchor="middle" dominant-baseline="middle" font-size="42" fill="#34d399" font-family="Georgia,serif">⬟</text><text x="210" y="252" text-anchor="middle" dominant-baseline="middle" font-size="42" fill="#34d399" font-family="Georgia,serif">⬟</text><text x="154" y="382" text-anchor="middle" dominant-baseline="middle" font-size="42" fill="#34d399" font-family="Georgia,serif">⬟</text><text x="266" y="382" text-anchor="middle" dominant-baseline="middle" font-size="42" fill="#34d399" font-family="Georgia,serif">⬟</text><path d="M130 464 C172 428 248 428 290 464" fill="none" stroke="#34d399" stroke-width="5" stroke-linecap="round" opacity=".6"/></g>
<rect x="58" y="530" width="304" height="74" rx="17" fill="#050812" opacity=".74" stroke="#d6a24f" stroke-opacity=".30"/>
<text x="210" y="566" text-anchor="middle" fill="#fff7df" font-size="20" font-family="Georgia,serif">Nine of Pentacles</text>
<text x="210" y="592" text-anchor="middle" fill="#c9b27a" font-size="9" font-family="Arial" letter-spacing="3">FATECARD ORIGINAL</text>
</svg>