<svg xmlns="http://www.w3.org/2000/svg" width="420" height="660" viewBox="0 0 420 660" role="img" aria-label="Three of Cups">
<defs>
<linearGradient id="bg" x1="0" y1="0" x2="1" y2="1"><stop stop-color="#080b18"/><stop offset=".52" stop-color="#211436"/><stop offset="1" stop-color="#050812"/></linearGradient>
<radialGradient id="a" cx="50%" cy="40%" r="64%"><stop stop-color="#38bdf8" stop-opacity=".22"/><stop offset=".55" stop-color="#93c5fd" stop-opacity=".12"/><stop offset="1" stop-color="#000" stop-opacity="0"/></radialGradient>
<filter id="glow"><feDropShadow dx="0" dy="0" stdDeviation="5" flood-color="#38bdf8" flood-opacity=".42"/></filter>
</defs>
<rect width="420" height="660" rx="34" fill="url(#bg)"/>
<rect x="18" y="18" width="384" height="624" rx="30" fill="url(#a)" stroke="#d6a24f" stroke-opacity=".82" stroke-width="2.4"/>
<rect x="36" y="36" width="348" height="588" rx="22" fill="none" stroke="#93c5fd" stroke-opacity=".28" stroke-width="1.5"/>
<circle cx="131" cy="170" r="1" fill="#fff1b8" opacity="0.52"/>
<circle cx="333" cy="187" r="1" fill="#fff1b8" opacity="0.49"/>
<circle cx="103" cy="149" r="1.5" fill="#fff1b8" opacity="0.44"/>
<circle cx="99" cy="487" r="1.5" fill="#fff1b8" opacity="0.38"/>
<circle cx="339" cy="516" r="1.5" fill="#fff1b8" opacity="0.44"/>
<circle cx="194" cy="537" r="1.5" fill="#fff1b8" opacity="0.65"/>
<circle cx="209" cy="184" r="1.5" fill="#fff1b8" opacity="0.26"/>
<circle cx="191" cy="258" r="2" fill="#fff1b8" opacity="0.50"/>
<circle cx="174" cy="508" r="1.5" fill="#fff1b8" opacity="0.53"/>
<circle cx="114" cy="249" r="1" fill="#fff1b8" opacity="0.39"/>
<circle cx="278" cy="524" r="1.2" fill="#fff1b8" opacity="0.67"/>
<circle cx="178" cy="298" r="2" fill="#fff1b8" opacity="0.64"/>
<circle cx="300" cy="430" r="1" fill="#fff1b8" opacity="0.44"/>
<circle cx="267" cy="526" r="1" fill="#fff1b8" opacity="0.50"/>
<circle cx="291" cy="73" r="1.2" fill="#fff1b8" opacity="0.69"/>
<circle cx="71" cy="193" r="1.2" fill="#fff1b8" opacity="0.54"/>
<circle cx="371" cy="195" r="1.2" fill="#fff1b8" opacity="0.55"/>
<circle cx="300" cy="549" r="1.5" fill="#fff1b8" opacity="0.42"/>
<circle cx="363" cy="77" r="1" fill="#fff1b8" opacity="0.49"/>
<circle cx="63" cy="141" r="1.5" fill="#fff1b8" opacity="0.43"/>
<circle cx="350" cy="99" r="1" fill="#fff1b8" opacity="0.68"/>
<circle cx="283" cy="562" r="1.5" fill="#fff1b8" opacity="0.39"/>
<circle cx="169" cy="433" r="1.5" fill="#fff1b8" opacity="0.37"/>
<circle cx="64" cy="389" r="2" fill="#fff1b8" opacity="0.52"/>
<circle cx="55" cy="69" r="2" fill="#fff1b8" opacity="0.41"/>
<circle cx="70" cy="354" r="2" fill="#fff1b8" opacity="0.50"/>
<circle cx="182" cy="481" r="1.2" fill="#fff1b8" opacity="0.65"/>
<circle cx="320" cy="481" r="1.5" fill="#fff1b8" opacity="0.52"/>
<circle cx="97" cy="378" r="2" fill="#fff1b8" opacity="0.77"/>
<circle cx="251" cy="274" r="1" fill="#fff1b8" opacity="0.48"/>
<circle cx="367" cy="559" r="1.2" fill="#fff1b8" opacity="0.64"/>
<circle cx="137" cy="565" r="1" fill="#fff1b8" opacity="0.58"/>
<circle cx="59" cy="117" r="1.5" fill="#fff1b8" opacity="0.67"/>
<circle cx="316" cy="262" r="1.2" fill="#fff1b8" opacity="0.39"/>
<circle cx="161" cy="294" r="1" fill="#fff1b8" opacity="0.57"/>
<circle cx="188" cy="263" r="1.5" fill="#fff1b8" opacity="0.56"/>
<circle cx="294" cy="365" r="1" fill="#fff1b8" opacity="0.76"/>
<circle cx="195" cy="247" r="1.5" fill="#fff1b8" opacity="0.50"/>
<path d="M70 104 C132 68 288 68 350 104 M70 556 C132 592 288 592 350 556" fill="none" stroke="#d6a24f" stroke-opacity=".28" stroke-width="2"/>
<text x="64" y="78" fill="#fff1b8" font-size="22" font-family="Georgia,serif">III</text>
<text x="356" y="78" text-anchor="end" fill="#fff1b8" font-size="22" font-family="Georgia,serif">III</text>
<g filter="url(#glow)"><circle cx="210" cy="292" r="122" fill="#93c5fd" opacity=".08"/><circle cx="210" cy="292" r="92" fill="none" stroke="#38bdf8" stroke-opacity=".36" stroke-width="2"/><text x="210" y="156" text-anchor="middle" dominant-baseline="middle" font-size="42" fill="#38bdf8" font-family="Georgia,serif">●</text><text x="154" y="218" text-anchor="middle" dominant-baseline="middle" font-size="42" fill="#38bdf8" font-family="Georgia,serif">●</text><text x="266" y="218" text-anchor="middle" dominant-baseline="middle" font-size="42" fill="#38bdf8" font-family="Georgia,serif">●</text><path d="M130 464 C172 428 248 428 290 464" fill="none" stroke="#38bdf8" stroke-width="5" stroke-linecap="round" opacity=".6"/></g>
<rect x="58" y="530" width="304" height="74" rx="17" fill="#050812" opacity=".74" stroke="#d6a24f" stroke-opacity=".30"/>
<text x="210" y="566" text-anchor="middle" fill="#fff7df" font-size="20" font-family="Georgia,serif">Three of Cups</text>
<text x="210" y="592" text-anchor="middle" fill="#c9b27a" font-size="9" font-family="Arial" letter-spacing="3">FATECARD ORIGINAL</text>
</svg>