<svg xmlns="http://www.w3.org/2000/svg" width="420" height="660" viewBox="0 0 420 660" role="img" aria-label="Ace of Cups">
<defs>
<linearGradient id="bg" x1="0" y1="0" x2="1" y2="1"><stop stop-color="#080b18"/><stop offset=".52" stop-color="#211436"/><stop offset="1" stop-color="#050812"/></linearGradient>
<radialGradient id="a" cx="50%" cy="40%" r="64%"><stop stop-color="#38bdf8" stop-opacity=".22"/><stop offset=".55" stop-color="#93c5fd" stop-opacity=".12"/><stop offset="1" stop-color="#000" stop-opacity="0"/></radialGradient>
<filter id="glow"><feDropShadow dx="0" dy="0" stdDeviation="5" flood-color="#38bdf8" flood-opacity=".42"/></filter>
</defs>
<rect width="420" height="660" rx="34" fill="url(#bg)"/>
<rect x="18" y="18" width="384" height="624" rx="30" fill="url(#a)" stroke="#d6a24f" stroke-opacity=".82" stroke-width="2.4"/>
<rect x="36" y="36" width="348" height="588" rx="22" fill="none" stroke="#93c5fd" stroke-opacity=".28" stroke-width="1.5"/>
<circle cx="191" cy="144" r="1.5" fill="#fff1b8" opacity="0.56"/>
<circle cx="196" cy="387" r="1" fill="#fff1b8" opacity="0.59"/>
<circle cx="64" cy="573" r="2" fill="#fff1b8" opacity="0.40"/>
<circle cx="117" cy="218" r="1.5" fill="#fff1b8" opacity="0.78"/>
<circle cx="375" cy="72" r="1.2" fill="#fff1b8" opacity="0.35"/>
<circle cx="258" cy="448" r="1" fill="#fff1b8" opacity="0.71"/>
<circle cx="191" cy="434" r="1.2" fill="#fff1b8" opacity="0.57"/>
<circle cx="94" cy="356" r="1" fill="#fff1b8" opacity="0.67"/>
<circle cx="236" cy="212" r="1.5" fill="#fff1b8" opacity="0.34"/>
<circle cx="157" cy="245" r="2" fill="#fff1b8" opacity="0.58"/>
<circle cx="71" cy="263" r="2" fill="#fff1b8" opacity="0.69"/>
<circle cx="220" cy="486" r="2" fill="#fff1b8" opacity="0.62"/>
<circle cx="172" cy="580" r="2" fill="#fff1b8" opacity="0.58"/>
<circle cx="368" cy="302" r="1.5" fill="#fff1b8" opacity="0.42"/>
<circle cx="166" cy="176" r="2" fill="#fff1b8" opacity="0.65"/>
<circle cx="304" cy="106" r="1" fill="#fff1b8" opacity="0.72"/>
<circle cx="46" cy="538" r="1" fill="#fff1b8" opacity="0.40"/>
<circle cx="146" cy="160" r="1" fill="#fff1b8" opacity="0.55"/>
<circle cx="197" cy="507" r="1.2" fill="#fff1b8" opacity="0.61"/>
<circle cx="348" cy="79" r="2" fill="#fff1b8" opacity="0.29"/>
<circle cx="338" cy="503" r="1.2" fill="#fff1b8" opacity="0.37"/>
<circle cx="355" cy="253" r="2" fill="#fff1b8" opacity="0.75"/>
<circle cx="89" cy="223" r="1" fill="#fff1b8" opacity="0.36"/>
<circle cx="224" cy="457" r="1.2" fill="#fff1b8" opacity="0.46"/>
<circle cx="288" cy="539" r="1.5" fill="#fff1b8" opacity="0.39"/>
<circle cx="143" cy="178" r="1.5" fill="#fff1b8" opacity="0.76"/>
<circle cx="184" cy="69" r="1.5" fill="#fff1b8" opacity="0.36"/>
<circle cx="168" cy="331" r="1" fill="#fff1b8" opacity="0.35"/>
<circle cx="289" cy="235" r="1.2" fill="#fff1b8" opacity="0.75"/>
<circle cx="52" cy="430" r="2" fill="#fff1b8" opacity="0.42"/>
<circle cx="67" cy="219" r="1.5" fill="#fff1b8" opacity="0.52"/>
<circle cx="313" cy="422" r="1" fill="#fff1b8" opacity="0.54"/>
<circle cx="180" cy="296" r="1.2" fill="#fff1b8" opacity="0.61"/>
<circle cx="276" cy="261" r="1.5" fill="#fff1b8" opacity="0.51"/>
<circle cx="191" cy="526" r="1" fill="#fff1b8" opacity="0.28"/>
<circle cx="170" cy="575" r="1" fill="#fff1b8" opacity="0.57"/>
<circle cx="80" cy="348" r="1.2" fill="#fff1b8" opacity="0.68"/>
<circle cx="289" cy="91" r="1" fill="#fff1b8" opacity="0.62"/>
<path d="M70 104 C132 68 288 68 350 104 M70 556 C132 592 288 592 350 556" fill="none" stroke="#d6a24f" stroke-opacity=".28" stroke-width="2"/>
<text x="64" y="78" fill="#fff1b8" font-size="22" font-family="Georgia,serif">A</text>
<text x="356" y="78" text-anchor="end" fill="#fff1b8" font-size="22" font-family="Georgia,serif">A</text>
<g filter="url(#glow)"><circle cx="210" cy="292" r="122" fill="#93c5fd" opacity=".08"/><circle cx="210" cy="292" r="92" fill="none" stroke="#38bdf8" stroke-opacity=".36" stroke-width="2"/><text x="210" y="156" text-anchor="middle" dominant-baseline="middle" font-size="42" fill="#38bdf8" font-family="Georgia,serif">●</text><path d="M130 464 C172 428 248 428 290 464" fill="none" stroke="#38bdf8" stroke-width="5" stroke-linecap="round" opacity=".6"/></g>
<rect x="58" y="530" width="304" height="74" rx="17" fill="#050812" opacity=".74" stroke="#d6a24f" stroke-opacity=".30"/>
<text x="210" y="566" text-anchor="middle" fill="#fff7df" font-size="20" font-family="Georgia,serif">Ace of Cups</text>
<text x="210" y="592" text-anchor="middle" fill="#c9b27a" font-size="9" font-family="Arial" letter-spacing="3">FATECARD ORIGINAL</text>
</svg>