<svg xmlns="http://www.w3.org/2000/svg" width="420" height="660" viewBox="0 0 420 660" role="img" aria-label="King of Pentacles">
<defs>
<linearGradient id="bg" x1="0" y1="0" x2="1" y2="1"><stop stop-color="#080b18"/><stop offset=".52" stop-color="#211436"/><stop offset="1" stop-color="#050812"/></linearGradient>
<radialGradient id="a" cx="50%" cy="40%" r="64%"><stop stop-color="#34d399" stop-opacity=".22"/><stop offset=".55" stop-color="#fde68a" stop-opacity=".12"/><stop offset="1" stop-color="#000" stop-opacity="0"/></radialGradient>
<filter id="glow"><feDropShadow dx="0" dy="0" stdDeviation="5" flood-color="#34d399" flood-opacity=".42"/></filter>
</defs>
<rect width="420" height="660" rx="34" fill="url(#bg)"/>
<rect x="18" y="18" width="384" height="624" rx="30" fill="url(#a)" stroke="#d6a24f" stroke-opacity=".82" stroke-width="2.4"/>
<rect x="36" y="36" width="348" height="588" rx="22" fill="none" stroke="#fde68a" stroke-opacity=".28" stroke-width="1.5"/>
<circle cx="245" cy="303" r="1" fill="#fff1b8" opacity="0.65"/>
<circle cx="52" cy="107" r="1.5" fill="#fff1b8" opacity="0.55"/>
<circle cx="81" cy="289" r="1" fill="#fff1b8" opacity="0.63"/>
<circle cx="267" cy="477" r="1.5" fill="#fff1b8" opacity="0.47"/>
<circle cx="261" cy="341" r="1.2" fill="#fff1b8" opacity="0.78"/>
<circle cx="90" cy="58" r="1.2" fill="#fff1b8" opacity="0.30"/>
<circle cx="129" cy="530" r="1.2" fill="#fff1b8" opacity="0.54"/>
<circle cx="303" cy="83" r="1" fill="#fff1b8" opacity="0.28"/>
<circle cx="116" cy="217" r="1" fill="#fff1b8" opacity="0.57"/>
<circle cx="195" cy="81" r="2" fill="#fff1b8" opacity="0.53"/>
<circle cx="170" cy="218" r="1.2" fill="#fff1b8" opacity="0.78"/>
<circle cx="161" cy="464" r="1.5" fill="#fff1b8" opacity="0.47"/>
<circle cx="152" cy="495" r="2" fill="#fff1b8" opacity="0.77"/>
<circle cx="219" cy="258" r="1.5" fill="#fff1b8" opacity="0.67"/>
<circle cx="359" cy="568" r="1.2" fill="#fff1b8" opacity="0.34"/>
<circle cx="243" cy="197" r="2" fill="#fff1b8" opacity="0.58"/>
<circle cx="198" cy="475" r="1" fill="#fff1b8" opacity="0.74"/>
<circle cx="165" cy="272" r="1" fill="#fff1b8" opacity="0.43"/>
<circle cx="162" cy="198" r="1" fill="#fff1b8" opacity="0.70"/>
<circle cx="96" cy="345" r="2" fill="#fff1b8" opacity="0.64"/>
<circle cx="176" cy="476" r="1.5" fill="#fff1b8" opacity="0.63"/>
<circle cx="277" cy="302" r="1.5" fill="#fff1b8" opacity="0.40"/>
<circle cx="232" cy="311" r="2" fill="#fff1b8" opacity="0.37"/>
<circle cx="250" cy="122" r="1.2" fill="#fff1b8" opacity="0.68"/>
<circle cx="104" cy="525" r="1.2" fill="#fff1b8" opacity="0.36"/>
<circle cx="224" cy="175" r="1.2" fill="#fff1b8" opacity="0.52"/>
<circle cx="169" cy="426" r="1" fill="#fff1b8" opacity="0.62"/>
<circle cx="349" cy="84" r="1" fill="#fff1b8" opacity="0.70"/>
<circle cx="156" cy="556" r="1.5" fill="#fff1b8" opacity="0.52"/>
<circle cx="203" cy="524" r="1.5" fill="#fff1b8" opacity="0.77"/>
<circle cx="79" cy="465" r="1" fill="#fff1b8" opacity="0.41"/>
<circle cx="115" cy="398" r="2" fill="#fff1b8" opacity="0.51"/>
<circle cx="100" cy="485" r="2" fill="#fff1b8" opacity="0.52"/>
<circle cx="223" cy="321" r="1" fill="#fff1b8" opacity="0.35"/>
<circle cx="346" cy="94" r="1.5" fill="#fff1b8" opacity="0.70"/>
<circle cx="274" cy="257" r="1" fill="#fff1b8" opacity="0.70"/>
<circle cx="321" cy="501" r="1.5" fill="#fff1b8" opacity="0.44"/>
<circle cx="144" cy="383" r="1.5" fill="#fff1b8" opacity="0.77"/>
<path d="M70 104 C132 68 288 68 350 104 M70 556 C132 592 288 592 350 556" fill="none" stroke="#d6a24f" stroke-opacity=".28" stroke-width="2"/>
<text x="64" y="78" fill="#fff1b8" font-size="22" font-family="Georgia,serif">KING</text>
<text x="356" y="78" text-anchor="end" fill="#fff1b8" font-size="22" font-family="Georgia,serif">KING</text>
<g filter="url(#glow)"><ellipse cx="210" cy="430" rx="96" ry="22" fill="#fde68a" opacity=".16"/><path d="M148 400 C164 310 186 250 210 220 C234 250 256 310 272 400 Z" fill="#34d399" opacity=".17" stroke="#34d399" stroke-width="3"/><circle cx="210" cy="214" r="40" fill="#fde68a" opacity=".18" stroke="#fde68a" stroke-width="3"/><text x="210" y="268" text-anchor="middle" font-size="74" fill="#34d399" font-family="Georgia,serif">♚</text><text x="210" y="356" text-anchor="middle" font-size="56" fill="#fde68a" font-family="Georgia,serif">⬟</text></g>
<rect x="58" y="530" width="304" height="74" rx="17" fill="#050812" opacity=".74" stroke="#d6a24f" stroke-opacity=".30"/>
<text x="210" y="566" text-anchor="middle" fill="#fff7df" font-size="20" font-family="Georgia,serif">King of Pentacles</text>
<text x="210" y="592" text-anchor="middle" fill="#c9b27a" font-size="9" font-family="Arial" letter-spacing="3">FATECARD ORIGINAL</text>
</svg>