<svg xmlns="http://www.w3.org/2000/svg" width="420" height="660" viewBox="0 0 420 660" role="img" aria-label="Ace of Swords">
<defs>
<linearGradient id="bg" x1="0" y1="0" x2="1" y2="1"><stop stop-color="#080b18"/><stop offset=".52" stop-color="#211436"/><stop offset="1" stop-color="#050812"/></linearGradient>
<radialGradient id="a" cx="50%" cy="40%" r="64%"><stop stop-color="#c4b5fd" stop-opacity=".22"/><stop offset=".55" stop-color="#e0e7ff" stop-opacity=".12"/><stop offset="1" stop-color="#000" stop-opacity="0"/></radialGradient>
<filter id="glow"><feDropShadow dx="0" dy="0" stdDeviation="5" flood-color="#c4b5fd" flood-opacity=".42"/></filter>
</defs>
<rect width="420" height="660" rx="34" fill="url(#bg)"/>
<rect x="18" y="18" width="384" height="624" rx="30" fill="url(#a)" stroke="#d6a24f" stroke-opacity=".82" stroke-width="2.4"/>
<rect x="36" y="36" width="348" height="588" rx="22" fill="none" stroke="#e0e7ff" stroke-opacity=".28" stroke-width="1.5"/>
<circle cx="183" cy="353" r="1.2" fill="#fff1b8" opacity="0.41"/>
<circle cx="325" cy="418" r="1" fill="#fff1b8" opacity="0.28"/>
<circle cx="237" cy="495" r="1.5" fill="#fff1b8" opacity="0.42"/>
<circle cx="173" cy="151" r="2" fill="#fff1b8" opacity="0.30"/>
<circle cx="140" cy="338" r="1" fill="#fff1b8" opacity="0.67"/>
<circle cx="166" cy="422" r="1.5" fill="#fff1b8" opacity="0.65"/>
<circle cx="221" cy="91" r="1" fill="#fff1b8" opacity="0.63"/>
<circle cx="290" cy="578" r="1.2" fill="#fff1b8" opacity="0.68"/>
<circle cx="329" cy="304" r="1.5" fill="#fff1b8" opacity="0.71"/>
<circle cx="309" cy="389" r="1.2" fill="#fff1b8" opacity="0.28"/>
<circle cx="280" cy="145" r="1" fill="#fff1b8" opacity="0.53"/>
<circle cx="197" cy="240" r="1" fill="#fff1b8" opacity="0.33"/>
<circle cx="145" cy="587" r="2" fill="#fff1b8" opacity="0.37"/>
<circle cx="317" cy="379" r="1" fill="#fff1b8" opacity="0.47"/>
<circle cx="332" cy="264" r="1.2" fill="#fff1b8" opacity="0.72"/>
<circle cx="253" cy="215" r="1.2" fill="#fff1b8" opacity="0.61"/>
<circle cx="268" cy="434" r="2" fill="#fff1b8" opacity="0.57"/>
<circle cx="310" cy="69" r="2" fill="#fff1b8" opacity="0.35"/>
<circle cx="270" cy="384" r="2" fill="#fff1b8" opacity="0.67"/>
<circle cx="316" cy="480" r="1" fill="#fff1b8" opacity="0.45"/>
<circle cx="88" cy="486" r="1" fill="#fff1b8" opacity="0.41"/>
<circle cx="282" cy="430" r="1.2" fill="#fff1b8" opacity="0.38"/>
<circle cx="140" cy="101" r="2" fill="#fff1b8" opacity="0.36"/>
<circle cx="235" cy="89" r="1.2" fill="#fff1b8" opacity="0.27"/>
<circle cx="206" cy="300" r="2" fill="#fff1b8" opacity="0.65"/>
<circle cx="291" cy="513" r="1" fill="#fff1b8" opacity="0.45"/>
<circle cx="75" cy="347" r="1.2" fill="#fff1b8" opacity="0.76"/>
<circle cx="299" cy="505" r="1.2" fill="#fff1b8" opacity="0.58"/>
<circle cx="304" cy="420" r="1" fill="#fff1b8" opacity="0.35"/>
<circle cx="286" cy="272" r="2" fill="#fff1b8" opacity="0.64"/>
<circle cx="283" cy="441" r="2" fill="#fff1b8" opacity="0.55"/>
<circle cx="114" cy="232" r="1" fill="#fff1b8" opacity="0.64"/>
<circle cx="243" cy="316" r="1" fill="#fff1b8" opacity="0.46"/>
<circle cx="118" cy="112" r="1" fill="#fff1b8" opacity="0.56"/>
<circle cx="287" cy="251" r="1" fill="#fff1b8" opacity="0.53"/>
<circle cx="240" cy="350" r="2" fill="#fff1b8" opacity="0.43"/>
<circle cx="338" cy="171" r="1.2" fill="#fff1b8" opacity="0.76"/>
<circle cx="248" cy="543" r="1" fill="#fff1b8" opacity="0.54"/>
<path d="M70 104 C132 68 288 68 350 104 M70 556 C132 592 288 592 350 556" fill="none" stroke="#d6a24f" stroke-opacity=".28" stroke-width="2"/>
<text x="64" y="78" fill="#fff1b8" font-size="22" font-family="Georgia,serif">A</text>
<text x="356" y="78" text-anchor="end" fill="#fff1b8" font-size="22" font-family="Georgia,serif">A</text>
<g filter="url(#glow)"><circle cx="210" cy="292" r="122" fill="#e0e7ff" opacity=".08"/><circle cx="210" cy="292" r="92" fill="none" stroke="#c4b5fd" stroke-opacity=".36" stroke-width="2"/><text x="210" y="156" text-anchor="middle" dominant-baseline="middle" font-size="42" fill="#c4b5fd" font-family="Georgia,serif">◆</text><path d="M130 464 C172 428 248 428 290 464" fill="none" stroke="#c4b5fd" stroke-width="5" stroke-linecap="round" opacity=".6"/></g>
<rect x="58" y="530" width="304" height="74" rx="17" fill="#050812" opacity=".74" stroke="#d6a24f" stroke-opacity=".30"/>
<text x="210" y="566" text-anchor="middle" fill="#fff7df" font-size="20" font-family="Georgia,serif">Ace of Swords</text>
<text x="210" y="592" text-anchor="middle" fill="#c9b27a" font-size="9" font-family="Arial" letter-spacing="3">FATECARD ORIGINAL</text>
</svg>