<svg xmlns="http://www.w3.org/2000/svg" width="420" height="660" viewBox="0 0 420 660" role="img" aria-label="King of Wands">
<defs>
<linearGradient id="bg" x1="0" y1="0" x2="1" y2="1"><stop stop-color="#080b18"/><stop offset=".52" stop-color="#211436"/><stop offset="1" stop-color="#050812"/></linearGradient>
<radialGradient id="a" cx="50%" cy="40%" r="64%"><stop stop-color="#f59e0b" stop-opacity=".22"/><stop offset=".55" stop-color="#fb923c" stop-opacity=".12"/><stop offset="1" stop-color="#000" stop-opacity="0"/></radialGradient>
<filter id="glow"><feDropShadow dx="0" dy="0" stdDeviation="5" flood-color="#f59e0b" flood-opacity=".42"/></filter>
</defs>
<rect width="420" height="660" rx="34" fill="url(#bg)"/>
<rect x="18" y="18" width="384" height="624" rx="30" fill="url(#a)" stroke="#d6a24f" stroke-opacity=".82" stroke-width="2.4"/>
<rect x="36" y="36" width="348" height="588" rx="22" fill="none" stroke="#fb923c" stroke-opacity=".28" stroke-width="1.5"/>
<circle cx="311" cy="118" r="1.2" fill="#fff1b8" opacity="0.68"/>
<circle cx="70" cy="561" r="1.5" fill="#fff1b8" opacity="0.41"/>
<circle cx="229" cy="166" r="1.5" fill="#fff1b8" opacity="0.66"/>
<circle cx="133" cy="372" r="1.2" fill="#fff1b8" opacity="0.47"/>
<circle cx="346" cy="70" r="2" fill="#fff1b8" opacity="0.59"/>
<circle cx="178" cy="533" r="1.2" fill="#fff1b8" opacity="0.37"/>
<circle cx="130" cy="156" r="1.2" fill="#fff1b8" opacity="0.49"/>
<circle cx="208" cy="262" r="1.5" fill="#fff1b8" opacity="0.45"/>
<circle cx="189" cy="134" r="1.5" fill="#fff1b8" opacity="0.76"/>
<circle cx="373" cy="251" r="1" fill="#fff1b8" opacity="0.53"/>
<circle cx="302" cy="377" r="1" fill="#fff1b8" opacity="0.64"/>
<circle cx="123" cy="485" r="1" fill="#fff1b8" opacity="0.54"/>
<circle cx="241" cy="535" r="2" fill="#fff1b8" opacity="0.54"/>
<circle cx="169" cy="274" r="1.5" fill="#fff1b8" opacity="0.64"/>
<circle cx="170" cy="561" r="1.5" fill="#fff1b8" opacity="0.30"/>
<circle cx="224" cy="578" r="1.2" fill="#fff1b8" opacity="0.65"/>
<circle cx="378" cy="226" r="1" fill="#fff1b8" opacity="0.50"/>
<circle cx="182" cy="431" r="2" fill="#fff1b8" opacity="0.37"/>
<circle cx="377" cy="491" r="1" fill="#fff1b8" opacity="0.40"/>
<circle cx="102" cy="180" r="2" fill="#fff1b8" opacity="0.70"/>
<circle cx="280" cy="580" r="1" fill="#fff1b8" opacity="0.51"/>
<circle cx="295" cy="453" r="2" fill="#fff1b8" opacity="0.56"/>
<circle cx="254" cy="490" r="1.2" fill="#fff1b8" opacity="0.55"/>
<circle cx="154" cy="326" r="2" fill="#fff1b8" opacity="0.74"/>
<circle cx="323" cy="473" r="1" fill="#fff1b8" opacity="0.45"/>
<circle cx="378" cy="199" r="1.2" fill="#fff1b8" opacity="0.39"/>
<circle cx="119" cy="414" r="2" fill="#fff1b8" opacity="0.66"/>
<circle cx="128" cy="406" r="1" fill="#fff1b8" opacity="0.31"/>
<circle cx="300" cy="103" r="1.2" fill="#fff1b8" opacity="0.43"/>
<circle cx="292" cy="168" r="1" fill="#fff1b8" opacity="0.63"/>
<circle cx="371" cy="363" r="2" fill="#fff1b8" opacity="0.54"/>
<circle cx="87" cy="120" r="1.2" fill="#fff1b8" opacity="0.54"/>
<circle cx="175" cy="192" r="1" fill="#fff1b8" opacity="0.55"/>
<circle cx="189" cy="176" r="2" fill="#fff1b8" opacity="0.30"/>
<circle cx="107" cy="232" r="2" fill="#fff1b8" opacity="0.64"/>
<circle cx="56" cy="168" r="2" fill="#fff1b8" opacity="0.68"/>
<circle cx="310" cy="460" r="1" fill="#fff1b8" opacity="0.61"/>
<circle cx="121" cy="222" r="1.5" fill="#fff1b8" opacity="0.58"/>
<path d="M70 104 C132 68 288 68 350 104 M70 556 C132 592 288 592 350 556" fill="none" stroke="#d6a24f" stroke-opacity=".28" stroke-width="2"/>
<text x="64" y="78" fill="#fff1b8" font-size="22" font-family="Georgia,serif">KING</text>
<text x="356" y="78" text-anchor="end" fill="#fff1b8" font-size="22" font-family="Georgia,serif">KING</text>
<g filter="url(#glow)"><ellipse cx="210" cy="430" rx="96" ry="22" fill="#fb923c" opacity=".16"/><path d="M148 400 C164 310 186 250 210 220 C234 250 256 310 272 400 Z" fill="#f59e0b" opacity=".17" stroke="#f59e0b" stroke-width="3"/><circle cx="210" cy="214" r="40" fill="#fb923c" opacity=".18" stroke="#fb923c" stroke-width="3"/><text x="210" y="268" text-anchor="middle" font-size="74" fill="#f59e0b" font-family="Georgia,serif">♚</text><text x="210" y="356" text-anchor="middle" font-size="56" fill="#fb923c" font-family="Georgia,serif">♣</text></g>
<rect x="58" y="530" width="304" height="74" rx="17" fill="#050812" opacity=".74" stroke="#d6a24f" stroke-opacity=".30"/>
<text x="210" y="566" text-anchor="middle" fill="#fff7df" font-size="20" font-family="Georgia,serif">King of Wands</text>
<text x="210" y="592" text-anchor="middle" fill="#c9b27a" font-size="9" font-family="Arial" letter-spacing="3">FATECARD ORIGINAL</text>
</svg>