<svg xmlns="http://www.w3.org/2000/svg" width="420" height="660" viewBox="0 0 420 660" role="img" aria-label="Seven of Wands">
  <defs>
    <linearGradient id="bg" x1="0" y1="0" x2="1" y2="1">
      <stop offset="0%" stop-color="#050816"/>
      <stop offset="45%" stop-color="#17102d"/>
      <stop offset="100%" stop-color="#020617"/>
    </linearGradient>
    <radialGradient id="aura" cx="50%" cy="38%" r="68%">
      <stop offset="0%" stop-color="#facc15" stop-opacity=".18"/>
      <stop offset="52%" stop-color="#a78bfa" stop-opacity=".10"/>
      <stop offset="100%" stop-color="#020617" stop-opacity="0"/>
    </radialGradient>
    <filter id="glow" x="-30%" y="-30%" width="160%" height="160%">
      <feDropShadow dx="0" dy="0" stdDeviation="6" flood-color="#fb923c" flood-opacity=".42"/>
    </filter>
  </defs>
  <rect width="420" height="660" rx="34" fill="url(#bg)"/>
  <rect x="20" y="20" width="380" height="620" rx="30" fill="url(#aura)" stroke="#facc15" stroke-opacity=".54" stroke-width="2"/>
  <rect x="35" y="35" width="350" height="590" rx="22" fill="none" stroke="#a78bfa" stroke-opacity=".18" stroke-width="1.5"/>
  <circle cx="354" cy="166" r="1.0" fill="#fde68a" opacity="0.39"/>
<circle cx="120" cy="307" r="1.8" fill="#fde68a" opacity="0.34"/>
<circle cx="211" cy="390" r="1.0" fill="#fde68a" opacity="0.66"/>
<circle cx="129" cy="124" r="1.0" fill="#fde68a" opacity="0.35"/>
<circle cx="265" cy="511" r="1.8" fill="#fde68a" opacity="0.33"/>
<circle cx="206" cy="266" r="1.0" fill="#fde68a" opacity="0.55"/>
<circle cx="73" cy="214" r="2.2" fill="#fde68a" opacity="0.47"/>
<circle cx="66" cy="161" r="1.0" fill="#fde68a" opacity="0.33"/>
<circle cx="279" cy="552" r="1.0" fill="#fde68a" opacity="0.52"/>
<circle cx="72" cy="154" r="2.2" fill="#fde68a" opacity="0.60"/>
<circle cx="379" cy="444" r="1.0" fill="#fde68a" opacity="0.77"/>
<circle cx="215" cy="220" r="1.0" fill="#fde68a" opacity="0.76"/>
<circle cx="137" cy="153" r="1.4" fill="#fde68a" opacity="0.66"/>
<circle cx="177" cy="356" r="2.2" fill="#fde68a" opacity="0.56"/>
<circle cx="342" cy="215" r="1.0" fill="#fde68a" opacity="0.78"/>
<circle cx="189" cy="541" r="1.0" fill="#fde68a" opacity="0.59"/>
<circle cx="306" cy="54" r="2.2" fill="#fde68a" opacity="0.62"/>
<circle cx="152" cy="552" r="1.4" fill="#fde68a" opacity="0.40"/>
<circle cx="321" cy="105" r="1.0" fill="#fde68a" opacity="0.39"/>
<circle cx="187" cy="154" r="2.2" fill="#fde68a" opacity="0.43"/>
<circle cx="210" cy="550" r="1.8" fill="#fde68a" opacity="0.41"/>
<circle cx="213" cy="329" r="1.8" fill="#fde68a" opacity="0.44"/>
<circle cx="120" cy="478" r="2.2" fill="#fde68a" opacity="0.74"/>
<circle cx="352" cy="173" r="1.4" fill="#fde68a" opacity="0.53"/>
<circle cx="181" cy="127" r="1.8" fill="#fde68a" opacity="0.73"/>
<circle cx="327" cy="231" r="2.2" fill="#fde68a" opacity="0.67"/>
<circle cx="329" cy="90" r="1.4" fill="#fde68a" opacity="0.81"/>
<circle cx="115" cy="106" r="1.8" fill="#fde68a" opacity="0.40"/>
<circle cx="324" cy="587" r="1.0" fill="#fde68a" opacity="0.29"/>
<circle cx="103" cy="502" r="1.0" fill="#fde68a" opacity="0.63"/>
<circle cx="355" cy="119" r="2.2" fill="#fde68a" opacity="0.83"/>
<circle cx="249" cy="109" r="1.8" fill="#fde68a" opacity="0.72"/>
<circle cx="250" cy="305" r="1.0" fill="#fde68a" opacity="0.56"/>
<circle cx="64" cy="368" r="1.8" fill="#fde68a" opacity="0.72"/>
  
    <path d="M55 118 C120 74 300 74 365 118" fill="none" stroke="#fb923c" stroke-opacity=".28" stroke-width="2"/>
    <path d="M55 542 C120 586 300 586 365 542" fill="none" stroke="#fb923c" stroke-opacity=".28" stroke-width="2"/>
    <path d="M74 88 L98 88 M322 88 L346 88 M74 572 L98 572 M322 572 L346 572" stroke="#facc15" stroke-opacity=".50" stroke-width="2" stroke-linecap="round"/>
    <circle cx="80" cy="100" r="10" fill="none" stroke="#facc15" stroke-opacity=".45"/>
    <circle cx="340" cy="100" r="10" fill="none" stroke="#facc15" stroke-opacity=".45"/>
    <circle cx="80" cy="560" r="10" fill="none" stroke="#facc15" stroke-opacity=".45"/>
    <circle cx="340" cy="560" r="10" fill="none" stroke="#facc15" stroke-opacity=".45"/>
    
  
            <circle cx="210" cy="286" r="132" fill="#fb923c" opacity=".065"/>
            <circle cx="210" cy="286" r="102" fill="none" stroke="#facc15" stroke-opacity=".36" stroke-width="2"/>
            <text x="210" y="164" text-anchor="middle" dominant-baseline="middle" font-size="42" font-family="Georgia, serif" fill="#fb923c" opacity=".94">♣</text><text x="154" y="220" text-anchor="middle" dominant-baseline="middle" font-size="42" font-family="Georgia, serif" fill="#fb923c" opacity=".94">♣</text><text x="266" y="220" text-anchor="middle" dominant-baseline="middle" font-size="42" font-family="Georgia, serif" fill="#fb923c" opacity=".94">♣</text><text x="154" y="302" text-anchor="middle" dominant-baseline="middle" font-size="42" font-family="Georgia, serif" fill="#fb923c" opacity=".94">♣</text><text x="266" y="302" text-anchor="middle" dominant-baseline="middle" font-size="42" font-family="Georgia, serif" fill="#fb923c" opacity=".94">♣</text><text x="210" y="360" text-anchor="middle" dominant-baseline="middle" font-size="42" font-family="Georgia, serif" fill="#fb923c" opacity=".94">♣</text><text x="210" y="250" text-anchor="middle" dominant-baseline="middle" font-size="50" font-family="Georgia, serif" fill="#fb923c" opacity=".94">♣</text>
            <text x="62" y="86" font-size="26" font-family="Georgia, serif" fill="#fff7ed">VII</text>
            <text x="358" y="86" text-anchor="end" font-size="26" font-family="Georgia, serif" fill="#fff7ed">VII</text>
            
  <rect x="58" y="522" width="304" height="76" rx="18" fill="#020617" opacity=".62" stroke="#facc15" stroke-opacity=".24"/>
  <text x="210" y="558" text-anchor="middle" font-size="20" font-family="Georgia, serif" fill="#fff7ed">Seven of Wands</text>
  <text x="210" y="586" text-anchor="middle" font-size="9" font-family="Arial, sans-serif" letter-spacing="3" fill="#c4b5fd">ORIGINAL SYMBOLIC DECK</text>
</svg>