<svg xmlns="http://www.w3.org/2000/svg" width="420" height="660" viewBox="0 0 420 660" role="img" aria-label="Six of Wands">
<defs>
<linearGradient id="bg" x1="0" y1="0" x2="1" y2="1"><stop stop-color="#080b18"/><stop offset=".52" stop-color="#211436"/><stop offset="1" stop-color="#050812"/></linearGradient>
<radialGradient id="a" cx="50%" cy="40%" r="64%"><stop stop-color="#f59e0b" stop-opacity=".22"/><stop offset=".55" stop-color="#fb923c" stop-opacity=".12"/><stop offset="1" stop-color="#000" stop-opacity="0"/></radialGradient>
<filter id="glow"><feDropShadow dx="0" dy="0" stdDeviation="5" flood-color="#f59e0b" flood-opacity=".42"/></filter>
</defs>
<rect width="420" height="660" rx="34" fill="url(#bg)"/>
<rect x="18" y="18" width="384" height="624" rx="30" fill="url(#a)" stroke="#d6a24f" stroke-opacity=".82" stroke-width="2.4"/>
<rect x="36" y="36" width="348" height="588" rx="22" fill="none" stroke="#fb923c" stroke-opacity=".28" stroke-width="1.5"/>
<circle cx="277" cy="94" r="1" fill="#fff1b8" opacity="0.45"/>
<circle cx="271" cy="532" r="1.2" fill="#fff1b8" opacity="0.77"/>
<circle cx="153" cy="576" r="1.5" fill="#fff1b8" opacity="0.39"/>
<circle cx="150" cy="282" r="1.5" fill="#fff1b8" opacity="0.63"/>
<circle cx="76" cy="119" r="1.2" fill="#fff1b8" opacity="0.36"/>
<circle cx="119" cy="544" r="2" fill="#fff1b8" opacity="0.68"/>
<circle cx="300" cy="161" r="1.2" fill="#fff1b8" opacity="0.44"/>
<circle cx="136" cy="492" r="1.2" fill="#fff1b8" opacity="0.42"/>
<circle cx="267" cy="277" r="2" fill="#fff1b8" opacity="0.36"/>
<circle cx="56" cy="179" r="1.2" fill="#fff1b8" opacity="0.60"/>
<circle cx="359" cy="203" r="1.5" fill="#fff1b8" opacity="0.53"/>
<circle cx="113" cy="566" r="2" fill="#fff1b8" opacity="0.73"/>
<circle cx="371" cy="194" r="1" fill="#fff1b8" opacity="0.30"/>
<circle cx="198" cy="523" r="2" fill="#fff1b8" opacity="0.47"/>
<circle cx="357" cy="548" r="1" fill="#fff1b8" opacity="0.72"/>
<circle cx="296" cy="253" r="1" fill="#fff1b8" opacity="0.39"/>
<circle cx="42" cy="263" r="1" fill="#fff1b8" opacity="0.47"/>
<circle cx="108" cy="392" r="2" fill="#fff1b8" opacity="0.58"/>
<circle cx="280" cy="264" r="1" fill="#fff1b8" opacity="0.55"/>
<circle cx="284" cy="144" r="1.2" fill="#fff1b8" opacity="0.76"/>
<circle cx="54" cy="69" r="2" fill="#fff1b8" opacity="0.38"/>
<circle cx="62" cy="460" r="1.5" fill="#fff1b8" opacity="0.51"/>
<circle cx="309" cy="60" r="1.2" fill="#fff1b8" opacity="0.41"/>
<circle cx="225" cy="526" r="2" fill="#fff1b8" opacity="0.34"/>
<circle cx="148" cy="268" r="1.2" fill="#fff1b8" opacity="0.77"/>
<circle cx="218" cy="192" r="1.5" fill="#fff1b8" opacity="0.56"/>
<circle cx="239" cy="581" r="1.2" fill="#fff1b8" opacity="0.75"/>
<circle cx="106" cy="247" r="1.2" fill="#fff1b8" opacity="0.59"/>
<circle cx="186" cy="404" r="1.5" fill="#fff1b8" opacity="0.43"/>
<circle cx="254" cy="566" r="1.2" fill="#fff1b8" opacity="0.44"/>
<circle cx="121" cy="280" r="1.5" fill="#fff1b8" opacity="0.43"/>
<circle cx="109" cy="456" r="2" fill="#fff1b8" opacity="0.49"/>
<circle cx="315" cy="204" r="1.5" fill="#fff1b8" opacity="0.42"/>
<circle cx="155" cy="193" r="1.5" fill="#fff1b8" opacity="0.74"/>
<circle cx="104" cy="115" r="1" fill="#fff1b8" opacity="0.75"/>
<circle cx="88" cy="186" r="2" fill="#fff1b8" opacity="0.68"/>
<circle cx="116" cy="431" r="1.2" fill="#fff1b8" opacity="0.46"/>
<circle cx="117" cy="110" r="1.5" fill="#fff1b8" opacity="0.41"/>
<path d="M70 104 C132 68 288 68 350 104 M70 556 C132 592 288 592 350 556" fill="none" stroke="#d6a24f" stroke-opacity=".28" stroke-width="2"/>
<text x="64" y="78" fill="#fff1b8" font-size="22" font-family="Georgia,serif">VI</text>
<text x="356" y="78" text-anchor="end" fill="#fff1b8" font-size="22" font-family="Georgia,serif">VI</text>
<g filter="url(#glow)"><circle cx="210" cy="292" r="122" fill="#fb923c" opacity=".08"/><circle cx="210" cy="292" r="92" fill="none" stroke="#f59e0b" stroke-opacity=".36" stroke-width="2"/><text x="210" y="156" text-anchor="middle" dominant-baseline="middle" font-size="42" fill="#f59e0b" font-family="Georgia,serif">♣</text><text x="154" y="218" text-anchor="middle" dominant-baseline="middle" font-size="42" fill="#f59e0b" font-family="Georgia,serif">♣</text><text x="266" y="218" text-anchor="middle" dominant-baseline="middle" font-size="42" fill="#f59e0b" font-family="Georgia,serif">♣</text><text x="154" y="294" text-anchor="middle" dominant-baseline="middle" font-size="42" fill="#f59e0b" font-family="Georgia,serif">♣</text><text x="266" y="294" text-anchor="middle" dominant-baseline="middle" font-size="42" fill="#f59e0b" font-family="Georgia,serif">♣</text><text x="210" y="364" text-anchor="middle" dominant-baseline="middle" font-size="42" fill="#f59e0b" font-family="Georgia,serif">♣</text><path d="M130 464 C172 428 248 428 290 464" fill="none" stroke="#f59e0b" stroke-width="5" stroke-linecap="round" opacity=".6"/></g>
<rect x="58" y="530" width="304" height="74" rx="17" fill="#050812" opacity=".74" stroke="#d6a24f" stroke-opacity=".30"/>
<text x="210" y="566" text-anchor="middle" fill="#fff7df" font-size="20" font-family="Georgia,serif">Six of Wands</text>
<text x="210" y="592" text-anchor="middle" fill="#c9b27a" font-size="9" font-family="Arial" letter-spacing="3">FATECARD ORIGINAL</text>
</svg>