<svg xmlns="http://www.w3.org/2000/svg" width="420" height="660" viewBox="0 0 420 660" role="img" aria-label="King of Swords">
  <defs>
    <linearGradient id="bg" x1="0" y1="0" x2="1" y2="1">
      <stop offset="0%" stop-color="#050816"/>
      <stop offset="45%" stop-color="#17102d"/>
      <stop offset="100%" stop-color="#020617"/>
    </linearGradient>
    <radialGradient id="aura" cx="50%" cy="38%" r="68%">
      <stop offset="0%" stop-color="#facc15" stop-opacity=".18"/>
      <stop offset="52%" stop-color="#a78bfa" stop-opacity=".10"/>
      <stop offset="100%" stop-color="#020617" stop-opacity="0"/>
    </radialGradient>
    <filter id="glow" x="-30%" y="-30%" width="160%" height="160%">
      <feDropShadow dx="0" dy="0" stdDeviation="6" flood-color="#c4b5fd" flood-opacity=".42"/>
    </filter>
  </defs>
  <rect width="420" height="660" rx="34" fill="url(#bg)"/>
  <rect x="20" y="20" width="380" height="620" rx="30" fill="url(#aura)" stroke="#facc15" stroke-opacity=".54" stroke-width="2"/>
  <rect x="35" y="35" width="350" height="590" rx="22" fill="none" stroke="#a78bfa" stroke-opacity=".18" stroke-width="1.5"/>
  <circle cx="132" cy="562" r="2.2" fill="#fde68a" opacity="0.64"/>
<circle cx="317" cy="210" r="1.4" fill="#fde68a" opacity="0.81"/>
<circle cx="342" cy="141" r="1.8" fill="#fde68a" opacity="0.64"/>
<circle cx="338" cy="101" r="1.4" fill="#fde68a" opacity="0.80"/>
<circle cx="294" cy="100" r="1.0" fill="#fde68a" opacity="0.49"/>
<circle cx="229" cy="311" r="1.8" fill="#fde68a" opacity="0.58"/>
<circle cx="98" cy="159" r="1.0" fill="#fde68a" opacity="0.64"/>
<circle cx="290" cy="520" r="1.0" fill="#fde68a" opacity="0.81"/>
<circle cx="177" cy="393" r="2.2" fill="#fde68a" opacity="0.35"/>
<circle cx="174" cy="175" r="1.8" fill="#fde68a" opacity="0.31"/>
<circle cx="166" cy="423" r="1.8" fill="#fde68a" opacity="0.56"/>
<circle cx="258" cy="307" r="2.2" fill="#fde68a" opacity="0.69"/>
<circle cx="106" cy="267" r="1.8" fill="#fde68a" opacity="0.80"/>
<circle cx="177" cy="536" r="2.2" fill="#fde68a" opacity="0.49"/>
<circle cx="356" cy="316" r="2.2" fill="#fde68a" opacity="0.31"/>
<circle cx="165" cy="289" r="1.8" fill="#fde68a" opacity="0.80"/>
<circle cx="143" cy="200" r="1.4" fill="#fde68a" opacity="0.33"/>
<circle cx="44" cy="118" r="1.8" fill="#fde68a" opacity="0.62"/>
<circle cx="94" cy="149" r="2.2" fill="#fde68a" opacity="0.76"/>
<circle cx="72" cy="311" r="1.4" fill="#fde68a" opacity="0.29"/>
<circle cx="181" cy="432" r="1.0" fill="#fde68a" opacity="0.59"/>
<circle cx="168" cy="62" r="1.0" fill="#fde68a" opacity="0.65"/>
<circle cx="120" cy="362" r="1.0" fill="#fde68a" opacity="0.52"/>
<circle cx="52" cy="534" r="2.2" fill="#fde68a" opacity="0.29"/>
<circle cx="327" cy="565" r="1.4" fill="#fde68a" opacity="0.64"/>
<circle cx="95" cy="140" r="1.0" fill="#fde68a" opacity="0.68"/>
<circle cx="354" cy="159" r="1.0" fill="#fde68a" opacity="0.76"/>
<circle cx="40" cy="73" r="1.4" fill="#fde68a" opacity="0.56"/>
<circle cx="324" cy="146" r="2.2" fill="#fde68a" opacity="0.42"/>
<circle cx="135" cy="385" r="2.2" fill="#fde68a" opacity="0.48"/>
<circle cx="87" cy="181" r="1.0" fill="#fde68a" opacity="0.79"/>
<circle cx="118" cy="297" r="1.4" fill="#fde68a" opacity="0.40"/>
<circle cx="307" cy="547" r="1.0" fill="#fde68a" opacity="0.49"/>
<circle cx="167" cy="570" r="1.8" fill="#fde68a" opacity="0.78"/>
  
    <path d="M55 118 C120 74 300 74 365 118" fill="none" stroke="#c4b5fd" stroke-opacity=".28" stroke-width="2"/>
    <path d="M55 542 C120 586 300 586 365 542" fill="none" stroke="#c4b5fd" stroke-opacity=".28" stroke-width="2"/>
    <path d="M74 88 L98 88 M322 88 L346 88 M74 572 L98 572 M322 572 L346 572" stroke="#e0e7ff" stroke-opacity=".50" stroke-width="2" stroke-linecap="round"/>
    <circle cx="80" cy="100" r="10" fill="none" stroke="#e0e7ff" stroke-opacity=".45"/>
    <circle cx="340" cy="100" r="10" fill="none" stroke="#e0e7ff" stroke-opacity=".45"/>
    <circle cx="80" cy="560" r="10" fill="none" stroke="#e0e7ff" stroke-opacity=".45"/>
    <circle cx="340" cy="560" r="10" fill="none" stroke="#e0e7ff" stroke-opacity=".45"/>
    
  
            <circle cx="210" cy="272" r="122" fill="#c4b5fd" opacity=".08"/>
            <path d="M146 394 L178 246 L210 382 L242 246 L274 394 Z" fill="#c4b5fd" opacity=".12" stroke="#c4b5fd" stroke-width="3" stroke-opacity=".68"/>
            <circle cx="210" cy="250" r="54" fill="#e0e7ff" opacity=".11" stroke="#e0e7ff" stroke-width="3" stroke-opacity=".55"/>
            <text x="210" y="264" text-anchor="middle" font-size="64" font-family="Georgia, serif" fill="#c4b5fd">♚</text>
            <text x="210" y="350" text-anchor="middle" font-size="54" font-family="Georgia, serif" fill="#e0e7ff">◆</text>
            <text x="62" y="86" font-size="20" font-family="Georgia, serif" fill="#fff7ed">KING</text>
            <text x="358" y="86" text-anchor="end" font-size="20" font-family="Georgia, serif" fill="#fff7ed">KING</text>
            
  <rect x="58" y="522" width="304" height="76" rx="18" fill="#020617" opacity=".62" stroke="#facc15" stroke-opacity=".24"/>
  <text x="210" y="558" text-anchor="middle" font-size="20" font-family="Georgia, serif" fill="#fff7ed">King of Swords</text>
  <text x="210" y="586" text-anchor="middle" font-size="9" font-family="Arial, sans-serif" letter-spacing="3" fill="#c4b5fd">ORIGINAL SYMBOLIC DECK</text>
</svg>