<svg xmlns="http://www.w3.org/2000/svg" width="420" height="660" viewBox="0 0 420 660" role="img" aria-label="Nine of Cups">
<defs>
<linearGradient id="bg" x1="0" y1="0" x2="1" y2="1"><stop stop-color="#080b18"/><stop offset=".52" stop-color="#211436"/><stop offset="1" stop-color="#050812"/></linearGradient>
<radialGradient id="a" cx="50%" cy="40%" r="64%"><stop stop-color="#38bdf8" stop-opacity=".22"/><stop offset=".55" stop-color="#93c5fd" stop-opacity=".12"/><stop offset="1" stop-color="#000" stop-opacity="0"/></radialGradient>
<filter id="glow"><feDropShadow dx="0" dy="0" stdDeviation="5" flood-color="#38bdf8" flood-opacity=".42"/></filter>
</defs>
<rect width="420" height="660" rx="34" fill="url(#bg)"/>
<rect x="18" y="18" width="384" height="624" rx="30" fill="url(#a)" stroke="#d6a24f" stroke-opacity=".82" stroke-width="2.4"/>
<rect x="36" y="36" width="348" height="588" rx="22" fill="none" stroke="#93c5fd" stroke-opacity=".28" stroke-width="1.5"/>
<circle cx="233" cy="144" r="1.5" fill="#fff1b8" opacity="0.73"/>
<circle cx="305" cy="74" r="1.5" fill="#fff1b8" opacity="0.31"/>
<circle cx="287" cy="453" r="2" fill="#fff1b8" opacity="0.68"/>
<circle cx="304" cy="477" r="2" fill="#fff1b8" opacity="0.45"/>
<circle cx="272" cy="241" r="1.5" fill="#fff1b8" opacity="0.78"/>
<circle cx="193" cy="397" r="1" fill="#fff1b8" opacity="0.46"/>
<circle cx="137" cy="491" r="1" fill="#fff1b8" opacity="0.60"/>
<circle cx="295" cy="270" r="2" fill="#fff1b8" opacity="0.48"/>
<circle cx="279" cy="501" r="1" fill="#fff1b8" opacity="0.50"/>
<circle cx="91" cy="542" r="1.2" fill="#fff1b8" opacity="0.30"/>
<circle cx="257" cy="388" r="1.5" fill="#fff1b8" opacity="0.60"/>
<circle cx="124" cy="138" r="1.2" fill="#fff1b8" opacity="0.70"/>
<circle cx="200" cy="395" r="1" fill="#fff1b8" opacity="0.46"/>
<circle cx="357" cy="255" r="1" fill="#fff1b8" opacity="0.73"/>
<circle cx="137" cy="169" r="1" fill="#fff1b8" opacity="0.76"/>
<circle cx="270" cy="407" r="1.5" fill="#fff1b8" opacity="0.39"/>
<circle cx="92" cy="495" r="1.5" fill="#fff1b8" opacity="0.77"/>
<circle cx="165" cy="457" r="1.2" fill="#fff1b8" opacity="0.75"/>
<circle cx="103" cy="177" r="1.5" fill="#fff1b8" opacity="0.63"/>
<circle cx="218" cy="153" r="1" fill="#fff1b8" opacity="0.59"/>
<circle cx="281" cy="77" r="1.2" fill="#fff1b8" opacity="0.60"/>
<circle cx="348" cy="122" r="1.5" fill="#fff1b8" opacity="0.73"/>
<circle cx="317" cy="135" r="1.5" fill="#fff1b8" opacity="0.66"/>
<circle cx="174" cy="339" r="1" fill="#fff1b8" opacity="0.74"/>
<circle cx="233" cy="199" r="2" fill="#fff1b8" opacity="0.30"/>
<circle cx="81" cy="566" r="1.2" fill="#fff1b8" opacity="0.64"/>
<circle cx="90" cy="243" r="1.5" fill="#fff1b8" opacity="0.49"/>
<circle cx="291" cy="533" r="1" fill="#fff1b8" opacity="0.74"/>
<circle cx="231" cy="170" r="1.5" fill="#fff1b8" opacity="0.71"/>
<circle cx="83" cy="97" r="1" fill="#fff1b8" opacity="0.71"/>
<circle cx="244" cy="212" r="1.2" fill="#fff1b8" opacity="0.67"/>
<circle cx="97" cy="123" r="1.5" fill="#fff1b8" opacity="0.36"/>
<circle cx="259" cy="517" r="1.2" fill="#fff1b8" opacity="0.36"/>
<circle cx="363" cy="197" r="1.2" fill="#fff1b8" opacity="0.47"/>
<circle cx="342" cy="261" r="2" fill="#fff1b8" opacity="0.40"/>
<circle cx="273" cy="269" r="1.2" fill="#fff1b8" opacity="0.77"/>
<circle cx="366" cy="528" r="1.5" fill="#fff1b8" opacity="0.36"/>
<circle cx="244" cy="164" r="1" fill="#fff1b8" opacity="0.64"/>
<path d="M70 104 C132 68 288 68 350 104 M70 556 C132 592 288 592 350 556" fill="none" stroke="#d6a24f" stroke-opacity=".28" stroke-width="2"/>
<text x="64" y="78" fill="#fff1b8" font-size="22" font-family="Georgia,serif">IX</text>
<text x="356" y="78" text-anchor="end" fill="#fff1b8" font-size="22" font-family="Georgia,serif">IX</text>
<g filter="url(#glow)"><circle cx="210" cy="292" r="122" fill="#93c5fd" opacity=".08"/><circle cx="210" cy="292" r="92" fill="none" stroke="#38bdf8" stroke-opacity=".36" stroke-width="2"/><text x="210" y="156" text-anchor="middle" dominant-baseline="middle" font-size="42" fill="#38bdf8" font-family="Georgia,serif">●</text><text x="154" y="218" text-anchor="middle" dominant-baseline="middle" font-size="42" fill="#38bdf8" font-family="Georgia,serif">●</text><text x="266" y="218" text-anchor="middle" dominant-baseline="middle" font-size="42" fill="#38bdf8" font-family="Georgia,serif">●</text><text x="154" y="294" text-anchor="middle" dominant-baseline="middle" font-size="42" fill="#38bdf8" font-family="Georgia,serif">●</text><text x="266" y="294" text-anchor="middle" dominant-baseline="middle" font-size="42" fill="#38bdf8" font-family="Georgia,serif">●</text><text x="210" y="364" text-anchor="middle" dominant-baseline="middle" font-size="42" fill="#38bdf8" font-family="Georgia,serif">●</text><text x="210" y="252" text-anchor="middle" dominant-baseline="middle" font-size="42" fill="#38bdf8" font-family="Georgia,serif">●</text><text x="154" y="382" text-anchor="middle" dominant-baseline="middle" font-size="42" fill="#38bdf8" font-family="Georgia,serif">●</text><text x="266" y="382" text-anchor="middle" dominant-baseline="middle" font-size="42" fill="#38bdf8" font-family="Georgia,serif">●</text><path d="M130 464 C172 428 248 428 290 464" fill="none" stroke="#38bdf8" stroke-width="5" stroke-linecap="round" opacity=".6"/></g>
<rect x="58" y="530" width="304" height="74" rx="17" fill="#050812" opacity=".74" stroke="#d6a24f" stroke-opacity=".30"/>
<text x="210" y="566" text-anchor="middle" fill="#fff7df" font-size="20" font-family="Georgia,serif">Nine of Cups</text>
<text x="210" y="592" text-anchor="middle" fill="#c9b27a" font-size="9" font-family="Arial" letter-spacing="3">FATECARD ORIGINAL</text>
</svg>