<svg xmlns="http://www.w3.org/2000/svg" width="420" height="660" viewBox="0 0 420 660" role="img" aria-label="Two of Pentacles">
  <defs>
    <linearGradient id="bg" x1="0" y1="0" x2="1" y2="1">
      <stop offset="0%" stop-color="#050816"/>
      <stop offset="45%" stop-color="#17102d"/>
      <stop offset="100%" stop-color="#020617"/>
    </linearGradient>
    <radialGradient id="aura" cx="50%" cy="38%" r="68%">
      <stop offset="0%" stop-color="#facc15" stop-opacity=".18"/>
      <stop offset="52%" stop-color="#a78bfa" stop-opacity=".10"/>
      <stop offset="100%" stop-color="#020617" stop-opacity="0"/>
    </radialGradient>
    <filter id="glow" x="-30%" y="-30%" width="160%" height="160%">
      <feDropShadow dx="0" dy="0" stdDeviation="6" flood-color="#34d399" flood-opacity=".42"/>
    </filter>
  </defs>
  <rect width="420" height="660" rx="34" fill="url(#bg)"/>
  <rect x="20" y="20" width="380" height="620" rx="30" fill="url(#aura)" stroke="#facc15" stroke-opacity=".54" stroke-width="2"/>
  <rect x="35" y="35" width="350" height="590" rx="22" fill="none" stroke="#a78bfa" stroke-opacity=".18" stroke-width="1.5"/>
  <circle cx="128" cy="509" r="1.0" fill="#fde68a" opacity="0.70"/>
<circle cx="109" cy="83" r="1.8" fill="#fde68a" opacity="0.73"/>
<circle cx="287" cy="86" r="1.0" fill="#fde68a" opacity="0.34"/>
<circle cx="348" cy="439" r="1.8" fill="#fde68a" opacity="0.65"/>
<circle cx="120" cy="164" r="1.0" fill="#fde68a" opacity="0.84"/>
<circle cx="294" cy="454" r="2.2" fill="#fde68a" opacity="0.60"/>
<circle cx="188" cy="217" r="1.8" fill="#fde68a" opacity="0.73"/>
<circle cx="363" cy="282" r="1.0" fill="#fde68a" opacity="0.32"/>
<circle cx="220" cy="97" r="1.4" fill="#fde68a" opacity="0.59"/>
<circle cx="98" cy="469" r="2.2" fill="#fde68a" opacity="0.47"/>
<circle cx="138" cy="259" r="1.4" fill="#fde68a" opacity="0.78"/>
<circle cx="120" cy="585" r="1.0" fill="#fde68a" opacity="0.66"/>
<circle cx="330" cy="68" r="1.8" fill="#fde68a" opacity="0.34"/>
<circle cx="111" cy="349" r="1.8" fill="#fde68a" opacity="0.46"/>
<circle cx="272" cy="507" r="1.4" fill="#fde68a" opacity="0.50"/>
<circle cx="145" cy="347" r="1.8" fill="#fde68a" opacity="0.37"/>
<circle cx="157" cy="342" r="1.0" fill="#fde68a" opacity="0.79"/>
<circle cx="83" cy="123" r="1.4" fill="#fde68a" opacity="0.74"/>
<circle cx="228" cy="509" r="1.4" fill="#fde68a" opacity="0.77"/>
<circle cx="253" cy="462" r="1.0" fill="#fde68a" opacity="0.58"/>
<circle cx="223" cy="344" r="1.8" fill="#fde68a" opacity="0.64"/>
<circle cx="68" cy="424" r="2.2" fill="#fde68a" opacity="0.64"/>
<circle cx="208" cy="320" r="1.4" fill="#fde68a" opacity="0.71"/>
<circle cx="170" cy="61" r="1.8" fill="#fde68a" opacity="0.33"/>
<circle cx="356" cy="232" r="1.4" fill="#fde68a" opacity="0.74"/>
<circle cx="355" cy="77" r="1.0" fill="#fde68a" opacity="0.82"/>
<circle cx="157" cy="102" r="1.8" fill="#fde68a" opacity="0.52"/>
<circle cx="144" cy="563" r="1.0" fill="#fde68a" opacity="0.41"/>
<circle cx="172" cy="406" r="1.8" fill="#fde68a" opacity="0.55"/>
<circle cx="126" cy="542" r="1.8" fill="#fde68a" opacity="0.37"/>
<circle cx="207" cy="115" r="1.0" fill="#fde68a" opacity="0.51"/>
<circle cx="330" cy="299" r="1.4" fill="#fde68a" opacity="0.40"/>
<circle cx="151" cy="299" r="2.2" fill="#fde68a" opacity="0.60"/>
<circle cx="119" cy="157" r="1.0" fill="#fde68a" opacity="0.68"/>
  
    <path d="M55 118 C120 74 300 74 365 118" fill="none" stroke="#34d399" stroke-opacity=".28" stroke-width="2"/>
    <path d="M55 542 C120 586 300 586 365 542" fill="none" stroke="#34d399" stroke-opacity=".28" stroke-width="2"/>
    <path d="M74 88 L98 88 M322 88 L346 88 M74 572 L98 572 M322 572 L346 572" stroke="#fde68a" stroke-opacity=".50" stroke-width="2" stroke-linecap="round"/>
    <circle cx="80" cy="100" r="10" fill="none" stroke="#fde68a" stroke-opacity=".45"/>
    <circle cx="340" cy="100" r="10" fill="none" stroke="#fde68a" stroke-opacity=".45"/>
    <circle cx="80" cy="560" r="10" fill="none" stroke="#fde68a" stroke-opacity=".45"/>
    <circle cx="340" cy="560" r="10" fill="none" stroke="#fde68a" stroke-opacity=".45"/>
    
  
            <circle cx="210" cy="286" r="132" fill="#34d399" opacity=".065"/>
            <circle cx="210" cy="286" r="102" fill="none" stroke="#fde68a" stroke-opacity=".36" stroke-width="2"/>
            <text x="210" y="164" text-anchor="middle" dominant-baseline="middle" font-size="42" font-family="Georgia, serif" fill="#34d399" opacity=".94">⬟</text><text x="154" y="220" text-anchor="middle" dominant-baseline="middle" font-size="42" font-family="Georgia, serif" fill="#34d399" opacity=".94">⬟</text>
            <text x="62" y="86" font-size="26" font-family="Georgia, serif" fill="#fff7ed">II</text>
            <text x="358" y="86" text-anchor="end" font-size="26" font-family="Georgia, serif" fill="#fff7ed">II</text>
            
  <rect x="58" y="522" width="304" height="76" rx="18" fill="#020617" opacity=".62" stroke="#facc15" stroke-opacity=".24"/>
  <text x="210" y="558" text-anchor="middle" font-size="20" font-family="Georgia, serif" fill="#fff7ed">Two of Pentacles</text>
  <text x="210" y="586" text-anchor="middle" font-size="9" font-family="Arial, sans-serif" letter-spacing="3" fill="#c4b5fd">ORIGINAL SYMBOLIC DECK</text>
</svg>