<svg xmlns="http://www.w3.org/2000/svg" width="420" height="660" viewBox="0 0 420 660" role="img" aria-label="Ace of Pentacles">
<defs>
<linearGradient id="bg" x1="0" y1="0" x2="1" y2="1"><stop stop-color="#080b18"/><stop offset=".52" stop-color="#211436"/><stop offset="1" stop-color="#050812"/></linearGradient>
<radialGradient id="a" cx="50%" cy="40%" r="64%"><stop stop-color="#34d399" stop-opacity=".22"/><stop offset=".55" stop-color="#fde68a" stop-opacity=".12"/><stop offset="1" stop-color="#000" stop-opacity="0"/></radialGradient>
<filter id="glow"><feDropShadow dx="0" dy="0" stdDeviation="5" flood-color="#34d399" flood-opacity=".42"/></filter>
</defs>
<rect width="420" height="660" rx="34" fill="url(#bg)"/>
<rect x="18" y="18" width="384" height="624" rx="30" fill="url(#a)" stroke="#d6a24f" stroke-opacity=".82" stroke-width="2.4"/>
<rect x="36" y="36" width="348" height="588" rx="22" fill="none" stroke="#fde68a" stroke-opacity=".28" stroke-width="1.5"/>
<circle cx="47" cy="517" r="1.5" fill="#fff1b8" opacity="0.47"/>
<circle cx="101" cy="75" r="1" fill="#fff1b8" opacity="0.29"/>
<circle cx="338" cy="443" r="1" fill="#fff1b8" opacity="0.68"/>
<circle cx="63" cy="536" r="2" fill="#fff1b8" opacity="0.44"/>
<circle cx="271" cy="582" r="1" fill="#fff1b8" opacity="0.73"/>
<circle cx="207" cy="337" r="1.5" fill="#fff1b8" opacity="0.42"/>
<circle cx="66" cy="269" r="2" fill="#fff1b8" opacity="0.50"/>
<circle cx="299" cy="358" r="1.5" fill="#fff1b8" opacity="0.69"/>
<circle cx="232" cy="406" r="2" fill="#fff1b8" opacity="0.65"/>
<circle cx="125" cy="519" r="1.5" fill="#fff1b8" opacity="0.74"/>
<circle cx="248" cy="495" r="1" fill="#fff1b8" opacity="0.34"/>
<circle cx="47" cy="179" r="1" fill="#fff1b8" opacity="0.71"/>
<circle cx="311" cy="230" r="1.5" fill="#fff1b8" opacity="0.60"/>
<circle cx="124" cy="439" r="1.2" fill="#fff1b8" opacity="0.44"/>
<circle cx="195" cy="581" r="1.5" fill="#fff1b8" opacity="0.65"/>
<circle cx="156" cy="487" r="1.5" fill="#fff1b8" opacity="0.70"/>
<circle cx="349" cy="65" r="1.5" fill="#fff1b8" opacity="0.59"/>
<circle cx="102" cy="308" r="1" fill="#fff1b8" opacity="0.69"/>
<circle cx="85" cy="506" r="1.5" fill="#fff1b8" opacity="0.30"/>
<circle cx="123" cy="447" r="1" fill="#fff1b8" opacity="0.54"/>
<circle cx="107" cy="362" r="1" fill="#fff1b8" opacity="0.36"/>
<circle cx="122" cy="557" r="2" fill="#fff1b8" opacity="0.64"/>
<circle cx="312" cy="533" r="2" fill="#fff1b8" opacity="0.73"/>
<circle cx="271" cy="363" r="1.5" fill="#fff1b8" opacity="0.33"/>
<circle cx="292" cy="454" r="1" fill="#fff1b8" opacity="0.68"/>
<circle cx="186" cy="376" r="2" fill="#fff1b8" opacity="0.34"/>
<circle cx="118" cy="267" r="2" fill="#fff1b8" opacity="0.36"/>
<circle cx="301" cy="179" r="1" fill="#fff1b8" opacity="0.52"/>
<circle cx="370" cy="58" r="1" fill="#fff1b8" opacity="0.28"/>
<circle cx="231" cy="195" r="1.5" fill="#fff1b8" opacity="0.55"/>
<circle cx="365" cy="542" r="1" fill="#fff1b8" opacity="0.36"/>
<circle cx="190" cy="193" r="2" fill="#fff1b8" opacity="0.34"/>
<circle cx="347" cy="203" r="1.2" fill="#fff1b8" opacity="0.60"/>
<circle cx="47" cy="345" r="1" fill="#fff1b8" opacity="0.46"/>
<circle cx="42" cy="571" r="2" fill="#fff1b8" opacity="0.32"/>
<circle cx="297" cy="507" r="1" fill="#fff1b8" opacity="0.39"/>
<circle cx="117" cy="163" r="2" fill="#fff1b8" opacity="0.47"/>
<circle cx="273" cy="444" r="1" fill="#fff1b8" opacity="0.27"/>
<path d="M70 104 C132 68 288 68 350 104 M70 556 C132 592 288 592 350 556" fill="none" stroke="#d6a24f" stroke-opacity=".28" stroke-width="2"/>
<text x="64" y="78" fill="#fff1b8" font-size="22" font-family="Georgia,serif">A</text>
<text x="356" y="78" text-anchor="end" fill="#fff1b8" font-size="22" font-family="Georgia,serif">A</text>
<g filter="url(#glow)"><circle cx="210" cy="292" r="122" fill="#fde68a" opacity=".08"/><circle cx="210" cy="292" r="92" fill="none" stroke="#34d399" stroke-opacity=".36" stroke-width="2"/><text x="210" y="156" text-anchor="middle" dominant-baseline="middle" font-size="42" fill="#34d399" font-family="Georgia,serif">⬟</text><path d="M130 464 C172 428 248 428 290 464" fill="none" stroke="#34d399" stroke-width="5" stroke-linecap="round" opacity=".6"/></g>
<rect x="58" y="530" width="304" height="74" rx="17" fill="#050812" opacity=".74" stroke="#d6a24f" stroke-opacity=".30"/>
<text x="210" y="566" text-anchor="middle" fill="#fff7df" font-size="20" font-family="Georgia,serif">Ace of Pentacles</text>
<text x="210" y="592" text-anchor="middle" fill="#c9b27a" font-size="9" font-family="Arial" letter-spacing="3">FATECARD ORIGINAL</text>
</svg>