<svg xmlns="http://www.w3.org/2000/svg" width="420" height="660" viewBox="0 0 420 660" role="img" aria-label="Ace of Wands">
  <defs>
    <linearGradient id="bg" x1="0" y1="0" x2="1" y2="1">
      <stop offset="0%" stop-color="#050816"/>
      <stop offset="45%" stop-color="#17102d"/>
      <stop offset="100%" stop-color="#020617"/>
    </linearGradient>
    <radialGradient id="aura" cx="50%" cy="38%" r="68%">
      <stop offset="0%" stop-color="#facc15" stop-opacity=".18"/>
      <stop offset="52%" stop-color="#a78bfa" stop-opacity=".10"/>
      <stop offset="100%" stop-color="#020617" stop-opacity="0"/>
    </radialGradient>
    <filter id="glow" x="-30%" y="-30%" width="160%" height="160%">
      <feDropShadow dx="0" dy="0" stdDeviation="6" flood-color="#fb923c" flood-opacity=".42"/>
    </filter>
  </defs>
  <rect width="420" height="660" rx="34" fill="url(#bg)"/>
  <rect x="20" y="20" width="380" height="620" rx="30" fill="url(#aura)" stroke="#facc15" stroke-opacity=".54" stroke-width="2"/>
  <rect x="35" y="35" width="350" height="590" rx="22" fill="none" stroke="#a78bfa" stroke-opacity=".18" stroke-width="1.5"/>
  <circle cx="164" cy="209" r="1.0" fill="#fde68a" opacity="0.53"/>
<circle cx="354" cy="492" r="1.8" fill="#fde68a" opacity="0.67"/>
<circle cx="78" cy="164" r="1.0" fill="#fde68a" opacity="0.65"/>
<circle cx="262" cy="289" r="1.8" fill="#fde68a" opacity="0.47"/>
<circle cx="269" cy="334" r="1.8" fill="#fde68a" opacity="0.49"/>
<circle cx="104" cy="252" r="1.8" fill="#fde68a" opacity="0.44"/>
<circle cx="329" cy="382" r="1.8" fill="#fde68a" opacity="0.53"/>
<circle cx="344" cy="555" r="1.8" fill="#fde68a" opacity="0.52"/>
<circle cx="228" cy="501" r="1.4" fill="#fde68a" opacity="0.44"/>
<circle cx="62" cy="209" r="1.0" fill="#fde68a" opacity="0.82"/>
<circle cx="303" cy="572" r="1.0" fill="#fde68a" opacity="0.58"/>
<circle cx="61" cy="223" r="1.8" fill="#fde68a" opacity="0.34"/>
<circle cx="163" cy="362" r="1.4" fill="#fde68a" opacity="0.77"/>
<circle cx="85" cy="248" r="1.8" fill="#fde68a" opacity="0.54"/>
<circle cx="120" cy="547" r="1.4" fill="#fde68a" opacity="0.70"/>
<circle cx="41" cy="117" r="1.0" fill="#fde68a" opacity="0.83"/>
<circle cx="99" cy="494" r="1.8" fill="#fde68a" opacity="0.54"/>
<circle cx="112" cy="165" r="1.8" fill="#fde68a" opacity="0.64"/>
<circle cx="179" cy="471" r="1.0" fill="#fde68a" opacity="0.58"/>
<circle cx="285" cy="217" r="1.0" fill="#fde68a" opacity="0.70"/>
<circle cx="218" cy="173" r="1.8" fill="#fde68a" opacity="0.47"/>
<circle cx="49" cy="544" r="2.2" fill="#fde68a" opacity="0.54"/>
<circle cx="277" cy="96" r="1.0" fill="#fde68a" opacity="0.35"/>
<circle cx="379" cy="352" r="1.4" fill="#fde68a" opacity="0.56"/>
<circle cx="183" cy="194" r="2.2" fill="#fde68a" opacity="0.73"/>
<circle cx="322" cy="320" r="1.0" fill="#fde68a" opacity="0.32"/>
<circle cx="362" cy="340" r="1.0" fill="#fde68a" opacity="0.29"/>
<circle cx="220" cy="80" r="1.4" fill="#fde68a" opacity="0.58"/>
<circle cx="367" cy="127" r="1.4" fill="#fde68a" opacity="0.46"/>
<circle cx="45" cy="278" r="2.2" fill="#fde68a" opacity="0.30"/>
<circle cx="140" cy="543" r="1.0" fill="#fde68a" opacity="0.51"/>
<circle cx="237" cy="244" r="1.0" fill="#fde68a" opacity="0.71"/>
<circle cx="322" cy="374" r="1.0" fill="#fde68a" opacity="0.54"/>
<circle cx="136" cy="388" r="1.4" fill="#fde68a" opacity="0.42"/>
  
    <path d="M55 118 C120 74 300 74 365 118" fill="none" stroke="#fb923c" stroke-opacity=".28" stroke-width="2"/>
    <path d="M55 542 C120 586 300 586 365 542" fill="none" stroke="#fb923c" stroke-opacity=".28" stroke-width="2"/>
    <path d="M74 88 L98 88 M322 88 L346 88 M74 572 L98 572 M322 572 L346 572" stroke="#facc15" stroke-opacity=".50" stroke-width="2" stroke-linecap="round"/>
    <circle cx="80" cy="100" r="10" fill="none" stroke="#facc15" stroke-opacity=".45"/>
    <circle cx="340" cy="100" r="10" fill="none" stroke="#facc15" stroke-opacity=".45"/>
    <circle cx="80" cy="560" r="10" fill="none" stroke="#facc15" stroke-opacity=".45"/>
    <circle cx="340" cy="560" r="10" fill="none" stroke="#facc15" stroke-opacity=".45"/>
    
  
            <circle cx="210" cy="286" r="132" fill="#fb923c" opacity=".065"/>
            <circle cx="210" cy="286" r="102" fill="none" stroke="#facc15" stroke-opacity=".36" stroke-width="2"/>
            <text x="210" y="164" text-anchor="middle" dominant-baseline="middle" font-size="42" font-family="Georgia, serif" fill="#fb923c" opacity=".94">♣</text>
            <text x="62" y="86" font-size="26" font-family="Georgia, serif" fill="#fff7ed">A</text>
            <text x="358" y="86" text-anchor="end" font-size="26" font-family="Georgia, serif" fill="#fff7ed">A</text>
            
  <rect x="58" y="522" width="304" height="76" rx="18" fill="#020617" opacity=".62" stroke="#facc15" stroke-opacity=".24"/>
  <text x="210" y="558" text-anchor="middle" font-size="20" font-family="Georgia, serif" fill="#fff7ed">Ace of Wands</text>
  <text x="210" y="586" text-anchor="middle" font-size="9" font-family="Arial, sans-serif" letter-spacing="3" fill="#c4b5fd">ORIGINAL SYMBOLIC DECK</text>
</svg>