<svg xmlns="http://www.w3.org/2000/svg" width="420" height="660" viewBox="0 0 420 660" role="img" aria-label="Page of Swords">
  <defs>
    <linearGradient id="bg" x1="0" y1="0" x2="1" y2="1">
      <stop offset="0%" stop-color="#050816"/>
      <stop offset="45%" stop-color="#17102d"/>
      <stop offset="100%" stop-color="#020617"/>
    </linearGradient>
    <radialGradient id="aura" cx="50%" cy="38%" r="68%">
      <stop offset="0%" stop-color="#facc15" stop-opacity=".18"/>
      <stop offset="52%" stop-color="#a78bfa" stop-opacity=".10"/>
      <stop offset="100%" stop-color="#020617" stop-opacity="0"/>
    </radialGradient>
    <filter id="glow" x="-30%" y="-30%" width="160%" height="160%">
      <feDropShadow dx="0" dy="0" stdDeviation="6" flood-color="#c4b5fd" flood-opacity=".42"/>
    </filter>
  </defs>
  <rect width="420" height="660" rx="34" fill="url(#bg)"/>
  <rect x="20" y="20" width="380" height="620" rx="30" fill="url(#aura)" stroke="#facc15" stroke-opacity=".54" stroke-width="2"/>
  <rect x="35" y="35" width="350" height="590" rx="22" fill="none" stroke="#a78bfa" stroke-opacity=".18" stroke-width="1.5"/>
  <circle cx="245" cy="339" r="2.2" fill="#fde68a" opacity="0.75"/>
<circle cx="338" cy="217" r="1.4" fill="#fde68a" opacity="0.68"/>
<circle cx="367" cy="197" r="1.4" fill="#fde68a" opacity="0.48"/>
<circle cx="249" cy="328" r="1.0" fill="#fde68a" opacity="0.66"/>
<circle cx="164" cy="271" r="1.0" fill="#fde68a" opacity="0.38"/>
<circle cx="146" cy="287" r="1.8" fill="#fde68a" opacity="0.50"/>
<circle cx="58" cy="421" r="1.0" fill="#fde68a" opacity="0.61"/>
<circle cx="151" cy="371" r="1.8" fill="#fde68a" opacity="0.45"/>
<circle cx="124" cy="281" r="1.0" fill="#fde68a" opacity="0.47"/>
<circle cx="262" cy="240" r="1.0" fill="#fde68a" opacity="0.29"/>
<circle cx="92" cy="370" r="1.0" fill="#fde68a" opacity="0.55"/>
<circle cx="62" cy="77" r="1.8" fill="#fde68a" opacity="0.83"/>
<circle cx="195" cy="406" r="1.0" fill="#fde68a" opacity="0.83"/>
<circle cx="344" cy="94" r="2.2" fill="#fde68a" opacity="0.28"/>
<circle cx="82" cy="509" r="1.8" fill="#fde68a" opacity="0.29"/>
<circle cx="282" cy="60" r="1.0" fill="#fde68a" opacity="0.31"/>
<circle cx="301" cy="441" r="2.2" fill="#fde68a" opacity="0.40"/>
<circle cx="117" cy="166" r="1.0" fill="#fde68a" opacity="0.69"/>
<circle cx="310" cy="246" r="2.2" fill="#fde68a" opacity="0.62"/>
<circle cx="276" cy="478" r="1.4" fill="#fde68a" opacity="0.65"/>
<circle cx="51" cy="484" r="2.2" fill="#fde68a" opacity="0.77"/>
<circle cx="168" cy="67" r="1.0" fill="#fde68a" opacity="0.46"/>
<circle cx="190" cy="550" r="2.2" fill="#fde68a" opacity="0.60"/>
<circle cx="75" cy="276" r="1.0" fill="#fde68a" opacity="0.35"/>
<circle cx="347" cy="149" r="1.0" fill="#fde68a" opacity="0.43"/>
<circle cx="47" cy="230" r="1.4" fill="#fde68a" opacity="0.35"/>
<circle cx="279" cy="558" r="1.4" fill="#fde68a" opacity="0.54"/>
<circle cx="224" cy="58" r="1.4" fill="#fde68a" opacity="0.68"/>
<circle cx="273" cy="138" r="1.4" fill="#fde68a" opacity="0.56"/>
<circle cx="245" cy="566" r="1.0" fill="#fde68a" opacity="0.37"/>
<circle cx="179" cy="560" r="1.0" fill="#fde68a" opacity="0.38"/>
<circle cx="138" cy="392" r="1.0" fill="#fde68a" opacity="0.56"/>
<circle cx="372" cy="63" r="2.2" fill="#fde68a" opacity="0.38"/>
<circle cx="310" cy="317" r="1.0" fill="#fde68a" opacity="0.50"/>
  
    <path d="M55 118 C120 74 300 74 365 118" fill="none" stroke="#c4b5fd" stroke-opacity=".28" stroke-width="2"/>
    <path d="M55 542 C120 586 300 586 365 542" fill="none" stroke="#c4b5fd" stroke-opacity=".28" stroke-width="2"/>
    <path d="M74 88 L98 88 M322 88 L346 88 M74 572 L98 572 M322 572 L346 572" stroke="#e0e7ff" stroke-opacity=".50" stroke-width="2" stroke-linecap="round"/>
    <circle cx="80" cy="100" r="10" fill="none" stroke="#e0e7ff" stroke-opacity=".45"/>
    <circle cx="340" cy="100" r="10" fill="none" stroke="#e0e7ff" stroke-opacity=".45"/>
    <circle cx="80" cy="560" r="10" fill="none" stroke="#e0e7ff" stroke-opacity=".45"/>
    <circle cx="340" cy="560" r="10" fill="none" stroke="#e0e7ff" stroke-opacity=".45"/>
    
  
            <circle cx="210" cy="272" r="122" fill="#c4b5fd" opacity=".08"/>
            <path d="M146 394 L178 246 L210 382 L242 246 L274 394 Z" fill="#c4b5fd" opacity=".12" stroke="#c4b5fd" stroke-width="3" stroke-opacity=".68"/>
            <circle cx="210" cy="250" r="54" fill="#e0e7ff" opacity=".11" stroke="#e0e7ff" stroke-width="3" stroke-opacity=".55"/>
            <text x="210" y="264" text-anchor="middle" font-size="64" font-family="Georgia, serif" fill="#c4b5fd">♙</text>
            <text x="210" y="350" text-anchor="middle" font-size="54" font-family="Georgia, serif" fill="#e0e7ff">◆</text>
            <text x="62" y="86" font-size="20" font-family="Georgia, serif" fill="#fff7ed">PAGE</text>
            <text x="358" y="86" text-anchor="end" font-size="20" font-family="Georgia, serif" fill="#fff7ed">PAGE</text>
            
  <rect x="58" y="522" width="304" height="76" rx="18" fill="#020617" opacity=".62" stroke="#facc15" stroke-opacity=".24"/>
  <text x="210" y="558" text-anchor="middle" font-size="20" font-family="Georgia, serif" fill="#fff7ed">Page of Swords</text>
  <text x="210" y="586" text-anchor="middle" font-size="9" font-family="Arial, sans-serif" letter-spacing="3" fill="#c4b5fd">ORIGINAL SYMBOLIC DECK</text>
</svg>