<svg xmlns="http://www.w3.org/2000/svg" width="420" height="660" viewBox="0 0 420 660" role="img" aria-label="Five of Pentacles">
<defs>
<linearGradient id="bg" x1="0" y1="0" x2="1" y2="1"><stop stop-color="#080b18"/><stop offset=".52" stop-color="#211436"/><stop offset="1" stop-color="#050812"/></linearGradient>
<radialGradient id="a" cx="50%" cy="40%" r="64%"><stop stop-color="#34d399" stop-opacity=".22"/><stop offset=".55" stop-color="#fde68a" stop-opacity=".12"/><stop offset="1" stop-color="#000" stop-opacity="0"/></radialGradient>
<filter id="glow"><feDropShadow dx="0" dy="0" stdDeviation="5" flood-color="#34d399" flood-opacity=".42"/></filter>
</defs>
<rect width="420" height="660" rx="34" fill="url(#bg)"/>
<rect x="18" y="18" width="384" height="624" rx="30" fill="url(#a)" stroke="#d6a24f" stroke-opacity=".82" stroke-width="2.4"/>
<rect x="36" y="36" width="348" height="588" rx="22" fill="none" stroke="#fde68a" stroke-opacity=".28" stroke-width="1.5"/>
<circle cx="110" cy="409" r="2" fill="#fff1b8" opacity="0.65"/>
<circle cx="202" cy="514" r="1" fill="#fff1b8" opacity="0.64"/>
<circle cx="56" cy="148" r="2" fill="#fff1b8" opacity="0.46"/>
<circle cx="65" cy="292" r="2" fill="#fff1b8" opacity="0.63"/>
<circle cx="268" cy="542" r="2" fill="#fff1b8" opacity="0.32"/>
<circle cx="73" cy="584" r="1" fill="#fff1b8" opacity="0.76"/>
<circle cx="134" cy="351" r="1" fill="#fff1b8" opacity="0.64"/>
<circle cx="153" cy="482" r="1.5" fill="#fff1b8" opacity="0.77"/>
<circle cx="318" cy="404" r="1" fill="#fff1b8" opacity="0.41"/>
<circle cx="163" cy="402" r="2" fill="#fff1b8" opacity="0.48"/>
<circle cx="216" cy="154" r="1" fill="#fff1b8" opacity="0.70"/>
<circle cx="372" cy="99" r="1" fill="#fff1b8" opacity="0.51"/>
<circle cx="104" cy="344" r="1.5" fill="#fff1b8" opacity="0.60"/>
<circle cx="224" cy="231" r="1" fill="#fff1b8" opacity="0.74"/>
<circle cx="225" cy="464" r="1.2" fill="#fff1b8" opacity="0.52"/>
<circle cx="115" cy="385" r="2" fill="#fff1b8" opacity="0.59"/>
<circle cx="196" cy="409" r="1.5" fill="#fff1b8" opacity="0.34"/>
<circle cx="96" cy="473" r="1.2" fill="#fff1b8" opacity="0.74"/>
<circle cx="62" cy="273" r="1" fill="#fff1b8" opacity="0.53"/>
<circle cx="60" cy="93" r="2" fill="#fff1b8" opacity="0.39"/>
<circle cx="106" cy="500" r="1.5" fill="#fff1b8" opacity="0.27"/>
<circle cx="168" cy="274" r="1.5" fill="#fff1b8" opacity="0.55"/>
<circle cx="250" cy="209" r="1.5" fill="#fff1b8" opacity="0.49"/>
<circle cx="294" cy="409" r="1.5" fill="#fff1b8" opacity="0.45"/>
<circle cx="165" cy="261" r="1.5" fill="#fff1b8" opacity="0.51"/>
<circle cx="157" cy="440" r="1.5" fill="#fff1b8" opacity="0.67"/>
<circle cx="89" cy="302" r="2" fill="#fff1b8" opacity="0.73"/>
<circle cx="186" cy="553" r="1" fill="#fff1b8" opacity="0.55"/>
<circle cx="90" cy="571" r="1.2" fill="#fff1b8" opacity="0.60"/>
<circle cx="274" cy="224" r="1.5" fill="#fff1b8" opacity="0.70"/>
<circle cx="139" cy="508" r="1.5" fill="#fff1b8" opacity="0.30"/>
<circle cx="148" cy="330" r="1" fill="#fff1b8" opacity="0.67"/>
<circle cx="105" cy="79" r="1.5" fill="#fff1b8" opacity="0.28"/>
<circle cx="117" cy="213" r="1.5" fill="#fff1b8" opacity="0.57"/>
<circle cx="294" cy="165" r="1.2" fill="#fff1b8" opacity="0.41"/>
<circle cx="188" cy="86" r="1.2" fill="#fff1b8" opacity="0.65"/>
<circle cx="115" cy="141" r="1" fill="#fff1b8" opacity="0.48"/>
<circle cx="377" cy="399" r="2" fill="#fff1b8" opacity="0.32"/>
<path d="M70 104 C132 68 288 68 350 104 M70 556 C132 592 288 592 350 556" fill="none" stroke="#d6a24f" stroke-opacity=".28" stroke-width="2"/>
<text x="64" y="78" fill="#fff1b8" font-size="22" font-family="Georgia,serif">V</text>
<text x="356" y="78" text-anchor="end" fill="#fff1b8" font-size="22" font-family="Georgia,serif">V</text>
<g filter="url(#glow)"><circle cx="210" cy="292" r="122" fill="#fde68a" opacity=".08"/><circle cx="210" cy="292" r="92" fill="none" stroke="#34d399" stroke-opacity=".36" stroke-width="2"/><text x="210" y="156" text-anchor="middle" dominant-baseline="middle" font-size="42" fill="#34d399" font-family="Georgia,serif">⬟</text><text x="154" y="218" text-anchor="middle" dominant-baseline="middle" font-size="42" fill="#34d399" font-family="Georgia,serif">⬟</text><text x="266" y="218" text-anchor="middle" dominant-baseline="middle" font-size="42" fill="#34d399" font-family="Georgia,serif">⬟</text><text x="154" y="294" text-anchor="middle" dominant-baseline="middle" font-size="42" fill="#34d399" font-family="Georgia,serif">⬟</text><text x="266" y="294" text-anchor="middle" dominant-baseline="middle" font-size="42" fill="#34d399" font-family="Georgia,serif">⬟</text><path d="M130 464 C172 428 248 428 290 464" fill="none" stroke="#34d399" stroke-width="5" stroke-linecap="round" opacity=".6"/></g>
<rect x="58" y="530" width="304" height="74" rx="17" fill="#050812" opacity=".74" stroke="#d6a24f" stroke-opacity=".30"/>
<text x="210" y="566" text-anchor="middle" fill="#fff7df" font-size="20" font-family="Georgia,serif">Five of Pentacles</text>
<text x="210" y="592" text-anchor="middle" fill="#c9b27a" font-size="9" font-family="Arial" letter-spacing="3">FATECARD ORIGINAL</text>
</svg>