<svg xmlns="http://www.w3.org/2000/svg" width="420" height="660" viewBox="0 0 420 660" role="img" aria-label="Page of Pentacles">
<defs>
<linearGradient id="bg" x1="0" y1="0" x2="1" y2="1"><stop stop-color="#080b18"/><stop offset=".52" stop-color="#211436"/><stop offset="1" stop-color="#050812"/></linearGradient>
<radialGradient id="a" cx="50%" cy="40%" r="64%"><stop stop-color="#34d399" stop-opacity=".22"/><stop offset=".55" stop-color="#fde68a" stop-opacity=".12"/><stop offset="1" stop-color="#000" stop-opacity="0"/></radialGradient>
<filter id="glow"><feDropShadow dx="0" dy="0" stdDeviation="5" flood-color="#34d399" flood-opacity=".42"/></filter>
</defs>
<rect width="420" height="660" rx="34" fill="url(#bg)"/>
<rect x="18" y="18" width="384" height="624" rx="30" fill="url(#a)" stroke="#d6a24f" stroke-opacity=".82" stroke-width="2.4"/>
<rect x="36" y="36" width="348" height="588" rx="22" fill="none" stroke="#fde68a" stroke-opacity=".28" stroke-width="1.5"/>
<circle cx="105" cy="474" r="1.5" fill="#fff1b8" opacity="0.55"/>
<circle cx="264" cy="496" r="1" fill="#fff1b8" opacity="0.69"/>
<circle cx="199" cy="103" r="1" fill="#fff1b8" opacity="0.64"/>
<circle cx="82" cy="88" r="1.2" fill="#fff1b8" opacity="0.52"/>
<circle cx="215" cy="300" r="1" fill="#fff1b8" opacity="0.72"/>
<circle cx="150" cy="539" r="1.5" fill="#fff1b8" opacity="0.47"/>
<circle cx="198" cy="145" r="1" fill="#fff1b8" opacity="0.66"/>
<circle cx="258" cy="201" r="1.5" fill="#fff1b8" opacity="0.36"/>
<circle cx="278" cy="200" r="1" fill="#fff1b8" opacity="0.49"/>
<circle cx="158" cy="302" r="1" fill="#fff1b8" opacity="0.45"/>
<circle cx="314" cy="209" r="1.2" fill="#fff1b8" opacity="0.34"/>
<circle cx="315" cy="133" r="2" fill="#fff1b8" opacity="0.44"/>
<circle cx="162" cy="230" r="1" fill="#fff1b8" opacity="0.28"/>
<circle cx="127" cy="536" r="1.2" fill="#fff1b8" opacity="0.65"/>
<circle cx="250" cy="256" r="1.5" fill="#fff1b8" opacity="0.32"/>
<circle cx="337" cy="496" r="1" fill="#fff1b8" opacity="0.67"/>
<circle cx="171" cy="589" r="1.2" fill="#fff1b8" opacity="0.48"/>
<circle cx="229" cy="499" r="1" fill="#fff1b8" opacity="0.51"/>
<circle cx="124" cy="378" r="1" fill="#fff1b8" opacity="0.78"/>
<circle cx="199" cy="401" r="1" fill="#fff1b8" opacity="0.67"/>
<circle cx="65" cy="282" r="2" fill="#fff1b8" opacity="0.60"/>
<circle cx="191" cy="174" r="2" fill="#fff1b8" opacity="0.42"/>
<circle cx="85" cy="97" r="1.2" fill="#fff1b8" opacity="0.63"/>
<circle cx="124" cy="288" r="1.2" fill="#fff1b8" opacity="0.40"/>
<circle cx="351" cy="478" r="1" fill="#fff1b8" opacity="0.77"/>
<circle cx="193" cy="208" r="1.2" fill="#fff1b8" opacity="0.60"/>
<circle cx="99" cy="502" r="1.2" fill="#fff1b8" opacity="0.29"/>
<circle cx="340" cy="66" r="1.2" fill="#fff1b8" opacity="0.64"/>
<circle cx="102" cy="375" r="1" fill="#fff1b8" opacity="0.59"/>
<circle cx="199" cy="170" r="1.5" fill="#fff1b8" opacity="0.28"/>
<circle cx="49" cy="537" r="1.2" fill="#fff1b8" opacity="0.77"/>
<circle cx="88" cy="195" r="1.5" fill="#fff1b8" opacity="0.31"/>
<circle cx="65" cy="536" r="1.2" fill="#fff1b8" opacity="0.75"/>
<circle cx="287" cy="573" r="1" fill="#fff1b8" opacity="0.68"/>
<circle cx="95" cy="579" r="1.5" fill="#fff1b8" opacity="0.42"/>
<circle cx="341" cy="153" r="2" fill="#fff1b8" opacity="0.52"/>
<circle cx="101" cy="357" r="1.2" fill="#fff1b8" opacity="0.70"/>
<circle cx="282" cy="300" r="1.2" fill="#fff1b8" opacity="0.31"/>
<path d="M70 104 C132 68 288 68 350 104 M70 556 C132 592 288 592 350 556" fill="none" stroke="#d6a24f" stroke-opacity=".28" stroke-width="2"/>
<text x="64" y="78" fill="#fff1b8" font-size="22" font-family="Georgia,serif">PAGE</text>
<text x="356" y="78" text-anchor="end" fill="#fff1b8" font-size="22" font-family="Georgia,serif">PAGE</text>
<g filter="url(#glow)"><ellipse cx="210" cy="430" rx="96" ry="22" fill="#fde68a" opacity=".16"/><path d="M148 400 C164 310 186 250 210 220 C234 250 256 310 272 400 Z" fill="#34d399" opacity=".17" stroke="#34d399" stroke-width="3"/><circle cx="210" cy="214" r="40" fill="#fde68a" opacity=".18" stroke="#fde68a" stroke-width="3"/><text x="210" y="268" text-anchor="middle" font-size="74" fill="#34d399" font-family="Georgia,serif">♙</text><text x="210" y="356" text-anchor="middle" font-size="56" fill="#fde68a" font-family="Georgia,serif">⬟</text></g>
<rect x="58" y="530" width="304" height="74" rx="17" fill="#050812" opacity=".74" stroke="#d6a24f" stroke-opacity=".30"/>
<text x="210" y="566" text-anchor="middle" fill="#fff7df" font-size="20" font-family="Georgia,serif">Page of Pentacles</text>
<text x="210" y="592" text-anchor="middle" fill="#c9b27a" font-size="9" font-family="Arial" letter-spacing="3">FATECARD ORIGINAL</text>
</svg>