<svg xmlns="http://www.w3.org/2000/svg" width="420" height="660" viewBox="0 0 420 660" role="img" aria-label="Page of Wands">
<defs>
<linearGradient id="bg" x1="0" y1="0" x2="1" y2="1"><stop stop-color="#080b18"/><stop offset=".52" stop-color="#211436"/><stop offset="1" stop-color="#050812"/></linearGradient>
<radialGradient id="a" cx="50%" cy="40%" r="64%"><stop stop-color="#f59e0b" stop-opacity=".22"/><stop offset=".55" stop-color="#fb923c" stop-opacity=".12"/><stop offset="1" stop-color="#000" stop-opacity="0"/></radialGradient>
<filter id="glow"><feDropShadow dx="0" dy="0" stdDeviation="5" flood-color="#f59e0b" flood-opacity=".42"/></filter>
</defs>
<rect width="420" height="660" rx="34" fill="url(#bg)"/>
<rect x="18" y="18" width="384" height="624" rx="30" fill="url(#a)" stroke="#d6a24f" stroke-opacity=".82" stroke-width="2.4"/>
<rect x="36" y="36" width="348" height="588" rx="22" fill="none" stroke="#fb923c" stroke-opacity=".28" stroke-width="1.5"/>
<circle cx="96" cy="73" r="1.5" fill="#fff1b8" opacity="0.34"/>
<circle cx="218" cy="574" r="1" fill="#fff1b8" opacity="0.62"/>
<circle cx="220" cy="94" r="1.2" fill="#fff1b8" opacity="0.31"/>
<circle cx="270" cy="503" r="1.5" fill="#fff1b8" opacity="0.74"/>
<circle cx="116" cy="477" r="1" fill="#fff1b8" opacity="0.70"/>
<circle cx="301" cy="269" r="1" fill="#fff1b8" opacity="0.44"/>
<circle cx="357" cy="73" r="1" fill="#fff1b8" opacity="0.52"/>
<circle cx="349" cy="324" r="1" fill="#fff1b8" opacity="0.67"/>
<circle cx="353" cy="213" r="1.5" fill="#fff1b8" opacity="0.37"/>
<circle cx="154" cy="260" r="1.5" fill="#fff1b8" opacity="0.60"/>
<circle cx="151" cy="226" r="2" fill="#fff1b8" opacity="0.72"/>
<circle cx="101" cy="192" r="1.5" fill="#fff1b8" opacity="0.50"/>
<circle cx="377" cy="444" r="1.5" fill="#fff1b8" opacity="0.56"/>
<circle cx="188" cy="86" r="1.2" fill="#fff1b8" opacity="0.47"/>
<circle cx="320" cy="585" r="1" fill="#fff1b8" opacity="0.74"/>
<circle cx="202" cy="398" r="2" fill="#fff1b8" opacity="0.40"/>
<circle cx="79" cy="407" r="1.2" fill="#fff1b8" opacity="0.50"/>
<circle cx="245" cy="212" r="1" fill="#fff1b8" opacity="0.58"/>
<circle cx="224" cy="315" r="1.5" fill="#fff1b8" opacity="0.69"/>
<circle cx="108" cy="154" r="1" fill="#fff1b8" opacity="0.65"/>
<circle cx="53" cy="550" r="2" fill="#fff1b8" opacity="0.75"/>
<circle cx="68" cy="70" r="2" fill="#fff1b8" opacity="0.42"/>
<circle cx="190" cy="65" r="1" fill="#fff1b8" opacity="0.38"/>
<circle cx="182" cy="567" r="1.5" fill="#fff1b8" opacity="0.72"/>
<circle cx="245" cy="543" r="1.5" fill="#fff1b8" opacity="0.70"/>
<circle cx="177" cy="395" r="2" fill="#fff1b8" opacity="0.42"/>
<circle cx="199" cy="574" r="1" fill="#fff1b8" opacity="0.29"/>
<circle cx="130" cy="212" r="2" fill="#fff1b8" opacity="0.38"/>
<circle cx="286" cy="185" r="1" fill="#fff1b8" opacity="0.70"/>
<circle cx="253" cy="379" r="2" fill="#fff1b8" opacity="0.72"/>
<circle cx="339" cy="258" r="2" fill="#fff1b8" opacity="0.76"/>
<circle cx="93" cy="206" r="1.5" fill="#fff1b8" opacity="0.29"/>
<circle cx="81" cy="282" r="2" fill="#fff1b8" opacity="0.78"/>
<circle cx="93" cy="188" r="1.2" fill="#fff1b8" opacity="0.73"/>
<circle cx="112" cy="391" r="1.2" fill="#fff1b8" opacity="0.27"/>
<circle cx="99" cy="263" r="1.5" fill="#fff1b8" opacity="0.53"/>
<circle cx="118" cy="78" r="1.5" fill="#fff1b8" opacity="0.46"/>
<circle cx="351" cy="166" r="1.2" fill="#fff1b8" opacity="0.66"/>
<path d="M70 104 C132 68 288 68 350 104 M70 556 C132 592 288 592 350 556" fill="none" stroke="#d6a24f" stroke-opacity=".28" stroke-width="2"/>
<text x="64" y="78" fill="#fff1b8" font-size="22" font-family="Georgia,serif">PAGE</text>
<text x="356" y="78" text-anchor="end" fill="#fff1b8" font-size="22" font-family="Georgia,serif">PAGE</text>
<g filter="url(#glow)"><ellipse cx="210" cy="430" rx="96" ry="22" fill="#fb923c" opacity=".16"/><path d="M148 400 C164 310 186 250 210 220 C234 250 256 310 272 400 Z" fill="#f59e0b" opacity=".17" stroke="#f59e0b" stroke-width="3"/><circle cx="210" cy="214" r="40" fill="#fb923c" opacity=".18" stroke="#fb923c" stroke-width="3"/><text x="210" y="268" text-anchor="middle" font-size="74" fill="#f59e0b" font-family="Georgia,serif">♙</text><text x="210" y="356" text-anchor="middle" font-size="56" fill="#fb923c" font-family="Georgia,serif">♣</text></g>
<rect x="58" y="530" width="304" height="74" rx="17" fill="#050812" opacity=".74" stroke="#d6a24f" stroke-opacity=".30"/>
<text x="210" y="566" text-anchor="middle" fill="#fff7df" font-size="20" font-family="Georgia,serif">Page of Wands</text>
<text x="210" y="592" text-anchor="middle" fill="#c9b27a" font-size="9" font-family="Arial" letter-spacing="3">FATECARD ORIGINAL</text>
</svg>