<svg xmlns="http://www.w3.org/2000/svg" width="420" height="660" viewBox="0 0 420 660" role="img" aria-label="Six of Cups">
<defs>
<linearGradient id="bg" x1="0" y1="0" x2="1" y2="1"><stop stop-color="#080b18"/><stop offset=".52" stop-color="#211436"/><stop offset="1" stop-color="#050812"/></linearGradient>
<radialGradient id="a" cx="50%" cy="40%" r="64%"><stop stop-color="#38bdf8" stop-opacity=".22"/><stop offset=".55" stop-color="#93c5fd" stop-opacity=".12"/><stop offset="1" stop-color="#000" stop-opacity="0"/></radialGradient>
<filter id="glow"><feDropShadow dx="0" dy="0" stdDeviation="5" flood-color="#38bdf8" flood-opacity=".42"/></filter>
</defs>
<rect width="420" height="660" rx="34" fill="url(#bg)"/>
<rect x="18" y="18" width="384" height="624" rx="30" fill="url(#a)" stroke="#d6a24f" stroke-opacity=".82" stroke-width="2.4"/>
<rect x="36" y="36" width="348" height="588" rx="22" fill="none" stroke="#93c5fd" stroke-opacity=".28" stroke-width="1.5"/>
<circle cx="73" cy="65" r="1.2" fill="#fff1b8" opacity="0.75"/>
<circle cx="246" cy="274" r="1.2" fill="#fff1b8" opacity="0.45"/>
<circle cx="73" cy="231" r="1.5" fill="#fff1b8" opacity="0.53"/>
<circle cx="242" cy="350" r="1.2" fill="#fff1b8" opacity="0.41"/>
<circle cx="262" cy="126" r="1.5" fill="#fff1b8" opacity="0.46"/>
<circle cx="89" cy="93" r="1" fill="#fff1b8" opacity="0.31"/>
<circle cx="297" cy="370" r="1.5" fill="#fff1b8" opacity="0.51"/>
<circle cx="133" cy="208" r="1.2" fill="#fff1b8" opacity="0.72"/>
<circle cx="74" cy="346" r="1.5" fill="#fff1b8" opacity="0.70"/>
<circle cx="270" cy="73" r="1" fill="#fff1b8" opacity="0.27"/>
<circle cx="79" cy="355" r="1.2" fill="#fff1b8" opacity="0.33"/>
<circle cx="310" cy="404" r="1" fill="#fff1b8" opacity="0.70"/>
<circle cx="86" cy="245" r="1" fill="#fff1b8" opacity="0.40"/>
<circle cx="255" cy="136" r="2" fill="#fff1b8" opacity="0.51"/>
<circle cx="231" cy="403" r="1.2" fill="#fff1b8" opacity="0.65"/>
<circle cx="269" cy="582" r="1.5" fill="#fff1b8" opacity="0.28"/>
<circle cx="79" cy="385" r="1" fill="#fff1b8" opacity="0.64"/>
<circle cx="210" cy="442" r="1" fill="#fff1b8" opacity="0.60"/>
<circle cx="369" cy="420" r="2" fill="#fff1b8" opacity="0.43"/>
<circle cx="302" cy="498" r="1" fill="#fff1b8" opacity="0.66"/>
<circle cx="342" cy="137" r="1.2" fill="#fff1b8" opacity="0.29"/>
<circle cx="142" cy="382" r="2" fill="#fff1b8" opacity="0.58"/>
<circle cx="60" cy="177" r="1.5" fill="#fff1b8" opacity="0.74"/>
<circle cx="100" cy="268" r="1.2" fill="#fff1b8" opacity="0.29"/>
<circle cx="201" cy="237" r="1.5" fill="#fff1b8" opacity="0.52"/>
<circle cx="95" cy="428" r="1.5" fill="#fff1b8" opacity="0.68"/>
<circle cx="200" cy="294" r="1.5" fill="#fff1b8" opacity="0.50"/>
<circle cx="242" cy="351" r="2" fill="#fff1b8" opacity="0.71"/>
<circle cx="237" cy="95" r="2" fill="#fff1b8" opacity="0.34"/>
<circle cx="229" cy="403" r="1.2" fill="#fff1b8" opacity="0.67"/>
<circle cx="305" cy="351" r="1.2" fill="#fff1b8" opacity="0.45"/>
<circle cx="53" cy="150" r="1" fill="#fff1b8" opacity="0.26"/>
<circle cx="131" cy="182" r="1.2" fill="#fff1b8" opacity="0.60"/>
<circle cx="64" cy="119" r="1" fill="#fff1b8" opacity="0.31"/>
<circle cx="157" cy="179" r="1.5" fill="#fff1b8" opacity="0.62"/>
<circle cx="111" cy="396" r="1" fill="#fff1b8" opacity="0.43"/>
<circle cx="297" cy="264" r="1.5" fill="#fff1b8" opacity="0.34"/>
<circle cx="111" cy="546" r="1.5" fill="#fff1b8" opacity="0.61"/>
<path d="M70 104 C132 68 288 68 350 104 M70 556 C132 592 288 592 350 556" fill="none" stroke="#d6a24f" stroke-opacity=".28" stroke-width="2"/>
<text x="64" y="78" fill="#fff1b8" font-size="22" font-family="Georgia,serif">VI</text>
<text x="356" y="78" text-anchor="end" fill="#fff1b8" font-size="22" font-family="Georgia,serif">VI</text>
<g filter="url(#glow)"><circle cx="210" cy="292" r="122" fill="#93c5fd" opacity=".08"/><circle cx="210" cy="292" r="92" fill="none" stroke="#38bdf8" stroke-opacity=".36" stroke-width="2"/><text x="210" y="156" text-anchor="middle" dominant-baseline="middle" font-size="42" fill="#38bdf8" font-family="Georgia,serif">●</text><text x="154" y="218" text-anchor="middle" dominant-baseline="middle" font-size="42" fill="#38bdf8" font-family="Georgia,serif">●</text><text x="266" y="218" text-anchor="middle" dominant-baseline="middle" font-size="42" fill="#38bdf8" font-family="Georgia,serif">●</text><text x="154" y="294" text-anchor="middle" dominant-baseline="middle" font-size="42" fill="#38bdf8" font-family="Georgia,serif">●</text><text x="266" y="294" text-anchor="middle" dominant-baseline="middle" font-size="42" fill="#38bdf8" font-family="Georgia,serif">●</text><text x="210" y="364" text-anchor="middle" dominant-baseline="middle" font-size="42" fill="#38bdf8" font-family="Georgia,serif">●</text><path d="M130 464 C172 428 248 428 290 464" fill="none" stroke="#38bdf8" stroke-width="5" stroke-linecap="round" opacity=".6"/></g>
<rect x="58" y="530" width="304" height="74" rx="17" fill="#050812" opacity=".74" stroke="#d6a24f" stroke-opacity=".30"/>
<text x="210" y="566" text-anchor="middle" fill="#fff7df" font-size="20" font-family="Georgia,serif">Six of Cups</text>
<text x="210" y="592" text-anchor="middle" fill="#c9b27a" font-size="9" font-family="Arial" letter-spacing="3">FATECARD ORIGINAL</text>
</svg>