<svg xmlns="http://www.w3.org/2000/svg" width="420" height="660" viewBox="0 0 420 660" role="img" aria-label="Seven of Swords">
<defs>
<linearGradient id="bg" x1="0" y1="0" x2="1" y2="1"><stop stop-color="#080b18"/><stop offset=".52" stop-color="#211436"/><stop offset="1" stop-color="#050812"/></linearGradient>
<radialGradient id="a" cx="50%" cy="40%" r="64%"><stop stop-color="#c4b5fd" stop-opacity=".22"/><stop offset=".55" stop-color="#e0e7ff" stop-opacity=".12"/><stop offset="1" stop-color="#000" stop-opacity="0"/></radialGradient>
<filter id="glow"><feDropShadow dx="0" dy="0" stdDeviation="5" flood-color="#c4b5fd" flood-opacity=".42"/></filter>
</defs>
<rect width="420" height="660" rx="34" fill="url(#bg)"/>
<rect x="18" y="18" width="384" height="624" rx="30" fill="url(#a)" stroke="#d6a24f" stroke-opacity=".82" stroke-width="2.4"/>
<rect x="36" y="36" width="348" height="588" rx="22" fill="none" stroke="#e0e7ff" stroke-opacity=".28" stroke-width="1.5"/>
<circle cx="198" cy="234" r="1.5" fill="#fff1b8" opacity="0.51"/>
<circle cx="154" cy="400" r="2" fill="#fff1b8" opacity="0.54"/>
<circle cx="331" cy="409" r="2" fill="#fff1b8" opacity="0.46"/>
<circle cx="150" cy="177" r="2" fill="#fff1b8" opacity="0.66"/>
<circle cx="246" cy="133" r="1" fill="#fff1b8" opacity="0.48"/>
<circle cx="93" cy="60" r="1.2" fill="#fff1b8" opacity="0.56"/>
<circle cx="348" cy="178" r="2" fill="#fff1b8" opacity="0.36"/>
<circle cx="110" cy="66" r="1.2" fill="#fff1b8" opacity="0.28"/>
<circle cx="150" cy="415" r="1.5" fill="#fff1b8" opacity="0.72"/>
<circle cx="94" cy="265" r="1" fill="#fff1b8" opacity="0.73"/>
<circle cx="50" cy="488" r="2" fill="#fff1b8" opacity="0.26"/>
<circle cx="156" cy="482" r="2" fill="#fff1b8" opacity="0.62"/>
<circle cx="158" cy="75" r="1" fill="#fff1b8" opacity="0.45"/>
<circle cx="165" cy="560" r="2" fill="#fff1b8" opacity="0.40"/>
<circle cx="341" cy="573" r="1.5" fill="#fff1b8" opacity="0.67"/>
<circle cx="117" cy="566" r="1.5" fill="#fff1b8" opacity="0.66"/>
<circle cx="70" cy="211" r="2" fill="#fff1b8" opacity="0.35"/>
<circle cx="363" cy="554" r="1.5" fill="#fff1b8" opacity="0.49"/>
<circle cx="255" cy="548" r="1.2" fill="#fff1b8" opacity="0.77"/>
<circle cx="348" cy="177" r="2" fill="#fff1b8" opacity="0.39"/>
<circle cx="135" cy="409" r="1.5" fill="#fff1b8" opacity="0.39"/>
<circle cx="97" cy="590" r="1" fill="#fff1b8" opacity="0.78"/>
<circle cx="362" cy="433" r="2" fill="#fff1b8" opacity="0.77"/>
<circle cx="213" cy="423" r="1" fill="#fff1b8" opacity="0.37"/>
<circle cx="246" cy="262" r="1.5" fill="#fff1b8" opacity="0.54"/>
<circle cx="211" cy="418" r="1.2" fill="#fff1b8" opacity="0.36"/>
<circle cx="116" cy="464" r="2" fill="#fff1b8" opacity="0.69"/>
<circle cx="217" cy="556" r="1.2" fill="#fff1b8" opacity="0.33"/>
<circle cx="284" cy="526" r="1" fill="#fff1b8" opacity="0.35"/>
<circle cx="253" cy="543" r="1.2" fill="#fff1b8" opacity="0.27"/>
<circle cx="176" cy="380" r="1.5" fill="#fff1b8" opacity="0.64"/>
<circle cx="254" cy="226" r="1.2" fill="#fff1b8" opacity="0.41"/>
<circle cx="324" cy="81" r="1" fill="#fff1b8" opacity="0.30"/>
<circle cx="362" cy="204" r="1" fill="#fff1b8" opacity="0.35"/>
<circle cx="125" cy="530" r="1" fill="#fff1b8" opacity="0.48"/>
<circle cx="279" cy="362" r="1.5" fill="#fff1b8" opacity="0.28"/>
<circle cx="255" cy="59" r="1" fill="#fff1b8" opacity="0.35"/>
<circle cx="75" cy="508" r="1.5" fill="#fff1b8" opacity="0.27"/>
<path d="M70 104 C132 68 288 68 350 104 M70 556 C132 592 288 592 350 556" fill="none" stroke="#d6a24f" stroke-opacity=".28" stroke-width="2"/>
<text x="64" y="78" fill="#fff1b8" font-size="22" font-family="Georgia,serif">VII</text>
<text x="356" y="78" text-anchor="end" fill="#fff1b8" font-size="22" font-family="Georgia,serif">VII</text>
<g filter="url(#glow)"><circle cx="210" cy="292" r="122" fill="#e0e7ff" opacity=".08"/><circle cx="210" cy="292" r="92" fill="none" stroke="#c4b5fd" stroke-opacity=".36" stroke-width="2"/><text x="210" y="156" text-anchor="middle" dominant-baseline="middle" font-size="42" fill="#c4b5fd" font-family="Georgia,serif">◆</text><text x="154" y="218" text-anchor="middle" dominant-baseline="middle" font-size="42" fill="#c4b5fd" font-family="Georgia,serif">◆</text><text x="266" y="218" text-anchor="middle" dominant-baseline="middle" font-size="42" fill="#c4b5fd" font-family="Georgia,serif">◆</text><text x="154" y="294" text-anchor="middle" dominant-baseline="middle" font-size="42" fill="#c4b5fd" font-family="Georgia,serif">◆</text><text x="266" y="294" text-anchor="middle" dominant-baseline="middle" font-size="42" fill="#c4b5fd" font-family="Georgia,serif">◆</text><text x="210" y="364" text-anchor="middle" dominant-baseline="middle" font-size="42" fill="#c4b5fd" font-family="Georgia,serif">◆</text><text x="210" y="252" text-anchor="middle" dominant-baseline="middle" font-size="42" fill="#c4b5fd" font-family="Georgia,serif">◆</text><path d="M130 464 C172 428 248 428 290 464" fill="none" stroke="#c4b5fd" stroke-width="5" stroke-linecap="round" opacity=".6"/></g>
<rect x="58" y="530" width="304" height="74" rx="17" fill="#050812" opacity=".74" stroke="#d6a24f" stroke-opacity=".30"/>
<text x="210" y="566" text-anchor="middle" fill="#fff7df" font-size="20" font-family="Georgia,serif">Seven of Swords</text>
<text x="210" y="592" text-anchor="middle" fill="#c9b27a" font-size="9" font-family="Arial" letter-spacing="3">FATECARD ORIGINAL</text>
</svg>