<svg xmlns="http://www.w3.org/2000/svg" width="420" height="660" viewBox="0 0 420 660" role="img" aria-label="Nine of Pentacles">
  <defs>
    <linearGradient id="bg" x1="0" y1="0" x2="1" y2="1">
      <stop offset="0%" stop-color="#050816"/>
      <stop offset="45%" stop-color="#17102d"/>
      <stop offset="100%" stop-color="#020617"/>
    </linearGradient>
    <radialGradient id="aura" cx="50%" cy="38%" r="68%">
      <stop offset="0%" stop-color="#facc15" stop-opacity=".18"/>
      <stop offset="52%" stop-color="#a78bfa" stop-opacity=".10"/>
      <stop offset="100%" stop-color="#020617" stop-opacity="0"/>
    </radialGradient>
    <filter id="glow" x="-30%" y="-30%" width="160%" height="160%">
      <feDropShadow dx="0" dy="0" stdDeviation="6" flood-color="#34d399" flood-opacity=".42"/>
    </filter>
  </defs>
  <rect width="420" height="660" rx="34" fill="url(#bg)"/>
  <rect x="20" y="20" width="380" height="620" rx="30" fill="url(#aura)" stroke="#facc15" stroke-opacity=".54" stroke-width="2"/>
  <rect x="35" y="35" width="350" height="590" rx="22" fill="none" stroke="#a78bfa" stroke-opacity=".18" stroke-width="1.5"/>
  <circle cx="114" cy="256" r="1.8" fill="#fde68a" opacity="0.58"/>
<circle cx="343" cy="124" r="1.8" fill="#fde68a" opacity="0.66"/>
<circle cx="48" cy="327" r="1.0" fill="#fde68a" opacity="0.75"/>
<circle cx="325" cy="578" r="1.8" fill="#fde68a" opacity="0.58"/>
<circle cx="301" cy="280" r="1.0" fill="#fde68a" opacity="0.41"/>
<circle cx="371" cy="364" r="1.0" fill="#fde68a" opacity="0.54"/>
<circle cx="376" cy="543" r="2.2" fill="#fde68a" opacity="0.34"/>
<circle cx="382" cy="203" r="1.0" fill="#fde68a" opacity="0.59"/>
<circle cx="251" cy="357" r="1.0" fill="#fde68a" opacity="0.54"/>
<circle cx="71" cy="197" r="1.4" fill="#fde68a" opacity="0.50"/>
<circle cx="363" cy="250" r="2.2" fill="#fde68a" opacity="0.46"/>
<circle cx="47" cy="496" r="1.4" fill="#fde68a" opacity="0.61"/>
<circle cx="230" cy="571" r="2.2" fill="#fde68a" opacity="0.36"/>
<circle cx="140" cy="392" r="1.0" fill="#fde68a" opacity="0.84"/>
<circle cx="124" cy="428" r="1.4" fill="#fde68a" opacity="0.59"/>
<circle cx="95" cy="207" r="1.8" fill="#fde68a" opacity="0.76"/>
<circle cx="351" cy="245" r="1.4" fill="#fde68a" opacity="0.52"/>
<circle cx="331" cy="503" r="2.2" fill="#fde68a" opacity="0.58"/>
<circle cx="250" cy="84" r="1.0" fill="#fde68a" opacity="0.71"/>
<circle cx="307" cy="173" r="2.2" fill="#fde68a" opacity="0.78"/>
<circle cx="196" cy="334" r="1.0" fill="#fde68a" opacity="0.45"/>
<circle cx="311" cy="387" r="2.2" fill="#fde68a" opacity="0.69"/>
<circle cx="299" cy="568" r="1.0" fill="#fde68a" opacity="0.46"/>
<circle cx="65" cy="225" r="1.8" fill="#fde68a" opacity="0.39"/>
<circle cx="142" cy="549" r="1.8" fill="#fde68a" opacity="0.46"/>
<circle cx="178" cy="182" r="1.0" fill="#fde68a" opacity="0.60"/>
<circle cx="338" cy="166" r="1.4" fill="#fde68a" opacity="0.48"/>
<circle cx="291" cy="579" r="1.8" fill="#fde68a" opacity="0.49"/>
<circle cx="201" cy="546" r="1.0" fill="#fde68a" opacity="0.57"/>
<circle cx="107" cy="258" r="2.2" fill="#fde68a" opacity="0.74"/>
<circle cx="240" cy="338" r="1.0" fill="#fde68a" opacity="0.65"/>
<circle cx="200" cy="464" r="1.0" fill="#fde68a" opacity="0.35"/>
<circle cx="349" cy="500" r="1.0" fill="#fde68a" opacity="0.54"/>
<circle cx="94" cy="518" r="1.0" fill="#fde68a" opacity="0.48"/>
  
    <path d="M55 118 C120 74 300 74 365 118" fill="none" stroke="#34d399" stroke-opacity=".28" stroke-width="2"/>
    <path d="M55 542 C120 586 300 586 365 542" fill="none" stroke="#34d399" stroke-opacity=".28" stroke-width="2"/>
    <path d="M74 88 L98 88 M322 88 L346 88 M74 572 L98 572 M322 572 L346 572" stroke="#fde68a" stroke-opacity=".50" stroke-width="2" stroke-linecap="round"/>
    <circle cx="80" cy="100" r="10" fill="none" stroke="#fde68a" stroke-opacity=".45"/>
    <circle cx="340" cy="100" r="10" fill="none" stroke="#fde68a" stroke-opacity=".45"/>
    <circle cx="80" cy="560" r="10" fill="none" stroke="#fde68a" stroke-opacity=".45"/>
    <circle cx="340" cy="560" r="10" fill="none" stroke="#fde68a" stroke-opacity=".45"/>
    
  
            <circle cx="210" cy="286" r="132" fill="#34d399" opacity=".065"/>
            <circle cx="210" cy="286" r="102" fill="none" stroke="#fde68a" stroke-opacity=".36" stroke-width="2"/>
            <text x="210" y="164" text-anchor="middle" dominant-baseline="middle" font-size="42" font-family="Georgia, serif" fill="#34d399" opacity=".94">⬟</text><text x="154" y="220" text-anchor="middle" dominant-baseline="middle" font-size="42" font-family="Georgia, serif" fill="#34d399" opacity=".94">⬟</text><text x="266" y="220" text-anchor="middle" dominant-baseline="middle" font-size="42" font-family="Georgia, serif" fill="#34d399" opacity=".94">⬟</text><text x="154" y="302" text-anchor="middle" dominant-baseline="middle" font-size="42" font-family="Georgia, serif" fill="#34d399" opacity=".94">⬟</text><text x="266" y="302" text-anchor="middle" dominant-baseline="middle" font-size="42" font-family="Georgia, serif" fill="#34d399" opacity=".94">⬟</text><text x="210" y="360" text-anchor="middle" dominant-baseline="middle" font-size="42" font-family="Georgia, serif" fill="#34d399" opacity=".94">⬟</text><text x="210" y="250" text-anchor="middle" dominant-baseline="middle" font-size="50" font-family="Georgia, serif" fill="#34d399" opacity=".94">⬟</text><text x="154" y="384" text-anchor="middle" dominant-baseline="middle" font-size="42" font-family="Georgia, serif" fill="#34d399" opacity=".94">⬟</text><text x="266" y="384" text-anchor="middle" dominant-baseline="middle" font-size="42" font-family="Georgia, serif" fill="#34d399" opacity=".94">⬟</text>
            <text x="62" y="86" font-size="26" font-family="Georgia, serif" fill="#fff7ed">IX</text>
            <text x="358" y="86" text-anchor="end" font-size="26" font-family="Georgia, serif" fill="#fff7ed">IX</text>
            
  <rect x="58" y="522" width="304" height="76" rx="18" fill="#020617" opacity=".62" stroke="#facc15" stroke-opacity=".24"/>
  <text x="210" y="558" text-anchor="middle" font-size="20" font-family="Georgia, serif" fill="#fff7ed">Nine of Pentacles</text>
  <text x="210" y="586" text-anchor="middle" font-size="9" font-family="Arial, sans-serif" letter-spacing="3" fill="#c4b5fd">ORIGINAL SYMBOLIC DECK</text>
</svg>