<svg xmlns="http://www.w3.org/2000/svg" width="1600" height="1200" viewBox="0 0 1600 1200">
  <defs>
    <radialGradient id="gold" cx="50%" cy="50%" r="50%">
      <stop offset="0%" stop-color="#fde68a" stop-opacity="0.72"/>
      <stop offset="45%" stop-color="#facc15" stop-opacity="0.18"/>
      <stop offset="100%" stop-color="#000000" stop-opacity="0"/>
    </radialGradient>
    <radialGradient id="violet" cx="50%" cy="50%" r="50%">
      <stop offset="0%" stop-color="#a78bfa" stop-opacity="0.45"/>
      <stop offset="55%" stop-color="#7c3aed" stop-opacity="0.16"/>
      <stop offset="100%" stop-color="#000000" stop-opacity="0"/>
    </radialGradient>
    <filter id="blur"><feGaussianBlur stdDeviation="36"/></filter>
  </defs>
  <rect width="1600" height="1200" fill="#05020b"/>
  <circle cx="1280" cy="170" r="360" fill="url(#gold)" filter="url(#blur)"/>
  <circle cx="240" cy="940" r="430" fill="url(#violet)" filter="url(#blur)"/>
  <circle cx="840" cy="560" r="260" fill="#38bdf8" opacity="0.08" filter="url(#blur)"/>
  <g fill="none" stroke="#facc15" stroke-opacity="0.18">
    <ellipse cx="800" cy="600" rx="610" ry="250" transform="rotate(-18 800 600)"/>
    <ellipse cx="800" cy="600" rx="520" ry="210" transform="rotate(16 800 600)"/>
    <ellipse cx="800" cy="600" rx="710" ry="300" transform="rotate(3 800 600)"/>
  </g>
  <g fill="#fde68a" opacity="0.54">
    <circle cx="180" cy="160" r="3"/><circle cx="372" cy="245" r="2"/><circle cx="622" cy="142" r="3"/>
    <circle cx="916" cy="218" r="2"/><circle cx="1244" cy="316" r="3"/><circle cx="1410" cy="196" r="2"/>
    <circle cx="268" cy="830" r="2"/><circle cx="550" cy="932" r="3"/><circle cx="850" cy="1010" r="2"/>
    <circle cx="1180" cy="860" r="3"/><circle cx="1450" cy="990" r="2"/>
  </g>
</svg>